<svg width="55" height="55" viewBox="0 0 55 55" fill="none" xmlns="http://www.w3.org/2000/svg">
<circle cx="27.501" cy="27.5" r="27.5" fill="#FFBCD2"/>
<g clip-path="url(#clip0_0_3414)">
<path d="M16.3134 10.0469H16.2861C16.3669 10.539 16.4136 11.0358 16.4257 11.5341C16.4257 11.5341 16.4257 11.5341 16.4461 11.5341C16.5092 11.0347 16.464 10.5278 16.3134 10.0469Z" fill="#E0855C"/>
<path d="M16.6707 10.0034H16.6367C16.7187 10.4965 16.7664 10.9945 16.7796 11.4939H16.7966C16.8627 10.9939 16.8197 10.4858 16.6707 10.0034Z" fill="#E0855C"/>
<path d="M17.056 10.1106C17.043 10.1006 17.0279 10.0937 17.0117 10.0905C17.0824 10.5565 17.1256 11.0262 17.141 11.4972C17.2145 11.0344 17.1854 10.5614 17.056 10.1106Z" fill="#E0855C"/>
<path d="M48.7376 43.1415C48.38 43.0849 48.0223 43.0472 47.658 43.0236C47.5577 43.0236 18.2871 43 18.2871 43H18.2203H18.12H6.84565H6.7788L6.31085 43.0613C6.22841 43.0613 6.14933 43.1075 6.09103 43.1898C6.03273 43.2721 6 43.3837 6 43.5C6 43.6163 6.03273 43.7279 6.09103 43.8102C6.14933 43.8925 6.22841 43.9387 6.31085 43.9387L6.7788 44H6.83896H18.1033H18.2203H18.2805H47.6613C48.0223 43.9764 48.38 43.934 48.7376 43.8821C48.8072 43.8821 48.8739 43.8431 48.9231 43.7736C48.9724 43.7042 49 43.61 49 43.5118C49 43.4136 48.9724 43.3194 48.9231 43.25C48.8739 43.1805 48.8072 43.1415 48.7376 43.1415Z" fill="#C6C6C6"/>
<path d="M11.2976 26.5495C11.1576 26.543 11.0191 26.5182 10.8858 26.4758C10.2836 26.3217 9.66429 26.3351 9.38868 25.6585C9.24921 25.2179 9.27454 24.7426 9.46012 24.3187C9.64307 23.9026 9.75792 23.4606 9.80038 23.0091C9.77597 22.8391 9.80198 22.6658 9.87525 22.5101C9.94196 22.4379 10.0243 22.3815 10.1162 22.345C10.2081 22.3084 10.3072 22.2927 10.4061 22.299C11.4269 22.2589 12.8492 22.7613 13.1622 23.813C12.8798 23.9939 12.7131 24.4829 12.5634 24.7475C12.3184 25.203 12.0938 25.6786 11.808 26.114C11.597 26.4322 11.4881 26.5461 11.2976 26.5495Z" fill="#494949"/>
<path d="M12.5776 23.5383C12.5511 23.4882 12.5369 23.4326 12.5362 23.3761C12.5354 23.3196 12.5481 23.2638 12.5733 23.213C12.5984 23.1622 12.6353 23.1179 12.6809 23.0836C12.7266 23.0494 12.7798 23.0262 12.8362 23.0158C13.2819 22.9086 13.6698 23.6455 13.5167 23.9972C13.1946 23.8628 12.881 23.7096 12.5776 23.5383Z" fill="#E0855C"/>
<path d="M24.3605 27.4739C24.1412 28.448 23.7982 29.391 23.3397 30.2807C22.9735 31.0042 22.5162 31.6794 21.9786 32.2904L21.914 32.2636L21.7949 32.2201C21.0327 31.9454 18.2255 30.9272 17.596 30.743C17.4973 30.7128 17.3953 30.686 17.2932 30.6626C17.072 30.609 16.8474 30.5554 16.6127 30.5085C16.4425 30.475 16.2724 30.4449 16.0989 30.4181C15.1087 30.2606 14.173 30.2037 13.8497 30.1769C13.8147 30.1754 13.7815 30.1612 13.7564 30.1371C13.7313 30.113 13.7161 30.0807 13.7136 30.0463C13.6967 29.8233 13.6967 29.5994 13.7136 29.3764C13.7303 29.1324 13.7622 28.8897 13.8089 28.6496C13.8361 28.4988 13.8735 28.3414 13.9178 28.1773C13.9858 27.9462 14.0709 27.7084 14.173 27.4572L14.1934 27.4069C14.1928 27.4003 14.1928 27.3935 14.1934 27.3868C14.2152 27.327 14.2413 27.2688 14.2716 27.2127L13.8157 27.005C13.6626 26.938 13.4754 26.861 13.3019 26.7873C13.0584 26.6823 12.8097 26.5895 12.5567 26.5093L12.4989 26.4925C12.475 26.4925 12.4989 26.4925 12.4989 26.4624L12.5635 26.4289C12.5713 26.4271 12.5795 26.4271 12.5873 26.4289L12.7609 26.3217C12.8744 26.2479 12.9824 26.1662 13.0841 26.0772L13.142 26.027C13.142 26.027 13.142 26.027 13.159 26.0069C13.1822 25.9874 13.2038 25.9661 13.2236 25.9432C13.3011 25.8694 13.3728 25.7899 13.438 25.7054C13.4788 25.6552 13.5163 25.5982 13.5571 25.5413C13.5979 25.4844 13.6081 25.4643 13.6319 25.4207C13.6856 25.3324 13.7334 25.2406 13.7749 25.1461C13.8088 25.0674 13.8384 24.9868 13.8633 24.9049C13.8811 24.8627 13.8947 24.819 13.9041 24.7743L14.8059 25.1092L15.1767 25.2499L15.2108 25.1762L15.2448 25.1193C15.2754 25.0556 15.3197 24.9719 15.3707 24.8748C15.5068 24.6236 15.711 24.2819 15.9151 23.9671C15.9324 23.9368 15.9517 23.9077 15.973 23.88C16.2009 23.5451 16.4323 23.0192 16.6535 23.123C17.0142 23.2905 17.4905 23.535 18.0316 23.8298C18.3242 23.9872 19.1715 24.4594 19.2803 24.5197C21.3219 25.6719 23.6391 27.0753 24.2006 27.4136C24.3162 27.4505 24.3605 27.4739 24.3605 27.4739Z" fill="#F5A784"/>
<path d="M12.4746 26.4791C12.7137 26.5442 12.9646 26.5562 13.209 26.5142C13.4534 26.4722 13.6852 26.3772 13.8878 26.2362C14.0903 26.0952 14.2585 25.9116 14.3801 25.6987C14.5018 25.4858 14.5738 25.249 14.591 25.0054L13.9309 24.7609C13.8283 25.1337 13.6451 25.4802 13.3937 25.7768C13.1423 26.0734 12.8288 26.313 12.4746 26.4791Z" fill="#E0855C"/>
<path d="M11.6311 23.1565C11.8999 23.0694 12.3116 23.2537 12.7778 23.458C14.1729 24.0743 14.4008 24.6872 14.1388 25.414C13.8768 26.1409 13.244 26.7337 11.8965 26.2681C11.216 26.037 10.5933 25.8327 10.4334 25.471C10.185 24.9351 10.8043 23.4178 11.6311 23.1565Z" fill="#F5A784"/>
<path d="M11.7536 26.0839C11.7536 26.0839 11.0731 26.0203 11.216 26.4993C11.3589 26.9782 12.4376 26.9313 12.6281 26.3887C12.6281 26.3887 12.0429 26.0236 11.7536 26.0839Z" fill="#F5A784"/>
<path d="M11.553 26.4693C11.6168 26.4029 11.6981 26.3553 11.7878 26.3318C11.8711 26.2944 11.9616 26.275 12.0532 26.2748C12.0804 26.2748 12.077 26.3151 12.0532 26.3251C12.0294 26.3352 11.9239 26.3587 11.8592 26.3788C11.8809 26.4202 11.8915 26.4664 11.8898 26.5129C11.8875 26.5204 11.8827 26.527 11.8763 26.5317C11.8699 26.5363 11.8621 26.5388 11.8541 26.5388C11.8461 26.5388 11.8384 26.5363 11.8319 26.5317C11.8255 26.527 11.8208 26.5204 11.8184 26.5129C11.7953 26.4777 11.7813 26.4374 11.7775 26.3956C11.7143 26.4357 11.647 26.4694 11.5768 26.4962C11.5734 26.4962 11.57 26.4955 11.5668 26.4941C11.5637 26.4927 11.5609 26.4907 11.5586 26.4881C11.5564 26.4856 11.5547 26.4826 11.5537 26.4793C11.5527 26.4761 11.5525 26.4727 11.553 26.4693Z" fill="#E0855C"/>
<path d="M12.4481 24.0343C12.4481 24.0343 12.5536 23.9404 12.3324 23.8566C12.1113 23.7728 12.1215 23.8767 12.1215 23.8767C12.1215 23.8767 12.0807 23.9572 12.2508 24.0243C12.4209 24.0913 12.4481 24.0343 12.4481 24.0343Z" fill="black"/>
<path d="M11.8627 25.22C11.8627 25.22 11.9647 25.1228 11.7436 25.0423C11.5224 24.9618 11.5326 25.0624 11.5326 25.0624C11.5326 25.0624 11.4918 25.1429 11.6619 25.21C11.832 25.277 11.8627 25.22 11.8627 25.22Z" fill="black"/>
<path d="M12.7468 24.8346C12.7672 24.7709 12.8693 24.6537 12.8182 24.5934C12.6669 24.5356 12.5094 24.4952 12.3487 24.4728C12.1311 24.4427 11.9153 24.4014 11.7021 24.3489V24.3254C12.0988 24.3716 12.4913 24.4477 12.8761 24.5532C12.8811 24.5542 12.8858 24.5564 12.8898 24.5595C12.8939 24.5625 12.8972 24.5665 12.8995 24.571C12.9017 24.5755 12.903 24.5805 12.903 24.5855C12.9031 24.5905 12.902 24.5955 12.8999 24.6001C12.8557 24.6872 12.8318 24.781 12.7876 24.868C12.7876 24.8814 12.7229 24.868 12.7468 24.8346Z" fill="#E0855C"/>
<path d="M11.7471 23.8565C11.7471 23.7527 11.8117 23.5886 11.9308 23.5718C11.9359 23.5711 11.9411 23.5719 11.9458 23.5739C11.9505 23.576 11.9545 23.5793 11.9573 23.5835C11.9601 23.5877 11.9617 23.5926 11.9619 23.5977C11.962 23.6027 11.9607 23.6077 11.9581 23.612C11.9377 23.6522 11.8968 23.679 11.873 23.7192C11.8478 23.7623 11.8327 23.8104 11.8288 23.8599C11.8283 23.8706 11.8236 23.8806 11.8156 23.8878C11.8076 23.895 11.7971 23.8989 11.7862 23.8984C11.7754 23.898 11.7652 23.8933 11.7579 23.8855C11.7505 23.8776 11.7467 23.8672 11.7471 23.8565Z" fill="black"/>
<path d="M11.2398 25.136C11.1411 25.0322 11.2397 24.8178 11.352 24.7676C11.3793 24.7676 11.4065 24.7844 11.4031 24.8078C11.3997 24.8312 11.3452 24.9116 11.3248 24.9686C11.3103 25.0164 11.3023 25.066 11.301 25.1159C11.2976 25.1427 11.2568 25.1595 11.2398 25.136Z" fill="black"/>
<path d="M13.3185 24.7475C13.2242 25.0153 13.0498 25.2488 12.8184 25.4174C12.9173 25.4232 13.0164 25.4083 13.1091 25.3737C13.2017 25.339 13.2859 25.2854 13.356 25.2164C13.5567 24.9987 13.3185 24.7475 13.3185 24.7475Z" fill="white"/>
<path d="M18.7803 18.6716C18.8007 19.3884 18.4604 21.7732 18.0657 23.813C18.0351 23.9704 18.0079 24.1278 17.9739 24.2819C17.7187 25.5447 17.4498 26.6031 17.2491 26.9179C17.1648 27.0548 17.0516 27.1723 16.9171 27.2625C16.7827 27.3526 16.6302 27.4133 16.4699 27.4404C16.3048 27.4728 16.1348 27.4728 15.9697 27.4404C15.2041 27.2529 14.9489 26.2849 15.2041 25.2499C15.2347 25.1226 15.4593 24.1948 15.5444 23.8264C15.9833 22.011 16.5924 19.4721 16.6502 18.8023C16.7251 17.9582 16.31 13.202 16.31 13.202C16.6502 12.4451 17.5723 12.6192 17.5723 12.6192C17.5723 12.6192 18.7292 16.4845 18.7803 18.6716Z" fill="#F5A784"/>
<path d="M17.6948 12.981C17.6948 12.981 17.6132 12.5891 17.5655 12.0934C17.5179 11.5977 17.4158 10.5058 17.2014 10.2077C17.1567 10.1698 17.1076 10.1372 17.0551 10.1106C17.0414 10.1019 17.0265 10.0951 17.0109 10.0905C16.9044 10.0397 16.7887 10.0101 16.6706 10.0034H16.6366C16.5212 9.99865 16.4059 10.0145 16.2963 10.0503H16.2691C16.1705 10.0825 16.0766 10.1276 15.9901 10.1842C16.0535 10.6719 16.0638 11.1648 16.0207 11.6546C16.0207 11.6546 15.7689 11.0149 15.5512 10.9848L15.415 11.045C15.415 11.045 15.6056 11.7652 15.6634 12.0934C15.7775 12.6074 16.0866 13.0591 16.5277 13.3561C16.5277 13.3561 17.46 13.5169 17.6948 12.981Z" fill="#F5A784"/>
<path d="M22.4277 40.6706C22.4277 41.0543 22.3423 41.4334 22.1775 41.7811C22.0127 42.1289 21.7724 42.4368 21.4737 42.6833C21.175 42.9298 20.8249 43.1089 20.4483 43.2079C20.0717 43.3069 19.6777 43.3234 19.2938 43.2564C19.1937 43.2393 19.0948 43.2158 18.9978 43.1861C18.7708 43.1189 18.5535 43.0232 18.3513 42.9014C18.273 42.8511 18.1948 42.7975 18.1199 42.7406C17.9152 42.5843 17.7361 42.3979 17.5891 42.1879C17.2665 41.7459 17.0939 41.2149 17.0957 40.6706C17.0966 39.9748 17.3781 39.3077 17.8783 38.816C18.3785 38.3242 19.0565 38.048 19.7634 38.048C19.9933 38.0487 20.2221 38.0791 20.4439 38.1385C20.5343 38.1614 20.623 38.1905 20.7093 38.2256C20.9636 38.3218 21.2013 38.4562 21.4137 38.6241L21.5021 38.6945C21.5724 38.7558 21.6394 38.8206 21.7029 38.8887C22.1663 39.3701 22.4256 40.0075 22.4277 40.6706Z" fill="#E4547E"/>
<path d="M21.9104 40.1381C21.9109 40.4828 21.8423 40.8242 21.7086 41.1427C21.5749 41.4613 21.3787 41.7508 21.1313 41.9947C20.8838 42.2386 20.59 42.4321 20.2665 42.5641C19.943 42.6961 19.5963 42.764 19.2461 42.764C19.0885 42.7648 18.9313 42.7503 18.7766 42.7205C18.6765 42.7049 18.5775 42.6825 18.4806 42.6535C18.2529 42.5866 18.0354 42.4897 17.8341 42.3654C17.7558 42.3152 17.6775 42.265 17.6027 42.208L17.5823 42.1879C17.2597 41.7459 17.087 41.2149 17.0889 40.6706C17.0898 39.9748 17.3712 39.3077 17.8714 38.816C18.3716 38.3242 19.0496 38.048 19.7565 38.048C19.9864 38.0487 20.2152 38.0791 20.4371 38.1385C20.5275 38.1614 20.6162 38.1905 20.7025 38.2256C21.1068 38.3422 21.4528 38.6023 21.6734 38.9557C21.894 39.309 21.9737 39.7303 21.8968 40.1381H21.9104Z" fill="#C1063D"/>
<path d="M16.1597 29.3362C16.1339 29.1786 16.0742 29.0283 15.9843 28.8954C15.8945 28.7625 15.7768 28.6501 15.6391 28.5658C14.6387 27.9864 13.9071 28.1137 13.7132 29.373C13.492 30.8133 12.7638 35.8307 12.5086 36.6413C12.3249 37.2308 11.1135 39.6558 10.467 40.9118C9.93282 41.8262 9.70485 42.5095 8.78613 42.6837C8.55135 42.7272 8.30976 42.7305 8.07838 42.7875C7.9607 42.809 7.8491 42.8551 7.75107 42.9227C7.65305 42.9903 7.57089 43.0779 7.51014 43.1794C7.48632 43.2296 7.47611 43.2966 7.51014 43.3301C7.53358 43.3441 7.56114 43.35 7.58839 43.3468L10.399 43.4507C10.4677 43.4558 10.5368 43.449 10.6032 43.4306C10.7971 43.3602 10.8413 43.1191 10.9026 42.9248C10.9311 42.8412 10.9699 42.7613 11.0183 42.687C11.2633 42.3789 13.5839 39.4481 14.4209 37.549C14.9279 36.4068 16.3366 30.3176 16.1597 29.3362Z" fill="#F5A784"/>
<path d="M46.5565 43.2196C46.0903 43.9564 43.8922 42.7339 43.0041 42.2147L42.6843 42.0372C42.1644 41.8309 41.6313 41.6586 41.0884 41.5214C40.0676 41.2367 39.1251 40.9286 38.2677 40.6104C34.9092 39.3644 32.8234 37.9811 32.4219 37.8404C25.6438 35.4958 22.51 32.9536 22.51 32.9536C20.5297 31.165 21.217 29.718 23.1123 29.8152C23.6789 29.8495 24.2356 29.9774 24.7591 30.1936C26.1917 30.753 28.2979 31.9822 30.1217 33.1177C32.1429 34.3838 33.8102 35.5326 33.8102 35.5326C35.8928 36.3428 37.8896 37.3525 39.7716 38.5471C40.2072 38.8151 40.5917 39.0629 40.9115 39.2706V39.2471C40.9115 39.2471 42.8034 40.53 43.4703 40.9219C43.53 40.9628 43.5939 40.9976 43.6608 41.0257C44.2835 41.2936 47.0907 42.3554 46.5565 43.2196Z" fill="#F5A784"/>
<path d="M39.7711 38.5706C39.6996 38.6844 39.6316 38.7916 39.5601 38.9055C39.1706 39.5084 38.7385 40.0837 38.2671 40.6271C34.9087 39.3811 32.8229 37.9978 32.4214 37.8571C25.6433 35.5125 22.5095 32.9703 22.5095 32.9703C20.5836 31.232 21.1756 29.8185 22.9484 29.8252C23.5708 29.8425 24.1845 29.9731 24.7586 30.2104C25.1942 30.3812 25.6909 30.6123 26.2252 30.8803C28.0286 31.8014 30.2369 33.188 31.8021 34.2063C32.993 34.9833 33.8096 35.546 33.8096 35.546C35.8927 36.3594 37.8895 37.3725 39.7711 38.5706Z" fill="#393939"/>
<path d="M31.8027 34.2029C27.5902 33.5565 26.0454 31.6339 26.0454 31.6339C25.6677 31.1985 25.8174 30.964 26.2257 30.877C28.0359 31.798 30.2375 33.1814 31.8027 34.2029Z" fill="#656565"/>
<path d="M49.1794 37.8504C48.7881 38.6945 46.1578 37.5624 45.3582 37.2308L45.1915 37.1638C44.6495 37.0263 44.0995 36.9212 43.5446 36.849C42.4898 36.6915 41.503 36.514 40.6251 36.2896C37.1408 35.4623 34.9053 34.3503 34.4799 34.2599C32.8263 33.9048 31.3733 33.5163 30.1212 33.1277C26.038 31.8717 24.0236 30.6257 24.0236 30.6257C23.6885 30.3954 23.3824 30.1267 23.1117 29.8252C21.7268 28.2242 23.1968 26.9213 25.9053 27.6112C29.0561 28.4151 35.562 31.798 35.562 31.798C37.5976 32.3117 39.5789 33.0149 41.4792 33.8981C42.1019 34.1761 42.6497 34.4374 43.0852 34.6517V34.6249C43.0852 34.6249 45.0656 35.6298 45.8074 35.9647C45.8851 35.9989 45.9646 36.0291 46.0455 36.0551C46.6852 36.2193 49.6081 36.9293 49.1794 37.8504Z" fill="#F5A784"/>
<path d="M41.4787 33.8982C41.2487 34.7132 40.9633 35.5122 40.6246 36.2896C37.1369 35.4657 34.9048 34.3503 34.4794 34.2599C27.453 32.7493 24.0231 30.6258 24.0231 30.6258C21.2772 28.7065 22.7539 26.8108 25.9048 27.6113C29.0556 28.4118 35.5615 31.7981 35.5615 31.7981C37.5973 32.3112 39.5787 33.0144 41.4787 33.8982Z" fill="#393939"/>
<path d="M24.3608 27.4739C24.139 28.4473 23.7962 29.39 23.34 30.2807C22.9055 30.9787 22.3905 31.625 21.8054 32.2067C21.1623 31.9756 19.0833 31.2018 18.0625 30.8669C17.8719 30.7999 17.7222 30.7497 17.6167 30.7229C17.5112 30.6961 17.416 30.6659 17.3139 30.6425C17.0927 30.5889 16.8681 30.5353 16.6334 30.4884C16.4999 30.2963 16.3447 30.1199 16.1706 29.9625C15.757 29.5958 15.2931 29.288 14.7925 29.0482C14.5167 28.9123 14.2339 28.7904 13.9453 28.6831L13.8262 28.6395C13.8534 28.4888 13.8908 28.3314 13.9351 28.1673C14.006 27.9226 14.0912 27.6821 14.1903 27.4471C14.7821 27.5864 15.4002 27.5761 15.9869 27.417C16.1005 27.3786 16.2043 27.3161 16.2907 27.234C16.3771 27.1518 16.4442 27.0519 16.487 26.9414C16.8647 25.9164 16.0141 25.2064 15.4152 24.8513L15.3233 24.7977C15.3948 24.513 15.4765 24.1714 15.5683 23.7929C15.6962 23.8464 15.8268 23.8933 15.9596 23.9336C16.6254 24.1198 17.3101 24.2321 18.0012 24.2685C18.3755 24.2953 18.726 24.3054 19.022 24.3087C19.1309 24.3657 19.2398 24.4293 19.3623 24.4896C21.4039 25.6418 23.7211 27.0452 24.2825 27.3835C24.3165 27.4505 24.3608 27.4739 24.3608 27.4739Z" fill="#C1063D"/>
<path d="M46.5561 43.2196C46.3655 43.521 45.8755 43.4942 45.3141 43.3201C44.5082 43.033 43.7341 42.666 43.0037 42.2248C42.8752 42.0022 42.8398 41.7391 42.905 41.4913C42.9319 41.3689 42.9905 41.2556 43.0752 41.1622C43.1599 41.0689 43.2677 40.9988 43.3882 40.9587C43.4148 40.9497 43.4421 40.9429 43.4699 40.9386C43.5296 40.9795 43.5934 41.0143 43.6604 41.0424C44.3896 41.3192 45.0941 41.6553 45.7666 42.0473C46.3689 42.4057 46.7976 42.8344 46.5561 43.2196Z" fill="#C1063D"/>
<path d="M49.1797 37.8504C49.0402 38.1519 48.6217 38.2021 48.1011 38.1284C47.156 37.93 46.2362 37.6289 45.3586 37.2308C45.3009 37.1044 45.2692 36.968 45.2651 36.8295C45.261 36.691 45.2847 36.5531 45.3348 36.4236C45.43 36.2218 45.5919 36.0576 45.7941 35.958C45.8718 35.9922 45.9514 36.0224 46.0323 36.0484C46.8507 36.2373 47.6484 36.5043 48.4141 36.8456C48.9688 37.1303 49.3567 37.4753 49.1797 37.8504Z" fill="#C1063D"/>
<path d="M43.8097 41.6554C43.7247 41.6286 43.66 41.7358 43.6192 41.7994C43.5618 41.8917 43.5279 41.9963 43.5205 42.1042C43.5226 42.1101 43.5265 42.1153 43.5317 42.1189C43.5369 42.1225 43.5431 42.1245 43.5494 42.1245C43.5558 42.1245 43.562 42.1225 43.5672 42.1189C43.5724 42.1153 43.5763 42.1101 43.5783 42.1042C43.6002 41.9994 43.6481 41.9016 43.7179 41.8195C43.7587 41.7693 43.8335 41.7391 43.8301 41.6688C43.8283 41.665 43.8254 41.6617 43.8218 41.6593C43.8182 41.657 43.814 41.6556 43.8097 41.6554Z" fill="#E8CEE5"/>
<path d="M44.028 41.8128C43.9451 41.854 43.8812 41.9246 43.849 42.0103C43.8168 42.0961 43.8187 42.1906 43.8545 42.275C43.8591 42.285 43.8665 42.2935 43.8759 42.2994C43.8852 42.3054 43.8961 42.3086 43.9073 42.3086C43.9184 42.3086 43.9293 42.3054 43.9387 42.2994C43.948 42.2935 43.9554 42.285 43.96 42.275C43.9796 42.1645 44.0373 42.064 44.1233 41.9903C44.2118 41.9032 44.1335 41.7659 44.028 41.8128Z" fill="#E8CEE5"/>
<path d="M44.3685 41.9368C44.2856 41.9915 44.2267 42.075 44.2034 42.1705C44.1801 42.266 44.1941 42.3667 44.2426 42.4526C44.2426 42.4526 44.2766 42.4526 44.2834 42.4526C44.3072 42.374 44.3356 42.2968 44.3685 42.2215C44.4101 42.1586 44.4465 42.0925 44.4774 42.0238C44.508 41.9535 44.4297 41.91 44.3685 41.9368Z" fill="#E8CEE5"/>
<path d="M46.5554 43.2196C46.3648 43.521 45.8749 43.4942 45.3134 43.3201C45.307 43.2152 45.307 43.1101 45.3134 43.0052C45.3106 42.8306 45.3442 42.6574 45.4121 42.4961C45.4375 42.3982 45.4833 42.3066 45.5466 42.227C45.6098 42.1475 45.6892 42.0817 45.7796 42.0339C46.3682 42.4057 46.797 42.8344 46.5554 43.2196Z" fill="#E8CEE5"/>
<path d="M25.769 31.5334C25.1293 31.2097 24.5009 30.8658 23.8839 30.5018C23.8591 30.4872 23.8294 30.4828 23.8013 30.4897C23.7732 30.4966 23.7491 30.5142 23.7342 30.5387C23.7193 30.5631 23.7149 30.5923 23.7219 30.62C23.7289 30.6476 23.7468 30.6714 23.7716 30.686C24.2106 30.9473 24.6597 31.1918 25.1123 31.433C24.6495 31.5904 23.9758 31.242 23.6219 30.9808C23.5096 30.8937 23.4008 31.0813 23.513 31.165C23.9588 31.4999 24.7108 31.8349 25.2654 31.6038C25.2795 31.5995 25.2923 31.5918 25.3024 31.5812C25.3126 31.5706 25.3198 31.5576 25.3233 31.5435L25.6635 31.721C25.7826 31.7846 25.8949 31.5971 25.769 31.5334Z" fill="#656565"/>
<path d="M26.1675 28.0701C25.926 28.2075 25.7116 28.3883 25.4666 28.5156C25.1581 28.6687 24.8148 28.7413 24.4696 28.7266C24.4587 28.7295 24.4491 28.7358 24.4422 28.7446C24.4354 28.7533 24.4316 28.7641 24.4316 28.7752C24.4316 28.7863 24.4354 28.7971 24.4422 28.8058C24.4491 28.8146 24.4587 28.8209 24.4696 28.8238C25.1025 29.018 25.8511 28.606 26.2186 28.1103C26.222 28.0869 26.188 28.0567 26.1675 28.0701Z" fill="#656565"/>
<path d="M46.0388 36.4638C45.9857 36.4949 45.9394 36.5361 45.9026 36.5849C45.8658 36.6338 45.8392 36.6894 45.8245 36.7485C45.7838 36.8657 45.7838 36.993 45.8245 37.1102C45.8415 37.06 45.8721 37.0164 45.8925 36.9695C45.9129 36.9226 45.9333 36.849 45.9572 36.792C46.0073 36.7005 46.0528 36.6066 46.0933 36.5107C46.095 36.5035 46.0947 36.4961 46.0925 36.4891C46.0902 36.4821 46.0861 36.4758 46.0805 36.471C46.0749 36.4662 46.068 36.4629 46.0607 36.4617C46.0533 36.4604 46.0458 36.4611 46.0388 36.4638Z" fill="#E8CEE5"/>
<path d="M46.4099 36.5509C46.3009 36.6247 46.2215 36.7337 46.1854 36.859C46.1538 36.9121 46.1339 36.9712 46.1269 37.0323C46.1198 37.0934 46.1258 37.1553 46.1445 37.2141C46.1483 37.2189 46.1532 37.2229 46.1588 37.2256C46.1644 37.2283 46.1706 37.2297 46.1768 37.2297C46.1831 37.2297 46.1892 37.2283 46.1949 37.2256C46.2005 37.2229 46.2053 37.2189 46.2092 37.2141C46.2698 37.1241 46.3168 37.026 46.3487 36.9227C46.4123 36.8285 46.467 36.7287 46.512 36.6246C46.5139 36.6119 46.5123 36.5989 46.5073 36.587C46.5023 36.5752 46.4941 36.5649 46.4836 36.5573C46.4731 36.5497 46.4607 36.5451 46.4477 36.544C46.4347 36.5428 46.4216 36.5452 46.4099 36.5509Z" fill="#E8CEE5"/>
<path d="M46.6917 36.9427C46.5956 37.0421 46.5275 37.1645 46.4943 37.2978C46.4901 37.3095 46.4902 37.3222 46.4945 37.3339C46.4988 37.3455 46.5071 37.3554 46.5179 37.3617C46.5287 37.368 46.5415 37.3704 46.5539 37.3685C46.5664 37.3667 46.5778 37.3606 46.5862 37.3514C46.6794 37.2488 46.7438 37.1241 46.7733 36.9896C46.7835 36.9461 46.7257 36.9059 46.6917 36.9427Z" fill="#E8CEE5"/>
<path d="M49.1796 37.8504C49.0401 38.1519 48.6216 38.2021 48.101 38.1284C47.9815 37.9321 47.929 37.7032 47.9513 37.4753C47.9673 37.3415 48.0172 37.2138 48.0962 37.1038C48.1752 36.9938 48.281 36.9051 48.4038 36.8456C48.9687 37.1303 49.3566 37.4753 49.1796 37.8504Z" fill="#E8CEE5"/>
</g>
<defs>
<clipPath id="clip0_0_3414">
<rect width="45" height="34" fill="white" transform="translate(5 10)"/>
</clipPath>
</defs>
</svg>
