<svg width="120" height="92" viewBox="0 0 120 92" fill="none" xmlns="http://www.w3.org/2000/svg">
<g clip-path="url(#clip0_0_4103)">
<path d="M30.1703 0.127045H30.0977C30.3132 1.45838 30.4375 2.80285 30.4697 4.15108C30.4697 4.15108 30.4697 4.15108 30.5242 4.15108C30.6925 2.79984 30.5719 1.42829 30.1703 0.127045Z" fill="#E0855C"/>
<path d="M31.1229 0.00906372H31.0322C31.2508 1.34323 31.3781 2.69071 31.4133 4.04216H31.4587C31.6347 2.68923 31.5203 1.31437 31.1229 0.00906372Z" fill="#E0855C"/>
<path d="M32.1482 0.29908C32.1137 0.272009 32.0733 0.253374 32.0303 0.24469C32.2187 1.50581 32.3339 2.77679 32.3751 4.05122C32.5709 2.79879 32.4935 1.51888 32.1482 0.29908Z" fill="#E0855C"/>
<path d="M119.338 90.3323C118.367 90.2236 117.396 90.1511 116.407 90.1057C116.135 90.1057 36.6763 90.0604 36.6763 90.0604H36.4948H36.2226H5.61691H5.43543L4.16514 90.1783C3.94133 90.1783 3.72666 90.267 3.5684 90.4251C3.41015 90.5832 3.32129 90.7976 3.32129 91.0211C3.32129 91.2447 3.41015 91.459 3.5684 91.6171C3.72666 91.7752 3.94133 91.864 4.16514 91.864L5.43543 91.9818H5.59875H36.1772H36.4948H36.6581H116.416C117.396 91.9365 118.367 91.8549 119.338 91.7552C119.527 91.7552 119.708 91.6803 119.842 91.5468C119.975 91.4134 120.05 91.2325 120.05 91.0438C120.05 90.8551 119.975 90.6741 119.842 90.5407C119.708 90.4073 119.527 90.3323 119.338 90.3323Z" fill="#C6C6C6"/>
<path d="M16.7951 44.781C16.4219 44.7635 16.0527 44.6964 15.6972 44.5816C14.0911 44.1647 12.4397 44.2009 11.7048 42.3702C11.3328 41.1778 11.4004 39.8918 11.8953 38.7449C12.3832 37.619 12.6894 36.4229 12.8027 35.2012C12.7376 34.7413 12.8069 34.2723 13.0023 33.8508C13.1802 33.6556 13.3998 33.5029 13.6448 33.4041C13.8899 33.3052 14.1541 33.2628 14.4178 33.2798C17.1399 33.1711 20.9327 34.5305 21.7675 37.3764C21.0144 37.8658 20.5698 39.189 20.1706 39.905C19.5173 41.1376 18.9184 42.4246 18.1562 43.6028C17.5936 44.4638 17.3032 44.7719 16.7951 44.781Z" fill="#494949"/>
<path d="M20.2073 36.6332C20.1366 36.4975 20.0988 36.3473 20.0968 36.1944C20.0948 36.0415 20.1286 35.8903 20.1957 35.7528C20.2627 35.6154 20.3611 35.4956 20.4828 35.4029C20.6046 35.3103 20.7464 35.2474 20.8969 35.2193C22.0855 34.9293 23.1199 36.9232 22.7116 37.8748C21.8527 37.5113 21.0164 37.0967 20.2073 36.6332Z" fill="#E0855C"/>
<path d="M51.6299 47.2824C51.0451 49.9181 50.1306 52.4698 48.9078 54.8773C47.9313 56.8349 46.7118 58.6619 45.2783 60.3152L45.1059 60.2427L44.7883 60.1249C42.7558 59.3817 35.27 56.6265 33.5914 56.128C33.3282 56.0465 33.056 55.974 32.7838 55.9105C32.194 55.7655 31.5951 55.6205 30.969 55.4936C30.5153 55.403 30.0617 55.3214 29.5989 55.2489C26.9584 54.8229 24.4632 54.6689 23.6012 54.5964C23.5078 54.5921 23.4193 54.5538 23.3523 54.4886C23.2854 54.4235 23.2448 54.336 23.2382 54.2429C23.1931 53.6395 23.1931 53.0336 23.2382 52.4303C23.2829 51.7702 23.3678 51.1134 23.4923 50.4636C23.5649 50.0557 23.6647 49.6297 23.7827 49.1857C23.9641 48.5603 24.191 47.9168 24.4632 47.2371L24.5176 47.1011C24.516 47.0831 24.516 47.0649 24.5176 47.0468C24.5757 46.8848 24.6454 46.7273 24.7263 46.5755L23.5105 46.0136C23.1021 45.8323 22.6031 45.6238 22.1403 45.4245C21.4911 45.1403 20.8279 44.8892 20.1532 44.6722L19.9989 44.6269C19.9354 44.6269 19.9989 44.6269 19.9989 44.5453L20.1713 44.4547C20.1922 44.4497 20.2139 44.4497 20.2348 44.4547L20.6976 44.1647C21.0003 43.9649 21.2884 43.7438 21.5596 43.5031L21.7138 43.3671C21.7138 43.3671 21.7139 43.3671 21.7592 43.3127C21.8212 43.26 21.8788 43.2024 21.9316 43.1405C22.1382 42.9409 22.3293 42.7257 22.5032 42.4971C22.6121 42.3611 22.712 42.207 22.8208 42.053C22.9297 41.8989 22.9569 41.8445 23.0204 41.7267C23.1637 41.4876 23.291 41.2393 23.4016 40.9835C23.4922 40.7705 23.5709 40.5527 23.6374 40.331C23.6848 40.2168 23.7213 40.0985 23.7463 39.9775L26.1509 40.8838L27.1399 41.2645L27.2307 41.0651L27.3214 40.911C27.403 40.7388 27.5211 40.5122 27.6572 40.2494C28.0201 39.5697 28.5645 38.6452 29.1089 37.7933C29.155 37.7114 29.2066 37.6327 29.2632 37.5576C29.8711 36.6513 30.4881 35.2284 31.0779 35.5094C32.0397 35.9625 33.31 36.6241 34.7528 37.4217C35.5331 37.8477 37.7925 39.1256 38.0829 39.2887C43.5271 42.4064 49.7063 46.2039 51.2034 47.1193C51.5119 47.219 51.6299 47.2824 51.6299 47.2824Z" fill="#F5A784"/>
<path d="M19.9346 44.5907C20.5722 44.7669 21.2411 44.7993 21.8929 44.6856C22.5446 44.572 23.1629 44.315 23.7031 43.9334C24.2432 43.5517 24.6917 43.0549 25.016 42.4789C25.3403 41.9029 25.5324 41.2622 25.5784 40.6029L23.8181 39.9413C23.5445 40.95 23.0558 41.8878 22.3855 42.6903C21.7152 43.4928 20.8791 44.1411 19.9346 44.5907Z" fill="#E0855C"/>
<path d="M17.6845 35.6001C18.4014 35.3644 19.4993 35.8629 20.7424 36.4157C24.4626 38.0834 25.0705 39.7419 24.3719 41.7086C23.6732 43.6753 21.9855 45.2795 18.3923 44.0197C16.5776 43.3944 14.9171 42.8415 14.4906 41.8627C13.8282 40.4126 15.4796 36.307 17.6845 35.6001Z" fill="#F5A784"/>
<path d="M18.0117 43.5212C18.0117 43.5212 16.1969 43.349 16.578 44.6451C16.9591 45.9411 19.8354 45.8142 20.3436 44.346C20.3436 44.346 18.7829 43.3581 18.0117 43.5212Z" fill="#F5A784"/>
<path d="M17.4762 44.5641C17.6464 44.3844 17.8632 44.2556 18.1023 44.1921C18.3246 44.0909 18.5659 44.0383 18.8101 44.0378C18.8827 44.0378 18.8736 44.1467 18.8101 44.1739C18.7466 44.2012 18.4653 44.2647 18.2929 44.3191C18.3508 44.4311 18.3789 44.5561 18.3745 44.6821C18.3682 44.7024 18.3556 44.7201 18.3384 44.7327C18.3213 44.7453 18.3006 44.7521 18.2793 44.7521C18.258 44.7521 18.2373 44.7453 18.2201 44.7327C18.203 44.7201 18.1904 44.7024 18.184 44.6821C18.1225 44.5866 18.085 44.4776 18.0751 44.3645C17.9063 44.4731 17.727 44.5643 17.5398 44.6367C17.5306 44.6368 17.5215 44.6349 17.5132 44.6312C17.5048 44.6274 17.4973 44.6219 17.4913 44.615C17.4853 44.6081 17.4808 44.6 17.4782 44.5912C17.4756 44.5824 17.4749 44.5732 17.4762 44.5641Z" fill="#E0855C"/>
<path d="M19.862 37.9752C19.862 37.9752 20.1433 37.7211 19.5535 37.4943C18.9637 37.2675 18.9909 37.5487 18.9909 37.5487C18.9909 37.5487 18.8821 37.7665 19.3358 37.948C19.7894 38.1295 19.862 37.9752 19.862 37.9752Z" fill="black"/>
<path d="M18.3017 41.1836C18.3017 41.1836 18.574 40.9205 17.9842 40.7027C17.3944 40.485 17.4216 40.7572 17.4216 40.7572C17.4216 40.7572 17.3127 40.9749 17.7664 41.1564C18.2201 41.3379 18.3017 41.1836 18.3017 41.1836Z" fill="black"/>
<path d="M20.6606 40.1407C20.7151 39.9685 20.9873 39.6513 20.8512 39.4881C20.4477 39.3318 20.0276 39.2223 19.599 39.1618C19.0189 39.0804 18.4434 38.9685 17.875 38.8265V38.7631C18.9328 38.8879 19.9793 39.094 21.0054 39.3794C21.0188 39.3822 21.0314 39.388 21.0422 39.3963C21.053 39.4046 21.0617 39.4153 21.0678 39.4275C21.0739 39.4397 21.0772 39.4531 21.0774 39.4667C21.0776 39.4804 21.0747 39.4939 21.069 39.5062C20.951 39.7419 20.8875 39.9957 20.7695 40.2313C20.7695 40.2676 20.5971 40.2313 20.6606 40.1407Z" fill="#E0855C"/>
<path d="M17.9933 37.4942C17.9933 37.2133 18.1656 36.7692 18.4832 36.7239C18.4968 36.7219 18.5106 36.7239 18.523 36.7295C18.5355 36.7351 18.5462 36.7441 18.5538 36.7554C18.5614 36.7668 18.5656 36.7801 18.566 36.7937C18.5663 36.8074 18.5628 36.8209 18.5558 36.8326C18.5014 36.9414 18.3925 37.0139 18.329 37.1226C18.2619 37.2392 18.2216 37.3692 18.211 37.5033C18.2098 37.5321 18.1972 37.5593 18.1759 37.5789C18.1546 37.5984 18.1265 37.6087 18.0976 37.6075C18.0687 37.6063 18.0415 37.5937 18.0219 37.5725C18.0024 37.5512 17.9921 37.5231 17.9933 37.4942Z" fill="black"/>
<path d="M16.6413 40.9564C16.3782 40.6755 16.6413 40.0954 16.9407 39.9595C17.0133 39.9595 17.0859 40.0048 17.0768 40.0682C17.0678 40.1317 16.9226 40.3492 16.8682 40.5033C16.8294 40.6328 16.808 40.7669 16.8046 40.902C16.7956 40.9745 16.6867 41.0199 16.6413 40.9564Z" fill="black"/>
<path d="M22.1854 39.905C21.9337 40.6297 21.4688 41.2615 20.8516 41.7177C21.1154 41.7334 21.3796 41.6931 21.6267 41.5994C21.8739 41.5056 22.0983 41.3606 22.2852 41.1739C22.8205 40.5848 22.1854 39.905 22.1854 39.905Z" fill="white"/>
<path d="M36.7487 23.4645C36.8032 25.404 35.8958 31.857 34.8433 37.3764C34.7616 37.8024 34.689 38.2284 34.5983 38.6453C33.9177 42.0621 33.2009 44.926 32.6655 45.778C32.4407 46.1484 32.1388 46.4664 31.7803 46.7103C31.4219 46.9542 31.0152 47.1184 30.5877 47.1918C30.1474 47.2795 29.6941 47.2795 29.2538 47.1918C27.2122 46.6843 26.5317 44.065 27.2122 41.2645C27.2939 40.9201 27.8928 38.4096 28.1196 37.4127C29.2901 32.5005 30.9143 25.6306 31.0686 23.818C31.2682 21.5341 30.1612 8.66439 30.1612 8.66439C31.0686 6.61612 33.5276 7.0874 33.5276 7.0874C33.5276 7.0874 36.6126 17.5463 36.7487 23.4645Z" fill="#F5A784"/>
<path d="M33.8538 8.06623C33.8538 8.06623 33.636 7.00585 33.509 5.6645C33.382 4.32316 33.1098 1.36857 32.5381 0.561948C32.4188 0.459345 32.2879 0.371134 32.148 0.299123C32.1113 0.275651 32.0716 0.257339 32.03 0.244733C31.7459 0.10748 31.4376 0.0274156 31.1226 0.00909577H31.0319C30.7243 -0.00368135 30.4168 0.0393067 30.1245 0.135979H30.0519C29.7889 0.223188 29.5386 0.345117 29.3079 0.498513C29.477 1.81806 29.5044 3.15188 29.3896 4.47723C29.3896 4.47723 28.7181 2.74617 28.1374 2.6646L27.7744 2.82773C27.7744 2.82773 28.2826 4.77632 28.4368 5.6645C28.7409 7.05528 29.5653 8.27751 30.7415 9.0813C30.7415 9.0813 33.2277 9.51634 33.8538 8.06623Z" fill="#F5A784"/>
<path d="M46.4754 82.9912C46.4755 84.0295 46.2478 85.0552 45.8083 85.9961C45.3687 86.937 44.7281 87.7703 43.9315 88.4373C43.1348 89.1043 42.2015 89.5888 41.1972 89.8567C40.1929 90.1246 39.142 90.1694 38.1185 89.988C37.8515 89.9417 37.5878 89.8782 37.3291 89.7977C36.7237 89.6159 36.1442 89.357 35.6051 89.0273C35.3964 88.8913 35.1877 88.7463 34.9881 88.5923C34.4421 88.1694 33.9647 87.665 33.5726 87.0968C32.7123 85.9007 32.2519 84.464 32.2569 82.9912C32.2593 81.1083 33.0099 79.3033 34.3437 77.9727C35.6775 76.6422 37.4856 75.8948 39.3707 75.8948C39.9837 75.8967 40.5939 75.979 41.1854 76.1395C41.4265 76.2016 41.663 76.2803 41.8932 76.3751C42.5713 76.6354 43.205 76.9993 43.7714 77.4536L44.0074 77.644C44.1948 77.8099 44.3735 77.9853 44.5427 78.1696C45.7785 79.4722 46.4698 81.1968 46.4754 82.9912Z" fill="#E4547E"/>
<path d="M45.0967 81.5502C45.0979 82.4829 44.9151 83.4066 44.5586 84.2687C44.202 85.1307 43.6789 85.9141 43.0191 86.574C42.3592 87.2339 41.5755 87.7574 40.713 88.1146C39.8504 88.4718 38.9258 88.6557 37.992 88.6557C37.5717 88.6579 37.1523 88.6184 36.7398 88.5379C36.4728 88.4957 36.2091 88.4352 35.9504 88.3566C35.3432 88.1756 34.7633 87.9134 34.2264 87.5772C34.0177 87.4412 33.8091 87.3053 33.6094 87.1512L33.555 87.0968C32.6948 85.9007 32.2343 84.464 32.2393 82.9912C32.2417 81.1083 32.9922 79.3033 34.3261 77.9727C35.6599 76.6422 37.4679 75.8948 39.3531 75.8948C39.9661 75.8967 40.5762 75.979 41.1678 76.1395C41.4089 76.2016 41.6454 76.2803 41.8756 76.3751C42.9538 76.6907 43.8763 77.3947 44.4647 78.3507C45.053 79.3067 45.2654 80.4468 45.0605 81.5502H45.0967Z" fill="#C1063D"/>
<path d="M29.7614 52.3216C29.6928 51.8951 29.5333 51.4884 29.2938 51.1287C29.0543 50.7691 28.7404 50.465 28.3731 50.237C25.7055 48.6691 23.7546 49.0135 23.2374 52.4213C22.6476 56.3184 20.7058 69.895 20.0253 72.0883C19.5353 73.6834 16.3051 80.2451 14.5811 83.6438C13.1565 86.118 12.5485 87.9669 10.0986 88.4382C9.47254 88.556 8.82829 88.5651 8.21128 88.7192C7.89749 88.7774 7.59987 88.9022 7.33847 89.0852C7.07707 89.2681 6.85798 89.5049 6.69598 89.7795C6.63247 89.9155 6.60525 90.0968 6.69598 90.1874C6.7585 90.2254 6.83198 90.2414 6.90466 90.2327L14.3996 90.5137C14.5828 90.5275 14.7671 90.5091 14.944 90.4593C15.4612 90.269 15.5792 89.6164 15.7425 89.0908C15.8184 88.8644 15.922 88.6483 16.051 88.4473C16.7043 87.6135 22.8926 79.6832 25.1247 74.5444C26.4767 71.4539 30.2332 54.9771 29.7614 52.3216Z" fill="#F5A784"/>
<path d="M110.817 89.8883C109.574 91.8822 103.713 88.5742 101.344 87.1694L100.491 86.689C99.1052 86.1308 97.6836 85.6646 96.2359 85.2933C93.5137 84.5229 91.0003 83.6891 88.7138 82.8281C79.758 79.4566 74.1958 75.7135 73.1251 75.3329C55.0503 68.9887 46.6933 62.1098 46.6933 62.1098C41.4124 57.27 43.2453 53.3548 48.2994 53.6176C49.8105 53.7105 51.2951 54.0567 52.6911 54.6417C56.5111 56.1553 62.1277 59.4814 66.9913 62.5539C72.3811 65.9797 76.8271 69.0884 76.8271 69.0884C82.3809 71.2807 87.7055 74.0128 92.7243 77.2452C93.8858 77.9703 94.9111 78.6409 95.7641 79.2029V79.1394C95.7641 79.1394 100.809 82.6106 102.587 83.671C102.747 83.7817 102.917 83.8759 103.096 83.9519C104.756 84.677 112.242 87.55 110.817 89.8883Z" fill="#F5A784"/>
<path d="M92.7249 77.3086C92.5343 77.6167 92.3528 77.9068 92.1623 78.2149C91.1235 79.8464 89.9713 81.403 88.7143 82.8734C79.7585 79.5019 74.1963 75.7588 73.1256 75.3781C55.0508 69.0339 46.6939 62.155 46.6939 62.155C41.5582 57.4512 43.137 53.6266 47.8644 53.6447C49.5241 53.6915 51.1607 54.0449 52.6916 54.687C53.853 55.1492 55.1778 55.7746 56.6024 56.4996C61.4114 58.992 67.3003 62.7441 71.4742 65.4993C74.65 67.602 76.8277 69.1246 76.8277 69.1246C82.3825 71.3255 87.7072 74.0667 92.7249 77.3086Z" fill="#393939"/>
<path d="M71.4741 65.4903C60.2409 63.7411 56.1214 58.5389 56.1214 58.5389C55.1142 57.3607 55.5135 56.7262 56.6023 56.4906C61.4295 58.983 67.3002 62.726 71.4741 65.4903Z" fill="#656565"/>
<path d="M117.813 75.36C116.77 77.644 109.756 74.5806 107.623 73.6834L107.179 73.5021C105.733 73.13 104.267 72.8456 102.787 72.6502C99.9741 72.2242 97.3427 71.7438 95.0016 71.1366C85.7102 68.898 79.7487 65.8891 78.6145 65.6444C74.2047 64.6837 70.3302 63.6323 66.9911 62.581C56.1026 59.1823 50.731 55.8108 50.731 55.8108C49.8373 55.1877 49.021 54.4605 48.2992 53.6448C44.6062 49.3126 48.526 45.787 55.7487 47.654C64.151 49.8292 81.4999 58.9829 81.4999 58.9829C86.9283 60.3728 92.2118 62.2756 97.2792 64.6655C98.9397 65.4178 100.4 66.1247 101.562 66.7047V66.6322C101.562 66.6322 106.843 69.3512 108.821 70.2575C109.028 70.35 109.24 70.4317 109.456 70.5022C111.162 70.9463 118.956 72.8677 117.813 75.36Z" fill="#F5A784"/>
<path d="M97.2791 64.6656C96.6657 66.8711 95.9049 69.033 95.0016 71.1367C85.701 68.9072 79.7487 65.8891 78.6144 65.6444C59.8772 61.5569 50.7309 55.8109 50.7309 55.8109C43.4084 50.6177 47.3464 45.488 55.7486 47.6541C64.1509 49.8202 81.4999 58.983 81.4999 58.983C86.9287 60.3714 92.2124 62.2742 97.2791 64.6656Z" fill="#393939"/>
<path d="M51.6294 47.2824C51.0381 49.9162 50.1238 52.4671 48.9073 54.8773C47.7486 56.766 46.3754 58.5147 44.815 60.0887C43.1001 59.4633 37.556 57.3697 34.8339 56.4634C34.3258 56.2821 33.9265 56.1462 33.6453 56.0737C33.364 56.0012 33.1099 55.9196 32.8377 55.8562C32.2479 55.7111 31.649 55.5661 31.0229 55.4393C30.6672 54.9196 30.2532 54.4422 29.7889 54.0163C28.6859 53.0239 27.4489 52.191 26.1141 51.5421C25.3784 51.1744 24.6243 50.8446 23.8547 50.5542L23.5371 50.4364C23.6097 50.0286 23.7095 49.6026 23.8275 49.1585C24.0167 48.4964 24.2439 47.8459 24.508 47.2099C26.0863 47.5869 27.7344 47.5588 29.299 47.1284C29.6021 47.0246 29.8787 46.8555 30.1092 46.6331C30.3397 46.4107 30.5184 46.1404 30.6328 45.8414C31.64 43.0681 29.3715 41.1467 27.7745 40.186L27.5296 40.041C27.7201 39.2706 27.9379 38.3462 28.1829 37.322C28.5239 37.4667 28.8722 37.5937 29.2264 37.7027C31.0016 38.2065 32.8277 38.5105 34.6706 38.609C35.6687 38.6815 36.6033 38.7087 37.3927 38.7178C37.6831 38.8718 37.9734 39.044 38.3001 39.2072C43.7443 42.3249 49.9235 46.1223 51.4206 47.0377C51.5114 47.219 51.6294 47.2824 51.6294 47.2824Z" fill="#C1063D"/>
<path d="M110.817 89.8883C110.309 90.704 109.003 90.6315 107.506 90.1602C105.357 89.3835 103.292 88.3905 101.344 87.1966C101.002 86.5943 100.907 85.8823 101.081 85.2117C101.153 84.8807 101.309 84.574 101.535 84.3214C101.761 84.0688 102.049 83.8791 102.37 83.7707C102.441 83.7462 102.514 83.728 102.588 83.7163C102.747 83.8271 102.917 83.9212 103.096 83.9973C105.04 84.7462 106.919 85.6557 108.712 86.7162C110.318 87.686 111.462 88.846 110.817 89.8883Z" fill="#C1063D"/>
<path d="M117.813 75.3601C117.441 76.1757 116.325 76.3117 114.937 76.1123C112.417 75.5753 109.964 74.7607 107.623 73.6834C107.47 73.3413 107.385 72.9723 107.374 72.5976C107.363 72.2228 107.426 71.8496 107.56 71.4992C107.814 70.953 108.246 70.509 108.785 70.2394C108.992 70.3319 109.204 70.4136 109.42 70.4841C111.602 70.9952 113.73 71.7176 115.772 72.6411C117.251 73.4115 118.285 74.345 117.813 75.3601Z" fill="#C1063D"/>
<path d="M103.495 85.6558C103.268 85.5833 103.096 85.8733 102.987 86.0455C102.834 86.2952 102.743 86.5782 102.724 86.8703C102.729 86.8863 102.74 86.9001 102.753 86.91C102.767 86.9198 102.784 86.925 102.801 86.925C102.818 86.925 102.834 86.9198 102.848 86.91C102.862 86.9001 102.872 86.8863 102.878 86.8703C102.936 86.5867 103.064 86.322 103.25 86.0999C103.359 85.964 103.558 85.8824 103.549 85.6921C103.544 85.6817 103.537 85.6728 103.527 85.6664C103.518 85.66 103.506 85.6564 103.495 85.6558Z" fill="#E8CEE5"/>
<path d="M104.075 86.0818C103.854 86.1932 103.684 86.3842 103.598 86.6162C103.512 86.8483 103.517 87.1042 103.613 87.3325C103.625 87.3595 103.645 87.3825 103.67 87.3986C103.695 87.4147 103.724 87.4233 103.753 87.4233C103.783 87.4233 103.812 87.4147 103.837 87.3986C103.862 87.3825 103.882 87.3595 103.894 87.3325C103.946 87.0334 104.1 86.7614 104.33 86.5621C104.565 86.3265 104.357 85.9549 104.075 86.0818Z" fill="#E8CEE5"/>
<path d="M104.983 86.4171C104.762 86.5654 104.605 86.7911 104.543 87.0496C104.481 87.3081 104.518 87.5805 104.648 87.8129C104.648 87.8129 104.738 87.8129 104.756 87.8129C104.82 87.6002 104.896 87.3914 104.983 87.1875C105.094 87.0173 105.191 86.8385 105.274 86.6528C105.355 86.4624 105.147 86.3446 104.983 86.4171Z" fill="#E8CEE5"/>
<path d="M110.817 89.8883C110.309 90.704 109.002 90.6315 107.505 90.1602C107.488 89.8765 107.488 89.592 107.505 89.3082C107.498 88.8359 107.587 88.367 107.768 87.9306C107.836 87.6658 107.958 87.4179 108.127 87.2026C108.295 86.9873 108.507 86.8093 108.748 86.6799C110.318 87.6859 111.461 88.846 110.817 89.8883Z" fill="#E8CEE5"/>
<path d="M55.386 58.2669C53.6801 57.3908 52.0044 56.4604 50.3591 55.4755C50.2929 55.4358 50.2136 55.4241 50.1388 55.4428C50.0639 55.4615 49.9995 55.5091 49.9598 55.5752C49.9201 55.6413 49.9083 55.7204 49.927 55.7952C49.9458 55.87 49.9935 55.9343 50.0596 55.974C51.2301 56.6809 52.4279 57.3425 53.6347 57.9951C52.4007 58.421 50.6041 57.4785 49.6604 56.7715C49.361 56.5359 49.0706 57.0434 49.3701 57.27C50.5587 58.1763 52.564 59.0826 54.043 58.4573C54.0807 58.4458 54.1148 58.4247 54.1418 58.3961C54.1689 58.3675 54.188 58.3324 54.1973 58.2941L55.1047 58.7745C55.4223 58.9467 55.7217 58.4391 55.386 58.2669Z" fill="#656565"/>
<path d="M56.4474 48.8957C55.8032 49.2672 55.2316 49.7567 54.5782 50.1011C53.7555 50.5152 52.8401 50.7118 51.9197 50.672C51.8906 50.6797 51.8649 50.6968 51.8466 50.7205C51.8283 50.7443 51.8184 50.7735 51.8184 50.8034C51.8184 50.8334 51.8283 50.8626 51.8466 50.8864C51.8649 50.9101 51.8906 50.9272 51.9197 50.9349C53.6074 51.4605 55.6035 50.3458 56.5835 49.0044C56.5926 48.941 56.5019 48.8594 56.4474 48.8957Z" fill="#656565"/>
<path d="M109.438 71.6079C109.297 71.6921 109.173 71.8035 109.075 71.9358C108.977 72.068 108.906 72.2185 108.867 72.3783C108.758 72.6956 108.758 73.0399 108.867 73.3571C108.912 73.2212 108.994 73.1033 109.048 72.9765C109.102 72.8496 109.157 72.6502 109.22 72.4961C109.354 72.2486 109.475 71.9945 109.583 71.7348C109.588 71.7155 109.587 71.6953 109.581 71.6764C109.575 71.6575 109.564 71.6406 109.549 71.6275C109.534 71.6144 109.516 71.6057 109.496 71.6022C109.477 71.5988 109.457 71.6008 109.438 71.6079Z" fill="#E8CEE5"/>
<path d="M110.427 71.8436C110.137 72.0434 109.925 72.3383 109.829 72.6774C109.745 72.8212 109.691 72.9809 109.673 73.1463C109.654 73.3117 109.67 73.4792 109.72 73.6381C109.73 73.6513 109.743 73.6619 109.758 73.6693C109.773 73.6766 109.789 73.6804 109.806 73.6804C109.823 73.6804 109.839 73.6766 109.854 73.6693C109.869 73.6619 109.882 73.6513 109.892 73.6381C110.054 73.3948 110.179 73.1291 110.264 72.8496C110.434 72.5947 110.58 72.3247 110.7 72.043C110.705 72.0087 110.701 71.9736 110.687 71.9415C110.674 71.9094 110.652 71.8816 110.624 71.8611C110.596 71.8405 110.563 71.828 110.528 71.825C110.493 71.8219 110.459 71.8283 110.427 71.8436Z" fill="#E8CEE5"/>
<path d="M111.18 72.904C110.924 73.1729 110.742 73.5041 110.654 73.8647C110.643 73.8963 110.643 73.9308 110.654 73.9624C110.666 73.9939 110.688 74.0205 110.717 74.0376C110.746 74.0547 110.779 74.0612 110.813 74.0562C110.846 74.0511 110.876 74.0346 110.899 74.0097C111.147 73.7321 111.319 73.3948 111.398 73.0309C111.425 72.913 111.271 72.8043 111.18 72.904Z" fill="#E8CEE5"/>
<path d="M117.813 75.3601C117.441 76.1757 116.325 76.3117 114.937 76.1123C114.618 75.5809 114.478 74.9616 114.538 74.345C114.581 73.9829 114.713 73.6374 114.924 73.3398C115.135 73.0421 115.417 72.802 115.744 72.6411C117.251 73.4115 118.285 74.345 117.813 75.3601Z" fill="#E8CEE5"/>
</g>
<defs>
<clipPath id="clip0_0_4103">
<rect width="120" height="92" fill="white"/>
</clipPath>
</defs>
</svg>
