<svg width="60" height="60" viewBox="0 0 60 60" fill="none" xmlns="http://www.w3.org/2000/svg">
<rect width="60" height="60" rx="5" fill="#FFE4EC"/>
<g clip-path="url(#clip0_0_5426)">
<path fill-rule="evenodd" clip-rule="evenodd" d="M15.2215 20.812C15.0836 20.7074 14.9148 20.6527 14.7422 20.6567C14.7623 20.606 14.7657 20.5519 14.7187 20.5351C14.5277 20.4768 14.3265 20.4607 14.1288 20.4878C14.1288 20.4574 14.1288 20.427 14.102 20.4168C14.1355 20.4168 14.169 20.3257 14.1187 20.3155C14.1175 20.3049 14.1129 20.2948 14.1057 20.287C14.0985 20.2791 14.089 20.2737 14.0785 20.2716C13.9375 20.2434 13.7917 20.2539 13.6561 20.302C13.5879 20.3119 13.5214 20.3312 13.4584 20.3594C13.4785 20.3257 13.4885 20.2615 13.4383 20.2581C13.3281 20.2625 13.2203 20.2907 13.1219 20.3408C13.0236 20.3909 12.9371 20.4618 12.8684 20.5486C12.8081 20.6161 12.6539 20.8357 12.6941 20.964C12.6917 20.9687 12.6905 20.9739 12.6905 20.9792C12.6905 20.9845 12.6917 20.9897 12.6941 20.9944C12.7947 21.3322 13.1567 21.3322 13.4517 21.295C13.7466 21.2579 13.9779 21.2139 14.2427 21.1734C14.5075 21.1329 14.836 21.1498 15.1243 21.0856C15.2316 21.0484 15.3154 20.8897 15.2215 20.812Z" fill="#DCA47A"/>
<path fill-rule="evenodd" clip-rule="evenodd" d="M12.4327 19.3968C12.435 19.3812 12.435 19.3652 12.4327 19.3495C12.5128 18.4942 12.6905 17.651 12.9623 16.8367L13.0662 16.8063C13.1299 16.7759 13.1936 16.661 13.14 16.5935C13.0679 16.5167 12.9722 16.4668 12.8684 16.4516C12.8065 16.3636 12.7164 16.2997 12.6132 16.2708C12.51 16.2419 12.4001 16.2497 12.3019 16.2929C12.2599 16.2933 12.2186 16.3037 12.1813 16.3233C12.1177 16.3357 12.0573 16.361 12.0036 16.3976C11.9869 16.4101 11.9732 16.4263 11.9634 16.4449C11.8834 16.5092 11.8217 16.5937 11.7847 16.6898C11.7476 16.7859 11.7364 16.8902 11.7522 16.992C11.7564 17.0229 11.7632 17.0534 11.7723 17.0832C11.7229 17.1207 11.6779 17.1637 11.6383 17.2116C11.535 17.3193 11.4661 17.4558 11.4405 17.6034C11.4307 17.6672 11.4307 17.7321 11.4405 17.7959C11.3525 17.9168 11.3023 18.0615 11.2963 18.2113C11.2737 18.3755 11.308 18.5425 11.3936 18.6842C11.3224 18.8443 11.3059 19.0236 11.3466 19.1942C11.407 19.4171 11.598 19.6772 11.8494 19.6299C11.9126 19.6635 11.9804 19.6874 12.0505 19.7008C12.0937 19.7199 12.1334 19.7461 12.1679 19.7785C12.1852 19.7939 12.2057 19.8053 12.2278 19.812C12.25 19.8187 12.2733 19.8205 12.2962 19.8173C12.3191 19.8141 12.3411 19.806 12.3606 19.7934C12.3801 19.7809 12.3967 19.7643 12.4092 19.7447C12.4619 19.6885 12.4938 19.6158 12.4997 19.5387C12.5046 19.511 12.5008 19.4824 12.4888 19.4569C12.4767 19.4315 12.4571 19.4105 12.4327 19.3968Z" fill="#DCA47A"/>
<path fill-rule="evenodd" clip-rule="evenodd" d="M24.3994 24.8685C23.6351 24.0511 22.4854 23.5174 21.5133 22.9162C21.2012 22.6432 20.8645 22.4001 20.5077 22.1901C19.7736 21.599 19.0529 20.9505 18.1613 20.6702C18.1346 20.6641 18.1068 20.666 18.0812 20.6756C18.0556 20.6852 18.0334 20.7021 18.0171 20.7242C17.1858 20.2108 16.2607 19.7109 15.4662 19.6907C15.4431 19.6909 15.4204 19.6977 15.4009 19.7102C15.3813 19.7227 15.3656 19.7405 15.3556 19.7616C14.7757 20.8694 16.5422 21.5382 17.2797 21.9874C18.0842 22.4738 18.9021 22.9466 19.6931 23.4533C20.1088 23.7201 20.4842 24.0207 20.8865 24.2605C21.2543 24.584 21.6392 24.8873 22.0396 25.1691C21.6318 25.9685 21.2692 26.7906 20.9535 27.6313C20.6183 28.4824 20.0987 29.5329 20.2596 30.4549C20.2729 30.546 20.3144 30.6306 20.3783 30.6964C20.4422 30.7623 20.5252 30.806 20.6153 30.8214C20.7054 30.8368 20.798 30.823 20.8798 30.782C20.9617 30.7411 21.0285 30.675 21.0708 30.5934C21.5904 29.8706 21.7412 29.0397 22.0295 28.2021C22.3178 27.3645 22.6664 26.5471 23.0351 25.7365C23.2676 25.8405 23.5103 25.9198 23.7591 25.9729C24.2217 26.0675 24.7346 25.2299 24.3994 24.8685Z" fill="#DCA47A"/>
<path fill-rule="evenodd" clip-rule="evenodd" d="M22.5021 24.6151C21.6392 24.2829 20.807 23.8749 20.0149 23.3959C19.2205 22.9365 18.3791 22.3218 17.4875 22.0887C17.4789 22.0853 17.4693 22.0853 17.4607 22.0887C18.2082 22.5413 18.9624 22.9804 19.6965 23.4398C20.1121 23.7066 20.4876 24.0072 20.8898 24.247C21.1077 24.4361 21.3356 24.6287 21.5602 24.811L21.6608 24.8482C21.6624 24.8605 21.6624 24.873 21.6608 24.8854C21.7848 24.9799 21.9088 25.0711 22.0362 25.1556C21.9893 25.2535 21.939 25.3481 21.8921 25.4426C21.9174 25.4137 21.9409 25.3833 21.9625 25.3515L22.063 25.2332C22.1334 25.1522 22.2005 25.0711 22.2675 24.9867H22.3144C22.4753 25.0205 22.6932 24.6827 22.5021 24.6151Z" fill="#DB916B"/>
<path fill-rule="evenodd" clip-rule="evenodd" d="M22.7234 24.605C22.4055 24.7793 22.1394 25.0358 21.9524 25.3481C21.5775 26.0908 21.2419 26.8529 20.9468 27.6313C20.7051 28.1924 20.4969 28.7677 20.3234 29.3538C20.3234 29.4113 20.2965 29.4653 20.2865 29.5193C20.2764 29.5734 20.3602 29.5869 20.3837 29.5193C21.1915 27.8812 21.5602 26.081 22.7301 24.6388C22.7703 24.6388 22.7703 24.5847 22.7234 24.605Z" fill="#EDB389"/>
<path fill-rule="evenodd" clip-rule="evenodd" d="M52.1741 17.5257C52.182 17.3062 52.1663 17.0865 52.1272 16.8704C52.1578 16.4665 52.1386 16.0604 52.0702 15.6613C52.0702 15.587 52.0702 15.5126 52.0535 15.4383C52.0187 14.6113 51.7108 13.8196 51.1786 13.1889C50.4847 12.4425 49.4389 12.9322 49.3015 13.8475C49.0668 14.4825 49.1406 15.2762 49.1204 15.9281C49.1169 16.4931 49.0766 17.0572 48.9998 17.6169C48.8972 18.0828 48.7628 18.5409 48.5975 18.9881C48.5238 19.1131 48.4567 19.2448 48.3931 19.3732C48.3717 19.4082 48.3582 19.4475 48.3535 19.4884C48.3489 19.5292 48.3532 19.5706 48.3662 19.6096C48.2556 19.6772 48.1852 19.8899 48.3026 19.9474C48.5819 20.0706 48.8926 20.1025 49.1908 20.0386C49.3894 20.024 49.586 19.9889 49.7774 19.9339C50.065 19.9443 50.3523 19.909 50.6289 19.8292C50.6366 19.8019 50.65 19.7767 50.6681 19.7551C50.6863 19.7335 50.7088 19.7161 50.7342 19.7039C50.7595 19.6918 50.7872 19.6852 50.8153 19.6847C50.8433 19.6841 50.8712 19.6896 50.897 19.7008C50.9417 19.6658 50.9716 19.6152 50.9808 19.5589C51.2642 19.4579 51.5139 19.2789 51.7015 19.0422C51.777 18.9492 51.8443 18.8498 51.9026 18.745C52.0166 18.8362 52.2378 18.62 52.2378 18.4444C52.2244 18.1438 52.1842 17.8364 52.1741 17.5257Z" fill="#B8C5D6"/>
<path fill-rule="evenodd" clip-rule="evenodd" d="M53.1631 17.3771C53.1631 16.9549 53.0256 16.4584 52.9787 16.0463C52.9291 15.4917 52.8224 14.9439 52.6603 14.4116C52.5563 13.8273 52.1675 12.5235 51.4368 12.6519C51.4191 12.6576 51.4037 12.6689 51.3928 12.6841C51.382 12.6993 51.3762 12.7176 51.3764 12.7363C51.3764 13.1686 51.6848 13.3848 51.8759 13.7698C52.0805 14.2142 52.1945 14.6954 52.2111 15.185C52.2412 15.6815 52.2547 16.178 52.2647 16.6745C52.2362 17.0893 52.2621 17.5061 52.3418 17.9141C52.0871 18.2012 51.8457 18.5018 51.5708 18.7619C51.4252 18.8926 51.2718 19.0144 51.1116 19.1266C50.699 19.3946 50.2611 19.6209 49.8043 19.8021C49.7278 19.8253 49.66 19.8712 49.6099 19.9339C49.5986 19.9494 49.5906 19.9671 49.5863 19.9859C49.582 20.0047 49.5816 20.0242 49.5851 20.0432C49.5885 20.0621 49.5958 20.0802 49.6064 20.0963C49.617 20.1123 49.6307 20.126 49.6468 20.1365C49.8244 20.2108 50.0658 20.1027 50.2367 20.0487C50.2532 20.0439 50.2706 20.0439 50.287 20.0487C50.3406 20.0487 50.344 20.1365 50.3742 20.1838C50.3877 20.1984 50.404 20.2101 50.4222 20.2181C50.4403 20.2261 50.4599 20.2302 50.4798 20.2302C50.4996 20.2302 50.5192 20.2261 50.5374 20.2181C50.5555 20.2101 50.5719 20.1984 50.5854 20.1838C50.6186 20.1519 50.6438 20.1126 50.6591 20.069C50.7068 20.0582 50.7538 20.0446 50.7999 20.0284C50.897 19.9907 50.9921 19.9478 51.0848 19.9001C51.1585 19.9305 51.2356 19.8663 51.2926 19.8089C51.5407 19.5522 51.7954 19.3023 52.0435 19.0489C52.1709 18.924 52.2949 18.7956 52.4122 18.6639C52.5295 18.5322 52.6334 18.3261 52.7474 18.2518C52.7802 18.2342 52.8093 18.2102 52.8329 18.1813C52.8565 18.1523 52.8741 18.1189 52.8848 18.083C52.8848 18.083 52.8848 18.0627 52.8848 18.0526L53.0122 17.8871C53.0784 17.8368 53.1257 17.7653 53.1463 17.6844C53.1551 17.6679 53.1652 17.6521 53.1765 17.6371C53.1993 17.5971 53.2102 17.5512 53.2078 17.5051C53.2055 17.459 53.1899 17.4145 53.1631 17.3771Z" fill="#8394A4"/>
<path fill-rule="evenodd" clip-rule="evenodd" d="M29.5815 23.8924C29.5854 23.5882 29.5641 23.2843 29.5178 22.9838C29.4206 22.3893 29.377 21.3659 28.8474 20.9573C28.5122 20.7107 28.0194 20.6567 27.634 20.5283C26.3166 20.096 24.9859 19.6231 23.6652 19.1773C22.3445 18.7315 21.0204 18.1911 19.6427 18.0424H19.4349C19.1232 17.9208 18.7645 17.8533 18.4762 17.7587C17.8259 17.5527 17.1756 17.3332 16.5153 17.1575C15.8549 16.9819 15.1745 16.8569 14.5041 16.7049C14.0446 16.6244 13.6003 16.4729 13.1867 16.2557C12.9555 16.1172 12.3722 16.2355 12.4392 16.6137C12.4587 16.7906 12.5004 16.9642 12.5633 17.1305L12.4694 17.1879C12.1577 17.4041 12.218 17.7351 12.104 18.0424C11.9901 18.3498 11.742 18.5795 11.9465 18.9476C11.9914 19.0218 12.0493 19.087 12.1174 19.1401C12.1764 19.2079 12.2453 19.266 12.3219 19.3124C12.094 19.5117 11.9398 19.8393 12.161 20.0555C12.5208 20.3555 12.9369 20.5795 13.3845 20.7141C14.303 21.1768 14.9298 21.1768 15.9086 21.2984C16.341 21.3558 16.7332 21.2781 17.1689 21.2984C18.0793 21.4971 18.9752 21.7578 19.8506 22.0786C20.8997 22.8082 21.3489 23.2844 22.4953 23.8518C22.8878 24.0529 23.2945 24.2245 23.7121 24.3652C23.6082 24.524 23.5076 24.6793 23.4071 24.8279C22.9177 25.5507 22.4551 26.2972 22.0294 27.0605C21.654 27.736 21.2618 28.4419 20.9065 29.1748C20.7299 29.2092 20.5594 29.2695 20.4003 29.3539C20.0282 29.5531 19.6729 29.8064 19.3209 30.0294C18.8886 30.2934 18.4793 30.5939 18.0975 30.9278C17.6267 31.3497 17.1308 31.7423 16.6125 32.1032L16.1164 32.0052C16.2404 31.9174 16.3477 31.8296 16.4214 31.7688C16.9137 31.4348 17.301 30.9661 17.5377 30.4178C17.7958 30.3637 17.9768 29.8909 17.7455 29.7659C17.3399 29.516 16.9276 29.2795 16.522 29.0296C16.4255 28.8731 16.3132 28.7271 16.1868 28.5939C16.0944 28.5382 16.0059 28.4761 15.922 28.4081C15.855 28.3575 15.7443 28.2764 15.7209 28.1954C15.7121 28.1405 15.6998 28.0864 15.684 28.0332C15.6035 27.8238 15.3656 27.8542 15.2114 27.7461C15.1546 27.699 15.1076 27.641 15.0731 27.5755C15.0386 27.51 15.0172 27.4383 15.0102 27.3645C14.96 26.9761 15.3957 26.8274 15.3957 26.4728C15.3957 26.3039 15.2013 26.1621 15.0907 26.0472C14.9197 25.8716 14.7052 25.7466 14.5209 25.5879C14.0113 25.1454 13.408 24.9326 12.8616 24.5746L12.7912 24.4463C12.6461 24.1554 12.4803 23.8754 12.2951 23.6086C12.2275 23.4523 12.1396 23.3058 12.0336 23.1729C11.9732 23.0947 11.8979 23.0294 11.8121 22.9807C11.7264 22.932 11.6319 22.9009 11.5342 22.8892C11.3599 22.8892 11.199 22.7913 11.028 22.7879C10.8576 22.7897 10.6888 22.8205 10.5286 22.8791C10.1415 22.9954 9.76294 23.1388 9.3956 23.308C8.56196 23.6624 7.80653 24.1802 7.17321 24.8313C7.10501 24.8674 7.04372 24.9155 6.9922 24.9732C6.05363 26.0135 5.9866 27.5536 6.56985 28.7966C6.69758 29.0779 6.84663 29.3489 7.01567 29.6072C6.94704 29.7951 6.93195 29.9987 6.97209 30.1949C6.97199 30.3891 6.99907 30.5824 7.05253 30.769L7.00561 30.8197C6.57655 31.0122 6.28827 31.5864 6.13073 32.0154C6.10783 32.0531 6.09512 32.0961 6.09386 32.1403C6.07975 32.1945 6.08247 32.2517 6.10165 32.3042C6.12084 32.3568 6.15555 32.4021 6.20113 32.4342C6.27152 32.4747 6.34861 32.7719 6.38548 32.8462C6.46258 33.0084 6.54638 33.184 6.63018 33.3292C6.9922 34.0047 7.4112 34.6802 7.7464 35.3929C8.08161 36.1056 8.38999 36.8689 8.75201 37.5883C9.37743 38.8198 10.1894 39.9457 11.1588 40.9253C12.0873 41.8677 13.1298 42.7897 14.3734 43.2896L14.4907 43.3335C14.627 43.4091 14.7723 43.467 14.9231 43.5058C14.9968 43.526 15.0672 43.4619 15.1075 43.3876C15.1253 43.3637 15.1366 43.3355 15.1401 43.3059C15.1437 43.2762 15.1393 43.2461 15.1276 43.2187C14.8403 42.7005 14.5035 42.2118 14.122 41.7596L14.0851 41.7055C14.0616 41.6211 14.0348 41.5401 14.008 41.459C13.8952 40.9905 13.7485 40.5311 13.5689 40.0843C13.3609 39.3351 13.2671 38.5584 13.2907 37.7808C13.3065 37.0485 13.4192 36.3215 13.6259 35.6192C13.6996 35.3828 13.8203 35.1295 13.9208 34.8728L14.1287 34.8525L14.4035 34.8289C13.6728 36.0684 13.9879 37.9362 14.3365 39.2197C14.7454 40.7294 15.7108 42.7965 17.2997 43.3538C18.5926 44.3404 20.1513 44.9102 21.7713 44.9885C23.1825 45.0696 24.6406 44.8804 25.6663 44.0293C25.9428 43.8648 26.1735 43.6324 26.3367 43.3538C26.3982 43.2446 26.453 43.1319 26.501 43.016C26.558 42.908 26.6116 42.7965 26.6619 42.6783C26.7626 42.4707 26.8077 42.2401 26.7926 42.0095C26.8353 41.404 26.7601 40.7959 26.5714 40.2194C26.3468 39.446 26.2362 38.5307 25.901 37.818C25.6596 37.2978 25.0931 36.7676 24.654 36.2272C24.9356 35.8523 25.2104 35.4672 25.4685 35.072C26.0876 34.1403 26.595 33.1381 26.9803 32.0863C27.2794 31.3294 27.469 30.5332 27.5435 29.722C27.5435 29.6207 27.6943 29.4383 27.7446 29.3471C27.825 29.1951 27.9021 29.0431 27.9792 28.8911C28.5337 27.8741 28.983 26.8022 29.32 25.6926C29.484 25.1064 29.5719 24.5013 29.5815 23.8924Z" fill="#DCA47A"/>
<path fill-rule="evenodd" clip-rule="evenodd" d="M16.1701 28.5669C16.0851 28.5145 16.0034 28.457 15.9254 28.3946C15.8583 28.344 15.7477 28.2629 15.7242 28.1818C15.7155 28.127 15.7032 28.0729 15.6874 28.0197C15.6069 27.8103 15.3689 27.8407 15.2147 27.7326C15.1101 27.6481 15.0398 27.528 15.017 27.3949C15.0128 27.3947 15.0087 27.3956 15.0049 27.3973C15.0011 27.3991 14.9978 27.4017 14.9952 27.405C14.9926 27.4083 14.9907 27.4121 14.9899 27.4162C14.989 27.4203 14.9891 27.4246 14.9901 27.4286C14.989 27.414 14.989 27.3994 14.9901 27.3847L15.0136 27.351C14.9633 26.9761 15.3957 26.8274 15.3957 26.4728C15.3957 26.3039 15.2013 26.1621 15.0907 26.0472C14.9197 25.8716 14.7052 25.7466 14.5209 25.5879C14.0114 25.1454 13.408 24.9326 12.8616 24.5746L12.7912 24.4463L12.6236 24.1322L12.5532 24.0275L12.4359 23.8282L12.342 23.6762C12.342 23.6559 12.3119 23.6323 12.2951 23.6086L12.2784 23.5749C12.1568 23.3794 12.0213 23.1931 11.8728 23.0176C11.7724 22.9492 11.6577 22.9052 11.5376 22.8892H11.5107C11.5107 22.8892 11.5107 22.8892 11.5107 22.9095L11.7521 23.1864L11.7253 23.1628C11.8761 23.379 12.037 23.5918 12.1811 23.8147C12.3253 24.0376 12.4191 24.2808 12.5532 24.4902C12.5569 24.4918 12.5609 24.4926 12.5649 24.4926C12.569 24.4926 12.573 24.4918 12.5767 24.4902C12.5638 24.5009 12.5525 24.5134 12.5432 24.5273C12.5176 24.5377 12.493 24.5501 12.4694 24.5645C12.434 24.5803 12.4029 24.6047 12.3789 24.6354C12.1938 24.8075 12.0505 25.0201 11.9599 25.2569C11.8257 25.4978 11.7445 25.7651 11.7219 26.0405C11.7196 26.0922 11.7276 26.1439 11.7454 26.1925C11.7307 26.2732 11.7437 26.3566 11.7823 26.4289C11.9184 26.0179 12.1728 25.657 12.513 25.392C12.6038 25.3294 12.7113 25.2959 12.8214 25.2959C12.9314 25.2959 13.0389 25.3294 13.1298 25.392L13.351 25.4123C13.7019 25.4314 14.0448 25.5259 14.3566 25.6892H14.3801C14.5142 25.7939 14.6818 25.8682 14.8058 25.9864C14.9278 26.1076 15.0577 26.2205 15.1946 26.3242C15.2055 26.3435 15.2145 26.3639 15.2214 26.385C15.2238 26.4142 15.2238 26.4436 15.2214 26.4728C15.1457 26.5568 15.0773 26.6472 15.017 26.743C14.96 26.8241 14.8963 26.9153 14.8393 27.0098C14.7836 27.0745 14.7363 27.146 14.6985 27.2226C14.5711 27.3442 14.6717 27.5232 14.7857 27.6347C14.8735 27.7209 14.9741 27.7927 15.084 27.8475C15.1843 27.9414 15.3047 28.0108 15.436 28.0501C15.3388 28.2325 15.2583 28.4216 15.1745 28.6108C15.0438 28.8945 14.8862 29.1546 14.7421 29.4282C14.7371 29.4369 14.7345 29.4468 14.7345 29.4569C14.7345 29.4669 14.7371 29.4768 14.7421 29.4856C14.7201 29.5135 14.6999 29.5428 14.6818 29.5734C14.6818 29.6038 14.6818 29.6578 14.722 29.6241C14.7622 29.5903 14.8259 29.5227 14.8762 29.4687C14.91 29.4458 14.9424 29.421 14.9734 29.3944C15.1344 29.2947 15.2773 29.1679 15.3957 29.0195C15.5359 28.8481 15.6438 28.6524 15.7142 28.4419C15.7318 28.4068 15.7475 28.3707 15.7611 28.3338C15.8603 28.4348 15.9732 28.5212 16.0963 28.5905C16.1432 28.6007 16.16 28.5871 16.1701 28.5669Z" fill="#DB916B"/>
<path fill-rule="evenodd" clip-rule="evenodd" d="M12.5667 24.3078C12.5561 24.3031 12.5447 24.3007 12.5332 24.3007C12.5216 24.3007 12.5102 24.3031 12.4996 24.3078C12.1142 24.328 11.8929 24.9259 11.7555 25.2231C11.578 25.5581 11.5133 25.9422 11.5711 26.3174C11.5764 26.4002 11.5922 26.4819 11.6181 26.5606C11.6181 26.5809 11.6449 26.5606 11.6583 26.5606C11.6583 26.5809 11.6918 26.5606 11.6918 26.5403C11.6918 26.5201 11.6918 26.4694 11.6918 26.4356C11.7445 26.1351 11.8207 25.8392 11.9197 25.5507C12.0839 25.1917 12.3202 24.8708 12.6136 24.6084C12.7142 24.5037 12.6739 24.2977 12.5667 24.3078Z" fill="#673A22"/>
<path fill-rule="evenodd" clip-rule="evenodd" d="M12.4426 24.4463C11.9797 25.0182 11.694 25.7148 11.6213 26.4492C11.6213 26.4762 11.6213 26.4998 11.6448 26.5133L11.685 26.5403C11.7051 26.5403 11.732 26.5403 11.7353 26.5066C11.8228 26.1734 11.9429 25.8498 12.094 25.5406C12.2515 25.2028 12.4795 24.9394 12.6437 24.6253C12.7309 24.4463 12.5968 24.2875 12.4426 24.4463Z" fill="#3B2517"/>
<path fill-rule="evenodd" clip-rule="evenodd" d="M13.0258 25.5406C12.8311 25.6789 12.6543 25.8411 12.4996 26.0236C12.283 26.2259 12.1254 26.484 12.0437 26.77C12.0524 26.8025 12.0724 26.8307 12.1002 26.8493C12.1279 26.8679 12.1615 26.8758 12.1945 26.8713C12.3116 26.8636 12.4257 26.8314 12.5297 26.7768C12.7019 26.7131 12.8586 26.6129 12.989 26.4829C13.1465 26.3377 13.3946 26.1215 13.4013 25.8885C13.2833 25.7649 13.1579 25.6487 13.0258 25.5406Z" fill="#F2F3F2"/>
<path fill-rule="evenodd" clip-rule="evenodd" d="M13.0694 25.7973C13.038 25.7603 12.9964 25.7334 12.9499 25.7202C12.9033 25.707 12.8539 25.7079 12.808 25.723C12.7309 25.7905 12.6605 25.8615 12.5901 25.9358V25.956C12.5863 25.984 12.5863 26.0124 12.5901 26.0405C12.5689 26.1044 12.5707 26.1738 12.5953 26.2365C12.6198 26.2992 12.6654 26.3512 12.7242 26.3835C12.7829 26.4157 12.8511 26.426 12.9166 26.4127C12.9822 26.3994 13.041 26.3633 13.0828 26.3107C13.1423 26.2378 13.1737 26.1458 13.1712 26.0515C13.1688 25.9571 13.1326 25.8669 13.0694 25.7973Z" fill="#3B2517"/>
<path fill-rule="evenodd" clip-rule="evenodd" d="M12.818 25.9189C12.8088 25.9181 12.7996 25.9199 12.7913 25.924C12.783 25.9282 12.776 25.9346 12.7711 25.9425C12.7208 25.9898 12.7309 26.1114 12.8247 26.081C12.9186 26.0506 12.9186 25.9256 12.818 25.9189Z" fill="#F2F3F2"/>
<path fill-rule="evenodd" clip-rule="evenodd" d="M12.3789 42.0433C12.0437 41.665 11.6716 41.2901 11.3733 40.8882C10.9602 40.3531 10.5743 39.7973 10.2168 39.223C9.95871 38.8008 9.69055 38.3854 9.47267 37.9362C9.13747 37.2607 8.85255 36.5852 8.52405 35.9097C8.19555 35.2342 7.82013 34.4776 7.44805 33.7751C7.15308 33.2178 6.86145 32.3734 6.31507 32.0457C6.25138 32.0086 6.18769 32.1099 6.19104 32.164C6.19788 32.2549 6.21132 32.3452 6.23127 32.4342C6.30166 32.4815 6.37541 32.7719 6.41228 32.8429C6.48938 33.005 6.57317 33.1806 6.65697 33.3258C7.01899 34.0014 7.438 34.6769 7.7732 35.3895C8.1084 36.1022 8.41679 36.8655 8.77881 37.5849C9.40423 38.8164 10.2162 39.9423 11.1856 40.9219C11.5631 41.317 11.9614 41.6914 12.3789 42.0433Z" fill="#EDB389"/>
<path fill-rule="evenodd" clip-rule="evenodd" d="M15.8348 31.8499C15.7992 31.8031 15.748 31.7707 15.6907 31.7587C15.627 31.7587 15.5801 31.8296 15.5834 31.887C15.4963 31.887 15.4125 31.914 15.3421 31.9309C15.3114 31.9408 15.2845 31.9601 15.2653 31.9862C15.2461 32.0122 15.2354 32.0437 15.2348 32.0761C15.1288 32.0822 15.0234 32.0969 14.9197 32.1201C14.8861 32.1338 14.8571 32.157 14.8362 32.187C14.8154 32.2169 14.8037 32.2524 14.8024 32.2889C14.5611 32.2315 14.3164 32.1809 14.0683 32.1471C14.0013 32.1471 13.9275 32.2349 13.9376 32.3024C13.8069 32.2484 13.6761 32.191 13.5488 32.1302C13.4214 32.0694 13.3879 32.1741 13.3678 32.2585C13.3051 32.2322 13.2379 32.2184 13.17 32.218L13.0057 32.1572C12.9754 32.1503 12.9437 32.1535 12.9153 32.1663C12.8869 32.1791 12.8633 32.2008 12.8482 32.2281C12.6516 32.1472 12.4471 32.0872 12.2381 32.0491C12.2079 32.0491 12.1811 32.0964 12.1979 32.1201L12.2214 32.1471C11.8862 31.8634 11.4269 31.4479 11.085 31.5864C11.0549 32.0863 11.8895 32.4983 12.2348 32.728C12.6194 32.9953 13.0189 33.24 13.4314 33.4609C13.7748 33.7646 14.2089 33.9441 14.665 33.971C14.8859 33.5308 15.2062 33.149 15.6002 32.8564C15.8822 32.5444 16.2156 32.2839 16.5857 32.0863L16.16 32.0018L16.3443 31.8634C16.1751 31.8456 16.0048 31.841 15.8348 31.8499Z" fill="#DB916B"/>
<path fill-rule="evenodd" clip-rule="evenodd" d="M25.74 19.8933C25.3679 19.792 24.9992 19.6839 24.6272 19.5556L24.5668 19.5353C24.4026 19.4745 24.2316 19.4103 24.0674 19.3529C23.4305 19.1266 22.7936 18.8801 22.15 18.647C21.3413 18.3564 20.5042 18.1537 19.6528 18.0424H19.4449C19.3102 17.9904 19.1725 17.9465 19.0326 17.9107C18.4484 17.7711 17.8722 17.5997 17.3063 17.3973L17.0114 17.2926L16.5253 17.1575C15.8549 16.9819 15.1845 16.8569 14.5141 16.7049C14.087 16.6269 13.6721 16.4917 13.2806 16.303H13.2604L13.1934 16.2658C13.0877 16.2194 12.9717 16.2025 12.8573 16.2167C12.7429 16.231 12.6344 16.276 12.5431 16.3469C12.4996 16.4114 12.4658 16.4819 12.4426 16.5563C12.4409 16.5788 12.4409 16.6014 12.4426 16.6239C12.462 16.8007 12.5037 16.9744 12.5666 17.1406L12.4727 17.198C12.161 17.4142 12.2213 17.7452 12.1074 18.0526C11.9934 18.3599 11.7453 18.5896 11.9498 18.9578C11.9705 18.9942 11.9953 19.0282 12.0236 19.0591C12.0538 19.0804 12.088 19.0954 12.1241 19.103C12.147 19.171 12.1934 19.2286 12.2548 19.2651C12.2792 19.285 12.3049 19.3031 12.3319 19.3191C12.104 19.5184 11.9498 19.846 12.171 20.0622C12.2863 20.1733 12.4146 20.2697 12.5532 20.3493C12.6336 20.2277 12.5532 20.0757 12.5532 19.9406C12.5615 19.8027 12.6042 19.6691 12.6772 19.5522C12.7208 19.5522 12.761 19.5117 12.7744 19.461C12.7878 19.4103 12.8012 19.3867 12.7744 19.3631L12.7342 19.3259C12.641 19.1883 12.576 19.0332 12.5431 18.8699C12.5331 18.7813 12.5331 18.6918 12.5431 18.6031C12.5857 18.4932 12.659 18.3981 12.7543 18.3295C12.7916 18.3396 12.8309 18.3396 12.8683 18.3295C12.9286 18.3295 12.9889 18.2248 12.9454 18.1674C12.9018 18.11 12.8213 18.0661 12.7878 17.985C12.7553 17.849 12.7744 17.7056 12.8414 17.5831C12.9118 17.4514 13.0258 17.4176 13.1297 17.35C13.1575 17.334 13.1834 17.3147 13.2068 17.2926C13.2068 17.2926 13.2068 17.269 13.2068 17.2487C13.2211 17.226 13.2287 17.1996 13.2287 17.1727C13.2287 17.1458 13.2211 17.1194 13.2068 17.0967C13.215 17.0572 13.2274 17.0187 13.2437 16.9819C13.2873 16.8907 13.3577 16.8198 13.4046 16.7353H13.4247C13.9342 16.8637 14.4772 16.9177 14.9767 17.0359C15.694 17.2048 16.3175 17.5561 17.0114 17.7891C17.6691 18.0382 18.3463 18.2314 19.036 18.3667C19.4081 18.4275 19.7835 18.4444 20.1556 18.5356C20.4639 18.6065 20.7623 18.7112 21.0673 18.7956C21.2249 18.8834 21.4025 18.9611 21.5533 19.0388C21.0615 18.9231 20.5597 18.8552 20.055 18.8362C19.6427 18.7011 19.2002 18.7247 18.7812 18.6268C18.7544 18.6268 18.7242 18.6605 18.7209 18.6842C18.6974 18.9206 18.8918 18.9375 19.0863 18.9645C19.3995 19.0185 19.7174 19.0389 20.0349 19.0253C21.3355 19.2415 22.6327 19.5421 23.9165 19.8832C24.1478 19.9541 24.3791 20.0251 24.5869 20.0994C25.1233 20.275 25.6797 20.4743 26.2629 20.6465C26.5729 20.8119 26.8528 21.0289 27.0909 21.2883C27.3602 21.677 27.5851 22.095 27.7613 22.5346C27.773 22.6299 27.773 22.7263 27.7613 22.8217C27.7211 23.0446 27.6105 23.2506 27.5836 23.4769C27.5836 23.5445 27.6473 23.5343 27.6741 23.4769C27.8117 23.233 27.8963 22.9625 27.9222 22.6832C27.939 22.6715 27.9527 22.6559 27.962 22.6376C27.9714 22.6193 27.9761 22.599 27.9758 22.5785C27.8931 21.9542 27.6323 21.3675 27.225 20.8897C27.7565 21.0143 28.302 21.0677 28.8474 21.0485C28.8755 21.0432 28.9006 21.0276 28.9177 21.0045L28.8809 20.9708C28.5457 20.7242 28.0529 20.6702 27.6674 20.5418C27.0104 20.3324 26.3736 20.1129 25.74 19.8933Z" fill="#EDB389"/>
<path fill-rule="evenodd" clip-rule="evenodd" d="M16.8739 29.2829C16.7834 29.2052 16.6795 29.1309 16.5857 29.0465L16.5354 29.0161L16.5052 28.9688C16.4577 28.9215 16.4181 28.8667 16.3879 28.8067C16.3265 28.7273 16.2605 28.6518 16.1901 28.5804C16.1707 28.5974 16.1548 28.618 16.1432 28.6412C16.1233 28.6966 16.1163 28.7558 16.1227 28.8144C16.129 28.8729 16.1487 28.9292 16.1801 28.9789C16.2262 29.0906 16.3031 29.1865 16.4018 29.2553C16.5004 29.3242 16.6166 29.3631 16.7365 29.3674H16.8304C16.8739 29.3775 16.9108 29.3167 16.8739 29.2829Z" fill="#DB916B"/>
<path fill-rule="evenodd" clip-rule="evenodd" d="M29.0051 21.1126C29.1531 22.0987 29.1418 23.1024 28.9716 24.0849C28.8408 24.8212 28.5928 25.5338 28.4084 26.26C28.2609 26.5978 28.1201 26.9355 27.9827 27.2733C27.7581 27.8508 27.5469 28.4385 27.3492 29.0262C27.2502 29.262 27.1684 29.5047 27.1045 29.7524C26.9961 30.134 26.9176 30.5236 26.8698 30.9177C26.8242 31.2146 26.7627 31.5089 26.6855 31.7992C26.4596 32.4453 26.1827 33.0721 25.8575 33.6737C25.2508 34.7782 24.4463 35.6293 23.6519 36.5582C23.773 35.8058 23.8212 35.0434 23.796 34.2817C23.8296 33.0703 23.5864 31.8673 23.0854 30.7657C23.0418 30.6778 22.9513 30.7927 22.9647 30.8569C23.2607 31.9792 23.4426 33.129 23.5078 34.2884C23.5212 34.8703 23.4977 35.4524 23.4374 36.0313C23.4072 36.369 23.3267 36.6797 23.2798 37.004C23.249 37.0533 23.2349 37.1114 23.2396 37.1695C23.2128 37.1695 23.186 37.1965 23.1893 37.2168C23.1929 37.3229 23.2087 37.4283 23.2362 37.5309C23.2347 37.5442 23.236 37.5578 23.24 37.5706C23.2441 37.5834 23.2508 37.5952 23.2597 37.6052C23.4307 38.0206 23.6761 38.4007 23.9837 38.7265C24.4564 39.3109 24.9357 39.8817 25.4251 40.4457C25.8676 40.9557 26.3234 41.459 26.8095 41.9555C26.844 41.3677 26.7679 40.7786 26.5849 40.2194C26.4709 39.831 26.3905 39.4122 26.2966 38.9967C26.1854 38.8154 26.055 38.6467 25.9078 38.4935C25.9341 38.4782 25.9578 38.4588 25.9782 38.4361C26.0481 38.5004 26.122 38.5602 26.1994 38.6151C26.1305 38.3415 26.0374 38.0748 25.9212 37.818C25.8858 37.7383 25.8444 37.6615 25.7972 37.5883L25.6665 37.4397L25.5592 37.3046L25.5257 37.2506C25.4688 37.1598 25.4061 37.0729 25.338 36.9905C25.1201 36.7372 24.8821 36.4838 24.6676 36.2272L24.7983 36.0515L24.691 36.1495C25.2303 35.4985 25.7052 34.796 26.1089 34.052L26.2195 33.8662C26.5243 33.2963 26.7876 32.7048 27.0073 32.0964C27.0374 32.0154 27.0676 31.9309 27.0944 31.8465C27.271 31.3191 27.3989 30.7764 27.4766 30.2253C27.4938 30.2124 27.5095 30.1977 27.5235 30.1813C27.5472 30.0269 27.5629 29.8713 27.5704 29.7152C27.5704 29.6139 27.7213 29.4315 27.7715 29.3403C27.852 29.1883 27.9291 29.0364 28.0062 28.8844C28.1905 28.523 28.3715 28.1582 28.5458 27.7867C28.5894 27.6583 28.6364 27.5333 28.6799 27.4151C28.8978 26.8443 29.1492 26.2533 29.3503 25.6521C29.5074 25.0831 29.5919 24.4963 29.6017 23.9059C29.6057 23.6017 29.5844 23.2978 29.538 22.9973C29.4308 22.4535 29.3872 21.5753 29.0051 21.1126Z" fill="#DB916B"/>
<path fill-rule="evenodd" clip-rule="evenodd" d="M23.7055 24.4024C23.8698 24.2132 24.0407 24.0308 24.2251 23.8518C24.3477 23.7326 24.4763 23.6198 24.6106 23.5141C23.796 23.0513 22.7871 22.8858 21.9289 22.5616L21.7312 22.4535C21.1244 22.0955 20.4708 21.653 19.7602 21.5551C19.2696 21.2957 18.7173 21.1788 18.1646 21.2173C17.8629 21.1869 17.5613 21.1835 17.3065 21.1599C16.5116 21.0364 15.7069 20.9889 14.9031 21.0181C13.9607 20.6614 13.0444 20.2381 12.1611 19.7515C12.1485 19.7457 12.1348 19.7427 12.1209 19.7427C12.107 19.7427 12.0933 19.7457 12.0807 19.7515C12.0716 19.8068 12.0763 19.8636 12.0944 19.9167C12.1126 19.9698 12.1436 20.0175 12.1846 20.0554C12.5444 20.3555 12.9605 20.5795 13.4081 20.7141C13.7267 20.8794 14.0645 21.0042 14.4137 21.0856C14.414 21.0767 14.4123 21.0679 14.4089 21.0597C14.4054 21.0515 14.4002 21.0442 14.3936 21.0383L14.7288 21.1498C15.0942 21.2106 15.4696 21.241 15.9221 21.2984C16.3746 21.3558 16.7467 21.2781 17.1825 21.2984C18.0928 21.4971 18.9887 21.7578 19.8641 22.0786C20.9133 22.8082 21.3624 23.2844 22.5088 23.8518C22.9013 24.0529 23.308 24.2245 23.7256 24.3652L23.7055 24.4024Z" fill="#DB916B"/>
<path fill-rule="evenodd" clip-rule="evenodd" d="M13.998 19.6738C13.6259 19.4678 13.2337 19.336 12.8449 19.1638C12.518 19.0674 12.2281 18.873 12.0136 18.6065H12.0605L12.0035 18.5795L11.9666 18.5254C11.9666 18.5254 11.9331 18.5254 11.9264 18.5254C11.9101 18.5504 11.8976 18.5777 11.8896 18.6065C11.8855 18.7121 11.9123 18.8166 11.9666 18.9071L12.0102 18.9679C12.1 19.0482 12.199 19.1174 12.3052 19.1739C12.8104 19.4739 13.37 19.6691 13.951 19.7481C13.9946 19.7819 14.055 19.7177 13.998 19.6738Z" fill="#DB916B"/>
<path fill-rule="evenodd" clip-rule="evenodd" d="M13.941 18.5525C13.6565 18.3562 13.3447 18.2037 13.0158 18.0999C12.7752 18.0441 12.5476 17.942 12.3454 17.7993C12.3454 17.7993 12.3454 17.7655 12.3454 17.779C12.3163 17.7458 12.2976 17.7047 12.2918 17.6608C12.2918 17.627 12.2516 17.6608 12.2449 17.6608C12.1476 17.9715 12.3488 18.1032 12.6136 18.2282C13.0077 18.4521 13.4341 18.6128 13.8773 18.7044C13.941 18.7044 13.998 18.593 13.941 18.5525Z" fill="#DB916B"/>
<path fill-rule="evenodd" clip-rule="evenodd" d="M13.5388 17.2318C13.3836 17.2049 13.231 17.1642 13.0829 17.1102C12.8862 17.0356 12.707 16.9206 12.5566 16.7725C12.4795 16.9008 12.6606 17.0596 12.7712 17.1102C13.1544 17.3648 13.5821 17.5436 14.0315 17.6371C14.1019 17.6371 14.179 17.5122 14.1086 17.4683C13.9253 17.3741 13.7348 17.295 13.5388 17.2318Z" fill="#DB916B"/>
<path fill-rule="evenodd" clip-rule="evenodd" d="M26.947 29.0769C26.4751 28.3484 26.2766 27.4741 26.3872 26.6113C26.3872 26.5437 26.3134 26.564 26.3 26.6113C26.0553 27.4962 26.1492 28.5399 26.8229 29.2187C26.8967 29.2931 26.9872 29.1478 26.947 29.0769Z" fill="#DB916B"/>
<path fill-rule="evenodd" clip-rule="evenodd" d="M22.8406 26.2127C23.3077 25.6058 23.8138 25.0304 24.3557 24.4902C24.5065 24.1727 24.6641 23.8586 24.8384 23.5546C24.4181 23.7637 24.038 24.0462 23.7154 24.3889C23.6216 24.5341 23.5277 24.6793 23.4339 24.8144C22.9445 25.5372 22.4819 26.2837 22.0562 27.047C21.6808 27.7225 21.2886 28.4284 20.9332 29.1613C20.7567 29.1957 20.5862 29.256 20.4271 29.3403C20.055 29.5396 19.6997 29.7929 19.3477 30.0158C18.9154 30.2799 18.5061 30.5804 18.1243 30.9143C17.6535 31.3362 17.1576 31.7287 16.6393 32.0897L16.4482 32.0525C15.6824 32.7782 15.0373 33.6233 14.5376 34.5553C14.494 34.6397 14.4538 34.7275 14.4169 34.812H14.4337C14.4102 34.8491 14.3901 34.8863 14.37 34.9234C14.1367 35.5049 14.0084 36.1237 13.9912 36.7507C14.0409 38.2655 14.4208 39.7507 15.1041 41.101C15.1343 41.1482 15.1644 41.1955 15.1979 41.2428C15.3283 41.5393 15.523 41.8024 15.7678 42.0129C15.7979 42.0399 15.8415 41.969 15.8315 41.9386C15.7879 41.8508 15.741 41.7663 15.694 41.6853C14.9197 39.6351 14.018 37.5748 14.7957 35.3659C15.1749 34.3806 15.7537 33.4856 16.4952 32.7382C16.8572 32.3599 17.2594 32.0289 17.655 31.6877C17.7276 31.6452 17.7981 31.5989 17.8661 31.5493C19.0858 30.3725 20.5064 29.4273 22.0595 28.7594C22.0863 28.6986 22.093 28.6108 22.0126 28.6243C21.9322 28.6378 21.8316 28.6682 21.7377 28.6986C21.8551 28.3811 21.9187 28.0434 22.0361 27.7225C22.2429 27.1884 22.513 26.6815 22.8406 26.2127Z" fill="#EDB389"/>
<path fill-rule="evenodd" clip-rule="evenodd" d="M53.2401 23.2945C53.2097 23.2384 53.1659 23.1908 53.1127 23.156C52.8178 22.9534 52.2747 23.0885 52.1775 22.7406C52.2471 22.7377 52.3154 22.7211 52.3785 22.6916C52.4417 22.6621 52.4985 22.6204 52.5456 22.5688C52.5928 22.5172 52.6294 22.4567 52.6534 22.3909C52.6773 22.325 52.6882 22.2551 52.6854 22.185C52.6825 22.1149 52.666 22.0461 52.6367 21.9824C52.6074 21.9188 52.566 21.8616 52.5148 21.8141C52.4636 21.7666 52.4036 21.7297 52.3383 21.7055C52.2729 21.6814 52.2035 21.6704 52.1339 21.6733C52.2245 21.3355 52.7273 21.3761 52.9451 21.116C53.0235 20.9908 53.0506 20.8397 53.0206 20.6948C52.9906 20.5499 52.9058 20.4223 52.7842 20.3392C52.5353 20.1799 52.2478 20.0923 51.9529 20.0858C47.4445 19.5893 42.9025 19.2685 38.461 18.3532C37.2854 18.1526 36.0824 18.1824 34.918 18.441C34.4621 18.5187 33.7313 19.3158 33.7313 19.3158C33.6544 19.3416 33.5761 19.363 33.4967 19.3799C33.1179 19.4509 31.7872 19.7177 31.5458 20.0554C30.9458 20.9167 30.8452 22.2272 30.7648 23.2405C30.4951 26.6787 30.9006 30.1368 31.9581 33.417C32.2028 34.177 32.5213 34.9741 33.1816 35.4132C33.6224 35.6663 34.1113 35.8228 34.6163 35.8725C37.0297 36.2711 39.5404 36.4231 41.8902 35.7408C42.4835 35.5685 43.1271 35.2814 43.3416 34.7005C43.4552 34.277 43.4293 33.8278 43.2678 33.4204C42.5002 30.8771 40.8477 28.6277 40.4153 25.9898C41.7772 26.6024 43.2784 26.8317 44.7592 26.6533C46.2401 26.4749 47.6453 25.8954 48.8255 24.9765C48.9847 24.8317 49.1687 24.7173 49.3685 24.6388C49.5658 24.5904 49.7697 24.5756 49.9719 24.5949C50.7235 24.6198 51.4758 24.57 52.2177 24.4463C52.5528 24.4234 52.8715 24.2919 53.1261 24.0714C53.2231 23.97 53.2862 23.8406 53.3067 23.7013C53.3271 23.5621 53.3038 23.4198 53.2401 23.2945Z" fill="#DCA47A"/>
<path fill-rule="evenodd" clip-rule="evenodd" d="M32.9973 26.7768C32.85 25.4425 32.8041 24.0988 32.8599 22.7575C32.9041 22.099 33.0164 21.447 33.1951 20.812C33.3627 20.302 33.5839 19.8224 33.7582 19.3124L33.7415 19.3293C33.661 19.3509 33.5792 19.3679 33.4968 19.3799L33.3225 19.4137C32.8096 20.2311 32.6286 21.2916 32.5314 22.2205C32.4124 23.5801 32.4124 24.9477 32.5314 26.3073C32.7653 29.1875 33.3138 32.0328 34.1672 34.7917C34.1973 34.893 34.3314 34.7917 34.318 34.7005C33.8085 32.0829 33.2554 29.4349 32.9973 26.7768Z" fill="#DB916B"/>
<path fill-rule="evenodd" clip-rule="evenodd" d="M49.6737 19.8461C49.4893 19.8461 49.3083 19.8461 49.1273 19.8461L48.7452 19.7549C45.296 19.4685 41.8635 19.0052 38.4612 18.3667C37.2855 18.1661 36.0825 18.1959 34.9181 18.4545C34.7841 18.4836 34.6575 18.5399 34.546 18.62L34.5158 18.6504L34.4421 18.6909C34.1874 18.8827 33.9497 19.0963 33.7315 19.3293C33.6542 19.3506 33.5759 19.3675 33.4968 19.3799C32.9996 19.4646 32.5097 19.5888 32.032 19.7515L31.8845 19.8157C31.7566 19.8649 31.6418 19.9436 31.5493 20.0453C31.1796 20.6378 30.9502 21.3081 30.8789 22.0043L30.8487 22.2407C30.8085 22.5785 30.7817 22.9162 30.7582 23.2202C30.6608 24.4564 30.6508 25.6979 30.728 26.9355C30.899 28.4115 31.1102 29.8841 31.3984 31.3432C31.4275 31.5053 31.461 31.6675 31.499 31.8296C31.6331 32.3565 31.7839 32.8834 31.9515 33.4002C32.1962 34.1601 32.5147 34.9572 33.175 35.3963C33.3118 35.4855 33.4579 35.5591 33.6108 35.6158C33.4834 35.349 33.3359 35.0856 33.2052 34.8255C33.1127 34.5048 33.0007 34.1901 32.87 33.8831C32.7649 33.5409 32.6677 33.2031 32.5784 32.8699C32.1828 31.3871 31.9079 29.874 31.6029 28.3676C31.0766 25.723 30.8353 22.8419 31.7135 20.2615C31.9992 20.1377 32.2926 20.0328 32.5918 19.9474C32.9214 19.9054 33.2452 19.8261 33.5571 19.7109C33.4518 19.8289 33.378 19.9718 33.3426 20.1264C33.2649 20.4115 33.2133 20.7032 33.1884 20.9978C32.9975 21.8807 32.8654 22.7755 32.7929 23.6762C32.6694 25.1492 32.7019 26.6313 32.8901 28.0974C33.1482 30.33 33.4164 32.6875 34.0465 34.893C34.0901 35.0957 34.1303 35.3017 34.1739 35.5077C34.176 35.5276 34.1829 35.5465 34.194 35.563C34.2051 35.5795 34.2201 35.593 34.2376 35.6023C34.2473 35.6775 34.2618 35.752 34.2812 35.8252L34.5996 35.8793C34.727 35.9029 34.851 35.9232 34.9784 35.9401C34.519 34.4119 34.1441 32.8592 33.8555 31.2892C33.6443 30.0429 33.4633 28.7932 33.3493 27.5367C33.2785 26.2993 33.2785 25.0588 33.3493 23.8214C33.3493 23.1088 33.4029 22.4029 33.4633 21.6936C33.4633 21.6294 33.4633 21.5618 33.4633 21.4943C33.537 21.0991 33.6208 20.7073 33.6979 20.3155C33.7927 20.1422 33.8968 19.9742 34.0097 19.8123C34.1799 19.5739 34.367 19.3481 34.5695 19.1368C34.7412 18.9967 34.9227 18.8691 35.1125 18.7551C35.4008 18.7044 35.9874 18.6774 36.1784 18.647C36.7801 18.5401 37.3916 18.5005 38.0019 18.5288C39.145 18.5862 40.1238 18.9949 41.2098 19.255C41.1796 19.3158 41.1763 19.3935 41.2467 19.407C42.8355 19.7616 44.4613 19.7447 46.0702 19.9068C47.6055 20.0757 49.0871 20.4337 50.6022 20.7512C51.3125 21.0182 52.0983 20.994 52.7911 20.6837C52.8346 20.6634 52.8983 20.5283 52.8145 20.5249H52.6737C52.6788 20.5039 52.6788 20.4818 52.6737 20.4608L52.8581 20.4439L52.781 20.3763C52.532 20.217 52.2445 20.1294 51.9497 20.123C51.1921 20.0014 50.4346 19.9237 49.6737 19.8461Z" fill="#EDB389"/>
<path fill-rule="evenodd" clip-rule="evenodd" d="M41.6287 35.707C41.3887 34.668 41.0624 33.6512 40.6533 32.6672C39.8488 30.6677 38.8331 28.7898 37.9382 26.8342C37.9214 26.8004 37.8745 26.8342 37.8879 26.8747C38.7862 28.7526 39.4868 30.7454 40.2544 32.6807C40.6259 33.5887 40.9252 34.525 41.1494 35.4807C41.1807 35.6203 41.2075 35.7588 41.2298 35.8962C41.3706 35.8658 41.5081 35.832 41.6455 35.7948L41.6287 35.707Z" fill="#DB916B"/>
<path fill-rule="evenodd" clip-rule="evenodd" d="M48.6613 21.4065C47.4661 21.0805 46.2278 20.9438 44.9909 21.0012C43.8579 21.0012 42.3595 20.9708 41.3305 21.4774C41.3305 21.4774 41.3104 21.501 41.3305 21.5044C41.8464 21.5125 42.3619 21.4684 42.869 21.3727C43.5513 21.3158 44.2362 21.2978 44.9205 21.3187C46.154 21.3558 47.344 21.5956 48.5641 21.7071C48.6982 21.7206 48.8222 21.4605 48.6613 21.4065Z" fill="#EDB389"/>
<path fill-rule="evenodd" clip-rule="evenodd" d="M53.1798 23.9633C52.702 23.9453 52.2235 23.9645 51.7485 24.0207C51.7944 23.5902 51.7866 23.1556 51.7251 22.7271H51.9563H52.2915C52.406 22.691 52.5067 22.6203 52.5798 22.5244C52.0468 22.5244 51.5038 22.5008 50.9742 22.5244L50.8435 22.5515C50.8435 22.5515 50.8435 22.5515 50.8435 22.5278H50.639C50.2711 22.5641 49.9067 22.6308 49.5496 22.7271C49.4859 22.7474 49.4289 22.8858 49.5295 22.8858C49.8814 22.8858 50.23 22.8419 50.5787 22.8048C50.8298 22.8018 51.0805 22.7837 51.3295 22.7507C51.3873 23.1715 51.3985 23.5974 51.363 24.0207C51.1866 24.024 51.0107 24.0409 50.8368 24.0714V24.0511C50.3966 24.0417 49.9564 24.0642 49.5194 24.1186C49.6082 24.0107 49.691 23.898 49.7675 23.7809C49.8412 23.6627 49.7675 23.487 49.6166 23.5917C49.0837 23.9903 48.6345 24.4902 48.0881 24.8752C47.8736 25.0272 47.6523 25.1657 47.4177 25.3008C47.1831 25.4359 46.9317 25.5203 46.6803 25.6115C46.137 25.7728 45.5839 25.898 45.0244 25.9864L44.8266 26.0168C44.1154 26.0754 43.4001 26.063 42.6913 25.9797C41.8701 25.8885 41.0522 25.6419 40.2276 25.6115C40.1803 25.6158 40.1362 25.6375 40.1036 25.6723C40.0758 25.6785 40.0495 25.6904 40.0264 25.7073C40.0034 25.7241 39.984 25.7455 39.9695 25.7703C39.8942 25.9134 39.8336 26.064 39.7885 26.2195C39.6075 25.544 39.4868 24.8685 39.2991 24.1929C39.2723 24.1018 39.1784 24.2233 39.1751 24.2706C39.1723 25.2403 39.3556 26.2014 39.7148 27.101C39.7365 27.3165 39.8204 27.5208 39.9561 27.6887L39.9963 27.7698C40.1747 28.1531 40.3796 28.5233 40.6097 28.8776C40.9047 29.4146 41.1762 29.9652 41.4578 30.5056C42.1282 31.7958 43.0266 33.2076 43.3014 34.6701C43.415 34.2466 43.3891 33.7974 43.2277 33.39C42.926 32.4531 42.5563 31.5398 42.1215 30.6576L42.0813 30.5833C41.7461 29.9652 41.431 29.3403 41.1494 28.702C41.0172 28.2708 40.8628 27.8469 40.6868 27.432C40.6332 27.2665 40.5829 27.0943 40.5259 26.9355C40.4757 26.7092 40.4421 26.4694 40.3818 26.26L40.4287 26.2904C40.4086 26.1891 40.3919 26.0878 40.3751 25.9864C41.2547 26.3933 42.2013 26.6326 43.1673 26.6923C43.4858 26.6923 43.8009 26.6484 44.116 26.6079C44.4914 26.6079 44.8568 26.5572 45.202 26.5099C45.7077 26.4454 46.206 26.3323 46.6903 26.1722C47.4457 25.8864 48.1524 25.4842 48.7853 24.9799L48.9127 24.8752C48.9764 24.8178 49.0401 24.7604 49.1004 24.6962H49.1876L49.3284 24.6354C49.5257 24.587 49.7296 24.5722 49.9317 24.5915C50.6834 24.6164 51.4356 24.5666 52.1776 24.4429C52.5126 24.42 52.8313 24.2885 53.086 24.068C53.1224 24.0381 53.154 24.0028 53.1798 23.9633Z" fill="#DB916B"/>
<path fill-rule="evenodd" clip-rule="evenodd" d="M8.02124 25.1859C8.22393 24.7565 8.53919 24.3909 8.93299 24.1288C9.42633 23.8619 9.95782 23.6739 10.5084 23.5715C10.6526 23.5343 12.2381 23.3283 12.2448 23.406C12.2464 22.8614 12.1626 22.3199 11.9967 21.8016C11.7733 21.2683 11.4839 20.7656 11.1353 20.3054C10.7598 20.2716 10.371 20.5317 10.0459 20.6904C9.61345 20.8998 9.1911 21.143 8.76874 21.3659C7.59682 22.0045 6.46707 22.7186 5.38655 23.5039C4.46685 24.1493 3.75207 25.049 3.32841 26.0945C3.03343 26.8747 2.86583 27.6279 3.12058 28.4588C3.40855 29.3169 3.84426 30.1172 4.40776 30.8231C4.96084 31.5425 5.56756 32.4105 6.31842 32.9239C6.49544 32.2926 6.8328 31.7186 7.2972 31.2588C7.15104 31.0627 7.06483 30.828 7.04915 30.5833C7.04891 30.375 7.12022 30.173 7.25098 30.0117C7.38174 29.8504 7.56389 29.7397 7.76648 29.6984C7.90481 29.6659 8.04754 29.6567 8.18884 29.6713C8.45417 29.7042 8.71109 29.7867 8.9464 29.9145C8.96341 29.9098 8.9793 29.9017 8.99313 29.8907C9.00695 29.8797 9.01842 29.866 9.02685 29.8503C8.88606 29.9618 7.88381 27.9657 7.82683 27.7867C7.57102 26.9253 7.64026 25.999 8.02124 25.1859Z" fill="#3B2517"/>
<path fill-rule="evenodd" clip-rule="evenodd" d="M16.1902 28.5669C16.2291 28.8383 16.2085 29.115 16.1299 29.3775C16.0058 29.7383 15.7896 30.0598 15.5031 30.3097C14.8754 30.8767 14.1077 31.2629 13.2807 31.4277C12.4335 31.6121 11.5544 31.5854 10.7197 31.35C11.1794 31.8501 11.7752 32.2026 12.4326 32.3632C13.0723 32.4944 13.724 32.5567 14.3768 32.549C15.2349 32.5895 15.9288 32.2113 16.6428 31.7485C17.3132 31.3297 18.359 30.5867 18.6272 29.722C17.9232 29.1411 16.9981 28.9148 16.1902 28.5669Z" fill="#3B2517"/>
<path fill-rule="evenodd" clip-rule="evenodd" d="M10.8503 31.3939C11.2191 31.8228 11.9632 31.7012 12.4828 31.6675C13.3019 31.6388 14.104 31.4241 14.8292 31.0392C15.0995 30.8805 15.3484 30.6876 15.57 30.4651C15.7723 30.5731 15.9576 30.7108 16.1197 30.8737C15.9792 30.6967 15.8091 30.5458 15.6169 30.4279C15.7357 30.3131 15.8476 30.1913 15.9521 30.0631C16.1499 30.1577 16.351 30.2354 16.5454 30.3401C16.758 30.4617 16.9589 30.603 17.1454 30.7623C17.1454 30.7623 17.1454 30.7623 17.1454 30.7826C17.1454 30.7826 17.1756 30.7623 17.1656 30.7522C16.825 30.4194 16.429 30.1496 15.9957 29.9551L16.1197 29.7659C16.272 29.8795 16.4335 29.98 16.6024 30.0665C16.8471 30.1982 17.0918 30.3367 17.3466 30.4516C17.1521 30.2962 16.9443 30.1611 16.7398 30.0226C16.5504 29.9059 16.367 29.7796 16.1901 29.6443C16.2372 29.5612 16.2798 29.4755 16.3175 29.3876C16.5823 29.5464 16.9142 29.6477 17.1756 29.8132C17.5108 30.0226 17.8024 30.2996 18.1376 30.4887C18.3373 30.2651 18.4901 30.0032 18.5868 29.7186C17.8963 29.1309 16.9711 28.9046 16.1633 28.5567C16.2022 28.8281 16.1816 29.1048 16.103 29.3674C15.9788 29.7281 15.7627 30.0497 15.4761 30.2996C14.8484 30.8666 14.0807 31.2528 13.2537 31.4175C12.4606 31.5879 11.64 31.5799 10.8503 31.3939Z" fill="#673A22"/>
<path fill-rule="evenodd" clip-rule="evenodd" d="M36.2352 41.6886C35.6721 39.8006 34.9179 38.0578 33.6508 36.5615C33.6594 36.5249 33.6594 36.4867 33.6508 36.4501C33.541 36.3664 33.4203 36.2982 33.2921 36.2474C33.2755 36.2444 33.2585 36.2444 33.2419 36.2474C32.424 36.0988 31.3815 36.3555 30.6407 36.5852C30.2797 36.6846 29.9352 36.8371 29.6183 37.0378L29.5546 37.0006C28.8842 36.6223 27.9926 36.1123 27.1713 36.1157C26.9696 35.7352 26.6923 35.4007 26.3568 35.1328L26.3367 35.1058C26.1926 34.9369 26.035 34.6735 25.854 34.4573C25.4108 35.0791 24.8761 35.6292 24.2685 36.0887L24.3892 36.19C25.8171 37.4059 26.4875 39.5439 26.6652 41.3779C26.7478 41.9283 26.664 42.491 26.4249 42.9928C26.1858 43.4946 25.8023 43.9122 25.3244 44.1914C24.6768 44.5174 23.9762 44.7234 23.2562 44.7994C22.624 44.9155 21.9796 44.9496 21.3388 44.9007C20.2882 44.7862 19.2754 44.4402 18.3723 43.8874C16.8538 42.8303 15.6907 41.5806 15.0772 39.8006C14.5945 38.4158 14.1186 36.5717 14.4068 35.1159C14.5443 34.4033 14.9298 33.8223 15.2582 33.1907C15.2582 33.1637 15.2583 33.1333 15.2281 33.1502C14.9959 33.2964 14.7952 33.4883 14.6381 33.7143C14.0616 34.1837 13.6761 35.0653 13.4616 35.6901C13.1063 36.7405 12.6001 42.1885 12.6001 42.1885C12.6001 42.1885 13.4884 42.9856 13.7834 43.1714C15.1242 44.009 16.2303 45.1439 17.5443 46.0018C19.0161 47.0065 20.6442 47.7565 22.3612 48.2208C24.7344 48.795 27.1713 48.7004 29.5781 48.4674C30.9376 48.3349 32.2884 48.1241 33.624 47.8358C33.7748 47.802 33.9424 47.7716 34.1167 47.7378C34.6251 47.5492 35.1474 47.4013 35.6788 47.2954C35.9268 47.2211 36.1715 47.14 36.4129 47.0556C36.5864 46.4652 36.7263 45.8652 36.8319 45.2587C36.818 44.0447 36.6167 42.8403 36.2352 41.6886Z" fill="#4D5B6B"/>
<path fill-rule="evenodd" clip-rule="evenodd" d="M36.7415 45.6235C36.6931 45.5509 36.6186 45.5 36.5337 45.4816C36.5102 45.2655 36.4834 45.0459 36.4633 44.8298L36.0745 44.975C35.3504 45.2283 34.6197 45.4783 33.8889 45.7147C32.3403 46.2179 30.785 46.6942 29.1961 47.0657L28.9413 47.1231C27.3056 47.346 25.6664 47.3528 24.0306 47.4305C23.6954 47.3967 23.3837 47.3596 23.0585 47.3157C22.1196 47.1818 21.1918 46.9774 20.2831 46.7043C19.6151 46.4929 18.9631 46.2333 18.3322 45.9275C17.5612 45.252 16.5523 44.6947 15.778 44.1509C15.2341 43.7154 14.6667 43.3106 14.0785 42.9383C13.6104 42.5224 13.1203 42.1323 12.6103 41.7697C12.5835 42.0399 12.5701 42.1987 12.5701 42.1987C12.5701 42.1987 13.4584 42.9958 13.7533 43.1815C15.0941 44.0192 16.2003 45.154 17.5143 46.0119C18.9861 47.0167 20.6141 47.7667 22.3312 48.231C24.7044 48.8051 27.1413 48.7106 29.5481 48.4775C30.9076 48.3451 32.2584 48.1342 33.594 47.8459C33.7448 47.8121 33.9124 47.7818 34.0867 47.748C34.595 47.5594 35.1173 47.4114 35.6488 47.3055C35.8968 47.2312 36.1415 47.1501 36.3828 47.0657C36.5278 46.5917 36.6475 46.1103 36.7415 45.6235Z" fill="#233645"/>
<path fill-rule="evenodd" clip-rule="evenodd" d="M29.8094 37.2337C29.7591 37.156 29.7122 37.0749 29.6653 36.9939L29.5949 37.0411L29.5312 37.004C29.2798 36.8655 29.0049 36.7068 28.71 36.5649C29.3971 37.6525 30.3458 38.5914 30.9659 39.7128C30.9826 39.7432 31.0128 39.6891 31.0094 39.6723C30.815 38.7198 30.3256 38.0443 29.8094 37.2337Z" fill="#233645"/>
<path fill-rule="evenodd" clip-rule="evenodd" d="M32.3972 39.5304C32.167 38.7451 31.7765 38.0169 31.2508 37.3924C31.0932 37.1931 30.8653 36.879 30.6005 36.5987C30.3646 36.6686 30.1348 36.7578 29.9133 36.8655C30.2824 37.1896 30.6317 37.5358 30.9592 37.9024C31.3648 38.3753 31.7 38.9157 32.0754 39.4021C32.3172 39.8236 32.5322 40.2602 32.719 40.7092C32.7357 40.7565 32.7961 40.7092 32.7927 40.6619C32.711 40.2688 32.578 39.8883 32.3972 39.5304Z" fill="#233645"/>
<path fill-rule="evenodd" clip-rule="evenodd" d="M27.2921 36.9432C27.2318 36.646 27.1715 36.3386 27.1011 36.0346C26.9098 35.6935 26.6535 35.3939 26.3469 35.1531L26.3267 35.1261C26.1826 34.9572 26.0251 34.6937 25.8441 34.4776C25.4008 35.0993 24.8662 35.6494 24.2585 36.1089L24.3792 36.2103C25.8072 37.4262 26.4776 39.5642 26.6552 41.3982C26.6552 41.4657 26.6552 41.5299 26.6552 41.5975C26.669 41.5775 26.6802 41.556 26.6888 41.5333C27.0005 40.4187 26.5647 39.0238 26.2429 37.9463C26.0548 37.3066 25.8241 36.6803 25.5524 36.0718C25.5021 35.9603 25.4519 35.8387 25.3982 35.734C25.4001 35.7183 25.4001 35.7025 25.3982 35.6867C25.539 35.4706 25.653 35.2274 25.7334 35.0619C25.7535 35.0214 25.7737 34.9775 25.7971 34.9369L25.8575 35.0011C26.0537 35.2099 26.2309 35.436 26.3871 35.6766C26.4843 35.8286 26.5614 36.0144 26.6485 36.1562C26.7357 36.2981 26.7659 36.5717 26.8161 36.7811C27.0374 37.7403 27.0809 38.7164 27.2485 39.6824C27.2485 39.6824 27.2653 39.6824 27.272 39.6824C27.5078 38.7856 27.5147 37.8434 27.2921 36.9432Z" fill="#233645"/>
<path fill-rule="evenodd" clip-rule="evenodd" d="M9.54997 22.0415C9.13784 22.3536 8.79526 22.7495 8.54437 23.2033C8.40363 23.4176 8.28139 23.6436 8.179 23.8788C7.98196 24.1574 7.82405 24.462 7.70972 24.784C7.70972 24.8144 7.72983 24.8414 7.75329 24.811C7.91491 24.5691 8.12642 24.3652 8.37341 24.2132C8.64828 24.041 8.87957 23.8079 9.16114 23.6424C9.44714 23.4831 9.7558 23.3692 10.0762 23.3047C10.5522 23.1966 11.5377 23.2337 11.655 22.6292C11.8964 21.4065 10.1936 21.5821 9.54997 22.0415Z" fill="#673A22"/>
<path fill-rule="evenodd" clip-rule="evenodd" d="M7.81687 22.9433C6.31516 24.5071 6.81126 26.7903 7.61239 28.5669C7.64591 28.6412 7.73977 28.5432 7.71966 28.4858C7.04925 26.6721 6.88836 24.7131 7.84704 22.9703C7.86045 22.9466 7.84033 22.9196 7.81687 22.9433Z" fill="#673A22"/>
<path fill-rule="evenodd" clip-rule="evenodd" d="M6.07389 31.4614C4.85041 29.7727 2.97663 27.584 4.0962 25.3515C2.56433 27.1855 4.0124 30.6981 5.86607 31.7688C6.01021 31.8532 6.16105 31.5797 6.07389 31.4614Z" fill="#673A22"/>
<path fill-rule="evenodd" clip-rule="evenodd" d="M16.0663 28.2494C15.9872 28.2372 15.9063 28.254 15.8384 28.2967C15.707 28.5567 15.5413 28.7976 15.3456 29.0127C15.1488 29.2748 14.9176 29.5088 14.6584 29.7085C15.0214 29.6993 15.3666 29.5479 15.6205 29.2863C15.8216 29.0938 16.2708 28.5804 16.0831 28.273L16.0663 28.2494Z" fill="#EDB389"/>
<path fill-rule="evenodd" clip-rule="evenodd" d="M12.8248 29.1174C12.4494 29.0431 12.0672 29.1174 11.6918 29.0228C11.3388 28.8976 11.0057 28.7212 10.703 28.4993C10.6795 28.4993 10.6594 28.5263 10.6661 28.5432C10.8974 29.3606 12.1309 29.5565 12.8047 29.2525C12.8483 29.2323 12.8952 29.1309 12.8248 29.1174Z" fill="#EDB389"/>
<path fill-rule="evenodd" clip-rule="evenodd" d="M10.1466 31.323C10.1135 31.482 10.0328 31.627 9.91526 31.7384C9.89423 31.7891 9.85887 31.8325 9.81358 31.8631C9.76828 31.8937 9.71506 31.9103 9.66051 31.9106C9.47836 31.9867 9.28146 32.0201 9.08464 32.0084C8.88782 31.9967 8.69619 31.9402 8.52417 31.8431C8.02656 31.7068 7.57849 31.4289 7.23364 31.0426C7.52527 31.7688 8.63479 32.1065 9.29179 32.2653C9.89515 32.4071 10.5924 31.9377 10.1466 31.323Z" fill="#EDB389"/>
<path fill-rule="evenodd" clip-rule="evenodd" d="M9.45597 30.7893C9.41575 30.7015 9.32189 30.7589 9.28502 30.8163C9.15094 31.0359 8.84925 30.9852 8.63472 30.9413C8.51539 30.9185 8.40157 30.8726 8.29952 30.8062C8.23712 30.7706 8.18864 30.7146 8.1621 30.6474C8.11517 30.509 8.23248 30.3908 8.38668 30.3941C8.43025 30.3941 8.48724 30.3164 8.43696 30.2827C8.39256 30.2578 8.34314 30.2435 8.29242 30.2407C8.24171 30.2379 8.19104 30.2468 8.14423 30.2666C8.09741 30.2865 8.05569 30.3168 8.0222 30.3552C7.98871 30.3937 7.96434 30.4393 7.95092 30.4887C7.9066 30.6056 7.89957 30.7335 7.93082 30.8546C7.96206 30.9756 8.03002 31.0839 8.12522 31.1642C8.26125 31.2679 8.41814 31.3404 8.58491 31.3766C8.75167 31.4128 8.92427 31.4117 9.09061 31.3736C9.30849 31.323 9.57665 31.046 9.45597 30.7893Z" fill="#DB916B"/>
<path fill-rule="evenodd" clip-rule="evenodd" d="M56.3442 13.0166C56.1524 12.7166 55.8734 12.4836 55.5452 12.3494C55.217 12.2151 54.8557 12.1863 54.5106 12.2668C54.2726 12.3101 54.0543 12.4284 53.8871 12.6046C53.6769 12.8776 53.5594 13.2115 53.5519 13.557C53.5151 13.9624 53.4614 14.371 53.4346 14.7797C53.4255 15.2321 53.3875 15.6833 53.3207 16.1307C53.2263 16.5579 53.0985 16.9769 52.9385 17.3838C52.6804 18.0593 52.2279 18.5085 51.7854 19.0726C51.7397 19.1126 51.6915 19.1499 51.6413 19.184C51.4595 19.3246 51.2667 19.45 51.0647 19.559C51.0285 19.5767 50.9972 19.6033 50.9738 19.6363C50.9504 19.6694 50.9356 19.7078 50.9307 19.7481C50.9685 19.7721 50.9979 19.8076 51.0145 19.8494C51.648 21.5451 51.7647 23.3927 51.3497 25.1555H51.3731L51.7083 25.1995C51.9617 25.2052 52.2145 25.2243 52.4659 25.2569C53.257 25.2618 54.0446 25.3616 54.8123 25.5541C54.9296 25.5777 55.0436 25.6014 55.1475 25.6318C55.289 25.595 55.4261 25.5429 55.5565 25.4764C56.3743 25.2501 56.5788 23.7876 56.4984 22.7338C56.5781 21.8356 56.6049 20.9333 56.5788 20.0318C56.6213 18.7078 56.6861 17.3849 56.7732 16.0632C56.8637 15.0297 56.9844 13.9083 56.3442 13.0166Z" fill="#B8C5D6"/>
<path fill-rule="evenodd" clip-rule="evenodd" d="M57.8995 24.4969C58.1073 23.2573 57.933 21.8624 57.8995 20.6059C57.8827 19.7751 57.9699 18.8125 57.8995 17.9275C57.9005 17.9163 57.9005 17.905 57.8995 17.8938C57.9415 16.9491 57.8944 16.0025 57.7587 15.0668C57.6313 14.0873 57.4235 12.9693 56.7196 12.233C56.6398 12.1468 56.5497 12.0707 56.4514 12.0067C56.2161 12.0431 55.9788 12.0646 55.7408 12.0709C55.8858 12.2967 56.0543 12.5061 56.2436 12.6957C56.5372 12.9963 56.7655 13.3552 56.914 13.7495C57.0198 14.2658 57.0503 14.7949 57.0045 15.3201V15.3268C56.4648 15.5396 55.8782 15.1242 55.3721 15.4856C54.9363 15.7997 54.8223 16.4988 54.6112 16.9649C53.8804 18.5389 52.6737 19.5623 51.2424 20.4607C51.2022 20.4843 51.1988 20.5755 51.2591 20.5519C52.495 20.0081 53.5378 19.0988 54.2492 17.9444C54.6212 17.3736 55.1307 15.6409 55.8615 15.5801C56.3006 15.543 56.6526 15.8064 57.0012 15.489C57.0012 16.1476 56.9744 16.8062 56.9609 17.4648C56.9408 18.3632 56.9073 19.2617 56.8906 20.1669C56.8537 21.886 57.3263 24.1051 56.0324 25.5135C56.0203 25.5482 56.0211 25.5862 56.0347 25.6203C56.0482 25.6545 56.0737 25.6826 56.1062 25.6993C56.1894 25.7351 56.2789 25.7535 56.3693 25.7535C56.4597 25.7535 56.5493 25.7351 56.6324 25.6993C56.667 25.7026 56.7018 25.7026 56.7364 25.6993H56.9006C56.9916 25.7352 57.0913 25.7418 57.1862 25.7182C57.281 25.6946 57.3663 25.642 57.4302 25.5676L57.447 25.5439C57.5744 25.5439 57.6816 25.4189 57.7185 25.3007C57.7722 25.2042 57.8042 25.097 57.8124 24.9866C57.876 24.9022 57.9129 24.7468 57.8124 24.6894C57.8107 24.6647 57.8107 24.6398 57.8124 24.6151C57.8491 24.5821 57.8787 24.5418 57.8995 24.4969Z" fill="#8394A4"/>
<path fill-rule="evenodd" clip-rule="evenodd" d="M56.2702 24.8077C56.3339 24.2808 56.4077 23.7539 56.4512 23.2236C56.4881 22.7845 56.4781 22.3488 56.4781 21.9131C56.4624 21.9326 56.452 21.9559 56.4479 21.9807C56.4479 22.6832 56.4479 24.1693 55.7071 24.5543C55.5316 24.6362 55.3407 24.6788 55.1473 24.6793C54.5043 24.6557 53.8703 24.5197 53.2735 24.2774C53.1227 24.2301 51.6847 23.8755 51.6612 24.068C51.6116 24.4437 51.5297 24.8144 51.4165 25.1758C51.869 25.3582 52.4959 25.2299 52.9785 25.3075C53.6153 25.464 54.2674 25.5489 54.9227 25.5609C55.1791 25.5496 55.4294 25.478 55.6534 25.352C55.8775 25.2259 56.0692 25.0487 56.2132 24.8347L56.2702 24.8077Z" fill="#8394A4"/>
<path fill-rule="evenodd" clip-rule="evenodd" d="M55.6201 12.3209C55.5687 12.2977 55.5161 12.2774 55.4625 12.2601C55.095 12.1399 54.6952 12.1702 54.3497 12.3445C54.0899 12.4726 53.8774 12.6809 53.743 12.939C53.6063 13.4048 53.5264 13.8857 53.505 14.371C53.4312 14.8642 53.3575 15.3573 53.2569 15.847C53.1642 16.3339 53.0376 16.8135 52.8781 17.2825C52.7977 17.5155 52.7072 17.7452 52.6033 17.958C52.5301 18.2006 52.4168 18.429 52.2681 18.6335C52.6289 18.3379 52.9121 17.9575 53.0927 17.5257C53.4042 16.711 53.629 15.8652 53.7631 15.0026C53.867 14.3677 54.0446 13.6516 54.5374 13.2227C54.777 13.0131 55.0701 12.8751 55.3834 12.8244C55.6967 12.7737 56.0178 12.8122 56.3106 12.9356C56.1242 12.6856 55.8892 12.4765 55.6201 12.3209Z" fill="#C3D2E7"/>
<path fill-rule="evenodd" clip-rule="evenodd" d="M49.7338 14.1582C49.7834 14.077 49.8383 13.9992 49.898 13.9252C49.9562 13.8419 50.0275 13.7689 50.1092 13.709C50.299 13.5668 50.5212 13.4747 50.7553 13.441C50.9895 13.4074 51.2283 13.4334 51.45 13.5165C51.0377 12.9727 50.7361 12.6519 50.0556 12.9727C49.8757 13.086 49.7226 13.2375 49.6068 13.4166C49.491 13.5957 49.4154 13.7981 49.3852 14.0096C49.2248 14.648 49.1404 15.3034 49.1338 15.9619C49.2123 15.3263 49.4163 14.7131 49.7338 14.1582Z" fill="#C3D2E7"/>
<path fill-rule="evenodd" clip-rule="evenodd" d="M44.5585 38.7299C44.5559 37.9907 44.4841 37.2534 44.344 36.5278C44.2632 35.7161 44.1003 34.9148 43.8579 34.1365C42.6716 34.8891 41.3429 35.3849 39.9562 35.5922C39.7819 35.6293 39.621 35.6631 39.4265 35.6834C39.2321 35.7036 39.0075 35.7205 38.7964 35.734C38.5852 35.7475 38.3908 35.734 38.1796 35.734C37.6567 35.734 37.1338 35.7172 36.6176 35.6969H36.5136C36.2958 35.6969 36.0812 35.6766 35.8667 35.6732C35.3371 35.6564 34.7304 35.5922 34.3415 35.251C34.1857 35.2475 34.0299 35.2565 33.8756 35.2781C33.7054 35.2622 33.5378 35.226 33.3761 35.17C33.1634 35.091 32.9651 34.9768 32.7895 34.8322C32.7661 34.8153 32.2432 34.4776 32.2432 34.5283C32.2789 35.1139 32.3618 35.6956 32.4912 36.2677H32.5381C33.3135 36.6706 33.9519 37.2974 34.3717 38.0679C35.0248 39.3633 35.548 40.721 35.9337 42.121C36.1467 42.8728 36.3113 43.6378 36.4265 44.411C36.4784 44.7994 36.5019 45.1911 36.4969 45.583C36.4969 45.9207 36.3997 46.2585 36.403 46.5658C36.403 46.7347 36.403 46.9036 36.403 47.0725C36.9528 46.836 37.6667 46.9678 38.2869 47.0083L38.6221 46.9678C40.0352 46.7711 41.3676 46.1869 42.4735 45.279C43.3627 44.5387 44.0175 43.5525 44.3574 42.4419C44.6892 41.2597 44.6088 39.9458 44.5585 38.7299Z" fill="#C1063D"/>
<path fill-rule="evenodd" clip-rule="evenodd" d="M41.2333 35.2983C41.3137 36.0752 41.7327 36.906 41.9037 37.6187C42.0545 38.2537 42.1517 38.8988 42.2623 39.5439C42.4097 40.2034 42.42 40.8865 42.2925 41.5502C41.907 43.1714 40.4522 43.8233 39.0343 44.3367C38.224 44.6731 37.3691 44.8881 36.4969 44.975C36.5136 45.181 36.517 45.3837 36.5136 45.5897C36.5136 45.9275 36.4164 46.2652 36.4198 46.5726C36.4198 46.7415 36.4198 46.9103 36.4198 47.0792C36.9695 46.8428 37.6835 46.9745 38.3036 47.0151L38.6388 46.9745C40.052 46.7779 41.3843 46.1937 42.4903 45.2857C43.3794 44.5454 44.0342 43.5592 44.3741 42.4486C44.7093 41.2631 44.6222 39.9492 44.5719 38.7333C44.5693 37.9941 44.4975 37.2568 44.3574 36.5311C44.2766 35.7194 44.1137 34.9182 43.8713 34.1398C43.0599 34.6671 42.169 35.0584 41.2333 35.2983Z" fill="#C1063D"/>
<path fill-rule="evenodd" clip-rule="evenodd" d="M36.7816 39.0204L36.4464 38.7603L36.5 38.784C37.3615 39.2366 38.119 39.7972 39.0576 40.0674C38.3185 39.3882 37.4921 38.8122 36.6006 38.355C37.2872 38.7087 38.0305 38.9374 38.7962 39.0305C38.8498 39.0305 38.8934 38.9528 38.8498 38.9157C38.1794 38.3381 37.1 38.1085 36.2955 37.7437C35.6855 37.4633 35.1223 37.0074 34.519 36.7C34.4953 36.2037 34.4051 35.7129 34.2508 35.2409C34.1402 35.2409 33.9156 35.2781 33.8452 35.2747C33.675 35.2589 33.5074 35.2226 33.3458 35.1666C33.133 35.0876 32.9347 34.9734 32.7592 34.8289C32.7592 34.8289 32.4742 34.6431 32.32 34.562C32.2866 34.5587 32.2529 34.5587 32.2195 34.562C32.2621 35.1373 32.353 35.7079 32.491 36.2677H32.5379C33.2727 36.6544 33.8866 37.239 34.3111 37.9565C35.0151 38.3212 35.6955 38.7164 36.386 39.1454C36.8922 39.4595 37.3682 39.7939 37.8442 40.1586C38.3902 40.4998 38.8837 40.9197 39.309 41.4049C39.309 41.4049 39.3325 41.4049 39.3291 41.4049C38.9537 40.3545 37.5894 39.6892 36.7816 39.0204Z" fill="#C1063D"/>
<path fill-rule="evenodd" clip-rule="evenodd" d="M41.9137 37.8146C41.7562 37.8146 41.6254 38.1524 41.7997 38.1524C41.974 38.1524 42.088 37.8146 41.9137 37.8146Z" fill="#C1063D"/>
<path fill-rule="evenodd" clip-rule="evenodd" d="M19.2036 21.7442C19.2036 21.7442 19.1768 21.771 19.2036 21.771C19.2304 21.771 19.217 21.7442 19.2036 21.7442Z" fill="#EDB389"/>
<path fill-rule="evenodd" clip-rule="evenodd" d="M15.5098 19.5927H15.4796C15.3154 19.559 15.379 19.8866 15.4796 19.738L15.5064 19.7008C15.5366 19.667 15.5601 19.6029 15.5098 19.5927Z" fill="#DCA47A"/>
</g>
<defs>
<clipPath id="clip0_0_5426">
<rect width="55" height="36.6667" fill="white" transform="translate(3 12)"/>
</clipPath>
</defs>
</svg>
