<svg width="40" height="40" viewBox="0 0 40 40" fill="none" xmlns="http://www.w3.org/2000/svg">
<g clip-path="url(#clip0_0_2651)">
<path d="M32.4313 35.9453L30.1313 31.7839L27.1274 33.1846L29.2078 38.8073C29.6871 39.8353 30.9162 40.2898 31.9527 39.8064C32.9865 39.3243 33.4338 38.0954 32.9517 37.0616L32.4313 35.9453Z" fill="#BFBFBF"/>
<path d="M10.104 31.894L7.56751 35.9452L7.04704 37.0614C6.56493 38.0952 7.01227 39.3241 8.0461 39.8062C9.06813 40.2831 10.3046 39.8501 10.7909 38.8072L12.681 33.0957L10.104 31.894Z" fill="#BFBFBF"/>
<path d="M7.56787 35.9449C8.50654 37.0403 9.58732 38.0101 10.7818 38.8259C10.7849 38.8195 10.7883 38.8134 10.7913 38.807L13.3165 33.3917L9.57255 31.6459L7.56787 35.9449Z" fill="#ACACAC"/>
<path d="M32.4322 35.945L30.4275 31.6459L26.6836 33.3917L29.2088 38.807C29.2118 38.8135 29.2152 38.8195 29.2183 38.8259C30.4127 38.0102 31.4935 37.0404 32.4322 35.945Z" fill="#ACACAC"/>
<path d="M8.41013 10.0404L7.71091 9.60278L6.36279 10.9508L6.7974 11.6533L10.5619 15.4178L12.1747 13.805L8.41013 10.0404Z" fill="#ACACAC"/>
<path d="M3.96924 8.82654L5.58186 7.21392L8.40799 10.04L6.79536 11.6527L3.96924 8.82654Z" fill="#9C9C9C"/>
<path d="M2.67085 6.07384C1.08624 7.74415 1.11171 10.3824 2.74952 12.0202L3.44554 12.7162C3.6364 12.907 3.94585 12.907 4.13679 12.7162L9.3132 7.5397C9.50406 7.34884 9.50406 7.03931 9.3132 6.84845L8.61718 6.15244C6.97929 4.51463 4.34117 4.48924 2.67085 6.07384Z" fill="#EB5569"/>
<path d="M33.8169 10.6714L32.5051 9.35962L31.4752 10.1549L27.8247 13.8052L29.4375 15.4181L33.0881 11.7677L33.8169 10.6714Z" fill="#ACACAC"/>
<path d="M21.6095 5.48251V2.02258H18.3901V5.48251H18.2891V13.6716H21.7105V5.48251H21.6095Z" fill="#ACACAC"/>
<path d="M18.2891 2.47913H21.7105V5.48272H18.2891V2.47913Z" fill="#9C9C9C"/>
<path d="M24.8622 2.05687C24.8622 0.920937 23.9412 0 22.8053 0H16.9646C15.8286 0 14.9077 0.920937 14.9077 2.05687C14.9077 3.19289 15.8287 4.11375 16.9646 4.11375H22.8053C23.9412 4.11375 24.8622 3.19289 24.8622 2.05687Z" fill="#EB5569"/>
<path d="M31.4707 10.1571L34.4109 7.21692L36.0235 8.82955L33.0833 11.7697L31.4707 10.1571Z" fill="#9C9C9C"/>
<path d="M23.0348 0H20.7534C21.8894 0 22.8103 0.920937 22.8103 2.05687C22.8103 3.19289 21.8894 4.11375 20.7534 4.11375H23.0348C24.1708 4.11375 25.0917 3.19289 25.0917 2.05687C25.0917 0.920937 24.1708 0 23.0348 0Z" fill="#E53950"/>
<path d="M37.1663 5.91393C35.496 4.32932 32.8578 4.35471 31.22 5.99252L30.524 6.68854C30.3331 6.8794 30.3331 7.18893 30.524 7.37979L35.7005 12.5563C35.8913 12.7471 36.2008 12.7471 36.3916 12.5563L37.0877 11.8602C38.7255 10.2224 38.7509 7.58424 37.1663 5.91393Z" fill="#EB5569"/>
<path d="M37.248 5.99254C36.9684 5.71301 36.6594 5.4816 36.3313 5.2959C37.2516 6.92176 37.0201 9.02293 35.6347 10.4083L34.9387 11.1043C34.7478 11.2952 34.4385 11.2952 34.2476 11.1045L35.8606 12.7175C36.0515 12.9084 36.3609 12.9084 36.5519 12.7175L37.2479 12.0215C38.9128 10.3567 38.9128 7.65738 37.248 5.99254Z" fill="#E53950"/>
<path d="M8.77926 5.99094C7.11441 4.3261 4.41512 4.3261 2.75027 5.99094C2.47082 6.27039 2.23934 6.57953 2.05371 6.90758C3.67957 5.98735 5.78074 6.21883 7.16605 7.60414L7.86207 8.30016C8.05293 8.49101 8.05293 8.80055 7.86207 8.9914L4.13738 12.7161C4.13746 12.716 4.13746 12.716 4.13754 12.716L9.47527 7.3782C9.66613 7.18734 9.66613 6.87781 9.47527 6.68696L8.77926 5.99094Z" fill="#E53950"/>
<path d="M19.9992 39.3867C29.0384 39.3867 36.3661 32.059 36.3661 23.0198C36.3661 13.9807 29.0384 6.65295 19.9992 6.65295C10.96 6.65295 3.63232 13.9807 3.63232 23.0198C3.63232 32.059 10.96 39.3867 19.9992 39.3867Z" fill="#EB5569"/>
<path d="M20.0007 6.65295C19.6229 6.65295 19.2484 6.66694 18.877 6.69209C27.3918 7.26959 34.1201 14.3584 34.1201 23.0198C34.1201 31.6812 27.3919 38.77 18.877 39.3476C19.2484 39.3727 19.6229 39.3867 20.0007 39.3867C29.0398 39.3867 36.3676 32.0591 36.3676 23.0198C36.3676 13.9806 29.0398 6.65295 20.0007 6.65295Z" fill="#E53950"/>
<path d="M20.0006 36.5362C27.4651 36.5362 33.5163 30.485 33.5163 23.0205C33.5163 15.5559 27.4651 9.50476 20.0006 9.50476C12.5361 9.50476 6.48486 15.5559 6.48486 23.0205C6.48486 30.485 12.5361 36.5362 20.0006 36.5362Z" fill="#E8EDF2"/>
<path d="M19.9989 9.50476C19.5758 9.50476 19.1574 9.52531 18.7441 9.56359C25.6105 10.1987 31.0051 15.991 31.0051 23.0205C31.0051 30.05 25.6106 35.8423 18.7441 36.4775C19.1574 36.5157 19.5758 36.5362 19.9989 36.5362C27.4515 36.5362 33.5146 30.4731 33.5146 23.0205C33.5146 15.5679 27.4515 9.50476 19.9989 9.50476Z" fill="#D9E7EC"/>
<path d="M20.0601 22.6458C19.7268 22.6458 19.4565 22.3755 19.4565 22.0422V15.7086C19.4565 15.3752 19.7268 15.105 20.0601 15.105C20.3935 15.105 20.6637 15.3752 20.6637 15.7086V22.0422C20.6638 22.3755 20.3935 22.6458 20.0601 22.6458Z" fill="#838383"/>
<path d="M24.8545 23.6233H20.5167C20.1833 23.6233 19.9131 23.3531 19.9131 23.0197C19.9131 22.6864 20.1833 22.4161 20.5167 22.4161H24.8545C25.1878 22.4161 25.4581 22.6864 25.4581 23.0197C25.4581 23.3531 25.1878 23.6233 24.8545 23.6233Z" fill="#9C9C9C"/>
<path d="M20.0616 25.1781C21.2538 25.1781 22.2203 24.2116 22.2203 23.0193C22.2203 21.8271 21.2538 20.8606 20.0616 20.8606C18.8693 20.8606 17.9028 21.8271 17.9028 23.0193C17.9028 24.2116 18.8693 25.1781 20.0616 25.1781Z" fill="#FBC56D"/>
<path d="M6.499 23.6234H9.62033C9.95369 23.6234 10.2239 23.3532 10.2239 23.0199C10.2239 22.6865 9.95369 22.4163 9.62033 22.4163H6.499C6.49018 22.6165 6.48486 22.8176 6.48486 23.0199C6.48486 23.2222 6.49018 23.4233 6.499 23.6234Z" fill="#ACACAC"/>
<path d="M19.9996 32.7969C19.6662 32.7969 19.396 33.0671 19.396 33.4005V36.5218C19.5962 36.5307 19.7973 36.536 19.9996 36.536C20.2019 36.536 20.403 36.5307 20.6032 36.5218V33.4005C20.6033 33.0671 20.333 32.7969 19.9996 32.7969Z" fill="#ACACAC"/>
<path d="M19.9996 9.50476C19.7973 9.50476 19.5962 9.51007 19.396 9.5189V12.6403C19.396 12.9737 19.6662 13.2439 19.9996 13.2439C20.333 13.2439 20.6032 12.9737 20.6032 12.6403V9.5189C20.403 9.51007 20.2019 9.50476 19.9996 9.50476Z" fill="#ACACAC"/>
<path d="M20.0603 20.8606C19.6917 20.8606 19.3411 20.9589 19.0337 21.1299C19.7019 21.5017 20.1658 22.2179 20.1658 23.0193C20.1658 23.8208 19.702 24.5368 19.0337 24.9086C19.3411 25.0797 19.6917 25.1779 20.0603 25.1779C21.2305 25.1779 22.2191 24.1893 22.2191 23.0192C22.2191 21.8491 21.2305 20.8606 20.0603 20.8606Z" fill="#E9B665"/>
<path d="M33.5018 22.4161H30.3805C30.0471 22.4161 29.7769 22.6864 29.7769 23.0197C29.7769 23.3532 30.0471 23.6233 30.3805 23.6233H33.5018C33.5106 23.4232 33.5159 23.2221 33.5159 23.0197C33.5159 22.8175 33.5106 22.6164 33.5018 22.4161Z" fill="#ACACAC"/>
<path d="M33.5116 22.7136C33.5092 22.6142 33.5058 22.5151 33.5014 22.4162V22.4161H30.9922C31.001 22.6163 31.006 22.8175 31.006 23.0198C31.006 23.2222 31.001 23.4232 30.9922 23.6234H33.5014C33.5058 23.5245 33.5092 23.4254 33.5116 23.326C33.5139 23.2246 33.5155 23.1229 33.5156 23.021C33.5156 23.0206 33.5156 23.0202 33.5156 23.0198C33.5156 22.9174 33.514 22.8154 33.5116 22.7136Z" fill="#9C9C9C"/>
<path d="M19.9993 37.1391C12.2139 37.1391 5.87988 30.8052 5.87988 23.0198C5.87988 15.2344 12.2138 8.90051 19.9993 8.90051C27.7847 8.90051 34.1186 15.2343 34.1186 23.0198C34.1186 30.8053 27.7847 37.1391 19.9993 37.1391ZM19.9993 10.1077C12.8795 10.1077 7.08715 15.9 7.08715 23.0198C7.08715 30.1395 12.8795 35.9318 19.9993 35.9318C27.119 35.9318 32.9114 30.1395 32.9114 23.0198C32.9114 15.9 27.119 10.1077 19.9993 10.1077Z" fill="#F58A97"/>
</g>
<defs>
<clipPath id="clip0_0_2651">
<rect width="40" height="40" fill="white"/>
</clipPath>
</defs>
</svg>
