<svg width="60" height="60" viewBox="0 0 60 60" fill="none" xmlns="http://www.w3.org/2000/svg">
<rect width="60" height="60" rx="5" fill="#FFE4EC"/>
<path d="M43.8207 57.8812C43.3757 57.9247 42.9265 57.9604 42.4689 57.9802L16.625 58H16.5495H16.4151L15.9617 57.9564C15.8582 57.9564 15.7589 57.9176 15.6856 57.8485C15.6124 57.7794 15.5713 57.6857 15.5713 57.588C15.5713 57.4903 15.6124 57.3966 15.6856 57.3275C15.7589 57.2584 15.8582 57.2196 15.9617 57.2196L16.4193 57.18H16.5495H16.6334H42.4647C42.9223 57.1998 43.3715 57.2355 43.8207 57.279C43.8964 57.2907 43.9653 57.3273 44.015 57.3825C44.0647 57.4376 44.092 57.5077 44.092 57.5801C44.092 57.6525 44.0647 57.7225 44.015 57.7777C43.9653 57.8329 43.8964 57.8695 43.8207 57.8812Z" fill="#C6C6C6"/>
<path d="M39.1263 8.18549C39.1263 8.18549 39.1263 8.34395 39.0969 8.61332C39.0213 9.77005 38.7485 13.0105 38.1187 14.8565C37.9466 15.3715 37.3925 16.5876 36.7501 17.9662C35.7972 20.0142 34.6511 22.4188 34.2019 23.4606C34.0549 23.8013 32.6695 23.1556 32.3043 23.0922C31.3681 22.9219 31.2548 21.3532 31.5612 20.0459C31.6578 19.5844 31.8352 19.1412 32.086 18.7347C32.1112 18.6951 32.1406 18.6594 32.17 18.6198C32.1993 18.5802 32.2035 18.5683 32.2245 18.5445C32.7325 17.8394 33.5721 16.9283 34.3236 16.1004C34.8824 15.53 35.3763 14.906 35.7972 14.2385C36.217 13.3947 37.5688 8.34395 37.5688 8.34395C38.1985 7.69428 39.1263 8.18549 39.1263 8.18549Z" fill="#F5A784"/>
<path d="M39.3032 7.63879C39.257 7.8329 39.2192 8.01116 39.1856 8.15774C39.1311 8.42711 39.1059 8.60538 39.1059 8.60538C38.6399 9.06886 37.7247 8.60538 37.7247 8.60538C37.6606 8.52731 37.6044 8.44375 37.5568 8.35581C37.3027 7.9474 37.2021 7.47006 37.2713 7.00101C37.3385 6.64052 37.4014 5.81259 37.4014 5.81259H37.5735C37.7499 5.81259 37.8044 6.33154 37.817 6.56922C37.817 6.61279 37.817 6.65241 37.817 6.66825C37.8238 6.6248 37.8427 6.5838 37.8716 6.54941C37.9273 6.48527 37.9991 6.43533 38.0805 6.40418C38.1619 6.37304 38.2503 6.36168 38.3376 6.37115C38.5517 6.37115 38.7574 6.37115 38.9757 6.37115C39.0741 6.36917 39.1717 6.38812 39.2612 6.42661C39.2926 6.44001 39.3211 6.45882 39.3452 6.48207C39.6222 6.75144 39.3788 7.34565 39.3032 7.63879Z" fill="#F5A784"/>
<path d="M39.303 7.6388C39.2568 7.83291 39.219 8.01117 39.1855 8.15774C39.1553 8.10967 39.1201 8.06456 39.0805 8.02305C38.8964 7.84714 38.6784 7.70597 38.4382 7.6071C38.1653 7.47242 37.4264 7.07628 37.6573 6.67617C37.6946 6.62059 37.7509 6.57867 37.8169 6.55734H37.8798C38.2266 6.51661 38.5757 6.49676 38.9252 6.49791L39.2694 6.45038C39.2999 6.46518 39.3282 6.48384 39.3534 6.50584C39.6221 6.75144 39.3786 7.34565 39.303 7.6388Z" fill="#E0855C"/>
<path d="M32.8925 15.102C33.0298 14.3562 33.222 13.6202 33.4676 12.8995C33.4994 12.8224 33.5095 12.7389 33.4969 12.657C33.4843 12.5752 33.4495 12.4978 33.3958 12.4324C33.3421 12.367 33.2714 12.3158 33.1906 12.2838C33.1097 12.2518 33.0215 12.2401 32.9345 12.2498C32.7554 12.2809 32.5807 12.3314 32.4139 12.4004C32.4139 12.4004 32.8337 11.2595 32.2418 10.8832C31.6498 10.5068 30.7724 11.2278 30.4324 11.7705C30.4975 11.6545 30.5156 11.5201 30.4831 11.3924C30.4506 11.2648 30.3699 11.1527 30.256 11.0773C29.8362 10.8237 27.9554 12.7767 28.3291 14.3811C28.7027 15.9854 28.8329 15.5378 28.8329 15.5378C28.8329 15.5378 32.7749 15.312 32.8925 15.102Z" fill="#484848"/>
<path d="M28.7489 14.8446C28.7073 14.7906 28.6526 14.7466 28.5895 14.7163C28.5264 14.686 28.4566 14.6702 28.3858 14.6702C28.315 14.6702 28.2452 14.686 28.1821 14.7163C28.119 14.7466 28.0643 14.7906 28.0227 14.8446C27.6574 15.2407 28.2746 16.033 28.7489 16.0805C28.7766 15.669 28.7766 15.2561 28.7489 14.8446Z" fill="#E0855C"/>
<path d="M35.5205 19.622C34.9625 20.8625 34.5213 22.147 34.2023 23.4606C34.1729 23.5874 34.1477 23.7062 34.1309 23.8251C33.9882 24.6173 33.5726 28.5193 33.5054 29.1333C33.5054 29.1848 33.5054 29.2126 33.5054 29.2126C30.2141 30.0682 26.7884 29.2126 26.7884 29.2126C26.7884 29.2126 26.7884 29.1531 26.7884 29.0422C26.7086 28.2777 26.3895 25.1204 26.1964 22.391C26.0957 21.0006 26.0285 19.7171 26.0453 18.9209C26.0453 18.6277 26.7716 18.6594 27.267 18.5921C27.8616 18.5199 28.4601 18.4802 29.0596 18.4732H29.2443L29.2863 18.0177L29.3157 17.7126L29.3996 16.8966L29.5634 16.9243C29.6691 16.9393 29.7756 16.9485 29.8824 16.952C30.0123 16.962 30.1429 16.962 30.2728 16.952H30.4534L30.701 16.9124C30.8354 16.8847 30.9613 16.849 31.0831 16.8134C31.1203 16.8039 31.1568 16.792 31.1922 16.7777H31.2258L31.3098 16.746C31.4657 16.6856 31.6171 16.6155 31.7632 16.5361C31.8429 16.4925 31.9101 16.4489 31.9647 16.4133C32.0193 16.3776 31.9941 16.4133 31.9983 16.3895C32.0253 16.3749 32.0506 16.3576 32.0738 16.338C32.0923 16.3283 32.1092 16.3163 32.1242 16.3024C32.1242 16.3578 32.1242 16.3816 32.1032 16.4093C32.0696 16.6668 32.0319 16.9996 32.0151 17.3323C32.0151 17.5581 31.9899 17.7839 31.9815 17.982C31.9815 18.3187 31.9815 18.5643 31.9815 18.5643C32.0598 18.5603 32.1383 18.5603 32.2166 18.5643H32.246C32.5869 18.5794 32.9263 18.6165 33.2619 18.6752C34.0372 18.806 34.7829 19.0619 35.466 19.4319C35.4948 19.4543 35.5155 19.4847 35.5253 19.5187C35.5351 19.5528 35.5334 19.5889 35.5205 19.622Z" fill="#F5A784"/>
<path d="M32.1162 16.2707C32.0592 16.5543 31.9361 16.8225 31.7559 17.0558C31.5757 17.2891 31.3428 17.4817 31.074 17.6196C30.8053 17.7576 30.5074 17.8375 30.2019 17.8536C29.8964 17.8697 29.591 17.8216 29.3076 17.7126L29.3916 16.8966C29.8667 16.9821 30.3558 16.9705 30.8258 16.8625C31.2958 16.7545 31.7358 16.5527 32.1162 16.2707Z" fill="#E0855C"/>
<path d="M28.8326 13.6562C28.5891 13.8939 28.5682 14.4247 28.5472 15.011C28.4884 16.7936 29.0509 17.3482 30.0165 17.4472C30.9821 17.5463 31.9896 17.1937 32.1954 15.5418C32.3003 14.7178 32.4095 13.9572 32.0904 13.6007C31.6076 13.0659 29.5715 12.9273 28.8326 13.6562Z" fill="#F5A784"/>
<path d="M32.0617 15.3041C32.0617 15.3041 32.3556 14.5673 32.8216 14.9595C33.2876 15.3516 32.6453 16.4608 31.9316 16.3816C31.9316 16.3816 31.835 15.5576 32.0617 15.3041Z" fill="#F5A784"/>
<path d="M32.6032 15.2922C32.4963 15.3289 32.4 15.3886 32.3219 15.4665C32.2363 15.5358 32.1663 15.6207 32.1162 15.7161C32.1162 15.7478 32.1456 15.7636 32.1666 15.7478C32.1876 15.7319 32.2757 15.6289 32.3345 15.5735C32.3702 15.6172 32.4162 15.6524 32.4689 15.6765C32.4786 15.6787 32.4888 15.6781 32.4981 15.6748C32.5075 15.6716 32.5156 15.6657 32.5215 15.6581C32.5273 15.6505 32.5306 15.6413 32.531 15.6319C32.5313 15.6225 32.5287 15.6132 32.5234 15.6052C32.4957 15.5646 32.4584 15.5307 32.4143 15.5061C32.4856 15.4507 32.5738 15.4071 32.6368 15.3477C32.6406 15.3456 32.644 15.3428 32.6467 15.3395C32.6495 15.3362 32.6515 15.3324 32.6526 15.3284C32.6538 15.3243 32.6541 15.3201 32.6536 15.3159C32.653 15.3118 32.6516 15.3078 32.6494 15.3041C32.6472 15.3005 32.6442 15.2973 32.6407 15.2947C32.6372 15.2921 32.6332 15.2902 32.6289 15.2891C32.6246 15.288 32.6201 15.2878 32.6157 15.2883C32.6113 15.2888 32.6071 15.2901 32.6032 15.2922Z" fill="#E0855C"/>
<path d="M29.3787 14.9713C29.3787 14.9713 29.215 15.0268 29.2402 14.7535C29.2654 14.4801 29.3787 14.5435 29.3787 14.5435C29.3787 14.5435 29.4921 14.5435 29.4753 14.7574C29.4585 14.9713 29.3787 14.9713 29.3787 14.9713Z" fill="#484848"/>
<path d="M31.0289 14.9714C31.0289 14.9714 30.8651 15.0268 30.8903 14.7535C30.9155 14.4802 31.0289 14.5435 31.0289 14.5435C31.0289 14.5435 31.1422 14.5435 31.1254 14.7575C31.1086 14.9714 31.0289 14.9714 31.0289 14.9714Z" fill="#484848"/>
<path d="M30.1177 15.6963C30.0337 15.6963 29.8448 15.7319 29.807 15.6448C29.8222 15.4561 29.8617 15.2698 29.9245 15.0902C30.0056 14.8487 30.0701 14.6026 30.1177 14.3533C30.1177 14.3533 30.0925 14.3335 30.0883 14.3533C29.9217 14.7899 29.7952 15.2392 29.7104 15.6963C29.7083 15.7018 29.7077 15.7077 29.7087 15.7136C29.7096 15.7194 29.7121 15.7249 29.7158 15.7296C29.7195 15.7343 29.7245 15.7381 29.7301 15.7405C29.7358 15.743 29.742 15.7441 29.7482 15.7438C29.87 15.7438 29.9875 15.7676 30.1093 15.7676C30.147 15.7636 30.1596 15.7002 30.1177 15.6963Z" fill="#E0855C"/>
<path d="M29.5546 14.1434C29.437 14.084 29.2187 14.0721 29.1348 14.187C29.1348 14.2068 29.1348 14.2385 29.1684 14.2385C29.2019 14.2385 29.2775 14.2068 29.3321 14.2028C29.395 14.1998 29.458 14.2092 29.5168 14.2306C29.5714 14.2464 29.6092 14.1672 29.5546 14.1434Z" fill="#484848"/>
<path d="M31.2762 14.2781C31.2091 14.1196 30.9194 14.1038 30.7934 14.2028C30.7881 14.2083 30.7844 14.2149 30.7825 14.2221C30.7807 14.2293 30.7808 14.2368 30.7829 14.244C30.785 14.2511 30.789 14.2576 30.7945 14.2629C30.8001 14.2682 30.8069 14.272 30.8144 14.2741C30.8858 14.2979 30.9656 14.2741 31.0369 14.2741C31.0993 14.2834 31.1601 14.3007 31.2175 14.3256C31.2468 14.3415 31.2888 14.3058 31.2762 14.2781Z" fill="#484848"/>
<path d="M29.7061 16.2469C30.0602 16.2907 30.4201 16.2327 30.7388 16.0805C30.693 16.1873 30.6231 16.2834 30.5339 16.3621C30.4447 16.4408 30.3384 16.5002 30.2224 16.5361C29.8614 16.6312 29.7061 16.2469 29.7061 16.2469Z" fill="white"/>
<path d="M29.0173 23.0922C28.6521 23.1556 26.9938 23.3339 26.7041 23.0922C26.4883 22.884 26.3135 22.6412 26.1878 22.3752C25.5148 21.0385 24.926 19.6655 24.4245 18.2633C23.8662 16.7659 23.3834 15.3714 23.2029 14.8406C22.5731 12.9946 22.3045 9.74627 22.2205 8.59351C22.2205 8.32413 22.1953 8.16963 22.1953 8.16963C22.1953 8.16963 23.1105 7.67842 23.7696 8.32413C23.7696 8.32413 25.1382 13.3789 25.5412 14.2226C25.8797 14.7725 26.2778 15.2876 26.7293 15.7597C27.506 16.6391 28.4632 17.6691 29.0509 18.4574L29.1559 18.6079C29.1852 18.6436 29.2104 18.6832 29.2356 18.7188C29.609 19.3511 29.8311 20.0529 29.8863 20.7748C29.9955 21.8879 29.7814 22.9536 29.0173 23.0922Z" fill="#F5A784"/>
<path d="M23.7699 8.33997C23.7204 8.4269 23.6643 8.5103 23.6019 8.58953C23.6019 8.58953 22.6909 9.0649 22.2207 8.60934C22.2207 8.60934 22.2207 8.48654 22.1662 8.29639C22.1116 8.10624 22.0864 7.90025 22.0234 7.6388C21.973 7.45261 21.6414 6.69203 21.8135 6.55734C21.8534 6.52781 21.9015 6.50991 21.9521 6.50584L22.5146 6.4068C22.8379 6.35134 23.3794 6.26815 23.5054 6.65241C23.5054 6.43057 23.5054 5.90767 23.7531 5.79279H23.9252C23.9252 5.79279 23.9924 6.60487 24.0595 6.9812C24.1264 7.45194 24.0245 7.93026 23.7699 8.33997Z" fill="#F5A784"/>
<path d="M26.1504 29.9335C26.1504 29.9335 24.4123 34.3544 24.3452 42.7249C24.3452 43.3904 22.9682 47.9975 23.5055 54.4347L25.55 54.7992C25.55 54.7992 27.5274 48.0014 27.6197 43.3627C27.6197 43.3627 30.1386 35.1309 30.3107 31.3438C30.4829 27.5567 27.8045 26.3366 26.1504 29.9335Z" fill="#F5A784"/>
<path d="M25.8232 56.7482C25.8253 56.7679 25.8253 56.7879 25.8232 56.8076C25.756 57.6989 24.9836 57.5603 23.8417 57.5761C22.9307 57.5761 22.4437 57.0968 22.4983 56.5779C22.516 56.4213 22.5752 56.2714 22.6704 56.1421C22.9765 55.6877 23.1875 55.182 23.2917 54.6526C24.4168 53.381 25.5629 54.7992 25.5629 54.7992C25.7348 55.4362 25.8223 56.0909 25.8232 56.7482Z" fill="#484848"/>
<path d="M34.0677 29.9335C34.0677 29.9335 35.8057 34.3544 35.8729 42.7249C35.8729 43.3904 37.2499 47.9975 36.7126 54.4347L34.668 54.7992C34.668 54.7992 32.6907 48.0014 32.5984 43.3627C32.5984 43.3627 30.0795 35.1309 29.9073 31.3438C29.7352 27.5567 32.4052 26.3366 34.0677 29.9335Z" fill="#F5A784"/>
<path d="M36.373 57.5761C35.206 57.5761 34.4083 57.7029 34.3873 56.7482C34.3852 56.7205 34.3852 56.6927 34.3873 56.665C34.3859 56.0347 34.4749 55.407 34.6518 54.7992C34.6518 54.7992 35.7979 53.381 36.923 54.6526C37.0273 55.182 37.2382 55.6877 37.5443 56.1421C37.5976 56.2176 37.6412 56.2987 37.6745 56.3837C37.9054 56.97 37.4016 57.6078 36.373 57.5761Z" fill="#484848"/>
<path d="M36.751 17.9662C35.798 20.0142 34.6519 22.4227 34.2027 23.4606C34.1733 23.5874 34.1481 23.7062 34.1313 23.8251C33.9886 24.6173 33.573 28.5193 33.5058 29.1333C32.3681 29.4621 30.0549 29.8504 26.7888 29.0422C26.709 28.2777 26.3899 25.1204 26.1968 22.391C25.5238 21.0543 24.9351 19.6813 24.4336 18.2791C25.2228 17.8117 26.3228 16.9758 26.7384 15.7755C27.515 16.6549 28.4722 17.6849 29.06 18.4732H29.1397C29.1397 18.5168 29.1397 18.5683 29.1649 18.6238C29.2725 19.3807 29.5198 20.1141 29.8954 20.7906C29.9498 20.8851 30.0266 20.9665 30.1198 21.0284C30.213 21.0902 30.3201 21.1309 30.4328 21.1472C30.8526 21.1472 31.2472 20.648 31.5705 20.0459C31.8079 19.5843 32.0113 19.1078 32.1792 18.6198C32.1896 18.5954 32.198 18.5702 32.2044 18.5445H32.2338C32.7417 17.8394 33.5814 16.9283 34.3328 16.1003C34.7317 16.6391 35.6888 17.7166 36.751 17.9662Z" fill="#C1063D"/>
<path d="M35.9655 38.9576C34.8623 39.4982 33.6189 39.7317 32.3803 39.631C31.944 39.5938 31.5178 39.4852 31.1209 39.3101L30.1175 34.0019L29.1393 39.3101C27.0151 40.0351 24.1016 38.712 24.1016 38.712C25.0503 30.1276 26.7842 28.8402 26.7842 28.8402C29.6347 29.7156 33.56 28.8679 33.56 28.8679C35.5373 31.4151 35.9655 38.9576 35.9655 38.9576Z" fill="#484848"/>
<path d="M22.1993 8.27656L22.1658 8.29637C22.1322 8.12603 22.086 7.90023 22.023 7.63877C21.9726 7.45259 21.6452 6.69596 21.8131 6.55731C21.853 6.52778 21.9011 6.50988 21.9517 6.50581L22.5142 6.40678C22.7525 6.34943 23.0022 6.34943 23.2405 6.40678C23.353 6.45617 23.4474 6.53603 23.5117 6.6362C23.576 6.73637 23.6073 6.85232 23.6015 6.9693C23.5973 7.69423 22.4009 8.17752 22.1993 8.27656Z" fill="#E0855C"/>
<path d="M22.2129 7.05647C22.2302 7.1037 22.2633 7.14434 22.3072 7.17222C22.3511 7.20009 22.4035 7.2137 22.4564 7.21097C22.6414 7.22689 22.8278 7.21889 23.0105 7.1872C23.18 7.16755 23.3372 7.0934 23.4555 6.97725C23.5149 6.89723 23.5511 6.80401 23.5607 6.70677C23.5703 6.60953 23.5528 6.51161 23.5101 6.42265C23.447 6.28261 23.3492 6.15885 23.2251 6.06169C23.1009 5.96453 22.954 5.89678 22.7964 5.8641C22.5361 5.80864 21.877 5.83241 21.7679 6.13743C21.7175 6.28797 21.8686 6.4385 21.9442 6.55734C22.0198 6.67618 22.1247 6.90198 22.2129 7.05647Z" fill="#F5A784"/>
<path d="M38.9294 7.05647C38.9122 7.1037 38.8791 7.14434 38.8351 7.17222C38.7912 7.20009 38.7388 7.2137 38.686 7.21097C38.5009 7.22689 38.3145 7.21889 38.1318 7.1872C37.9623 7.16755 37.8051 7.0934 37.6868 6.97725C37.6275 6.89723 37.5912 6.80401 37.5817 6.70677C37.5721 6.60953 37.5895 6.51161 37.6322 6.42265C37.696 6.28297 37.7939 6.15953 37.9179 6.06244C38.042 5.96536 38.1886 5.89738 38.3459 5.8641C38.6062 5.80864 39.2695 5.83241 39.3744 6.13743C39.429 6.28797 39.2737 6.4385 39.1981 6.55734C39.1226 6.67618 39.0176 6.90198 38.9294 7.05647Z" fill="#F5A784"/>
<path d="M32.38 39.631C31.9436 39.5938 31.5175 39.4852 31.1205 39.3102L30.1172 34.0019C30.1172 34.0019 31.385 35.7013 32.38 39.631Z" fill="#291B30"/>
<path d="M25.8183 56.8156C25.7512 57.7069 24.9787 57.5682 23.8368 57.5841C22.9258 57.5841 22.4388 57.1048 22.4934 56.5858C22.709 56.7802 22.9757 56.917 23.2659 56.982C23.6084 57.0467 23.9591 57.0641 24.307 57.0334C24.8162 56.9997 25.3217 56.9269 25.8183 56.8156Z" fill="#291B30"/>
<path d="M36.373 57.5761C35.206 57.5761 34.4083 57.7029 34.3873 56.7482C34.3852 56.7205 34.3852 56.6927 34.3873 56.665C34.7064 56.885 35.0792 57.0253 35.4711 57.0731C35.8629 57.1209 36.2613 57.0745 36.6291 56.9383C36.9987 56.7913 37.3493 56.6052 37.6745 56.3837C37.9054 56.97 37.4016 57.6078 36.373 57.5761Z" fill="#291B30"/>
<path d="M25.21 55.2785C24.8951 54.9101 24.1227 54.9339 23.7196 55.1399C23.696 55.1555 23.6788 55.1783 23.6709 55.2045C23.6629 55.2307 23.6648 55.2587 23.6761 55.2837C23.6874 55.3088 23.7075 55.3294 23.733 55.3422C23.7585 55.3549 23.7879 55.359 23.8162 55.3538C24.0281 55.2928 24.25 55.2687 24.4711 55.2825C24.6816 55.3328 24.8878 55.3977 25.0882 55.4766C25.1149 55.4831 25.143 55.4812 25.1684 55.4712C25.1938 55.4612 25.215 55.4436 25.2288 55.4212C25.2426 55.3987 25.2483 55.3726 25.2449 55.3469C25.2415 55.3211 25.2292 55.2971 25.21 55.2785Z" fill="#C1063D"/>
<path d="M25.0293 55.7143C24.7817 55.6431 24.5241 55.607 24.2652 55.6073C24.034 55.5814 23.7996 55.6128 23.5851 55.6984C23.5726 55.7063 23.5626 55.7174 23.5565 55.7305C23.5503 55.7435 23.5482 55.7579 23.5504 55.772C23.5526 55.7862 23.559 55.7994 23.5689 55.8102C23.5788 55.821 23.5917 55.829 23.6061 55.8331C23.8239 55.8669 24.0448 55.8789 24.2652 55.8688C24.5087 55.8688 24.748 55.9361 24.9915 55.9559C25.1469 55.9678 25.1553 55.7618 25.0293 55.7143Z" fill="#C1063D"/>
<path d="M36.5907 55.1755C36.4354 54.7199 35.495 54.9616 35.1634 55.0567C35.029 55.0923 35.0458 55.3062 35.1969 55.2944C35.4278 55.2944 35.6545 55.2191 35.8854 55.2032C36.0054 55.1939 36.1262 55.2047 36.2423 55.2349C36.3189 55.2736 36.4033 55.2965 36.49 55.3023C36.506 55.3015 36.5216 55.2975 36.5358 55.2904C36.5499 55.2833 36.5623 55.2733 36.5719 55.2612C36.5815 55.2491 36.5882 55.2352 36.5914 55.2203C36.5947 55.2055 36.5944 55.1902 36.5907 55.1755Z" fill="#C1063D"/>
<path d="M36.4819 55.5558C36.2468 55.3498 35.7262 55.4211 35.4366 55.4726C35.2896 55.5003 34.9496 55.635 35.1385 55.8173C35.1477 55.8251 35.1597 55.8294 35.1721 55.8294C35.1845 55.8294 35.1964 55.8251 35.2057 55.8173C35.3274 55.7103 35.6255 55.7301 35.785 55.7261C35.9992 55.7577 36.2173 55.7577 36.4315 55.7261C36.4484 55.7199 36.4635 55.71 36.4757 55.6972C36.4878 55.6845 36.4967 55.6693 36.5016 55.6528C36.5065 55.6363 36.5072 55.619 36.5038 55.6021C36.5004 55.5853 36.4929 55.5694 36.4819 55.5558Z" fill="#C1063D"/>
<path d="M28.7368 24.9778C28.7349 24.9989 28.7349 25.0201 28.7368 25.0412C28.7368 25.061 28.7704 25.061 28.762 25.0412L28.7368 24.9778Z" fill="#E95480"/>
<path d="M33.1069 20.8778C32.9105 20.2766 32.7797 19.658 32.7165 19.0318C32.7165 19.015 32.7094 18.9988 32.6968 18.9869C32.6842 18.9751 32.6671 18.9684 32.6493 18.9684C32.6315 18.9684 32.6144 18.9751 32.6018 18.9869C32.5892 18.9988 32.5822 19.015 32.5822 19.0318C32.4352 20.1726 32.9432 21.571 33.5855 22.5336C33.5939 22.552 33.6096 22.5665 33.6293 22.574C33.649 22.5814 33.671 22.5811 33.6905 22.5732C33.71 22.5654 33.7253 22.5505 33.7332 22.5319C33.7411 22.5134 33.7408 22.4926 33.7324 22.4742C33.5771 21.9275 33.2874 21.4165 33.1069 20.8778Z" fill="#E95480"/>
<path d="M28.4798 18.8139C28.1356 19.3289 27.8417 19.8676 27.5016 20.3984C27.1616 20.9293 26.7586 21.3967 26.4479 21.9236C26.445 21.9305 26.4445 21.9381 26.4465 21.9453C26.4484 21.9525 26.4527 21.959 26.4587 21.9638C26.4647 21.9686 26.4722 21.9715 26.48 21.9721C26.4879 21.9727 26.4957 21.971 26.5025 21.9672C27.4133 21.0764 28.1269 20.0233 28.6016 18.8693C28.6267 18.7862 28.5176 18.7584 28.4798 18.8139Z" fill="#E95480"/>
</svg>
