<svg width="36" height="43" viewBox="0 0 36 43" fill="none" xmlns="http://www.w3.org/2000/svg">
<g clip-path="url(#clip0_0_5814)">
<path d="M6.65183 27.4753C7.13507 35.1526 13.215 34.5653 18.97 34.7056C20.6671 34.7451 22.3818 34.6329 24.0768 34.5647C25.2268 34.5161 26.4796 34.1985 27.1551 33.3018C27.4923 32.7868 27.7059 32.2055 27.7802 31.6005C28.3066 28.7292 28.1833 25.7556 28.2255 22.85C28.275 19.3284 28.3057 15.8097 28.3515 12.2887C28.3587 11.7659 28.3874 3.60805 28.635 3.61131C21.9684 3.56142 15.268 2.24224 8.61054 2.50771C5.42758 2.63499 6.24469 5.27178 6.20116 7.55527C6.15857 10.6945 6.17387 13.8335 6.24704 16.9725C6.30887 19.6958 6.41411 22.4249 6.56276 25.1598C6.60137 25.8918 6.60688 26.6809 6.65183 27.4753Z" fill="#F7A32D"/>
<path d="M8.41922 9.7213C8.41922 9.7213 11.5309 11.2594 18.4822 11.02C25.4334 10.7805 26.4594 9.73731 26.4594 9.73731C26.4594 9.73731 26.7061 18.7773 26.1079 22.39C26.1079 22.39 19.2739 25.4474 8.66177 22.1828C8.27897 18.0396 8.19792 13.8755 8.41922 9.7213Z" fill="#D88121"/>
<g style="mix-blend-mode:multiply">
<path d="M27.1552 33.302C27.4923 32.787 27.7059 32.2057 27.7802 31.6007C28.3067 28.7293 28.1833 25.7558 28.2255 22.8502C28.2751 19.3286 28.3058 15.8099 28.3515 12.2889C28.3587 11.7661 28.3875 3.60822 28.6351 3.61149C27.1169 3.60433 25.5976 3.5191 24.0823 3.41091C23.7489 3.6232 23.4825 3.91991 23.3121 4.26858C23.1417 4.61725 23.074 5.00444 23.1162 5.3878C23.152 6.99962 23.6441 8.61644 23.8436 10.2145C24.0698 12.1879 24.1121 14.1769 23.97 16.1576C23.8082 18.4329 23.4003 20.6857 22.753 22.8792C22.1295 24.9679 21.2451 27.0665 19.6308 28.572C17.8672 30.227 15.3809 31.0269 12.9246 31.1367C11.0103 31.1861 9.09911 30.9573 7.25529 30.4578C8.99321 34.9964 14.1068 34.5898 18.9825 34.7114C20.6796 34.7509 22.3944 34.6386 24.0893 34.5704C25.2306 34.5157 26.4814 34.2096 27.1552 33.302Z" fill="#E8E8E8"/>
</g>
<path d="M19.9094 32.9643C20.5176 32.5003 21.221 32.1487 21.7542 31.6028C22.4705 30.8767 22.891 29.8002 23.8568 29.424C24.1711 29.3221 24.5048 29.2883 24.8342 29.3251C25.1636 29.3618 25.4806 29.4682 25.7626 29.6366C26.325 29.9761 26.8142 30.4174 27.2032 30.9361C27.5181 31.379 27.8903 31.7812 28.3108 32.133C28.9811 32.6282 29.8662 32.8043 30.5142 33.329C30.7369 33.4972 30.9067 33.7219 31.0048 33.9779C31.0536 34.1062 31.0706 34.2437 31.0543 34.3795C31.038 34.5152 30.9889 34.6454 30.9109 34.7594C30.7315 34.9594 30.4968 35.1058 30.2343 35.1816C29.143 35.6185 28.006 35.9406 26.8431 36.1423C24.6988 36.4795 22.4998 36.2489 20.4805 35.4749C20.0404 35.3064 19.0859 35.0588 18.8879 34.5968C18.6328 34.0205 19.5036 33.2712 19.9094 32.9643Z" fill="white"/>
<path d="M32.4783 33.3726C32.5885 33.3253 32.7107 33.3102 32.8297 33.3291C32.9488 33.3481 33.0595 33.4003 33.1481 33.4792C33.2368 33.5582 33.2996 33.6605 33.3287 33.7736C33.3578 33.8866 33.352 34.0054 33.312 34.1152C32.8548 35.4431 32.1842 36.6914 30.9465 37.3432C29.9616 37.8638 28.7935 37.8942 27.6775 37.913L22.1819 38.0279C21.1662 38.0466 20.1148 38.0594 19.1954 37.6463C18.0769 37.1477 17.0413 35.8468 16.5861 34.604C16.551 34.5078 16.5421 34.4046 16.5602 34.3041C16.5783 34.2037 16.6227 34.1094 16.6893 34.0302C16.7559 33.9511 16.8424 33.8898 16.9405 33.8521C17.0386 33.8144 17.1451 33.8016 17.2498 33.815C19.9855 34.1487 22.9318 34.7598 25.6755 34.5931C27.1395 34.5071 28.2996 34.5226 29.7334 34.225C30.6652 33.9943 31.5818 33.7096 32.4783 33.3726Z" fill="#9F4A4A"/>
<g style="mix-blend-mode:multiply">
<path d="M32.4782 33.3726C32.2094 33.4764 31.9174 33.5799 31.628 33.6756C31.5267 34.0551 31.3575 34.4147 31.128 34.738C30.4312 35.6496 29.4426 36.3141 28.3152 36.6287C27.1893 36.939 26.025 37.1003 24.8541 37.1082C22.5942 37.19 20.3311 37.112 18.083 36.8748C18.4052 37.1917 18.7815 37.4526 19.1953 37.6463C20.1147 38.0594 21.1661 38.0466 22.1818 38.0279L27.6629 37.9189C28.7789 37.9001 29.9459 37.8624 30.9319 37.3491C32.1696 36.6973 32.8402 35.4491 33.2974 34.1212C33.3369 34.0125 33.343 33.8951 33.315 33.7832C33.2869 33.6713 33.2259 33.5696 33.1392 33.4904C33.0526 33.4113 32.9441 33.358 32.8268 33.3371C32.7095 33.3162 32.5884 33.3286 32.4782 33.3726Z" fill="#E8E8E8"/>
</g>
<path d="M28.6354 3.61139C28.6337 5.70219 24.7863 7.38405 18.4628 7.37876C12.1393 7.37347 6.13487 5.68366 6.13419 3.57832C6.13351 1.47299 12.1003 0.217196 18.4225 0.215212C24.7448 0.213228 28.6353 1.50969 28.6354 3.61139Z" fill="#FFB966"/>
</g>
<defs>
<clipPath id="clip0_0_5814">
<rect width="36" height="43" fill="white"/>
</clipPath>
</defs>
</svg>
