<svg width="40" height="40" viewBox="0 0 40 40" fill="none" xmlns="http://www.w3.org/2000/svg">
<g clip-path="url(#clip0_0_2612)">
<path d="M26.6016 27.441L24.1055 27.6135V39.4015L24.1061 39.4014C24.1135 39.5599 24.2135 39.7103 24.4101 39.8238C24.8613 40.0844 25.6495 40.0517 26.1706 39.7509C26.4385 39.5962 26.5826 39.4007 26.599 39.2118L26.6016 39.2117V27.441Z" fill="url(#paint0_linear_0_2612)"/>
<path d="M38.4438 20.652L35.9478 20.8244V32.6125L35.9484 32.6124C35.9558 32.7709 36.0558 32.9213 36.2524 33.0347C36.7037 33.2953 37.4918 33.2626 38.0129 32.9618C38.2809 32.8071 38.425 32.6116 38.4413 32.4227L38.4439 32.4225V20.652H38.4438Z" fill="url(#paint1_linear_0_2612)"/>
<path d="M15.0853 1.338L15.0863 1.33652L13.0574 0.170895L13.0563 0.172458C12.7541 -0.0284014 12.3485 -0.0708232 11.9895 0.136442L1.40521 6.21371C0.650137 6.64965 0.185059 7.45519 0.185059 8.32707V25.276C0.185059 25.671 0.402168 25.9903 0.70373 26.159L0.703418 26.1594L2.81701 27.3739L15.0856 1.33816C15.0855 1.33808 15.0854 1.33808 15.0853 1.338Z" fill="url(#paint2_linear_0_2612)"/>
<path d="M2.3208 26.5036V9.55458C2.3208 8.68278 2.78588 7.87716 3.54096 7.44122L14.1253 1.36396C14.8003 0.974269 15.6441 1.46138 15.6441 2.24083V19.1897C15.6441 20.0615 15.1789 20.8672 14.4239 21.3031L3.83963 27.3804C3.16463 27.7701 2.3208 27.283 2.3208 26.5036Z" fill="url(#paint3_linear_0_2612)"/>
<path d="M38.2128 24.7561L16.0965 11.9873C15.6561 11.7329 15.1133 11.7329 14.6729 11.9873L2.54949 18.953C2.39605 19.0416 2.31934 19.1966 2.31934 19.3517V24.62C2.31934 24.775 2.39605 24.93 2.54949 25.0186L24.6658 37.7875C25.1063 38.0418 25.649 38.0418 26.0896 37.7875L38.2128 30.8218C38.3686 30.7319 38.4449 30.5735 38.4426 30.4163H38.443V25.1608H38.4426C38.4446 25.0038 38.3682 24.8459 38.2128 24.7561Z" fill="url(#paint4_linear_0_2612)"/>
<path d="M24.6658 32.5212L2.54949 19.7524C2.24262 19.5752 2.24262 19.1322 2.54949 18.955L14.6728 11.9893C15.1132 11.735 15.656 11.735 16.0964 11.9893L38.2128 24.7581C38.5196 24.9353 38.5196 25.3783 38.2128 25.5555L26.0896 32.5212C25.649 32.7756 25.1063 32.7756 24.6658 32.5212Z" fill="#D7D1EB"/>
<path d="M38.4426 19.8927L2.31934 14.0836V19.3519C2.31934 19.5069 2.39605 19.662 2.54949 19.7506L24.6658 32.5193C25.1063 32.7736 25.649 32.7736 26.0896 32.5193L38.2128 25.5536C38.3686 25.4638 38.4449 25.3054 38.4426 25.1482H38.443V19.8927H38.4426Z" fill="url(#paint5_linear_0_2612)"/>
<path d="M24.6658 27.2508L2.54949 14.482C2.24262 14.3048 2.24262 13.8618 2.54949 13.6846L14.6728 6.71892C15.1132 6.46462 15.656 6.46462 16.0964 6.71892L38.2128 19.4878C38.5196 19.6649 38.5196 20.1079 38.2128 20.2851L26.0895 27.2508C25.649 27.5051 25.1063 27.5051 24.6658 27.2508Z" fill="#D7D1EB"/>
<path d="M17.4935 9.44744C17.4263 9.38924 17.3487 9.34447 17.2648 9.31541L12.8875 6.78815C12.6788 6.60322 12.3631 6.54619 12.0878 6.7051L6.02924 10.203C5.41682 10.5566 5.03955 11.2099 5.03955 11.9171C5.03955 12.1928 5.1958 12.4135 5.40979 12.5251L9.95049 15.1467C10.1561 15.2871 10.4349 15.3181 10.6811 15.1759L16.7397 11.6781C17.3521 11.3245 17.7294 10.671 17.7294 9.96392C17.7294 9.75025 17.6351 9.5701 17.4935 9.44744Z" fill="url(#paint6_linear_0_2612)"/>
<path d="M10.6411 12.867L16.6996 9.36911C17.1574 9.10489 17.7295 9.4352 17.7295 9.96372C17.7295 10.6709 17.3522 11.3243 16.7398 11.6779L10.6812 15.1757C10.2235 15.44 9.65137 15.1097 9.65137 14.5811C9.65137 13.874 10.0286 13.2206 10.6411 12.867Z" fill="url(#paint7_linear_0_2612)"/>
<path d="M7.94385 20.0933L25.2238 36.0421L39.8139 22.838C39.8139 20.3552 38.4893 18.061 36.3391 16.8196L23.7777 9.56726C22.5256 8.84444 20.9831 8.84444 19.7311 9.56726L11.4131 14.336C9.33869 15.5337 8.03307 17.7117 7.94385 20.0933Z" fill="#E9E5F6"/>
<path d="M21.0327 23.901L10.4061 17.7658C9.65351 17.3313 8.77172 17.5681 8.29297 18.1689L11.4498 28.0872L11.4483 28.0878L25.225 36.0418V31.1624C25.2251 28.1668 23.6269 25.3988 21.0327 23.901Z" fill="url(#paint8_linear_0_2612)"/>
<path d="M29.6333 23.9651L35.9195 20.9083C37.6826 19.9657 39.8142 21.2432 39.8142 23.2425V27.6526L25.2241 36.0426V31.3221C25.2241 28.2442 26.919 25.4163 29.6333 23.9651Z" fill="url(#paint9_linear_0_2612)"/>
<path d="M23.7791 9.56768C22.527 8.84479 20.9845 8.84479 19.7325 9.56768L11.4145 14.3364C9.91734 15.2008 8.82109 16.576 8.29297 18.1695L12.3803 18.9063C12.9802 17.8667 13.8491 16.9824 14.9246 16.3614L23.2426 11.5927C24.4832 10.8764 26.0087 10.871 27.2546 11.5742L23.7791 9.56768Z" fill="#F2EDFF"/>
<path d="M11.4486 28.0872V22.3792C11.4486 21.1383 11.7795 19.9445 12.379 18.9057L10.4048 17.7658C9.65223 17.3313 8.77043 17.5681 8.29168 18.1689C8.26402 18.2523 7.93848 19.2088 7.93848 20.3542V26.0621L11.4486 28.0872Z" fill="#E9E5F6"/>
</g>
<defs>
<linearGradient id="paint0_linear_0_2612" x1="24.2399" y1="33.7204" x2="26.5688" y2="33.7204" gradientUnits="userSpaceOnUse">
<stop stop-color="#8B451C"/>
<stop offset="1" stop-color="#BF942A"/>
</linearGradient>
<linearGradient id="paint1_linear_0_2612" x1="35.9477" y1="26.9314" x2="38.4438" y2="26.9314" gradientUnits="userSpaceOnUse">
<stop stop-color="#8B451C"/>
<stop offset="1" stop-color="#BF942A"/>
</linearGradient>
<linearGradient id="paint2_linear_0_2612" x1="5.03162" y1="11.4083" x2="6.12428" y2="9.5159" gradientUnits="userSpaceOnUse">
<stop stop-color="#252336"/>
<stop offset="1" stop-color="#594A8E"/>
</linearGradient>
<linearGradient id="paint3_linear_0_2612" x1="8.98244" y1="19.5941" x2="8.98244" y2="8.06364" gradientUnits="userSpaceOnUse">
<stop stop-color="#594A8E"/>
<stop offset="1" stop-color="#7662BD"/>
</linearGradient>
<linearGradient id="paint4_linear_0_2612" x1="24.2399" y1="24.8874" x2="26.5687" y2="24.8874" gradientUnits="userSpaceOnUse">
<stop stop-color="#8B451C"/>
<stop offset="1" stop-color="#BF942A"/>
</linearGradient>
<linearGradient id="paint5_linear_0_2612" x1="20.8786" y1="23.3968" x2="23.0333" y2="23.3968" gradientUnits="userSpaceOnUse">
<stop stop-color="#C5BAEB"/>
<stop offset="1" stop-color="#E9E5F6"/>
</linearGradient>
<linearGradient id="paint6_linear_0_2612" x1="8.79291" y1="15.4292" x2="10.3538" y2="12.7257" gradientUnits="userSpaceOnUse">
<stop stop-color="#C5BAEB"/>
<stop offset="1" stop-color="#E9E5F6"/>
</linearGradient>
<linearGradient id="paint7_linear_0_2612" x1="9.65137" y1="12.2725" x2="17.7295" y2="12.2725" gradientUnits="userSpaceOnUse">
<stop stop-color="#C5BAEB"/>
<stop offset="1" stop-color="#E9E5F6"/>
</linearGradient>
<linearGradient id="paint8_linear_0_2612" x1="11.0059" y1="22.9722" x2="24.5426" y2="30.7876" gradientUnits="userSpaceOnUse">
<stop stop-color="#D7D1EB"/>
<stop offset="1" stop-color="#E7E3F3"/>
</linearGradient>
<linearGradient id="paint9_linear_0_2612" x1="25.8391" y1="30.9359" x2="39.2441" y2="23.1965" gradientUnits="userSpaceOnUse">
<stop stop-color="#D7D1EB"/>
<stop offset="1" stop-color="#E7E3F3"/>
</linearGradient>
<clipPath id="clip0_0_2612">
<rect width="40" height="40" fill="white"/>
</clipPath>
</defs>
</svg>
