<svg width="26" height="76" viewBox="0 0 26 76" fill="none" xmlns="http://www.w3.org/2000/svg">
<path d="M22 18.41H3.85C2.82892 18.41 1.84965 18.8156 1.12764 19.5376C0.405624 20.2596 0 21.2389 0 22.26L0 71.26C-1.49446e-06 71.8386 0.114138 72.4116 0.335884 72.9461C0.55763 73.4806 0.882626 73.9661 1.29226 74.3748C1.7019 74.7835 2.18813 75.1074 2.72312 75.3279C3.25811 75.5484 3.83134 75.6613 4.41 75.66H21.41C22.577 75.66 23.6961 75.1964 24.5213 74.3712C25.3464 73.5461 25.81 72.4269 25.81 71.26V22.26C25.8127 21.245 25.4134 20.2702 24.6994 19.5488C23.9855 18.8273 23.015 18.4179 22 18.41Z" fill="#4292A6"/>
<path d="M22 13.18H3.54004V18.41H22V13.18Z" fill="#333333"/>
<path d="M15.9301 6.87H9.62011C8.62289 6.87 7.66652 7.26614 6.96139 7.97127C6.25625 8.67641 5.86011 9.63278 5.86011 10.63V13.18H19.6901V10.63C19.6901 9.63278 19.294 8.67641 18.5888 7.97127C17.8837 7.26614 16.9273 6.87 15.9301 6.87Z" fill="#474747"/>
<path d="M12.79 -9.6982e-06C12.5554 -0.00132766 12.3229 0.0437406 12.1058 0.132604C11.8886 0.221467 11.6912 0.352372 11.5249 0.517791C11.3585 0.683211 11.2265 0.879882 11.1364 1.0965C11.0464 1.31311 11 1.54539 11 1.77999V6.86999H14.59V1.77999C14.59 1.54454 14.5433 1.31144 14.4526 1.09416C14.3619 0.876889 14.229 0.679768 14.0616 0.514216C13.8942 0.348664 13.6956 0.217969 13.4773 0.129701C13.259 0.0414328 13.0254 -0.00265515 12.79 -9.6982e-06Z" fill="#474747"/>
<path d="M14.57 5.22998H10.98V6.86998H14.57V5.22998Z" fill="#2E2E2E"/>
<path d="M21.0501 71.76C20.8457 71.7613 20.6431 71.7222 20.4539 71.6449C20.2647 71.5676 20.0926 71.4536 19.9476 71.3095C19.8026 71.1655 19.6876 70.9942 19.609 70.8054C19.5305 70.6167 19.4901 70.4144 19.4901 70.21V47.79C19.4729 47.5753 19.5003 47.3593 19.5706 47.1558C19.6409 46.9522 19.7527 46.7654 19.8987 46.6071C20.0448 46.4488 20.2221 46.3225 20.4194 46.2361C20.6167 46.1498 20.8297 46.1052 21.0451 46.1052C21.2605 46.1052 21.4735 46.1498 21.6708 46.2361C21.8681 46.3225 22.0454 46.4488 22.1915 46.6071C22.3375 46.7654 22.4493 46.9522 22.5196 47.1558C22.5899 47.3593 22.6173 47.5753 22.6001 47.79V70.21C22.6014 70.4139 22.5623 70.616 22.4848 70.8047C22.4074 70.9933 22.2933 71.1647 22.1491 71.3089C22.0049 71.4531 21.8335 71.5673 21.6448 71.6447C21.4562 71.7221 21.254 71.7613 21.0501 71.76Z" fill="white"/>
<path d="M25.85 27.05H0V41.47H25.85V27.05Z" fill="#163138"/>
<path d="M12.6001 29.21H7.32007C4.69672 29.21 2.57007 31.3366 2.57007 33.96V34.05C2.57007 36.6733 4.69672 38.8 7.32007 38.8H12.6001C15.2234 38.8 17.3501 36.6733 17.3501 34.05V33.96C17.3501 31.3366 15.2234 29.21 12.6001 29.21Z" fill="#295C69"/>
<path d="M5.00008 14.13C4.75608 14.13 4.52207 14.2269 4.34954 14.3995C4.17701 14.572 4.08008 14.806 4.08008 15.05V18.41H5.93008V15.05C5.93009 14.9283 5.90596 14.8079 5.8591 14.6956C5.81224 14.5833 5.74358 14.4815 5.65709 14.3959C5.5706 14.3103 5.468 14.2428 5.35522 14.1971C5.24244 14.1515 5.12173 14.1287 5.00008 14.13Z" fill="#212121"/>
<path d="M8.11995 14.13C7.87595 14.13 7.64195 14.2269 7.46941 14.3995C7.29688 14.572 7.19995 14.806 7.19995 15.05V18.41H8.99995V15.05C9.00018 14.8128 8.90876 14.5846 8.74478 14.4132C8.58081 14.2418 8.35695 14.1403 8.11995 14.13Z" fill="#212121"/>
<path d="M11.2301 14.13C10.9861 14.13 10.7521 14.2269 10.5795 14.3994C10.407 14.572 10.3101 14.806 10.3101 15.05V18.41H12.1701V15.05C12.1701 14.9275 12.1456 14.8062 12.0982 14.6932C12.0507 14.5803 11.9811 14.478 11.8936 14.3923C11.806 14.3066 11.7022 14.2392 11.5883 14.1942C11.4743 14.1491 11.3525 14.1273 11.2301 14.13Z" fill="#212121"/>
<path d="M14.3399 14.13C14.0959 14.13 13.8619 14.2269 13.6894 14.3994C13.5169 14.572 13.4199 14.806 13.4199 15.05V18.41H15.2799V15.05C15.28 14.9275 15.2555 14.8062 15.208 14.6932C15.1605 14.5803 15.091 14.478 15.0034 14.3923C14.9159 14.3066 14.8121 14.2392 14.6981 14.1942C14.5842 14.1491 14.4624 14.1273 14.3399 14.13Z" fill="#212121"/>
<path d="M17.45 14.13C17.3292 14.13 17.2096 14.1538 17.098 14.2C16.9863 14.2462 16.8849 14.314 16.7995 14.3994C16.7141 14.4849 16.6463 14.5863 16.6001 14.6979C16.5538 14.8095 16.53 14.9292 16.53 15.05V18.41H18.39V15.05C18.3901 14.9275 18.3656 14.8062 18.3181 14.6932C18.2707 14.5803 18.2011 14.478 18.1135 14.3923C18.026 14.3066 17.9222 14.2392 17.8082 14.1942C17.6943 14.1491 17.5725 14.1273 17.45 14.13Z" fill="#212121"/>
<path d="M20.5599 14.13C20.4391 14.13 20.3194 14.1538 20.2078 14.2C20.0962 14.2463 19.9948 14.314 19.9094 14.3995C19.8239 14.4849 19.7562 14.5863 19.7099 14.6979C19.6637 14.8095 19.6399 14.9292 19.6399 15.05V18.41H21.4899V15.05C21.4899 14.9283 21.4658 14.8079 21.4189 14.6956C21.3721 14.5833 21.3034 14.4815 21.2169 14.3959C21.1304 14.3103 21.0278 14.2428 20.915 14.1971C20.8023 14.1515 20.6815 14.1287 20.5599 14.13Z" fill="#212121"/>
</svg>
