<svg width="50" height="64" viewBox="0 0 50 64" fill="none" xmlns="http://www.w3.org/2000/svg">
<g clip-path="url(#clip0_0_1492)">
<path d="M36.0886 50.2904C36.0134 46.086 35.0137 44.6355 34.0807 43.3428C33.7475 42.8778 31.3633 42.4021 28.0269 42.1376L28.0634 41.9243C27.0121 41.9243 25.9845 41.9243 24.9999 41.967C24.0153 41.9328 22.9877 41.9179 21.9343 41.9243L21.9709 42.1376C18.6365 42.4021 16.2524 42.8778 15.9192 43.3428C14.9926 44.6355 13.9844 46.086 13.9113 50.2904C13.8747 52.4235 14.0661 59.4799 14.2209 63.1574C20.9089 64.9343 24.2561 63.3494 24.2561 63.3494C24.4066 60.7086 24.1013 54.4841 24.9999 54.4841C25.8986 54.4841 25.5933 60.7086 25.7438 63.3494C25.7438 63.3494 29.091 64.9343 35.779 63.1574C35.9338 59.4799 36.1251 52.4256 36.0886 50.2904Z" fill="#C1063D"/>
<path d="M48.4242 5.62498C47.5901 4.71414 45.9261 5.58019 44.7437 7.11817C44.3611 10.1408 42.5574 12.6643 43.5807 16.0175C43.6455 16.209 43.7267 16.3946 43.8236 16.5722L43.7376 16.6596C42.7014 17.6942 39.9153 15.9685 37.1614 17.0372C34.7235 17.9843 30.697 19.5969 31.5719 23.7288C32.0255 25.8619 32.4469 27.9161 36.3294 28.091C39.7261 28.2446 47.9835 22.1183 48.6392 20.2881C48.6392 20.2582 48.6585 20.2262 48.6714 20.1963C51.3823 17.6643 49.2347 6.50596 48.4242 5.62498Z" fill="#FFB99A"/>
<path d="M39.2898 4.57344C39.2898 4.57344 39.8122 1.76625 40.7087 1.30763C41.6051 0.849011 42.3511 -0.552449 43.4454 0.241072C44.5396 1.03459 45.7779 0.667696 46.4981 2.16088C47.2183 3.65406 48.8629 5.16431 48.4565 6.02609C48.0502 6.88787 46.4271 8.50478 45.2039 8.09309C43.9807 7.68139 44.3053 6.67029 43.3357 6.66176C42.3662 6.65323 40.756 6.74282 40.756 6.74282C40.756 6.74282 38.7244 6.10502 39.2898 4.57344Z" fill="#FFB99A"/>
<path d="M46.2014 5.26458C45.707 4.15322 44.1763 3.6946 43.0713 4.10416C43.063 4.1076 43.0551 4.11189 43.0477 4.11696C42.9464 4.11533 42.8455 4.12973 42.7488 4.15962C42.6975 4.17576 42.6526 4.20772 42.6207 4.25087C42.5889 4.29402 42.5717 4.34612 42.5717 4.3996C42.5717 4.45308 42.5889 4.50518 42.6207 4.54833C42.6526 4.59148 42.6975 4.62344 42.7488 4.63958C42.8582 4.66615 42.9697 4.68328 43.0821 4.69077C43.1036 4.69077 43.1981 4.73983 43.2132 4.72064C43.2132 4.7441 43.2304 4.76756 43.2282 4.7633C43.267 4.9189 43.2743 5.08057 43.2497 5.23898C43.2373 5.29946 43.2418 5.36215 43.2626 5.4203C43.2592 5.43141 43.2592 5.44331 43.2626 5.45443L43.2755 5.47149C43.2282 5.49105 43.1846 5.51846 43.1466 5.55255C43.0865 5.61437 43.021 5.67077 42.9509 5.72107C42.9228 5.73712 42.8933 5.75068 42.8628 5.7616C42.7438 5.66541 42.6103 5.58839 42.4672 5.53335C42.2703 5.51484 42.0796 5.45445 41.9083 5.3563C41.5557 5.08113 41.5708 4.54999 41.5149 4.15322C41.4934 4.00391 41.244 4.01031 41.2182 4.15322C41.1085 4.72703 40.9301 5.28804 41.3601 5.78293C41.4803 5.91655 41.6266 6.02466 41.79 6.10076C41.5751 6.11143 41.3751 6.11356 41.1838 6.10076C40.2787 6.0581 40.2572 5.15579 40.1433 4.46679C40.1346 4.4456 40.1197 4.42746 40.1005 4.4147C40.0814 4.40193 40.0589 4.39511 40.0358 4.39511C40.0127 4.39511 39.9902 4.40193 39.971 4.4147C39.9519 4.42746 39.937 4.4456 39.9283 4.46679C39.7886 5.32004 39.6058 6.42927 40.7108 6.7407C41.4181 6.94121 42.5145 7.00734 42.8413 6.24155C42.9899 6.23367 43.1358 6.19822 43.2712 6.13703C43.3738 6.08217 43.4616 6.0038 43.5274 5.90844C43.5932 5.81308 43.6351 5.70349 43.6496 5.58881L43.6776 5.57815C43.9076 5.44376 43.914 5.15153 43.8925 4.91688C43.8776 4.74022 43.8272 4.56832 43.7442 4.41133C44.1518 4.42052 44.5524 4.51808 44.918 4.69717C45.3479 4.89342 45.6446 5.21978 46.0703 5.40537C46.0896 5.41112 46.1101 5.41138 46.1295 5.40612C46.149 5.40086 46.1665 5.39029 46.1802 5.37562C46.1938 5.36094 46.2031 5.34275 46.2068 5.32312C46.2106 5.30349 46.2087 5.2832 46.2014 5.26458Z" fill="#FF9261"/>
<path d="M36.5597 20.5846C35.5471 17.0479 28.4635 17.6174 25.0002 17.7732C21.5347 17.6174 14.4533 17.0479 13.4408 20.5846C12.3121 24.5287 14.492 30.2455 15.4788 33.7908C16.3623 36.9584 16.0076 42.2294 15.9238 43.3173C15.9238 43.3173 21.8508 43.9295 25.0002 43.9295C28.1497 43.9295 34.0767 43.3173 34.0767 43.3173C33.9907 42.2294 33.6467 36.9584 34.5195 33.7908C35.5084 30.237 37.6883 24.5202 36.5597 20.5846Z" fill="#FFB99A"/>
<path d="M12.8386 17.0372C10.0847 15.9706 7.29855 17.6942 6.26235 16.6596L6.17636 16.5722C6.27272 16.3946 6.35328 16.209 6.41714 16.0175C7.44259 12.6707 5.63891 10.1408 5.2541 7.11817C4.07386 5.58019 2.40992 4.71414 1.5758 5.62498C0.741674 6.53582 -1.38233 17.6643 1.32642 20.1963L1.35866 20.288C2.01435 22.1161 10.2717 28.2446 13.6684 28.091C17.538 27.9161 17.968 25.8704 18.4259 23.7288C19.303 19.5969 15.2765 17.9843 12.8386 17.0372Z" fill="#FFB99A"/>
<path d="M10.7104 4.57344C10.7104 4.57344 10.188 1.76625 9.29154 1.30763C8.39508 0.849011 7.64695 -0.552449 6.5527 0.241072C5.45846 1.03459 4.22232 0.667696 3.50214 2.16088C2.78196 3.65406 1.13736 5.16431 1.54153 6.02609C1.94569 6.88787 3.57309 8.50478 4.79632 8.09309C6.01956 7.68139 5.69494 6.67029 6.6645 6.66176C7.63406 6.65323 9.24425 6.74282 9.24425 6.74282C9.24425 6.74282 11.2758 6.10502 10.7104 4.57344Z" fill="#FFB99A"/>
<path d="M3.7989 5.26458C4.2912 4.15322 5.82401 3.6946 6.929 4.10416C6.93732 4.1076 6.94524 4.11189 6.95266 4.11696C7.05392 4.11533 7.15479 4.12973 7.25147 4.15962C7.30286 4.17576 7.34774 4.20772 7.37959 4.25087C7.41144 4.29402 7.42861 4.34612 7.42861 4.3996C7.42861 4.45308 7.41144 4.50518 7.37959 4.54833C7.34774 4.59148 7.30286 4.62344 7.25147 4.63958C7.1421 4.66615 7.03061 4.68328 6.91826 4.69077C6.89461 4.69077 6.80217 4.73983 6.78712 4.72064C6.78712 4.7441 6.76992 4.76756 6.77207 4.7633C6.73221 4.91873 6.72489 5.08063 6.75057 5.23898C6.76186 5.29953 6.75742 5.36193 6.73768 5.4203C6.74115 5.43141 6.74115 5.44331 6.73768 5.45443L6.72263 5.47149C6.77091 5.49043 6.81534 5.5179 6.85376 5.55255C6.91257 5.61484 6.97737 5.67129 7.04725 5.72107C7.07631 5.73674 7.10649 5.75028 7.13753 5.7616C7.2562 5.66496 7.38976 5.5879 7.5331 5.53335C7.72993 5.51419 7.92043 5.45385 8.09205 5.3563C8.44461 5.08113 8.42956 4.54999 8.48546 4.15322C8.50695 4.00391 8.75633 4.01031 8.78213 4.15322C8.89177 4.72703 9.0702 5.28804 8.64024 5.78293C8.51998 5.91655 8.37373 6.02466 8.21028 6.10076C8.42526 6.11143 8.62519 6.11356 8.81653 6.10076C9.72159 6.0581 9.74309 5.15579 9.85703 4.46679C9.86574 4.4456 9.88062 4.42746 9.89976 4.4147C9.91891 4.40193 9.94145 4.39511 9.96452 4.39511C9.98758 4.39511 10.0101 4.40193 10.0293 4.4147C10.0484 4.42746 10.0633 4.4456 10.072 4.46679C10.2139 5.32004 10.3966 6.42927 9.29163 6.7407C8.5822 6.94121 7.48581 7.00734 7.16119 6.24155C7.01254 6.23367 6.8667 6.19822 6.73123 6.13703C6.6287 6.08217 6.54087 6.0038 6.47505 5.90844C6.40924 5.81308 6.36734 5.70349 6.35286 5.58881L6.32491 5.57815C6.09488 5.44376 6.08843 5.15153 6.12068 4.91688C6.13587 4.74055 6.18553 4.56883 6.26687 4.41133C5.85993 4.42028 5.45995 4.51786 5.09523 4.69717C4.66527 4.89342 4.3686 5.21978 3.94294 5.40537C3.923 5.41483 3.90061 5.41796 3.87881 5.41434C3.85701 5.41072 3.83687 5.40052 3.82112 5.38513C3.80537 5.36974 3.79479 5.34991 3.79082 5.32834C3.78684 5.30677 3.78966 5.2845 3.7989 5.26458Z" fill="#FF9261"/>
<path d="M31.8599 8.53244C31.4579 8.14848 30.6453 8.65616 30.5099 8.74576C30.5119 7.99469 30.445 7.245 30.3099 6.50598C29.9999 5.35112 29.308 4.33305 28.3451 3.61512C27.3822 2.89718 26.2041 2.52099 24.9999 2.54691C23.7965 2.52196 22.6194 2.89859 21.6574 3.61645C20.6954 4.33432 20.004 5.35184 19.6942 6.50598C19.5592 7.245 19.4923 7.99469 19.4943 8.74576C19.3589 8.64977 18.5441 8.14208 18.1442 8.53244C17.5552 9.09772 17.6089 9.9531 17.9593 10.6293C18.2259 11.1434 19.3933 11.6959 20.0016 11.9092C20.0489 12.3507 20.4123 13.1421 20.7003 14.1489C20.9153 14.8955 21.8612 15.3222 22.3449 15.6421C23.0995 16.1519 24.4152 16.2693 25.0042 16.2693C25.5933 16.2693 26.909 16.1519 27.6635 15.6421C28.1472 15.3115 29.091 14.8849 29.306 14.1489C29.5962 13.1421 29.9509 12.3507 30.0047 11.9092C30.6152 11.6959 31.7825 11.1412 32.0491 10.6293C32.3952 9.9531 32.4468 9.09772 31.8599 8.53244Z" fill="#FFB99A"/>
<path d="M27.8637 12.8541L25.0001 13.1186L22.1323 12.8584L21.0703 19.0551C21.0703 19.0551 22.7751 20.6592 25.0001 20.6592C27.2252 20.6592 28.93 19.0551 28.93 19.0551L27.8637 12.8541Z" fill="#FFB99A"/>
<path d="M31.0883 4.65452C30.4434 3.54743 30.3251 3.72021 29.7404 3.37465C29.4767 2.83464 29.1514 2.32647 28.7708 1.86013C28.4248 1.38033 28.0098 0.953441 27.539 0.593059C27.1563 0.31362 26.5544 0.311487 26.4039 0.8533C26.3695 0.969492 26.3586 1.09127 26.3716 1.21166C25.3462 0.972753 24.1982 1.05381 23.1835 1.04741C22.1688 1.04102 20.6209 1.19886 20.9585 2.55553C20.9706 2.59914 20.9857 2.6419 21.0036 2.68352C20.829 2.74946 20.6588 2.82641 20.4941 2.91389C19.703 3.1656 18.9183 3.58796 18.5808 4.36228C18.2691 5.07901 18.4518 5.76161 18.9763 6.13064C18.4991 7.25053 18.9097 8.08884 19.2171 8.70105C19.7137 9.68868 19.7137 9.59056 20.0018 9.39858C20.1007 9.33458 20.2404 8.77784 20.3866 8.06751C21.8442 7.8542 23.2652 7.11614 24.6862 6.73431L24.7765 6.70871C24.7722 6.77477 24.7722 6.84104 24.7765 6.90709C24.7798 7.06052 24.8427 7.20675 24.952 7.31526C25.0614 7.42377 25.2088 7.48617 25.3634 7.48944C26.3384 7.53611 27.3099 7.34419 28.1925 6.93056C28.661 6.73607 29.1107 6.49974 29.5361 6.22449C29.5942 7.05854 29.7511 9.91479 30.194 10.1836C30.7056 10.4929 30.7357 9.68868 31.2345 8.70105C31.6064 7.93312 31.8106 5.88106 31.0883 4.65452Z" fill="black"/>
<path d="M23.4351 12.931C23.4351 12.931 26.7135 11.9818 27.2467 11.9285C27.2467 11.9285 27.4896 13.8483 25.5956 13.9485C23.7016 14.0488 23.4351 12.931 23.4351 12.931Z" fill="white"/>
<path d="M26.9733 15.9302C25.6512 16.1606 24.3935 16.3739 23.1036 15.7915C23.0241 15.7553 22.8887 15.8385 22.9639 15.9281C23.7013 16.8986 26.3584 17.2271 27.0485 16.0219C27.0559 16.0109 27.0596 15.9978 27.059 15.9846C27.0584 15.9714 27.0535 15.9587 27.0451 15.9485C27.0366 15.9382 27.0251 15.9309 27.0122 15.9276C26.9993 15.9243 26.9856 15.9252 26.9733 15.9302Z" fill="#FF9261"/>
<path d="M24.9851 10.7723C25.1228 10.6367 25.2305 10.4739 25.3011 10.2945C25.4365 9.91905 25.3011 9.49669 25.3011 9.11486C25.3079 9.05235 25.2895 8.9897 25.2497 8.9407C25.21 8.89169 25.1523 8.86035 25.0893 8.85356C25.0263 8.84677 24.9632 8.86509 24.9138 8.9045C24.8644 8.9439 24.8328 9.00116 24.826 9.06367C24.7744 9.36444 24.7873 9.66308 24.7314 9.96385C24.6755 10.2646 24.4132 10.3371 24.2305 10.5099C24.1553 10.5727 24.1074 10.6618 24.0966 10.7586C24.0858 10.8555 24.1129 10.9528 24.1724 11.0304C24.4175 11.376 24.7722 11.8453 25.2473 11.6533C25.3044 11.6278 25.3514 11.5842 25.381 11.5294C25.4105 11.4746 25.421 11.4117 25.4107 11.3504C25.3412 11.1143 25.1906 10.9098 24.9851 10.7723Z" fill="#FF9261"/>
<path d="M23.4649 8.85244C23.3768 8.73831 23.2653 8.64396 23.1379 8.57558C23.0104 8.5072 22.8698 8.46634 22.7253 8.45568C22.4287 8.40022 21.9493 8.30209 21.6762 8.42581C21.6292 8.44172 21.5875 8.47027 21.5558 8.50829C21.5241 8.54632 21.5037 8.59232 21.4967 8.64118C21.4898 8.69004 21.4967 8.73984 21.5167 8.78505C21.5366 8.83026 21.5688 8.86909 21.6096 8.89723C21.8504 9.11055 22.3104 9.11054 22.6243 9.15961C22.7657 9.19234 22.9127 9.19364 23.0547 9.1634C23.1966 9.13315 23.3301 9.07213 23.4455 8.98469C23.4617 8.96707 23.4721 8.94506 23.4756 8.9215C23.479 8.89793 23.4753 8.87388 23.4649 8.85244Z" fill="black"/>
<path d="M22.7171 10.5782C23.014 10.5782 23.2546 10.3394 23.2546 10.0449C23.2546 9.75035 23.014 9.5116 22.7171 9.5116C22.4203 9.5116 22.1797 9.75035 22.1797 10.0449C22.1797 10.3394 22.4203 10.5782 22.7171 10.5782Z" fill="#2F1820"/>
<path d="M26.5348 8.85244C26.623 8.73831 26.7344 8.64396 26.8619 8.57558C26.9893 8.5072 27.1299 8.46634 27.2744 8.45568C27.5711 8.40022 28.0505 8.30209 28.3213 8.42581C28.3685 8.44147 28.4104 8.46983 28.4424 8.50774C28.4743 8.54565 28.495 8.59161 28.5021 8.64049C28.5092 8.68938 28.5025 8.73927 28.4828 8.78461C28.463 8.82994 28.4309 8.86893 28.3901 8.89723C28.1472 9.11055 27.6893 9.11054 27.3754 9.15961C27.234 9.19234 27.087 9.19364 26.9451 9.1634C26.8031 9.13315 26.6696 9.07213 26.5542 8.98469C26.5378 8.96722 26.5271 8.9452 26.5237 8.92156C26.5202 8.89793 26.5241 8.87382 26.5348 8.85244Z" fill="black"/>
<path d="M27.285 10.5782C27.5818 10.5782 27.8225 10.3394 27.8225 10.0449C27.8225 9.75035 27.5818 9.5116 27.285 9.5116C26.9882 9.5116 26.7476 9.75035 26.7476 10.0449C26.7476 10.3394 26.9882 10.5782 27.285 10.5782Z" fill="#2F1820"/>
<path d="M38.1827 22.5749C37.1916 23.4558 35.9125 25.0941 36.508 26.4849C36.5218 26.5074 36.5412 26.526 36.5643 26.5389C36.5875 26.5518 36.6136 26.5586 36.6402 26.5586C36.6667 26.5586 36.6929 26.5518 36.716 26.5389C36.7392 26.526 36.7586 26.5074 36.7724 26.4849C37.0411 25.9601 37.1443 25.3842 37.3356 24.8296C37.601 24.118 37.9936 23.4597 38.4944 22.8863C38.536 22.8453 38.5595 22.7895 38.5597 22.7313C38.5599 22.6731 38.5368 22.6172 38.4955 22.5759C38.4541 22.5346 38.3979 22.5113 38.3393 22.5111C38.2806 22.5109 38.2243 22.5338 38.1827 22.5749Z" fill="#FF9261"/>
<path d="M44.9222 18.1188C44.8126 18.4494 44.5202 18.6606 44.2773 18.8782C44.0795 19.073 43.9023 19.2874 43.7484 19.5181C43.3185 20.0812 42.8713 20.6807 42.1619 20.8961C41.9921 20.9473 42.0136 21.2395 42.2049 21.2161C43.0519 21.1094 43.5528 20.6252 44.0688 19.9874C44.4708 19.4904 45.0835 18.8227 45.0405 18.1444C45.0439 18.1288 45.0409 18.1125 45.0323 18.0991C45.0236 18.0857 45.0099 18.0763 44.9943 18.0729C44.9786 18.0695 44.9622 18.0724 44.9487 18.081C44.9352 18.0896 44.9257 18.1032 44.9222 18.1188Z" fill="#FF9261"/>
<path d="M33.883 28.7801C33.6401 29.2408 33.1951 29.612 32.8339 29.9831C32.1073 30.7233 32.189 31.4763 30.8389 31.6235C29.5168 31.7728 28.0979 31.2246 26.7543 31.2225C26.6941 31.2281 26.6381 31.2558 26.5974 31.3002C26.5567 31.3446 26.5342 31.4024 26.5342 31.4624C26.5342 31.5225 26.5567 31.5803 26.5974 31.6247C26.6381 31.6691 26.6941 31.6968 26.7543 31.7024C28.2204 31.8283 30.3552 32.8394 31.7784 32.1184C32.8017 31.5979 34.2076 30.0578 34.1668 28.8568C34.1651 28.8245 34.1532 28.7936 34.1328 28.7683C34.1123 28.7431 34.0844 28.725 34.0529 28.7165C34.0215 28.708 33.9881 28.7095 33.9576 28.7209C33.9271 28.7324 33.901 28.753 33.883 28.7801Z" fill="#FF9261"/>
<path d="M28.6891 36.4891C27.8829 35.4226 26.52 34.949 25.215 35.013C25.1449 35.0191 25.0796 35.0511 25.032 35.1026C24.9844 35.1542 24.958 35.2215 24.958 35.2914C24.958 35.3613 24.9844 35.4286 25.032 35.4802C25.0796 35.5317 25.1449 35.5637 25.215 35.5698C25.8077 35.6235 26.3804 35.8098 26.8901 36.1146C27.3998 36.4194 27.8333 36.8348 28.1581 37.3296C28.6074 38.0378 28.6461 38.8676 29.1685 39.5523C29.191 39.5889 29.2225 39.6192 29.2602 39.6403C29.2978 39.6613 29.3403 39.6723 29.3835 39.6723C29.4267 39.6723 29.4692 39.6613 29.5068 39.6403C29.5445 39.6192 29.5761 39.5889 29.5985 39.5523C30.0972 38.6052 29.261 37.2443 28.6891 36.4891Z" fill="#FF9261"/>
<path d="M30.9032 19.4732C29.7101 20.207 25.7437 18.9015 25.8727 21.3525C25.8753 21.4156 25.9002 21.4759 25.9431 21.5226C25.986 21.5694 26.0442 21.5996 26.1073 21.608C26.1705 21.6164 26.2346 21.6024 26.2884 21.5686C26.3422 21.5347 26.3823 21.4831 26.4016 21.4229C26.9605 19.9681 28.0956 20.7829 29.1554 20.4182C29.8004 20.1857 30.4733 20.0619 30.9613 19.5479C30.9713 19.5402 30.9778 19.529 30.9794 19.5166C30.981 19.5042 30.9776 19.4916 30.9699 19.4817C30.9622 19.4718 30.9508 19.4654 30.9383 19.4638C30.9258 19.4622 30.9132 19.4656 30.9032 19.4732Z" fill="#FF9261"/>
<path d="M11.8173 22.5748C12.8084 23.4557 14.0875 25.094 13.492 26.4848C13.478 26.5073 13.4583 26.5258 13.435 26.5387C13.4117 26.5515 13.3854 26.5583 13.3588 26.5583C13.3321 26.5583 13.3058 26.5515 13.2825 26.5387C13.2592 26.5258 13.2396 26.5073 13.2255 26.4848C12.9589 25.96 12.8536 25.3841 12.6644 24.8295C12.3991 24.1174 12.0057 23.4589 11.5035 22.8862C11.4619 22.8449 11.4385 22.7889 11.4385 22.7305C11.4385 22.6721 11.4619 22.6161 11.5035 22.5748C11.5451 22.5335 11.6016 22.5103 11.6604 22.5103C11.7193 22.5103 11.7757 22.5335 11.8173 22.5748Z" fill="#FF9261"/>
<path d="M5.07565 18.1187C5.18529 18.4494 5.47766 18.6605 5.72059 18.8781C5.91842 19.073 6.09562 19.2874 6.24944 19.518C6.6794 20.0812 7.12656 20.6806 7.83599 20.896C8.00583 20.9472 7.98218 21.2395 7.793 21.216C6.94598 21.1094 6.44292 20.6251 5.92912 19.9873C5.52711 19.4903 4.91227 18.8226 4.95526 18.1443C4.95184 18.1285 4.9549 18.1119 4.96377 18.0983C4.97264 18.0847 4.9866 18.0752 5.00256 18.0718C5.01852 18.0684 5.03519 18.0714 5.0489 18.0802C5.06261 18.089 5.07223 18.1029 5.07565 18.1187Z" fill="#FF9261"/>
<path d="M16.117 28.7801C16.3599 29.2408 16.8049 29.612 17.1661 29.9832C17.8927 30.7234 17.811 31.4763 19.1611 31.6235C20.4832 31.7728 21.9021 31.2246 23.2457 31.2225C23.3059 31.2281 23.3618 31.2559 23.4025 31.3002C23.4432 31.3446 23.4658 31.4025 23.4658 31.4625C23.4658 31.5225 23.4432 31.5803 23.4025 31.6247C23.3618 31.6691 23.3059 31.6968 23.2457 31.7025C21.7817 31.8283 19.6469 32.8394 18.2238 32.1184C17.2005 31.5979 15.7945 30.0578 15.8353 28.8569C15.8376 28.8251 15.8497 28.7949 15.87 28.7703C15.8903 28.7457 15.9178 28.7279 15.9487 28.7195C15.9797 28.711 16.0124 28.7124 16.0426 28.7232C16.0727 28.7341 16.0987 28.7539 16.117 28.7801Z" fill="#FF9261"/>
<path d="M21.3111 36.4891C22.1173 35.4226 23.4802 34.949 24.7852 35.013C24.8553 35.0191 24.9206 35.0511 24.9682 35.1026C25.0158 35.1542 25.0422 35.2215 25.0422 35.2914C25.0422 35.3613 25.0158 35.4286 24.9682 35.4802C24.9206 35.5317 24.8553 35.5637 24.7852 35.5698C24.193 35.6242 23.6208 35.8107 23.1116 36.1155C22.6023 36.4202 22.169 36.8353 21.8442 37.3296C21.3971 38.0378 21.3584 38.8676 20.836 39.5523C20.8136 39.5889 20.782 39.6192 20.7443 39.6403C20.7067 39.6613 20.6642 39.6723 20.621 39.6723C20.5778 39.6723 20.5353 39.6613 20.4977 39.6403C20.46 39.6192 20.4284 39.5889 20.406 39.5523C19.9094 38.6052 20.7392 37.2443 21.3111 36.4891Z" fill="#FF9261"/>
<path d="M19.0966 19.4732C20.2897 20.207 24.2561 18.9015 24.1271 21.3525C24.126 21.4168 24.1017 21.4786 24.0586 21.5267C24.0155 21.5748 23.9564 21.6059 23.8921 21.6144C23.8278 21.623 23.7626 21.6083 23.7083 21.5732C23.654 21.538 23.6141 21.4847 23.5961 21.4229C23.0393 19.9681 21.9042 20.7829 20.8443 20.4182C20.1994 20.1857 19.5265 20.0619 19.0385 19.5479C19.0285 19.5402 19.022 19.529 19.0204 19.5166C19.0188 19.5042 19.0222 19.4916 19.0299 19.4817C19.0376 19.4718 19.049 19.4654 19.0615 19.4638C19.074 19.4622 19.0866 19.4656 19.0966 19.4732Z" fill="#FF9261"/>
<path d="M25.2452 25.028C25.2403 24.983 25.2188 24.9414 25.1849 24.9112C25.151 24.881 25.107 24.8643 25.0614 24.8643C25.0158 24.8643 24.9719 24.881 24.9379 24.9112C24.904 24.9414 24.8825 24.983 24.8776 25.028C24.8239 26.4763 24.482 28.2639 24.94 29.6568C24.9478 29.6827 24.9639 29.7054 24.9857 29.7216C25.0076 29.7377 25.0342 29.7464 25.0614 29.7464C25.0887 29.7464 25.1152 29.7377 25.1371 29.7216C25.159 29.7054 25.175 29.6827 25.1829 29.6568C25.6408 28.2639 25.299 26.4763 25.2452 25.028Z" fill="#FF9261"/>
<path d="M27.04 38.5604C26.4768 38.7332 25.8598 38.6927 25.2621 38.6735C25.2471 38.1572 25.245 37.641 25.2256 37.1291C25.221 37.089 25.2017 37.052 25.1713 37.0252C25.141 36.9984 25.1018 36.9835 25.0611 36.9835C25.0205 36.9835 24.9813 36.9984 24.9509 37.0252C24.9206 37.052 24.9013 37.089 24.8967 37.1291C24.8795 37.6346 24.8429 38.1508 24.8214 38.6671H24.7999C24.0626 38.6799 23.3811 38.7887 22.6501 38.5753C22.3363 38.4815 22.2202 38.9465 22.5169 39.0553C23.2435 39.3177 24.0217 39.3262 24.7978 39.2942C24.7711 40.0755 24.8624 40.8563 25.0687 41.6108C25.0779 41.6404 25.0964 41.6664 25.1215 41.6848C25.1467 41.7033 25.1771 41.7132 25.2084 41.7132C25.2397 41.7132 25.2701 41.7033 25.2953 41.6848C25.3204 41.6664 25.339 41.6404 25.3481 41.6108C25.5438 40.9708 25.3761 40.3928 25.3137 39.7336C25.3008 39.58 25.2922 39.4265 25.2815 39.2729C25.9694 39.2387 26.5714 39.1918 27.1368 38.7353C27.2185 38.6692 27.1368 38.5305 27.04 38.5604Z" fill="#FF9261"/>
<path d="M45.4791 10.2901C45.1483 11.3039 44.9991 12.3673 45.0384 13.4322C45.0577 13.9378 45.1502 14.4518 45.1932 14.9574C45.2319 15.4203 45.378 15.5675 45.4963 16.0239C45.5 16.0522 45.5149 16.0779 45.5376 16.0953C45.5604 16.1127 45.5892 16.1204 45.6177 16.1167C45.6463 16.1131 45.6721 16.0983 45.6897 16.0757C45.7072 16.0531 45.715 16.0245 45.7113 15.9962C45.6296 14.1831 45.3372 12.1566 45.7263 10.3627C45.7311 10.3465 45.7327 10.3297 45.7309 10.313C45.7291 10.2962 45.724 10.2801 45.7159 10.2653C45.7079 10.2505 45.6969 10.2375 45.6838 10.2269C45.6706 10.2164 45.6555 10.2085 45.6392 10.2037C45.623 10.199 45.606 10.1974 45.5892 10.1992C45.5723 10.201 45.556 10.206 45.5411 10.214C45.5263 10.222 45.5131 10.2329 45.5025 10.2459C45.4918 10.259 45.4839 10.274 45.4791 10.2901Z" fill="#FF9261"/>
<path d="M4.52107 10.2901C4.85191 11.3039 5.00106 12.3673 4.96178 13.4322C4.94243 13.9378 4.84999 14.4518 4.80699 14.9574C4.7683 15.4203 4.62211 15.5675 4.50172 16.0239C4.49801 16.0522 4.48314 16.0779 4.46036 16.0953C4.43758 16.1127 4.40877 16.1204 4.38026 16.1167C4.35175 16.1131 4.32588 16.0983 4.30834 16.0757C4.29081 16.0531 4.28303 16.0245 4.28674 15.9962C4.37058 14.1831 4.66295 12.1566 4.27384 10.3627C4.26904 10.3465 4.26749 10.3297 4.26927 10.313C4.27105 10.2962 4.27612 10.2801 4.28421 10.2653C4.29229 10.2505 4.30323 10.2375 4.31639 10.2269C4.32955 10.2164 4.34467 10.2085 4.36091 10.2037C4.37714 10.199 4.39416 10.1974 4.411 10.1992C4.42783 10.201 4.44415 10.206 4.45902 10.214C4.47389 10.222 4.48703 10.2329 4.49768 10.2459C4.50832 10.259 4.51627 10.274 4.52107 10.2901Z" fill="#FF9261"/>
</g>
<defs>
<clipPath id="clip0_0_1492">
<rect width="50" height="64" fill="white"/>
</clipPath>
</defs>
</svg>
