<svg width="60" height="140" viewBox="0 0 60 140" fill="none" xmlns="http://www.w3.org/2000/svg">
<g clip-path="url(#clip0_0_1916)">
<path d="M59.8238 97.4371C60.9917 89.8503 58.3166 82.0963 58.3166 82.0963L55.4719 65.2755C55.4719 65.2755 56.1244 51.7623 53.4689 46.1446C50.8134 40.527 40.5894 39.3815 38.9191 36.7432C37.2488 34.1049 36.7464 27.1746 36.7464 27.1746L30.2218 28.3264L24.3497 27.1746C24.3497 27.1746 23.8473 34.1049 22.177 36.7432C20.5068 39.3815 9.63028 40.5334 6.97478 46.1189C4.31928 51.7043 4.97173 65.2498 4.97173 65.2498L2.12703 82.0706C2.12703 82.0706 -0.548044 89.8246 0.619854 97.4113C1.78775 104.998 2.45977 112.585 2.62941 113.241C2.79905 113.898 2.12703 116.87 2.96217 118.852C3.79732 120.834 6.64204 123.305 6.64204 123.305L7.64681 124.953C7.64681 124.953 11.157 138.311 11.6594 142.436C12.1618 146.561 9.81949 150.679 10.8243 155.795C11.8291 160.911 13.4993 182.68 13.4993 183.169C13.4993 183.658 14.1518 187.294 14.1518 187.294C14.1518 187.294 11.3267 194.25 10.3219 196.052C9.3171 197.853 10.0805 199.81 12.0835 200.968C14.0866 202.126 16.3441 202.255 18.6864 199.417C21.0287 196.579 20.435 196.2 21.3615 193.947C22.0139 192.416 22.6664 191.972 22.6664 189.166C22.6664 186.361 22.164 186.361 22.164 183.375C22.164 180.389 25.3414 162.217 26.1766 154.63C27.0117 147.044 27.2466 140.976 27.2466 140.976L30.2544 118.048L33.2623 140.976C33.2623 140.976 33.4319 147.076 34.2671 154.663C35.1022 162.249 38.2797 175.775 38.2797 178.742C38.2797 181.708 38.2797 185.428 38.2797 188.233C38.2337 190.037 38.5143 191.835 39.1083 193.542C39.9565 196.528 39.8782 197.551 41.6724 199.636C44.0604 202.403 47.2118 201.946 49.2214 200.794C51.2309 199.642 51.1787 197.879 50.1479 196.065C49.117 194.25 46.2984 187.32 46.2984 187.32C46.2984 187.32 46.9508 183.69 46.9508 183.195C46.9508 182.699 48.6211 160.93 49.6259 155.821C50.6307 150.711 48.321 146.587 48.7908 142.462C49.2605 138.337 52.8034 124.978 52.8034 124.978L53.8016 123.337C53.8016 123.337 56.6464 120.86 57.4815 118.885C58.3166 116.909 57.6446 113.936 57.8142 113.273C57.9839 112.611 58.6494 105.024 59.8238 97.4371Z" fill="#FFB99A" stroke="#263238" stroke-linecap="round" stroke-linejoin="round"/>
<path d="M9.85221 90.3329C9.85221 90.3329 30.4633 92.6816 50.2458 90.3329C50.2458 90.3329 52.5229 99.5219 52.6273 102.077C52.7317 104.631 52.8296 112.598 52.8296 112.598L52.934 116.581L31.0832 120.442H29.8565L7.37939 116.967L7.48379 111.175C7.48379 111.175 7.17714 105.146 7.69258 102.488C8.20802 99.8308 9.85221 90.3329 9.85221 90.3329Z" fill="#C1063D" stroke="#263238" stroke-linecap="round" stroke-linejoin="round"/>
<path d="M24.9109 114.689C24.9109 114.689 27.8665 117.533 30.2219 118.048C32.5772 118.563 36.3158 115.081 36.3158 115.081" stroke="#263238" stroke-linecap="round" stroke-linejoin="round"/>
<path d="M16.0701 102.18L21.218 107.591" stroke="#263238" stroke-linecap="round" stroke-linejoin="round"/>
<path d="M39.4019 108.273L42.8338 103.531" stroke="#263238" stroke-linecap="round" stroke-linejoin="round"/>
<path d="M19.5999 42.7469C19.5999 42.7469 26.6855 42.3608 27.736 42.3608C28.7864 42.3608 30.1044 43.3968 30.1044 43.3968" stroke="#263238" stroke-linecap="round" stroke-linejoin="round"/>
<path d="M42.8403 42.7469C42.8403 42.7469 35.7481 42.3608 34.6976 42.3608C33.6471 42.3608 32.3357 43.3968 32.3357 43.3968" stroke="#263238" stroke-linecap="round" stroke-linejoin="round"/>
<path d="M30.783 48.3904V62.5729" stroke="#263238" stroke-linecap="round" stroke-linejoin="round"/>
<path d="M14.7261 65.8868C14.7261 65.8868 16.7748 66.0669 21.2506 64.2266" stroke="#263238" stroke-linecap="round" stroke-linejoin="round"/>
<path d="M45.7243 65.8868C45.7243 65.8868 43.669 66.0669 39.1997 64.2266" stroke="#263238" stroke-linecap="round" stroke-linejoin="round"/>
<path d="M13.0036 52.9977C13.0036 52.9977 11.3985 59.1945 11.5421 61.6397C11.6481 63.1937 11.8926 64.7354 12.2728 66.2471C12.2728 66.2471 10.3742 84.6831 10.0806 88.8529C9.78695 93.0227 7.30762 99.657 7.30762 108.582C7.30762 117.507 7.64689 124.978 7.64689 124.978" stroke="#263238" stroke-linecap="round" stroke-linejoin="round"/>
<path d="M47.2117 52.9977C47.2117 52.9977 48.8167 59.1945 48.6667 61.6397C48.5647 63.1937 48.3223 64.7356 47.9424 66.2471C47.9424 66.2471 49.8346 84.6831 50.1282 88.8529C50.4218 93.0227 52.9011 99.657 52.9011 108.582C52.9011 117.507 52.7967 124.978 52.7967 124.978" stroke="#263238" stroke-linecap="round" stroke-linejoin="round"/>
<path d="M7.84912 83.8143C7.84912 83.8143 10.459 88.0742 9.85217 90.3329" stroke="#263238" stroke-linecap="round" stroke-linejoin="round"/>
<path d="M50.2456 90.3329C50.2456 90.3329 50.8981 85.5711 52.1312 82.6111" stroke="#263238" stroke-linecap="round" stroke-linejoin="round"/>
<path d="M21.2047 17.4643C21.2047 17.4643 19.5605 15.2829 19.0712 17.3034C18.5819 19.324 21.681 21.3446 21.681 21.3446L21.2047 17.4643Z" fill="#FFB99A" stroke="#263238" stroke-linecap="round" stroke-linejoin="round"/>
<path d="M40.0543 17.4643C40.0543 17.4643 41.692 15.2829 42.1814 17.3034C42.6707 19.324 39.5715 21.3446 39.5715 21.3446L40.0543 17.4643Z" fill="#FFB99A" stroke="#263238" stroke-linecap="round" stroke-linejoin="round"/>
<path d="M20.833 10.521C20.833 10.521 21.6681 23.3136 22.6142 25.5915C23.5603 27.8695 27.7686 32.3739 28.9104 32.7149C30.2344 32.9823 31.5974 33.0041 32.9295 32.7793C33.4189 32.6248 38.0709 27.3482 38.6647 25.8232C39.2584 24.2981 40.6612 11.1581 40.6612 11.1581C40.4095 9.72517 39.8007 8.3764 38.8897 7.23298C37.9786 6.08956 36.7937 5.18731 35.4415 4.60734C30.7177 2.50956 27.6773 3.19166 24.689 5.32804C22.8901 6.62413 21.543 8.43841 20.833 10.521Z" fill="#FFB99A" stroke="#263238" stroke-linecap="round" stroke-linejoin="round"/>
<path d="M27.7229 25.9519C27.7229 25.9519 31.1679 26.8399 33.5428 25.791" stroke="#263238" stroke-linecap="round" stroke-linejoin="round"/>
<path d="M23.3318 15.5274C23.3318 15.5274 25.4653 13.6677 28.0034 14.8003" stroke="#263238" stroke-linecap="round" stroke-linejoin="round"/>
<path d="M38.1687 15.5274C38.1687 15.5274 36.0351 13.6677 33.4971 14.8003" stroke="#263238" stroke-linecap="round" stroke-linejoin="round"/>
<path d="M27.7556 17.8054C27.7556 18.4038 27.4293 18.8929 27.0183 18.8929C26.6072 18.8929 26.281 18.4038 26.281 17.8054C26.281 17.2069 26.6138 16.7114 27.0183 16.7114C27.4228 16.7114 27.7556 17.2262 27.7556 17.8054Z" fill="#263238"/>
<path d="M35.7285 17.8054C35.7285 18.4038 35.3957 18.8929 34.9912 18.8929C34.5867 18.8929 34.2539 18.4038 34.2539 17.8054C34.2539 17.2069 34.5801 16.7114 34.9912 16.7114C35.4022 16.7114 35.7285 17.2262 35.7285 17.8054Z" fill="#263238"/>
<path d="M24.8847 11.0873C24.8847 11.0873 24.689 14.3755 25.9678 13.9894C27.2466 13.6034 31.2592 10.1285 31.2592 10.1285C31.2592 10.1285 31.0635 13.6098 31.8464 12.9341C32.6294 12.2585 34.0061 8.97022 34.0061 8.97022C34.0061 8.97022 34.9847 13.7063 35.9634 12.7411C36.6273 12.0129 37.1296 11.1559 37.438 10.225C37.438 10.225 38.6124 14.2919 39.1996 15.2571C39.5901 15.9533 39.8779 16.7008 40.0543 17.4771L41.7507 16.1258C41.9195 15.5276 42.018 14.9123 42.0443 14.2919C41.9465 14.0023 43.3166 14.1954 43.2188 12.9341C43.1209 11.6729 41.0656 7.78621 41.0656 7.78621C41.0656 7.78621 42.2401 7.88273 41.4571 6.13888C40.6742 4.39502 35.9634 0.990977 32.3227 0.437577C28.682 -0.115823 23.1231 1.2355 20.1674 5.07712C18.047 7.83126 18.7973 10.1028 19.1888 10.2958C19.1888 10.2958 18.7973 12.8119 19.2866 13.1014L19.776 13.391L21.1918 17.4514L22.6207 13.391C22.6207 13.391 23.5146 13.9894 24.8847 11.0873Z" fill="#263238" stroke="#263238" stroke-linecap="round" stroke-linejoin="round"/>
<path d="M32.5314 16.2095C32.5314 16.2095 31.7485 19.7873 31.9442 21.2416C32.14 22.6958 32.5314 23.9442 31.357 24.1373C30.1826 24.3303 29.6932 24.0407 29.3018 22.6894" stroke="#263238" stroke-linecap="round" stroke-linejoin="round"/>
</g>
<defs>
<clipPath id="clip0_0_1916">
<rect width="60" height="140" fill="white"/>
</clipPath>
</defs>
</svg>
