<svg width="57" height="57" viewBox="0 0 57 57" fill="none" xmlns="http://www.w3.org/2000/svg">
<ellipse opacity="0.3" cx="28.8254" cy="28.8806" rx="28.0159" ry="28.0374" fill="url(#paint0_linear_0_3665)"/>
<mask id="mask0_0_3665" style="mask-type:alpha" maskUnits="userSpaceOnUse" x="0" y="0" width="57" height="57">
<ellipse cx="28.8254" cy="28.8806" rx="28.0159" ry="28.0374" fill="#C4C4C4"/>
</mask>
<g mask="url(#mask0_0_3665)">
<path d="M42.736 41.7155C43.2043 37.0565 42.7577 32.5154 41.9586 27.9295C41.4931 25.2474 41.3087 22.526 41.4082 19.8074C41.4951 17.919 41.0106 16.0474 40.0152 14.4265C38.8782 12.4685 36.9396 10.888 34.5568 11.164C34.4486 11.1864 34.3368 11.1864 34.2285 11.164C34.1411 11.1313 34.0596 11.0851 33.9871 11.0271C32.7559 10.1142 30.7256 9.8382 29.2143 9.81697C27.3524 9.78535 25.5097 10.1898 23.8405 10.9965C21.0207 12.3789 18.8456 15.0445 18.2879 18.0735C18.0924 19.3332 18.068 20.6127 18.2155 21.8786C18.3121 22.9284 18.4569 24.0017 18.2662 25.0302C17.9982 26.4456 17.1243 27.6676 16.5763 29.0052C15.8839 30.6721 15.5494 32.4602 15.5937 34.2587C15.6493 35.5467 16.0428 38.8163 17.542 39.2834C19.5626 39.9156 21.6967 40.1161 23.8187 40.3119L29.801 40.8686C30.8246 40.963 31.8675 41.0574 32.8645 40.8167C33.6105 40.6375 34.2985 40.2789 35.0373 40.076C35.9541 39.8257 36.923 39.8208 37.8425 40.0619" fill="#AA4F7A"/>
<g style="mix-blend-mode:multiply" opacity="0.32">
<g style="mix-blend-mode:multiply" opacity="0.32">
<path d="M25.0696 15.6795L21.207 16.8236C21.1366 16.84 21.0702 16.8696 21.0114 16.9109C20.9458 16.9713 20.8983 17.0479 20.8738 17.1327C20.2108 18.7777 19.7615 20.4974 19.5364 22.2517C19.2515 24.5423 20.3186 26.807 19.6354 29.0928L18.8484 31.8175C18.4524 33.1456 18.0541 34.5422 18.3655 35.8915C18.6069 36.9531 19.2515 37.8731 19.7247 38.8544C20.4358 40.3316 20.7562 41.9595 20.6565 43.589C20.6565 43.5371 23.7949 42.9166 24.0822 42.8341C25.2542 42.5066 26.4067 42.116 27.5344 41.664C28.5146 41.2724 29.4658 40.7935 30.4483 40.4397C31.035 40.2321 31.5733 40.0811 31.9789 39.5881C33.1015 38.2222 33.3622 35.8137 33.4056 34.1364C33.4548 32.159 33.0738 30.1938 32.2879 28.371C31.739 27.0957 30.9833 25.9152 30.05 24.8749" fill="#AA4F7A"/>
</g>
</g>
<path d="M13.1528 41.0102C10.9801 44.4803 9.64991 48.4222 8.92084 52.4325C8.607 54.1664 8.41145 56.0277 9.22743 57.5964C10.5576 60.1913 14.2199 59.4671 16.5737 58.9505C20.1611 58.1673 24.5404 56.5702 26.7855 53.6451" fill="#EA7C99"/>
<path d="M46.854 59.2525C47.7449 56.7779 47.5493 53.6687 47.3369 51.2318C47.0786 48.1203 46.4098 45.2777 44.8962 42.4658C43.7615 40.3615 42.5689 38.045 40.3358 36.9221C39.2543 36.3771 38.0859 36.0209 36.956 35.5562C35.58 34.9853 34.2643 33.761 34.6457 32.1734C34.8871 31.1236 35.6597 30.2649 36.4539 29.5148C36.9083 29.0653 37.3279 28.5836 37.7093 28.0734C37.7312 28.0409 37.7611 28.0141 37.7962 27.9956C37.8486 27.983 37.9039 27.988 37.9531 28.0097C38.5489 28.1955 39.1871 28.2081 39.7901 28.046C40.3932 27.8839 40.935 27.5542 41.3498 27.0968C42.1368 26.2475 42.3492 24.4429 41.6564 23.4616C41.0577 22.6123 39.5633 22.3198 38.6339 22.702C38.996 20.7959 39.0636 18.0877 38.25 16.2831C37.492 14.535 35.5341 13.2187 33.8611 12.4119C32.1881 11.6052 30.3582 11.4518 28.5355 11.65C26.6211 11.8599 24.6318 12.5606 23.5213 14.0963C23.0984 14.7322 22.7731 15.4253 22.5557 16.1533C21.9276 17.9888 21.4869 19.8805 21.24 21.8008C21.0324 23.4285 20.9792 25.3582 21.3341 26.9694C21.5313 27.9795 22.0362 28.9079 22.7826 29.6327C23.7121 30.4867 24.4966 30.7603 25.7617 30.9349C27.0822 31.1189 28.9725 31.369 29.6243 32.6688C30.7879 34.9547 28.9 36.0398 26.9542 36.6956C22.7464 38.111 22.8912 42.2983 22.3263 45.8769C22.0849 47.4621 21.3607 48.7431 20.8416 50.2316C20.5653 51.1384 20.4031 52.0748 20.3588 53.02C20.3129 53.5484 20.0715 54.2915 20.1536 54.8058C20.2405 55.3578 20.6944 55.6408 21.1362 56.0018C22.4953 57.1081 24.0331 57.9975 25.5468 58.868C26.8602 59.5954 28.2458 60.1906 29.6822 60.6443C31.6884 61.3096 33.5449 62.1446 35.6259 62.5905C37.1869 62.9496 38.7748 63.1863 40.3745 63.2982C42.8152 63.4374 45.0965 62.5292 46.3084 60.399C46.5236 60.0328 46.7062 59.6492 46.854 59.2525Z" fill="#FF8DA8"/>
<g style="mix-blend-mode:multiply" opacity="0.2">
<g style="mix-blend-mode:multiply" opacity="0.2">
<path d="M32.6444 11.7725C32.9558 13.1455 32.7047 14.5703 32.543 15.9668C32.3812 17.3634 32.3257 18.8472 32.9775 20.1022C33.403 20.8704 34.0607 21.4918 34.8608 21.8814C35.6609 22.2711 36.5646 22.4101 37.4485 22.2796C36.9992 19.5779 36.0781 16.9718 34.7254 14.575" fill="#FF8DA8"/>
</g>
</g>
<path d="M24.6256 16.1865C24.4253 15.3491 22.8561 16.0073 22.4529 16.3045C22.1125 16.5522 21.6466 17.0759 22.1753 17.4038C22.704 17.7317 23.8338 17.1042 24.2563 16.8117C24.4663 16.6584 24.686 16.4225 24.6256 16.1865Z" fill="#843860"/>
<path d="M30.8852 15.8607C31.0855 15.0233 32.6547 15.6838 33.0579 15.981C33.3959 16.2169 33.8618 16.7501 33.3331 17.078C32.8044 17.4059 31.6746 16.7784 31.2521 16.4859C31.0445 16.3396 30.8248 16.1108 30.8852 15.8607Z" fill="#843860"/>
<path d="M40.3939 63.3055C42.8346 63.4447 45.116 62.5365 46.3279 60.4063C46.5368 60.0372 46.7129 59.6513 46.8542 59.2527C47.745 56.7781 47.5494 53.6689 47.337 51.2321C47.0787 48.1205 46.41 45.2779 44.8963 42.466C43.8823 40.5788 42.8177 38.5382 41.0095 37.321C40.9492 37.3564 40.8864 37.3918 40.8284 37.4295C37.4873 39.5125 34.5251 42.5745 30.6021 43.1242C28.2846 43.4473 25.9187 42.8198 23.8111 41.8196C23.5552 41.697 23.2873 41.5696 23.0121 41.4493C22.6789 42.8647 22.5654 44.4334 22.3361 45.8866C22.0947 47.4718 21.3704 48.7528 20.8514 50.2413C20.5751 51.1481 20.4129 52.0845 20.3686 53.0296C20.3227 53.5581 20.0813 54.3012 20.1634 54.8154C20.2503 55.3674 20.7041 55.6505 21.1459 56.0114C22.5051 57.1178 24.0429 58.0072 25.5566 58.8776C26.8699 59.6051 28.2555 60.2002 29.692 60.654C31.6982 61.3192 33.5546 62.1543 35.6356 62.6002C37.1999 62.959 38.7911 63.1949 40.3939 63.3055Z" fill="#F26757"/>
<g style="mix-blend-mode:multiply" opacity="0.25">
<g style="mix-blend-mode:multiply" opacity="0.25">
<path d="M33.4449 28.3633C34.7289 28.3633 35.7698 27.3463 35.7698 26.0916C35.7698 24.837 34.7289 23.8199 33.4449 23.8199C32.161 23.8199 31.1201 24.837 31.1201 26.0916C31.1201 27.3463 32.161 28.3633 33.4449 28.3633Z" fill="#FF8DA8"/>
</g>
<g style="mix-blend-mode:multiply" opacity="0.25">
<path d="M22.8012 25.3275C22.8009 24.8337 22.6357 24.3534 22.3307 23.9596C22.0257 23.5658 21.5976 23.2799 21.1113 23.1454C21.0117 24.424 21.0856 25.7098 21.331 26.9694C21.3624 27.1109 21.401 27.2525 21.442 27.3917C21.8474 27.2114 22.1912 26.9209 22.4322 26.5549C22.6732 26.1889 22.8013 25.7628 22.8012 25.3275Z" fill="#FF8DA8"/>
</g>
</g>
<path d="M47.6506 50.7269C47.4681 48.7589 47.0632 46.8166 46.4435 44.9355C45.9607 43.4564 45.5213 41.6801 44.3432 40.5949C42.5181 38.913 39.9857 39.2833 38.221 40.904C35.9179 43.0271 36.6252 45.7706 37.7068 48.2806C38.4769 50.0687 39.3556 51.8616 39.5077 53.7936C39.5339 53.9577 39.5138 54.1257 39.4498 54.2796C39.2953 54.5745 38.8897 54.6287 38.5493 54.6287C36.8256 54.6287 35.1333 54.2017 33.4627 53.7795L28.4606 52.515C27 52.147 25.5226 51.7743 24.103 51.2695C22.8767 52.9097 21.8608 54.6907 21.0781 56.5725C23.3402 58.33 25.7254 60.0309 28.4437 61.0264C32.4946 62.5125 37.6367 64.6498 42.1126 63.7416C43.2514 63.5338 44.3139 63.0362 45.193 62.299C46.0721 61.5617 46.7366 60.6109 47.1195 59.5425C48.1648 56.7613 47.8969 53.6191 47.6506 50.7269Z" fill="#FF8DA8"/>
<path d="M35.8706 34.9145C35.5056 34.6468 35.196 34.3138 34.9581 33.9332C33.3517 34.4576 31.6158 34.4658 30.0043 33.9568C30.0087 34.3825 29.8677 34.7976 29.6035 35.1363C31.6544 35.784 33.8731 35.7055 35.8706 34.9145Z" fill="#F7BF54"/>
<path d="M32.2266 10.921C33.1367 11.7254 33.3829 12.9521 33.5012 14.0986C33.6823 15.8773 33.6751 17.7055 34.3583 19.3804C35.0415 21.0553 36.6324 22.5863 38.5999 22.6453C38.7119 22.6576 38.8251 22.6354 38.9234 22.5816C38.9946 22.5187 39.045 22.4366 39.0683 22.3457C40.3212 19.0124 39.0683 15.0327 36.0602 12.8011C35.0004 12.0226 33.7595 11.4517 32.5525 10.8879" fill="#AA4F7A"/>
<g style="mix-blend-mode:multiply" opacity="0.2">
<g style="mix-blend-mode:multiply" opacity="0.2">
<path d="M22.2227 17.2831C23.746 17.7171 25.3321 18.0191 26.9182 17.9177C28.5043 17.8162 30.0952 17.2854 31.2636 16.2262C32.4321 15.167 33.0863 13.537 32.758 12.0178C30.7092 13.5059 28.2537 14.3649 25.7039 14.4853" fill="#FF8DA8"/>
</g>
</g>
<path d="M32.8283 11.289C33.2774 12.4709 32.7318 13.8273 31.8289 14.7473C30.3418 16.2618 28.0942 16.7902 25.9553 16.9813C23.8163 17.1724 21.6267 17.104 19.5723 17.7173C20.1154 15.0375 22.3413 12.8837 24.9244 11.8363C27.5076 10.7889 30.3997 10.7228 33.176 11.0271" fill="#AA4F7A"/>
<path d="M25.1724 25.6551C25.1737 25.6386 25.1737 25.6221 25.1724 25.6056C25.1647 25.5405 25.1438 25.4775 25.111 25.4203C25.0783 25.3631 25.0343 25.3127 24.9816 25.2722C24.9289 25.2316 24.8685 25.2016 24.8039 25.184C24.7393 25.1663 24.6717 25.1613 24.6051 25.1692L19.1854 25.7919C19.0706 25.8057 18.964 25.857 18.8829 25.9375C18.8018 26.0181 18.751 26.1231 18.7388 26.2354L17.7731 35.2728C17.7595 35.4043 17.7996 35.5358 17.8845 35.6387C17.9695 35.7416 18.0925 35.8076 18.227 35.8225H18.2825C18.4087 35.822 18.5302 35.7759 18.6238 35.6932C18.7174 35.6105 18.7764 35.4969 18.7895 35.3742L19.7189 26.7355L24.5255 26.1812C24.5669 26.0402 24.6507 25.9147 24.7661 25.8208C24.8815 25.727 25.0231 25.6693 25.1724 25.6551Z" fill="#B9B5EC"/>
<path d="M28.2219 23.2325C28.1977 23.2325 28.1543 23.3505 28.0312 23.5369C27.8517 23.8005 27.601 24.0103 27.3069 24.1431C27.1131 24.2342 26.9015 24.2832 26.6865 24.287C26.4451 24.287 26.3147 24.2068 26.3606 23.9662C26.4064 23.7256 26.5585 23.4661 26.6527 23.183C26.7643 22.8909 26.8602 22.5932 26.94 22.2913C27.2273 21.2344 27.3382 20.1391 27.2683 19.0477C27.2128 18.2102 27.0655 17.7101 27.0269 17.7172C26.9883 17.7243 27.0534 18.2338 27.0559 19.0547C27.0621 20.122 26.9257 21.1854 26.6503 22.2182C26.5658 22.5201 26.4789 22.8126 26.3775 23.0886C26.3292 23.2278 26.2737 23.3623 26.223 23.4944C26.1614 23.6321 26.1161 23.7761 26.0878 23.9237C26.071 24.0063 26.071 24.0912 26.0878 24.1738C26.1071 24.2651 26.1563 24.3479 26.2278 24.4097C26.3582 24.506 26.522 24.5483 26.6841 24.5276C26.9314 24.5114 27.1721 24.4421 27.389 24.3248C27.7032 24.1616 27.9566 23.9057 28.1133 23.5935C28.234 23.3717 28.2364 23.2373 28.2219 23.2325Z" fill="#C45673"/>
<path d="M25.4291 20.2722C25.3856 20.2722 25.3518 20.6567 25.1877 21.2511C25.097 21.5985 24.9767 21.9378 24.8279 22.2655C24.7403 22.452 24.6318 22.6284 24.5045 22.7916C24.3877 22.9556 24.2175 23.0762 24.0216 23.1336C23.9319 23.1619 23.836 23.1658 23.7442 23.145C23.6524 23.1243 23.5681 23.0796 23.5002 23.0157C23.3673 22.8661 23.2663 22.692 23.2032 22.5038C23.0647 22.1739 22.9619 21.8308 22.8966 21.48C22.7952 20.8761 22.8218 20.4868 22.7735 20.4821C22.7252 20.4774 22.6383 20.8666 22.6914 21.5059C22.7226 21.8811 22.8038 22.2506 22.9328 22.6052C23.0014 22.8328 23.12 23.0429 23.2805 23.2209C23.3807 23.3233 23.5089 23.3954 23.6498 23.4285C23.7901 23.4628 23.9369 23.4628 24.0771 23.4285C24.3401 23.3556 24.5695 23.1965 24.7266 22.9779C24.8654 22.7901 24.9805 22.5865 25.0694 22.3717C25.2176 22.0255 25.3277 21.6649 25.3977 21.296C25.5087 20.6685 25.4653 20.2722 25.4291 20.2722Z" fill="#C45673"/>
<path d="M33.1753 20.0646C33.1294 20.0646 33.1463 20.5081 33.0039 21.1899C32.9214 21.585 32.7909 21.9691 32.6152 22.334C32.5165 22.5383 32.377 22.7211 32.2048 22.8718C32.0258 23.0219 31.7984 23.1054 31.5626 23.1077C31.4476 23.0983 31.3359 23.0653 31.2348 23.0108C31.1337 22.9564 31.0455 22.8817 30.976 22.7916C30.8263 22.6165 30.7065 22.419 30.6211 22.2066C30.4643 21.8273 30.3533 21.4315 30.2904 21.0271C30.1817 20.3406 30.2276 19.9019 30.1817 19.8971C30.1359 19.8924 30.0248 20.3288 30.0828 21.053C30.1232 21.481 30.2231 21.9017 30.3797 22.3033C30.4671 22.5495 30.597 22.7793 30.7636 22.9827C30.8592 23.1022 30.9797 23.2005 31.117 23.2712C31.2543 23.3419 31.4053 23.3835 31.5602 23.3932C31.8686 23.3954 32.1669 23.2862 32.3979 23.0865C32.6039 22.9106 32.7686 22.6934 32.8808 22.4496C33.0541 22.0584 33.1711 21.6455 33.2284 21.2229C33.3032 20.5058 33.2091 20.0623 33.1753 20.0646Z" fill="#C45673"/>
<path d="M38.5496 27.2902C38.5907 27.2667 38.4362 27.0355 38.4144 26.625C38.4049 26.3843 38.4426 26.1441 38.5255 25.9173C38.6285 25.6407 38.776 25.3819 38.9624 25.1506C39.3056 24.7169 39.7279 24.349 40.2081 24.0655C40.5799 23.8461 40.8358 23.747 40.8237 23.7046C40.8117 23.6621 40.5292 23.7046 40.1116 23.8862C39.5662 24.1335 39.0912 24.5077 38.7283 24.9761C38.5208 25.2345 38.3637 25.5279 38.2648 25.8418C38.1848 26.1025 38.1658 26.3774 38.2092 26.6462C38.2913 27.1086 38.5279 27.3162 38.5496 27.2902Z" fill="#C45673"/>
<path d="M38.88 26.9434C38.892 26.9764 39.061 26.9575 39.2614 26.7877C39.3871 26.6737 39.4882 26.5363 39.5587 26.3836C39.6291 26.2308 39.6676 26.0658 39.6718 25.8983C39.6776 25.571 39.5843 25.2494 39.4038 24.9736C39.2662 24.7684 39.1455 24.6716 39.1141 24.6929C39.0828 24.7141 39.1383 24.8533 39.2155 25.0632C39.3222 25.326 39.3763 25.6062 39.3749 25.8889C39.3648 26.1628 39.2724 26.4278 39.1093 26.6508C38.9814 26.8231 38.8607 26.9033 38.88 26.9434Z" fill="#C45673"/>
<path d="M25.1665 26.4738C25.0628 26.4445 24.9619 26.4066 24.8648 26.3605C24.7658 26.3185 24.6817 26.2487 24.6233 26.16C24.6151 26.146 24.6107 26.1302 24.6107 26.114C24.6107 26.0979 24.6151 26.082 24.6233 26.068C24.6491 26.0258 24.6857 25.9908 24.7296 25.9666C24.7803 25.9359 24.8479 25.9005 24.9179 25.8675L25.0241 25.8203L25.1062 25.7873C25.1369 25.7668 25.1645 25.7422 25.1883 25.7142C25.2052 25.6929 25.2293 25.6576 25.2534 25.6198C25.2527 25.5231 25.2127 25.4307 25.1424 25.3627L25.07 25.3273L25.0386 25.3037L24.9831 25.266C24.9477 25.2411 24.9139 25.2143 24.8817 25.1857C24.8174 25.1297 24.7584 25.0681 24.7054 25.0017C24.6557 24.9389 24.6105 24.8727 24.5702 24.8036C24.5461 24.7423 24.5533 24.7517 24.5702 24.7305C24.6179 24.6983 24.6741 24.6803 24.732 24.6786C24.8044 24.675 24.8769 24.675 24.9493 24.6786L25.3717 24.6927C25.8908 24.6927 26.2143 24.6927 26.2167 24.6503C26.2191 24.6078 25.9028 24.5512 25.3886 24.4898L24.9662 24.4427H24.8503C24.8044 24.4403 24.7585 24.4403 24.7127 24.4427C24.6011 24.4423 24.4921 24.4761 24.4012 24.5394C24.339 24.5869 24.2982 24.6563 24.2878 24.7328C24.2792 24.8017 24.2918 24.8715 24.324 24.9333C24.3676 25.0236 24.421 25.109 24.4833 25.1881C24.5454 25.2725 24.6149 25.3514 24.6909 25.424C24.7296 25.457 24.7706 25.4924 24.8141 25.5231L24.8792 25.5679L24.9082 25.5868L24.7972 25.641C24.7247 25.6788 24.6547 25.7165 24.5775 25.7661C24.4939 25.8217 24.4272 25.8983 24.3843 25.9878C24.3637 26.0382 24.3554 26.0925 24.36 26.1466C24.3646 26.2006 24.382 26.2529 24.4109 26.2992C24.5 26.422 24.6256 26.5151 24.7706 26.5658C24.8308 26.5904 24.893 26.6101 24.9565 26.6247L25.1158 26.6601C25.5214 26.7427 25.7701 26.7781 25.7797 26.7427C25.7894 26.7073 25.5528 26.6059 25.1665 26.4738Z" fill="#C45673"/>
<path d="M24.9965 35.9384L12.3174 36.6838L14.2487 52.7581C14.2694 52.9275 14.3563 53.0825 14.4913 53.1907C14.6263 53.2989 14.7989 53.3518 14.9729 53.3384L23.0627 52.8454C23.2252 52.8357 23.3786 52.769 23.4948 52.6576C23.611 52.5463 23.6822 52.3977 23.6952 52.2391L24.9965 35.9384Z" fill="#F9A353"/>
<path d="M13.8887 49.8188L24.0981 47.021L24.8079 38.2667L12.8965 41.5292L13.8887 49.8188Z" fill="#F7BF54"/>
<g style="mix-blend-mode:multiply" opacity="0.14">
<g style="mix-blend-mode:multiply" opacity="0.14">
<path d="M12.3174 36.6838L14.2487 52.7581C14.2694 52.9275 14.3563 53.0825 14.4913 53.1907C14.6263 53.2988 14.7989 53.3518 14.9729 53.3384L21.4115 52.9468C19.6912 50.5082 18.3466 47.8361 17.4209 45.0158C16.52 42.2506 16.1261 39.3517 16.2573 36.4526L12.3174 36.6838Z" fill="#F9A353"/>
</g>
</g>
<path d="M25.008 34.4857L11.6228 35.2903C11.3247 35.3082 11.0979 35.5589 11.1162 35.8502L11.1672 36.6601C11.1855 36.9514 11.4421 37.173 11.7401 37.1551L25.1254 36.3506C25.4235 36.3326 25.6503 36.082 25.632 35.7907L25.581 34.9807C25.5626 34.6894 25.3061 34.4678 25.008 34.4857Z" fill="#F7BF54"/>
<g style="mix-blend-mode:multiply" opacity="0.2">
<g style="mix-blend-mode:multiply" opacity="0.2">
<path d="M47.6513 50.727C47.4687 48.7589 47.0639 46.8166 46.4442 44.9356C45.9614 43.4565 45.522 41.6801 44.3439 40.595C43.0089 39.366 41.2997 39.2362 39.786 39.8873L36.749 45.1479C36.9268 46.2295 37.2515 47.2831 37.7147 48.2807C38.2627 49.5522 38.8638 50.8284 39.2211 52.1542C40.8881 52.43 42.5738 52.5838 44.2642 52.6142C45.4474 52.6499 46.6313 52.5709 47.7986 52.3783C47.743 51.8074 47.6972 51.2672 47.6513 50.727Z" fill="#FF8DA8"/>
</g>
</g>
<path d="M37.4299 50.6678C40.6769 51.3755 44.6723 51.208 47.8107 49.7053C47.719 48.8207 46.6543 45.7327 46.5553 45.4095C45.848 43.0718 45.3483 40.616 43.4652 39.0402C41.7753 37.6059 39.4723 37.2497 37.6906 38.7241C37.2926 39.0698 36.9607 39.482 36.7105 39.9413C35.3899 42.2296 35.9235 45.518 36.6356 47.9384C36.8964 48.8474 37.1611 49.7572 37.4299 50.6678Z" fill="#DB5449"/>
<path d="M40.6382 34.8412C40.0829 33.6357 40.5754 32.468 39.8729 31.3027C39.5011 30.6917 38.8252 30.1232 38.5886 29.4343C38.3761 28.8281 38.3834 28.0189 38.3254 27.3655C38.1639 25.5856 38.3009 23.792 38.731 22.0553C38.7613 21.9633 38.772 21.8661 38.7624 21.7699C38.7232 21.6389 38.6461 21.5217 38.5403 21.4325C37.8116 20.6983 37.1349 19.9164 36.5148 19.0924L37.1232 22.2676C37.058 22.9187 36.9711 23.5627 36.8673 24.2233C36.6923 25.4869 36.3339 26.7197 35.8026 27.8845C34.569 30.4204 33.7893 33.723 35.0519 36.4123C35.5709 37.5139 36.6138 38.434 37.8474 38.559C39.4142 38.7147 41.0003 37.6154 42.4946 38.0872C41.7825 37.0587 41.1614 35.9728 40.6382 34.8412Z" fill="#AA4F7A"/>
<path d="M24.6461 58.9197C22.4733 57.7968 19.248 55.6902 19.6198 52.8759C19.7146 52.0018 19.9654 51.1506 20.3609 50.3612C20.6965 49.7596 21.0852 49.2194 20.7448 48.4905C20.5203 48.0187 19.965 47.6837 19.5715 47.3534C19.0769 46.961 18.6462 46.4972 18.2944 45.9781C18.2688 45.9481 18.2512 45.9124 18.2432 45.8741C18.2352 45.8358 18.237 45.7962 18.2486 45.7587C18.4707 45.3742 20.0568 46.2093 20.3078 46.365C21.0102 46.7936 21.588 47.3915 21.9857 48.1012C21.9422 48.021 22.0122 47.712 22.0002 47.6011C21.9692 47.4381 21.9173 47.2796 21.8456 47.1293C21.7427 46.8005 21.6169 46.4789 21.469 46.1668C21.1214 45.511 20.6265 44.9449 20.2161 44.3292C20.1106 44.1891 20.038 44.028 20.0037 43.8574C19.9874 43.7732 19.9965 43.6862 20.0299 43.6071C20.0634 43.5279 20.1197 43.46 20.192 43.4115C20.4334 43.2771 20.7255 43.4705 20.9307 43.6474C21.3773 44.039 21.935 44.4778 22.2054 45.0157C22.524 45.6479 22.7027 46.4004 22.9296 47.068C23.171 47.1175 22.8789 45.5016 22.8282 45.3553C22.6616 44.867 22.6158 44.4259 22.3188 43.9989C21.9326 43.4469 21.4304 42.8949 21.428 42.2249C21.42 42.1533 21.4304 42.0809 21.4582 42.0142C21.486 41.9475 21.5304 41.8886 21.5873 41.8428C21.7853 41.7225 22.0291 41.897 22.1836 42.0669C23.2821 43.2865 23.6635 44.9119 23.8542 46.4948L24.4867 44.0791C24.5374 43.8904 24.6581 43.6545 24.8537 43.6946C24.9162 43.7131 24.9722 43.7482 25.0154 43.796C25.561 44.3504 25.3679 45.1619 25.2279 45.8295C25.0661 46.6033 24.943 47.3865 24.8392 48.1697C24.7475 48.8561 24.5978 49.5379 24.5712 50.2314C24.5398 50.8542 24.9092 51.2434 25.4596 51.5501C25.7593 51.6896 26.0712 51.8024 26.3915 51.8875C26.7271 52.003 27.0312 52.1965 27.3765 52.3003" fill="#FF8DA8"/>
<path d="M42.7113 20.9042C40.6738 20.2602 38.2548 20.213 36.1376 20.2225H36.1183C35.8189 17.9885 34.187 16.2735 32.2315 16.2735C30.3895 16.2735 28.8517 17.788 28.4172 19.8238C28.1102 19.5447 27.7066 19.3896 27.2873 19.3896C26.8681 19.3896 26.4644 19.5447 26.1575 19.8238C25.7906 17.7007 24.1996 16.0777 22.2949 16.0777C20.1222 16.0777 18.3574 18.1796 18.3574 20.7627C18.3574 23.3458 20.1222 25.4477 22.2949 25.4477C24.4676 25.4477 26.2324 23.3458 26.2324 20.7627C26.2324 20.6896 26.2324 20.6188 26.2324 20.5457C26.3191 20.3443 26.4654 20.1728 26.6523 20.053C26.8393 19.9332 27.0586 19.8706 27.2822 19.8731C27.5057 19.8757 27.7235 19.9432 27.9076 20.0672C28.0917 20.1912 28.2338 20.366 28.3158 20.5693C28.3158 20.699 28.2989 20.8287 28.2989 20.9609C28.2989 23.5558 30.066 25.6459 32.2363 25.6459C34.4066 25.6459 36.1738 23.5416 36.1738 20.9585C36.1738 20.8759 36.1738 20.7981 36.1738 20.7226C37.7315 20.7141 39.2876 20.8229 40.8283 21.0481C41.4197 21.1354 42.0064 21.2534 42.5906 21.3855C43.8146 21.6638 44.0391 22.8268 44.097 23.853C44.1163 24.1715 44.6281 24.1738 44.6064 23.853C44.5026 22.4848 44.1405 21.3501 42.7113 20.9042ZM22.2997 24.8461C20.465 24.8461 18.9754 23.0132 18.9754 20.7603C18.9754 18.5075 20.465 16.6745 22.2997 16.6745C24.1345 16.6745 25.624 18.5075 25.624 20.7603C25.624 23.0132 24.1321 24.8461 22.2997 24.8461ZM32.2315 25.0443C30.3992 25.0443 28.9072 23.2114 28.9072 20.9585C28.9072 18.7056 30.3992 16.8727 32.2315 16.8727C34.0638 16.8727 35.5582 18.7056 35.5582 20.9585C35.5582 23.2114 34.0663 25.0443 32.2315 25.0443Z" fill="#F7BF54"/>
</g>
<defs>
<linearGradient id="paint0_linear_0_3665" x1="56.8413" y1="56.918" x2="-17.8381" y2="51.1436" gradientUnits="userSpaceOnUse">
<stop stop-color="#00FF66"/>
<stop offset="1" stop-color="#00F0FF"/>
</linearGradient>
</defs>
</svg>
