<svg width="66" height="53" viewBox="0 0 66 53" fill="none" xmlns="http://www.w3.org/2000/svg">
<path d="M28.3613 0.791451L24.957 4.18237L61.4501 40.5328L64.8543 37.1419L28.3613 0.791451Z" fill="#858585"/>
<path d="M41.8035 13.7028L37.9409 17.5503L48.557 28.1248L52.4196 24.2773L41.8035 13.7028Z" fill="#2C3E50"/>
<path d="M61.4306 19.4101L43.6516 37.1196L46.5486 40.0052L64.3275 22.2957L61.4306 19.4101Z" fill="#383838"/>
<path d="M61.4396 19.4053L43.6606 37.1147L45.1091 38.5576L62.8881 20.8481L61.4396 19.4053Z" fill="#1F1F1F"/>
<path d="M63.1672 23.4564L47.7229 38.8403L50.2409 41.3485L65.6852 25.9646L63.1672 23.4564Z" fill="#383838"/>
<path d="M63.1611 23.459L47.7168 38.8429L49.0369 40.1579L64.4812 24.7739L63.1611 23.459Z" fill="#1F1F1F"/>
<path d="M64.0185 27.6186L51.8989 39.6907L53.873 41.6571L65.9925 29.5849L64.0185 27.6186Z" fill="#383838"/>
<path d="M64.0241 27.621L51.9045 39.6931L52.8946 40.6793L65.0142 28.6072L64.0241 27.621Z" fill="#1F1F1F"/>
<path d="M62.7378 32.828L57.0967 38.4471L58.9302 40.2734L64.5713 34.6544L62.7378 32.828Z" fill="#2B2B2B"/>
<path d="M62.3176 35.6346L62.9572 36.2717L64.3141 34.92L63.6745 34.2829C63.5869 34.1947 63.4826 34.1246 63.3676 34.0768C63.2527 34.029 63.1293 34.0044 63.0047 34.0044C62.8801 34.0044 62.7567 34.029 62.6418 34.0768C62.5268 34.1246 62.4225 34.1947 62.3348 34.2829C62.2425 34.3693 62.1686 34.4734 62.1175 34.5889C62.0664 34.7044 62.0393 34.8289 62.0377 34.9551C62.0361 35.0813 62.06 35.2065 62.1081 35.3233C62.1562 35.44 62.2274 35.5459 62.3176 35.6346Z" fill="#0F0F0F"/>
<path d="M58.5147 39.4228L59.1456 40.0599L60.5026 38.7427L59.863 38.1142C59.7754 38.0259 59.6711 37.9559 59.5561 37.9081C59.4411 37.8603 59.3178 37.8356 59.1932 37.8356C59.0686 37.8356 58.9452 37.8603 58.8302 37.9081C58.7153 37.9559 58.6109 38.0259 58.5233 38.1142C58.3511 38.2882 58.2538 38.5224 58.2522 38.7667C58.2506 39.0111 58.3448 39.2465 58.5147 39.4228Z" fill="#0F0F0F"/>
<path d="M60.4335 37.5115L61.0731 38.1486L62.4301 36.7969L61.7905 36.1598C61.7029 36.0716 61.5986 36.0015 61.4836 35.9537C61.3686 35.9059 61.2453 35.8813 61.1207 35.8813C60.9961 35.8813 60.8727 35.9059 60.7577 35.9537C60.6427 36.0015 60.5384 36.0716 60.4508 36.1598C60.3585 36.2462 60.2845 36.3503 60.2335 36.4658C60.1824 36.5813 60.1553 36.7058 60.1536 36.832C60.152 36.9582 60.176 37.0834 60.2241 37.2002C60.2722 37.3169 60.3434 37.4228 60.4335 37.5115Z" fill="#0F0F0F"/>
<path d="M43.6193 1.65733L25.8403 19.3668L28.7373 22.2525L46.5163 4.54296L43.6193 1.65733Z" fill="#383838"/>
<path d="M45.0649 3.09892L27.2859 20.8084L28.7344 22.2512L46.5133 4.54174L45.0649 3.09892Z" fill="#1F1F1F"/>
<path d="M39.9331 0.307955L24.4888 15.6919L27.0068 18.2001L42.4511 2.81614L39.9331 0.307955Z" fill="#383838"/>
<path d="M41.1308 1.50474L25.6865 16.8887L27.0067 18.2036L42.451 2.81971L41.1308 1.50474Z" fill="#1F1F1F"/>
<path d="M36.2924 -0.000627762L24.1729 12.0715L26.1469 14.0379L38.2665 1.96574L36.2924 -0.000627762Z" fill="#383838"/>
<path d="M37.2855 0.9832L25.166 13.0554L26.1561 14.0416L38.2756 1.96943L37.2855 0.9832Z" fill="#1F1F1F"/>
<path d="M31.2007 1.42671L25.5596 7.04578L27.3931 8.87212L33.0342 3.25306L31.2007 1.42671Z" fill="#2B2B2B"/>
<path d="M30.2512 3.66761L29.6116 3.0305L30.9426 1.72186L31.5822 2.35896C31.757 2.53745 31.8548 2.77689 31.8548 3.0262C31.8548 3.27551 31.757 3.51495 31.5822 3.69344C31.4001 3.86152 31.1597 3.95273 30.9115 3.94792C30.6633 3.9431 30.4266 3.84262 30.2512 3.66761Z" fill="#0F0F0F"/>
<path d="M26.4135 7.45577L25.7739 6.81867L27.1309 5.46698L27.7705 6.10408C27.8591 6.19135 27.9294 6.29526 27.9774 6.4098C28.0254 6.52433 28.0502 6.64721 28.0502 6.77132C28.0502 6.89543 28.0254 7.01831 27.9774 7.13284C27.9294 7.24737 27.8591 7.35128 27.7705 7.43855C27.6838 7.53055 27.5793 7.60419 27.4634 7.65505C27.3474 7.70591 27.2224 7.73295 27.0957 7.73456C26.969 7.73617 26.8433 7.71231 26.7261 7.6644C26.6089 7.6165 26.5026 7.54554 26.4135 7.45577Z" fill="#0F0F0F"/>
<path d="M28.341 5.54446L27.7014 4.90735L29.0584 3.55566L29.698 4.19277C29.8728 4.37125 29.9706 4.61069 29.9706 4.86C29.9706 5.10931 29.8728 5.34875 29.698 5.52724C29.6101 5.61715 29.5052 5.68891 29.3894 5.73844C29.2736 5.78797 29.1491 5.81428 29.0231 5.81588C28.8971 5.81748 28.772 5.79433 28.655 5.74776C28.5379 5.70119 28.4312 5.6321 28.341 5.54446Z" fill="#0F0F0F"/>
<path d="M4.19011 12.1305L0.785889 15.5214L37.2789 51.8718L40.6832 48.4809L4.19011 12.1305Z" fill="#858585"/>
<path d="M17.6299 25.0357L13.7673 28.8832L24.3834 39.4577L28.246 35.6102L17.6299 25.0357Z" fill="#2C3E50"/>
<path d="M37.257 30.743L19.478 48.4525L22.375 51.3381L40.154 33.6287L37.257 30.743Z" fill="#383838"/>
<path d="M37.2599 30.7443L19.481 48.4538L20.9294 49.8966L38.7084 32.1871L37.2599 30.7443Z" fill="#1F1F1F"/>
<path d="M38.9961 34.7954L23.5518 50.1793L26.0698 52.6875L41.5141 37.3036L38.9961 34.7954Z" fill="#383838"/>
<path d="M38.9936 34.7979L23.5493 50.1819L24.8694 51.4969L40.3137 36.1129L38.9936 34.7979Z" fill="#1F1F1F"/>
<path d="M39.8473 38.9576L27.7278 51.0298L29.7019 52.9962L41.8214 40.924L39.8473 38.9576Z" fill="#383838"/>
<path d="M39.8529 38.9599L27.7334 51.0321L28.7235 52.0183L40.843 39.9462L39.8529 38.9599Z" fill="#1F1F1F"/>
<path d="M38.5642 44.1817L32.9231 49.8008L34.7566 51.6271L40.3977 46.0081L38.5642 44.1817Z" fill="#2B2B2B"/>
<path d="M38.1424 46.9733L38.782 47.6104L40.139 46.2587L39.4994 45.6302C39.4118 45.542 39.3075 45.4719 39.1925 45.4241C39.0775 45.3763 38.9542 45.3517 38.8296 45.3517C38.705 45.3517 38.5816 45.3763 38.4666 45.4241C38.3517 45.4719 38.2473 45.542 38.1597 45.6302C38.0687 45.7165 37.9959 45.82 37.9456 45.9347C37.8954 46.0494 37.8686 46.173 37.867 46.2981C37.8654 46.4233 37.889 46.5475 37.9363 46.6634C37.9836 46.7794 38.0537 46.8848 38.1424 46.9733Z" fill="#0F0F0F"/>
<path d="M34.3394 50.7959L34.979 51.4244L36.3015 50.0469L35.6705 49.4184C35.5821 49.3299 35.4771 49.2597 35.3614 49.2118C35.2457 49.1638 35.1216 49.1392 34.9963 49.1392C34.871 49.1392 34.7469 49.1638 34.6312 49.2118C34.5155 49.2597 34.4105 49.3299 34.3221 49.4184C34.2291 49.5081 34.1554 49.6158 34.1056 49.7349C34.0558 49.854 34.0309 49.9819 34.0325 50.1109C34.0342 50.2399 34.0622 50.3672 34.115 50.485C34.1678 50.6028 34.2441 50.7086 34.3394 50.7959Z" fill="#0F0F0F"/>
<path d="M36.3014 48.8502L36.941 49.4873L38.298 48.1356L37.6584 47.4985C37.5708 47.4103 37.4665 47.3402 37.3515 47.2924C37.2365 47.2446 37.1132 47.22 36.9886 47.22C36.864 47.22 36.7406 47.2446 36.6256 47.2924C36.5107 47.3402 36.4063 47.4103 36.3187 47.4985C36.2264 47.5849 36.1524 47.6889 36.1014 47.8044C36.0503 47.9199 36.0232 48.0445 36.0216 48.1707C36.0199 48.2969 36.0439 48.4221 36.092 48.5389C36.1401 48.6556 36.2113 48.7615 36.3014 48.8502Z" fill="#0F0F0F"/>
<path d="M19.4396 13.005L1.66064 30.7145L4.5576 33.6001L22.3366 15.8906L19.4396 13.005Z" fill="#383838"/>
<path d="M20.8937 14.4379L3.11475 32.1474L4.56322 33.5902L22.3422 15.8807L20.8937 14.4379Z" fill="#1F1F1F"/>
<path d="M15.7534 11.647L0.309082 27.0309L2.82711 29.5391L18.2714 14.1552L15.7534 11.647Z" fill="#383838"/>
<path d="M16.9511 12.8523L1.50684 28.2363L2.82697 29.5512L18.2713 14.1673L16.9511 12.8523Z" fill="#1F1F1F"/>
<path d="M12.1215 11.3384L0.00195312 23.4105L1.97604 25.3769L14.0956 13.3047L12.1215 11.3384Z" fill="#383838"/>
<path d="M13.1059 12.3222L0.986328 24.3944L1.97643 25.3806L14.096 13.3085L13.1059 12.3222Z" fill="#1F1F1F"/>
<path d="M7.02954 12.7657L1.38843 18.3848L3.22194 20.2111L8.86306 14.5921L7.02954 12.7657Z" fill="#2B2B2B"/>
<path d="M6.05 15.0063L5.4104 14.3692L6.76739 13.0175L7.40699 13.6546C7.49558 13.7419 7.56592 13.8458 7.61392 13.9603C7.66192 14.0749 7.68663 14.1977 7.68663 14.3219C7.68663 14.446 7.66192 14.5688 7.61392 14.6834C7.56592 14.7979 7.49558 14.9018 7.40699 14.9891C7.32027 15.0811 7.21581 15.1547 7.09986 15.2056C6.98391 15.2564 6.85886 15.2835 6.73217 15.2851C6.60549 15.2867 6.47978 15.2628 6.36257 15.2149C6.24536 15.167 6.13905 15.0961 6.05 15.0063Z" fill="#0F0F0F"/>
<path d="M2.23838 18.7945L1.60742 18.166L2.96442 16.8143L3.59537 17.4428C3.68423 17.5308 3.75474 17.6355 3.80285 17.7507C3.85097 17.866 3.87574 17.9895 3.87574 18.1144C3.87574 18.2392 3.85097 18.3628 3.80285 18.478C3.75474 18.5933 3.68423 18.6979 3.59537 18.7859C3.50745 18.8763 3.40232 18.9483 3.28613 18.9977C3.16994 19.0472 3.04503 19.073 2.91869 19.0738C2.79235 19.0746 2.66712 19.0504 2.55031 19.0024C2.4335 18.9544 2.32746 18.8838 2.23838 18.7945Z" fill="#0F0F0F"/>
<path d="M4.16572 16.8832L3.52612 16.2461L4.88312 14.8944L5.52272 15.5315C5.61131 15.6188 5.68164 15.7227 5.72964 15.8372C5.77764 15.9518 5.80235 16.0746 5.80235 16.1987C5.80235 16.3229 5.77764 16.4457 5.72964 16.5603C5.68164 16.6748 5.61131 16.7787 5.52272 16.866C5.436 16.958 5.33154 17.0316 5.21559 17.0825C5.09964 17.1333 4.97458 17.1604 4.8479 17.162C4.72121 17.1636 4.5955 17.1397 4.47829 17.0918C4.36108 17.0439 4.25477 16.973 4.16572 16.8832Z" fill="#0F0F0F"/>
</svg>
