<svg width="57" height="57" viewBox="0 0 57 57" fill="none" xmlns="http://www.w3.org/2000/svg">
<ellipse opacity="0.3" cx="28.8254" cy="28.6002" rx="28.0159" ry="28.0374" fill="url(#paint0_linear_0_3597)"/>
<mask id="mask0_0_3597" style="mask-type:alpha" maskUnits="userSpaceOnUse" x="0" y="0" width="57" height="57">
<ellipse cx="28.8254" cy="28.6002" rx="28.0159" ry="28.0374" fill="#C4C4C4"/>
</mask>
<g mask="url(#mask0_0_3597)">
<path d="M39.5045 37.8804C40.4825 38.0879 41.4928 38.0921 42.4725 37.8927C43.4522 37.6933 44.3806 37.2946 45.2 36.7213C45.5327 36.4998 45.8237 36.2212 46.0594 35.8983C46.4957 35.2608 46.5524 34.4291 46.3953 33.6738C46.2187 32.8246 45.6297 32.0867 45.5817 31.2266C45.5315 30.3316 46.042 29.6985 46.4935 28.9672C48.2277 26.1817 47.0759 22.7128 44.2904 21.1673C43.4178 20.6783 42.3729 20.3683 41.7425 19.5824C41.427 19.1461 41.1941 18.6555 41.0554 18.135C40.401 16.0721 39.7139 14.2056 38.2197 12.5924C36.7255 10.9791 34.0424 10.3155 31.9265 10.8241C30.2949 11.2171 28.8464 11.4943 27.1799 11.3284C26.3641 11.2454 25.5395 11.2957 24.7215 11.2716C22.9764 11.2214 21.1092 12.1165 19.9357 13.3783C18.581 14.8343 17.9943 17.0239 18.6268 18.9144C18.9846 19.9928 19.3009 20.5516 18.8057 21.6563C18.3913 22.5797 17.6736 23.3306 17.1806 24.2104C16.5821 25.3281 16.3482 26.6053 16.5117 27.8628C16.6752 29.1203 17.228 30.2951 18.0924 31.2222C18.4734 31.6354 18.9423 31.9577 19.4645 32.1653C20.0927 32.3836 20.7733 32.3836 21.4277 32.4687C22.1803 32.5648 22.9546 32.8115 23.4411 33.3965C23.7879 33.8179 23.9384 34.3658 24.1827 34.857C24.427 35.3481 24.8371 35.824 25.3825 35.8655C25.8056 35.8983 26.2005 35.6603 26.5277 35.3918" fill="#CE534A"/>
<g style="mix-blend-mode:multiply" opacity="0.26">
<g style="mix-blend-mode:multiply" opacity="0.26">
<path d="M28.5386 12.6795C27.3305 12.7663 26.1282 12.9201 24.9372 13.1401C23.992 13.2794 23.0734 13.5613 22.2127 13.9762C21.3685 14.4128 20.6225 15.1158 20.2888 16.0108C19.4751 18.1938 21.3053 20.6825 20.5963 22.9069C20.0008 24.78 17.8238 26.2513 19.1239 28.3492C20.2844 30.2179 23.3601 29.5564 24.8107 31.2832C25.9013 32.5712 25.8708 34.7345 27.3432 35.551C28.3968 36.136 29.7012 35.7125 30.8334 35.2737C31.7495 34.9157 32.7791 34.4355 33.0431 33.4859C33.1936 32.9423 33.0431 32.366 32.9515 31.8093C32.6617 30.1959 32.7438 28.5376 33.1914 26.9608C33.4597 26.0068 33.8654 25.0681 33.8611 24.0792C33.8567 23.0903 33.2808 21.9988 32.3058 21.8307" fill="#CE534A"/>
</g>
</g>
<path d="M44.3971 56.4971C44.385 56.3919 44.3993 56.2854 44.4385 56.1871C45.1257 54.3725 45.423 52.4333 45.3111 50.496C45.2216 48.7124 44.8246 46.9551 44.9751 45.165C44.9833 45.0357 45.0289 44.9115 45.1063 44.8076C45.1838 44.7037 45.2898 44.6246 45.4114 44.58C45.3263 44.1936 45.2282 43.805 45.1126 43.4164C44.3273 40.775 42.9814 38.103 40.6408 36.5203C39.7508 35.9178 38.6776 35.6471 37.7331 35.1493C35.6346 34.0753 34.6247 30.5934 36.1603 28.6199C36.7187 27.9017 37.408 27.2556 37.7331 26.4064C38.9263 26.3605 40.4816 26.0767 41.0749 24.9372C41.8056 23.5379 41.4784 21.0842 39.5785 21.0078C39.2812 20.9902 38.9846 21.0516 38.7188 21.1858C38.4529 21.32 38.2272 21.5222 38.0646 21.7718C38.2201 20.103 38.0422 18.42 37.5411 16.8207C37.2924 16.0261 37.1245 15.6201 36.4962 15.0743C35.8782 14.5246 35.2116 14.0322 34.5047 13.603C33.322 12.9275 32.0024 12.5274 30.644 12.4326C29.2856 12.3377 27.9233 12.5505 26.6584 13.055C25.8074 13.3708 25.0434 13.8841 24.4291 14.5526C23.5369 15.5851 23.2053 16.9845 23.0112 18.3314C22.6727 20.6946 22.6647 23.0935 22.9872 25.4589C23.1202 26.4282 23.3188 27.4236 23.8597 28.2292C24.3571 28.9692 25.1903 29.5892 26.076 29.6874C26.9616 29.7857 27.7643 29.7966 28.6347 29.8228C29.2607 29.8402 29.9086 29.9167 30.4452 30.2397C31.477 30.8619 31.477 32.032 30.8509 32.9554C30.709 33.177 30.5188 33.3635 30.2947 33.5012C29.5356 33.9378 28.5496 33.5012 27.7382 33.5295C26.8111 33.5514 26.0302 33.6016 25.2056 34.084C24.2793 34.6215 23.4302 35.2824 22.6818 36.0488C21.3272 37.4328 20.2431 39.0482 19.0542 40.5698C18.4151 41.384 17.7454 42.2289 16.79 42.6415C15.5728 43.1676 14.6086 42.183 13.987 41.2007C13.2621 40.0678 12.6596 38.8611 12.1895 37.6009C10.6229 38.2455 9.10628 39.0058 7.65234 39.8756C7.66979 39.9847 7.68288 40.0808 7.69379 40.1463C7.82685 41.0391 8.2653 41.8927 8.51179 42.7659C8.78691 43.7404 9.12948 44.6945 9.53702 45.6213C9.91954 46.4823 10.3567 47.3179 10.8458 48.123C11.2821 48.8609 11.8231 49.9415 12.5233 50.4676C13.8321 51.4499 16.0985 51.0963 17.4815 50.5287C19.737 49.5987 21.4951 48.0837 23.0395 46.2456C22.8353 49.5116 22.3647 52.7555 21.6326 55.9448C21.6018 56.0067 21.5862 56.075 21.587 56.1441C21.5878 56.2132 21.605 56.2812 21.6372 56.3423C21.6693 56.4035 21.7156 56.4561 21.772 56.496C21.8285 56.5358 21.8936 56.5616 21.962 56.5713C24.4511 57.6433 27.0564 58.4221 29.7254 58.8919C32.1248 59.3175 35.1176 60.0489 37.3143 58.6452C37.4463 58.5373 37.6071 58.4705 37.7767 58.4531C37.8859 58.4607 37.9926 58.4897 38.0908 58.5382C39.6341 59.1401 41.3163 59.2915 42.9421 58.9748C43.5316 58.215 44.0207 57.3822 44.3971 56.4971Z" fill="#FF927D"/>
<path d="M44.3963 56.497C44.3843 56.3919 44.3986 56.2854 44.4378 56.187C45.125 54.3724 45.4223 52.4332 45.3103 50.4959C45.2209 48.7124 44.8239 46.9551 44.9744 45.165C44.9826 45.0356 45.0282 44.9114 45.1056 44.8075C45.1831 44.7037 45.2891 44.6246 45.4107 44.5799C45.3256 44.1935 45.2274 43.805 45.1118 43.4164C44.3265 40.7749 42.9807 38.1029 40.6401 36.5202C39.7501 35.9177 38.6769 35.647 37.7323 35.1493C37.4978 35.03 37.2781 34.8835 37.0779 34.7127C36.0173 35.5697 34.6842 36.0168 33.3217 35.9723C32.5719 35.9205 31.8462 35.686 31.2079 35.2891C30.5695 34.8922 30.0378 34.3451 29.6592 33.6954C29.0353 33.7456 28.3504 33.5229 27.7527 33.5382C26.8256 33.5601 26.0447 33.6103 25.2202 34.0927C24.2938 34.6302 23.4448 35.2911 22.6963 36.0574C21.5948 37.1817 20.6721 38.4588 19.7275 39.7162C20.3645 41.1766 21.6733 42.3773 22.5022 43.7897C22.8603 44.3336 23.0569 44.9679 23.0694 45.6191C23.0528 45.8842 23.0052 46.1465 22.9276 46.4006L23.0454 46.263C22.8411 49.529 22.3705 52.7729 21.6384 55.9622C21.6077 56.0241 21.5921 56.0924 21.5929 56.1615C21.5937 56.2306 21.6109 56.2986 21.643 56.3597C21.6752 56.4209 21.7214 56.4736 21.7778 56.5134C21.8343 56.5532 21.8994 56.579 21.9678 56.5887C24.457 57.6608 27.0623 58.4395 29.7312 58.9093C32.1307 59.335 35.1235 60.0663 37.3201 58.6626C37.4522 58.5547 37.6129 58.4879 37.7825 58.4705C37.8918 58.4781 37.9985 58.5071 38.0966 58.5556C39.6399 59.1575 41.3221 59.3089 42.9479 58.9922C43.5365 58.2266 44.0233 57.3879 44.3963 56.497Z" fill="#AA4F7A"/>
<path d="M23.847 18.0411C24.4796 17.9188 26.0524 16.9932 25.8386 16.1681C25.6074 15.2817 24.2157 16.1069 23.8754 16.4911C23.6376 16.7618 23.0028 17.4691 23.1861 17.8402C23.2995 18.0607 23.6049 18.0869 23.847 18.0411Z" fill="#C46153"/>
<path d="M32.5887 16.9366C31.9495 17.0239 30.163 16.6572 30.0998 15.8058C30.0321 14.8911 31.6158 15.223 32.063 15.4784C32.3771 15.6596 33.2082 16.1224 33.1536 16.5328C33.1122 16.7773 32.833 16.9017 32.5887 16.9366Z" fill="#C46153"/>
<path d="M29.0445 22.1409C29.027 22.1409 28.9681 22.2304 28.8482 22.3942C28.6809 22.6233 28.4852 22.8301 28.2657 23.0098C28.1289 23.1322 27.9641 23.2192 27.7858 23.263C27.712 23.2788 27.635 23.2688 27.5677 23.2346C27.5677 23.2237 27.5677 23.2346 27.5677 23.1844C27.5677 23.1342 27.6048 23.084 27.6244 23.0272C27.8082 22.5262 27.9469 22.0096 28.0389 21.4838C28.2112 20.5291 28.223 19.5522 28.0738 18.5935C27.9604 17.8579 27.7924 17.4278 27.7662 17.4365C27.74 17.4453 27.8317 17.8884 27.8971 18.6154C28.045 20.0783 27.8776 21.556 27.4063 22.9487C27.3867 23.0076 27.367 23.0556 27.3474 23.132C27.3373 23.1773 27.3373 23.2243 27.3474 23.2696C27.3597 23.3213 27.3879 23.3679 27.4281 23.4027C27.4906 23.4514 27.567 23.479 27.6462 23.4813C27.7112 23.4859 27.7766 23.4815 27.8404 23.4682C28.0509 23.4111 28.2427 23.2997 28.3966 23.1451C28.6179 22.9449 28.8037 22.7088 28.9463 22.4466C29.0292 22.261 29.0598 22.1475 29.0445 22.1409Z" fill="#C46153"/>
<path d="M29.6747 23.4005C29.6376 23.4005 29.5918 23.5095 29.4806 23.66C29.3467 23.8576 29.1546 24.0086 28.931 24.0918C28.7074 24.1751 28.4633 24.1866 28.2328 24.1247C28.0496 24.0832 27.9384 24.0265 27.9165 24.057C27.8947 24.0876 27.9754 24.1966 28.1739 24.2926C28.3053 24.3543 28.4476 24.3891 28.5925 24.3951C28.7375 24.4011 28.8822 24.3781 29.0181 24.3275C29.2917 24.2243 29.5135 24.0174 29.6354 23.7516C29.7227 23.5444 29.7053 23.4048 29.6747 23.4005Z" fill="#C46153"/>
<path d="M26.2415 19.8904C26.2044 19.8904 26.1782 20.244 26.0844 20.805C26.0293 21.1319 25.9565 21.4554 25.8663 21.7743C25.8179 21.9522 25.7381 22.12 25.6307 22.2699C25.5939 22.3491 25.5341 22.4154 25.4592 22.4602C25.3843 22.5051 25.2977 22.5264 25.2105 22.5215C25.1234 22.5166 25.0397 22.4856 24.9703 22.4325C24.901 22.3795 24.8491 22.3069 24.8214 22.224C24.7311 22.0588 24.658 21.8847 24.6033 21.7045C24.4944 21.3951 24.4212 21.0743 24.3852 20.7483C24.3263 20.1873 24.3852 19.8336 24.3372 19.8271C24.2892 19.8205 24.1932 20.1698 24.2063 20.7592C24.2178 21.1045 24.2757 21.4467 24.3786 21.7765C24.4368 21.9759 24.5165 22.1685 24.6164 22.3506C24.6736 22.4543 24.7473 22.5479 24.8345 22.6279C24.9359 22.7192 25.0649 22.7737 25.201 22.7829C25.3367 22.789 25.4707 22.7507 25.5827 22.6737C25.6823 22.6063 25.7694 22.5221 25.8401 22.4248C25.9622 22.2492 26.0502 22.0523 26.0997 21.8442C26.1799 21.5118 26.2353 21.174 26.2655 20.8334C26.3113 20.2593 26.2742 19.8904 26.2415 19.8904Z" fill="#C46153"/>
<path d="M32.9364 19.0367C32.8971 19.0367 32.9364 19.4318 32.8841 20.0518C32.8538 20.4143 32.7969 20.774 32.7139 21.128C32.6693 21.3326 32.6065 21.5328 32.5263 21.7262C32.4967 21.8168 32.4432 21.8978 32.3714 21.9604C32.2996 22.023 32.2122 22.0651 32.1184 22.082C31.916 22.074 31.7239 21.9907 31.5796 21.8484C31.4253 21.7085 31.2943 21.5449 31.1913 21.3638C31.0115 21.0514 30.8716 20.7177 30.7747 20.3705C30.6111 19.7724 30.6155 19.3795 30.5762 19.3795C30.5369 19.3795 30.478 19.7768 30.6024 20.412C30.6776 20.7843 30.8077 21.1433 30.9885 21.4773C31.0969 21.6844 31.2392 21.8718 31.4095 22.0318C31.6013 22.2232 31.8606 22.3314 32.1315 22.3331C32.2802 22.3224 32.4202 22.2589 32.5263 22.1541C32.6178 22.0603 32.6917 21.9509 32.7444 21.831C32.8296 21.6198 32.8924 21.4003 32.932 21.1761C33.0096 20.8085 33.0505 20.4341 33.0542 20.0584C33.0564 19.4187 32.956 19.0324 32.9364 19.0367Z" fill="#C46153"/>
<path d="M39.986 21.6805C39.9707 21.6543 39.7177 21.7569 39.3795 22.0407C38.9401 22.4159 38.6011 22.8948 38.3931 23.4342C38.1852 23.9735 38.1149 24.5562 38.1885 25.1296C38.2496 25.5662 38.3674 25.8129 38.4067 25.8042C38.4459 25.7954 38.387 25.5335 38.3739 25.1143C38.3528 24.5719 38.4427 24.0308 38.6381 23.5244C38.8335 23.0179 39.1304 22.5569 39.5104 22.1695C39.7918 21.8682 40.0078 21.7132 39.986 21.6805Z" fill="#C46153"/>
<path d="M38.747 25.3653C38.7623 25.3914 38.915 25.3391 39.0873 25.147C39.3093 24.8937 39.4264 24.5652 39.4146 24.2284C39.4029 23.8917 39.2632 23.5722 39.0241 23.335C38.8496 23.1582 38.7078 23.0971 38.6882 23.1167C38.6685 23.1364 38.7623 23.2565 38.8867 23.4442C39.0502 23.6759 39.1454 23.949 39.1615 24.2323C39.1675 24.5162 39.0918 24.7958 38.9434 25.0378C38.8256 25.2343 38.7231 25.3347 38.747 25.3653Z" fill="#C46153"/>
<path d="M39.1751 27.1205C40.0193 27.1205 40.0193 25.8107 39.1751 25.8107C38.3309 25.8107 38.3309 27.1205 39.1751 27.1205Z" fill="#FFF5FF"/>
<g style="mix-blend-mode:multiply" opacity="0.33">
<g style="mix-blend-mode:multiply" opacity="0.33">
<path d="M33.9972 26.623C35.0754 26.623 35.9495 25.7482 35.9495 24.6692C35.9495 23.5901 35.0754 22.7154 33.9972 22.7154C32.919 22.7154 32.0449 23.5901 32.0449 24.6692C32.0449 25.7482 32.919 26.623 33.9972 26.623Z" fill="#FF927D"/>
</g>
<g style="mix-blend-mode:multiply" opacity="0.33">
<path d="M22.9941 23.2939C22.9243 23.2939 22.8567 23.2939 22.7891 23.3049C22.8261 24.0253 22.8894 24.7457 22.9876 25.4595C23.0562 26.0389 23.1796 26.6105 23.3562 27.1666C23.8329 27.0752 24.2585 26.8093 24.5499 26.4209C24.8414 26.0325 24.9778 25.5493 24.9326 25.0657C24.8873 24.5821 24.6637 24.1326 24.3053 23.8051C23.9469 23.4775 23.4795 23.2953 22.9941 23.2939Z" fill="#FF927D"/>
</g>
</g>
<path d="M38.4077 35.4619C38.1765 35.3637 37.9475 35.2611 37.7228 35.1454C37.4882 35.0261 37.2686 34.8796 37.0684 34.7088C36.0077 35.5658 34.6746 36.0129 33.3121 35.9684C32.5624 35.9166 31.8367 35.6821 31.1983 35.2852C30.5599 34.8883 30.0282 34.3412 29.6496 33.6915C29.2106 33.6964 28.7722 33.6576 28.3408 33.5758C28.6056 34.3519 29.0302 35.0637 29.587 35.6654C30.1439 36.267 30.8206 36.745 31.5736 37.0686C32.4824 37.4277 33.4637 37.5647 34.436 37.4683C35.4083 37.3718 36.3436 37.0447 37.1644 36.5141C37.6197 36.2149 38.0372 35.8616 38.4077 35.4619Z" fill="#9B4471"/>
<g style="mix-blend-mode:multiply" opacity="0.21">
<g style="mix-blend-mode:multiply" opacity="0.21">
<path d="M28.4531 12.3347C29.498 13.4262 29.6878 15.0548 29.9059 16.5523C30.124 18.0499 30.5232 19.6893 31.7731 20.5363C32.4275 20.9729 33.2215 21.1366 34.0003 21.2152C35.739 21.3885 37.4947 21.2035 39.1592 20.6717C37.7625 19.4157 36.8136 17.7379 36.4565 15.893" fill="#FF927D"/>
</g>
</g>
<path d="M28.6586 12.0661C29.47 12.5704 29.8779 13.5309 30.0808 14.4674C30.2837 15.4039 30.3338 16.3732 30.6698 17.2704C31.1297 18.4266 31.972 19.3898 33.0562 19.9992C34.5962 20.8964 35.9922 20.7261 37.6588 20.9182C38.025 20.9782 38.3985 20.9782 38.7647 20.9182C38.9462 20.8941 39.1184 20.8232 39.2644 20.7127C39.4105 20.6021 39.5254 20.4556 39.598 20.2873C38.5226 19.3901 38.8062 18.6326 38.2717 17.4276C37.6741 16.0829 36.6248 14.9826 35.4644 14.1072C33.5011 12.6337 31.0035 11.7059 28.6084 12.2014" fill="#CE534A"/>
<path d="M34.9233 17.9321C35.5777 18.9887 36.2321 20.0584 36.6226 21.2329C37.0131 22.4073 37.1439 23.7149 36.7273 24.8807C36.4067 25.7757 35.7937 26.5289 35.2156 27.282C34.6376 28.0351 34.0704 28.8385 33.8719 29.7685C33.6734 30.6984 33.9286 31.7856 34.7183 32.3139C35.1895 32.6304 35.7784 32.7046 36.3434 32.7505C38.2335 32.9323 40.1349 32.9659 42.0302 32.8509C41.1271 32.2658 40.2109 31.6699 39.5063 30.8578C38.8018 30.0457 38.3262 28.9673 38.4724 27.902C38.5618 27.234 38.8847 26.6205 39.0352 25.9635C39.2926 24.8523 39.0352 23.6778 38.612 22.6234C38.3939 22.093 38.119 21.5057 38.3197 20.9665C38.4331 20.6631 38.6796 20.4317 38.8498 20.1566C39.0124 19.886 39.0979 19.5759 39.0971 19.2601C39.0962 18.9443 39.0091 18.6347 38.8451 18.3649C38.6811 18.0951 38.4464 17.8754 38.1666 17.7294C37.8867 17.5835 37.5723 17.5169 37.2574 17.537" fill="#CE534A"/>
<path d="M7.70312 29.7793H7.6595C7.61685 29.7737 7.57574 29.7596 7.53856 29.738C7.50137 29.7163 7.46885 29.6875 7.44288 29.6532C7.41691 29.6189 7.398 29.5798 7.38726 29.5381C7.37651 29.4964 7.37414 29.453 7.38028 29.4104L8.0805 24.1886C8.09194 24.1039 8.13597 24.0271 8.20321 23.9745C8.27045 23.9219 8.35557 23.8977 8.44042 23.907L12.3668 24.3174C12.4098 24.3218 12.4515 24.3347 12.4895 24.3553C12.5275 24.3758 12.5611 24.4037 12.5883 24.4372C12.6155 24.4708 12.6359 24.5094 12.6483 24.5508C12.6606 24.5922 12.6647 24.6357 12.6602 24.6787C12.6558 24.7217 12.6429 24.7634 12.6224 24.8014C12.6018 24.8394 12.574 24.873 12.5405 24.9003C12.507 24.9276 12.4684 24.948 12.427 24.9603C12.3856 24.9727 12.3422 24.9767 12.2992 24.9723L8.68691 24.5837L8.03251 29.4955C8.02183 29.575 7.98241 29.6477 7.9217 29.7C7.86099 29.7524 7.78322 29.7806 7.70312 29.7793Z" fill="#9B4471"/>
<path d="M10.7628 40.8011H5.01497C4.89597 40.801 4.78141 40.7559 4.69409 40.675C4.60678 40.5941 4.55312 40.4833 4.5438 40.3645L3.45312 29.1373H12.3246L11.234 40.3645C11.2247 40.4833 11.171 40.5941 11.0837 40.675C10.9964 40.7559 10.8818 40.801 10.7628 40.8011Z" fill="#FB93AF"/>
<path d="M7.8916 38.4526C9.53604 38.4526 10.8691 36.9494 10.8691 35.0951C10.8691 33.2408 9.53604 31.7376 7.8916 31.7376C6.24715 31.7376 4.91406 33.2408 4.91406 35.0951C4.91406 36.9494 6.24715 38.4526 7.8916 38.4526Z" fill="#E27798"/>
<g style="mix-blend-mode:multiply" opacity="0.18">
<g style="mix-blend-mode:multiply" opacity="0.18">
<path d="M11.5077 37.396C10.6461 36.8044 9.65136 36.4464 8.71557 35.977C7.77977 35.5077 6.86797 34.8855 6.37717 33.9643C6.12322 33.4428 5.96369 32.8803 5.906 32.303C5.76887 31.2542 5.78356 30.191 5.94962 29.1464H3.46289L4.55356 40.3736C4.56288 40.4923 4.61655 40.6032 4.70386 40.6841C4.79117 40.765 4.90574 40.81 5.02473 40.8102H10.7638C10.8825 40.8095 10.9965 40.7642 11.0833 40.6834C11.1702 40.6025 11.2235 40.492 11.2328 40.3736L11.523 37.4069C11.5171 37.4046 11.5118 37.4008 11.5077 37.396Z" fill="#FB93AF"/>
</g>
</g>
<path d="M12.4206 28.6702H3.36587C3.19239 28.6702 3.05176 28.811 3.05176 28.9846V29.9931C3.05176 30.1667 3.19239 30.3075 3.36587 30.3075H12.4206C12.5941 30.3075 12.7347 30.1667 12.7347 29.9931V28.9846C12.7347 28.811 12.5941 28.6702 12.4206 28.6702Z" fill="#E27798"/>
<path d="M13.0377 39.817C12.629 38.5175 12.1282 37.2489 11.5391 36.0208C11.1988 35.3156 10.8127 34.6345 10.1321 34.2067C9.70896 33.9425 9.05238 33.7046 9.17017 34.3922C9.22252 34.6979 9.72859 35.0297 9.90964 35.2654C10.2262 35.6523 10.4561 36.1027 10.5837 36.5862C10.9043 37.9418 10.0318 39.0966 10.0645 40.4479C10.0798 41.4041 10.5139 42.4126 11.3733 42.8492" fill="#FF927D"/>
<path d="M23.4929 39.0551C27.8167 39.0551 31.3217 38.6407 31.3217 38.1295C31.3217 37.6183 27.8167 37.2039 23.4929 37.2039C19.1692 37.2039 15.6641 37.6183 15.6641 38.1295C15.6641 38.6407 19.1692 39.0551 23.4929 39.0551Z" fill="#C98E36"/>
<path d="M25.1659 39.9236C24.7343 39.4578 24.4829 38.8533 24.4569 38.2186C24.3789 37.4498 24.5494 36.6762 24.9434 36.0116C25.0446 35.846 25.1836 35.7068 25.3491 35.6056C25.4326 35.556 25.5263 35.5261 25.623 35.5181C25.7198 35.5102 25.8171 35.5244 25.9075 35.5597C26.0415 35.6313 26.1538 35.7376 26.2326 35.8675C26.6254 36.4825 26.7609 37.2273 26.6099 37.9414C26.4553 38.6454 26.1353 39.3025 25.6763 39.8581" fill="#A4B24A"/>
<path d="M25.8366 38.4568C26.0111 38.3302 26.2466 38.1512 26.504 37.9481L26.6131 37.863C26.6131 37.8281 26.6131 37.7932 26.6284 37.7582C26.5717 37.799 26.515 37.8426 26.4582 37.8892C26.2008 38.09 25.9696 38.2756 25.8038 38.4131C25.717 38.4813 25.634 38.5542 25.5552 38.6314C25.5682 38.435 25.5792 38.2254 25.5835 38.0071C25.5835 37.7364 25.5835 37.4788 25.5835 37.2452C25.6293 37.2125 25.7144 37.1426 25.8278 37.0444L26.4822 36.4812L26.5193 36.4484C26.5119 36.4225 26.5032 36.397 26.4931 36.372L26.4321 36.4222C26.1768 36.6405 25.9522 36.8588 25.7929 37.0051C25.6969 37.099 25.625 37.171 25.5748 37.2234C25.5748 37.0051 25.5573 36.8108 25.5464 36.6449C25.5355 36.479 25.5203 36.3305 25.5072 36.2323C25.5034 36.1813 25.4947 36.1309 25.481 36.0817C25.4738 36.1323 25.4738 36.1838 25.481 36.2345C25.481 36.3851 25.481 36.5226 25.4963 36.6492C25.4963 36.8108 25.4963 37.0051 25.5094 37.2168C25.3807 37.1077 25.06 36.8632 24.663 36.575L24.6368 36.6471C25.0425 36.9374 25.3763 37.1688 25.5094 37.2496C25.5094 37.4832 25.5094 37.7408 25.5094 38.0115C25.5094 38.2298 25.4963 38.4284 25.4875 38.6205C25.457 38.59 25.3283 38.5048 25.1407 38.376C24.9531 38.2472 24.7044 38.09 24.4492 37.9045V37.994C24.7023 38.1664 24.9313 38.3127 25.1036 38.4306C25.2235 38.5087 25.3489 38.578 25.4788 38.638C25.4635 38.9218 25.4461 39.175 25.4286 39.3824L25.3959 39.795C25.3959 39.8408 25.3959 39.8757 25.3959 39.9019H25.4112C25.4194 39.8696 25.426 39.8368 25.4308 39.8037C25.4483 39.7055 25.4679 39.5658 25.4875 39.3911C25.5072 39.2165 25.5377 38.9414 25.5552 38.662C25.6541 38.6009 25.7481 38.5323 25.8366 38.4568Z" fill="#8D963D"/>
<path d="M29.4567 37.7582C29.4567 37.9765 29.5287 38.1948 29.5614 38.4327C29.6639 39.1597 29.0095 39.7884 28.3115 39.8757C27.8905 39.9303 27.4586 39.8058 27.0441 39.8888C26.8124 39.9353 26.5981 40.0448 26.4246 40.2053C26.2887 40.3421 26.1981 40.5174 26.165 40.7074C26.141 40.6878 25.8073 40.4367 25.7986 40.4738C25.9532 39.9529 25.9302 39.3953 25.7331 38.889C25.4997 38.3803 25.4539 37.5115 25.8138 37.0465C25.9506 36.8766 26.1265 36.7425 26.3264 36.6557C26.514 36.5684 26.7016 36.6055 26.8849 36.5313C27.404 36.313 27.6571 35.4638 27.9515 35.0338C28.246 34.6037 28.6736 34.2282 29.1862 34.2151C29.3929 34.2125 29.597 34.262 29.7795 34.3592C30.652 34.7958 30.0369 35.9463 29.7512 36.6099C29.6141 36.9062 29.518 37.2198 29.4654 37.542C29.4571 37.6138 29.4542 37.686 29.4567 37.7582Z" fill="#78894A"/>
<path d="M28.8157 38.9023C29.0753 38.8695 29.3218 38.8324 29.5508 38.7953C29.5508 38.7669 29.5508 38.7364 29.5661 38.708L28.8048 38.8128C28.2224 38.8892 27.6945 38.9481 27.3106 38.9896L26.7609 39.0529C26.931 38.7167 27.1208 38.3609 27.3302 37.992C27.5396 37.623 27.7665 37.2475 27.9846 36.9201C28.0588 36.9201 28.181 36.9004 28.3424 36.8786C28.6085 36.8415 28.9728 36.7804 29.3741 36.6996L29.7493 36.6188L29.7886 36.5293L29.3523 36.6188L28.3271 36.824L28.0021 36.8939C28.2573 36.5031 28.4972 36.156 28.7023 35.8744C28.9073 35.5928 29.0491 35.4007 29.1604 35.2566C29.221 35.1892 29.275 35.1161 29.3218 35.0383C29.2523 35.1055 29.1888 35.1785 29.132 35.2566C29.012 35.3942 28.8484 35.5994 28.6499 35.8591C28.4514 36.1189 28.1919 36.4791 27.9323 36.8699C27.9323 36.7978 27.9083 36.68 27.8865 36.525C27.8494 36.2652 27.8014 35.9072 27.76 35.5099C27.76 35.4771 27.76 35.4444 27.76 35.4094L27.6836 35.5601C27.725 35.9421 27.7818 36.287 27.8319 36.5359C27.869 36.7105 27.8996 36.8371 27.9214 36.9004C27.7032 37.2301 27.4851 37.5903 27.267 37.9789C27.0488 38.3674 26.8656 38.7102 26.6976 39.0507C26.6824 38.9656 26.6518 38.8324 26.6126 38.6447C26.5471 38.3347 26.4555 37.909 26.3661 37.4353C26.3181 37.1864 26.2766 36.9528 26.2396 36.7389C26.2134 36.7529 26.1879 36.7682 26.1632 36.7847C26.1937 36.9899 26.233 37.2213 26.2766 37.4397C26.3683 37.9155 26.4686 38.3434 26.5515 38.649C26.606 38.8521 26.6518 39.0005 26.6802 39.0856C26.4621 39.5223 26.2875 39.9261 26.1523 40.2601C26.0999 40.3889 26.0541 40.5046 26.0127 40.6116L26.0563 40.6421L26.209 40.2841C26.3552 39.9501 26.5428 39.5463 26.7653 39.1053H26.8765C26.9834 39.1053 27.1404 39.1053 27.3324 39.0835C27.7011 39.0333 28.2311 38.9809 28.8157 38.9023Z" fill="#647039"/>
<path d="M22.197 40.107C22.9137 39.593 23.4246 38.841 23.6389 37.9851C23.9181 36.9831 23.9836 35.8152 23.5909 34.8438C23.4998 34.59 23.3503 34.3612 23.1547 34.1758C23.0556 34.0841 22.9367 34.0168 22.8073 33.9789C22.6778 33.941 22.5414 33.9337 22.4086 33.9575C22.2062 34.0177 22.0238 34.1316 21.8808 34.2871C21.1768 35.0124 20.7852 35.9851 20.7901 36.9962C20.8038 37.9975 21.0566 38.981 21.5274 39.8647" fill="#A4B24A"/>
<path d="M21.6935 37.9219C21.495 37.7036 21.2223 37.3893 20.9278 37.0487L20.8057 36.9024C20.8057 36.8522 20.8057 36.802 20.8057 36.7518L21.002 36.9701C21.2965 37.3172 21.5582 37.625 21.7436 37.8673C21.8424 37.9861 21.9349 38.11 22.0207 38.2384C22.0578 37.9678 22.1036 37.6818 22.1559 37.3827C22.2235 37.0116 22.2977 36.6623 22.3741 36.3458C22.3217 36.2868 22.2257 36.1689 22.0992 36.0052L21.375 35.0578L21.3335 35.0054C21.3532 34.9727 21.3706 34.9377 21.3903 34.9072L21.4579 34.9945C21.7436 35.3656 21.9923 35.7105 22.1668 35.9659C22.2715 36.1187 22.3479 36.2388 22.385 36.3108C22.4548 36.0183 22.5246 35.7542 22.5856 35.5337C22.6467 35.3132 22.71 35.1102 22.7536 34.9814C22.7711 34.9128 22.7975 34.8467 22.8321 34.7849C22.8291 34.8591 22.8159 34.9326 22.7929 35.0032C22.7449 35.2041 22.6991 35.3918 22.6576 35.5621C22.6053 35.7804 22.5442 36.0423 22.4809 36.3327C22.6991 36.2192 23.1942 35.9768 23.8137 35.693C23.8137 35.728 23.8137 35.7629 23.829 35.8C23.1964 36.0816 22.6773 36.3021 22.4722 36.3741C22.4024 36.6929 22.3326 37.0443 22.2541 37.4154C22.2017 37.7058 22.1559 37.9852 22.1145 38.2494C22.1668 38.2166 22.3631 38.1358 22.6554 38.0136C22.9477 37.8913 23.3098 37.7429 23.7287 37.5639L23.7025 37.6883C23.312 37.8499 22.9565 37.9852 22.6816 38.0835C22.4956 38.1546 22.3055 38.2144 22.1123 38.2625C22.0534 38.651 22.0076 39.0025 21.9727 39.2885C21.9509 39.4609 21.9291 39.653 21.9029 39.8582C21.9029 39.9216 21.8876 39.9696 21.8832 40.0045H21.8593C21.8593 39.9696 21.8593 39.9216 21.8593 39.8626C21.8593 39.7273 21.8745 39.5286 21.8942 39.2863C21.9181 39.0047 21.9552 38.6598 22.0076 38.2756C21.8954 38.1646 21.7905 38.0464 21.6935 37.9219Z" fill="#8D963D"/>
<path d="M17.9239 37.6645C17.9239 37.8828 17.8563 38.0727 17.8257 38.291C17.7319 38.9655 18.3383 39.544 18.984 39.627C19.3745 39.6772 19.7737 39.5615 20.1576 39.6379C20.3722 39.6817 20.5706 39.7836 20.7313 39.9326C20.9036 40.0898 20.8992 40.2011 20.9734 40.3976C20.993 40.3779 21.3028 40.1465 21.3115 40.1793C21.1686 39.6971 21.1901 39.181 21.3726 38.7123C21.5907 38.243 21.63 37.4374 21.2962 37.0074C21.1701 36.85 21.0077 36.7257 20.8229 36.645C20.6484 36.5642 20.4739 36.597 20.3037 36.5293C19.826 36.3372 19.5904 35.5404 19.3178 35.1431C19.0451 34.7458 18.6503 34.3965 18.1747 34.3856C17.9831 34.3821 17.7939 34.428 17.625 34.5187C16.8114 34.9335 17.3873 35.9879 17.6512 36.6035C17.779 36.8772 17.8679 37.1674 17.9152 37.4658C17.9234 37.5317 17.9263 37.5981 17.9239 37.6645Z" fill="#78894A"/>
<path d="M18.5171 38.7253C18.2772 38.6948 18.0481 38.6598 17.8365 38.6249C17.8365 38.5987 17.8365 38.5725 17.8234 38.5441C18.0416 38.5769 18.2793 38.6096 18.528 38.6424C19.0668 38.7144 19.5576 38.769 19.911 38.8061C20.1553 38.8323 20.332 38.8519 20.4214 38.865C20.2644 38.5529 20.0877 38.2232 19.8935 37.8827C19.6994 37.5421 19.4834 37.1928 19.2871 36.8894C19.2195 36.8894 19.1039 36.8719 18.9556 36.8501C18.7091 36.8152 18.371 36.7606 18.0001 36.6842L17.6533 36.6122L17.6162 36.5292L18.0198 36.6122L18.9665 36.7999L19.2697 36.8654C19.0341 36.503 18.8116 36.1821 18.6153 35.9223C18.4189 35.6626 18.2924 35.4857 18.179 35.3504C18.1226 35.2821 18.0722 35.2091 18.0285 35.1321C18.0924 35.1921 18.1515 35.2571 18.2052 35.3264C18.3164 35.453 18.4691 35.6429 18.6414 35.883C18.8138 36.1232 19.0646 36.4572 19.2958 36.8196C19.2958 36.7519 19.3198 36.6427 19.3395 36.4986C19.3744 36.2585 19.418 35.9289 19.4551 35.56C19.4551 35.5294 19.4551 35.4988 19.4551 35.4683L19.5249 35.6058C19.4856 35.9616 19.4333 36.2803 19.3875 36.5096C19.3526 36.6711 19.3242 36.789 19.3046 36.8479C19.5053 37.1514 19.7147 37.4854 19.9197 37.8456C20.1248 38.2058 20.2927 38.5245 20.4476 38.8388C20.4629 38.7603 20.489 38.6205 20.5261 38.4634C20.5872 38.1752 20.6723 37.7801 20.7552 37.3413C20.7988 37.123 20.8381 36.9047 20.8708 36.6864L20.9428 36.7279C20.9144 36.92 20.8795 37.1274 20.8381 37.3478C20.753 37.7844 20.6592 38.1818 20.5828 38.4655C20.5327 38.6533 20.4912 38.7908 20.465 38.8629C20.6635 39.2667 20.8271 39.64 20.9537 39.9544C21.0017 40.0723 21.0431 40.1727 21.0824 40.2796L21.0409 40.308C20.9995 40.2076 20.9515 40.0897 20.8991 39.9762C20.7639 39.6662 20.5916 39.2929 20.3843 38.8847H20.3276C20.2273 38.8847 20.0833 38.8847 19.9066 38.865C19.5489 38.841 19.0581 38.7974 18.5171 38.7253Z" fill="#647039"/>
<path d="M31.3216 38.1403C31.267 38.6445 27.7856 39.0528 23.4971 39.0528C19.3744 39.0528 15.9976 38.6751 15.6944 38.197C15.6203 40.5197 16.3794 42.9778 17.6118 44.9251C17.699 45.0792 17.8145 45.2155 17.9521 45.3268C18.1081 45.4255 18.2825 45.4916 18.4647 45.521C20.1208 45.8845 21.8157 46.04 23.5102 45.9838C25.2047 46.04 26.8996 45.8845 28.5556 45.521C28.7364 45.5025 28.9095 45.438 29.0584 45.3337C29.2072 45.2294 29.327 45.0887 29.4064 44.9251C30.6475 42.9625 31.4088 40.4805 31.3216 38.1403Z" fill="#F7BF54"/>
<path d="M15.8105 40.1244C15.8236 40.2051 15.8345 40.2836 15.8476 40.3644C20.9449 40.9316 26.0912 40.8965 31.1803 40.2596C31.1934 40.1789 31.2065 40.0982 31.2174 40.0175C26.1042 40.6649 20.9322 40.7008 15.8105 40.1244Z" fill="#E2A744"/>
<path d="M16.0967 41.4736C16.1403 41.6372 16.1883 41.7986 16.2385 41.96C21.0829 42.4674 25.9688 42.4323 30.8055 41.8553C30.8556 41.6939 30.9015 41.5325 30.9451 41.3689C26.0159 41.9708 21.0339 42.006 16.0967 41.4736Z" fill="#E2A744"/>
<path d="M16.7939 43.3994C16.831 43.4823 16.8703 43.5652 16.9096 43.6459C21.3163 44.0651 25.7543 44.0337 30.1547 43.5521L30.2681 43.3034C25.7922 43.8021 21.2765 43.8342 16.7939 43.3994Z" fill="#E2A744"/>
<g style="mix-blend-mode:multiply" opacity="0.22">
<g style="mix-blend-mode:multiply" opacity="0.22">
<path d="M29.0643 45.329C29.2019 45.2182 29.3168 45.0818 29.4025 44.9273C29.577 44.6523 29.7406 44.3685 29.8933 44.0759C27.4109 44.1502 24.8631 44.6763 22.6403 43.6393C22.1727 43.4183 21.7333 43.142 21.3315 42.8163C20.0936 41.8003 19.2092 40.4177 18.8055 38.8673C17.0604 38.7101 15.865 38.4699 15.6905 38.1949C15.6164 40.5176 16.3755 42.9757 17.6079 44.9229C17.6951 45.0771 17.8106 45.2133 17.9482 45.3246C18.1042 45.4234 18.2786 45.4895 18.4608 45.5189C20.1169 45.8824 21.8118 46.0378 23.5063 45.9817C25.2008 46.0378 26.8957 45.8824 28.5517 45.5189C28.7336 45.4908 28.908 45.4262 29.0643 45.329Z" fill="#E2A744"/>
</g>
</g>
<path d="M45.5574 50.2473C45.5923 46.4292 44.9183 42.5565 42.9987 39.2121C42.2854 37.9678 40.6887 36.8326 39.3123 37.863C38.2848 38.6314 37.9773 40.1748 37.7853 41.3559C37.5581 42.902 37.4887 44.4673 37.5781 46.0275C37.637 47.298 37.8617 48.1647 37.2792 49.4177C36.915 50.1993 36.6663 50.2669 35.8112 50.1425C34.7554 49.9919 33.848 49.3501 32.9515 48.8327C32.5806 48.6144 29.4613 46.1738 29.3261 46.2698C27.8956 47.2214 26.6261 48.3953 25.5654 49.7474C27.2598 52.5573 29.6026 54.9199 32.3974 56.637C34.6464 58.045 37.2552 59.4007 39.9579 59.5077C41.186 59.5579 42.9856 59.392 43.8582 58.3987C45.7276 56.279 45.5334 52.8669 45.5574 50.2473Z" fill="#FF927D"/>
<g style="mix-blend-mode:multiply" opacity="0.21">
<g style="mix-blend-mode:multiply" opacity="0.21">
<path d="M37.3428 49.2933C38.9941 50.2124 41.0925 50.3848 42.9183 50.3957C43.7908 50.3957 44.6706 50.3601 45.5577 50.2888V50.2582C45.5904 46.689 45.0015 43.0695 43.3567 39.8801L37.5784 46.0057V46.0472C37.6351 47.2565 37.8423 48.1057 37.3428 49.2933Z" fill="#FF927D"/>
</g>
</g>
<path d="M42.041 48.4526C42.8023 48.354 43.552 48.18 44.279 47.9331C44.4644 47.8676 46.1375 47.0795 46.1332 47.0424C46.0088 46.2718 45.7514 45.3898 45.6511 45.0122C45.2875 43.6238 44.8782 42.2528 44.423 40.8994C43.8755 39.2687 43.3323 37.8431 41.8359 37.1708C40.442 36.5421 39.0787 36.9219 38.1276 38.2623C37.447 39.2206 37.1875 40.6134 37.0566 41.8119C36.8384 43.8312 36.6029 46.06 36.677 48.0946C38.3185 48.6181 40.0583 48.7563 41.7617 48.4985L42.041 48.4526Z" fill="#9B4471"/>
<path d="M27.3497 52.0438C26.4772 51.5242 25.9776 50.5637 25.5414 49.6905C25.0266 48.6579 24.7059 47.4267 25.0069 46.285C25.3363 45.0319 26.3855 43.947 26.2721 42.6546C26.2154 41.9997 25.8489 41.3317 26.054 40.703C26.3092 40.5982 26.5426 40.8929 26.6473 41.1396C27.1566 42.3777 27.2199 43.7545 26.8262 45.0341C26.9505 44.6346 27.317 44.2504 27.4806 43.8378C27.8188 42.9133 27.8861 41.9113 27.6747 40.9497C27.6158 40.6877 27.3192 40.142 27.6464 39.9499C28.0826 39.6923 28.5058 40.7816 28.5887 41.085C28.933 42.3253 28.9141 43.6384 28.5342 44.8682C29.4067 44.1587 29.5507 42.9035 29.6248 41.7814C29.6532 41.3667 29.6248 40.9519 29.6466 40.5371C29.6728 40.1987 29.7252 39.426 30.12 39.7905C30.6893 40.3166 30.5563 41.1309 30.517 41.8207C30.4521 42.7261 30.34 43.6275 30.1811 44.5211C30.8355 44.0583 30.7308 42.9581 31.3699 42.4756C31.3925 42.456 31.4188 42.4412 31.4474 42.4322C31.4759 42.4232 31.5059 42.4201 31.5357 42.4232C31.5609 42.4325 31.5838 42.447 31.603 42.4659C31.6222 42.4847 31.6372 42.5074 31.6469 42.5324C31.9327 43.0585 31.6927 43.5431 31.4659 44.0168C31.1583 44.6717 30.9075 45.3398 30.6282 45.999C30.4916 46.2455 30.438 46.5295 30.4756 46.8089C30.5737 47.204 30.9947 47.4093 31.3481 47.6145C31.6975 47.8197 32.0169 48.0724 32.297 48.3654" fill="#FF927D"/>
</g>
<defs>
<linearGradient id="paint0_linear_0_3597" x1="56.8413" y1="56.6376" x2="-17.8381" y2="50.8632" gradientUnits="userSpaceOnUse">
<stop stop-color="#C150F6"/>
<stop offset="1" stop-color="#EEA4CE"/>
</linearGradient>
</defs>
</svg>
