<svg width="22" height="22" viewBox="0 0 22 22" fill="none" xmlns="http://www.w3.org/2000/svg">
<path fill-rule="evenodd" clip-rule="evenodd" d="M11 21C16.5222 21 21 16.5232 21 11C21 5.47784 16.5222 1 11 1C5.47784 1 1 5.47784 1 11C1 16.5232 5.47784 21 11 21Z" stroke="#C1063D" stroke-width="1.2" stroke-linecap="round" stroke-linejoin="round"/>
<path d="M15.1212 11.7477L9.15594 15.2089C8.64969 15.5024 8 15.1471 8 14.5555V7.63301C8 7.04238 8.64875 6.68613 9.15594 6.98051L15.1212 10.4418C15.2364 10.5075 15.3321 10.6025 15.3987 10.7172C15.4653 10.8319 15.5004 10.9621 15.5004 11.0947C15.5004 11.2273 15.4653 11.3576 15.3987 11.4723C15.3321 11.5869 15.2364 11.682 15.1212 11.7477Z" fill="#C1063D"/>
</svg>
