<svg width="24" height="24" viewBox="0 0 24 24" fill="none" xmlns="http://www.w3.org/2000/svg">
<path fill-rule="evenodd" clip-rule="evenodd" d="M12.1452 21.999C17.6011 21.9213 22 17.4744 22 12C22 6.47715 17.5228 2 12 2C6.47715 2 2 6.47715 2 12C2 17.4797 6.40747 21.93 11.8708 21.9992C11.3914 21.993 10.9124 21.9527 10.4374 21.8783V14.8904H7.89826V12H10.4374V9.79696C10.4374 7.29043 11.9304 5.90609 14.2148 5.90609C14.9646 5.91654 15.7127 5.98193 16.453 6.10174V8.56261H15.1922C13.95 8.56261 13.5626 9.33348 13.5626 10.1243V12H16.3361L15.8926 14.8904H13.5626V21.8783C13.0929 21.9519 12.6192 21.9921 12.1452 21.999Z" fill="#1D4BFF"/>
</svg>
