<svg width="75" height="140" viewBox="0 0 75 140" fill="none" xmlns="http://www.w3.org/2000/svg">
<g clip-path="url(#clip0_0_1943)">
<path d="M71.6217 80.3186C71.2627 78.8408 68.9486 65.5149 68.7691 62.3649C68.5896 59.2149 69.1217 54.5871 69.1217 51.2556C69.1217 47.9241 66.8076 44.7741 63.955 42.1815C61.1025 39.5889 47.6986 34.5593 46.3332 32.0445C44.9678 29.5297 45.6217 26.2889 45.6217 26.2889L37.4037 27.1834H37.3076L29.0832 26.2889C29.0832 26.2889 29.7243 29.5297 28.3781 32.0445C27.032 34.5593 13.6025 39.5889 10.7499 42.1815C7.89735 44.7741 5.58325 47.9176 5.58325 51.2556C5.58325 54.5936 6.12171 59.2149 5.94222 62.3649C5.76273 65.5149 3.44862 78.8408 3.08965 80.3186C2.73067 81.7964 -0.653951 90.1315 0.596049 97.5399C1.84605 104.948 1.1281 112.719 1.8781 114.755C2.6281 116.79 4.1922 118.825 4.72426 118.825C5.25631 118.825 7.21784 120.309 8.28836 119.57C9.35887 118.832 10.782 116.608 11.673 115.124C12.564 113.64 12.564 114.385 11.4999 111.605C10.4358 108.824 8.10885 106.795 8.10885 105.681C8.10885 104.566 11.1409 91.9852 11.1409 91.9852C11.1409 91.9852 11.673 101.61 12.564 109.019C13.455 116.427 18.8012 137.343 18.8012 137.343C18.8012 137.343 19.8717 141.413 19.8717 142.152C19.8717 142.891 18.8012 147.525 19.3396 152.334C19.8781 157.144 23.4358 163.256 25.0384 170.294C26.1711 175.292 26.9466 180.365 27.3589 185.474C27.5384 187.697 25.2179 191.029 24.3268 194.36C23.4358 197.692 23.2563 198.988 25.0384 200.096C26.8204 201.205 30.2114 201.581 31.6345 199.539C33.0576 197.497 33.4166 195.65 33.7755 192.325C34.1345 189 35.1986 187.697 35.5576 183.62C35.9165 179.544 35.9102 177.696 35.9102 176.957C35.9102 176.219 35.0191 169.737 36.2691 163.813C36.8538 160.86 37.2266 157.869 37.3845 154.862C37.5479 157.869 37.9228 160.86 38.5063 163.813C39.7563 169.737 38.8653 176.219 38.8653 176.957C38.8653 177.696 38.8653 179.55 39.2178 183.62C39.5704 187.691 40.6474 188.987 40.9999 192.325C41.3525 195.663 41.7114 197.51 43.1409 199.539C44.5704 201.568 47.9486 201.211 49.7307 200.096C51.5127 198.982 51.3332 197.692 50.4422 194.36C49.5512 191.029 47.2371 187.697 47.4166 185.474C47.8289 180.365 48.6023 175.292 49.7307 170.294C51.3332 163.256 54.8973 157.15 55.4358 152.334C55.9743 147.519 54.8974 142.891 54.8974 142.152C54.8974 141.413 55.9678 137.343 55.9678 137.343C55.9678 137.343 61.314 116.42 62.205 109.019C63.096 101.617 63.6345 91.9852 63.6345 91.9852C63.6345 91.9852 66.6217 104.572 66.6217 105.681C66.6217 106.789 64.3076 108.831 63.2371 111.605C62.1665 114.379 62.1666 113.646 63.0576 115.124C63.9486 116.602 65.3781 118.825 66.4422 119.57C67.5063 120.316 69.4743 118.825 70.0063 118.825C70.5384 118.825 72.1473 116.79 72.8589 114.755C73.5704 112.719 72.8589 104.942 74.1409 97.5399C75.423 90.138 71.9743 81.8028 71.6217 80.3186Z" fill="#FFB99A" stroke="#263238" stroke-linecap="round" stroke-linejoin="round"/>
<path d="M11.6539 83.0925C11.6539 83.0925 21.0064 88.4592 37.5577 88.2064C54.109 87.9536 63.1987 83.987 63.1987 83.987C63.1987 83.987 64.4295 97.2546 62.1731 109.018C62.1731 109.018 56.0834 118.877 37.3013 114.936C37.3013 114.936 20.2564 118.501 12.5321 109.018C12.5321 109.018 10.0128 90.8898 11.6539 83.0925Z" fill="#C1063D" stroke="#263238" stroke-linecap="round" stroke-linejoin="round"/>
<path d="M11.1411 113.484C10.5105 113.999 9.99312 114.642 9.62183 115.37" stroke="#263238" stroke-linecap="round" stroke-linejoin="round"/>
<path d="M10.4424 114.664C10.4424 114.664 11.4168 114.664 11.3078 115.5" stroke="#263238" stroke-linecap="round" stroke-linejoin="round"/>
<path d="M63.5386 113.484C64.166 114.001 64.681 114.643 65.0514 115.37" stroke="#263238" stroke-linecap="round" stroke-linejoin="round"/>
<path d="M64.2372 114.664C64.2372 114.664 63.2628 114.664 63.3718 115.5" stroke="#263238" stroke-linecap="round" stroke-linejoin="round"/>
<path d="M27.8398 15.8797C27.8398 15.8797 26.1603 13.5852 25.6603 15.7112C25.1603 17.8371 28.3398 19.9501 28.3398 19.9501L27.8398 15.8797Z" fill="#FFB99A" stroke="#263238" stroke-linecap="round" stroke-linejoin="round"/>
<path d="M47.1346 15.8797C47.1346 15.8797 48.8077 13.5852 49.3141 15.7112C49.8205 17.8371 46.6282 19.9501 46.6282 19.9501L47.1346 15.8797Z" fill="#FFB99A" stroke="#263238" stroke-linecap="round" stroke-linejoin="round"/>
<path d="M27.4614 7.86208C27.4614 7.86208 28.314 24.176 29.282 26.5676C30.2499 28.9593 32.0127 30.8519 35.7307 31.8824C37.0881 32.1255 38.4753 32.1474 39.8396 31.9473C41.1667 31.6567 42.4003 31.0338 43.4274 30.1357C44.4544 29.2377 45.242 28.0933 45.7179 26.8074C46.3589 25.2065 47.7563 8.52967 47.7563 8.52967C47.4989 7.02592 46.8755 5.61055 45.9422 4.41117C45.0089 3.21179 43.795 2.26609 42.4101 1.65929C37.5768 -0.54441 34.4614 0.168555 31.4102 2.41115C29.5688 3.77227 28.1894 5.67642 27.4614 7.86208Z" fill="#FFB99A" stroke="#263238" stroke-linecap="round" stroke-linejoin="round"/>
<path d="M34.5706 23.5927C34.5706 23.5927 38.3654 24.7788 41.0641 23.6899" stroke="#263238" stroke-linecap="round" stroke-linejoin="round"/>
<path d="M29.3269 13.4491C29.3269 13.4491 31.7115 11.3232 34.5449 12.613" stroke="#263238" stroke-linecap="round" stroke-linejoin="round"/>
<path d="M45.8909 13.4491C45.8909 13.4491 43.5128 11.3232 40.6794 12.613" stroke="#263238" stroke-linecap="round" stroke-linejoin="round"/>
<path d="M34.2693 16.087C34.2693 16.774 33.9039 17.3314 33.4487 17.3314C32.9936 17.3314 32.6218 16.774 32.6218 16.087C32.6218 15.4 32.9936 14.8361 33.4487 14.8361C33.9039 14.8361 34.2693 15.3935 34.2693 16.087Z" fill="#263238"/>
<path d="M43.1474 16.087C43.1474 16.774 42.7756 17.3314 42.3269 17.3314C41.8782 17.3314 41.5 16.774 41.5 16.087C41.5 15.4 41.8718 14.8361 42.3269 14.8361C42.782 14.8361 43.1474 15.3935 43.1474 16.087Z" fill="#263238"/>
<path d="M46.641 5.4445C45.6632 3.75821 44.182 2.42855 42.4102 1.64636C37.5769 -0.557342 34.4615 0.155604 31.4102 2.3982C30.3926 3.1501 29.5101 4.07309 28.8013 5.12691C34.5835 7.02922 40.7962 7.13982 46.641 5.4445Z" fill="#263238" stroke="#263238" stroke-linecap="round" stroke-linejoin="round"/>
<path d="M28.8012 5.13977C28.8012 5.13977 30.1345 8.47125 29.5255 10.487C29.0904 11.8598 28.5767 13.2059 27.9871 14.5185L27.4614 7.862C27.7916 6.90062 28.2418 5.9858 28.8012 5.13977Z" fill="#263238" stroke="#263238" stroke-linecap="round" stroke-linejoin="round"/>
<path d="M46.4232 5.13977C46.4232 5.13977 45.0898 8.47125 45.7052 10.487C46.1365 11.8603 46.6481 13.2065 47.2373 14.5185L47.7629 7.862C47.4363 6.89912 46.9859 5.98386 46.4232 5.13977Z" fill="#263238" stroke="#263238" stroke-linecap="round" stroke-linejoin="round"/>
<path d="M35.7693 19.6324C35.7693 19.6324 36.968 21.8426 38.1603 21.4407C38.5918 21.3154 38.9795 21.0695 39.2789 20.7312C39.5783 20.393 39.7771 19.9761 39.8526 19.5287" stroke="#263238" stroke-linecap="round" stroke-linejoin="round"/>
<path d="M13.7756 55.5981C13.7756 55.5981 13.0448 61.6778 14.5063 64.4454C14.5063 64.4454 11.0063 80.4157 11.3717 90.1833" stroke="#263238" stroke-linecap="round" stroke-linejoin="round"/>
<path d="M5.85909 75.5028C5.85909 75.5028 5.30781 81.2195 7.50012 82.1463L9.69242 83.0667" stroke="#263238" stroke-linecap="round" stroke-linejoin="round"/>
<path d="M69.5386 75.5028C69.5386 75.5028 69.3527 79.7482 67.5321 81.5889C65.7116 83.4297 64.0642 82.6973 64.0642 82.6973" stroke="#263238" stroke-linecap="round" stroke-linejoin="round"/>
<path d="M14.5064 64.4259C14.5064 64.4259 10.0576 62.0148 8.23071 58.5083" stroke="#263238" stroke-linecap="round" stroke-linejoin="round"/>
<path d="M60.2563 64.4259C60.2563 64.4259 64.4294 62.3842 66.0705 58.5083" stroke="#263238" stroke-linecap="round" stroke-linejoin="round"/>
<path d="M60.9871 55.5981C60.9871 55.5981 61.7179 61.6778 60.2563 64.4454C60.2563 64.4454 63.7564 80.4157 63.391 90.1833" stroke="#263238" stroke-linecap="round" stroke-linejoin="round"/>
<path d="M37.1731 145.302V110.581" stroke="#263238" stroke-linecap="round" stroke-linejoin="round"/>
<path d="M31.7244 107.852C31.7244 107.852 33.0898 109.608 36.6731 110.574C40.2564 111.54 42.7308 106.996 42.7308 106.996" stroke="#263238" stroke-linecap="round" stroke-linejoin="round"/>
<path d="M22.5833 103.406C23.1474 103.652 23.7435 103.905 24.3845 104.144" stroke="#263238" stroke-linecap="round" stroke-linejoin="round"/>
<path d="M14.5063 97.3C14.5063 97.3 15.532 99.5426 19.8397 102.019" stroke="#263238" stroke-linecap="round" stroke-linejoin="round"/>
<path d="M60.2114 97.3C60.2114 97.3 58.5191 101.007 50.3333 104.144" stroke="#263238" stroke-linecap="round" stroke-linejoin="round"/>
<path d="M26.1731 41.2871C26.1731 41.2871 33.2244 40.8917 34.2564 40.8917C35.2885 40.8917 36.6026 41.9482 36.6026 41.9482" stroke="#263238" stroke-linecap="round" stroke-linejoin="round"/>
<path d="M49.2501 41.2871C49.2501 41.2871 42.1987 40.8917 41.1667 40.8917C40.1346 40.8917 38.8206 41.9482 38.8206 41.9482" stroke="#263238" stroke-linecap="round" stroke-linejoin="round"/>
<path d="M37.2756 58.9297V61.4639" stroke="#263238" stroke-linecap="round" stroke-linejoin="round"/>
<path d="M37.2756 47.0297V56.2139" stroke="#263238" stroke-linecap="round" stroke-linejoin="round"/>
<path d="M21.3333 64.8407C21.3333 64.8407 23.3717 65.0287 27.8204 63.149" stroke="#263238" stroke-linecap="round" stroke-linejoin="round"/>
<path d="M52.1154 64.8407C52.1154 64.8407 50.0705 65.0287 45.6218 63.149" stroke="#263238" stroke-linecap="round" stroke-linejoin="round"/>
</g>
<defs>
<clipPath id="clip0_0_1943">
<rect width="75" height="140" fill="white"/>
</clipPath>
</defs>
</svg>
