<svg width="133" height="150" viewBox="0 0 133 150" fill="none" xmlns="http://www.w3.org/2000/svg">
<path d="M38.3052 130.804C38.3052 130.804 17.4258 135.714 16.5433 115.155C16.1618 106.257 15.1356 107.649 8.4818 100.146C1.82804 92.6426 1.82804 89.5867 3.25497 82.6398C4.68189 75.6928 10.6727 73.3062 7.71171 66.8868C3.81075 58.4323 5.00682 43.9791 13.483 38.3451C21.6769 32.8986 22.5995 32.9719 22.5995 27.3868C22.5995 20.0925 29.0764 8.33866 42.4397 9.561C53.9387 10.6112 52.1485 4.07167 60.298 1.15842C75.4715 -4.26776 82.8239 11.0991 88.0516 11.6553C93.2793 12.2114 102.326 12.3143 106.918 20.4388C112.613 30.515 107.582 38.7383 114.711 39.5715C121.84 40.4048 128.97 47.6298 128.732 55.133C128.494 62.6361 124.692 69.0259 127.306 72.3609C129.92 75.6958 130.933 95.4438 120.385 99.2239C105.969 104.388 120.385 129.341 93.8726 128.879C70.0373 128.461 38.3052 130.804 38.3052 130.804Z" fill="#3F2037"/>
<path d="M133 150H0C0 150 1.33583 132.563 9.36624 129.192C11.0268 128.493 13.7896 127.131 17.1262 125.413C17.5876 125.173 18.0626 124.929 18.5444 124.677H18.5541C19.4059 124.234 20.2851 123.773 21.1918 123.294C27.6605 119.886 35.2683 115.736 41.1922 112.476L43.1901 111.377C47.8858 108.784 51.1129 106.981 51.1129 106.981L52.1288 107.22C61.5829 109.445 71.3967 109.364 80.8159 106.981C80.8159 106.981 84.1632 108.792 89.0208 111.392C89.0828 111.427 89.143 111.459 89.206 111.494C92.1374 113.066 95.6039 114.917 99.2159 116.825C108.917 121.957 119.62 127.511 123.635 129.199C131.667 132.563 133 150 133 150Z" fill="#0075CF"/>
<path d="M67.8189 140.694C64.9646 140.696 62.1216 140.318 59.3581 139.567C56.0548 138.726 52.9164 137.285 50.0839 135.311C50.0032 135.253 49.9344 135.179 49.8815 135.093C49.8287 135.006 49.7929 134.91 49.7762 134.809C49.7596 134.708 49.7625 134.604 49.7848 134.504C49.8071 134.405 49.8482 134.311 49.9059 134.228C49.9635 134.145 50.0363 134.075 50.1201 134.023C50.2039 133.97 50.2969 133.936 50.3936 133.922C50.4903 133.908 50.5887 133.915 50.6829 133.941C50.777 133.968 50.8651 134.015 50.9419 134.078C53.6504 135.939 56.6412 137.301 59.7856 138.106C67.1912 140.05 75.006 139.288 81.9448 135.945C82.033 135.899 82.1291 135.873 82.2272 135.867C82.3254 135.862 82.4236 135.877 82.516 135.913C82.6084 135.948 82.6929 136.003 82.7646 136.074C82.8362 136.144 82.8935 136.23 82.9328 136.324C82.9722 136.419 82.9929 136.521 82.9936 136.624C82.9944 136.728 82.9752 136.83 82.9372 136.925C82.8992 137.021 82.8433 137.107 82.7726 137.179C82.702 137.251 82.6183 137.307 82.5265 137.344C77.9004 139.527 72.8903 140.669 67.8189 140.694Z" fill="#0056A8"/>
<path d="M89.0231 111.387C87.4546 118.554 82.3973 131.941 66.4993 131.941C49.5758 131.941 44.5737 117.661 43.1895 111.371C47.8852 108.777 51.1123 106.974 51.1123 106.974L52.1282 107.214C61.5823 109.439 71.396 109.357 80.8153 106.974C80.8153 106.974 84.1655 108.787 89.0231 111.387Z" fill="#FFB8A1"/>
<path d="M26.7396 150H0C0 150 1.33583 132.563 9.36624 129.192C11.0268 128.493 13.7896 127.131 17.1262 125.412C17.5876 125.173 18.0626 124.929 18.5444 124.677H18.5541C19.4059 124.234 20.2851 123.772 21.1918 123.294C23.1926 129.149 26.507 140.239 26.7396 150Z" fill="#FFB8A1"/>
<path d="M106.267 150H133C133 150 131.664 132.563 123.635 129.192C121.973 128.493 119.211 127.131 115.875 125.412C115.412 125.173 114.939 124.928 114.455 124.677H114.446C113.594 124.234 112.715 123.772 111.808 123.294C109.813 129.149 106.499 140.239 106.267 150Z" fill="#FFB8A1"/>
<path d="M81.499 110.535C81.499 110.535 78.8904 119.15 66.9049 119.15C52.9254 119.15 49.6353 111.318 49.6353 111.318C50.7316 108.287 51.6066 105.173 52.2526 102.002C53.0552 98.184 53.4306 94.2807 53.3713 90.3713L77.9307 89.3527C78.1575 91.5376 78.5269 94.1106 78.9447 96.6989C80.0527 103.569 81.499 110.535 81.499 110.535Z" fill="#FFB8A1"/>
<path d="M78.9431 96.6968C75.1373 99.4777 66.8189 103.617 52.251 102.004C53.0536 98.186 53.429 94.2826 53.3696 90.3732L77.9291 89.3546C78.1559 91.5334 78.5224 94.1065 78.9431 96.6968Z" fill="#3F2037"/>
<path d="M92.0729 58.1838C92.0729 58.1838 97.8262 49.9554 102.302 54.8223C106.778 59.6893 98.1461 76.6544 90.3145 72.9599L92.0729 58.1838Z" fill="#FFB8A1"/>
<path d="M89.6952 72.7969C87.3329 73.9974 85.4571 76.0459 84.4064 78.5725C83.3557 81.0991 83.1994 83.9372 83.9658 86.5743C84.7322 89.2113 86.3708 91.4735 88.5855 92.9522C90.8003 94.431 93.4452 95.0288 96.0427 94.6378C98.6402 94.2467 101.019 92.8925 102.75 90.8198C104.48 88.7471 105.448 86.0925 105.479 83.3354C105.51 80.5783 104.602 77.9005 102.918 75.7855C101.234 73.6706 98.8867 72.2579 96.2986 71.8027C95.7993 71.7134 95.2946 71.6617 94.7883 71.6479C94.8246 71.2033 94.9125 70.7651 95.0501 70.343C95.884 70.3821 96.7117 70.5122 97.5201 70.7311C100.341 71.4897 102.812 73.2796 104.49 75.7796C106.169 78.2796 106.945 81.3263 106.679 84.373C106.413 87.4197 105.122 90.2672 103.039 92.4046C100.956 94.542 98.216 95.8296 95.311 96.0363C92.406 96.243 89.5259 95.3553 87.1875 93.5325C84.849 91.7097 83.2051 89.071 82.5507 86.0898C81.8962 83.1085 82.2741 79.9798 83.6164 77.2649C84.9588 74.5499 87.1778 72.4263 89.8755 71.2751L89.6952 72.7969Z" fill="#FFF7F1"/>
<path d="M94.3846 67.9087C94.3662 67.9102 94.3477 67.9102 94.3293 67.9087C94.225 67.8935 94.1306 67.8354 94.067 67.7472C94.0034 67.659 93.9757 67.5478 93.99 67.4381C94.6055 63.5831 96.5351 60.0953 99.4186 57.6257C99.5026 57.5582 99.6086 57.5285 99.7134 57.5431C99.8182 57.5577 99.9132 57.6155 99.9775 57.7037C100.042 57.7919 100.07 57.9033 100.056 58.0134C100.042 58.1235 99.9872 58.2233 99.9033 58.2909C97.2034 60.6413 95.3868 63.9239 94.7782 67.5522C94.7644 67.6514 94.717 67.7421 94.6447 67.8076C94.5724 67.8731 94.48 67.909 94.3846 67.9087Z" fill="#FF8A8A"/>
<path d="M95.5939 63.8025C95.5218 63.8023 95.4511 63.7814 95.3894 63.7423C95.3276 63.7032 95.2772 63.6472 95.2433 63.5802C95.2095 63.5133 95.1936 63.438 95.1973 63.3624C95.201 63.2867 95.2242 63.2135 95.2644 63.1506C96.2123 61.6777 98.7826 61.8264 98.8912 61.8355C98.9965 61.8423 99.0949 61.8927 99.1648 61.9757C99.2347 62.0587 99.2703 62.1675 99.2639 62.2781C99.2575 62.3887 99.2095 62.4922 99.1305 62.5656C99.0515 62.6391 98.948 62.6765 98.8428 62.6698C98.2244 62.6311 96.4982 62.7248 95.9234 63.6181C95.8869 63.6747 95.8378 63.7211 95.7804 63.7533C95.723 63.7854 95.659 63.8023 95.5939 63.8025Z" fill="#FF8A8A"/>
<path d="M42.1669 58.1838C42.1669 58.1838 36.4136 49.9554 31.938 54.8223C27.4623 59.6893 36.0937 76.6544 43.9254 72.9599L42.1669 58.1838Z" fill="#FFB8A1"/>
<path d="M43.7283 71.2751C46.4256 72.4264 48.6443 74.5498 49.9864 77.2646C51.3285 79.9793 51.7062 83.1077 51.0517 86.0886C50.3973 89.0696 48.7536 91.7079 46.4153 93.5305C44.0771 95.3531 41.1973 96.2407 38.2927 96.0341C35.388 95.8274 32.6483 94.54 30.5652 92.4029C28.4821 90.2657 27.1918 87.4186 26.9258 84.3722C26.6597 81.3258 27.4353 78.2795 29.1134 75.7796C30.7915 73.2797 33.2623 71.4899 36.0827 70.7311C36.8914 70.5122 37.7195 70.3822 38.5537 70.343C38.6912 70.7651 38.7791 71.2033 38.8154 71.6479C38.3088 71.6618 37.8038 71.7135 37.3042 71.8027C34.7161 72.2579 32.3683 73.6706 30.6848 75.7855C29.0012 77.9005 28.0928 80.5783 28.1237 83.3354C28.1546 86.0925 29.1228 88.7471 30.8533 90.8198C32.5838 92.8925 34.9626 94.2467 37.56 94.6378C40.1575 95.0288 42.8025 94.431 45.0172 92.9522C47.232 91.4735 48.8705 89.2113 49.6369 86.5743C50.4033 83.9372 50.2471 81.0991 49.1964 78.5725C48.1457 76.0459 46.2699 73.9974 43.9076 72.7969L43.7283 71.2751Z" fill="#FFF7F1"/>
<path d="M43.7283 71.2751C46.4256 72.4264 48.6443 74.5498 49.9864 77.2646C51.3285 79.9793 51.7062 83.1077 51.0517 86.0886C50.3973 89.0696 48.7536 91.7079 46.4153 93.5305C44.0771 95.3531 41.1973 96.2407 38.2927 96.0341C35.388 95.8274 32.6483 94.54 30.5652 92.4029C28.4821 90.2657 27.1918 87.4186 26.9258 84.3722C26.6597 81.3258 27.4353 78.2795 29.1134 75.7796C30.7915 73.2797 33.2623 71.4899 36.0827 70.7311C36.8914 70.5122 37.7195 70.3822 38.5537 70.343C38.6912 70.7651 38.7791 71.2033 38.8154 71.6479C38.3088 71.6618 37.8038 71.7135 37.3042 71.8027C34.7161 72.2579 32.3683 73.6706 30.6848 75.7855C29.0012 77.9005 28.0928 80.5783 28.1237 83.3354C28.1546 86.0925 29.1228 88.7471 30.8533 90.8198C32.5838 92.8925 34.9626 94.2467 37.56 94.6378C40.1575 95.0288 42.8025 94.431 45.0172 92.9522C47.232 91.4735 48.8705 89.2113 49.6369 86.5743C50.4033 83.9372 50.2471 81.0991 49.1964 78.5725C48.1457 76.0459 46.2699 73.9974 43.9076 72.7969L43.7283 71.2751Z" fill="#FFF7F1"/>
<path d="M39.8547 67.9087C39.8731 67.9102 39.8916 67.9102 39.91 67.9087C40.0143 67.8935 40.1087 67.8354 40.1723 67.7472C40.2359 67.659 40.2636 67.5478 40.2493 67.4381C39.6338 63.5831 37.7041 60.0953 34.8207 57.6257C34.7367 57.5582 34.6307 57.5285 34.5259 57.5431C34.4211 57.5577 34.3261 57.6155 34.2618 57.7037C34.1975 57.7919 34.1692 57.9033 34.1832 58.0134C34.1971 58.1235 34.252 58.2233 34.336 58.2909C37.0359 60.6413 38.8525 63.9239 39.4611 67.5522C39.4749 67.6514 39.5223 67.7421 39.5946 67.8076C39.6669 67.8731 39.7592 67.909 39.8547 67.9087Z" fill="#FF8A8A"/>
<path d="M38.6493 63.8025C38.7214 63.8023 38.7921 63.7814 38.8538 63.7423C38.9155 63.7032 38.966 63.6472 38.9998 63.5802C39.0336 63.5133 39.0495 63.438 39.0458 63.3624C39.0421 63.2867 39.019 63.2135 38.9788 63.1506C38.0309 61.6777 35.4605 61.8264 35.3519 61.8355C35.2467 61.8423 35.1483 61.8927 35.0784 61.9757C35.0085 62.0587 34.9728 62.1675 34.9793 62.2781C34.9857 62.3887 35.0337 62.4922 35.1127 62.5656C35.1916 62.6391 35.2951 62.6765 35.4004 62.6698C36.0188 62.6311 37.745 62.7248 38.3197 63.6181C38.3562 63.6747 38.4053 63.7211 38.4627 63.7533C38.5202 63.7854 38.5842 63.8023 38.6493 63.8025Z" fill="#FF8A8A"/>
<path d="M94.9875 59.5173C94.5726 76.2644 85.9188 98.9378 66.8994 98.4642C50.0709 98.0496 41.7138 81.2689 39.6791 65.9611C39.5084 64.6695 39.3815 63.386 39.2991 62.126C37.6782 37.452 47.0144 24.8201 67.0807 24.1305C68.2072 24.0911 69.3685 24.0911 70.5647 24.1305C72.925 24.3877 75.268 24.798 77.5802 25.3589C91.4434 30.1322 95.4217 41.9105 94.9875 59.5173Z" fill="#FFB8A1"/>
<path opacity="0.5" d="M57.4171 69.5616C57.4171 71.4969 54.0243 73.0585 49.8394 73.0585C45.6546 73.0585 42.2607 71.4929 42.2607 69.5616C42.2607 67.6303 45.6536 66.0657 49.8394 66.0657C54.0253 66.0657 57.4171 67.6313 57.4171 69.5616Z" fill="#FF8A8A"/>
<path opacity="0.5" d="M93.069 69.5616C93.069 71.4969 89.6761 73.0585 85.4913 73.0585C81.3064 73.0585 77.9136 71.4929 77.9136 69.5616C77.9136 67.6303 81.3064 66.0657 85.4913 66.0657C89.6761 66.0657 93.069 67.6313 93.069 69.5616Z" fill="#FF8A8A"/>
<path d="M55.9844 39.21C51.0541 39.6032 52.5363 45.6049 47.6816 48.5385C42.3499 51.7594 43.012 53.6887 44.3023 58.2032C46.2188 64.9108 39.9168 66.5059 39.9168 66.5059C39.8373 66.3307 39.7568 66.1494 39.6802 65.9661C39.5096 64.6745 39.3826 63.391 39.3002 62.131C37.6794 37.4519 45.1844 23.07 67.078 24.1304C69.7962 34.9369 62.5811 38.6834 55.9844 39.21Z" fill="#3F2037"/>
<path d="M77.7566 37.4385C84.3116 37.3285 82.0219 44.4588 85.8937 47.7388C90.6786 51.7939 92.248 50.0704 90.1454 56.7148C87.972 63.5854 94.2168 66.5058 94.2168 66.5058C94.2973 66.3306 94.3768 66.1493 94.4543 65.9659C94.624 64.6743 94.7519 63.3909 94.8343 62.1308C96.4552 37.4517 88.511 23.135 67.0565 24.1302C64.3461 34.9368 71.1425 37.5485 77.7566 37.4385Z" fill="#3F2037"/>
<path d="M60.5463 47.7499C57.9745 47.812 52.3666 48.5332 49.8433 53.4409C49.8433 53.4409 55.6382 50.548 60.4881 50.8577C60.7054 50.8714 60.9229 50.8345 61.1251 50.7497C61.3272 50.665 61.5091 50.5343 61.6577 50.3672C61.8063 50.2 61.918 50.0005 61.9848 49.7828C62.0515 49.5651 62.0718 49.3345 62.044 49.1077C61.9981 48.7269 61.8196 48.3775 61.5431 48.1268C61.2665 47.876 60.9114 47.7418 60.5463 47.7499Z" fill="#3F2037"/>
<path d="M74.7833 47.7499C77.355 47.812 82.9629 48.5332 85.4853 53.4409C85.4853 53.4409 79.6903 50.548 74.8414 50.8577C74.624 50.8716 74.4064 50.8348 74.2041 50.7501C74.0018 50.6654 73.8198 50.5348 73.6711 50.3676C73.5224 50.2005 73.4106 50.0009 73.3438 49.7831C73.277 49.5653 73.2568 49.3347 73.2846 49.1077C73.3303 48.7267 73.5088 48.377 73.7856 48.1262C74.0624 47.8754 74.4179 47.7413 74.7833 47.7499Z" fill="#3F2037"/>
<path d="M68.4213 75.8467C67.391 75.8148 66.3778 75.5614 65.4443 75.1021C65.2996 75.0362 65.1793 74.9226 65.1015 74.7786C65.0236 74.6345 64.9926 74.4677 65.0129 74.3034L66.5329 62.0342C66.5577 61.8332 66.6575 61.6508 66.8103 61.5271C66.9631 61.4034 67.1564 61.3486 67.3477 61.3746C67.539 61.4007 67.7126 61.5056 67.8303 61.6661C67.948 61.8267 68.0002 62.0298 67.9754 62.2308L66.5271 73.9143C67.0956 74.2109 67.7257 74.3529 68.3599 74.3275C68.9942 74.302 69.6122 74.1099 70.1575 73.7687C70.2364 73.7084 70.3262 73.6655 70.4213 73.6425C70.5164 73.6195 70.6149 73.6168 70.711 73.6346C70.8071 73.6525 70.8989 73.6905 70.9807 73.7463C71.0625 73.8022 71.1328 73.8748 71.1874 73.9599C71.2419 74.0449 71.2797 74.1406 71.2983 74.2413C71.3169 74.342 71.316 74.4456 71.2957 74.5459C71.2754 74.6462 71.2361 74.7412 71.1801 74.8252C71.1241 74.9092 71.0526 74.9805 70.9698 75.0348C70.2191 75.5725 69.3298 75.8558 68.4213 75.8467Z" fill="#FF8A8A"/>
<path d="M66.9781 83.9569C66.3776 83.9567 65.7775 83.9203 65.1809 83.8479C63.1784 83.6156 61.2326 83.0045 59.4373 82.0439C59.2689 81.9452 59.1447 81.7802 59.0921 81.5853C59.0394 81.3903 59.0626 81.1814 59.1566 81.0044C59.2506 80.8275 59.4076 80.697 59.5931 80.6417C59.7786 80.5864 59.9775 80.6108 60.1459 80.7095C60.4958 80.9133 68.8112 85.6335 76.0099 78.6356C76.1523 78.5044 76.3378 78.4367 76.527 78.4469C76.7162 78.4572 76.894 78.5447 77.0228 78.6907C77.1515 78.8367 77.2209 79.0298 77.2162 79.2288C77.2115 79.4278 77.1332 79.617 76.9977 79.7561C74.3001 82.4645 70.7092 83.97 66.9781 83.9569Z" fill="#FF8A8A"/>
<path d="M68.2448 88.4377C67.1818 88.4353 66.1242 88.2787 65.102 87.9722C64.9205 87.9098 64.7696 87.7748 64.682 87.5964C64.5944 87.418 64.5772 87.2106 64.634 87.0189C64.6908 86.8273 64.8171 86.6668 64.9856 86.5723C65.1541 86.4777 65.3512 86.4566 65.5344 86.5135C65.5751 86.5268 68.903 87.58 71.246 86.1876C71.329 86.128 71.4229 86.0872 71.5217 86.0677C71.6205 86.0482 71.7221 86.0504 71.8201 86.0743C71.918 86.0981 72.0102 86.1431 72.0908 86.2063C72.1714 86.2694 72.2386 86.3495 72.2882 86.4414C72.3378 86.5332 72.3688 86.6349 72.3791 86.74C72.3895 86.8451 72.3789 86.9513 72.3482 87.0519C72.3175 87.1525 72.2673 87.2453 72.2007 87.3245C72.1341 87.4036 72.0526 87.4674 71.9614 87.5118C70.8186 88.1502 69.5387 88.4691 68.2448 88.4377Z" fill="#FF8A8A"/>
<path d="M58.4417 59.4908C58.4766 61.6238 57.7294 63.3616 56.7708 63.384C55.8122 63.4064 55.0058 61.687 54.9709 59.554C54.936 57.421 55.6843 55.6771 56.6419 55.6598C57.5995 55.6425 58.4069 57.3578 58.4417 59.4908Z" fill="#3F2037"/>
<path d="M76.5827 59.4908C76.5478 61.6238 77.2961 63.3616 78.2537 63.384C79.2113 63.4064 80.0187 61.687 80.0536 59.554C80.0885 57.421 79.3412 55.6771 78.3826 55.6598C77.424 55.6425 76.6225 57.3578 76.5827 59.4908Z" fill="#3F2037"/>
</svg>
