<svg width="18" height="18" viewBox="0 0 18 18" fill="none" xmlns="http://www.w3.org/2000/svg">
<g clip-path="url(#clip0_0_5708)">
<path d="M8.99868 18.0002C5.10407 18.0002 1.93555 14.8239 1.93555 10.9198C1.93555 7.88353 3.31543 5.17614 5.34141 2.95265C7.00771 1.12389 8.65686 0.116877 8.72622 0.0749351C9.09178 -0.146198 9.58238 0.155091 9.58238 0.562552V5.41289L12.0639 3.09683C12.2793 2.89577 12.6203 2.90969 12.8178 3.13297C13.7609 4.19908 14.5117 5.32489 15.0492 6.47917C18.0471 12.9171 13.9144 18.0002 8.99868 18.0002Z" fill="#FE4E33"/>
<path d="M15.0491 6.47921C14.5116 5.32493 13.7609 4.19912 12.8177 3.13301C12.6202 2.90969 12.2792 2.89581 12.0638 3.09687L9.58233 5.41292V0.562592C9.58233 0.255819 9.30428 0.00933838 9.01086 0.000549316V18.0001C13.9212 17.9917 18.0445 12.9118 15.0491 6.47921Z" fill="#FE1600"/>
<path d="M8.99864 18.0001C7.51856 18.0001 6.31445 16.793 6.31445 15.3094C6.31445 12.912 8.64208 11.4924 8.74115 11.4332C8.91482 11.3293 9.13227 11.3342 9.30116 11.4455C9.3984 11.5096 11.6828 13.0418 11.6828 15.3094C11.6828 16.793 10.4787 18.0001 8.99864 18.0001Z" fill="#FEC356"/>
<path d="M11.6828 15.3094C11.6828 13.0418 9.39839 11.5096 9.30118 11.4455C9.21322 11.3875 9.11211 11.3587 9.01086 11.3588V17.9997C10.4853 17.9931 11.6828 16.7889 11.6828 15.3094Z" fill="#FEB020"/>
</g>
<defs>
<clipPath id="clip0_0_5708">
<rect width="18" height="18" fill="white"/>
</clipPath>
</defs>
</svg>
