<svg width="75" height="140" viewBox="0 0 75 140" fill="none" xmlns="http://www.w3.org/2000/svg">
<g clip-path="url(#clip0_0_1884)">
<path d="M52.1848 15.9765C51.6482 13.4563 49.1401 11.8306 47.3619 10.3028C47.94 10.2059 48.461 9.88162 48.8182 9.39617C49.1754 8.91072 49.3419 8.30083 49.2836 7.69119C49.1588 6.66613 42.2396 -0.940169 38.9641 0.509272C35.5575 2.05665 35.4078 3.44733 35.4078 3.44733C35.4078 3.44733 31.7017 0.509261 29.3246 1.12952C26.9475 1.74977 26.9538 3.14047 27.3968 3.14047C28.0335 3.35183 28.6354 3.66452 29.1811 4.06757C29.1811 4.06757 25.4377 5.79125 24.1337 7.0187C23.8219 7.16151 23.5741 7.4235 23.4407 7.75114C23.3074 8.07879 23.2986 8.44734 23.4162 8.78152C23.5848 9.20875 23.8687 9.57525 24.2333 9.83617C24.5979 10.0971 25.0273 10.2411 25.4689 10.2506C25.4689 10.2506 20.5774 13.5151 19.9847 15.97C19.392 18.4249 20.8769 18.1376 20.8769 18.1376C20.8769 18.1376 21.0204 27.1085 22.0623 28.1858C23.1042 29.263 24.2834 28.0356 24.2834 28.0356C24.2834 28.0356 24.5829 31.7441 26.6605 33.9117C28.7382 36.0793 28.1392 34.3753 28.1392 34.3753L37.0362 38.8607L44.9411 34.3753C44.9411 34.3753 44.4171 36.0728 46.2576 33.9117C48.0981 31.7506 48.3664 28.0356 48.3664 28.0356C48.3664 28.0356 49.4208 29.2696 50.3442 28.1858C51.2676 27.1019 51.3986 18.1376 51.3986 18.1376C51.3986 18.1376 52.7151 18.451 52.1848 15.9765Z" fill="#263238" stroke="#263238" stroke-linecap="round" stroke-linejoin="round"/>
<path d="M72.8479 94.0178C72.511 91.1646 70.3835 84.7596 70.3835 84.7596L68.3433 72.2957C68.3433 72.2957 68.2559 63.9321 68.4244 61.8493C68.5929 59.7666 68.8487 55.6206 66.4715 52.0558C64.0944 48.491 56.9444 48.1384 56.9444 48.1384C56.9444 48.1384 52.577 46.2646 49.4575 44.4887C47.5592 43.4026 45.9735 41.8042 44.8655 39.8596L44.3539 32.4688L37.3723 32.5471L30.3907 32.4688L29.8604 39.8792C28.7511 41.825 27.1632 43.4236 25.2622 44.5083C22.1426 46.2841 17.7752 48.158 17.7752 48.158C17.7752 48.158 10.6252 48.5105 8.24811 52.0754C5.871 55.6402 6.12057 59.8188 6.28902 61.8689C6.45748 63.919 6.37637 72.3153 6.37637 72.3153L4.33618 84.7792C4.33618 84.7792 2.20864 91.1842 1.84053 94.0374C1.47242 96.8905 0.0561446 116.393 0.311948 117.816C0.567752 119.239 1.24781 120.93 1.50361 122.001C1.75942 123.072 3.37535 129.745 3.54381 130.273C3.71226 130.802 6.86302 130.992 7.36839 131.788C7.87376 132.585 9.67063 130.541 10.5191 129.477C11.3677 128.413 12.5593 129.209 12.9025 127.427C13.1393 126.045 13.1667 124.632 12.9836 123.242C12.9025 121.733 11.5361 120.571 10.3507 119.86C9.16525 119.148 6.94413 118.795 6.86302 114.251C6.78191 109.707 12.9025 97.5043 13.4079 93.5934C13.9132 89.6825 13.4079 84.6878 13.5825 84.4201C13.7572 84.1524 17.326 73.9215 17.326 73.9215C17.326 73.9215 19.0231 78.9031 19.4473 80.6855C19.6336 81.3202 19.8912 81.9295 20.2147 82.5006C21.5936 85.1122 23.4216 95.1277 22.648 97.674H51.9718C51.1982 95.1277 53.0325 85.0926 54.4113 82.4941C54.7331 81.9251 54.9886 81.318 55.1725 80.6855C55.5968 78.9031 57.3 73.9215 57.3 73.9215C57.3 73.9215 60.8688 84.1524 61.0435 84.4201C61.2182 84.6878 60.7004 89.676 61.212 93.5934C61.7236 97.5108 67.8442 109.714 67.7631 114.251C67.6819 118.789 65.4671 119.148 64.2754 119.86C63.0837 120.571 61.7236 121.733 61.6362 123.242C61.4554 124.633 61.4849 126.045 61.7236 127.427C62.0605 129.209 63.2522 128.406 64.1069 129.477C64.9617 130.548 66.7398 132.591 67.2265 131.788C67.7131 130.985 70.8826 130.809 71.0573 130.273C71.232 129.738 72.8417 123.091 73.0975 122.001C73.3533 120.911 74.0334 119.239 74.2892 117.816C74.545 116.393 73.1661 96.8644 72.8479 94.0178Z" fill="#FFB99A" stroke="#263238" stroke-linecap="round" stroke-linejoin="round"/>
<path d="M21.5623 48.4648L30.5279 49.6727" stroke="#263238" stroke-linecap="round" stroke-linejoin="round"/>
<path d="M53.6564 48.158L43.8298 49.5225" stroke="#263238" stroke-linecap="round" stroke-linejoin="round"/>
<path d="M17.3573 73.902L15.0613 65.1074L12.8901 61.7776" stroke="#263238" stroke-linecap="round" stroke-linejoin="round"/>
<path d="M57.344 73.9019L59.0098 64.1998L61.4618 61.0201" stroke="#263238" stroke-linecap="round" stroke-linejoin="round"/>
<path d="M17.9438 68.731C17.9438 68.731 21.5563 71.6102 23.2908 72.0607C25.0253 72.5113 31.9694 72.668 35.4383 69.6385" stroke="#263238" stroke-linecap="round" stroke-linejoin="round"/>
<path d="M56.0025 68.731C56.0025 68.731 52.3901 71.6102 50.6556 72.0607C48.9211 72.5113 41.977 72.668 38.5081 69.6385" stroke="#263238" stroke-linecap="round" stroke-linejoin="round"/>
<path d="M10.8059 124.841C10.8059 124.841 9.00277 126.728 8.62842 128.165" stroke="#263238" stroke-linecap="round" stroke-linejoin="round"/>
<path d="M9.62061 126.402C9.62061 126.402 10.2445 126.206 10.5565 127.185C10.8684 128.165 10.9807 129.144 10.5565 129.457" stroke="#263238" stroke-linecap="round" stroke-linejoin="round"/>
<path d="M64.4751 123.836C64.4751 123.836 66.1347 125.285 65.673 127.022" stroke="#263238" stroke-linecap="round" stroke-linejoin="round"/>
<path d="M63.6454 128.759C63.544 128.046 63.6082 127.318 63.8325 126.637C64.2006 125.984 65.5857 125.984 65.5857 125.984" stroke="#263238" stroke-linecap="round" stroke-linejoin="round"/>
<path d="M53.3821 121.636C53.6067 111.45 52.0158 97.6545 52.0158 97.6545H22.642C22.642 97.6545 21.051 111.45 21.2756 121.636C21.5002 131.821 26.9907 157.93 27.103 159.693C27.2153 161.456 24.6073 169.872 25.8551 174.651C27.103 179.43 27.8891 187.344 28.226 189.231C28.5629 191.117 28.7875 198.032 28.7875 198.032C28.7875 198.032 26.2919 202.432 24.6385 204.822C22.9851 207.211 22.2801 208.844 22.7293 209.849C23.1786 210.855 25.0877 212.742 27.8891 211.233C30.6905 209.725 32.1504 208.844 32.375 205.449C32.5996 202.054 34.6211 202.184 34.8707 199.037C35.1202 195.89 34.7584 194.388 34.7584 192.88C34.7584 191.372 36.549 177.544 36.549 177.544L37.3351 166.607L38.1212 177.544C38.1212 177.544 39.9056 191.352 39.9056 192.88C39.9056 194.408 39.5687 195.897 39.7933 199.037C40.0179 202.178 42.0394 202.054 42.289 205.449C42.5385 208.844 43.9673 209.725 46.7749 211.233C49.5825 212.742 51.4854 210.855 51.9347 209.849C52.3839 208.844 51.7101 207.238 50.0255 204.822C48.3409 202.406 45.8765 198.032 45.8765 198.032C45.8765 198.032 46.1011 191.117 46.438 189.231C46.7749 187.344 47.5798 179.437 48.8151 174.651C50.0504 169.865 47.4675 161.45 47.5673 159.693C47.6671 157.937 53.1638 131.814 53.3821 121.636Z" fill="#FFB99A" stroke="#263238" stroke-linecap="round" stroke-linejoin="round"/>
<path d="M38.664 97.6545H22.642C22.642 97.6545 21.051 111.45 21.2756 121.636C21.2756 122.732 21.3879 123.953 21.519 125.246C23.9647 126.552 28.3446 128.563 37.2852 126.226C37.2852 126.226 45.3649 129.666 52.9766 126.709C53.1942 125.026 53.3296 123.333 53.3821 121.636C53.6067 111.45 52.0158 97.6545 52.0158 97.6545H38.664Z" fill="#C1063D" stroke="#263238" stroke-linecap="round" stroke-linejoin="round"/>
<path d="M37.2849 156.664V117.163" stroke="#263238" stroke-linecap="round" stroke-linejoin="round"/>
<path d="M34.4336 114.01C34.4336 114.01 35.8561 116.726 38.0648 117.535" stroke="#263238" stroke-linecap="round" stroke-linejoin="round"/>
<path d="M27.7392 21.8983C27.7392 21.8983 26.167 19.685 25.699 21.7351C25.2311 23.7852 28.1947 25.8353 28.1947 25.8353L27.7392 21.8983Z" fill="#FFB99A" stroke="#263238" stroke-linecap="round" stroke-linejoin="round"/>
<path d="M45.7639 21.8983C45.7639 21.8983 47.33 19.685 47.7979 21.7351C48.2658 23.7852 45.3022 25.8353 45.3022 25.8353L45.7639 21.8983Z" fill="#FFB99A" stroke="#263238" stroke-linecap="round" stroke-linejoin="round"/>
<path d="M27.3838 14.8536C27.3838 14.8536 28.1824 29.2174 29.0871 31.5287C29.9917 33.84 34.016 37.0261 35.1078 37.4048C36.3739 37.6761 37.6773 37.6982 38.9511 37.4701C39.4191 37.3134 43.8675 33.7812 44.4353 32.2469C45.003 30.7126 46.3445 15.5457 46.3445 15.5457C46.1038 14.0918 45.5217 12.7233 44.6504 11.5632C43.7792 10.403 42.6462 9.48756 41.3532 8.89911C36.836 6.77065 33.9286 7.46274 31.0711 9.63037C29.3582 10.9334 28.0706 12.7573 27.3838 14.8536Z" fill="#FFB99A" stroke="#263238" stroke-linecap="round" stroke-linejoin="round"/>
<path d="M35.1826 30.5688C36.2161 30.7668 37.2771 30.7446 38.3022 30.5035" stroke="#263238" stroke-linecap="round" stroke-linejoin="round"/>
<path d="M29.7979 19.933C29.7979 19.933 31.838 18.0461 34.2651 19.1953" stroke="#263238" stroke-linecap="round" stroke-linejoin="round"/>
<path d="M43.9606 19.933C43.9606 19.933 41.9204 18.0461 39.4934 19.1953" stroke="#263238" stroke-linecap="round" stroke-linejoin="round"/>
<path d="M41.4403 23.1128C40.8164 23.3805 40.1301 23.2368 39.9616 22.7928C39.7932 22.3489 40.1862 21.7743 40.8351 21.487C41.484 21.1998 42.1453 21.3565 42.3138 21.8004C42.4822 22.2444 42.0891 22.8451 41.4403 23.1128Z" fill="#263238"/>
<path d="M32.0004 23.1128C32.6243 23.3805 33.3106 23.2368 33.4791 22.7928C33.6475 22.3489 33.2607 21.7743 32.6118 21.487C31.963 21.1998 31.3016 21.3565 31.1332 21.8004C30.9647 22.2444 31.3515 22.8451 32.0004 23.1128Z" fill="#263238"/>
<path d="M35.6003 26.9257C35.7337 27.1398 35.9089 27.322 36.1142 27.4604C36.3196 27.5988 36.5505 27.6902 36.792 27.7287C37.4721 27.7287 37.7279 27.7287 38.071 27.0105" stroke="#263238" stroke-linecap="round" stroke-linejoin="round"/>
<path d="M37.0479 52.552V66.942" stroke="#263238" stroke-linecap="round" stroke-linejoin="round"/>
<path d="M27.7203 19.7698L35.9185 10.5443C35.9185 10.5443 32.2062 16.8579 34.3711 16.5314C36.5361 16.205 41.7957 13.2996 41.7957 13.2996L45.7638 21.8983C45.7638 21.8983 47.361 15.8851 47.205 13.6195C47.049 11.3539 39.4748 5.53006 35.4568 6.0132C31.4388 6.49635 27.7203 10.2244 26.7969 13.7827C26.515 14.7897 26.4516 15.8498 26.6114 16.8856C26.7711 17.9214 27.15 18.9068 27.7203 19.7698Z" fill="#263238" stroke="#263238" stroke-linecap="round" stroke-linejoin="round"/>
</g>
<defs>
<clipPath id="clip0_0_1884">
<rect width="75" height="140" fill="white"/>
</clipPath>
</defs>
</svg>
