<svg width="353" height="200" viewBox="0 0 353 200" fill="none" xmlns="http://www.w3.org/2000/svg">
<rect width="353" height="200" rx="10" fill="#C1063D"/>
<ellipse opacity="0.5" cx="100.965" cy="125" rx="71.9653" ry="75" fill="white"/>
<g clip-path="url(#clip0_211_180)">
<path d="M99.4176 198.259C96.5531 198.263 93.6963 197.96 90.8963 197.356C86.0009 196.35 81.3898 194.271 77.3957 191.269C73.4017 188.267 70.1242 184.416 67.7998 179.994C65.9505 175.863 64.5787 171.534 63.7113 167.092L63.5105 166.231C60.6413 154.031 57.0262 141.114 50.3555 129.444C49.2796 127.566 48.1032 125.688 46.9699 123.867C44.2255 119.774 41.8949 115.418 40.0123 110.864C37.1432 103.037 37.7026 95.295 41.619 90.1626C42.1347 89.3659 42.8057 88.6811 43.5919 88.1491C44.3782 87.617 45.2635 87.2487 46.1953 87.066C46.7633 87.0069 47.3375 87.0614 47.8842 87.2263C48.431 87.3912 48.9395 87.6632 49.38 88.0265C49.7215 88.2986 50.0015 88.6399 50.2018 89.0278C50.4021 89.4157 50.518 89.8415 50.542 90.2773H49.6095C49.5871 89.9733 49.5015 89.6774 49.3583 89.4084C49.215 89.1393 49.0172 88.9031 48.7775 88.7147C48.4369 88.432 48.043 88.2203 47.6192 88.0923C47.1955 87.9642 46.7503 87.9224 46.31 87.9692C44.6938 88.3373 43.2813 89.3125 42.365 90.693C38.6494 95.5817 38.0613 102.994 40.9304 110.506C42.7866 115.027 45.0935 119.35 47.8163 123.409C48.9496 125.229 50.126 127.107 51.2163 129C57.9444 140.784 61.5595 153.773 64.4716 166.045L64.6725 166.905C65.5248 171.273 66.8724 175.53 68.6893 179.593C70.9504 183.887 74.1372 187.625 78.0198 190.538C81.9023 193.451 86.3836 195.466 91.1402 196.438C100.753 198.306 110.714 196.929 119.459 192.524C122.97 190.958 126.142 188.723 128.798 185.944C131.481 182.682 133.552 178.962 134.909 174.962C137.305 168.683 139.213 162.06 140.934 155.666C143.588 146.146 146.328 136.311 150.976 127.394C152.339 124.785 153.845 122.219 155.366 119.724C158.216 115.28 160.618 110.564 162.539 105.646C164.188 100.958 164.26 97.1158 162.768 94.1768C162.244 93.212 161.514 92.3748 160.628 91.7255C159.743 91.0761 158.725 90.6306 157.647 90.4207C156.9 90.2441 156.121 90.2441 155.374 90.4208C154.627 90.5975 153.932 90.946 153.343 91.4385L152.726 90.7361C153.42 90.1518 154.239 89.7353 155.119 89.519C156 89.3027 156.919 89.2923 157.805 89.4888C159.017 89.743 160.16 90.2599 161.151 91.003C162.143 91.746 162.959 92.6973 163.543 93.7897C165.164 96.9437 165.092 100.958 163.356 105.961C161.416 110.95 158.975 115.73 156.069 120.226C154.634 122.692 153.056 125.244 151.765 127.839C147.174 136.67 144.449 146.476 141.809 155.938C140.016 162.361 138.165 168.984 135.755 175.306C134.354 179.416 132.221 183.239 129.457 186.589C126.725 189.458 123.454 191.762 119.832 193.37C113.479 196.506 106.503 198.177 99.4176 198.259Z" fill="#C1063D"/>
<path d="M109.948 31.2545C110.694 30.0745 111.12 28.7206 111.182 27.3263C111.261 26.7048 111.203 26.0735 111.012 25.4767C110.821 24.8799 110.502 24.332 110.078 23.8712C109.719 23.5128 109.274 23.2547 108.944 22.882C108.614 22.5092 108.456 22.1222 108.184 21.7638C107.887 21.3799 107.507 21.0681 107.072 20.8521C106.637 20.6361 106.159 20.5214 105.673 20.5165C104.684 20.5165 103.636 20.9896 102.804 20.5165C102.288 20.2585 101.944 19.7424 101.441 19.4557C100.894 19.1845 100.266 19.1232 99.6769 19.2835C99.1657 19.4623 98.6258 19.5449 98.0845 19.5273C97.2955 19.4126 96.7647 18.7245 96.0762 18.3374C95.7222 18.1565 95.3329 18.0553 94.9357 18.0407C94.5384 18.026 94.1427 18.0984 93.7764 18.2528C93.4101 18.4071 93.082 18.6397 92.8151 18.9342C92.5482 19.2286 92.3491 19.5779 92.2315 19.9574C92.1455 20.3203 92.1455 20.6984 92.2315 21.0613C92.3893 21.9359 92.9918 22.6383 93.0349 23.5128C93.0779 24.3873 92.5471 25.1472 93.0349 25.907C93.5226 26.6669 94.2399 26.7098 94.5842 27.441C95.0433 28.4445 94.5842 29.7205 95.0002 30.7957C95.2154 31.4695 95.3302 32.4301 95.9614 32.8602C96.8365 33.4623 98.7588 32.9605 99.7917 32.8602C101.14 32.7598 102.503 32.6451 103.852 32.5161C105.645 32.3584 107.854 32.5878 109.475 31.6416C109.652 31.5386 109.812 31.4079 109.948 31.2545Z" fill="#452626"/>
<path d="M96.1763 30.6236C96.0339 30.4281 95.8473 30.2691 95.6317 30.1594C95.4161 30.0498 95.1776 29.9926 94.9357 29.9926C94.6938 29.9926 94.4553 30.0498 94.2397 30.1594C94.0241 30.2691 93.8375 30.4281 93.6951 30.6236C92.4473 32.0573 94.5556 34.9245 96.1763 35.0966C96.2707 33.6071 96.2707 32.1131 96.1763 30.6236Z" fill="#E0855C"/>
<path d="M116.332 54.637C115.951 57.0513 115.444 59.444 114.812 61.8052C114.711 62.2353 114.64 62.6653 114.568 63.0954C114.496 63.5255 114.453 63.8266 114.396 64.357C114.388 64.462 114.388 64.5675 114.396 64.6725C114.396 65.0165 114.295 65.375 114.252 65.762L112.445 82.6073C101.212 85.6896 89.4917 82.6073 89.4917 82.6073C89.4917 82.6073 89.4917 82.3922 89.4917 81.9765C89.3052 80.0698 88.7314 73.9911 88.1576 67.167C88.1646 67.1147 88.1646 67.0616 88.1576 67.0093C88.1632 66.909 88.1632 66.8085 88.1576 66.7082C87.9137 63.8409 87.6841 60.8016 87.4976 57.9056C87.1533 52.8736 86.9382 48.2287 86.9956 45.347C86.9956 44.2861 89.463 44.4008 91.1558 44.1714C92.4039 43.9851 93.6806 43.8847 94.7852 43.813C95.8899 43.7414 96.7219 43.813 97.2814 43.813H97.9126L98.0561 42.15L98.4434 38.1071C98.6317 38.1556 98.8236 38.1892 99.0172 38.2075C99.3732 38.2669 99.7325 38.3052 100.093 38.3222C100.537 38.3515 100.983 38.3515 101.427 38.3222H102.044H102.403C102.804 38.2553 103.192 38.1693 103.565 38.0641L104.253 37.8491C105.305 37.5233 106.302 37.0399 107.209 36.4154L107.338 36.3294L107.582 36.143C107.648 36.1129 107.706 36.069 107.754 36.014C107.754 36.2291 107.754 36.315 107.682 36.4011C107.567 37.3473 107.438 38.5515 107.381 39.7415C107.381 40.573 107.295 41.3758 107.266 42.0927C107.237 42.8095 107.008 43.813 107.51 44.1571C107.683 44.2692 107.879 44.3426 108.084 44.3721C108.869 44.5107 109.668 44.5636 110.465 44.5299H111.197C111.808 44.4869 112.422 44.4869 113.033 44.5299C113.461 44.5253 113.885 44.6081 114.28 44.7733C114.674 44.9385 115.031 45.1825 115.328 45.4904C115.758 46.0694 116.025 46.7523 116.103 47.4688L116.275 48.6444C116.515 50.6337 116.534 52.6434 116.332 54.637Z" fill="#F5A784"/>
<path d="M107.682 35.7703C107.488 36.7962 107.068 37.7666 106.454 38.6114C105.84 39.4562 105.047 40.1546 104.13 40.6563C103.214 41.158 102.198 41.4506 101.155 41.513C100.112 41.5755 99.0683 41.4062 98.0986 41.0174L98.3712 38.0498C99.9958 38.363 101.669 38.3214 103.276 37.928C104.883 37.5345 106.386 36.7984 107.682 35.7703Z" fill="#E0855C"/>
<path d="M96.463 26.3227C95.6309 27.1829 95.5592 29.1039 95.5018 31.2257C95.2867 37.6771 97.2233 39.6842 100.508 40.0426C103.794 40.401 107.251 39.1251 107.954 33.1468C108.313 30.1649 108.686 27.4122 107.61 26.122C105.989 24.1866 98.9878 23.6848 96.463 26.3227Z" fill="#F5A784"/>
<path d="M107.495 32.2866C107.495 32.2866 108.513 29.62 110.091 31.0393C111.668 32.4586 109.488 36.4872 107.065 36.1861C107.065 36.2578 106.72 33.2041 107.495 32.2866Z" fill="#F5A784"/>
<path d="M109.36 32.2437C108.989 32.3723 108.654 32.5888 108.385 32.8745C108.092 33.1253 107.853 33.4325 107.682 33.7777C107.682 33.8924 107.783 33.9497 107.854 33.8923C107.926 33.835 108.227 33.4622 108.428 33.2615C108.55 33.4196 108.707 33.5472 108.887 33.6343C109.03 33.6343 109.145 33.5053 109.087 33.3762C108.983 33.2322 108.852 33.1103 108.7 33.0178C108.965 32.8418 109.218 32.6503 109.46 32.4444C109.481 32.428 109.495 32.4051 109.501 32.3794C109.506 32.3537 109.503 32.3269 109.491 32.3034C109.479 32.2799 109.46 32.2611 109.436 32.2503C109.412 32.2394 109.385 32.2371 109.36 32.2437Z" fill="#E0855C"/>
<path d="M98.3288 31.0824C98.3288 31.0824 97.7697 31.2831 97.8557 30.2939C97.9417 29.3047 98.3288 29.534 98.3288 29.534C98.3288 29.534 98.7159 29.534 98.6585 30.3081C98.6012 31.0823 98.3288 31.0824 98.3288 31.0824Z" fill="#452626"/>
<path d="M103.979 31.0824C103.979 31.0824 103.42 31.2831 103.506 30.2939C103.592 29.3047 103.979 29.534 103.979 29.534C103.979 29.534 104.366 29.534 104.294 30.3081C104.223 31.0823 103.979 31.0824 103.979 31.0824Z" fill="#452626"/>
<path d="M98.9295 28.0859C98.7055 27.954 98.4449 27.898 98.1865 27.9264C97.9281 27.9548 97.6858 28.0661 97.4959 28.2436C97.4861 28.2632 97.4816 28.285 97.4826 28.3069C97.4836 28.3287 97.4901 28.35 97.5015 28.3686C97.513 28.3873 97.5291 28.4027 97.5481 28.4134C97.5672 28.4242 97.5887 28.4298 97.6106 28.43C97.8113 28.43 97.9833 28.3153 98.184 28.301C98.3943 28.291 98.6043 28.3252 98.8005 28.4014C98.9868 28.4587 99.1159 28.1719 98.9295 28.0859Z" fill="#452626"/>
<path d="M104.812 28.5734C104.582 28 103.593 27.9426 103.177 28.301C103.157 28.3156 103.14 28.3349 103.128 28.3574C103.116 28.3799 103.11 28.4047 103.11 28.43C103.11 28.4553 103.116 28.4803 103.128 28.5027C103.14 28.5252 103.157 28.5445 103.177 28.5591C103.435 28.5877 103.694 28.5877 103.952 28.5591C104.16 28.5927 104.363 28.6554 104.554 28.7455C104.726 28.8028 104.855 28.6738 104.812 28.5734Z" fill="#452626"/>
<path d="M99.4619 35.6987C100.672 35.8572 101.901 35.6474 102.99 35.0966C102.827 35.4791 102.586 35.8234 102.282 36.1073C101.979 36.3912 101.619 36.6086 101.226 36.7453C99.9783 37.0894 99.4619 35.6987 99.4619 35.6987Z" fill="white"/>
<path d="M92.2167 45.3328C95.5162 47.641 95.8174 52.1282 94.2107 55.698C93.1205 58.1065 91.0977 59.7838 89.907 62.049C88.6628 64.2437 87.2224 66.3214 85.6033 68.2567C82.0456 72.7726 78.66 76.8585 77.3546 78.4068C72.85 83.7973 63.4105 90.8508 60.0106 93.3166L58.7769 94.2055C58.7769 94.2055 55.5204 92.4852 56.3812 89.3312C56.3812 89.3312 69.2923 75.6399 71.2003 72.8443C73.3059 69.2042 75.2213 65.4573 76.9385 61.6189C79.1382 57.3753 81.4287 53.1795 83.8101 49.0315C84.9004 47.1391 86.2919 44.7306 88.6876 44.3149C89.6826 44.1914 90.6906 44.398 91.5568 44.9027C91.7845 45.0337 92.0048 45.1773 92.2167 45.3328Z" fill="#F5A784"/>
<path d="M56.3964 89.3023C56.7497 89.2752 57.1046 89.2752 57.458 89.3023C57.458 89.3023 60.571 91.0227 60.0258 93.2592L59.1795 94.019C58.7204 94.4491 58.1035 95.0226 57.4293 95.6964C56.755 96.3702 55.2201 98.5637 54.5602 98.3916C54.4053 98.3296 54.2711 98.2252 54.1728 98.0905L52.8387 96.6569C52.0927 95.8397 50.8446 94.4347 51.7915 93.3165C51.1029 93.7323 49.4962 94.7502 48.7071 94.2628L48.4346 93.7466C48.4346 93.7466 50.8016 91.9832 51.7771 91.1087C53.0743 90.0122 54.699 89.3769 56.3964 89.3023Z" fill="#F5A784"/>
<path d="M96.1338 67.2961C96.1273 67.3725 96.1273 67.4492 96.1338 67.5255C96.1338 67.5972 96.2628 67.5972 96.2341 67.5255L96.1338 67.2961Z" fill="#D6BED3"/>
<path d="M101.499 113.746C100.179 124.326 98.6301 133.516 98.6301 133.516C98.8452 136.068 98.9457 138.835 98.9457 141.673C98.9457 147.221 98.587 153.142 98.0993 158.346C97.4968 164.984 96.6647 170.633 96.3061 173.457V173.815C96.8369 192.639 91.4716 195.148 88.9611 191.019C86.4506 186.89 88.9611 174.776 88.9611 174.776C88.9679 174.671 88.9679 174.566 88.9611 174.461C87.9057 168.828 87.2015 163.135 86.8523 157.415C85.9915 143.566 87.4691 134.089 87.297 132.355C84.2988 102.248 88.4877 85.661 88.4877 85.661C89.1455 83.2459 90.3257 81.0045 91.945 79.095C95.0006 75.7976 98.6731 76.6434 100.983 80.6719C101.228 81.0834 101.449 81.5096 101.643 81.9479C102.591 84.2597 103.125 86.7199 103.221 89.2164C103.407 95.4528 102.532 105.072 101.499 113.746Z" fill="#F5A784"/>
<path d="M116.275 156.683C115.951 162.538 115.251 168.366 114.18 174.131L114.051 174.833C114.051 174.833 116.562 187.019 114.051 191.076C111.541 195.134 106.233 192.668 106.706 174.073C106.706 173.987 106.706 173.901 106.706 173.815C106.305 171.134 105.501 165.214 104.87 158.389C104.397 153.128 104.009 147.264 104.009 141.687C104.009 138.82 104.124 136.082 104.339 133.516C104.339 133.516 102.747 124.326 101.47 113.775C100.394 105.072 99.5048 95.4526 99.8778 89.2737C99.9851 86.7772 100.524 84.318 101.47 82.0051C101.658 81.5548 101.879 81.1188 102.13 80.7005C104.784 76.0985 109.202 75.6971 112.459 80.8726C113.38 82.3895 114.103 84.0179 114.611 85.7183C114.611 85.7183 118.8 102.262 115.801 132.412C115.615 134.118 117.035 143.265 116.275 156.683Z" fill="#F5A784"/>
<path d="M56.0668 98.664C56.3457 98.9991 56.6974 99.2662 57.0951 99.4451C57.4929 99.6239 57.9261 99.7098 58.3621 99.6962C58.5623 99.6496 58.7511 99.563 58.9169 99.4415C59.0826 99.32 59.222 99.1661 59.3266 98.9892C59.4312 98.8123 59.4988 98.616 59.5253 98.4123C59.5519 98.2085 59.5368 98.0015 59.481 97.8038C59.3015 97.387 59.0321 97.0149 58.692 96.7142C56.5115 94.5733 54.2927 92.4802 52.0356 90.4349C51.6593 90.0109 51.1562 89.7194 50.6011 89.6034C50.0832 89.5973 49.5805 89.7781 49.1852 90.1125C48.7899 90.447 48.5286 90.9126 48.4492 91.4241C48.4492 92.3416 49.2382 92.6857 49.8838 93.2018C51.9352 94.9365 53.9723 96.8433 56.0668 98.664Z" fill="#452626"/>
<path d="M55.7344 96.1265C55.8236 96.0345 55.8964 95.9277 55.9495 95.8111C55.986 95.6606 55.9882 95.504 55.9559 95.3526C55.9237 95.2013 55.8577 95.059 55.763 94.9366C55.2324 94.0764 54.1424 92.6714 53.0667 92.5424C52.7117 92.5258 52.3586 92.6016 52.0418 92.7624C51.725 92.9232 51.4555 93.1637 51.2596 93.46C50.9494 93.9144 50.7513 94.4358 50.6815 94.9815C50.6117 95.5273 50.6722 96.0818 50.858 96.5996C51.1773 97.5467 51.8228 98.3494 52.6794 98.8647C53.109 99.0429 53.5904 99.0501 54.0251 98.8848C54.4598 98.7196 54.8148 98.3943 55.0173 97.9759C55.2324 97.4454 55.1607 96.8003 55.5193 96.3559C55.5834 96.2727 55.6555 96.1959 55.7344 96.1265Z" fill="#F5A784"/>
<path d="M110.637 45.3327C107.323 47.6409 107.022 52.1281 108.643 55.6979C109.719 58.1064 111.756 59.7837 112.947 62.0489C114.201 64.2373 115.641 66.3141 117.251 68.2566C120.808 72.7725 124.208 76.8584 125.514 78.4068C130.004 83.7972 139.458 90.8507 142.843 93.3165L144.091 94.2054C144.091 94.2054 147.333 92.4851 146.487 89.3311C146.487 89.3311 133.576 75.6398 131.654 72.8442C129.548 69.2042 127.632 65.4573 125.915 61.6188C123.725 57.3753 121.43 53.1794 119.029 49.0314C117.939 47.139 116.562 44.7306 114.152 44.3148C113.185 44.2073 112.209 44.4134 111.369 44.9026C111.115 45.0278 110.87 45.1715 110.637 45.3327Z" fill="#F5A784"/>
<path d="M146.459 89.3024C146.1 89.2755 145.741 89.2755 145.383 89.3024C145.383 89.3024 142.284 91.0228 142.815 93.2593C142.815 93.2593 143.159 93.546 143.661 94.0191C144.163 94.4922 144.751 95.0227 145.411 95.6965C146.071 96.3703 147.635 98.5638 148.352 98.3917C148.505 98.326 148.638 98.2223 148.74 98.0906L150.059 96.657C150.82 95.8398 152.053 94.4348 151.121 93.3166C151.795 93.7323 153.402 94.7503 154.205 94.2628L154.478 93.7467C154.478 93.7467 152.111 91.9833 151.121 91.1088C149.815 89.9986 148.172 89.362 146.459 89.3024Z" fill="#F5A784"/>
<path d="M146.789 98.6641C146.503 98.9948 146.148 99.2586 145.749 99.437C145.35 99.6153 144.916 99.7039 144.479 99.6963C144.279 99.6498 144.09 99.5631 143.924 99.4416C143.758 99.3201 143.619 99.1662 143.514 98.9893C143.41 98.8124 143.342 98.6161 143.316 98.4124C143.289 98.2087 143.304 98.0017 143.36 97.8039C143.54 97.3835 143.815 97.0105 144.163 96.7143C146.325 94.5734 148.544 92.4803 150.82 90.435C151.213 89.9948 151.744 89.7016 152.326 89.6035C152.841 89.6009 153.341 89.7832 153.733 90.1174C154.125 90.4515 154.385 90.9152 154.464 91.4242C154.464 92.3417 153.689 92.6858 153.029 93.2019C150.906 94.9366 148.84 96.8434 146.789 98.6641Z" fill="#452626"/>
<path d="M147.117 96.1265C147.019 96.0387 146.941 95.9312 146.888 95.8111C146.858 95.6594 146.861 95.5032 146.895 95.3526C146.93 95.2019 146.996 95.0602 147.088 94.9366C147.605 94.0764 148.695 92.6715 149.77 92.5424C150.126 92.5244 150.479 92.5995 150.796 92.7605C151.113 92.9215 151.383 93.1627 151.578 93.46C151.891 93.913 152.091 94.4345 152.161 94.9809C152.231 95.5272 152.169 96.0824 151.979 96.5997C151.67 97.5523 151.022 98.3583 150.158 98.8647C149.728 99.0429 149.247 99.0501 148.812 98.8849C148.377 98.7196 148.022 98.3944 147.82 97.9759C147.619 97.4454 147.691 96.8003 147.332 96.3559L147.117 96.1265Z" fill="#F5A784"/>
<path d="M116.491 147.494V148.927C116.491 149.874 116.491 150.877 116.491 151.895C116.491 152.282 116.491 152.655 116.491 153.056C116.491 154.232 116.405 155.436 116.348 156.698C112.633 157.722 108.809 158.295 104.957 158.404C104.799 156.798 104.484 152.526 104.469 152.053C104.469 151.064 104.269 148.325 104.24 147.953C104.154 145.859 104.096 143.766 104.096 141.702C104.096 139.035 104.197 136.44 104.398 134.018C104.398 133.846 104.398 133.688 104.398 133.53C104.398 133.372 102.805 124.341 101.529 113.789C101.385 114.907 101.242 116.025 101.098 117.101C99.8931 126.19 98.6163 133.53 98.6163 133.53C98.8315 136.082 98.9319 138.849 98.9319 141.688C98.9319 143.838 98.9319 145.988 98.7885 148.254C98.7885 148.626 98.4872 153.415 98.4442 153.873C98.3438 155.407 98.2147 156.913 98.0856 158.361C96.0915 158.275 94.0975 158.131 92.1321 157.974C90.5828 157.83 88.6318 157.759 86.7381 157.486C86.6521 156.196 86.5947 154.949 86.5516 153.759C86.5516 153.458 86.5516 153.142 86.5516 152.856C86.5516 151.537 86.5516 150.289 86.5516 149.071V148.082C86.5516 139.394 87.398 133.745 87.2689 132.312C84.2707 102.205 88.4596 85.618 88.4596 85.618C89.1174 83.2028 90.2976 80.9614 91.9169 79.0519C93.1457 79.254 94.3516 79.5757 95.5177 80.0125C97.2928 80.4679 99.1226 80.6754 100.955 80.6289H102.275C103.867 80.6289 105.459 80.4425 107.037 80.3995H108.099C109.611 80.3835 111.121 80.5277 112.603 80.8297C113.525 82.3466 114.248 83.9749 114.755 85.6753C115.866 91.1194 116.495 96.6508 116.634 102.205C117.128 112.295 116.845 122.408 115.788 132.455C115.659 133.745 116.419 139.164 116.491 147.494Z" fill="#452626"/>
<path d="M96.1769 173.887C96.3777 181.299 95.6748 186.188 94.5845 189.127C92.9204 193.671 90.3525 193.614 88.8462 191.148C88.4613 190.473 88.1991 189.735 88.0716 188.969C87.01 183.851 88.8462 174.905 88.8462 174.905C88.853 174.8 88.853 174.695 88.8462 174.59C89.56 175.11 90.3691 175.485 91.2276 175.693C92.1924 175.933 93.2093 175.852 94.1235 175.461C95.0376 175.07 95.7989 174.392 96.2916 173.529L96.1769 173.887Z" fill="#C1063D"/>
<path d="M114.912 188.482C114.792 189.393 114.5 190.274 114.051 191.076C112.502 193.614 109.834 193.6 108.184 188.711C107.18 185.772 106.534 181.07 106.749 174.073C107.824 175.038 109.208 175.587 110.651 175.622C111.937 175.493 113.158 174.995 114.166 174.188C114.169 174.41 114.145 174.632 114.094 174.848C114.094 174.848 115.845 183.32 114.912 188.482Z" fill="#C1063D"/>
<path d="M94.0095 178.188C93.283 177.755 92.453 177.526 91.6071 177.526C90.7613 177.526 89.9312 177.755 89.2048 178.188C89.1778 178.218 89.1598 178.255 89.1528 178.294C89.1457 178.334 89.1499 178.375 89.1648 178.412C89.1797 178.449 89.2048 178.482 89.2372 178.505C89.2696 178.529 89.3081 178.543 89.3482 178.546C90.0653 178.546 90.7824 178.245 91.4565 178.26C92.2465 178.32 93.0265 178.474 93.78 178.718C93.8446 178.727 93.9101 178.713 93.9667 178.681C94.0232 178.649 94.0677 178.599 94.0936 178.539C94.1194 178.479 94.1252 178.413 94.11 178.35C94.0949 178.286 94.0596 178.23 94.0095 178.188Z" fill="#291B30"/>
<path d="M93.7806 180.525C92.5558 179.811 91.1186 179.552 89.7217 179.794C89.2484 179.794 89.2341 180.582 89.7217 180.539C90.3961 180.477 91.0757 180.501 91.744 180.611C92.3607 180.726 92.9201 180.998 93.5368 181.127C93.6127 181.143 93.6919 181.132 93.7604 181.096C93.829 181.06 93.8826 181 93.9117 180.928C93.9408 180.856 93.9436 180.777 93.9196 180.703C93.8956 180.629 93.8464 180.566 93.7806 180.525Z" fill="#291B30"/>
<path d="M112.774 178.188C111.684 177.801 109.318 177.672 108.472 178.661C108.357 178.804 108.472 179.077 108.629 179.048C109.303 179.048 109.891 178.69 110.594 178.675C111.297 178.661 112.028 178.833 112.688 178.79C112.768 178.801 112.849 178.781 112.914 178.732C112.978 178.684 113.021 178.612 113.032 178.532C113.044 178.452 113.023 178.371 112.975 178.307C112.926 178.242 112.854 178.199 112.774 178.188Z" fill="#291B30"/>
<path d="M113.302 180.64C112.112 180.123 109.143 179.736 108.541 181.342C108.455 181.557 108.727 181.729 108.899 181.629C109.519 181.285 110.209 181.086 110.917 181.046C111.625 181.007 112.332 181.127 112.987 181.399C113.417 181.586 113.747 180.826 113.302 180.64Z" fill="#291B30"/>
<path d="M58.9921 43.6697C58.9921 43.5837 58.8201 43.5837 58.8057 43.6697C58.0889 48.5584 58.5047 53.7053 58.5047 58.6943C58.5047 63.9845 58.347 69.3176 58.6481 74.6077C58.6616 74.664 58.6937 74.7141 58.7392 74.75C58.7847 74.7858 58.841 74.8053 58.8989 74.8053C58.9569 74.8053 59.0131 74.7858 59.0586 74.75C59.1041 74.7141 59.1363 74.664 59.1498 74.6077C59.4509 69.3176 59.2789 63.9845 59.2789 58.6943C59.2932 53.7769 59.6946 48.5584 58.9921 43.6697Z" fill="#E8CEE5"/>
<path d="M65.2618 45.2898C65.2618 45.2099 65.2301 45.1333 65.1737 45.0769C65.1172 45.0204 65.0406 44.9888 64.9608 44.9888C64.8809 44.9888 64.8043 45.0204 64.7479 45.0769C64.6914 45.1333 64.6597 45.2099 64.6597 45.2898C64.6597 49.9921 64.3443 54.7805 64.6597 59.4685C64.6597 59.5483 64.6914 59.6249 64.7479 59.6814C64.8043 59.7378 64.8809 59.7696 64.9608 59.7696C65.0406 59.7696 65.1172 59.7378 65.1737 59.6814C65.2301 59.6249 65.2618 59.5483 65.2618 59.4685C65.6346 54.7805 65.2905 49.9921 65.2618 45.2898Z" fill="#E8CEE5"/>
<path d="M129.401 94.5208C129.389 94.4784 129.364 94.441 129.329 94.4143C129.294 94.3877 129.251 94.3733 129.207 94.3733C129.163 94.3733 129.12 94.3877 129.085 94.4143C129.05 94.441 129.025 94.4784 129.013 94.5208C128.617 100.672 128.536 106.84 128.77 113C128.77 119.165 128.77 125.33 128.999 131.494C129.011 131.54 129.038 131.581 129.076 131.61C129.113 131.639 129.16 131.654 129.207 131.654C129.254 131.654 129.301 131.639 129.338 131.61C129.376 131.581 129.403 131.54 129.415 131.494C129.616 125.33 129.616 119.165 129.644 113C129.878 106.84 129.797 100.672 129.401 94.5208Z" fill="#E8CEE5"/>
<path d="M140.505 58.4649C140.46 54.3627 140.192 50.266 139.702 46.1929C139.702 45.9492 139.315 46.0209 139.3 46.1929C139.176 50.5688 139.296 54.9482 139.659 59.3108C139.831 63.3823 139.788 67.5685 140.332 71.6257C140.332 71.9984 140.963 71.8837 140.978 71.5253C141.178 67.2531 140.72 62.7945 140.505 58.4649Z" fill="#E8CEE5"/>
<path d="M143.387 60.7444C143.377 60.7123 143.357 60.6842 143.33 60.6643C143.302 60.6444 143.27 60.6337 143.236 60.6337C143.202 60.6337 143.17 60.6444 143.143 60.6643C143.116 60.6842 143.096 60.7123 143.086 60.7444C142.706 66.6345 142.677 72.5419 143 78.4354C143.013 78.4882 143.043 78.5352 143.086 78.5688C143.129 78.6023 143.182 78.6205 143.236 78.6205C143.291 78.6205 143.343 78.6023 143.386 78.5688C143.429 78.5352 143.46 78.4882 143.473 78.4354C143.795 72.5419 143.767 66.6345 143.387 60.7444Z" fill="#E8CEE5"/>
<path d="M101.024 117.086C101.045 115.97 101.19 114.859 101.454 113.775C101.311 114.893 101.168 116.011 101.024 117.086Z" fill="#291B30"/>
<path d="M116.633 102.205C114.697 90.5783 98.7157 90.0335 98.7157 90.0335C97.7115 85.1735 104.167 83.7542 104.167 83.7542L107.94 80.4855C109.452 80.4695 110.962 80.6137 112.445 80.9156C113.366 82.4325 114.089 84.061 114.596 85.7613C115.746 91.1741 116.428 96.6756 116.633 102.205Z" fill="black"/>
<path d="M114.869 86.9655C101.958 93.0298 87.9277 87.4673 87.9277 87.4673C88.9463 84.6 88.186 69.977 88.1142 67.1957C88.1213 67.1434 88.1213 67.0903 88.1142 67.0379C88.1199 66.9377 88.1199 66.8372 88.1142 66.7369C90.8256 60.4576 91.1268 48.3576 91.1411 44.2001C92.3605 44.0137 93.6373 43.9134 94.7419 43.8417C95.1723 48.501 96.7073 60.4146 100.982 59.8984C105.257 59.3823 107.294 48.7734 108.04 44.1284C108.825 44.2745 109.624 44.3274 110.422 44.2861H111.153C110.78 50.6371 114.309 63.9843 114.424 64.357C114.416 64.462 114.416 64.5675 114.424 64.6725C114.424 65.0166 114.324 65.375 114.281 65.7621C114.281 65.7621 114.281 65.9197 114.281 66.0058C113.363 74.0771 114.869 86.9655 114.869 86.9655Z" fill="#C1063D"/>
</g>
<circle opacity="0.5" cx="272" cy="136.938" r="60" fill="white"/>
<g clip-path="url(#clip1_211_180)">
<path d="M273.274 201.376C271.064 201.379 268.86 201.145 266.7 200.677C262.923 199.9 259.365 198.292 256.283 195.971C253.202 193.65 250.673 190.672 248.88 187.253C247.453 184.059 246.394 180.712 245.725 177.277L245.57 176.612C243.357 167.179 240.567 157.191 235.421 148.168C234.59 146.716 233.683 145.264 232.808 143.856C230.691 140.691 228.893 137.323 227.44 133.802C225.227 127.75 225.658 121.764 228.68 117.796C229.078 117.18 229.596 116.65 230.202 116.239C230.809 115.828 231.492 115.543 232.211 115.402C232.649 115.356 233.092 115.398 233.514 115.525C233.936 115.653 234.328 115.863 234.668 116.144C234.931 116.355 235.147 116.618 235.302 116.918C235.456 117.218 235.546 117.548 235.564 117.885H234.845C234.828 117.65 234.762 117.421 234.651 117.213C234.541 117.005 234.388 116.822 234.203 116.676C233.94 116.458 233.636 116.294 233.309 116.195C232.982 116.096 232.639 116.064 232.299 116.1C231.052 116.385 229.962 117.139 229.255 118.206C226.389 121.986 225.935 127.717 228.149 133.525C229.581 137.021 231.361 140.363 233.461 143.502C234.336 144.909 235.243 146.361 236.085 147.825C241.276 156.936 244.065 166.979 246.312 176.468L246.467 177.133C247.124 180.51 248.164 183.802 249.566 186.943C251.311 190.263 253.769 193.153 256.765 195.406C259.76 197.658 263.218 199.216 266.888 199.968C274.305 201.412 281.99 200.347 288.737 196.942C291.446 195.73 293.893 194.002 295.942 191.854C298.013 189.332 299.61 186.455 300.658 183.363C302.506 178.507 303.978 173.386 305.306 168.442C307.354 161.082 309.468 153.478 313.054 146.583C314.106 144.566 315.268 142.582 316.441 140.653C318.64 137.216 320.494 133.57 321.975 129.768C323.248 126.143 323.303 123.172 322.152 120.9C321.748 120.154 321.184 119.506 320.501 119.004C319.818 118.502 319.033 118.158 318.201 117.995C317.624 117.859 317.024 117.859 316.448 117.995C315.871 118.132 315.335 118.402 314.88 118.782L314.404 118.239C314.939 117.788 315.571 117.465 316.251 117.298C316.93 117.131 317.639 117.123 318.323 117.275C319.258 117.471 320.14 117.871 320.905 118.446C321.67 119.02 322.299 119.756 322.75 120.6C324.001 123.039 323.945 126.143 322.606 130.011C321.109 133.869 319.226 137.564 316.983 141.041C315.876 142.947 314.659 144.92 313.663 146.927C310.121 153.755 308.018 161.337 305.981 168.653C304.598 173.619 303.17 178.74 301.311 183.629C300.23 186.806 298.583 189.762 296.451 192.352C294.343 194.571 291.819 196.352 289.025 197.596C284.123 200.02 278.741 201.312 273.274 201.376Z" fill="#C1063D"/>
<path d="M281.399 72.2482C281.975 71.3359 282.303 70.289 282.351 69.211C282.412 68.7304 282.367 68.2423 282.22 67.7808C282.073 67.3194 281.827 66.8957 281.499 66.5395C281.222 66.2624 280.879 66.0628 280.624 65.7746C280.37 65.4864 280.248 65.1872 280.038 64.91C279.809 64.6132 279.515 64.3722 279.18 64.2051C278.844 64.0381 278.475 63.9494 278.101 63.9457C277.337 63.9457 276.529 64.3115 275.887 63.9457C275.489 63.7461 275.223 63.3471 274.836 63.1254C274.413 62.9157 273.929 62.8683 273.474 62.9923C273.08 63.1305 272.663 63.1944 272.246 63.1808C271.637 63.0921 271.227 62.56 270.696 62.2608C270.423 62.1209 270.123 62.0426 269.816 62.0313C269.51 62.02 269.204 62.076 268.922 62.1953C268.639 62.3147 268.386 62.4945 268.18 62.7222C267.974 62.9499 267.82 63.2199 267.73 63.5133C267.663 63.794 267.663 64.0863 267.73 64.3669C267.851 65.0431 268.316 65.5862 268.35 66.2624C268.383 66.9385 267.973 67.5261 268.35 68.1136C268.726 68.7011 269.279 68.7343 269.545 69.2996C269.899 70.0755 269.545 71.0621 269.866 71.8935C270.032 72.4145 270.12 73.1572 270.608 73.4897C271.283 73.9553 272.766 73.5673 273.563 73.4897C274.603 73.4121 275.655 73.3234 276.695 73.2237C278.079 73.1017 279.783 73.2791 281.034 72.5475C281.171 72.4679 281.294 72.3669 281.399 72.2482Z" fill="#452626"/>
<path d="M270.774 71.7605C270.664 71.6094 270.52 71.4864 270.354 71.4016C270.188 71.3168 270.004 71.2726 269.817 71.2726C269.63 71.2726 269.446 71.3168 269.28 71.4016C269.114 71.4864 268.97 71.6094 268.86 71.7605C267.897 72.869 269.524 75.086 270.774 75.219C270.847 74.0673 270.847 72.9122 270.774 71.7605Z" fill="#E0855C"/>
<path d="M286.325 90.3277C286.031 92.1944 285.639 94.0444 285.151 95.8701C285.074 96.2026 285.018 96.5351 284.963 96.8677C284.908 97.2002 284.875 97.433 284.83 97.8431C284.824 97.9243 284.824 98.0059 284.83 98.087C284.83 98.3531 284.753 98.6302 284.72 98.9295L283.325 111.954C274.658 114.337 265.616 111.954 265.616 111.954C265.616 111.954 265.616 111.788 265.616 111.466C265.472 109.992 265.029 105.292 264.586 100.016C264.592 99.9753 264.592 99.9343 264.586 99.8939C264.591 99.8163 264.591 99.7386 264.586 99.6611C264.398 97.4441 264.221 95.0941 264.077 92.855C263.811 88.9642 263.645 85.3728 263.69 83.1447C263.69 82.3244 265.593 82.4131 266.9 82.2357C267.863 82.0916 268.848 82.014 269.7 81.9586C270.552 81.9032 271.194 81.9586 271.626 81.9586H272.113L272.223 80.6727L272.522 77.5468C272.668 77.5843 272.816 77.6103 272.965 77.6244C273.24 77.6704 273.517 77.7 273.795 77.7131C274.138 77.7358 274.482 77.7358 274.825 77.7131H275.3H275.577C275.887 77.6614 276.186 77.5949 276.474 77.5136L277.005 77.3473C277.817 77.0954 278.585 76.7217 279.285 76.2388L279.385 76.1723L279.573 76.0282C279.624 76.0049 279.669 75.9709 279.706 75.9285C279.706 76.0947 279.706 76.1612 279.65 76.2277C279.562 76.9593 279.462 77.8905 279.418 78.8105C279.418 79.4534 279.351 80.0742 279.329 80.6284C279.307 81.1827 279.13 81.9586 279.517 82.2246C279.651 82.3114 279.802 82.368 279.96 82.3909C280.566 82.498 281.183 82.539 281.798 82.5129H282.362C282.834 82.4797 283.307 82.4797 283.779 82.5129C284.109 82.5093 284.436 82.5734 284.741 82.7011C285.045 82.8288 285.321 83.0175 285.55 83.2555C285.881 83.7032 286.087 84.2312 286.147 84.7852L286.28 85.6942C286.465 87.2324 286.48 88.7862 286.325 90.3277Z" fill="#F5A784"/>
<path d="M279.65 75.74C279.5 76.5333 279.176 77.2835 278.703 77.9367C278.229 78.5899 277.617 79.1299 276.91 79.5179C276.203 79.9058 275.419 80.132 274.614 80.1803C273.809 80.2286 273.004 80.0977 272.256 79.7971L272.466 77.5025C273.72 77.7447 275.01 77.7125 276.25 77.4083C277.49 77.1041 278.65 76.535 279.65 75.74Z" fill="#E0855C"/>
<path d="M270.995 68.4351C270.353 69.1002 270.297 70.5855 270.253 72.2261C270.087 77.2143 271.581 78.7662 274.116 79.0433C276.651 79.3204 279.318 78.3339 279.86 73.7115C280.137 71.4058 280.425 69.2775 279.595 68.2799C278.344 66.7834 272.943 66.3955 270.995 68.4351Z" fill="#F5A784"/>
<path d="M279.506 73.0464C279.506 73.0464 280.292 70.9846 281.509 72.082C282.726 73.1794 281.044 76.2943 279.174 76.0615C279.174 76.1169 278.908 73.7558 279.506 73.0464Z" fill="#F5A784"/>
<path d="M280.946 73.0131C280.659 73.1126 280.401 73.2799 280.193 73.5009C279.968 73.6948 279.783 73.9323 279.651 74.1992C279.651 74.2879 279.729 74.3322 279.784 74.2878C279.839 74.2435 280.072 73.9553 280.227 73.8001C280.321 73.9223 280.442 74.021 280.581 74.0883C280.691 74.0883 280.78 73.9886 280.735 73.8888C280.655 73.7774 280.554 73.6832 280.437 73.6117C280.641 73.4755 280.836 73.3275 281.023 73.1683C281.039 73.1557 281.05 73.1379 281.054 73.1181C281.059 73.0982 281.056 73.0774 281.047 73.0593C281.038 73.0411 281.023 73.0266 281.004 73.0182C280.986 73.0098 280.965 73.008 280.946 73.0131Z" fill="#E0855C"/>
<path d="M272.434 72.1152C272.434 72.1152 272.003 72.2704 272.069 71.5056C272.136 70.7407 272.434 70.9181 272.434 70.9181C272.434 70.9181 272.733 70.918 272.689 71.5166C272.645 72.1152 272.434 72.1152 272.434 72.1152Z" fill="#452626"/>
<path d="M276.794 72.1152C276.794 72.1152 276.362 72.2704 276.429 71.5056C276.495 70.7407 276.794 70.9181 276.794 70.9181C276.794 70.9181 277.092 70.918 277.037 71.5166C276.982 72.1152 276.794 72.1152 276.794 72.1152Z" fill="#452626"/>
<path d="M272.898 69.7985C272.725 69.6964 272.524 69.6532 272.325 69.6751C272.125 69.6971 271.938 69.7831 271.792 69.9204C271.784 69.9356 271.781 69.9524 271.782 69.9693C271.782 69.9862 271.787 70.0027 271.796 70.0171C271.805 70.0315 271.817 70.0434 271.832 70.0517C271.847 70.06 271.863 70.0644 271.88 70.0645C272.035 70.0645 272.168 69.9759 272.323 69.9648C272.485 69.957 272.647 69.9835 272.798 70.0424C272.942 70.0867 273.042 69.865 272.898 69.7985Z" fill="#452626"/>
<path d="M277.436 70.1754C277.259 69.732 276.496 69.6877 276.175 69.9648C276.159 69.976 276.146 69.991 276.137 70.0084C276.128 70.0257 276.123 70.0449 276.123 70.0645C276.123 70.0841 276.128 70.1034 276.137 70.1207C276.146 70.1381 276.159 70.153 276.175 70.1643C276.373 70.1864 276.574 70.1864 276.772 70.1643C276.933 70.1903 277.089 70.2388 277.237 70.3084C277.369 70.3527 277.469 70.253 277.436 70.1754Z" fill="#452626"/>
<path d="M273.308 75.6845C274.242 75.8071 275.191 75.6449 276.031 75.219C275.905 75.5148 275.719 75.781 275.485 76.0005C275.25 76.22 274.973 76.3881 274.669 76.4938C273.707 76.7598 273.308 75.6845 273.308 75.6845Z" fill="white"/>
<path d="M267.719 83.1336C270.265 84.9182 270.497 88.3878 269.257 91.1479C268.416 93.0101 266.855 94.3071 265.937 96.0585C264.977 97.7554 263.865 99.3619 262.616 100.858C259.871 104.35 257.259 107.509 256.252 108.706C252.777 112.874 245.494 118.328 242.87 120.234L241.918 120.922C241.918 120.922 239.406 119.592 240.07 117.153C240.07 117.153 250.032 106.567 251.504 104.405C253.128 101.591 254.606 98.6938 255.931 95.7259C257.628 92.4448 259.395 89.2006 261.233 85.9934C262.074 84.5302 263.148 82.668 264.996 82.3465C265.764 82.2511 266.541 82.4108 267.21 82.801C267.385 82.9024 267.555 83.0134 267.719 83.1336Z" fill="#F5A784"/>
<path d="M240.081 117.131C240.354 117.11 240.628 117.11 240.9 117.131C240.9 117.131 243.302 118.461 242.882 120.19L242.229 120.778C241.874 121.11 241.399 121.554 240.878 122.075C240.358 122.596 239.174 124.292 238.665 124.159C238.545 124.111 238.442 124.03 238.366 123.926L237.336 122.817C236.761 122.185 235.798 121.099 236.528 120.234C235.997 120.556 234.758 121.343 234.149 120.966L233.938 120.567C233.938 120.567 235.765 119.204 236.517 118.527C237.518 117.68 238.772 117.188 240.081 117.131Z" fill="#F5A784"/>
<path d="M270.74 100.116C270.735 100.175 270.735 100.234 270.74 100.293C270.74 100.348 270.84 100.348 270.818 100.293L270.74 100.116Z" fill="#D6BED3"/>
<path d="M274.88 136.03C273.861 144.211 272.666 151.316 272.666 151.316C272.832 153.29 272.91 155.429 272.91 157.624C272.91 161.914 272.633 166.492 272.257 170.515C271.792 175.648 271.15 180.015 270.873 182.199V182.476C271.283 197.03 267.143 198.97 265.206 195.778C263.269 192.585 265.206 183.219 265.206 183.219C265.211 183.137 265.211 183.056 265.206 182.975C264.392 178.619 263.848 174.218 263.579 169.795C262.915 159.087 264.055 151.76 263.922 150.419C261.609 127.14 264.841 114.315 264.841 114.315C265.348 112.448 266.259 110.715 267.508 109.238C269.866 106.689 272.699 107.343 274.481 110.458C274.671 110.776 274.841 111.105 274.99 111.444C275.722 113.232 276.134 115.134 276.208 117.064C276.352 121.886 275.677 129.324 274.88 136.03Z" fill="#F5A784"/>
<path d="M286.28 169.229C286.03 173.756 285.49 178.262 284.664 182.72L284.565 183.263C284.565 183.263 286.502 192.685 284.565 195.822C282.628 198.959 278.533 197.052 278.898 182.675C278.898 182.609 278.898 182.542 278.898 182.476C278.588 180.403 277.968 175.825 277.481 170.548C277.116 166.48 276.817 161.947 276.817 157.635C276.817 155.418 276.905 153.301 277.072 151.316C277.072 151.316 275.843 144.211 274.858 136.052C274.028 129.324 273.341 121.886 273.629 117.108C273.712 115.178 274.128 113.277 274.858 111.488C275.003 111.14 275.173 110.803 275.367 110.48C277.415 106.922 280.824 106.611 283.336 110.613C284.047 111.786 284.605 113.045 284.996 114.359C284.996 114.359 288.228 127.151 285.915 150.463C285.771 151.782 286.867 158.854 286.28 169.229Z" fill="#F5A784"/>
<path d="M239.827 124.369C240.042 124.628 240.313 124.835 240.62 124.973C240.927 125.111 241.261 125.178 241.597 125.167C241.752 125.131 241.898 125.064 242.025 124.97C242.153 124.876 242.261 124.757 242.342 124.621C242.422 124.484 242.474 124.332 242.495 124.174C242.515 124.017 242.504 123.857 242.461 123.704C242.322 123.382 242.114 123.094 241.852 122.862C240.17 121.206 238.458 119.588 236.716 118.006C236.426 117.679 236.038 117.453 235.609 117.364C235.21 117.359 234.822 117.499 234.517 117.757C234.212 118.016 234.01 118.376 233.949 118.771C233.949 119.481 234.558 119.747 235.056 120.146C236.639 121.487 238.211 122.961 239.827 124.369Z" fill="#452626"/>
<path d="M239.571 122.407C239.64 122.336 239.696 122.253 239.737 122.163C239.765 122.047 239.767 121.926 239.742 121.809C239.717 121.692 239.666 121.582 239.593 121.487C239.183 120.822 238.342 119.736 237.512 119.636C237.239 119.623 236.966 119.682 236.722 119.806C236.477 119.93 236.269 120.116 236.118 120.345C235.879 120.697 235.726 121.1 235.672 121.522C235.618 121.944 235.665 122.373 235.808 122.773C236.055 123.505 236.553 124.126 237.214 124.524C237.545 124.662 237.917 124.668 238.252 124.54C238.587 124.412 238.861 124.161 239.017 123.837C239.183 123.427 239.128 122.928 239.405 122.584C239.454 122.52 239.51 122.461 239.571 122.407Z" fill="#F5A784"/>
<path d="M281.931 83.1335C279.374 84.9182 279.142 88.3877 280.392 91.1478C281.223 93.0101 282.794 94.307 283.713 96.0584C284.681 97.7504 285.792 99.3562 287.033 100.858C289.778 104.35 292.402 107.509 293.409 108.706C296.873 112.874 304.167 118.328 306.779 120.234L307.742 120.922C307.742 120.922 310.244 119.592 309.591 117.153C309.591 117.153 299.629 106.567 298.146 104.405C296.521 101.591 295.044 98.6938 293.719 95.7259C292.029 92.4447 290.258 89.2006 288.406 85.9933C287.565 84.5301 286.502 82.6679 284.643 82.3465C283.897 82.2633 283.144 82.4227 282.495 82.801C282.299 82.8977 282.111 83.0088 281.931 83.1335Z" fill="#F5A784"/>
<path d="M309.569 117.131C309.292 117.11 309.015 117.11 308.739 117.131C308.739 117.131 306.348 118.461 306.757 120.19C306.757 120.19 307.023 120.412 307.41 120.778C307.798 121.143 308.252 121.554 308.761 122.075C309.27 122.596 310.476 124.292 311.03 124.159C311.148 124.108 311.25 124.028 311.329 123.926L312.347 122.817C312.934 122.185 313.885 121.099 313.166 120.234C313.686 120.556 314.926 121.343 315.546 120.966L315.756 120.567C315.756 120.567 313.93 119.204 313.166 118.527C312.158 117.669 310.891 117.177 309.569 117.131Z" fill="#F5A784"/>
<path d="M309.823 124.369C309.603 124.625 309.329 124.829 309.021 124.967C308.713 125.105 308.378 125.173 308.041 125.167C307.887 125.131 307.741 125.064 307.613 124.97C307.485 124.876 307.378 124.757 307.297 124.621C307.216 124.484 307.164 124.332 307.144 124.175C307.123 124.017 307.135 123.857 307.178 123.704C307.317 123.379 307.529 123.091 307.798 122.862C309.465 121.206 311.177 119.588 312.933 118.006C313.237 117.666 313.646 117.439 314.096 117.364C314.493 117.361 314.878 117.502 315.181 117.761C315.484 118.019 315.684 118.378 315.745 118.771C315.745 119.481 315.147 119.747 314.638 120.146C313 121.487 311.406 122.961 309.823 124.369Z" fill="#452626"/>
<path d="M310.077 122.407C310.001 122.339 309.941 122.256 309.9 122.163C309.877 122.046 309.879 121.925 309.905 121.809C309.932 121.692 309.983 121.583 310.055 121.487C310.453 120.822 311.294 119.736 312.124 119.636C312.398 119.622 312.671 119.68 312.915 119.805C313.16 119.929 313.368 120.116 313.518 120.345C313.76 120.696 313.914 121.099 313.968 121.521C314.022 121.944 313.974 122.373 313.828 122.773C313.59 123.51 313.089 124.133 312.423 124.524C312.091 124.662 311.72 124.668 311.384 124.54C311.049 124.412 310.775 124.161 310.619 123.837C310.464 123.427 310.519 122.928 310.243 122.584L310.077 122.407Z" fill="#F5A784"/>
<path d="M286.447 162.124V163.233C286.447 163.964 286.447 164.74 286.447 165.527C286.447 165.826 286.447 166.115 286.447 166.425C286.447 167.334 286.38 168.265 286.336 169.241C283.47 170.032 280.52 170.475 277.548 170.56C277.426 169.318 277.183 166.015 277.172 165.649C277.172 164.884 277.017 162.767 276.994 162.479C276.928 160.86 276.884 159.242 276.884 157.646C276.884 155.584 276.961 153.578 277.116 151.704C277.116 151.571 277.116 151.449 277.116 151.327C277.116 151.206 275.888 144.222 274.903 136.064C274.792 136.928 274.681 137.793 274.57 138.624C273.641 145.652 272.656 151.327 272.656 151.327C272.822 153.301 272.899 155.44 272.899 157.635C272.899 159.297 272.899 160.96 272.788 162.712C272.788 163 272.556 166.702 272.523 167.057C272.445 168.243 272.346 169.407 272.246 170.526C270.708 170.46 269.169 170.349 267.653 170.227C266.457 170.116 264.952 170.061 263.491 169.85C263.425 168.853 263.38 167.888 263.347 166.968C263.347 166.735 263.347 166.492 263.347 166.27C263.347 165.25 263.347 164.286 263.347 163.343V162.579C263.347 155.861 264 151.494 263.901 150.385C261.587 127.107 264.819 114.282 264.819 114.282C265.327 112.415 266.237 110.681 267.487 109.205C268.435 109.361 269.365 109.61 270.265 109.948C271.634 110.3 273.046 110.46 274.46 110.424H275.478C276.707 110.424 277.935 110.28 279.153 110.247H279.972C281.139 110.235 282.304 110.346 283.447 110.58C284.158 111.753 284.716 113.012 285.108 114.326C285.965 118.536 286.45 122.812 286.558 127.107C286.938 134.909 286.72 142.728 285.904 150.496C285.805 151.494 286.392 155.684 286.447 162.124Z" fill="#452626"/>
<path d="M270.774 182.531C270.929 188.262 270.387 192.042 269.546 194.314C268.262 197.828 266.28 197.784 265.118 195.877C264.821 195.355 264.619 194.785 264.521 194.193C263.701 190.235 265.118 183.318 265.118 183.318C265.123 183.237 265.123 183.156 265.118 183.074C265.669 183.477 266.293 183.767 266.956 183.928C267.7 184.113 268.485 184.05 269.19 183.748C269.895 183.446 270.483 182.921 270.863 182.254L270.774 182.531Z" fill="#C1063D"/>
<path d="M285.229 193.816C285.137 194.52 284.911 195.201 284.565 195.822C283.37 197.784 281.311 197.773 280.038 193.993C279.263 191.721 278.765 188.085 278.931 182.675C279.76 183.421 280.828 183.846 281.942 183.873C282.934 183.773 283.876 183.388 284.654 182.764C284.656 182.936 284.637 183.107 284.598 183.274C284.598 183.274 285.949 189.825 285.229 193.816Z" fill="#C1063D"/>
<path d="M269.101 185.857C268.541 185.522 267.9 185.345 267.248 185.345C266.595 185.345 265.955 185.522 265.394 185.857C265.373 185.88 265.36 185.908 265.354 185.939C265.349 185.969 265.352 186.001 265.363 186.03C265.375 186.059 265.394 186.084 265.419 186.102C265.444 186.12 265.474 186.131 265.505 186.134C266.058 186.134 266.612 185.901 267.132 185.912C267.741 185.958 268.343 186.078 268.924 186.267C268.974 186.273 269.025 186.263 269.068 186.238C269.112 186.213 269.146 186.174 269.166 186.128C269.186 186.082 269.191 186.031 269.179 185.982C269.167 185.933 269.14 185.889 269.101 185.857Z" fill="#291B30"/>
<path d="M268.924 187.664C267.979 187.112 266.87 186.912 265.793 187.098C265.428 187.098 265.416 187.708 265.793 187.675C266.313 187.626 266.837 187.645 267.353 187.73C267.829 187.819 268.26 188.029 268.736 188.129C268.795 188.142 268.856 188.133 268.909 188.105C268.962 188.077 269.003 188.031 269.025 187.975C269.048 187.92 269.05 187.858 269.032 187.801C269.013 187.744 268.975 187.695 268.924 187.664Z" fill="#291B30"/>
<path d="M283.579 185.857C282.738 185.557 280.913 185.458 280.26 186.223C280.171 186.333 280.26 186.544 280.381 186.522C280.902 186.522 281.355 186.245 281.898 186.234C282.44 186.223 283.004 186.356 283.513 186.322C283.575 186.331 283.637 186.315 283.687 186.278C283.737 186.24 283.77 186.184 283.779 186.123C283.788 186.061 283.771 185.998 283.734 185.948C283.697 185.898 283.641 185.866 283.579 185.857Z" fill="#291B30"/>
<path d="M283.987 187.752C283.069 187.353 280.778 187.054 280.313 188.295C280.247 188.462 280.457 188.595 280.59 188.517C281.068 188.251 281.601 188.097 282.147 188.067C282.693 188.036 283.239 188.129 283.744 188.34C284.076 188.484 284.33 187.896 283.987 187.752Z" fill="#291B30"/>
<path d="M242.084 81.8477C242.084 81.7812 241.951 81.7812 241.94 81.8477C241.387 85.6277 241.708 89.6072 241.708 93.4647C241.708 97.555 241.586 101.679 241.819 105.769C241.829 105.812 241.854 105.851 241.889 105.879C241.924 105.907 241.967 105.922 242.012 105.922C242.057 105.922 242.1 105.907 242.135 105.879C242.17 105.851 242.195 105.812 242.206 105.769C242.438 101.679 242.305 97.555 242.305 93.4647C242.316 89.6626 242.626 85.6277 242.084 81.8477Z" fill="#E8CEE5"/>
<path d="M246.921 83.1003C246.921 83.0386 246.897 82.9793 246.853 82.9357C246.81 82.892 246.751 82.8676 246.689 82.8676C246.627 82.8676 246.568 82.892 246.525 82.9357C246.481 82.9793 246.457 83.0386 246.457 83.1003C246.457 86.7361 246.213 90.4385 246.457 94.0632C246.457 94.1249 246.481 94.1842 246.525 94.2278C246.568 94.2715 246.627 94.296 246.689 94.296C246.751 94.296 246.81 94.2715 246.853 94.2278C246.897 94.1842 246.921 94.1249 246.921 94.0632C247.209 90.4385 246.943 86.7361 246.921 83.1003Z" fill="#E8CEE5"/>
<path d="M296.408 121.166C296.399 121.133 296.379 121.104 296.352 121.083C296.325 121.063 296.292 121.052 296.258 121.052C296.224 121.052 296.191 121.063 296.164 121.083C296.137 121.104 296.118 121.133 296.109 121.166C295.803 125.922 295.74 130.691 295.921 135.454C295.921 140.22 295.921 144.987 296.098 149.753C296.107 149.789 296.128 149.82 296.157 149.843C296.186 149.865 296.222 149.877 296.258 149.877C296.295 149.877 296.33 149.865 296.359 149.843C296.388 149.82 296.409 149.789 296.419 149.753C296.573 144.987 296.573 140.22 296.596 135.454C296.776 130.691 296.713 125.922 296.408 121.166Z" fill="#E8CEE5"/>
<path d="M304.975 93.2873C304.941 90.1155 304.734 86.9479 304.356 83.7987C304.356 83.6102 304.057 83.6657 304.046 83.7987C303.951 87.1821 304.043 90.5682 304.323 93.9413C304.456 97.0894 304.422 100.326 304.843 103.463C304.843 103.751 305.329 103.663 305.34 103.386C305.495 100.082 305.141 96.6349 304.975 93.2873Z" fill="#E8CEE5"/>
<path d="M307.199 95.0498C307.191 95.025 307.176 95.0033 307.155 94.9879C307.134 94.9725 307.109 94.9642 307.083 94.9642C307.057 94.9642 307.032 94.9725 307.011 94.9879C306.99 95.0033 306.974 95.025 306.967 95.0498C306.673 99.604 306.651 104.172 306.9 108.728C306.91 108.769 306.934 108.806 306.967 108.832C307 108.858 307.041 108.872 307.083 108.872C307.125 108.872 307.165 108.858 307.199 108.832C307.232 108.806 307.255 108.769 307.265 108.728C307.514 104.172 307.492 99.604 307.199 95.0498Z" fill="#E8CEE5"/>
<path d="M274.514 138.613C274.53 137.75 274.641 136.891 274.846 136.052C274.735 136.917 274.625 137.782 274.514 138.613Z" fill="#291B30"/>
<path d="M286.557 127.107C285.062 118.117 272.732 117.696 272.732 117.696C271.957 113.938 276.938 112.841 276.938 112.841L279.849 110.314C281.016 110.301 282.181 110.413 283.325 110.646C284.035 111.819 284.593 113.078 284.985 114.393C285.872 118.578 286.398 122.832 286.557 127.107Z" fill="black"/>
<path d="M285.195 115.324C275.234 120.013 264.409 115.712 264.409 115.712C265.195 113.495 264.608 102.188 264.553 100.038C264.558 99.9975 264.558 99.9564 264.553 99.916C264.557 99.8384 264.557 99.7608 264.553 99.6832C266.645 94.8281 266.877 85.4724 266.888 82.2578C267.829 82.1137 268.814 82.0361 269.666 81.9807C269.998 85.5833 271.183 94.7948 274.481 94.3957C277.78 93.9967 279.351 85.7939 279.927 82.2024C280.532 82.3153 281.149 82.3563 281.764 82.3243H282.329C282.041 87.2349 284.764 97.5549 284.852 97.8431C284.846 97.9243 284.846 98.0058 284.852 98.087C284.852 98.353 284.775 98.6302 284.742 98.9295C284.742 98.9295 284.742 99.0514 284.742 99.1179C284.033 105.359 285.195 115.324 285.195 115.324Z" fill="#C1063D"/>
</g>
<rect opacity="0.3" width="353" height="200" rx="10" fill="black"/>
<defs>
<clipPath id="clip0_211_180">
<rect x="30" y="18" width="147" height="180" rx="10" fill="white"/>
</clipPath>
<clipPath id="clip1_211_180">
<rect x="220" y="62" width="113" height="138" rx="10" fill="white"/>
</clipPath>
</defs>
</svg>
