<svg width="55" height="55" viewBox="0 0 55 55" fill="none" xmlns="http://www.w3.org/2000/svg">
<circle cx="27.5" cy="27.5" r="27.5" fill="#FFBCD2"/>
<g clip-path="url(#clip0_0_3358)">
<path d="M26.4165 50.9562C25.6565 50.9573 24.8986 50.879 24.1557 50.7226C22.8569 50.4626 21.6336 49.9249 20.574 49.1485C19.5143 48.3721 18.6448 47.3762 18.0281 46.2328C17.5375 45.1643 17.1735 44.0448 16.9434 42.896L16.8901 42.6735C16.1289 39.5184 15.1698 36.1779 13.4 33.1599C13.1146 32.6743 12.8025 32.1886 12.5018 31.7177C11.7737 30.6591 11.1554 29.5327 10.6559 28.355C9.8947 26.3306 10.0431 24.3286 11.0822 23.0013C11.219 22.7952 11.397 22.6181 11.6056 22.4805C11.8142 22.343 12.0491 22.2477 12.2963 22.2004C12.447 22.1852 12.5993 22.1992 12.7444 22.2419C12.8894 22.2845 13.0243 22.3549 13.1412 22.4488C13.2318 22.5192 13.3061 22.6075 13.3592 22.7078C13.4124 22.8081 13.4431 22.9182 13.4495 23.0309H13.2021C13.1961 22.9523 13.1734 22.8758 13.1354 22.8062C13.0974 22.7366 13.045 22.6755 12.9814 22.6268C12.891 22.5537 12.7865 22.499 12.6741 22.4659C12.5616 22.4327 12.4435 22.4219 12.3267 22.434C11.8979 22.5292 11.5232 22.7814 11.2801 23.1384C10.2943 24.4027 10.1383 26.3195 10.8995 28.2623C11.3919 29.4314 12.004 30.5493 12.7264 31.5991C13.027 32.0699 13.3391 32.5556 13.6284 33.045C15.4134 36.0926 16.3725 39.4517 17.1451 42.6253L17.1984 42.8478C17.4245 43.9774 17.7821 45.0782 18.2641 46.1289C18.864 47.2393 19.7095 48.2061 20.7395 48.9594C21.7696 49.7128 22.9585 50.234 24.2205 50.4853C26.7707 50.9683 29.4135 50.6122 31.7335 49.4732C32.665 49.068 33.5065 48.49 34.2112 47.7714C34.9232 46.9278 35.4725 45.9657 35.8325 44.9314C36.4681 43.3075 36.9743 41.5946 37.431 39.941C38.1352 37.4792 38.8621 34.9359 40.0952 32.6298C40.4568 31.955 40.8564 31.2913 41.2599 30.6462C42.016 29.4968 42.6535 28.2772 43.1629 27.0054C43.6006 25.7931 43.6196 24.7994 43.2238 24.0394C43.0849 23.7899 42.891 23.5734 42.6561 23.4054C42.4212 23.2375 42.151 23.1223 41.865 23.068C41.6668 23.0223 41.4604 23.0223 41.2622 23.068C41.0639 23.1137 40.8794 23.2039 40.7232 23.3312L40.5596 23.1496C40.7436 22.9985 40.9608 22.8908 41.1945 22.8348C41.4282 22.7789 41.672 22.7762 41.9069 22.827C42.2287 22.8928 42.5318 23.0264 42.7948 23.2186C43.0578 23.4108 43.2744 23.6568 43.4293 23.9393C43.8594 24.7549 43.8403 25.793 43.3798 27.087C42.8652 28.3772 42.2174 29.6132 41.4464 30.776C41.0658 31.4137 40.6471 32.0736 40.3046 32.7447C39.0867 35.0286 38.3635 37.5645 37.6632 40.0115C37.1875 41.6725 36.6965 43.3854 36.0571 45.0204C35.6854 46.0832 35.1193 47.0718 34.3863 47.9382C33.6612 48.6802 32.7935 49.276 31.8324 49.6919C30.147 50.5028 28.2962 50.9349 26.4165 50.9562Z" fill="#C1063D"/>
<path d="M29.2107 7.76696C29.4086 7.46181 29.5214 7.11168 29.538 6.7511C29.5589 6.59036 29.5435 6.4271 29.4929 6.27276C29.4423 6.11842 29.3576 5.97672 29.2449 5.85756C29.1498 5.76488 29.0318 5.69814 28.9443 5.60174C28.8567 5.50535 28.8149 5.40525 28.7425 5.31257C28.6638 5.21327 28.5629 5.13266 28.4475 5.07679C28.3322 5.02093 28.2053 4.99126 28.0765 4.99001C27.8139 4.99001 27.536 5.11236 27.3153 4.99001C27.1783 4.92327 27.0869 4.78981 26.9537 4.71566C26.8085 4.64552 26.642 4.62967 26.4856 4.67114C26.35 4.71736 26.2067 4.73875 26.0631 4.73419C25.8538 4.70453 25.713 4.52656 25.5303 4.42646C25.4364 4.37968 25.3331 4.3535 25.2277 4.34972C25.1223 4.34594 25.0173 4.36466 24.9201 4.40457C24.823 4.44449 24.7359 4.50463 24.6651 4.58079C24.5943 4.65694 24.5415 4.74726 24.5103 4.84541C24.4875 4.93927 24.4875 5.03704 24.5103 5.1309C24.5522 5.35706 24.712 5.53871 24.7234 5.76488C24.7348 5.99104 24.594 6.18755 24.7234 6.38405C24.8528 6.58055 25.0431 6.59165 25.1345 6.78074C25.2563 7.04027 25.1345 7.37025 25.2448 7.64832C25.3019 7.82257 25.3324 8.07098 25.4998 8.1822C25.732 8.33792 26.242 8.20816 26.516 8.1822C26.8738 8.15625 27.2354 8.12659 27.5931 8.09323C28.0689 8.05244 28.655 8.11177 29.0851 7.86707C29.1322 7.84045 29.1746 7.80664 29.2107 7.76696Z" fill="#452626"/>
<path d="M25.5573 7.60384C25.5195 7.55329 25.47 7.51216 25.4128 7.4838C25.3556 7.45544 25.2924 7.44064 25.2282 7.44064C25.164 7.44064 25.1007 7.45544 25.0435 7.4838C24.9863 7.51216 24.9368 7.55329 24.899 7.60384C24.568 7.9746 25.1273 8.71611 25.5573 8.7606C25.5824 8.3754 25.5824 7.98904 25.5573 7.60384Z" fill="#E0855C"/>
<path d="M30.9039 13.8139C30.8028 14.4383 30.6681 15.0571 30.5004 15.6677C30.4738 15.7789 30.4548 15.8901 30.4357 16.0014C30.4167 16.1126 30.4053 16.1905 30.3901 16.3276C30.3879 16.3548 30.3879 16.3821 30.3901 16.4092C30.3901 16.4982 30.3634 16.5909 30.352 16.691L29.8724 21.0474C26.8923 21.8445 23.7829 21.0474 23.7829 21.0474C23.7829 21.0474 23.7829 20.9918 23.7829 20.8842C23.7334 20.3911 23.5811 18.8191 23.4289 17.0543C23.4308 17.0408 23.4308 17.0271 23.4289 17.0136C23.4304 16.9876 23.4304 16.9616 23.4289 16.9357C23.3642 16.1942 23.3033 15.4082 23.2538 14.6592C23.1625 13.3579 23.1054 12.1567 23.1206 11.4115C23.1206 11.1371 23.7752 11.1668 24.2243 11.1074C24.5555 11.0592 24.8942 11.0333 25.1873 11.0147C25.4803 10.9962 25.7011 11.0147 25.8495 11.0147H26.017L26.055 10.5847L26.1578 9.53912C26.2078 9.55167 26.2587 9.56035 26.31 9.56508C26.4045 9.58046 26.4998 9.59037 26.5955 9.59474C26.7133 9.60232 26.8316 9.60232 26.9494 9.59474H27.1131H27.2082C27.3148 9.57744 27.4176 9.5552 27.5165 9.52801L27.6992 9.47239C27.9783 9.38814 28.2427 9.26313 28.4833 9.10163L28.5175 9.07939L28.5822 9.03119C28.5997 9.02341 28.6153 9.01204 28.6279 8.99783C28.6279 9.05345 28.6279 9.07568 28.6088 9.09792C28.5784 9.34262 28.5442 9.65406 28.5289 9.96179C28.5289 10.1768 28.5061 10.3845 28.4985 10.5698C28.4909 10.7552 28.43 11.0147 28.5632 11.1037C28.6092 11.1327 28.6611 11.1517 28.7154 11.1593C28.9239 11.1952 29.1357 11.2088 29.3472 11.2001H29.5413C29.7035 11.189 29.8663 11.189 30.0285 11.2001C30.142 11.1989 30.2546 11.2204 30.3593 11.2631C30.464 11.3058 30.5587 11.3689 30.6375 11.4485C30.7514 11.5983 30.8223 11.7749 30.843 11.9602L30.8886 12.2642C30.9522 12.7787 30.9573 13.2984 30.9039 13.8139Z" fill="#F5A784"/>
<path d="M28.6088 8.93484C28.5573 9.20017 28.4461 9.45111 28.2833 9.66959C28.1204 9.88807 27.9098 10.0687 27.6667 10.1984C27.4236 10.3282 27.154 10.4038 26.8773 10.42C26.6006 10.4361 26.3237 10.3924 26.0664 10.2918L26.1387 9.52436C26.5697 9.60535 27.0136 9.59461 27.44 9.49286C27.8663 9.39111 28.265 9.20074 28.6088 8.93484Z" fill="#E0855C"/>
<path d="M25.6333 6.49153C25.4126 6.71398 25.3936 7.21078 25.3783 7.7595C25.3212 9.4279 25.835 9.94696 26.7066 10.0397C27.5782 10.1323 28.4954 9.80237 28.6819 8.25632C28.7771 7.48515 28.876 6.77329 28.5906 6.43961C28.1605 5.9391 26.3032 5.80934 25.6333 6.49153Z" fill="#F5A784"/>
<path d="M28.5602 8.0339C28.5602 8.0339 28.8303 7.3443 29.2489 7.71135C29.6674 8.07839 29.0891 9.12022 28.446 9.04237C28.446 9.0609 28.3547 8.27118 28.5602 8.0339Z" fill="#F5A784"/>
<path d="M29.0546 8.02278C28.9561 8.05605 28.8673 8.11202 28.7958 8.18591C28.7182 8.25077 28.6548 8.33021 28.6094 8.41949C28.6094 8.44915 28.636 8.46396 28.655 8.44913C28.6741 8.4343 28.754 8.3379 28.8072 8.286C28.8396 8.32688 28.8813 8.35988 28.929 8.3824C28.9671 8.3824 28.9975 8.34903 28.9823 8.31567C28.9547 8.27841 28.9198 8.2469 28.8795 8.22298C28.9497 8.17744 29.017 8.12794 29.0812 8.07469C29.0867 8.07045 29.0905 8.06451 29.092 8.05787C29.0935 8.05124 29.0926 8.04429 29.0895 8.03821C29.0864 8.03213 29.0812 8.02728 29.0748 8.02447C29.0685 8.02166 29.0613 8.02106 29.0546 8.02278Z" fill="#E0855C"/>
<path d="M26.128 7.72247C26.128 7.72247 25.9796 7.77439 26.0024 7.51856C26.0252 7.26274 26.128 7.32205 26.128 7.32205C26.128 7.32205 26.2307 7.32205 26.2155 7.52225C26.2003 7.72246 26.128 7.72247 26.128 7.72247Z" fill="#452626"/>
<path d="M27.627 7.72247C27.627 7.72247 27.4786 7.77439 27.5014 7.51856C27.5242 7.26274 27.627 7.32205 27.627 7.32205C27.627 7.32205 27.7297 7.32205 27.7107 7.52225C27.6917 7.72246 27.627 7.72247 27.627 7.72247Z" fill="#452626"/>
<path d="M26.2874 6.94757C26.228 6.91344 26.1588 6.89897 26.0902 6.90632C26.0216 6.91367 25.9573 6.94244 25.9069 6.98835C25.9043 6.99342 25.9031 6.99905 25.9034 7.00471C25.9036 7.01036 25.9054 7.01586 25.9084 7.02068C25.9114 7.0255 25.9157 7.02949 25.9208 7.03227C25.9258 7.03505 25.9315 7.03651 25.9373 7.03655C25.9906 7.03655 26.0363 7.0069 26.0895 7.00319C26.1453 7.0006 26.2011 7.00945 26.2532 7.02915C26.3026 7.04398 26.3369 6.96982 26.2874 6.94757Z" fill="#452626"/>
<path d="M27.8481 7.07363C27.7872 6.92533 27.5246 6.9105 27.4143 7.00319C27.4088 7.00695 27.4043 7.01195 27.4012 7.01776C27.3981 7.02357 27.3965 7.03 27.3965 7.03654C27.3965 7.04309 27.3981 7.04954 27.4012 7.05535C27.4043 7.06115 27.4088 7.06616 27.4143 7.06992C27.4826 7.07733 27.5515 7.07733 27.6197 7.06992C27.6751 7.0786 27.7289 7.09483 27.7796 7.11812C27.8252 7.13295 27.8595 7.09958 27.8481 7.07363Z" fill="#452626"/>
<path d="M26.4287 8.91627C26.7497 8.95727 27.0759 8.90301 27.3648 8.76056C27.3216 8.85949 27.2576 8.94852 27.177 9.02195C27.0964 9.09537 27.001 9.15158 26.8967 9.18694C26.5657 9.27592 26.4287 8.91627 26.4287 8.91627Z" fill="white"/>
<path d="M24.5067 11.4078C25.3821 12.0047 25.462 13.1652 25.0358 14.0883C24.7465 14.7112 24.2099 15.145 23.894 15.7308C23.5639 16.2984 23.1817 16.8357 22.7522 17.3362C21.8083 18.504 20.9101 19.5607 20.5637 19.9611C19.3687 21.3551 16.8643 23.1792 15.9623 23.8169L15.635 24.0468C15.635 24.0468 14.771 23.6019 14.9994 22.7863C14.9994 22.7863 18.4248 19.2455 18.931 18.5226C19.4896 17.5812 19.9978 16.6122 20.4534 15.6196C21.0369 14.5221 21.6446 13.437 22.2764 12.3643C22.5657 11.8749 22.9349 11.2521 23.5705 11.1445C23.8344 11.1126 24.1019 11.166 24.3317 11.2966C24.3921 11.3304 24.4505 11.3676 24.5067 11.4078Z" fill="#F5A784"/>
<path d="M15.0029 22.7788C15.0967 22.7718 15.1908 22.7718 15.2846 22.7788C15.2846 22.7788 16.1105 23.2237 15.9659 23.8021L15.7413 23.9986C15.6195 24.1098 15.4559 24.2581 15.277 24.4324C15.0981 24.6067 14.6909 25.1739 14.5158 25.1294C14.4747 25.1134 14.4391 25.0864 14.413 25.0516L14.0591 24.6808C13.8611 24.4695 13.53 24.1061 13.7812 23.8169C13.5985 23.9244 13.1723 24.1877 12.9629 24.0616L12.8906 23.9282C12.8906 23.9282 13.5186 23.4721 13.7774 23.246C14.1216 22.9624 14.5526 22.7981 15.0029 22.7788Z" fill="#F5A784"/>
<path d="M25.5452 17.0877C25.5435 17.1075 25.5435 17.1273 25.5452 17.147C25.5452 17.1656 25.5786 17.1656 25.5712 17.147L25.5452 17.0877Z" fill="#D6BED3"/>
<path d="M26.9688 29.1002C26.6187 31.8364 26.2076 34.2129 26.2076 34.2129C26.2647 34.8729 26.2914 35.5884 26.2914 36.3225C26.2914 37.7573 26.1962 39.2885 26.0668 40.6344C25.907 42.351 25.6862 43.8118 25.5911 44.5421V44.6348C25.7319 49.5028 24.3085 50.1517 23.6424 49.0839C22.9764 48.0161 23.6424 44.8832 23.6424 44.8832C23.6442 44.8561 23.6442 44.8288 23.6424 44.8017C23.3624 43.345 23.1756 41.8727 23.0829 40.3934C22.8546 36.8119 23.2466 34.3612 23.2009 33.9126C22.4055 26.1268 23.5168 21.8371 23.5168 21.8371C23.6913 21.2125 24.0044 20.6329 24.434 20.1391C25.2447 19.2863 26.2191 19.5051 26.8318 20.5469C26.897 20.6533 26.9555 20.7635 27.0069 20.8769C27.2584 21.4747 27.4001 22.111 27.4256 22.7566C27.475 24.3694 27.2429 26.8571 26.9688 29.1002Z" fill="#F5A784"/>
<path d="M30.8888 40.2043C30.8028 41.7184 30.6172 43.2255 30.3331 44.7164L30.2989 44.8981C30.2989 44.8981 30.9649 48.0495 30.2989 49.0987C29.6328 50.1479 28.2246 49.5103 28.3502 44.7016C28.3502 44.6793 28.3502 44.6571 28.3502 44.6348C28.2437 43.9415 28.0305 42.4103 27.8631 40.6455C27.7375 39.2848 27.6347 37.7684 27.6347 36.3262C27.6347 35.5847 27.6652 34.8766 27.7222 34.2129C27.7222 34.2129 27.2998 31.8364 26.961 29.1076C26.6756 26.8571 26.4396 24.3694 26.5386 22.7714C26.567 22.1258 26.71 21.4898 26.961 20.8917C27.0109 20.7752 27.0694 20.6625 27.1361 20.5543C27.8402 19.3642 29.0125 19.2604 29.8764 20.5988C30.1208 20.9911 30.3127 21.4122 30.4473 21.8519C30.4473 21.8519 31.5587 26.1305 30.7632 33.9274C30.7137 34.3686 31.0905 36.734 30.8888 40.2043Z" fill="#F5A784"/>
<path d="M14.9155 25.1998C14.9895 25.2865 15.0828 25.3556 15.1883 25.4018C15.2939 25.4481 15.4088 25.4703 15.5245 25.4668C15.5776 25.4547 15.6277 25.4323 15.6717 25.4009C15.7156 25.3695 15.7526 25.3297 15.7804 25.2839C15.8081 25.2382 15.8261 25.1874 15.8331 25.1347C15.8401 25.082 15.8361 25.0285 15.8213 24.9774C15.7737 24.8696 15.7022 24.7734 15.612 24.6956C15.0335 24.1419 14.4448 23.6006 13.846 23.0717C13.7462 22.962 13.6127 22.8867 13.4654 22.8567C13.328 22.8551 13.1947 22.9018 13.0898 22.9883C12.9849 23.0748 12.9156 23.1952 12.8945 23.3275C12.8945 23.5648 13.1039 23.6538 13.2751 23.7872C13.8194 24.2359 14.3598 24.729 14.9155 25.1998Z" fill="#452626"/>
<path d="M14.8275 24.5436C14.8512 24.5198 14.8705 24.4922 14.8846 24.462C14.8943 24.4231 14.8949 24.3826 14.8863 24.3435C14.8777 24.3043 14.8603 24.2675 14.8351 24.2359C14.6943 24.0134 14.4052 23.6501 14.1198 23.6167C14.0256 23.6124 13.9319 23.632 13.8479 23.6736C13.7638 23.7152 13.6923 23.7774 13.6403 23.854C13.558 23.9715 13.5055 24.1064 13.487 24.2475C13.4684 24.3886 13.4845 24.532 13.5338 24.6659C13.6185 24.9109 13.7898 25.1185 14.017 25.2517C14.131 25.2978 14.2587 25.2997 14.374 25.2569C14.4894 25.2142 14.5835 25.1301 14.6373 25.0219C14.6943 24.8847 14.6753 24.7178 14.7705 24.6029C14.7875 24.5814 14.8066 24.5615 14.8275 24.5436Z" fill="#F5A784"/>
<path d="M29.3938 11.4078C28.5147 12.0047 28.4347 13.1652 28.8648 14.0883C29.1503 14.7112 29.6907 15.145 30.0066 15.7308C30.3394 16.2967 30.7214 16.8338 31.1484 17.3362C32.0923 18.504 32.9943 19.5607 33.3407 19.9611C34.5319 21.3552 37.0401 23.1793 37.9383 23.8169L38.2694 24.0468C38.2694 24.0468 39.1296 23.6019 38.905 22.7863C38.905 22.7863 35.4796 19.2456 34.9696 18.5226C34.4109 17.5812 33.9028 16.6122 33.4472 15.6196C32.8662 14.5221 32.2572 13.437 31.6203 12.3643C31.3311 11.8749 30.9657 11.2521 30.3263 11.1446C30.0698 11.1167 29.811 11.17 29.5879 11.2966C29.5205 11.3289 29.4556 11.3661 29.3938 11.4078Z" fill="#F5A784"/>
<path d="M38.897 22.7788C38.802 22.7718 38.7066 22.7718 38.6116 22.7788C38.6116 22.7788 37.7895 23.2237 37.9303 23.8021C37.9303 23.8021 38.0216 23.8762 38.1549 23.9986C38.2881 24.1209 38.4441 24.2581 38.6192 24.4324C38.7942 24.6066 39.2091 25.1739 39.3994 25.1294C39.4399 25.1124 39.4753 25.0856 39.5022 25.0515L39.8523 24.6808C40.054 24.4695 40.3814 24.1061 40.134 23.8169C40.3128 23.9244 40.7391 24.1877 40.9522 24.0616L41.0246 23.9281C41.0246 23.9281 40.3966 23.4721 40.134 23.246C39.7875 22.9588 39.3516 22.7942 38.897 22.7788Z" fill="#F5A784"/>
<path d="M38.9843 25.1999C38.9085 25.2854 38.8143 25.3536 38.7084 25.3997C38.6025 25.4459 38.4875 25.4688 38.3716 25.4668C38.3184 25.4548 38.2684 25.4324 38.2244 25.4009C38.1804 25.3695 38.1434 25.3297 38.1157 25.284C38.0879 25.2382 38.07 25.1875 38.0629 25.1348C38.0559 25.0821 38.0599 25.0285 38.0747 24.9774C38.1224 24.8687 38.1954 24.7722 38.2878 24.6956C38.8613 24.142 39.4499 23.6007 40.0538 23.0717C40.1581 22.9579 40.299 22.882 40.4534 22.8567C40.5902 22.856 40.7227 22.9032 40.8267 22.9896C40.9308 23.076 40.9996 23.1959 41.0205 23.3275C41.0205 23.5648 40.815 23.6538 40.6399 23.7873C40.0767 24.2359 39.5286 24.729 38.9843 25.1999Z" fill="#452626"/>
<path d="M39.0722 24.5436C39.0462 24.5209 39.0255 24.4931 39.0113 24.462C39.0034 24.4228 39.0041 24.3824 39.0133 24.3435C39.0225 24.3045 39.0399 24.2679 39.0646 24.2359C39.2015 24.0134 39.4907 23.6501 39.7761 23.6167C39.8703 23.6121 39.9642 23.6315 40.0483 23.6731C40.1324 23.7148 40.2039 23.7771 40.2556 23.854C40.3387 23.9712 40.3918 24.1061 40.4103 24.2473C40.4289 24.3886 40.4123 24.5322 40.3621 24.666C40.2801 24.9124 40.1082 25.1208 39.8789 25.2518C39.7649 25.2978 39.6372 25.2997 39.5218 25.257C39.4065 25.2142 39.3124 25.1301 39.2586 25.0219C39.2054 24.8847 39.2244 24.7179 39.1293 24.6029L39.0722 24.5436Z" fill="#F5A784"/>
<path d="M30.9459 37.8278V38.1985C30.9459 38.4432 30.9459 38.7027 30.9459 38.966C30.9459 39.0661 30.9459 39.1624 30.9459 39.2663C30.9459 39.5703 30.9231 39.8817 30.9078 40.208C29.9224 40.4728 28.9077 40.621 27.8859 40.6492C27.844 40.2339 27.7603 39.1291 27.7565 39.0068C27.7565 38.7509 27.7032 38.0428 27.6956 37.9464C27.6728 37.4051 27.6575 36.8638 27.6575 36.3299C27.6575 35.6403 27.6842 34.9692 27.7374 34.3426C27.7374 34.2982 27.7374 34.2574 27.7374 34.2166C27.7374 34.1758 27.315 31.8401 26.9762 29.1113C26.9382 29.4005 26.9001 29.6897 26.8621 29.9677C26.5424 32.3183 26.2036 34.2166 26.2036 34.2166C26.2607 34.8765 26.2874 35.5921 26.2874 36.3262C26.2874 36.8823 26.2874 37.4384 26.2493 38.0242C26.2493 38.1206 26.1694 39.359 26.158 39.4776C26.1313 39.8743 26.0971 40.2636 26.0628 40.6381C25.5338 40.6158 25.0047 40.5788 24.4833 40.538C24.0723 40.5009 23.5547 40.4823 23.0523 40.4119C23.0294 40.0782 23.0142 39.7557 23.0028 39.448C23.0028 39.3701 23.0028 39.2885 23.0028 39.2144C23.0028 38.8733 23.0028 38.5507 23.0028 38.2356V37.9798C23.0028 35.733 23.2273 34.2722 23.1931 33.9014C22.3976 26.1156 23.509 21.826 23.509 21.826C23.6835 21.2014 23.9966 20.6217 24.4262 20.1279C24.7522 20.1802 25.0722 20.2634 25.3815 20.3763C25.8525 20.4941 26.3379 20.5478 26.824 20.5357H27.1742C27.5966 20.5357 28.0191 20.4875 28.4377 20.4764H28.7194C29.1207 20.4723 29.5213 20.5096 29.9145 20.5877C30.1589 20.9799 30.3507 21.4011 30.4854 21.8408C30.7801 23.2487 30.9469 24.6792 30.984 26.1156C31.1148 28.725 31.0398 31.3403 30.7594 33.9385C30.7252 34.2722 30.9269 35.6737 30.9459 37.8278Z" fill="#452626"/>
<path d="M25.5574 44.6533C25.6107 46.5701 25.4242 47.8344 25.1349 48.5945C24.6934 49.7697 24.0121 49.7549 23.6125 49.1172C23.5104 48.9426 23.4408 48.7519 23.407 48.5537C23.1253 47.2301 23.6125 44.9166 23.6125 44.9166C23.6143 44.8894 23.6143 44.8622 23.6125 44.835C23.8019 44.9696 24.0165 45.0666 24.2443 45.1205C24.5003 45.1825 24.7701 45.1614 25.0126 45.0604C25.2551 44.9593 25.4571 44.7838 25.5878 44.5606L25.5574 44.6533Z" fill="#C1063D"/>
<path d="M30.5272 48.4277C30.4953 48.6634 30.4178 48.8911 30.2988 49.0987C29.8878 49.755 29.1799 49.7513 28.7422 48.487C28.4757 47.7269 28.3045 46.5109 28.3616 44.7016C28.6466 44.9511 29.0137 45.0931 29.3968 45.102C29.7379 45.0688 30.0617 44.94 30.3293 44.7312C30.3301 44.7886 30.3237 44.8459 30.3102 44.9018C30.3102 44.9018 30.7746 47.0929 30.5272 48.4277Z" fill="#C1063D"/>
<path d="M24.9818 45.7656C24.7891 45.6536 24.5688 45.5945 24.3444 45.5945C24.12 45.5945 23.8998 45.6536 23.7071 45.7656C23.6999 45.7733 23.6951 45.7828 23.6933 45.7931C23.6914 45.8033 23.6925 45.8138 23.6965 45.8235C23.7004 45.8331 23.7071 45.8415 23.7157 45.8477C23.7243 45.8538 23.7345 45.8575 23.7451 45.8583C23.9354 45.8583 24.1256 45.7804 24.3045 45.7841C24.5141 45.7996 24.721 45.8395 24.9209 45.9028C24.938 45.9049 24.9554 45.9015 24.9704 45.8931C24.9854 45.8847 24.9972 45.8719 25.0041 45.8564C25.011 45.841 25.0125 45.8238 25.0085 45.8074C25.0044 45.791 24.9951 45.7764 24.9818 45.7656Z" fill="#291B30"/>
<path d="M24.9215 46.3699C24.5965 46.1854 24.2152 46.1185 23.8446 46.1809C23.7191 46.1809 23.7153 46.3848 23.8446 46.3737C24.0236 46.3575 24.2039 46.3638 24.3812 46.3922C24.5448 46.4218 24.6932 46.4923 24.8568 46.5257C24.8769 46.5299 24.8979 46.527 24.9161 46.5176C24.9343 46.5082 24.9485 46.4929 24.9563 46.4743C24.964 46.4557 24.9647 46.435 24.9584 46.4159C24.952 46.3968 24.9389 46.3806 24.9215 46.3699Z" fill="#291B30"/>
<path d="M29.9605 45.7656C29.6713 45.6655 29.0435 45.6322 28.819 45.888C28.7885 45.9251 28.819 45.9955 28.8608 45.9881C29.0397 45.9881 29.1957 45.8954 29.3821 45.8917C29.5686 45.888 29.7626 45.9325 29.9377 45.9213C29.9589 45.9243 29.9804 45.9189 29.9975 45.9064C30.0147 45.8939 30.026 45.8753 30.029 45.8546C30.032 45.834 30.0265 45.813 30.0137 45.7963C30.0008 45.7796 29.9817 45.7686 29.9605 45.7656Z" fill="#291B30"/>
<path d="M30.1007 46.3996C29.7848 46.2661 28.9972 46.166 28.8374 46.5813C28.8145 46.6369 28.8868 46.6814 28.9325 46.6554C29.097 46.5666 29.28 46.5151 29.4677 46.5048C29.6555 46.4945 29.8433 46.5257 30.0169 46.5961C30.1311 46.6443 30.2186 46.4478 30.1007 46.3996Z" fill="#291B30"/>
<path d="M15.6915 10.9777C15.6915 10.9554 15.6458 10.9554 15.642 10.9777C15.4517 12.242 15.5621 13.573 15.5621 14.8632C15.5621 16.2313 15.5202 17.6105 15.6002 18.9786C15.6038 18.9931 15.6123 19.0061 15.6244 19.0154C15.6364 19.0246 15.6514 19.0297 15.6667 19.0297C15.6821 19.0297 15.697 19.0246 15.7091 19.0154C15.7212 19.0061 15.7297 18.9931 15.7333 18.9786C15.8132 17.6105 15.7676 16.2313 15.7676 14.8632C15.7714 13.5915 15.8779 12.242 15.6915 10.9777Z" fill="white"/>
<path d="M17.3552 11.3966C17.3552 11.376 17.3468 11.3562 17.3318 11.3416C17.3168 11.327 17.2965 11.3188 17.2753 11.3188C17.2541 11.3188 17.2338 11.327 17.2188 11.3416C17.2038 11.3562 17.1954 11.376 17.1954 11.3966C17.1954 12.6127 17.1117 13.851 17.1954 15.0634C17.1954 15.0841 17.2038 15.1039 17.2188 15.1185C17.2338 15.1331 17.2541 15.1413 17.2753 15.1413C17.2965 15.1413 17.3168 15.1331 17.3318 15.1185C17.3468 15.1039 17.3552 15.0841 17.3552 15.0634C17.4542 13.851 17.3628 12.6127 17.3552 11.3966Z" fill="white"/>
<path d="M34.3719 24.1284C34.3689 24.1174 34.3621 24.1077 34.3529 24.1009C34.3436 24.094 34.3322 24.0902 34.3206 24.0902C34.3089 24.0902 34.2976 24.094 34.2883 24.1009C34.279 24.1077 34.2723 24.1174 34.2692 24.1284C34.164 25.7193 34.1424 27.3144 34.2045 28.9074C34.2045 30.5017 34.2045 32.0959 34.2654 33.6902C34.2686 33.702 34.2758 33.7125 34.2858 33.72C34.2957 33.7275 34.308 33.7315 34.3206 33.7315C34.3332 33.7315 34.3454 33.7275 34.3554 33.72C34.3654 33.7125 34.3725 33.702 34.3757 33.6902C34.429 32.0959 34.429 30.5017 34.4366 28.9074C34.4988 27.3144 34.4772 25.7193 34.3719 24.1284Z" fill="white"/>
<path d="M37.3175 14.8039C37.3057 13.743 37.2345 12.6836 37.1045 11.6302C37.1045 11.5672 37.0017 11.5857 36.9979 11.6302C36.965 12.7619 36.9968 13.8944 37.093 15.0226C37.1387 16.0756 37.1273 17.1582 37.2719 18.2074C37.2719 18.3038 37.4393 18.2741 37.4431 18.1814C37.4964 17.0766 37.3746 15.9236 37.3175 14.8039Z" fill="white"/>
<path d="M38.0826 15.3934C38.08 15.3851 38.0746 15.3778 38.0675 15.3727C38.0603 15.3675 38.0516 15.3648 38.0427 15.3648C38.0337 15.3648 38.0251 15.3675 38.0179 15.3727C38.0107 15.3778 38.0054 15.3851 38.0027 15.3934C37.9019 16.9166 37.8942 18.4444 37.9799 19.9685C37.9833 19.9822 37.9914 19.9943 38.0028 20.003C38.0142 20.0117 38.0282 20.0164 38.0427 20.0164C38.0571 20.0164 38.0711 20.0117 38.0825 20.003C38.0939 19.9943 38.102 19.9822 38.1054 19.9685C38.1911 18.4444 38.1834 16.9166 38.0826 15.3934Z" fill="white"/>
<path d="M26.8428 29.964C26.8483 29.6753 26.8864 29.3881 26.9564 29.1076C26.9185 29.3968 26.8806 29.686 26.8428 29.964Z" fill="#291B30"/>
<path d="M30.984 26.1156C30.4702 23.1088 26.2303 22.9679 26.2303 22.9679C25.9639 21.711 27.6766 21.344 27.6766 21.344L28.6775 20.4986C29.0788 20.4945 29.4794 20.5318 29.8726 20.6099C30.117 21.0022 30.3089 21.4233 30.4435 21.863C30.7485 23.2628 30.9294 24.6856 30.984 26.1156Z" fill="black"/>
<path d="M30.5158 22.1745C27.0904 23.7428 23.3682 22.3043 23.3682 22.3043C23.6384 21.5627 23.4367 17.7811 23.4176 17.0618C23.4195 17.0483 23.4195 17.0345 23.4176 17.021C23.4191 16.9951 23.4191 16.9691 23.4176 16.9432C24.137 15.3192 24.2169 12.1901 24.2207 11.1149C24.5442 11.0667 24.8829 11.0407 25.176 11.0222C25.2902 12.2271 25.6974 15.3081 26.8316 15.1746C27.9658 15.0412 28.5062 12.2976 28.7042 11.0963C28.9124 11.1341 29.1244 11.1478 29.336 11.1371H29.5301C29.4311 12.7796 30.3674 16.2313 30.3978 16.3277C30.3957 16.3548 30.3957 16.3821 30.3978 16.4093C30.3978 16.4982 30.3712 16.5909 30.3598 16.691C30.3598 16.691 30.3598 16.7318 30.3598 16.7541C30.1162 18.8414 30.5158 22.1745 30.5158 22.1745Z" fill="#C1063D"/>
</g>
<defs>
<clipPath id="clip0_0_3358">
<rect x="8" y="2.43921" width="39" height="50" rx="10" fill="white"/>
</clipPath>
</defs>
</svg>
