<svg width="76" height="100" viewBox="0 0 76 100" fill="none" xmlns="http://www.w3.org/2000/svg">
<g filter="url(#filter0_d_0_3953)">
<path d="M35.8889 97.0339C34.4079 97.0362 32.9309 96.8796 31.4833 96.5668C28.9523 96.0467 26.5684 94.9714 24.5034 93.4186C22.4384 91.8657 20.744 89.874 19.5423 87.5871C18.5861 85.4502 17.8769 83.2112 17.4285 80.9135L17.3246 80.4686C15.8412 74.1583 13.9722 67.4774 10.5234 61.4415C9.96715 60.4701 9.35896 59.4987 8.77304 58.557C7.35416 56.4398 6.14921 54.1869 5.1759 51.8315C3.69254 47.7829 3.98179 43.7787 6.00658 41.1241C6.27321 40.712 6.62011 40.3578 7.0266 40.0827C7.43308 39.8075 7.89083 39.617 8.37254 39.5225C8.66624 39.4919 8.96307 39.5201 9.24575 39.6054C9.52844 39.6907 9.79133 39.8314 10.0191 40.0193C10.1956 40.16 10.3404 40.3365 10.4439 40.5371C10.5475 40.7378 10.6074 40.958 10.6198 41.1834H10.1377C10.1261 41.0262 10.0819 40.8732 10.0078 40.734C9.93376 40.5949 9.83149 40.4727 9.70756 40.3752C9.53147 40.229 9.32785 40.1195 9.10875 40.0533C8.88964 39.9871 8.65949 39.9654 8.43187 39.9896C7.59629 40.18 6.86598 40.6844 6.39225 41.3984C4.47129 43.927 4.16721 47.7606 5.65057 51.6461C6.61021 53.9845 7.80291 56.2203 9.21062 58.3197C9.79655 59.2614 10.4047 60.2328 10.9684 61.2116C14.4469 67.3068 16.3159 74.0249 17.8215 80.3722L17.9254 80.8171C18.366 83.0764 19.0628 85.278 20.0021 87.3795C21.1711 89.6002 22.8187 91.5337 24.826 93.0405C26.8333 94.5472 29.1502 95.5895 31.6094 96.0922C36.5792 97.0581 41.7291 96.3461 46.2501 94.0679C48.0654 93.2576 49.7054 92.1015 51.0785 90.6644C52.466 88.9772 53.5364 87.0529 54.2381 84.9844C55.4767 81.7366 56.4631 78.3108 57.3531 75.0037C58.7252 70.08 60.1418 64.9933 62.5449 60.3811C63.2495 59.0316 64.0282 57.7042 64.8144 56.414C66.2879 54.1151 67.5301 51.6761 68.5228 49.1324C69.3757 46.7077 69.4128 44.7205 68.6415 43.2004C68.3708 42.7013 67.993 42.2683 67.5352 41.9324C67.0775 41.5966 66.5511 41.3661 65.9937 41.2576C65.6074 41.1663 65.2051 41.1663 64.8189 41.2576C64.4326 41.349 64.073 41.5293 63.7687 41.784L63.4497 41.4207C63.8082 41.1185 64.2317 40.9031 64.687 40.7912C65.1424 40.6793 65.6175 40.674 66.0753 40.7756C66.7023 40.9071 67.293 41.1744 67.8055 41.5588C68.3181 41.9431 68.7402 42.4351 69.042 43.0001C69.8801 44.6315 69.843 46.7077 68.9456 49.2955C67.9427 51.876 66.6803 54.3481 65.1779 56.6736C64.4362 57.949 63.6203 59.2689 62.9528 60.611C60.5794 65.1787 59.1702 70.2506 57.8055 75.1446C56.8784 78.4665 55.9217 81.8923 54.6757 85.1624C53.9514 87.288 52.8482 89.2651 51.4197 90.998C50.0067 92.4819 48.3158 93.6737 46.443 94.5054C43.1586 96.1273 39.5518 96.9913 35.8889 97.0339Z" fill="#C1063D"/>
<path d="M41.3337 10.6555C41.7194 10.0452 41.9392 9.34494 41.9716 8.62377C42.0123 8.30229 41.9823 7.97578 41.8837 7.66711C41.785 7.35843 41.6201 7.07502 41.4005 6.83671C41.2151 6.65133 40.9851 6.51786 40.8146 6.32507C40.644 6.13227 40.5624 5.93209 40.4215 5.74671C40.2679 5.54813 40.0714 5.3869 39.8466 5.27517C39.6218 5.16343 39.3746 5.1041 39.1235 5.1016C38.6118 5.1016 38.0703 5.3463 37.6402 5.1016C37.3732 4.96813 37.1952 4.70119 36.9356 4.55289C36.6526 4.41263 36.328 4.38093 36.0233 4.46387C35.759 4.5563 35.4799 4.59907 35.2 4.58996C34.7921 4.53064 34.5177 4.1747 34.1617 3.97449C33.9787 3.88095 33.7774 3.82858 33.572 3.82102C33.3666 3.81346 33.1621 3.85089 32.9727 3.93073C32.7833 4.01056 32.6137 4.13085 32.4757 4.28315C32.3377 4.43546 32.2348 4.6161 32.174 4.8124C32.1295 5.00013 32.1295 5.19566 32.174 5.38338C32.2556 5.8357 32.5671 6.19901 32.5893 6.65133C32.6116 7.10365 32.3372 7.49669 32.5893 7.88969C32.8415 8.28269 33.2123 8.30489 33.3903 8.68306C33.6277 9.20212 33.3903 9.86208 33.6054 10.4182C33.7167 10.7667 33.776 11.2635 34.1024 11.486C34.5548 11.7974 35.5486 11.5379 36.0826 11.486C36.7798 11.4341 37.4844 11.3748 38.1816 11.308C39.1087 11.2265 40.2509 11.3451 41.089 10.8557C41.1807 10.8025 41.2634 10.7349 41.3337 10.6555Z" fill="#452626"/>
<path d="M34.2134 10.3292C34.1398 10.2281 34.0433 10.1458 33.9319 10.0891C33.8204 10.0324 33.6971 10.0028 33.572 10.0028C33.447 10.0028 33.3237 10.0324 33.2122 10.0891C33.1007 10.1458 33.0042 10.2281 32.9306 10.3292C32.2855 11.0707 33.3755 12.5537 34.2134 12.6427C34.2622 11.8723 34.2622 11.0996 34.2134 10.3292Z" fill="#E0855C"/>
<path d="M44.634 22.7495C44.4371 23.9983 44.1746 25.2358 43.8479 26.4571C43.7959 26.6795 43.7589 26.9019 43.7218 27.1244C43.6847 27.3468 43.6624 27.5026 43.6328 27.7769C43.6287 27.8312 43.6287 27.8858 43.6328 27.9401C43.6328 28.118 43.5809 28.3034 43.5586 28.5036L42.6241 37.2164C36.8167 38.8106 30.7572 37.2164 30.7572 37.2164C30.7572 37.2164 30.7572 37.1051 30.7572 36.8901C30.6608 35.9039 30.3641 32.7599 30.0674 29.2303C30.0711 29.2032 30.0711 29.1758 30.0674 29.1487C30.0704 29.0969 30.0704 29.0449 30.0674 28.993C29.9414 27.51 29.8227 25.938 29.7263 24.4401C29.5483 21.8374 29.437 19.435 29.4667 17.9445C29.4667 17.3958 30.7424 17.4551 31.6176 17.3365C32.2628 17.2401 32.9229 17.1882 33.494 17.1511C34.0651 17.114 34.4953 17.1511 34.7845 17.1511H35.1109L35.185 16.2909L35.3853 14.1999C35.4827 14.225 35.5818 14.2423 35.682 14.2518C35.866 14.2826 36.0518 14.3024 36.2382 14.3111C36.4679 14.3263 36.6983 14.3263 36.928 14.3111H37.2469H37.4323C37.64 14.2765 37.8403 14.232 38.0331 14.1777L38.3891 14.0664C38.933 13.8979 39.4481 13.6479 39.917 13.3249L39.9837 13.2804L40.1098 13.184C40.1439 13.1685 40.1743 13.1457 40.1988 13.1173C40.1988 13.2285 40.1988 13.273 40.1617 13.3175C40.1024 13.8069 40.0356 14.4298 40.006 15.0452C40.006 15.4753 39.9614 15.8905 39.9466 16.2613C39.9318 16.6321 39.8131 17.1511 40.0727 17.3291C40.1624 17.3871 40.2636 17.425 40.3694 17.4403C40.7756 17.512 41.1884 17.5393 41.6006 17.5219H41.9788C42.2949 17.4997 42.6121 17.4997 42.9282 17.5219C43.1494 17.5195 43.3688 17.5624 43.5728 17.6478C43.7769 17.7332 43.9613 17.8594 44.1149 18.0187C44.3369 18.3182 44.4751 18.6714 44.5154 19.042L44.6044 19.65C44.7283 20.6789 44.7382 21.7184 44.634 22.7495Z" fill="#F5A784"/>
<path d="M40.1615 12.9912C40.0611 13.5219 39.8445 14.0237 39.527 14.4607C39.2096 14.8977 38.7993 15.2589 38.3255 15.5184C37.8518 15.7779 37.3265 15.9292 36.7872 15.9615C36.248 15.9938 35.7084 15.9063 35.207 15.7052L35.348 14.1702C36.1879 14.3322 37.0529 14.3107 37.8837 14.1072C38.7145 13.9037 39.4915 13.523 40.1615 12.9912Z" fill="#E0855C"/>
<path d="M34.3618 8.10469C33.9316 8.5496 33.8945 9.54321 33.8648 10.6406C33.7536 13.9774 34.7549 15.0156 36.4533 15.2009C38.1517 15.3863 39.9392 14.7264 40.3026 11.6343C40.488 10.0919 40.6809 8.66823 40.1246 8.00087C39.2865 6.99983 35.6671 6.74032 34.3618 8.10469Z" fill="#F5A784"/>
<path d="M40.0656 11.1893C40.0656 11.1893 40.592 9.81012 41.4077 10.5442C42.2234 11.2783 41.0963 13.362 39.8431 13.2063C39.8431 13.2433 39.6652 11.6639 40.0656 11.1893Z" fill="#F5A784"/>
<path d="M41.0297 11.1671C40.8378 11.2337 40.6648 11.3456 40.5254 11.4934C40.3742 11.6231 40.2506 11.782 40.1621 11.9606C40.1621 12.0199 40.214 12.0495 40.2511 12.0198C40.2882 11.9902 40.4439 11.7974 40.5477 11.6936C40.6108 11.7753 40.692 11.8413 40.785 11.8864C40.8591 11.8864 40.9185 11.8196 40.8888 11.7529C40.8351 11.6784 40.767 11.6154 40.6886 11.5675C40.8253 11.4765 40.9565 11.3775 41.0816 11.271C41.0922 11.2625 41.0996 11.2506 41.1026 11.2373C41.1055 11.2241 41.1038 11.2102 41.0977 11.198C41.0916 11.1858 41.0815 11.1762 41.0692 11.1705C41.0568 11.1649 41.0428 11.1637 41.0297 11.1671Z" fill="#E0855C"/>
<path d="M35.3265 10.5665C35.3265 10.5665 35.0373 10.6704 35.0818 10.1587C35.1263 9.64707 35.3265 9.76569 35.3265 9.76569C35.3265 9.76569 35.5267 9.76567 35.497 10.1661C35.4674 10.5665 35.3265 10.5665 35.3265 10.5665Z" fill="#452626"/>
<path d="M38.2474 10.5665C38.2474 10.5665 37.9582 10.6704 38.0027 10.1587C38.0472 9.64707 38.2474 9.76569 38.2474 9.76569C38.2474 9.76569 38.4476 9.76567 38.4105 10.1661C38.3735 10.5665 38.2474 10.5665 38.2474 10.5665Z" fill="#452626"/>
<path d="M35.6371 9.01672C35.5213 8.94846 35.3865 8.91951 35.2528 8.93422C35.1192 8.94892 34.9939 9.00647 34.8956 9.09828C34.8906 9.10842 34.8882 9.11969 34.8887 9.131C34.8893 9.14231 34.8926 9.15331 34.8986 9.16295C34.9045 9.17259 34.9128 9.18057 34.9227 9.18612C34.9325 9.19168 34.9436 9.1946 34.955 9.19468C35.0588 9.19468 35.1477 9.13538 35.2516 9.12797C35.3603 9.12279 35.4689 9.14047 35.5704 9.17988C35.6668 9.20954 35.7335 9.06121 35.6371 9.01672Z" fill="#452626"/>
<path d="M38.6778 9.26884C38.5592 8.97224 38.0476 8.94258 37.8325 9.12796C37.8218 9.13548 37.8131 9.14549 37.807 9.1571C37.801 9.16872 37.7979 9.18158 37.7979 9.19467C37.7979 9.20776 37.801 9.22066 37.807 9.23228C37.8131 9.24389 37.8218 9.2539 37.8325 9.26142C37.9656 9.27624 38.0999 9.27624 38.2329 9.26142C38.3407 9.27879 38.4456 9.31124 38.5444 9.35782C38.6333 9.38748 38.7001 9.32075 38.6778 9.26884Z" fill="#452626"/>
<path d="M35.9121 12.9541C36.5376 13.0361 37.1734 12.9276 37.7362 12.6427C37.6521 12.8406 37.5274 13.0186 37.3703 13.1655C37.2133 13.3123 37.0272 13.4247 36.8242 13.4955C36.1791 13.6734 35.9121 12.9541 35.9121 12.9541Z" fill="white"/>
<path d="M32.1665 17.9372C33.8724 19.131 34.0282 21.4519 33.1975 23.2983C32.6338 24.544 31.588 25.4116 30.9724 26.5831C30.3292 27.7183 29.5844 28.7929 28.7474 29.7939C26.908 32.1296 25.1577 34.243 24.4827 35.0438C22.1539 37.8319 17.2736 41.4801 15.5158 42.7555L14.878 43.2152C14.878 43.2152 13.1943 42.3254 13.6393 40.6941C13.6393 40.6941 20.3145 33.6127 21.3009 32.1667C22.3896 30.284 23.3798 28.346 24.2676 26.3607C25.4049 24.1658 26.5891 21.9956 27.8203 19.8502C28.384 18.8714 29.1034 17.6257 30.342 17.4107C30.8564 17.3468 31.3776 17.4536 31.8254 17.7147C31.9431 17.7825 32.057 17.8567 32.1665 17.9372Z" fill="#F5A784"/>
<path d="M13.6466 40.6792C13.8293 40.6652 14.0127 40.6652 14.1954 40.6792C14.1954 40.6792 15.8049 41.569 15.523 42.7258L15.0855 43.1188C14.8481 43.3412 14.5292 43.6379 14.1806 43.9864C13.832 44.3349 13.0384 45.4694 12.6972 45.3804C12.6172 45.3483 12.5478 45.2943 12.497 45.2247L11.8072 44.4832C11.4215 44.0605 10.7763 43.3338 11.2658 42.7554C10.9098 42.9705 10.0791 43.497 9.67119 43.2449L9.53027 42.9779C9.53027 42.9779 10.754 42.0659 11.2584 41.6135C11.9291 41.0464 12.769 40.7178 13.6466 40.6792Z" fill="#F5A784"/>
<path d="M34.191 29.2971C34.1876 29.3365 34.1876 29.3762 34.191 29.4157C34.191 29.4528 34.2577 29.4528 34.2429 29.4157L34.191 29.2971Z" fill="#D6BED3"/>
<path d="M36.9651 53.322C36.2827 58.7943 35.4817 63.5474 35.4817 63.5474C35.593 64.8673 35.6449 66.2984 35.6449 67.7666C35.6449 70.6363 35.4595 73.6987 35.2073 76.3903C34.8958 79.8235 34.4656 82.7451 34.2802 84.2059V84.3913C34.5546 94.1273 31.7807 95.4249 30.4828 93.2894C29.1849 91.1538 30.4828 84.8881 30.4828 84.8881C30.4863 84.8337 30.4863 84.7793 30.4828 84.7249C29.9372 81.8115 29.5731 78.867 29.3925 75.9084C28.9475 68.7454 29.7115 63.844 29.6225 62.9468C28.0723 47.3751 30.238 38.7958 30.238 38.7958C30.5781 37.5467 31.1883 36.3873 32.0255 35.3997C33.6053 33.6942 35.504 34.1317 36.6981 36.2153C36.8251 36.4282 36.9391 36.6486 37.0393 36.8753C37.5293 38.071 37.8055 39.3435 37.8551 40.6348C37.9515 43.8603 37.4991 48.8358 36.9651 53.322Z" fill="#F5A784"/>
<path d="M44.6042 75.5302C44.4366 78.5583 44.0749 81.5725 43.5213 84.5544L43.4546 84.9177C43.4546 84.9177 44.7525 91.2205 43.4546 93.319C42.1566 95.4175 39.4124 94.1421 39.6572 84.5247C39.6572 84.4802 39.6572 84.4357 39.6572 84.3912C39.4495 83.0046 39.0341 79.9422 38.7078 76.4126C38.4631 73.6912 38.2628 70.6585 38.2628 67.774C38.2628 66.291 38.3221 64.8747 38.4334 63.5474C38.4334 63.5474 37.6101 58.7943 36.95 53.3368C36.3938 48.8358 35.9339 43.8603 36.1267 40.6644C36.1822 39.3731 36.4608 38.1012 36.95 36.9049C37.0472 36.672 37.1612 36.4465 37.2912 36.2302C38.6633 33.8499 40.9477 33.6423 42.6313 36.3192C43.1075 37.1037 43.4814 37.946 43.7438 38.8255C43.7438 38.8255 45.9095 47.3825 44.3594 62.9764C44.263 63.8588 44.9972 68.5897 44.6042 75.5302Z" fill="#F5A784"/>
<path d="M13.4764 45.5213C13.6206 45.6946 13.8025 45.8327 14.0081 45.9252C14.2137 46.0177 14.4377 46.0622 14.6631 46.0551C14.7666 46.031 14.8642 45.9862 14.9499 45.9234C15.0356 45.8605 15.1077 45.7809 15.1618 45.6894C15.2158 45.598 15.2508 45.4964 15.2645 45.3911C15.2782 45.2857 15.2704 45.1786 15.2416 45.0763C15.1488 44.8608 15.0095 44.6683 14.8337 44.5128C13.7063 43.4055 12.5592 42.3228 11.3923 41.265C11.1977 41.0457 10.9376 40.8949 10.6506 40.8349C10.3829 40.8318 10.123 40.9252 9.91859 41.0982C9.71423 41.2712 9.57913 41.5121 9.53809 41.7766C9.53809 42.2512 9.94601 42.4291 10.2798 42.6961C11.3404 43.5933 12.3936 44.5795 13.4764 45.5213Z" fill="#452626"/>
<path d="M13.3047 44.2088C13.3508 44.1612 13.3884 44.106 13.4159 44.0457C13.4348 43.9679 13.4359 43.8869 13.4192 43.8086C13.4025 43.7303 13.3684 43.6567 13.3195 43.5934C13.0451 43.1484 12.4816 42.4218 11.9255 42.355C11.742 42.3464 11.5594 42.3856 11.3956 42.4688C11.2318 42.552 11.0925 42.6764 10.9912 42.8296C10.8308 43.0647 10.7284 43.3344 10.6923 43.6166C10.6562 43.8989 10.6875 44.1857 10.7835 44.4535C10.9486 44.9434 11.2824 45.3585 11.7253 45.6251C11.9473 45.7172 12.1962 45.721 12.421 45.6355C12.6457 45.55 12.8292 45.3818 12.9339 45.1654C13.0451 44.891 13.0081 44.5573 13.1935 44.3274C13.2266 44.2844 13.2639 44.2447 13.3047 44.2088Z" fill="#F5A784"/>
<path d="M41.6899 17.9371C39.9767 19.1309 39.8209 21.4519 40.659 23.2982C41.2153 24.5439 42.2685 25.4115 42.8841 26.5831C43.5326 27.715 44.277 28.7892 45.1091 29.7938C46.9485 32.1296 48.7062 34.2429 49.3812 35.0437C51.7026 37.8318 56.5903 41.48 58.3407 42.7554L58.9859 43.2152C58.9859 43.2152 60.6621 42.3254 60.2245 40.694C60.2245 40.694 53.5494 33.6126 52.5555 32.1667C51.4668 30.284 50.4766 28.346 49.5888 26.3607C48.4565 24.1658 47.2698 21.9956 46.0288 19.8502C45.4651 18.8714 44.7531 17.6257 43.5071 17.4106C43.0072 17.355 42.5028 17.4616 42.0682 17.7147C41.9368 17.7794 41.8104 17.8537 41.6899 17.9371Z" fill="#F5A784"/>
<path d="M60.2094 40.6792C60.0243 40.6653 59.8383 40.6653 59.6532 40.6792C59.6532 40.6792 58.0511 41.569 58.3256 42.7258C58.3256 42.7258 58.5036 42.8741 58.7632 43.1188C59.0228 43.3635 59.3268 43.6378 59.668 43.9864C60.0092 44.3349 60.8176 45.4694 61.1885 45.3804C61.2674 45.3464 61.3363 45.2928 61.3887 45.2247L62.0711 44.4832C62.4642 44.0605 63.102 43.3338 62.6199 42.7554C62.9685 42.9705 63.7992 43.497 64.2145 43.2448L64.3554 42.9779C64.3554 42.9779 63.1317 42.0658 62.6199 41.6135C61.9448 41.0393 61.0953 40.71 60.2094 40.6792Z" fill="#F5A784"/>
<path d="M60.3802 45.5213C60.2325 45.6923 60.0489 45.8288 59.8426 45.921C59.6362 46.0133 59.4121 46.0591 59.1861 46.0552C59.0826 46.0311 58.985 45.9863 58.8993 45.9234C58.8136 45.8606 58.7415 45.781 58.6875 45.6895C58.6334 45.598 58.5984 45.4965 58.5847 45.3911C58.571 45.2857 58.5788 45.1787 58.6076 45.0764C58.7006 44.8589 58.8427 44.666 59.023 44.5128C60.1404 43.4055 61.2876 42.3229 62.4644 41.265C62.6675 41.0373 62.9422 40.8857 63.2431 40.835C63.5096 40.8336 63.7677 40.9279 63.9705 41.1007C64.1733 41.2736 64.3074 41.5134 64.3482 41.7767C64.3482 42.2512 63.9477 42.4292 63.6066 42.6961C62.5089 43.5934 61.4408 44.5796 60.3802 45.5213Z" fill="#452626"/>
<path d="M60.5501 44.2088C60.4995 44.1634 60.4591 44.1078 60.4315 44.0456C60.4162 43.9672 60.4175 43.8864 60.4354 43.8085C60.4532 43.7305 60.4873 43.6572 60.5353 43.5933C60.8022 43.1484 61.3658 42.4217 61.9219 42.355C62.1055 42.3457 62.2884 42.3845 62.4523 42.4678C62.6162 42.551 62.7555 42.6758 62.8562 42.8296C63.0183 43.0639 63.1217 43.3336 63.1578 43.6162C63.194 43.8988 63.1617 44.186 63.0638 44.4535C62.9041 44.9462 62.569 45.3631 62.1221 45.625C61.9001 45.7172 61.6511 45.7209 61.4264 45.6354C61.2017 45.55 61.0182 45.3817 60.9135 45.1653C60.8097 44.8909 60.8467 44.5573 60.6614 44.3274L60.5501 44.2088Z" fill="#F5A784"/>
<path d="M44.7159 70.7771V71.5186C44.7159 72.008 44.7159 72.527 44.7159 73.0535C44.7159 73.2537 44.7159 73.4465 44.7159 73.6541C44.7159 74.2621 44.6713 74.885 44.6417 75.5376C42.7213 76.0672 40.7441 76.3635 38.7527 76.42C38.6712 75.5895 38.508 73.3798 38.5006 73.1351C38.5006 72.6234 38.3967 71.2071 38.3819 71.0143C38.3374 69.9317 38.3077 68.8491 38.3077 67.7814C38.3077 66.4022 38.3596 65.06 38.4635 63.8069C38.4635 63.7179 38.4635 63.6363 38.4635 63.5548C38.4635 63.4732 37.6402 58.8017 36.9801 53.3442C36.9059 53.9226 36.8318 54.5009 36.7576 55.0571C36.1346 59.7582 35.4745 63.5548 35.4745 63.5548C35.5857 64.8746 35.6377 66.3058 35.6377 67.7739C35.6377 68.8862 35.6377 69.9985 35.5635 71.1701C35.5635 71.3629 35.4077 73.8395 35.3855 74.0768C35.3336 74.8702 35.2668 75.6488 35.2001 76.3977C34.1691 76.3532 33.1382 76.2791 32.1221 76.1975C31.3211 76.1234 30.3124 76.0863 29.3334 75.9454C29.2889 75.278 29.2592 74.6329 29.237 74.0175C29.237 73.8618 29.237 73.6986 29.237 73.5503C29.237 72.8681 29.237 72.223 29.237 71.5927V71.0811C29.237 66.5875 29.6746 63.666 29.6078 62.9245C28.0577 47.3528 30.2234 38.7735 30.2234 38.7735C30.5635 37.5243 31.1737 36.365 32.0109 35.3774C32.6461 35.4819 33.2696 35.6483 33.8725 35.8742C34.7902 36.1098 35.7362 36.2171 36.6834 36.1931H37.3658C38.1891 36.1931 39.0123 36.0966 39.8282 36.0744H40.377C41.159 36.0661 41.9396 36.1407 42.7059 36.2969C43.1821 37.0815 43.556 37.9237 43.8184 38.8032C44.3927 41.619 44.7178 44.4799 44.79 47.3528C45.0451 52.5716 44.8988 57.8022 44.3524 62.9986C44.2857 63.666 44.6788 66.4689 44.7159 70.7771Z" fill="#452626"/>
<path d="M34.2138 84.4283C34.3177 88.2619 33.9542 90.7905 33.3906 92.3105C32.5302 94.6611 31.2026 94.6315 30.4238 93.3561C30.2248 93.0069 30.0893 92.6254 30.0234 92.229C29.4745 89.5818 30.4238 84.9548 30.4238 84.9548C30.4274 84.9005 30.4274 84.846 30.4238 84.7916C30.7929 85.0608 31.2112 85.2548 31.655 85.3626C32.1539 85.4867 32.6796 85.4445 33.1522 85.2424C33.6248 85.0402 34.0184 84.6893 34.2732 84.2429L34.2138 84.4283Z" fill="#C1063D"/>
<path d="M43.8998 91.9768C43.8377 92.4483 43.6867 92.9037 43.4548 93.319C42.6537 94.6314 41.2742 94.624 40.4213 92.0955C39.9021 90.5754 39.5683 88.1432 39.6796 84.5247C40.235 85.0236 40.9505 85.3077 41.697 85.3255C42.3616 85.2591 42.9928 85.0015 43.5141 84.584C43.5157 84.6988 43.5032 84.8133 43.477 84.9251C43.477 84.9251 44.3819 89.3074 43.8998 91.9768Z" fill="#C1063D"/>
<path d="M33.0928 86.6528C32.7172 86.4288 32.288 86.3105 31.8507 86.3105C31.4134 86.3105 30.9843 86.4288 30.6087 86.6528C30.5948 86.6682 30.5855 86.6873 30.5818 86.7077C30.5782 86.7282 30.5803 86.7493 30.588 86.7686C30.5958 86.7879 30.6087 86.8046 30.6255 86.8169C30.6422 86.8292 30.6621 86.8366 30.6828 86.8382C31.0536 86.8382 31.4244 86.6824 31.7729 86.6899C32.1813 86.7209 32.5846 86.8005 32.9741 86.9271C33.0075 86.9313 33.0414 86.9245 33.0706 86.9078C33.0999 86.8911 33.1229 86.8653 33.1362 86.8344C33.1496 86.8035 33.1526 86.7691 33.1448 86.7364C33.1369 86.7036 33.1187 86.6743 33.0928 86.6528Z" fill="#291B30"/>
<path d="M32.9742 87.8615C32.341 87.4924 31.598 87.3585 30.8758 87.4833C30.6311 87.4833 30.6237 87.8911 30.8758 87.8689C31.2244 87.8366 31.5758 87.8491 31.9213 87.906C32.2401 87.9653 32.5293 88.1061 32.8482 88.1729C32.8874 88.1813 32.9284 88.1756 32.9638 88.1568C32.9993 88.138 33.027 88.1073 33.042 88.0701C33.0571 88.0329 33.0585 87.9916 33.0461 87.9534C33.0337 87.9153 33.0083 87.8827 32.9742 87.8615Z" fill="#291B30"/>
<path d="M42.7945 86.6528C42.2309 86.4526 41.0074 86.3859 40.5699 86.8976C40.5106 86.9717 40.57 87.1126 40.6515 87.0977C41 87.0977 41.304 86.9124 41.6674 86.905C42.0307 86.8976 42.4089 86.9865 42.75 86.9643C42.7913 86.9702 42.8332 86.9594 42.8666 86.9344C42.9 86.9094 42.9221 86.8721 42.928 86.8308C42.9339 86.7895 42.9231 86.7475 42.8981 86.7142C42.873 86.6808 42.8358 86.6587 42.7945 86.6528Z" fill="#291B30"/>
<path d="M43.0679 87.9208C42.4525 87.6539 40.9176 87.4536 40.6061 88.2841C40.5616 88.3954 40.7025 88.4843 40.7915 88.4324C41.1121 88.2547 41.4686 88.1517 41.8346 88.1312C42.2005 88.1106 42.5664 88.173 42.9048 88.3138C43.1273 88.4102 43.2978 88.0172 43.0679 87.9208Z" fill="#291B30"/>
<path d="M14.9889 17.0769C14.9889 17.0325 14.9 17.0325 14.8925 17.0769C14.5218 19.6055 14.7368 22.2675 14.7368 24.848C14.7368 27.5842 14.6553 30.3426 14.811 33.0787C14.818 33.1079 14.8346 33.1338 14.8581 33.1523C14.8817 33.1709 14.9108 33.181 14.9407 33.181C14.9707 33.181 14.9998 33.1709 15.0233 33.1523C15.0469 33.1338 15.0635 33.1079 15.0705 33.0787C15.2262 30.3426 15.1372 27.5842 15.1372 24.848C15.1447 22.3046 15.3523 19.6055 14.9889 17.0769Z" fill="#E8CEE5"/>
<path d="M18.2306 17.9148C18.2306 17.8735 18.2142 17.8339 18.185 17.8047C18.1558 17.7755 18.1162 17.7592 18.0749 17.7592C18.0336 17.7592 17.994 17.7755 17.9648 17.8047C17.9356 17.8339 17.9192 17.8735 17.9192 17.9148C17.9192 20.347 17.7561 22.8236 17.9192 25.2484C17.9192 25.2897 17.9356 25.3293 17.9648 25.3585C17.994 25.3877 18.0336 25.4041 18.0749 25.4041C18.1162 25.4041 18.1558 25.3877 18.185 25.3585C18.2142 25.3293 18.2306 25.2897 18.2306 25.2484C18.4234 22.8236 18.2454 20.347 18.2306 17.9148Z" fill="#E8CEE5"/>
<path d="M51.3908 43.3783C51.3847 43.3564 51.3717 43.337 51.3536 43.3232C51.3355 43.3094 51.3134 43.302 51.2906 43.302C51.2679 43.302 51.2458 43.3094 51.2277 43.3232C51.2096 43.337 51.1966 43.3564 51.1905 43.3783C50.9855 46.5601 50.9434 49.7503 51.0645 52.9364C51.0645 56.1249 51.0645 59.3133 51.1831 62.5018C51.1894 62.5255 51.2034 62.5465 51.2228 62.5615C51.2422 62.5764 51.2661 62.5846 51.2906 62.5846C51.3152 62.5846 51.339 62.5764 51.3585 62.5615C51.3779 62.5465 51.3919 62.5255 51.3982 62.5018C51.502 59.3133 51.502 56.1249 51.5168 52.9364C51.6379 49.7503 51.5958 46.5601 51.3908 43.3783Z" fill="#E8CEE5"/>
<path d="M57.1317 24.7293C57.1086 22.6076 56.97 20.4887 56.7165 18.382C56.7165 18.256 56.5163 18.293 56.5089 18.382C56.4447 20.6453 56.5066 22.9104 56.6942 25.1668C56.7832 27.2727 56.761 29.4379 57.0427 31.5364C57.0427 31.7292 57.369 31.6699 57.3764 31.4845C57.4802 29.2748 57.2429 26.9687 57.1317 24.7293Z" fill="#E8CEE5"/>
<path d="M58.6218 25.9083C58.6166 25.8917 58.6062 25.8772 58.5922 25.8669C58.5782 25.8566 58.5613 25.8511 58.5439 25.8511C58.5265 25.8511 58.5096 25.8566 58.4956 25.8669C58.4816 25.8772 58.4712 25.8917 58.466 25.9083C58.2696 28.9548 58.2547 32.0103 58.4216 35.0585C58.4283 35.0859 58.4441 35.1102 58.4663 35.1275C58.4884 35.1448 58.5158 35.1543 58.5439 35.1543C58.5721 35.1543 58.5994 35.1448 58.6216 35.1275C58.6438 35.1102 58.6595 35.0859 58.6663 35.0585C58.8331 32.0103 58.8183 28.9548 58.6218 25.9083Z" fill="#E8CEE5"/>
<path d="M36.7197 55.0497C36.7305 54.4723 36.8051 53.8978 36.9422 53.3368C36.868 53.9152 36.7939 54.4935 36.7197 55.0497Z" fill="#291B30"/>
<path d="M44.7901 47.3528C43.7888 41.3392 35.5265 41.0574 35.5265 41.0574C35.0074 38.5437 38.3449 37.8096 38.3449 37.8096L40.2955 36.1189C41.0775 36.1106 41.8582 36.1852 42.6244 36.3414C43.1007 37.126 43.4745 37.9682 43.7369 38.8477C44.3313 41.6473 44.6837 44.4928 44.7901 47.3528Z" fill="black"/>
<path d="M43.877 39.4705C37.2019 42.6071 29.9482 39.73 29.9482 39.73C30.4748 38.247 30.0817 30.6836 30.0447 29.2451C30.0483 29.2181 30.0483 29.1906 30.0447 29.1635C30.0476 29.1116 30.0476 29.0597 30.0447 29.0078C31.4464 25.76 31.6022 19.5016 31.6096 17.3513C32.24 17.2549 32.9001 17.203 33.4712 17.1659C33.6937 19.5758 34.4873 25.7378 36.6975 25.4708C38.9077 25.2039 39.9609 19.7167 40.3466 17.3142C40.7523 17.3897 41.1656 17.4171 41.5778 17.3958H41.9561C41.7632 20.6806 43.5877 27.5841 43.6471 27.7769C43.643 27.8312 43.643 27.8858 43.6471 27.9401C43.6471 28.118 43.5952 28.3034 43.5729 28.5036C43.5729 28.5036 43.5729 28.5852 43.5729 28.6296C43.0982 32.8043 43.877 39.4705 43.877 39.4705Z" fill="#C1063D"/>
</g>
<defs>
<filter id="filter0_d_0_3953" x="0.242188" y="3.82007" width="73.4033" height="101.214" filterUnits="userSpaceOnUse" color-interpolation-filters="sRGB">
<feFlood flood-opacity="0" result="BackgroundImageFix"/>
<feColorMatrix in="SourceAlpha" type="matrix" values="0 0 0 0 0 0 0 0 0 0 0 0 0 0 0 0 0 0 127 0" result="hardAlpha"/>
<feOffset dy="4"/>
<feGaussianBlur stdDeviation="2"/>
<feComposite in2="hardAlpha" operator="out"/>
<feColorMatrix type="matrix" values="0 0 0 0 0 0 0 0 0 0 0 0 0 0 0 0 0 0 0.25 0"/>
<feBlend mode="normal" in2="BackgroundImageFix" result="effect1_dropShadow_0_3953"/>
<feBlend mode="normal" in="SourceGraphic" in2="effect1_dropShadow_0_3953" result="shape"/>
</filter>
</defs>
</svg>
