<svg width="29" height="39" viewBox="0 0 29 39" fill="none" xmlns="http://www.w3.org/2000/svg">
<path d="M0.000976562 1.52734L3.15749 36.7723C3.25402 37.8516 7.92973 38.7784 13.6026 38.858C19.2754 38.9376 23.9727 38.143 24.0959 37.0637L28.1187 1.91725L0.000976562 1.52734Z" fill="#C1063D"/>
<g opacity="0.64">
<path opacity="0.64" d="M25.5568 8.63325C25.5949 8.60357 25.6152 8.57523 25.6152 8.54555C25.6152 8.05582 20.4302 7.58631 14.0219 7.49727C7.61361 7.40823 2.41458 7.73202 2.40568 8.22311C2.40568 8.25279 2.42474 8.28247 2.46157 8.31215H2.37012L5.00202 35.9236C5.08332 36.7709 8.95497 37.4967 13.651 37.5628C18.347 37.629 22.2352 37.0083 22.3381 36.1638L25.6495 8.64134L25.5568 8.63325Z" fill="white"/>
</g>
<path d="M28.0791 1.80612C28.0868 1.18103 21.8174 0.586718 14.076 0.478691C6.33467 0.370664 0.0528257 0.789828 0.0451493 1.41492C0.0374729 2.04001 6.30687 2.63433 14.0482 2.74235C21.7896 2.85038 28.0715 2.43122 28.0791 1.80612Z" fill="#474747"/>
<g opacity="0.51">
<path opacity="0.51" d="M25.6499 8.47412C25.6499 8.91664 20.414 9.20401 13.9638 9.11496C7.51359 9.02592 2.30059 8.59285 2.30567 8.15033C2.31075 7.70781 7.54154 7.4191 13.9917 7.50949C20.4419 7.59988 25.6588 8.03026 25.6499 8.47412Z" fill="white"/>
</g>
<path d="M12.1035 21.4043C12.1737 20.4302 12.2233 19.4557 12.2521 18.4807C12.2686 17.9411 11.4748 17.9006 11.4583 18.4456C11.4321 19.3361 11.3897 20.226 11.3313 21.1156L9.3653 21.0292C9.38308 20.3951 9.40044 19.7619 9.41737 19.1296C9.43134 18.59 8.63758 18.5495 8.62234 19.0946C8.57746 20.7351 8.53513 22.3761 8.49533 24.0176C8.48009 24.5572 9.27386 24.5977 9.2891 24.0526C9.30857 23.3268 9.32805 22.6001 9.34752 21.8724L11.2741 21.9574C11.2056 22.8263 11.1209 23.6929 11.0201 24.5572C10.9579 25.0969 11.7517 25.1279 11.8139 24.5923C11.9231 23.6533 12.0137 22.7125 12.0857 21.7699C12.1114 21.7133 12.1262 21.6518 12.1293 21.589C12.1323 21.5262 12.1236 21.4634 12.1035 21.4043Z" fill="white"/>
<path d="M13.8923 27.6508C13.8288 27.6508 13.3157 27.5968 13.1226 27.5725C13.2295 27.4837 13.3274 27.3833 13.4147 27.273C13.4897 27.1894 13.5697 27.1111 13.6433 27.0248C13.9494 26.6632 14.178 26.2153 14.0574 25.7175C13.8427 24.8297 12.673 24.7731 12.4609 25.6918C12.3339 26.218 13.096 26.4784 13.223 25.9495C13.3614 25.9495 13.3677 26.0372 13.2407 26.2085C13.1739 26.3271 13.0919 26.4352 12.9969 26.5296C12.8851 26.6551 12.7657 26.7738 12.6603 26.9061C12.4686 27.1502 12.2793 27.4538 12.3174 27.7884C12.4025 28.5345 13.3588 28.4387 13.8643 28.494C14.3698 28.5493 14.399 27.7128 13.8923 27.6508Z" fill="white"/>
<path d="M17.4616 19.1134C17.4576 19.0145 17.4171 18.9213 17.3489 18.8539C17.2807 18.7865 17.1902 18.7503 17.0971 18.7532C15.7636 18.7357 15.0879 20.8349 15.0536 21.9817C15.0142 23.2634 15.601 24.8311 17.0044 24.85C18.3823 24.8689 19.2256 23.4941 19.3425 22.1692C19.4441 21.0157 18.6402 19.3226 17.4616 19.1134ZM18.5271 22.3163C18.4001 23.1514 17.8159 24.1255 16.8964 23.996C15.9769 23.8665 15.7991 22.6333 15.855 21.8535C15.8836 21.4627 15.9747 21.08 16.1242 20.7216C16.2373 20.4518 16.4862 19.9121 16.7935 19.6922C16.8326 19.7717 16.8938 19.8364 16.9689 19.8775C17.0439 19.9186 17.129 19.934 17.2126 19.9216C17.6419 19.8663 18.136 20.5961 18.3239 20.9348C18.5454 21.3545 18.6175 21.8448 18.5271 22.3163Z" fill="white"/>
</svg>
