<svg width="100%" height="75" viewBox="0 0 353 75" fill="none" xmlns="http://www.w3.org/2000/svg">
<path d="M-12.8369 14.8243C1.24087 31.618 35.8183 41.9231 90.6584 45.6689C152.619 49.9011 181.399 17.5458 239.425 25.4797C282.07 31.3105 272.015 46.114 304.912 56.3243C332.53 64.8964 351.336 69.027 386.619 74.2703" stroke="white" stroke-width="1.34476"/>
<path d="M-12.8369 1.36485C1.24087 18.1586 35.8183 28.4636 90.6584 32.2094C152.619 36.4416 181.399 4.08636 239.425 12.0203C282.07 17.8511 272.015 32.6545 304.912 42.8648C332.53 51.4369 351.336 55.5676 386.619 60.8108" stroke="white" stroke-width="1.34476"/>
<path d="M-12.8369 5.85136C1.24087 22.6451 35.8183 32.9502 90.6584 36.696C152.619 40.9281 181.399 8.57287 239.425 16.5068C282.07 22.3376 272.015 37.141 304.912 47.3514C332.53 55.9235 351.336 60.0541 386.619 65.2973" stroke="white" stroke-width="1.34476"/>
<path d="M-12.8369 10.3378C1.24087 27.1315 35.8183 37.4366 90.6584 41.1824C152.619 45.4146 181.399 13.0593 239.425 20.9932C282.07 26.824 272.015 41.6274 304.912 51.8378C332.53 60.4099 351.336 64.5405 386.619 69.7838" stroke="white" stroke-width="1.34476"/>
</svg>
