<svg width="18" height="18" viewBox="0 0 18 18" fill="none" xmlns="http://www.w3.org/2000/svg">
<g clip-path="url(#clip0_0_5761)">
<path d="M12.7613 4.93213C12.0127 4.19273 11.0521 3.87024 9.90345 3.97012C7.51016 4.18137 6.06302 7.14617 5.4834 8.63394C5.53047 9.02488 5.57118 9.41684 5.60455 9.80904C5.67317 9.77374 5.72826 9.71254 5.75185 9.63256C5.76078 9.60232 6.32922 7.71809 7.42476 6.25105C7.76247 5.7988 8.28458 5.51797 8.84898 5.52114C9.27918 5.52356 9.75432 5.62172 10.162 5.88103C12.5996 7.43118 13.9448 11.9013 13.9581 11.9461C13.9952 12.0714 14.11 12.1556 14.2382 12.1556C14.2484 12.1556 14.2589 12.155 14.2693 12.1539C14.4096 12.139 14.5192 12.026 14.5297 11.8853C14.5446 11.6875 14.8724 7.01707 12.7613 4.93213Z" fill="#FFC850"/>
<path d="M5.44782 11.5711C5.29116 11.5711 5.16143 11.4469 5.15588 11.2891C5.15247 11.1913 5.07797 8.86602 5.60222 6.33446C6.31037 2.9145 7.79175 0.80073 9.88612 0.221426C11.5882 -0.249456 13.1614 0.0362232 14.316 1.02562C15.6799 2.19422 16.2741 4.18701 15.9891 6.63694C15.9731 6.77479 15.8624 6.88237 15.7243 6.89436C15.5843 6.90807 15.4585 6.81958 15.4188 6.68662C14.4736 3.51356 11.0048 1.37026 8.69211 1.688C8.49773 1.71472 8.31407 1.8018 8.1803 1.94535C5.54935 4.76758 5.73726 11.1914 5.74004 11.2686C5.74559 11.4298 5.61945 11.5654 5.45822 11.5708C5.45467 11.5711 5.45123 11.5711 5.44782 11.5711Z" fill="#FFC850"/>
<path d="M3.79062 0.524466C3.41413 1.78661 2.74532 4.8535 3.40229 9.23323L4.57119 14.7855L5.7401 11.8633C4.3194 7.6012 4.06501 2.37987 4.01959 0.552028C4.01625 0.41847 3.82884 0.396427 3.79062 0.524466Z" fill="#D4F582"/>
<path d="M7.18785 9.17847C5.16341 9.59232 4.86353 14.2011 4.86353 14.2011L6.03244 17.7077C6.03244 17.7077 6.84827 10.9939 7.71143 10.8405C8.55996 10.6896 12.1827 13.4882 13.7746 14.759C13.883 14.8456 14.0255 14.7051 13.9398 14.5959C12.5681 12.8487 9.13427 8.78057 7.18785 9.17847Z" fill="#AFD755"/>
<path d="M1.94168 4.01765C1.93054 6.17621 2.13975 11.8195 4.32735 17.6221C4.4131 17.8495 4.63342 18 4.87646 18H6.20392C6.41184 18 6.55176 17.7899 6.47262 17.5977C4.21471 12.1112 2.69993 6.19424 2.17185 3.99009C2.13965 3.85554 1.94242 3.87931 1.94168 4.01765Z" fill="#BEE86E"/>
<path d="M15.9111 6.80115C15.8099 3.76885 14.7505 1.23363 12.4979 0.68572C10.6728 0.241802 9.00341 1.09972 8.29688 1.84377C8.41261 1.76045 8.54926 1.70761 8.69217 1.68795C11.0048 1.37021 14.4737 3.51351 15.4189 6.68658C15.4585 6.81958 15.5844 6.90803 15.7244 6.89432C15.7985 6.88792 15.8632 6.85259 15.9111 6.80115Z" fill="#FFDC64"/>
<path d="M10.5068 4.53944C9.22444 4.51377 8.35162 5.10563 7.62402 6.02746C7.95171 5.70951 8.38473 5.51847 8.84813 5.52107C9.27833 5.5235 9.75347 5.62165 10.1612 5.88097C12.5987 7.43111 13.9439 11.9012 13.9572 11.9461C13.9943 12.0713 14.1092 12.1555 14.2373 12.1555C14.2476 12.1555 14.258 12.1549 14.2684 12.1538C14.3671 12.1433 14.4484 12.0829 14.4929 11.9999C14.3605 5.26998 11.42 4.55768 10.5068 4.53944Z" fill="#FFDC64"/>
</g>
<defs>
<clipPath id="clip0_0_5761">
<rect width="18" height="18" fill="white"/>
</clipPath>
</defs>
</svg>
