<svg width="19" height="19" viewBox="0 0 19 19" fill="none" xmlns="http://www.w3.org/2000/svg">
<path fill-rule="evenodd" clip-rule="evenodd" d="M12.3072 2.48992C12.7673 2.48992 13.2267 2.55482 13.6635 2.70138C16.3548 3.57638 17.3246 6.52951 16.5145 9.11076C16.0551 10.4298 15.3041 11.6337 14.3205 12.6173C12.9124 13.9809 11.3673 15.1913 9.7041 16.234L9.52181 16.3441L9.33222 16.2267C7.66316 15.1913 6.10931 13.9809 4.68816 12.61C3.71108 11.6264 2.95931 10.4298 2.49264 9.11076C1.66868 6.52951 2.63847 3.57638 5.35899 2.68607C5.57045 2.61315 5.78847 2.56211 6.00722 2.53367H6.09472C6.29962 2.50378 6.50306 2.48992 6.70722 2.48992H6.78743C7.24681 2.50378 7.6916 2.58399 8.12253 2.73055H8.16556C8.19472 2.7444 8.2166 2.75972 8.23118 2.77357C8.39233 2.82534 8.54472 2.88367 8.69056 2.96388L8.96764 3.08784C9.03459 3.12355 9.10974 3.17811 9.17469 3.22527C9.21584 3.25514 9.2529 3.28205 9.28118 3.2993C9.29308 3.30632 9.30518 3.31338 9.31737 3.3205C9.37989 3.35699 9.44502 3.39501 9.49993 3.43711C10.31 2.81805 11.2937 2.48263 12.3072 2.48992ZM14.2469 7.73988C14.5458 7.73186 14.801 7.49197 14.8229 7.18499V7.09822C14.8448 6.07665 14.2257 5.15134 13.2844 4.79405C12.9854 4.69124 12.6573 4.85238 12.5479 5.15863C12.4458 5.46488 12.6062 5.8003 12.9125 5.90894C13.3799 6.08394 13.6927 6.54405 13.6927 7.05374V7.07634C13.6788 7.24332 13.7292 7.40447 13.8312 7.52842C13.9333 7.65238 14.0864 7.72457 14.2469 7.73988Z" fill="#FF0000"/>
</svg>
