<svg width="24" height="24" viewBox="0 0 24 24" fill="none" xmlns="http://www.w3.org/2000/svg">
<path fill-rule="evenodd" clip-rule="evenodd" d="M10.6662 6.01806L12 7.21187L13.3338 6.01806C14.0428 5.38348 14.9742 5 16 5C18.2091 5 20 6.7909 20 9.00004C20 9.70983 19.925 10.3755 19.788 11H17.1593L15.9191 8.10608C15.7615 7.7384 15.4 7.5 14.9999 7.5C14.5999 7.5 14.2384 7.7384 14.0808 8.10608L11.9999 12.9614L11.4191 11.6061C11.2615 11.2384 10.9 11 10.4999 11H4.21198C4.07502 10.3755 4 9.70981 4 9C4 6.79086 5.79086 5 8 5C9.02575 5 9.95717 5.38348 10.6662 6.01806ZM2.73075 13C4.52952 17.651 9.16667 20.0126 11.116 20.8254C11.6855 21.0628 12.3145 21.0628 12.884 20.8254C15.3285 19.8061 22 16.3512 22 9.00005C22 5.68634 19.3137 3 16 3C14.4633 3 13.0615 3.57771 12 4.52779C10.9385 3.57771 9.53671 3 8 3C4.68629 3 2 5.68629 2 9C2 9.70175 2.0608 10.368 2.17291 11H2.17285C2.29865 11.7092 2.48906 12.3752 2.73069 13H2.73075ZM4.91282 13H9.84055L11.0808 15.8939C11.2384 16.2616 11.5999 16.5 11.9999 16.5C12.4 16.5 12.7615 16.2616 12.9191 15.8939L14.9999 11.0386L15.5808 12.3939C15.7384 12.7616 16.0999 13 16.4999 13H19.0872C18.5432 14.1049 17.7979 15.0466 16.9678 15.8501C15.2456 17.5169 13.2202 18.5183 12.1143 18.9794C12.0374 19.0114 11.9626 19.0114 11.8857 18.9794C10.7798 18.5183 8.75438 17.5169 7.03224 15.8501C6.20207 15.0466 5.45677 14.105 4.91282 13Z" fill="white"/>
</svg>
