<svg width="113" height="182" viewBox="0 0 113 182" fill="none" xmlns="http://www.w3.org/2000/svg">
<g clip-path="url(#clip0_0_3124)">
<path d="M41.9267 170.746C52.4217 170.746 60.9295 169.527 60.9295 168.023C60.9295 166.519 52.4217 165.3 41.9267 165.3C31.4317 165.3 22.9238 166.519 22.9238 168.023C22.9238 169.527 31.4317 170.746 41.9267 170.746Z" fill="#5B5B5B"/>
<path d="M61.3516 169.488C43.9605 169.488 29.8623 172.289 29.8623 175.745C29.8623 179.202 43.9605 182 61.3516 182C78.7427 182 92.841 179.199 92.841 175.745C92.841 172.292 78.7427 169.488 61.3516 169.488Z" fill="#5B5B5B"/>
<path d="M41.1295 81.1042C40.5124 81.7286 40.0026 82.449 39.6204 83.2371C39.56 83.5157 40.0369 84.9715 40.6888 84.9775C41.1325 84.9775 40.6526 83.282 40.6526 83.282C40.6526 83.282 41.4404 82.1107 41.8418 81.9041C41.571 81.6687 41.3316 81.3999 41.1295 81.1042Z" fill="#F9AA69"/>
<path d="M40.4687 80.7148C39.7564 81.0384 38.3348 82.2396 38.1809 82.5122C38.027 82.7848 37.3901 85.2231 38.528 85.4358C39.0169 85.5257 39.023 83.0124 39.023 83.0124C39.023 83.0124 40.4838 81.8771 40.9788 81.7843C40.7637 81.4507 40.5923 81.0914 40.4687 80.7148Z" fill="#F9AA69"/>
<path d="M38.884 80.8706C38.4675 81.1013 37.6285 81.302 37.1425 81.7693C35.7571 83.1203 34.1937 84.9835 35.2108 84.9086C35.8899 84.8607 37.3659 83.3239 38.5309 82.2755C39.4364 81.4607 40.1185 81.1102 40.2634 80.8946C39.4756 80.622 38.5792 80.8586 38.884 80.8706Z" fill="#F9AA69"/>
<path d="M34.5321 82.599C33.9526 82.8836 33.3459 84.1417 34.7886 83.6025C36.2977 83.0333 38.1087 81.889 38.5705 81.7243C38.6323 81.7131 38.6957 81.7131 38.7576 81.7243C38.9071 81.2328 38.9933 80.7245 39.0142 80.2115C38.6739 80.254 38.3403 80.3385 38.0212 80.4632C37.6107 80.6339 36.5996 81.5865 34.5321 82.599Z" fill="#F7C285"/>
<path d="M41.5944 81.7961C18.6558 81.7961 0 101.267 0 125.193C0 149.118 18.6588 168.589 41.5944 168.589C64.53 168.589 83.1888 149.118 83.1888 125.193C83.1888 101.267 64.53 81.7961 41.5944 81.7961ZM41.5944 166.492C19.8238 166.492 2.11277 147.965 2.11277 125.193C2.11277 102.42 19.8268 83.893 41.5944 83.893C63.362 83.893 81.076 102.42 81.076 125.193C81.076 147.965 63.365 166.492 41.5944 166.492Z" fill="#00FFFF"/>
<path d="M64.2913 34.1162C62.9542 33.9365 60.0144 33.1996 59.3776 36.4887C58.2125 42.5037 61.6533 66.2584 60.8263 66.9953C59.9993 67.7322 47.6789 78.7647 46.6406 79.226C43.6224 80.5441 39.8465 79.6933 38.0356 80.4602L37.9541 80.5021C38.1986 80.9185 38.5245 81.3319 38.5276 81.7483L38.5849 81.7243C38.9562 81.5955 42.071 82.6709 42.2068 82.7338C42.5901 84.1058 40.0729 84.5641 39.5387 85.1452C38.7811 85.972 39.43 86.2446 40.4623 85.957C41.3677 85.7024 42.3215 84.9026 43.2511 84.5431C43.7733 84.3394 44.063 84.4862 44.9051 84.0309C46.2875 83.2221 46.6165 82.5631 48.3097 81.5895C48.7292 81.3469 65.7099 70.9763 66.5127 69.1011C67.3156 67.2259 65.9724 48.5817 66.6727 46.1733C69.5551 40.1313 66.2501 34.3828 64.2913 34.1162Z" fill="#F7C285"/>
<path d="M81.9003 61.6213C82.1146 58.1764 62.4779 54.6177 62.816 60.3272C63.0061 63.5863 62.7103 69.0143 62.3994 73.9659C62.0493 79.5256 61.5543 84.8786 61.2917 87.1642C57.886 97.178 54.9948 107.357 52.6294 117.662C51.1837 123.988 47.77 128.709 44.625 139.829C43.3785 144.235 42.977 148.555 42.1893 151.676C40.5504 158.194 38.9356 156.607 38.3803 169.979C38.335 171.093 37.2635 173.771 37.2696 174.472C37.2907 176.617 39.2374 176.869 42.1893 176.869C46.0768 176.869 45.6754 174.961 45.4098 170.183C45.0778 164.192 46.2398 164.036 46.5205 160.798C46.6653 159.123 45.7659 157.676 45.9651 156.927C48.5668 147.153 52.4241 141.081 55.5148 134.994C56.6437 132.774 56.9908 130.234 57.8479 128.071C58.7534 125.789 60.1569 123.914 60.7364 122.793C69.5074 105.767 75.4201 88.6051 75.4201 88.6051L75.9333 88.5602C78.7432 98.3256 78.7976 112.569 80.1739 122.248C80.7353 126.214 81.5019 127.367 81.5019 133.469C81.5019 140.539 82.0573 144.747 82.0542 152.587C82.0542 155.717 79.8117 165.192 78.6436 168.73C77.2552 172.947 74.7592 176.219 78.2814 176.728C79.2805 176.869 84.9668 177.177 85.0544 174.931C85.1751 171.713 85.2264 169.386 85.658 165.486C85.7908 164.287 87.1671 161.891 87.2185 160.57C87.2758 158.356 86.1047 155.72 86.3884 153.764C87.4992 146.107 89.3765 139.943 89.633 137.097C90.8162 123.961 87.2637 123.713 88.3895 116.5C88.6068 115.116 90.0948 104.967 90.5023 97.37C92.0748 67.9538 80.9888 76.2814 81.9003 61.6213Z" fill="#263238"/>
<path d="M45.1434 166.597C45.1274 166.657 45.1154 166.716 45.1074 166.776L45.1434 166.597Z" fill="#725C77"/>
<path d="M39.388 160.07C38.6274 161.729 38.3498 169.694 37.6948 171.848C36.3879 173.624 36.7712 176.341 39.1767 176.896C40.7855 177.261 43.8098 177.612 45.0684 176.296C46.4115 174.883 45.7294 171.92 45.6328 170.213C45.5241 168.274 45.5151 166.318 45.9859 164.413C46.5111 162.292 47.2807 159.833 45.9406 157.152C45.5965 160.986 41.3046 161.211 39.388 160.07Z" fill="#99859E"/>
<path d="M37.6494 171.92C36.4028 173.696 36.8013 176.353 39.1766 176.896C40.7853 177.261 43.8096 177.612 45.0682 176.296C45.7322 175.596 45.9013 174.499 45.8892 173.394C43.3042 172.245 40.4759 171.739 37.6494 171.92Z" fill="#AB9AAF"/>
<path d="M37.4199 175.724C37.7006 176.267 38.2439 176.683 39.1765 176.896C40.7853 177.261 43.8095 177.612 45.0681 176.296C45.6235 175.697 45.8318 174.862 45.8801 173.945C44.5037 177.228 39.4452 175.88 37.4199 175.724Z" fill="#725C77"/>
<path d="M43.0074 170.488C42.8787 170.489 42.7522 170.521 42.639 170.581C42.5258 170.642 42.4295 170.729 42.3584 170.836C41.4425 170.665 40.5093 170.603 39.5786 170.653C39.5216 170.506 39.4215 170.38 39.2912 170.291C39.1609 170.202 39.0065 170.153 38.8482 170.153C38.7448 170.153 38.6425 170.174 38.5472 170.214C38.4519 170.254 38.3656 170.313 38.293 170.386C38.2204 170.459 38.163 170.546 38.1242 170.641C38.0853 170.736 38.0657 170.838 38.0665 170.94C38.0649 171.043 38.0837 171.145 38.1218 171.241C38.1599 171.336 38.2166 171.423 38.2887 171.497C38.3607 171.571 38.4467 171.629 38.5416 171.67C38.6366 171.711 38.7387 171.733 38.8422 171.734C38.9959 171.734 39.1462 171.689 39.2745 171.605C39.4027 171.521 39.5032 171.401 39.5636 171.261C40.4575 171.212 41.3542 171.268 42.2347 171.429C42.2671 171.608 42.3614 171.769 42.5014 171.887C42.6414 172.004 42.8183 172.068 43.0013 172.07C43.105 172.069 43.2076 172.049 43.3033 172.009C43.3989 171.969 43.4856 171.911 43.5586 171.838C43.6315 171.764 43.6891 171.678 43.7281 171.582C43.7672 171.487 43.7869 171.385 43.7861 171.282C43.7877 171.179 43.7688 171.077 43.7305 170.981C43.6922 170.885 43.6352 170.798 43.5628 170.724C43.4905 170.651 43.4042 170.592 43.3089 170.551C43.2135 170.511 43.1111 170.489 43.0074 170.488Z" fill="#725C77"/>
<path d="M43.1822 167.52C43.0534 167.52 42.9267 167.551 42.8134 167.612C42.7002 167.673 42.6039 167.76 42.5332 167.867C41.6163 167.696 40.6821 167.635 39.7504 167.684C39.694 167.538 39.5943 167.412 39.4646 167.323C39.3348 167.233 39.1809 167.185 39.023 167.184C38.8138 167.186 38.6138 167.269 38.4667 167.417C38.3196 167.565 38.2375 167.764 38.2383 167.972C38.2375 168.18 38.3196 168.379 38.4667 168.527C38.6138 168.674 38.8138 168.758 39.023 168.76C39.1763 168.759 39.3262 168.714 39.4539 168.63C39.5816 168.546 39.6816 168.427 39.7414 168.286C40.6353 168.237 41.532 168.293 42.4125 168.454C42.4455 168.633 42.5405 168.795 42.681 168.912C42.8215 169.029 42.9987 169.094 43.1822 169.095C43.3914 169.094 43.5914 169.01 43.7385 168.862C43.8856 168.715 43.9677 168.515 43.9669 168.307C43.9677 168.1 43.8856 167.9 43.7385 167.753C43.5914 167.605 43.3914 167.521 43.1822 167.52Z" fill="#725C77"/>
<path d="M43.5865 164.422C43.4577 164.422 43.331 164.454 43.2177 164.514C43.1045 164.575 43.0082 164.663 42.9375 164.77C42.0206 164.599 41.0864 164.537 40.1547 164.587C40.0983 164.441 39.9986 164.315 39.8689 164.225C39.7391 164.136 39.5852 164.088 39.4273 164.087C39.2181 164.088 39.0181 164.172 38.871 164.32C38.7239 164.467 38.6418 164.667 38.6426 164.874C38.6418 165.082 38.7239 165.282 38.871 165.429C39.0181 165.577 39.2181 165.661 39.4273 165.662C39.5806 165.662 39.7305 165.617 39.8582 165.533C39.9859 165.449 40.0859 165.329 40.1457 165.189C41.0396 165.14 41.9363 165.196 42.8168 165.357C42.8498 165.536 42.9448 165.698 43.0853 165.815C43.2258 165.932 43.403 165.997 43.5865 165.998C43.7957 165.996 43.9957 165.912 44.1428 165.765C44.2899 165.617 44.372 165.418 44.3712 165.21C44.372 165.002 44.2899 164.803 44.1428 164.655C43.9957 164.508 43.7957 164.424 43.5865 164.422Z" fill="#725C77"/>
<path d="M44.0064 161.439C43.8773 161.439 43.7503 161.471 43.6366 161.531C43.5228 161.592 43.426 161.679 43.3545 161.786C42.4384 161.616 41.5052 161.556 40.5747 161.606C40.5187 161.46 40.4193 161.333 40.2894 161.243C40.1596 161.153 40.0055 161.104 39.8473 161.103C39.7434 161.104 39.6407 161.125 39.5451 161.165C39.4495 161.205 39.3627 161.264 39.2899 161.337C39.217 161.411 39.1594 161.498 39.1204 161.593C39.0814 161.689 39.0617 161.791 39.0625 161.894C39.0617 161.997 39.0814 162.099 39.1205 162.194C39.1595 162.29 39.2171 162.376 39.29 162.45C39.363 162.523 39.4497 162.581 39.5453 162.621C39.6409 162.661 39.7436 162.681 39.8473 162.682C40.0007 162.68 40.1505 162.635 40.2781 162.55C40.4057 162.465 40.5056 162.346 40.5656 162.206C41.4595 162.156 42.3562 162.212 43.2367 162.373C43.2692 162.553 43.364 162.715 43.5046 162.832C43.6453 162.949 43.8228 163.014 44.0064 163.014C44.1098 163.014 44.2121 162.993 44.3074 162.953C44.4027 162.912 44.4891 162.854 44.5617 162.781C44.6343 162.708 44.6916 162.621 44.7305 162.526C44.7693 162.431 44.7889 162.329 44.7881 162.226C44.7889 162.124 44.7693 162.022 44.7305 161.927C44.6916 161.832 44.6343 161.745 44.5617 161.672C44.4891 161.599 44.4027 161.54 44.3074 161.5C44.2121 161.46 44.1098 161.439 44.0064 161.439Z" fill="#725C77"/>
<path d="M85.8174 167.142C85.7994 167.196 85.7844 167.249 85.7725 167.3L85.8174 167.142Z" fill="#725C77"/>
<path d="M80.7233 159.794C80.1951 161.606 78.1518 169.883 77.3308 171.983C75.9273 173.37 75.5199 176.177 77.862 176.899C79.4345 177.387 83.1892 177.558 84.5474 176.33C85.9962 175.02 85.5434 172.016 85.5797 170.305C85.6361 168.303 86.1088 166.334 86.9681 164.521C88.1754 162.032 88.779 160.402 86.7658 157.332C86.129 161.145 82.5463 161.076 80.7233 159.794Z" fill="#99859E"/>
<path d="M77.1188 172.217C75.8904 173.66 75.6278 176.207 77.8613 176.899C79.4338 177.387 83.1885 177.558 84.5467 176.329C85.1956 175.73 85.4522 174.814 85.5609 173.813C83.0346 172.468 79.9831 172.112 77.1188 172.217Z" fill="#AB9AAF"/>
<path d="M76.1865 174.805C76.1593 175.646 76.7418 176.551 77.8616 176.902C79.4341 177.39 83.1888 177.561 84.547 176.332C84.8992 175.998 85.1581 175.579 85.2985 175.116C82.3225 175.997 78.7429 176.374 76.1865 174.805Z" fill="#725C77"/>
<path d="M81.831 170.488C81.7023 170.488 81.5756 170.52 81.4623 170.58C81.349 170.641 81.2527 170.729 81.1821 170.836C80.2651 170.665 79.3309 170.603 78.3993 170.653C78.3575 170.546 78.2926 170.45 78.2092 170.37C78.1257 170.291 78.0258 170.231 77.9163 170.195C77.7383 170.794 77.5753 171.303 77.4395 171.692C77.5143 171.718 77.5928 171.731 77.6719 171.731C77.824 171.729 77.9721 171.683 78.0981 171.598C78.2241 171.514 78.3224 171.394 78.3811 171.255C79.2751 171.206 80.1718 171.262 81.0523 171.423C81.0853 171.602 81.1803 171.764 81.3208 171.881C81.4613 171.998 81.6385 172.063 81.8219 172.064C82.0311 172.062 82.2312 171.978 82.3783 171.831C82.5254 171.683 82.6075 171.484 82.6067 171.276C82.6075 171.07 82.5266 170.872 82.3815 170.724C82.2364 170.577 82.0386 170.492 81.831 170.488Z" fill="#725C77"/>
<path d="M83.4242 164.764C83.2956 164.764 83.1691 164.796 83.0559 164.857C82.9427 164.917 82.8463 165.005 82.7753 165.111C81.8591 164.943 80.926 164.882 79.9955 164.931C79.9523 164.82 79.8838 164.72 79.7953 164.639C79.7069 164.558 79.6009 164.498 79.4854 164.464C79.3526 164.961 79.2198 165.471 79.084 165.983C79.1441 165.999 79.206 166.007 79.2681 166.007C79.4216 166.006 79.5713 165.96 79.6989 165.875C79.8265 165.791 79.9265 165.671 79.9864 165.531C80.8804 165.481 81.7771 165.538 82.6576 165.698C82.6894 165.877 82.7836 166.04 82.9237 166.157C83.0639 166.274 83.241 166.339 83.4242 166.339C83.5279 166.339 83.6305 166.318 83.7262 166.278C83.8218 166.239 83.9085 166.18 83.9814 166.107C84.0544 166.034 84.112 165.947 84.151 165.852C84.1901 165.756 84.2098 165.654 84.209 165.551C84.2098 165.449 84.1901 165.347 84.151 165.251C84.112 165.156 84.0544 165.069 83.9814 164.996C83.9085 164.923 83.8218 164.864 83.7262 164.825C83.6305 164.785 83.5279 164.764 83.4242 164.764Z" fill="#725C77"/>
<path d="M82.5877 167.636C82.4591 167.637 82.3326 167.669 82.2194 167.729C82.1062 167.79 82.0098 167.877 81.9388 167.984C81.023 167.812 80.0895 167.752 79.159 167.804C79.1193 167.703 79.0592 167.612 78.9823 167.535C78.9055 167.458 78.8136 167.398 78.7123 167.358C78.5735 167.879 78.4316 168.385 78.2988 168.856C78.3414 168.865 78.3849 168.87 78.4286 168.871C78.5826 168.87 78.733 168.824 78.8612 168.74C78.9894 168.655 79.0898 168.535 79.15 168.394C80.0429 168.345 80.9386 168.401 81.8181 168.562C81.8517 168.741 81.9468 168.903 82.0872 169.019C82.2275 169.136 82.4045 169.201 82.5877 169.203C82.797 169.201 82.997 169.118 83.1441 168.97C83.2912 168.822 83.3733 168.623 83.3725 168.415C83.3709 168.209 83.2877 168.012 83.1409 167.866C82.9941 167.72 82.7954 167.638 82.5877 167.636Z" fill="#725C77"/>
<path d="M84.3173 161.439C84.1887 161.439 84.0622 161.471 83.949 161.532C83.8358 161.592 83.7394 161.68 83.6684 161.786C82.7524 161.616 81.8191 161.556 80.8886 161.606C80.8441 161.491 80.7727 161.389 80.6804 161.306C80.588 161.224 80.4773 161.165 80.3574 161.133C80.2397 161.579 80.1069 162.092 79.959 162.652C80.0236 162.671 80.0907 162.681 80.1582 162.682C80.3118 162.681 80.4619 162.636 80.5897 162.551C80.7174 162.466 80.8172 162.346 80.8765 162.205C81.7705 162.156 82.6672 162.212 83.5477 162.373C83.5807 162.552 83.6756 162.714 83.8162 162.831C83.9567 162.948 84.1339 163.013 84.3173 163.014C84.5265 163.013 84.7266 162.929 84.8737 162.781C85.0207 162.634 85.1029 162.434 85.1021 162.226C85.1029 162.019 85.0207 161.819 84.8737 161.672C84.7266 161.524 84.5265 161.44 84.3173 161.439Z" fill="#725C77"/>
<path d="M101.398 49.705C97.7764 43.3605 100.617 38.322 103.475 32.3638C107.74 23.4671 108.877 15.0406 101.444 7.21927C96.391 1.90219 80.8501 -3.86423 74.9645 3.47784L72.6797 18.2279C74.3246 26.0313 69.3385 65.3178 102.337 60.8634C101.115 60.8005 100.085 60.429 99.0018 60.0875C102.095 60.2328 105.148 59.3535 107.682 57.5878C110.217 55.8221 112.087 53.2704 113 50.3341C110.691 56.1993 103.768 53.8568 101.398 49.705Z" fill="black"/>
<path d="M92.3158 8.20174C87.1154 3.77134 79.1804 3.87918 76.2045 10.709C72.5162 19.1714 76.6029 29.2394 80.1282 36.899C82.4462 41.9465 83.2521 61.2348 103.003 57.3256C81.8818 46.0174 109.188 22.5803 92.3158 8.20174Z" fill="#CC2323"/>
<path d="M92.3158 8.20174C87.1154 3.77134 79.1804 3.87918 76.2045 10.709C72.5162 19.1714 76.6029 29.2394 80.1282 36.899C82.4462 41.9465 83.2521 61.2348 103.003 57.3256C81.8818 46.0174 109.188 22.5803 92.3158 8.20174Z" fill="black"/>
<path d="M89.521 10.3766C84.9574 6.48237 77.9974 6.58422 75.3866 12.5753C72.151 19.9983 75.7367 28.8321 78.8213 35.5511C80.8556 39.9785 81.5619 56.9003 98.8896 53.4674C80.3667 43.5492 104.338 22.9878 89.521 10.3766Z" fill="#101010"/>
<path d="M100.864 13.3511C100.303 11.8074 99.5434 10.3424 98.6033 8.99257C96.9239 6.57033 94.6514 4.61177 91.9994 3.30104C90.1085 2.36817 88.0199 1.89873 85.9086 1.93208C84.3814 1.97701 83.5393 2.30053 83.5332 2.45031C83.5272 2.60009 84.3361 2.5911 85.7305 2.70493C87.663 2.85351 89.5485 3.37017 91.2841 4.22666C93.7464 5.46552 95.8734 7.27245 97.4866 9.49582C98.4074 10.7481 99.1631 12.1122 99.7352 13.5548C100.354 15.0493 100.824 16.6004 101.139 18.1859C101.775 21.3731 101.537 24.6832 100.876 27.6937C100.236 30.4491 99.4462 33.1681 98.5098 35.8386C97.6496 38.1691 97.0006 40.1971 97.0006 41.6769C96.9659 42.443 97.0442 43.2099 97.233 43.9535C97.0848 43.2142 97.0431 42.4578 97.1093 41.7069C97.1908 40.26 97.8971 38.3249 98.8538 36.0423C99.9108 33.413 100.818 30.7268 101.57 27.9963C102.355 25.0007 102.756 21.5678 102.207 18.2158C101.929 16.5528 101.479 14.9226 100.864 13.3511Z" fill="#101010"/>
<path d="M81.7012 2.55522C79.4949 1.70748 77.1436 2.45337 76.4555 4.22373C75.7673 5.9941 76.9988 8.11793 79.2081 8.95968C81.4175 9.80143 83.7657 9.05853 84.4538 7.29117C85.142 5.5238 83.9045 3.39996 81.7012 2.55522Z" fill="white"/>
<path d="M77.6387 3.23821L80.3551 23.539C88.9209 16.2209 84.2848 2.55822 77.6387 3.23821Z" fill="#CC2323"/>
<path d="M62.6318 63.9518V68.544L82.2685 67.2978L82.0874 63.2778L62.6318 63.9518Z" fill="black"/>
<path d="M81.2002 64.4581C82.4648 64.4581 80.2132 63.9937 79.848 63.9758C78.1185 63.8859 76.2261 64.0926 74.4816 64.1795C71.7229 64.3143 68.8646 64.3053 66.1331 64.6228C68.7107 64.0237 71.75 64.2004 74.4393 64.0596C75.6466 63.9937 76.878 63.9368 78.0974 63.9218C78.3841 63.9218 81.3118 63.9608 81.2183 63.814C81.007 63.4905 77.4726 63.7152 76.8871 63.7331C75.378 63.7811 73.896 63.8709 72.402 63.9308C70.7329 63.9997 69.0517 63.9997 67.3917 64.1735C66.9027 64.2244 63.4378 64.7277 63.631 65.141C63.7728 65.4406 65.9852 64.8804 66.3051 64.8415C67.274 64.7187 68.2579 64.6647 69.2359 64.6258C67.3599 64.9328 65.5036 65.3478 63.6762 65.8689C63.2326 65.9948 64.138 66.0367 64.1169 66.0367C64.7315 65.969 65.342 65.869 65.946 65.7371C67.4279 65.5065 68.934 65.3357 70.4462 65.2219C71.9583 65.1081 73.4916 65.0751 75.0188 65.0272C76.2955 64.9883 77.5813 64.8774 78.849 64.9373C75.716 65.0182 72.5589 65.0781 69.4501 65.4526C69.0065 65.5065 68.5658 65.5694 68.1282 65.6383C67.8837 65.6563 67.6362 65.6772 67.3917 65.7042C66.9027 65.7551 63.4378 66.2584 63.631 66.6718C63.7728 66.9713 65.9852 66.4111 66.3051 66.3722C67.274 66.2494 68.2579 66.1955 69.2359 66.1565C67.3599 66.4635 65.5036 66.8786 63.6762 67.3997C63.2326 67.5255 64.138 67.5674 64.1169 67.5674C64.7315 67.4997 65.342 67.3997 65.946 67.2679C67.4279 67.0372 68.934 66.8665 70.4462 66.7526C71.9583 66.6388 73.4916 66.6059 75.0188 66.5579C76.2955 66.519 77.5813 66.4081 78.849 66.4681C75.716 66.5489 72.5589 66.6088 69.4501 66.9833C68.1704 67.1391 66.9178 67.3637 65.6713 67.6004C63.8121 67.9479 65.2518 67.9898 66.2478 67.7891C69.266 67.19 72.411 67.2139 75.5138 67.0402C76.9759 66.9118 78.4441 66.8668 79.9114 66.9054C79.9114 66.9054 81.4024 67.0312 81.1036 66.8066C80.8591 66.6268 79.7514 66.6718 79.3832 66.6688C79.7846 66.6688 82.0996 66.5789 80.4396 66.3692C78.9579 66.2257 77.4666 66.2067 75.9816 66.3123C73.0781 66.4321 70.1926 66.4651 67.3162 66.8275C70.2198 66.1535 73.066 66.1655 76.1205 66.1535C77.8258 66.1535 79.4918 66.0067 81.2002 65.9948C82.4648 65.9948 80.2132 65.5305 79.848 65.5125C78.1185 65.4226 76.2261 65.6293 74.4816 65.7162C72.3024 65.824 70.0628 65.839 67.8716 65.9978C69.2811 65.812 70.7148 65.7282 72.1545 65.6653C72.9302 65.6503 73.6968 65.6353 74.4393 65.5964C75.6466 65.5305 76.878 65.4735 78.0974 65.4586C78.3841 65.4586 81.3118 65.4975 81.2183 65.3507C81.1873 65.3182 81.1474 65.2953 81.1036 65.2848C80.8591 65.1051 79.7514 65.15 79.3832 65.147C79.7846 65.147 82.0996 65.0572 80.4396 64.8475C78.9579 64.704 77.4666 64.6849 75.9816 64.7906C73.0781 64.9104 70.1926 64.9433 67.3162 65.3088C70.2198 64.6318 73.066 64.6438 76.1205 64.6318C77.8258 64.6138 79.4918 64.47 81.2002 64.4581ZM80.0623 64.2454C79.2806 64.2454 78.5019 64.2454 77.7201 64.2454C78.4987 64.1644 79.2837 64.1644 80.0623 64.2454ZM71.1373 67.0402C72.1153 66.9473 73.0992 66.8844 74.0832 66.8365C75.3146 66.7796 76.5641 66.7436 77.7835 66.7107C75.5591 66.8155 73.3437 66.9623 71.1373 67.0402ZM80.0713 65.7761C79.2896 65.7761 78.5109 65.7761 77.7292 65.7761C78.5048 65.6958 79.2867 65.6958 80.0623 65.7761H80.0713ZM71.4844 65.4945H71.1826C72.1454 65.4046 73.1143 65.3447 74.0832 65.2968C75.3146 65.2399 76.5641 65.2039 77.7835 65.171C75.6647 65.2788 73.5761 65.4166 71.4754 65.4945H71.4844Z" fill="black"/>
<path d="M91.8332 36.935C89.4518 35.0598 85.996 36.7043 84.3661 37.7198C84.3661 37.7198 77.225 53.1738 84.4597 55.2527C84.7011 54.8363 89.0655 46.979 89.9076 46.9191C90.7497 46.8592 104.368 57.4694 105.663 60.0785C104.92 61.2138 91.2356 73.3907 89.0806 72.504C87.4719 71.842 85.6911 68.514 82.3831 66.7256C82.1236 66.5849 77.7652 66.3153 78.4986 66.9952C79.2321 67.6752 81.2935 67.2948 81.8368 67.5584C82.3801 67.822 83.192 68.8465 84.0643 69.4516C83.0803 69.2838 81.861 68.9663 80.8257 69.0861C79.0631 69.7212 77.8075 69.9638 77.7139 70.2484C77.6505 70.4461 77.9493 70.6348 77.9493 70.6348C77.9493 70.6348 77.4875 71.0662 78.1666 71.2339C78.8457 71.4017 80.6899 70.9673 81.87 71.1411C82.4737 71.4406 84.182 72.1116 84.6709 72.6149C83.7496 72.4796 82.8097 72.543 81.9153 72.8006C80.1557 73.3338 79.3015 74.2984 80.5963 74.1096C81.5712 73.9719 81.5652 73.7082 82.2926 73.5944C83.02 73.4806 83.9134 73.8191 84.4053 74.0737C87.1519 75.5265 88.7758 75.8471 90.9821 74.7806C93.1884 73.7142 108.747 66.2344 111.769 59.737C111.524 58.5538 97.3959 41.2965 91.8332 36.935Z" fill="#F7C285"/>
<path d="M81.1849 69.826C80.5802 69.9017 79.9847 70.0372 79.4072 70.2304C78.9333 70.3592 78.6104 70.4221 78.6104 70.4251C78.6104 70.4281 78.9363 70.3982 79.4192 70.3173C79.9966 70.1896 80.5828 70.1045 81.1728 70.0627C82.4405 70.0866 83.687 70.5629 83.7444 70.3862C83.8138 70.2724 82.5492 69.7811 81.1849 69.826Z" fill="#E28D47"/>
<path d="M90.9186 74.2954C88.7123 75.3618 87.0885 75.0413 84.3419 73.5885C83.8559 73.3339 82.9655 72.9894 82.2291 73.1092C81.4926 73.229 81.5077 73.4896 80.5359 73.6244C80.4132 73.6441 80.2887 73.6501 80.1646 73.6424C79.8205 73.942 79.899 74.1846 80.5902 74.0887C81.5651 73.9509 81.559 73.6873 82.2864 73.5735C83.0138 73.4597 83.9072 73.7982 84.3992 74.0528C87.1458 75.5056 88.7696 75.8261 90.976 74.7597C93.1823 73.6933 108.741 66.2135 111.763 59.7161C111.729 59.6166 111.679 59.5234 111.615 59.4406C108.385 65.8959 93.1038 73.238 90.9186 74.2954Z" fill="#E28D47"/>
<path d="M86.6023 45.1937C85.9835 45.2446 85.6696 45.5562 85.73 45.643C85.7904 45.7299 86.0982 45.5861 86.5932 45.5831C87.2301 45.6205 87.8497 45.803 88.4042 46.1163C89.6779 46.7903 90.9304 47.5901 90.9425 47.5662C90.9546 47.5422 89.8408 46.6256 88.5943 45.8287C87.9635 45.4393 87.218 45.1428 86.6023 45.1937Z" fill="#E28D47"/>
<path d="M86.8319 36.6595C79.3497 39.008 81.1818 26.5136 81.9001 21.1276C81.5591 21.0797 71.6924 24.3837 71.6924 24.3837C71.6924 24.3837 75.918 29.6499 73.2287 33.6909C71.6019 35.4882 66.7455 35.4523 64.7384 34.29C63.51 33.5711 58.6687 48.1533 72.3504 50.5288C83.2312 52.407 88.3139 36.1981 86.8319 36.6595Z" fill="#F7C285"/>
<path d="M81.9089 21.1276C81.5678 21.0797 71.7012 24.3837 71.7012 24.3837C71.7012 24.3837 73.9075 27.1307 74.1158 30.1801C75.4528 29.3683 76.805 28.269 78.4017 28.9549C79.9108 29.6349 80.3635 31.2166 80.774 32.7563C80.8646 33.1187 81.7036 35.2306 82.8868 36.0514C80.1915 33.3614 81.3656 25.2075 81.9089 21.1276Z" fill="#E28D47"/>
<path d="M74.0554 36.8451C73.9014 36.7253 73.8773 36.5455 73.7777 36.5455C73.6781 36.5455 73.5906 36.7702 73.826 37.0668C74.0614 37.3633 74.5504 37.3663 74.9216 37.2824C75.4237 37.1904 75.8935 36.9717 76.2859 36.6474C75.8512 36.8599 75.3781 36.9841 74.8944 37.0128C74.6035 37.058 74.306 36.9985 74.0554 36.8451Z" fill="#E28D47"/>
<path d="M69.2963 47.7669C68.5025 45.3105 67.1835 44.954 67.6362 45.3015C68.089 45.649 68.8586 46.9611 69.094 48.0964C68.8826 48.4902 68.7321 48.9133 68.6473 49.3515C68.6172 49.5103 68.919 49.699 68.9492 49.4983C69.3053 47.6261 70.5458 46.4818 72.1515 45.661C72.3447 45.5651 71.1012 45.5861 69.2963 47.7669Z" fill="#E28D47"/>
<path d="M84.6524 52.2662C81.1815 48.354 85.2561 39.0049 86.228 36.7193C86.0257 36.7463 86.0227 36.7463 85.5307 36.8332C79.8927 51.4664 57.0083 53.4105 65.6103 34.6195C65.3121 34.515 65.0234 34.3858 64.7471 34.233C61.7138 43.7379 61.4452 44.7833 59.4561 48.0994C58.7016 49.3545 58.439 51.8588 60.4642 54.1594C62.1665 56.0975 63.1807 58.0536 62.903 62.0526C64.6083 61.8729 66.1838 61.4535 67.9314 61.4086C72.7364 61.2378 77.2185 62.2743 81.8394 62.8674C82.3133 59.0062 86.569 51.4993 87.0791 50.6726C86.3638 51.4394 85.3225 52.8114 84.6524 52.2662Z" fill="#C1063D"/>
<path d="M81.8454 16.8649C80.8192 16.9937 80.4419 17.7635 80.5023 18.9617C80.5626 20.16 80.4389 21.7656 81.951 21.46C82.9621 21.2563 83.6141 20.166 83.8284 18.9677C84.0276 17.8324 83.9431 16.5893 81.8454 16.8649Z" fill="#FCC990"/>
<path d="M82.0389 17.6827C81.9821 18.562 81.8732 19.4372 81.7129 20.3038C82.5127 20.3996 83.3005 19.1056 83.2522 18.1679C83.2039 17.2303 82.3829 17.485 82.0389 17.6827Z" fill="#F9B475"/>
<path d="M82.383 20.7022C82.048 20.6843 82.1415 21.0947 82.2683 21.1126C82.9595 21.2175 83.2824 21.9394 83.4454 22.5385C83.6297 23.2607 83.714 24.0044 83.6959 24.7492C83.7085 25.5401 83.5933 26.3279 83.3549 27.0827C83.216 27.4781 82.9384 28.3229 82.4313 28.4098C82.0148 28.4787 81.8005 27.9934 81.7039 27.6729C81.5365 27.0034 81.4754 26.3121 81.5228 25.6239C81.559 24.3179 81.6526 22.7122 82.045 21.4541C81.9812 21.4659 81.9166 21.4729 81.8518 21.4751C81.734 21.8668 81.6492 22.2676 81.5983 22.6733C81.477 23.4605 81.3964 24.2534 81.3568 25.0488C81.2964 25.7985 81.2964 26.5517 81.3568 27.3014C81.4111 27.8017 81.4896 28.5535 81.9091 28.91C82.2381 29.1916 82.5852 28.9939 82.8146 28.6943C83.2414 28.0923 83.528 27.4037 83.6537 26.6783C83.8329 25.8448 83.9119 24.9931 83.8891 24.1411C83.8933 23.3585 83.7825 22.5794 83.5601 21.8286C83.37 21.2444 82.706 20.7172 82.383 20.7022Z" fill="black"/>
<path d="M71.7826 5.37106C65.396 6.03607 63.1716 12.4555 63.6062 16.155C63.908 17.5749 64.1344 17.5809 64.569 19.2674C65.0036 20.9539 64.5177 22.6284 65.1304 23.9794C66.9414 27.9724 70.349 30.7762 72.6458 29.8806C80.0285 27.0019 80.9038 25.2555 81.7006 20.3667C83.427 9.81345 79.9077 4.52333 71.7826 5.37106Z" fill="#FCC990"/>
<path d="M72.5069 29.4462C70.8137 30.1052 68.3931 28.7572 66.5127 26.4087C68.3719 29.0328 70.8499 30.6024 72.6458 29.8955C78.1239 27.7597 80.0193 26.2439 80.958 23.6049C79.8292 25.9534 77.6349 27.4362 72.5069 29.4462Z" fill="#F9B475"/>
<mask id="mask0_0_3124" style="mask-type:luminance" maskUnits="userSpaceOnUse" x="63" y="5" width="20" height="26">
<path d="M81.7006 20.3727C80.9007 25.2614 80.0254 27.0078 72.6458 29.8865C70.349 30.7852 66.9383 27.9783 65.1304 23.9853C64.5268 22.6343 65.0036 20.9538 64.569 19.2733C64.1344 17.5928 63.899 17.5808 63.6062 16.1609C63.1716 12.4554 65.396 6.03601 71.7826 5.37699C79.9077 4.52326 83.427 9.81338 81.7006 20.3727Z" fill="white"/>
</mask>
<g mask="url(#mask0_0_3124)">
<path d="M67.7929 14.9088C67.5816 14.9088 67.5152 14.9717 67.0746 14.9927C66.4883 15.0392 65.9062 15.1283 65.333 15.2593C64.1257 15.5139 63.4014 15.7056 63.0543 16.0441C62.6557 16.4875 62.3343 16.9937 62.1035 17.5419C62.4615 17.0013 62.9701 16.5757 63.5674 16.3167C65.1399 15.5858 66.9146 15.6277 67.4186 15.5798C67.8321 15.5259 67.9227 14.9148 67.7929 14.9088Z" fill="#C17A3A"/>
<path d="M76.8417 14.5075C76.4312 14.2498 75.6736 14.2079 74.4482 14.2079C73.8599 14.1982 73.2717 14.2323 72.6886 14.3097C72.2539 14.3786 72.1755 14.3097 71.9672 14.3757C71.8435 14.4086 72.0608 14.9748 72.4743 14.9418C72.9753 14.8849 74.7048 14.4745 76.398 14.8639C77.0371 14.9925 77.6239 15.3051 78.0852 15.7626C77.7438 15.2786 77.3235 14.8544 76.8417 14.5075Z" fill="#C17A3A"/>
</g>
<path d="M69.9564 25.2824C68.9544 25.4231 67.904 25.5819 67.8799 25.5819C68.3024 25.7616 68.8337 27.3792 70.8649 27.0797C72.7513 26.8131 73.0682 25.3033 73.6387 24.7881C73.2192 24.866 71.4625 25.0727 69.9564 25.2824Z" fill="#F73D40"/>
<path d="M71.0792 24.3177C70.9102 24.3177 70.5963 24.5274 70.3941 24.5544C70.0168 24.6083 69.8448 24.4885 69.5912 24.5844C68.565 24.9678 68.4292 25.2524 67.8799 25.5879C68.6043 25.6747 72.9445 24.9049 73.6296 24.809C73.6722 24.7698 73.7176 24.7338 73.7655 24.7012C72.9083 24.9708 72.5763 24.3267 71.0792 24.3177Z" fill="#E52C2C"/>
<path d="M74.2849 24.2219C74.1835 24.2542 74.0935 24.3145 74.0254 24.3957C73.802 24.8031 73.1199 24.9139 72.7094 24.9528C72.3623 24.9858 71.484 25.0517 70.6147 25.1745C69.6398 25.3093 69.0392 25.3602 68.5925 25.4741C68.1458 25.5879 67.6086 25.6867 67.2826 25.3572C67.2162 25.2943 67.0653 25.4591 67.1739 25.507C67.316 25.5648 67.4637 25.608 67.6146 25.6358C67.9013 25.6927 69.5101 26.181 70.7143 26.0132C71.7556 25.8665 73.5243 24.8989 73.7839 24.7641C74.029 24.6521 74.238 24.4748 74.3875 24.2519C74.457 24.165 74.3242 24.2039 74.2849 24.2219Z" fill="#991010"/>
<path d="M70.6992 26.151C69.836 26.2439 68.9728 26.0432 69.1569 26.4835C69.2867 26.801 69.9748 27.0167 70.838 26.9239C71.7013 26.831 72.3653 26.3457 72.3321 26.0042C72.2989 25.6627 71.5624 26.0731 70.6992 26.151Z" fill="#F76E61"/>
<path d="M71.0974 24.4376C70.9043 24.4376 70.6749 24.6353 70.4274 24.6713C70.1799 24.7072 69.8056 24.5784 69.6094 24.6563C69.517 24.6847 69.4355 24.7403 69.3757 24.8157C69.3158 24.8911 69.2805 24.9828 69.2744 25.0787C69.3016 25.2764 69.8418 25.1296 70.4817 25.0397C71.1216 24.9499 71.6347 24.9529 71.6075 24.7402C71.5954 24.6293 71.4113 24.4616 71.0974 24.4376Z" fill="#F74D40"/>
<path d="M70.6719 24.5904C70.4999 24.6144 70.3701 24.6952 70.3701 24.7731C70.3701 24.851 70.5271 24.89 70.6991 24.866C70.8711 24.842 71.0009 24.7611 71.0009 24.6833C71.0009 24.6054 70.8349 24.5664 70.6719 24.5904Z" fill="#FFC49C"/>
<path d="M71.1881 24.5993C71.0915 24.6143 71.0191 24.6682 71.0281 24.7221C71.0372 24.7761 71.1187 24.806 71.2152 24.794C71.3118 24.7821 71.3843 24.7251 71.3752 24.6712C71.3661 24.6173 71.2847 24.5843 71.1881 24.5993Z" fill="#FFC49C"/>
<path d="M70.9405 26.193C70.7715 26.217 70.6387 26.2979 70.6387 26.3728C70.6387 26.4477 70.7986 26.4896 70.9677 26.4656C71.1367 26.4417 71.2695 26.3608 71.2695 26.2859C71.2695 26.211 71.1125 26.1691 70.9405 26.193Z" fill="#FFC49C"/>
<path d="M71.4566 26.202C71.36 26.202 71.2876 26.2679 71.2967 26.3218C71.3057 26.3757 71.3872 26.4087 71.4838 26.3937C71.5804 26.3787 71.6528 26.3278 71.6438 26.2739C71.6347 26.22 71.5532 26.187 71.4566 26.202Z" fill="#FFC49C"/>
<path d="M72.7727 25.1027C72.2203 25.2255 69.7544 25.4981 68.5713 25.6209C70.011 26.0193 70.835 26.0163 72.7727 25.1027Z" fill="white"/>
<path d="M69.3261 22.6882C69.2053 22.6642 68.6288 22.6702 68.7828 22.9159C68.8221 22.9635 68.8716 23.0019 68.9277 23.0282C68.9838 23.0546 69.0452 23.0683 69.1072 23.0683C69.1693 23.0683 69.2306 23.0546 69.2867 23.0282C69.3428 23.0019 69.3923 22.9635 69.4317 22.9159C69.5645 22.7062 69.4347 22.7062 69.3261 22.6882Z" fill="#FFD9AC"/>
<path d="M69.5581 23.2244C69.3783 23.2181 69.1994 23.195 69.0239 23.1555C68.8428 23.0986 68.6285 23.0507 68.6798 22.8979C68.8568 22.46 69.007 22.0118 69.1295 21.5559C69.2977 20.6944 69.312 19.8102 69.1718 18.9438C69.0752 18.2848 68.9665 17.8864 68.9696 17.8864C69.1129 19.0896 69.0834 20.3069 68.882 21.502C68.7885 22.0022 68.5802 22.4006 68.4685 22.8769C68.4592 22.9504 68.4741 23.0249 68.5112 23.0892C68.5482 23.1535 68.6052 23.2041 68.6738 23.2334C68.7709 23.2737 68.8721 23.3038 68.9756 23.3233C69.1611 23.3537 69.3491 23.3657 69.537 23.3592C69.9073 23.3573 70.2698 23.2536 70.5843 23.0596C70.2608 23.1964 69.9086 23.2529 69.5581 23.2244Z" fill="#C17A3A"/>
<path d="M74.0921 17.0177C72.8214 17.1015 71.9039 17.7576 71.9552 18.4945C72.257 19.0936 72.9965 19.7586 74.2702 19.6927C75.5439 19.6268 76.3618 19.1145 76.4856 18.2129C76.4101 17.0746 75.3628 16.9368 74.0921 17.0177Z" fill="white"/>
<path d="M74.5716 16.6432C74.1992 16.6724 73.8532 16.8458 73.6087 17.1261C73.3641 17.4064 73.2405 17.771 73.2647 18.141C73.2857 18.5138 73.4548 18.8631 73.7348 19.1123C74.0149 19.3616 74.3831 19.4906 74.7587 19.471C75.1312 19.4419 75.4771 19.2684 75.7217 18.9881C75.9662 18.7078 76.0898 18.3432 76.0656 17.9732C76.0556 17.7885 76.009 17.6076 75.9285 17.4407C75.8479 17.2739 75.7351 17.1245 75.5963 17.001C75.4576 16.8774 75.2957 16.7823 75.1198 16.7209C74.944 16.6595 74.7577 16.6331 74.5716 16.6432Z" fill="#935124"/>
<path d="M74.5716 16.6432C74.1992 16.6723 73.8532 16.8458 73.6087 17.1261C73.3641 17.4064 73.2405 17.771 73.2647 18.141C73.2782 18.325 73.3263 18.5048 73.4066 18.6712C73.8004 18.4876 74.2301 18.3925 74.6652 18.3925C75.1002 18.3925 75.53 18.4876 75.9238 18.6712C76.0338 18.4448 76.0827 18.194 76.0656 17.9433C76.0377 17.5756 75.8656 17.2334 75.5863 16.9903C75.3069 16.7472 74.9426 16.6225 74.5716 16.6432Z" fill="#5E3010"/>
<path d="M74.6077 17.1794C74.4917 17.1881 74.3785 17.2194 74.2748 17.2716C74.171 17.3237 74.0786 17.3957 74.0029 17.4833C73.9272 17.571 73.8697 17.6726 73.8336 17.7824C73.7976 17.8921 73.7837 18.0079 73.7927 18.1229C73.806 18.3553 73.9117 18.573 74.0865 18.728C74.2614 18.883 74.4912 18.9628 74.7254 18.9497C74.841 18.941 74.9537 18.9097 75.0571 18.8577C75.1605 18.8057 75.2525 18.734 75.328 18.6466C75.4034 18.5592 75.4607 18.4579 75.4966 18.3486C75.5325 18.2392 75.5463 18.1238 75.5373 18.0091C75.5315 17.8939 75.5028 17.781 75.4529 17.6769C75.403 17.5727 75.3328 17.4794 75.2464 17.4023C75.16 17.3252 75.0591 17.2658 74.9495 17.2275C74.8398 17.1893 74.7237 17.1729 74.6077 17.1794Z" fill="black"/>
<path d="M74.9642 18.0092C74.9094 18.0137 74.8587 18.0396 74.8231 18.0811C74.7875 18.1226 74.7699 18.1765 74.774 18.2308C74.7752 18.2578 74.7818 18.2844 74.7934 18.3089C74.8049 18.3333 74.8213 18.3553 74.8416 18.3734C74.8618 18.3915 74.8855 18.4055 74.9112 18.4144C74.9369 18.4234 74.9641 18.4272 74.9914 18.4255C75.0189 18.424 75.0458 18.4171 75.0705 18.405C75.0953 18.393 75.1173 18.3761 75.1353 18.3554C75.1534 18.3347 75.167 18.3106 75.1755 18.2846C75.1839 18.2586 75.187 18.2311 75.1845 18.2039C75.183 18.1767 75.1761 18.1501 75.1641 18.1256C75.1522 18.1011 75.1356 18.0792 75.1151 18.0611C75.0946 18.043 75.0708 18.0291 75.0449 18.0202C75.019 18.0113 74.9916 18.0075 74.9642 18.0092Z" fill="white"/>
<path d="M74.037 16.1879C72.6758 16.4874 72.0963 17.6856 71.876 18.4974C72.8177 17.4909 75.2896 17.0206 76.4667 17.9612C76.4577 17.673 76.3828 17.3906 76.2476 17.1354C76.1124 16.8802 75.9206 16.6588 75.6865 16.4879C75.4525 16.3171 75.1824 16.2013 74.8966 16.1493C74.6109 16.0974 74.3169 16.1105 74.037 16.1879Z" fill="#FCC990"/>
<path d="M74.0372 16.1879C73.5249 16.2958 73.0589 16.5584 72.7031 16.9398C73.0222 16.6709 73.4041 16.4855 73.8138 16.4006C74.06 16.3323 74.3176 16.3137 74.5711 16.3461C74.8247 16.3785 75.0691 16.4611 75.2898 16.5891C75.5105 16.7171 75.7031 16.8878 75.856 17.0911C76.009 17.2944 76.1192 17.5261 76.1801 17.7725C76.2865 17.8259 76.3876 17.8891 76.482 17.9613C76.4735 17.6714 76.3984 17.3873 76.2624 17.1306C76.1264 16.874 75.933 16.6516 75.6971 16.4805C75.4612 16.3093 75.189 16.194 74.9013 16.1433C74.6136 16.0926 74.318 16.1079 74.0372 16.1879Z" fill="#C17A3A"/>
<path d="M76.078 19.1684C75.5136 19.3092 74.938 19.4014 74.3576 19.444C73.603 19.4949 71.9098 19.3811 72.1694 19.474C72.8597 19.6448 73.5716 19.7134 74.2821 19.6777C74.9864 19.6108 75.6858 19.5018 76.3768 19.3511C76.4462 19.3511 76.7903 19.2733 76.6303 19.1954C76.4536 19.1294 76.2604 19.12 76.078 19.1684Z" fill="black"/>
<path d="M77.3304 17.401C77.1082 17.4852 76.8673 17.508 76.6331 17.4669C76.6663 17.437 76.7026 17.407 76.7358 17.3711C76.9804 17.0814 77.1355 16.7277 77.1825 16.3526C77.1825 16.3526 76.5094 17.1943 76.1623 17.3261L76.0446 17.3621H76.0204L75.8846 17.3351C75.929 17.2942 75.9703 17.2501 76.0084 17.2033C76.2128 16.9177 76.35 16.5901 76.4098 16.2448C76.2021 16.5442 75.9543 16.8143 75.6733 17.0476C75.5303 17.1527 75.3614 17.2179 75.1844 17.2363C75.0237 17.2228 74.8622 17.2228 74.7015 17.2363C73.813 17.3132 72.954 17.5909 72.1903 18.0481C72.021 18.1442 71.882 18.2853 71.7889 18.4555C71.7225 18.5813 71.7889 18.6592 71.9156 18.5783C72.6767 18.1265 73.538 17.8673 74.4238 17.8234C75.3081 17.7815 76.1955 18.3207 77.0557 17.9372C77.229 17.8462 77.3693 17.7038 77.4571 17.5298C77.5296 17.3831 77.4752 17.3441 77.3304 17.401Z" fill="black"/>
<path d="M66.4712 17.8893C65.2941 17.9762 64.4913 18.2338 64.5697 19.2733C64.8021 20.085 65.4752 20.4355 66.6584 20.3457C67.0895 20.3418 67.5091 20.2071 67.8608 19.9598C68.2126 19.7124 68.4797 19.3641 68.6263 18.9617C68.5749 18.2817 67.6484 17.7994 66.4712 17.8893Z" fill="white"/>
<path d="M66.9299 17.5389C66.7585 17.5579 66.5925 17.6102 66.4414 17.6929C66.2904 17.7756 66.1572 17.8871 66.0496 18.0209C65.9419 18.1547 65.8619 18.3083 65.8141 18.4728C65.7663 18.6373 65.7516 18.8096 65.7709 18.9797C65.7842 19.1516 65.8318 19.3191 65.9108 19.4726C65.9898 19.6262 66.0987 19.7626 66.2312 19.874C66.3637 19.9855 66.5172 20.0697 66.6827 20.1219C66.8482 20.1741 67.0225 20.1931 67.1956 20.1779C67.3672 20.1593 67.5334 20.1072 67.6846 20.0246C67.8359 19.942 67.9692 19.8306 68.0769 19.6967C68.1846 19.5628 68.2646 19.4091 68.3123 19.2444C68.3599 19.0797 68.3743 18.9073 68.3546 18.7371C68.3413 18.5652 68.2937 18.3977 68.2147 18.2442C68.1357 18.0906 68.0268 17.9542 67.8943 17.8428C67.7618 17.7313 67.6084 17.6471 67.4428 17.5949C67.2773 17.5428 67.103 17.5237 66.9299 17.5389Z" fill="#935124"/>
<path d="M66.9299 17.5389C66.7585 17.5579 66.5925 17.6102 66.4414 17.6929C66.2904 17.7756 66.1572 17.8871 66.0496 18.0209C65.9419 18.1547 65.8619 18.3083 65.8141 18.4728C65.7663 18.6373 65.7516 18.8096 65.7709 18.9797C65.7879 19.1504 65.8381 19.3163 65.9188 19.468C66.2776 19.2871 66.6723 19.1871 67.0746 19.1752C67.4769 19.1632 67.8769 19.2397 68.2459 19.3991C68.3415 19.1868 68.379 18.9533 68.3546 18.7221C68.3394 18.5515 68.2905 18.3856 68.2106 18.2338C68.1308 18.082 68.0216 17.9473 67.8893 17.8375C67.757 17.7276 67.6042 17.6446 67.4396 17.5934C67.275 17.5422 67.1018 17.5236 66.9299 17.5389Z" fill="#5E3010"/>
<path d="M66.9813 18.0331C66.7652 18.0572 66.5677 18.1653 66.4319 18.3338C66.2961 18.5023 66.2331 18.7173 66.2569 18.9318C66.2768 19.1466 66.3817 19.3447 66.5486 19.4829C66.7155 19.621 66.9308 19.6878 67.1473 19.6687C67.3627 19.6439 67.5595 19.5354 67.6947 19.367C67.8299 19.1986 67.8924 18.984 67.8686 18.77C67.8591 18.6638 67.8286 18.5605 67.7789 18.4659C67.7292 18.3714 67.6612 18.2875 67.5788 18.2191C67.4964 18.1507 67.4012 18.099 67.2986 18.0671C67.1961 18.0352 67.0883 18.0236 66.9813 18.0331Z" fill="black"/>
<path d="M67.3367 18.788C67.3114 18.7906 67.2869 18.7982 67.2645 18.8104C67.2422 18.8225 67.2226 18.839 67.2069 18.8589C67.1911 18.8787 67.1795 18.9015 67.1728 18.9258C67.166 18.9502 67.1643 18.9757 67.1677 19.0007C67.1723 19.0511 67.1968 19.0976 67.2358 19.1301C67.2748 19.1627 67.3252 19.1786 67.3759 19.1744C67.4014 19.1718 67.426 19.1642 67.4485 19.1521C67.4709 19.14 67.4907 19.1235 67.5067 19.1038C67.5227 19.084 67.5346 19.0612 67.5417 19.0369C67.5488 19.0125 67.5509 18.987 67.548 18.9618C67.5426 18.9111 67.5175 18.8646 67.478 18.8321C67.4386 18.7997 67.3878 18.7838 67.3367 18.788Z" fill="white"/>
<path d="M66.4137 17.1195C66.147 17.0853 65.8759 17.1116 65.6208 17.1965C65.3658 17.2814 65.1335 17.4225 64.9414 17.6094C64.7494 17.7963 64.6025 18.024 64.512 18.2754C64.4214 18.5268 64.3895 18.7953 64.4187 19.0606C65.3724 18.0451 67.7025 18.162 68.6955 18.9558C68.3877 18.2249 67.6995 17.2094 66.4137 17.1195Z" fill="#FCC990"/>
<path d="M64.4187 19.0606C64.492 18.983 64.5728 18.9127 64.6601 18.8509C64.6824 18.6169 64.7521 18.3897 64.865 18.183C64.9779 17.9763 65.1316 17.7943 65.3171 17.648C65.5026 17.5017 65.7159 17.3941 65.9442 17.3316C66.1726 17.2691 66.4114 17.253 66.6461 17.2843C67.0321 17.3093 67.4057 17.4298 67.7327 17.6348C67.3576 17.3312 66.8966 17.1512 66.4137 17.1195C66.147 17.0853 65.8759 17.1116 65.6208 17.1965C65.3658 17.2814 65.1335 17.4225 64.9414 17.6094C64.7494 17.7963 64.6025 18.024 64.512 18.2754C64.4214 18.5268 64.3895 18.7953 64.4187 19.0606Z" fill="#C17A3A"/>
<path d="M66.5488 20.16C66.0108 20.1964 65.4706 20.1874 64.9341 20.1331C64.7644 20.1136 64.5927 20.146 64.4421 20.2259C64.3093 20.3188 64.6292 20.3338 64.6956 20.3338C65.3483 20.3842 66.0036 20.3932 66.6575 20.3607C67.3104 20.3021 67.951 20.1487 68.559 19.9054C68.7823 19.7676 67.246 20.0941 66.5488 20.16Z" fill="black"/>
<path d="M68.3506 18.5784C67.5881 18.2595 66.7623 18.1171 65.9361 18.162C65.7876 18.1705 65.6402 18.1916 65.4954 18.2249C65.3304 18.2294 65.1671 18.1912 65.0215 18.1141C64.7338 17.9352 64.471 17.7197 64.2398 17.473C64.3426 17.7809 64.5115 18.063 64.7348 18.2998C64.776 18.3381 64.8194 18.3741 64.8646 18.4076L64.7469 18.4496H64.7257L64.611 18.4316C64.276 18.3567 63.5486 17.6677 63.5486 17.6707C63.6416 18.0087 63.8301 18.3133 64.0919 18.5484C64.1267 18.5754 64.163 18.6004 64.2006 18.6233C63.9906 18.6895 63.7669 18.6998 63.5516 18.6533C63.4249 18.6173 63.3675 18.6533 63.452 18.7821C63.5561 18.9291 63.7023 19.0418 63.8716 19.1056C64.7137 19.3422 65.4531 18.7312 66.2711 18.6563C67.0883 18.5808 67.9116 18.7074 68.6676 19.0247C68.8004 19.0786 68.8456 19.0007 68.7672 18.8929C68.6588 18.7534 68.515 18.6449 68.3506 18.5784Z" fill="black"/>
<path d="M66.7305 6.11393L77.7531 9.90329C80.0802 10.8768 81.1516 15.6308 82.0149 17.9912C82.7272 16.5234 82.8237 15.6128 83.0139 14.5164C83.524 11.5958 84.3027 7.83936 81.9032 5.17333C79.0449 2.00105 69.4771 2.42942 66.7305 6.11393Z" fill="black"/>
<path d="M71.3389 5.40991C60.7026 5.32304 60.2891 14.5912 63.3405 18.0091C63.7118 17.5718 65.0519 17.1285 66.8447 16.787C66.8688 16.787 66.6968 14.8908 66.7209 14.8848C66.7451 14.8788 66.9896 16.76 67.0228 16.754C67.3487 16.6941 67.6898 16.6372 68.0429 16.5863C68.1063 16.5863 67.892 14.1479 67.9554 14.1389C68.0188 14.1299 68.3357 16.5353 68.387 16.5353C70.1262 16.2946 71.8798 16.1715 73.6357 16.1669C73.684 15.415 73.6961 14.4205 73.7021 13.9412C74.1971 15.3791 74.6076 16.1849 74.668 16.1879C77.1188 16.2478 79.0293 16.5953 80.288 17.41C81.4198 11.2213 76.3552 5.44885 71.3389 5.40991Z" fill="black"/>
<path d="M72.9172 6.70096C72.8685 6.94882 72.806 7.19382 72.7301 7.43487C72.0631 6.93162 71.4594 6.14379 71.2814 7.47081C71.0255 7.16949 70.7301 6.90352 70.403 6.67999C70.2493 6.96906 70.0652 7.24117 69.8537 7.49178C69.6274 7.19223 69.398 6.85373 69.1414 6.56616C68.9724 6.75488 68.6706 6.9466 68.5529 7.19523C68.577 7.09338 68.5166 6.78484 68.5348 6.61709C68.1665 6.73691 67.7983 6.9436 67.4271 7.10835C67.5267 6.94346 67.6387 6.78625 67.7621 6.63805C67.3594 6.76187 66.9669 6.91609 66.588 7.09937C62.9661 8.63608 61.4026 12.4194 63.8263 15.7864C63.781 14.6511 64.5326 12.9736 65.4984 12.2667C65.7097 12.695 65.6976 13.2282 65.8696 13.6896C66.2047 13.2312 66.588 12.5632 67.0769 12.2906C67.0915 12.77 67.1419 13.2476 67.2279 13.7195C67.6142 13.2941 67.8738 12.5453 68.4744 12.4165C68.7189 13.1803 68.8275 14.0221 69.2139 14.762C69.3444 13.9679 69.6184 13.2037 70.0227 12.5063C70.1827 13.2492 70.222 14.3725 70.8377 14.8818C71.2532 13.8748 71.8391 12.9458 72.5701 12.1349C72.7365 12.5687 72.9653 12.9763 73.2492 13.3451C73.3296 12.8901 73.4654 12.4465 73.6537 12.024C73.7048 12.0181 73.7565 12.0181 73.8076 12.024C74.1457 12.8808 74.7372 13.6536 75.0874 14.5133C75.3395 13.6958 75.4905 12.8508 75.5371 11.9971H75.6156C76.2584 12.6561 77.1247 13.1953 77.4869 14.061C77.4144 12.4284 77.2997 9.01651 72.9172 6.70096Z" fill="#101010"/>
<path d="M64.047 11.8133C64.0455 11.8017 64.0455 11.79 64.047 11.7784C64.0508 11.7898 64.0508 11.802 64.047 11.8133Z" fill="#FF635F"/>
<path d="M73.5724 8.20481L73.5392 8.92374C73.4214 8.76198 73.2373 8.59423 73.1166 8.42348C73.0965 8.63857 73.0874 8.85452 73.0894 9.07052C72.9084 8.83088 72.7363 8.51635 72.5643 8.25573C72.4808 8.53388 72.4152 8.81703 72.3681 9.10347C72.1868 8.82489 72.0303 8.53123 71.9003 8.22578C71.7524 8.5463 71.6528 8.90876 71.4868 9.21431C71.3147 8.89079 71.1849 8.51035 71.0219 8.17785C70.8504 8.48668 70.7079 8.81057 70.5964 9.14541C70.3314 8.77677 70.1436 8.35915 70.044 7.91724C69.8497 8.3026 69.6882 8.7034 69.5611 9.11545C69.4132 8.8159 69.2804 8.51634 69.1355 8.21679C68.8337 8.27371 68.6074 8.58225 68.3689 8.71705C68.3538 8.4834 68.3025 8.22278 68.2814 7.99512C67.8902 8.26717 67.5318 8.58276 67.2129 8.93572C67.1133 8.71705 67.0409 8.44146 66.9564 8.2078C66.581 8.48686 66.2306 8.79755 65.909 9.13642C65.9341 8.92039 66.014 8.71422 66.1415 8.53731C64.7802 9.43597 64.1886 10.089 64.0498 11.7725C64.3214 11.1914 65.6253 9.74152 65.8155 10.9847C66.1354 10.6851 66.5399 10.1849 66.6757 10.8768C66.8266 10.7061 67.0228 10.4934 67.1767 10.3286C67.3409 10.5584 67.4159 10.8392 67.388 11.1195C68.0852 10.2448 68.052 10.3107 68.6738 11.1464C68.9756 10.796 69.38 10.1339 69.6004 10.9098C69.7018 10.6841 69.8372 10.4751 70.0018 10.2897C70.1225 10.5144 70.2583 10.751 70.3851 10.9577C70.4334 10.76 70.5903 10.5623 70.6447 10.3766C70.8589 10.6379 71.0079 10.9459 71.0793 11.2752C71.5833 10.4485 71.9999 9.94222 72.4375 11.1225C72.6488 10.772 72.8178 10.3916 73.0412 10.0471C73.1921 10.2807 73.3279 10.5353 73.4758 10.778C73.5543 10.5383 73.6267 10.2687 73.7142 10.0291C73.9785 10.2928 74.1995 10.5961 74.3692 10.9278C74.3692 10.6282 74.3481 10.3286 74.3692 10.062C74.831 10.2418 75.4256 10.4994 75.6912 10.9248C75.3139 9.80143 74.505 8.94471 73.5724 8.20481Z" fill="black"/>
</g>
<defs>
<clipPath id="clip0_0_3124">
<rect width="113" height="182" fill="white"/>
</clipPath>
</defs>
</svg>
