<svg width="24" height="24" viewBox="0 0 24 24" fill="none" xmlns="http://www.w3.org/2000/svg">
<path d="M12 2C9.28417 2 8.94375 2.01167 7.87708 2.06C6.25208 2.13417 4.82458 2.53208 3.67833 3.67833C2.5325 4.82417 2.13417 6.25125 2.06 7.87708C2.01167 8.94375 2 9.28417 2 12C2 14.7158 2.01167 15.0562 2.06 16.1229C2.13417 17.7479 2.53208 19.1754 3.67833 20.3217C4.82417 21.4675 6.25125 21.8658 7.87708 21.94C8.94375 21.9883 9.28417 22 12 22C14.7158 22 15.0562 21.9883 16.1229 21.94C17.7475 21.8658 19.1754 21.4679 20.3217 20.3217C21.4675 19.1758 21.8658 17.7487 21.94 16.1229C21.9883 15.0562 22 14.7158 22 12C22 9.28417 21.9883 8.94375 21.94 7.87708C21.8658 6.25208 21.4679 4.82458 20.3217 3.67833C19.1758 2.5325 17.7487 2.13417 16.1229 2.06C15.0562 2.01167 14.7158 2 12 2Z" fill="url(#paint0_linear_0_3066)"/>
<path fill-rule="evenodd" clip-rule="evenodd" d="M9.25092 5.37337C9.96217 5.34087 10.1893 5.33337 11.9997 5.33337C13.8101 5.33337 14.0372 5.34087 14.7484 5.37337C15.8322 5.42296 16.7838 5.68837 17.5476 6.45212C18.3113 7.21629 18.5768 8.16796 18.6263 9.25129C18.6588 9.96254 18.6663 10.1896 18.6663 12C18.6663 13.8105 18.6588 14.0375 18.6263 14.7488C18.5768 15.8325 18.3113 16.7842 17.5476 17.548C16.7834 18.3117 15.8318 18.5771 14.7484 18.6267C14.0372 18.6592 13.8101 18.6667 11.9997 18.6667C10.1893 18.6667 9.96217 18.6592 9.25092 18.6267C8.16717 18.5771 7.21551 18.3117 6.45176 17.548C5.68801 16.7838 5.42259 15.8321 5.37301 14.7488C5.34051 14.0375 5.33301 13.8105 5.33301 12C5.33301 10.1896 5.34051 9.96254 5.37301 9.25129C5.42259 8.16754 5.68801 7.21587 6.45176 6.45212C7.21592 5.68837 8.16759 5.42296 9.25092 5.37337ZM14.6934 6.57337C13.9905 6.54129 13.7797 6.53462 11.9997 6.53462C10.2197 6.53462 10.0088 6.54129 9.30592 6.57337C8.54717 6.60796 7.84301 6.76004 7.30134 7.30171C6.75967 7.84337 6.60759 8.54754 6.57301 9.30629C6.54092 10.0092 6.53426 10.22 6.53426 12C6.53426 13.78 6.54092 13.9909 6.57301 14.6938C6.60759 15.4525 6.75967 16.1567 7.30134 16.6984C7.84301 17.24 8.54717 17.3921 9.30592 17.4267C10.0088 17.4588 10.2197 17.4655 11.9997 17.4655C13.7797 17.4655 13.9905 17.4588 14.6934 17.4267C15.4522 17.3921 16.1563 17.24 16.698 16.6984C17.2397 16.1567 17.3918 15.4525 17.4263 14.6938C17.4584 13.9909 17.4651 13.78 17.4651 12C17.4651 10.22 17.4584 10.0092 17.4263 9.30629C17.3918 8.54754 17.2397 7.84337 16.698 7.30171C16.1563 6.76004 15.4522 6.60796 14.6934 6.57337ZM8.57634 12C8.57634 10.1096 10.1088 8.57671 11.9997 8.57671C13.8905 8.57671 15.423 10.1096 15.423 12C15.423 13.8905 13.8901 15.4234 11.9997 15.4234C10.1093 15.4234 8.57634 13.8905 8.57634 12ZM9.77759 12C9.77759 13.2271 10.7722 14.2221 11.9997 14.2221C13.2272 14.2221 14.2218 13.2275 14.2218 12C14.2218 10.773 13.2272 9.77796 11.9997 9.77796C10.7726 9.77796 9.77759 10.7725 9.77759 12ZM15.5588 9.2413C16.0006 9.2413 16.3588 8.88312 16.3588 8.4413C16.3588 7.99947 16.0006 7.6413 15.5588 7.6413C15.117 7.6413 14.7588 7.99947 14.7588 8.4413C14.7588 8.88312 15.117 9.2413 15.5588 9.2413Z" fill="white"/>
<defs>
<linearGradient id="paint0_linear_0_3066" x1="12.0295" y1="29.3864" x2="29.4083" y2="12.0131" gradientUnits="userSpaceOnUse">
<stop stop-color="#FFDD55"/>
<stop offset="0.5" stop-color="#FF543E"/>
<stop offset="1" stop-color="#C837AB"/>
</linearGradient>
</defs>
</svg>
