<svg width="50" height="74" viewBox="0 0 50 74" fill="none" xmlns="http://www.w3.org/2000/svg">
<g clip-path="url(#clip0_0_1529)">
<path d="M9.45947 62.0333L11.1188 61.3363C11.1188 61.3363 11.605 63.0364 11.4248 64.1653H10.7448C10.6247 64.1653 10.5079 64.1262 10.4121 64.0538C10.3164 63.9813 10.2469 63.8796 10.2143 63.764C10.0608 63.1492 9.80563 62.5642 9.45947 62.0333Z" fill="#FFB99A"/>
<path style="mix-blend-mode:multiply" opacity="0.51" d="M10.578 63.5056C10.494 62.9064 10.3411 62.3188 10.1224 61.7545L9.44238 62.0333C9.78735 62.5644 10.0413 63.1494 10.1938 63.764C10.2264 63.8796 10.2959 63.9813 10.3917 64.0537C10.4874 64.1262 10.6042 64.1653 10.7243 64.1653H11.4043C11.2284 64.1017 11.0559 64.0291 10.8875 63.9476C10.804 63.9045 10.7323 63.8417 10.6784 63.7647C10.6245 63.6877 10.5901 63.5988 10.578 63.5056Z" fill="url(#paint0_linear_0_1529)"/>
<path d="M4.81104 63.7709L5.42987 65.7498C5.48702 65.9342 5.58437 66.1037 5.71489 66.246C5.84542 66.3883 6.00589 66.4998 6.18472 66.5726L8.97969 67.7015L9.1769 67.4567C9.26025 67.3525 9.31506 67.2285 9.33592 67.0967C9.35679 66.965 9.343 66.8301 9.29591 66.7053C9.034 66.0436 8.88681 65.3422 8.86068 64.6311L4.81104 63.7709Z" fill="#FFB99A"/>
<path style="mix-blend-mode:multiply" opacity="0.51" d="M8.86094 64.6312L8.1333 64.4781C8.25187 65.5891 8.5373 66.6757 8.97995 67.7015L9.17717 67.4567C9.26052 67.3526 9.31532 67.2285 9.33619 67.0968C9.35705 66.965 9.34326 66.8301 9.29617 66.7053C9.03426 66.0437 8.88708 65.3422 8.86094 64.6312Z" fill="url(#paint1_linear_0_1529)"/>
<path d="M38.3578 61.7375C38.3578 61.7375 38.572 63.9102 37.4023 65.1377V66.0081C37.4023 66.0081 39.7825 67.0282 40.6495 67.2764C40.9385 66.9633 41.1949 66.6215 41.4146 66.2564C41.3526 66.6767 41.2325 67.0864 41.0576 67.4736L42.0776 67.9259C42.8983 66.8206 43.3418 65.4807 43.3425 64.104L42.3224 61.071L38.3578 61.7375Z" fill="#FFB99A"/>
<path style="mix-blend-mode:multiply" opacity="0.6" d="M43.3494 64.1245L42.4551 61.4043L41.6833 61.7885C41.6833 61.7885 42.7781 65.4063 41.9723 67.3785L41.0576 67.4805L42.0777 67.9327C42.8981 66.832 43.3438 65.4972 43.3494 64.1245Z" fill="url(#paint2_linear_0_1529)"/>
<path style="mix-blend-mode:multiply" opacity="0.6" d="M40.6496 67.2935C40.9386 66.9804 41.1949 66.6386 41.4146 66.2735L41.6832 65.131C41.5234 65.522 40.6632 66.2973 40.6632 66.2973L37.4058 65.1378V66.0082C37.4058 66.0082 39.7655 67.0147 40.6496 67.2935Z" fill="url(#paint3_linear_0_1529)"/>
<path d="M42.0367 59.5818L43.6382 61.4247C43.8568 62.6413 43.8568 63.8871 43.6382 65.1037C43.5056 65.1453 43.3649 65.1541 43.2282 65.1292C43.0914 65.1043 42.9628 65.0466 42.8534 64.9609C42.7439 64.8752 42.657 64.7642 42.6 64.6375C42.5431 64.5107 42.5178 64.372 42.5264 64.2333C42.472 63.5532 42.3665 62.353 41.6831 61.5131L42.0367 59.5818Z" fill="#FFB99A"/>
<path d="M20.0951 7.99738L19.5544 7.29693C19.5544 7.29693 18.8744 6.56929 18.3031 7.04192C17.9121 7.38194 18.0855 8.89503 18.429 9.76208C18.4895 9.94472 18.5938 10.1098 18.7327 10.2429C18.8717 10.376 19.0411 10.4731 19.2261 10.5257C19.4112 10.5784 19.6063 10.5849 19.7945 10.5449C19.9827 10.5048 20.1583 10.4194 20.3059 10.2959L20.0951 7.99738Z" fill="#CFA4A3"/>
<path style="mix-blend-mode:multiply" opacity="0.43" d="M20.0951 7.99738L19.5544 7.29693C19.5544 7.29693 18.8744 6.56929 18.3031 7.04192C17.9121 7.38194 18.0855 8.89503 18.429 9.76208C18.4895 9.94472 18.5938 10.1098 18.7327 10.2429C18.8717 10.376 19.0411 10.4731 19.2261 10.5257C19.4112 10.5784 19.6063 10.5849 19.7945 10.5449C19.9827 10.5048 20.1583 10.4194 20.3059 10.2959L20.0951 7.99738Z" fill="url(#paint4_linear_0_1529)"/>
<path style="mix-blend-mode:multiply" opacity="0.43" d="M18.8199 9.31318C18.7739 9.2736 18.737 9.22455 18.7117 9.16939C18.6864 9.11423 18.6733 9.05425 18.6733 8.99356C18.6733 8.93287 18.6864 8.87289 18.7117 8.81773C18.737 8.76257 18.7739 8.71352 18.8199 8.67394C19.2076 8.25911 18.9899 7.9497 18.8199 7.52467C18.8008 7.44618 18.7559 7.37637 18.6924 7.32645C18.6289 7.27653 18.5505 7.24939 18.4697 7.24939C18.3889 7.24939 18.3105 7.27653 18.247 7.32645C18.1835 7.37637 18.1386 7.44618 18.1195 7.52467C18.0639 8.28317 18.1801 9.04445 18.4595 9.7518C18.5279 9.95402 18.6497 10.134 18.8118 10.2729C18.974 10.4117 19.1706 10.5042 19.381 10.5407C19.3841 10.3073 19.3353 10.0762 19.2383 9.8639C19.1413 9.65164 18.9984 9.46355 18.8199 9.31318Z" fill="url(#paint5_linear_0_1529)"/>
<path d="M28.3339 7.99738L28.8745 7.29693C28.8745 7.29693 29.5545 6.56929 30.1258 7.04192C30.5168 7.38194 30.3434 8.89503 30 9.76208C29.9394 9.94472 29.8351 10.1098 29.6962 10.2429C29.5572 10.376 29.3879 10.4731 29.2028 10.5257C29.0177 10.5784 28.8226 10.5849 28.6344 10.5449C28.4462 10.5048 28.2706 10.4194 28.123 10.2959L28.3339 7.99738Z" fill="#CFA4A3"/>
<path style="mix-blend-mode:multiply" opacity="0.43" d="M28.3339 7.99738L28.8745 7.29693C28.8745 7.29693 29.5545 6.56929 30.1258 7.04192C30.5168 7.38194 30.3434 8.89503 30 9.76208C29.9394 9.94472 29.8351 10.1098 29.6962 10.2429C29.5572 10.376 29.3879 10.4731 29.2028 10.5257C29.0177 10.5784 28.8226 10.5849 28.6344 10.5449C28.4462 10.5048 28.2706 10.4194 28.123 10.2959L28.3339 7.99738Z" fill="url(#paint6_linear_0_1529)"/>
<path style="mix-blend-mode:multiply" opacity="0.43" d="M29.609 9.31318C29.655 9.2736 29.692 9.22455 29.7173 9.16939C29.7426 9.11423 29.7557 9.05425 29.7557 8.99356C29.7557 8.93287 29.7426 8.87289 29.7173 8.81773C29.692 8.76257 29.655 8.71352 29.609 8.67394C29.2214 8.25911 29.439 7.9497 29.609 7.52467C29.6281 7.44618 29.673 7.37637 29.7365 7.32645C29.8 7.27653 29.8785 7.24939 29.9592 7.24939C30.04 7.24939 30.1185 7.27653 30.182 7.32645C30.2455 7.37637 30.2904 7.44618 30.3095 7.52467C30.3651 8.28317 30.2488 9.04445 29.9694 9.7518C29.901 9.95402 29.7793 10.134 29.6171 10.2729C29.455 10.4117 29.2583 10.5042 29.048 10.5407C29.0449 10.3073 29.0936 10.0762 29.1906 9.8639C29.2876 9.65164 29.4305 9.46355 29.609 9.31318Z" fill="url(#paint7_linear_0_1529)"/>
<path d="M36.7423 22.8086C37.2387 23.084 37.9664 23.5702 38.7008 24.0837C39.5277 24.6612 40.1752 25.46 40.5691 26.3885C40.963 27.317 41.0873 28.3377 40.928 29.3336L40.3499 32.914L41.4516 42.948L42.169 44.3285C42.8513 45.6393 43.126 47.1242 42.9579 48.5923L42.0228 56.7052C42.0228 56.7052 40.6628 57.7967 38.0956 57.0452L36.0555 44.5801L32.6553 34.7365L36.7423 22.8086Z" fill="#FFB99A"/>
<path d="M37.6812 56.6168C37.6812 56.6168 39.5411 55.7565 42.6931 56.3516C42.6931 56.3516 43.5907 60.2312 43.6383 61.4247C42.994 61.626 42.3988 61.9596 41.8906 62.4039C41.5234 62.7439 39.6533 62.9072 38.3646 62.5535C38.2123 62.5104 38.0783 62.4186 37.9831 62.2921C37.8879 62.1656 37.8368 62.0114 37.8376 61.8531C37.8376 60.2482 37.8172 58.4529 37.6812 56.6168Z" fill="#C1063D"/>
<path style="mix-blend-mode:multiply" opacity="0.4" d="M41.4516 42.9481C37.9018 41.452 34.7158 33.5601 34.7158 33.5601L33.3557 32.6794L32.6519 34.7196L36.0521 44.5802L36.9055 49.7791C36.816 48.3007 37.2116 46.8336 38.0322 45.6007C38.8527 44.3677 40.0533 43.4363 41.4516 42.9481Z" fill="url(#paint8_linear_0_1529)"/>
<path d="M24.2873 18.2217H19.6733L13.3047 21.6627C13.3047 21.6627 15.2394 28.9017 13.3047 38.0755L15.2598 44.2332C15.5285 45.0806 15.5555 45.9861 15.338 46.848L13.9507 52.3325C13.9507 52.3325 18.609 56.3448 24.2873 56.3448C30.3635 56.3448 34.4608 52.3325 34.4608 52.3325C34.4608 52.3325 34.3043 39.5002 33.9949 34.9167C36.4091 31.2377 36.7423 22.8018 36.7423 22.8018L28.9014 18.2217H24.2873Z" fill="#C1063D"/>
<path style="mix-blend-mode:multiply" opacity="0.62" d="M13.9065 34.3489C13.7705 35.5423 13.5665 36.7902 13.3047 38.0891L15.2598 44.2469C15.5285 45.0942 15.5555 45.9997 15.338 46.8616L13.9507 52.3326C14.9197 53.1144 15.9642 53.7978 17.0687 54.3727C17.7692 51.2139 18.3608 48.6773 18.694 47.5723C20.4145 41.8837 13.9065 34.3489 13.9065 34.3489Z" fill="url(#paint9_linear_0_1529)"/>
<path style="mix-blend-mode:multiply" opacity="0.62" d="M14.1516 28.7419C14.1978 30.6143 14.1161 32.4877 13.9067 34.3489C16.0387 33.9306 23.7367 32.7372 34.1278 34.7093C34.971 33.3186 35.5524 31.3363 35.9435 29.388C33.0227 28.3815 25.5354 26.5318 14.1516 28.7419Z" fill="url(#paint10_linear_0_1529)"/>
<path d="M13.3051 21.6627L11.5574 22.6828C10.5607 23.262 9.74191 24.1032 9.18981 25.1151C8.63771 26.127 8.37346 27.2708 8.42577 28.4223L8.53798 30.9827L4.31152 40.5849L5.27719 57.035C5.27719 57.035 6.85488 57.7525 9.29283 57.035L10.9929 46.2836C11.1284 45.4163 11.0104 44.5284 10.6529 43.7266L10.3503 43.0466C10.3503 43.0466 17.4635 39.507 13.3051 21.6627Z" fill="#FFB99A"/>
<path d="M13.9512 52.3325L9.19089 75.0833C8.91374 76.4 8.29719 77.6214 7.40238 78.6263C5.38851 80.8795 4.09118 83.6813 3.67576 86.6746L1.69344 101.013L0.897793 102.798C0.695006 103.251 0.649103 103.758 0.767364 104.24C0.885625 104.722 1.16128 105.15 1.55063 105.457L4.3388 103.672C4.70802 103.433 5.13841 103.306 5.57817 103.306C6.01794 103.306 6.44833 103.433 6.81755 103.672L8.83047 104.995C8.90375 105.043 8.98781 105.073 9.07529 105.082C9.16277 105.09 9.25099 105.077 9.33221 105.043C9.41343 105.01 9.48518 104.957 9.54117 104.889C9.59715 104.821 9.63566 104.741 9.65332 104.655L9.83013 103.703C9.88527 103.404 9.864 103.096 9.76829 102.808C9.67258 102.52 9.50555 102.26 9.2827 102.054C9.19897 101.976 9.13842 101.877 9.10779 101.767C9.07717 101.657 9.07769 101.541 9.10928 101.431L14.6074 82.5161L17.0216 80.0612L23.771 62.4447L27.688 74.6855C28.2147 76.3448 28.2147 78.1265 27.688 79.7858C27.1313 81.5615 27.1623 83.4694 27.7764 85.2261L32.0573 97.426C32.2749 98.0545 32.347 98.7242 32.2681 99.3845C32.2366 99.6172 32.2629 99.854 32.3448 100.074C32.4266 100.294 32.5614 100.491 32.7373 100.646L33.0773 100.935L32.8393 104.019L35.5153 102.156L39.4323 99.2859L38.9325 97.9973C38.8225 97.7139 38.7771 97.4095 38.7999 97.1064V96.9874C38.816 96.7749 38.7707 96.5623 38.6694 96.3748C38.5682 96.1874 38.4152 96.0329 38.2286 95.9299C38.0243 95.8159 37.8513 95.6532 37.725 95.4563C37.5986 95.2594 37.5229 95.0343 37.5044 94.8011L36.3823 80.7072L36.9978 75.3315L34.4612 52.3325H13.9512Z" fill="#C1063D"/>
<path d="M9.72127 56.7835C9.72127 56.7835 7.89536 55.6002 4.62096 56.3516C4.62096 56.3516 4.22654 60.5475 4.79778 63.7709C6.07281 64.3372 7.45229 64.6302 8.84742 64.6311C8.84742 64.6311 9.27925 62.1592 11.1052 61.3363C11.1052 61.3363 10.6155 59.2962 9.44585 58.4326L9.72127 56.7835Z" fill="#C1063D"/>
<path style="mix-blend-mode:multiply" d="M24.2873 18.2217H19.6733L13.3047 21.6627C13.3047 21.6627 13.4577 22.2271 13.6447 23.2404C17.1707 22.6861 27.0483 21.5981 36.6845 23.951L36.7559 22.8086L28.9014 18.2217H24.2873Z" fill="url(#paint11_linear_0_1529)"/>
<path style="mix-blend-mode:multiply" opacity="0.4" d="M14.444 28.4155C11.4722 31.7851 9.6463 35.7668 8.72145 38.1741C8.50599 38.7364 8.44597 39.3464 8.54768 39.9399C8.6494 40.5334 8.90909 41.0886 9.29948 41.5471C9.69395 42.0129 10.0435 42.515 10.3433 43.0466C10.3433 43.0466 15.5865 40.4318 14.444 28.4155Z" fill="url(#paint12_linear_0_1529)"/>
<path style="mix-blend-mode:multiply" opacity="0.4" d="M5.28738 38.3645L4.31152 40.5814L4.85216 49.7722L5.28738 38.3645Z" fill="url(#paint13_linear_0_1529)"/>
<path style="mix-blend-mode:multiply" opacity="0.38" d="M13.9512 52.3325L9.19089 75.0833C8.91374 76.4 8.29719 77.6214 7.40238 78.6263C5.38851 80.8795 4.09118 83.6813 3.67576 86.6746L1.69344 101.013L0.897793 102.798C0.695006 103.251 0.649103 103.758 0.767364 104.24C0.885625 104.722 1.16128 105.15 1.55063 105.457L2.91071 104.58C3.40714 100.099 4.56321 90.1394 5.29086 87.7626C7.14057 81.5743 11.1222 83.0772 12.6761 77.2016C12.9107 76.3142 12.8087 74.1176 13.3085 71.8259C14.5292 66.236 16.2973 57.8 17.5316 52.3461L13.9512 52.3325Z" fill="url(#paint14_linear_0_1529)"/>
<path style="mix-blend-mode:multiply" opacity="0.38" d="M31.2374 77.3377C30.7342 74.6855 27.4972 72.7508 26.3037 70.3571L27.6876 74.6923C28.2143 76.3516 28.2143 78.1333 27.6876 79.7926C27.1309 81.5683 27.1619 83.4763 27.776 85.2329L32.0569 97.4261C32.2745 98.0545 32.3466 98.7242 32.2677 99.3846C32.2362 99.6172 32.2625 99.8541 32.3444 100.074C32.4262 100.294 32.561 100.491 32.7369 100.646L33.0769 100.935L32.8389 104.019L35.5149 102.156L35.5421 102.135C33.7366 99.4696 32.5669 92.5842 31.2272 87.2289C29.7311 81.2071 31.7372 79.9898 31.2374 77.3377Z" fill="url(#paint15_linear_0_1529)"/>
<path d="M31.7373 85.8314C31.5605 84.4407 31.7577 83.1112 31.9651 81.6763C32.1963 80.1088 32.4343 78.4903 32.1657 76.7222C31.7203 73.8014 26.1303 66.7902 24.5356 64.8385L25.0253 66.3652C27.1878 69.0854 31.2408 74.4713 31.5979 76.8072C31.8529 78.5073 31.6217 80.068 31.4007 81.5913C31.1932 82.9888 30.9824 84.4339 31.166 85.9028C31.7985 90.9045 33.6108 98.2183 35.3041 101.136L35.8005 100.847C34.1412 97.9939 32.3595 90.7787 31.7373 85.8314Z" fill="white"/>
<path d="M18.2114 52.3325C17.3172 56.457 13.611 72.9854 10.8806 77.1744C9.87414 78.7083 8.73647 80.1521 7.48038 81.4893C6.22911 82.8493 5.32805 83.8694 4.85882 85.8653C4.14138 88.9255 2.7745 100.524 2.41748 104.883L3.02611 104.492C3.43074 99.9218 4.72622 88.9017 5.40626 85.9979C5.84148 84.1346 6.65754 83.2336 7.89521 81.8735C9.17606 80.5179 10.3354 79.0524 11.36 77.494C14.2094 73.1214 17.9462 56.3108 18.7997 52.3325H18.2114Z" fill="white"/>
<path d="M28.3166 11.9143H20.2513L19.5713 19.439C19.5713 19.8164 21.6862 20.119 24.2976 20.119C26.9089 20.119 29.0239 19.8164 29.0239 19.439L28.3166 11.9143Z" fill="#FFB99A"/>
<path style="mix-blend-mode:multiply" opacity="0.43" d="M28.5342 14.2502L28.3166 11.9143H20.2513L19.5713 19.439C19.5713 19.779 21.2442 20.051 23.4543 20.119C22.7246 19.0443 22.1958 17.8462 21.8936 16.5828C25.7835 17.9905 27.725 15.7157 28.5342 14.2502Z" fill="url(#paint16_linear_0_1529)"/>
<path d="M28.9967 1.81915C28.4729 1.42988 27.8242 1.24711 27.1742 1.30572C27.1742 1.30572 22.3629 -2.51951 18.7485 2.93442C18.5857 3.18307 18.5162 3.48133 18.5523 3.77634C18.5884 4.07135 18.7278 4.34405 18.9457 4.54611L19.3129 4.88613C19.2755 5.02894 19.3129 10.9419 19.3129 10.9419C19.7536 12.1833 20.3379 13.369 21.0538 14.4747C21.3109 14.885 21.6678 15.2235 22.0912 15.4583C22.5146 15.6932 22.9906 15.8169 23.4748 15.8178H25.0423C25.5265 15.8169 26.0025 15.6932 26.4259 15.4583C26.8493 15.2235 27.2062 14.885 27.4632 14.4747C28.1837 13.3707 28.7725 12.1862 29.2177 10.9453C29.2177 10.9453 29.2551 6.27342 29.2177 6.13061L29.5815 5.60698C29.995 5.02327 30.1652 4.30159 30.0561 3.59465C29.9469 2.8877 29.567 2.25095 28.9967 1.81915Z" fill="#FFB99A"/>
<path d="M19.3163 8.63314C20.0473 8.17751 20.1561 6.42981 20.1561 6.42981L19.3265 6.66102C19.3095 7.28326 19.3129 7.9803 19.3163 8.63314Z" fill="#403635"/>
<path d="M29.2315 8.63314C28.5005 8.17751 28.4053 6.42981 28.4053 6.42981L29.2349 6.66102C29.2349 7.28326 29.2349 7.9803 29.2315 8.63314Z" fill="#403635"/>
<path d="M28.9967 1.81915C28.4729 1.42988 27.8242 1.24711 27.1742 1.30572C27.1742 1.30572 22.3629 -2.51951 18.7485 2.93442C18.5857 3.18307 18.5162 3.48133 18.5523 3.77634C18.5884 4.07135 18.7278 4.34405 18.9457 4.54611L19.3129 4.88613C19.3058 5.01184 19.3058 5.13785 19.3129 5.26356H29.7788C30.0796 4.69029 30.1662 4.02851 30.0228 3.39716C29.8795 2.7658 29.5156 2.20628 28.9967 1.81915Z" fill="#403635"/>
<path d="M29.2177 6.1306L29.5815 5.60697C29.7997 5.28297 29.948 4.91703 30.0167 4.5325C29.0885 2.03675 26.8614 3.51244 26.8614 3.51244C23.995 0.979289 21.1456 1.92455 19.5339 2.8664C19.3647 2.96594 19.2211 3.10359 19.1145 3.2684C19.0078 3.43321 18.9411 3.62064 18.9197 3.81576C18.8982 4.01088 18.9226 4.20832 18.9908 4.39237C19.0591 4.57642 19.1694 4.74199 19.3129 4.87592L29.2177 6.1306Z" fill="#2E2727"/>
<path d="M19.2925 4.85548L19.3265 4.88948C19.3265 4.94728 19.3265 5.90954 19.3265 7.02141C22.5788 6.15992 25.9994 6.15992 29.2517 7.02141C29.2517 6.8208 29.2517 6.64398 29.2517 6.50118C29.2483 6.25002 29.3232 6.00404 29.4659 5.79733L29.6019 5.60012C29.7244 5.4161 29.8302 5.22152 29.9181 5.01869C26.4438 4.08955 22.7937 4.03348 19.2925 4.85548Z" fill="#C1063D"/>
<path style="mix-blend-mode:multiply" opacity="0.43" d="M23.4885 15.7667C22.3154 15.7667 21.7884 13.7708 21.6149 12.7542C21.5383 12.3483 21.367 11.9662 21.1151 11.6389L19.3164 9.27576C19.3164 10.221 19.3164 10.9453 19.3164 10.9453C19.7548 12.1821 20.3368 13.3633 21.0505 14.4645C21.3061 14.8789 21.6632 15.2213 22.088 15.4593C22.5128 15.6973 22.9913 15.823 23.4783 15.8245H23.7571C23.6741 15.7823 23.5815 15.7624 23.4885 15.7667Z" fill="url(#paint17_linear_0_1529)"/>
<path style="mix-blend-mode:multiply" opacity="0.43" d="M25.0797 15.7667C26.2527 15.7667 26.7798 13.7708 26.9566 12.7542C27.0335 12.349 27.2035 11.9673 27.453 11.6389L29.2517 9.27576C29.2517 10.221 29.2517 10.9453 29.2517 10.9453C28.8114 12.1813 28.2295 13.3622 27.5176 14.4645C27.2612 14.879 26.9035 15.2213 26.4781 15.4593C26.0528 15.6972 25.5738 15.8229 25.0865 15.8245H24.811C24.8937 15.7814 24.9865 15.7614 25.0797 15.7667Z" fill="url(#paint18_linear_0_1529)"/>
<path d="M20.6323 7.53491C20.6323 7.53491 22.227 7.16769 23.4987 7.53491L23.7503 12.1286L25.328 11.9688" stroke="#825D5D" stroke-width="0.228494" stroke-miterlimit="10"/>
<path d="M27.6706 7.53491C27.6706 7.53491 26.0759 7.16769 24.8042 7.53491" stroke="#825D5D" stroke-width="0.228494" stroke-miterlimit="10"/>
<path d="M20.9146 8.6332H22.9241C22.9241 8.6332 22.108 7.44993 20.9146 8.6332Z" fill="#403635"/>
<path d="M27.1404 8.6332H25.1343C25.1343 8.6332 25.9367 7.44993 27.1404 8.6332Z" fill="#403635"/>
<path d="M22.4785 13.1487L25.5591 13.0297C25.9376 13.012 26.3047 12.8947 26.6234 12.6896L26.8614 12.5366" stroke="#825D5D" stroke-width="0.228494" stroke-miterlimit="10"/>
<path d="M23.6416 13.832H25.3281" stroke="#825D5D" stroke-width="0.228494" stroke-miterlimit="10"/>
</g>
<defs>
<linearGradient id="paint0_linear_0_1529" x1="11.5335" y1="65.5253" x2="9.7586" y2="61.6729" gradientUnits="userSpaceOnUse">
<stop stop-color="#C9DFFF"/>
<stop offset="0.02" stop-color="#F6F6F6"/>
<stop offset="1" stop-color="#B37D7C"/>
</linearGradient>
<linearGradient id="paint1_linear_0_1529" x1="10.153" y1="68.8406" x2="8.04149" y2="64.2537" gradientUnits="userSpaceOnUse">
<stop stop-color="#C9DFFF"/>
<stop offset="0.02" stop-color="#F6F6F6"/>
<stop offset="1" stop-color="#B37D7C"/>
</linearGradient>
<linearGradient id="paint2_linear_0_1529" x1="40.2416" y1="59.235" x2="42.8733" y2="68.0483" gradientUnits="userSpaceOnUse">
<stop stop-color="#C9DFFF"/>
<stop offset="0.02" stop-color="#F6F6F6"/>
<stop offset="1" stop-color="#B37D7C"/>
</linearGradient>
<linearGradient id="paint3_linear_0_1529" x1="38.8713" y1="63.3289" x2="40.1463" y2="67.5927" gradientUnits="userSpaceOnUse">
<stop stop-color="#C9DFFF"/>
<stop offset="0.02" stop-color="#F6F6F6"/>
<stop offset="1" stop-color="#B37D7C"/>
</linearGradient>
<linearGradient id="paint4_linear_0_1529" x1="18.7112" y1="8.71822" x2="20.3841" y2="8.71822" gradientUnits="userSpaceOnUse">
<stop stop-color="#F6F6F6"/>
<stop offset="1" stop-color="#B37D7C"/>
</linearGradient>
<linearGradient id="paint5_linear_0_1529" x1="18.0821" y1="8.89155" x2="19.3572" y2="8.89155" gradientUnits="userSpaceOnUse">
<stop stop-color="#F6F6F6"/>
<stop offset="1" stop-color="#B37D7C"/>
</linearGradient>
<linearGradient id="paint6_linear_0_1529" x1="29.7177" y1="8.71822" x2="28.0448" y2="8.71822" gradientUnits="userSpaceOnUse">
<stop stop-color="#F6F6F6"/>
<stop offset="1" stop-color="#B37D7C"/>
</linearGradient>
<linearGradient id="paint7_linear_0_1529" x1="30.3503" y1="8.89155" x2="29.0718" y2="8.89155" gradientUnits="userSpaceOnUse">
<stop stop-color="#F6F6F6"/>
<stop offset="1" stop-color="#B37D7C"/>
</linearGradient>
<linearGradient id="paint8_linear_0_1529" x1="40.3805" y1="48.2592" x2="32.2098" y2="35.3588" gradientUnits="userSpaceOnUse">
<stop stop-color="#C9DFFF"/>
<stop offset="0.02" stop-color="#F6F6F6"/>
<stop offset="1" stop-color="#B37D7C"/>
</linearGradient>
<linearGradient id="paint9_linear_0_1529" x1="20.0507" y1="49.0446" x2="8.6532" y2="38.4359" gradientUnits="userSpaceOnUse">
<stop stop-color="#F6F6F6"/>
<stop offset="1" stop-color="#6113C4"/>
</linearGradient>
<linearGradient id="paint10_linear_0_1529" x1="34.1856" y1="28.1877" x2="11.1288" y2="36.3074" gradientUnits="userSpaceOnUse">
<stop stop-color="#F6F6F6"/>
<stop offset="1" stop-color="#6113C4"/>
</linearGradient>
<linearGradient id="paint11_linear_0_1529" x1="25.0252" y1="22.6419" x2="25.0252" y2="14.6073" gradientUnits="userSpaceOnUse">
<stop stop-color="#F6F6F6"/>
<stop offset="1" stop-color="#6113C4"/>
</linearGradient>
<linearGradient id="paint12_linear_0_1529" x1="7.76259" y1="45.1989" x2="14.4304" y2="31.5811" gradientUnits="userSpaceOnUse">
<stop stop-color="#F6F6F6"/>
<stop offset="1" stop-color="#B37D7C"/>
</linearGradient>
<linearGradient id="paint13_linear_0_1529" x1="5.02557" y1="47.6097" x2="4.78755" y2="39.0105" gradientUnits="userSpaceOnUse">
<stop stop-color="#F6F6F6"/>
<stop offset="1" stop-color="#B37D7C"/>
</linearGradient>
<linearGradient id="paint14_linear_0_1529" x1="14.3524" y1="81.139" x2="-1.63196" y2="73.6858" gradientUnits="userSpaceOnUse">
<stop stop-color="#F6F6F6"/>
<stop offset="1" stop-color="#471785"/>
</linearGradient>
<linearGradient id="paint15_linear_0_1529" x1="33.1857" y1="89.2928" x2="19.7821" y2="81.4791" gradientUnits="userSpaceOnUse">
<stop stop-color="#F6F6F6"/>
<stop offset="1" stop-color="#471785"/>
</linearGradient>
<linearGradient id="paint16_linear_0_1529" x1="24.046" y1="20.714" x2="24.046" y2="15.8891" gradientUnits="userSpaceOnUse">
<stop stop-color="#F6F6F6"/>
<stop offset="1" stop-color="#B37D7C"/>
</linearGradient>
<linearGradient id="paint17_linear_0_1529" x1="22.9512" y1="15.6103" x2="18.1705" y2="9.06495" gradientUnits="userSpaceOnUse">
<stop stop-color="#F6F6F6"/>
<stop offset="1" stop-color="#B37D7C"/>
</linearGradient>
<linearGradient id="paint18_linear_0_1529" x1="25.6203" y1="15.6103" x2="30.3976" y2="9.06495" gradientUnits="userSpaceOnUse">
<stop stop-color="#F6F6F6"/>
<stop offset="1" stop-color="#B37D7C"/>
</linearGradient>
<clipPath id="clip0_0_1529">
<rect width="50" height="74" fill="white"/>
</clipPath>
</defs>
</svg>
