<svg width="65" height="64" viewBox="0 0 65 64" fill="none" xmlns="http://www.w3.org/2000/svg">
<g opacity="0.6" clip-path="url(#clip0_0_1409)">
<path d="M27.3753 34.5317C27.5992 37.7182 27.0575 43.1241 27.0575 43.1241C27.0575 43.1241 26.8534 46.168 25.2519 47.8444C25.0153 48.0912 25.7538 47.3289 25.7538 47.3289C25.7538 47.3289 24.7084 48.402 24.4899 48.4624C24.2714 48.5227 25.2699 47.2887 25.2699 47.2887C25.2699 47.2887 24.1757 48.5995 23.9374 48.53C23.699 48.4605 24.6596 46.8847 24.6596 46.8847C24.6596 46.8847 23.8218 48.6653 23.5762 48.6178C23.3054 48.5629 24.5152 44.2137 23.9518 44.6415C23.7713 44.7841 22.8684 45.8554 22.5308 45.711C22.1931 45.5665 24.3021 43.1698 24.3021 43.1698C24.3514 43.0897 24.3682 42.9934 24.3491 42.9011L21.9711 30.528C21.9711 30.528 16.8612 21.3525 17.8181 20.4731C21.1314 17.4694 26.8336 26.8388 27.3753 34.5317Z" fill="#FFB99A"/>
<path d="M0.0542364 34.5316C-0.16966 37.7181 0.372027 43.124 0.372027 43.124C0.372027 43.124 0.576062 46.1679 2.17765 47.8443C2.41418 48.0911 1.67568 47.3288 1.67568 47.3288C1.67568 47.3288 2.72114 48.4019 2.93962 48.4623C3.1581 48.5226 2.15959 47.2886 2.15959 47.2886C2.15959 47.2886 3.25379 48.5994 3.49214 48.5299C3.73048 48.4604 2.76989 46.8846 2.76989 46.8846C2.76989 46.8846 3.6077 48.6652 3.85326 48.6177C4.1241 48.5628 2.91434 44.2136 3.47769 44.6414C3.65825 44.784 4.56106 45.8553 4.89871 45.7109C5.23636 45.5664 3.1274 43.1697 3.1274 43.1697C3.07808 43.0896 3.06126 42.9933 3.08046 42.901L5.01066 30.9173C5.01066 30.9173 10.5629 21.3524 9.59874 20.4748C6.29807 17.4693 0.595922 26.8387 0.0542364 34.5316Z" fill="#FFB99A"/>
<path d="M24.6485 25.2354C22.581 21.2555 19.7859 18.696 17.8304 20.4821C17.8042 20.5068 17.7833 20.5366 17.769 20.5699C20.5046 21.4035 22.767 23.0836 24.6485 25.2354Z" fill="#E69977"/>
<path d="M26.1869 32.6691C26.3971 33.2348 26.8023 33.7044 27.3277 33.9911C27.23 33.0329 27.069 32.0823 26.8458 31.1459C26.0298 31.208 25.8584 31.8206 26.1869 32.6691Z" fill="#E69977"/>
<path d="M1.5363 33.1773C1.62475 32.3252 1.1446 31.8169 0.501984 31.517C0.279792 32.5096 0.130162 33.5174 0.0543169 34.5323C0.0398761 34.7517 0.0272399 34.9821 0.0200195 35.2198C0.794409 34.7938 1.44244 34.0971 1.5363 33.1773Z" fill="#E69977"/>
<path d="M9.14003 20.1494C7.38136 19.1787 5.10086 21.1787 3.25732 24.3633C4.85721 22.5026 6.87454 21.0576 9.14003 20.1494Z" fill="#E69977"/>
<path d="M21.171 72.3126L21.0194 71.5502C21.0392 67.9049 23.4226 53.8572 22.4638 37.5573L5.88285 38.3379L5.37728 71.4058L5.20755 72.5027L1.46631 74.3418V74.8172L8.25724 74.8574L8.42516 74.1261C8.42516 74.1261 11.1155 63.1096 11.957 59.3326C12.6034 56.4221 13.5712 47.3763 13.5712 47.3763C13.8655 46.4787 14.8477 46.4879 15.1619 47.3763L16.5956 59.1004L18.4156 73.9744L18.4951 73.9232L18.6179 74.7806H24.5475V74.3053L21.171 72.3126Z" fill="#FFB99A"/>
<path d="M7.50352 58.7862L7.57753 58.7606C7.19665 58.2541 6.3645 58.0474 5.57747 57.9249L5.55762 59.2324C5.94571 59.1757 6.33381 59.1226 6.71649 59.0349C6.98365 58.9727 7.23997 58.8648 7.50352 58.7862Z" fill="#E69977"/>
<path d="M22.4585 37.5573L5.87754 38.3379L5.71143 49.2429C8.18246 50.3238 10.5892 51.5496 12.9195 52.9139C13.2806 50.018 13.5659 47.3654 13.5659 47.3654C13.8602 46.4677 14.8424 46.4769 15.1566 47.3654L15.4148 49.4751C17.7826 50.4318 20.1558 51.3709 22.5344 52.2923C22.7574 47.3825 22.7321 42.4644 22.4585 37.5573Z" fill="#E69977"/>
<path d="M20.1288 58.4003C20.0154 58.4624 19.9073 58.534 19.8057 58.6143C20.0656 58.6838 20.3995 58.8483 20.6017 58.8886C21.1048 58.9848 21.6139 59.0459 22.1252 59.0714C22.1505 58.7459 22.1758 58.4186 22.1992 58.084C21.7949 58.0885 21.3914 58.1215 20.9916 58.1827C20.6971 58.2238 20.4079 58.2967 20.1288 58.4003Z" fill="#E69977"/>
<path d="M22.265 39.6066C23.2292 36.2885 23.7095 25.9429 20.5298 22.239C18.6989 20.5791 16.2378 19.5608 15.131 19.5553C14.0855 19.5553 12.1698 19.3048 11.1785 19.5553C9.82968 19.8953 8.28949 20.5791 7.13028 22.4346C6.16427 23.9831 3.46668 30.2428 6.07038 40.6853" fill="#FFB99A"/>
<path d="M7.74345 25.0142C7.30661 25.8332 6.84089 26.6394 6.39503 27.4347C5.97445 28.1659 5.53761 28.8972 5.09175 29.612C5.03158 30.2214 4.99367 30.8716 4.97803 31.5627C6.0286 29.431 7.03585 27.2573 7.74345 25.0142Z" fill="#E69977"/>
<path d="M19.2785 28.3945C20.3407 29.5308 21.5841 30.4783 22.9566 31.1971C22.9295 30.5591 22.8861 29.9174 22.8229 29.2885C21.8514 28.7486 20.9677 28.0604 20.203 27.2483C19.39 26.3784 18.7739 25.3397 18.3974 24.2044C18.0056 22.9923 18.0489 21.751 18.0363 20.5041C17.581 20.2636 17.1098 20.0553 16.6261 19.8807C16.3065 22.9868 17.1208 26.0472 19.2785 28.3945Z" fill="#E69977"/>
<path d="M15.523 16.0965L15.9383 20.0618C15.9383 20.0618 13.3671 22.5115 10.9746 19.868L12.0363 15.8881L15.523 16.0965Z" fill="#FFB99A"/>
<path d="M15.5899 12.5059L15.5177 16.6943C15.5177 16.6943 13.3148 20.1788 11.8071 16.0105L13.183 12.1714L15.5899 12.5059Z" fill="#C1063D"/>
<path d="M11.1567 13.7583L11.8787 13.6412L11.9563 14.4385L11.2343 14.5573C11.1833 14.5673 11.1309 14.5663 11.0803 14.5547C11.0297 14.543 10.982 14.5208 10.9402 14.4896C10.8985 14.4583 10.8636 14.4186 10.8378 14.373C10.812 14.3274 10.7958 14.2768 10.7903 14.2245C10.7822 14.1144 10.8154 14.0052 10.8833 13.9187C10.9513 13.8323 11.0489 13.775 11.1567 13.7583Z" fill="#FFB99A" stroke="#FFB99A" stroke-width="0.252781" stroke-miterlimit="10"/>
<path d="M11.1985 13.9629L11.4994 13.9136L11.5318 14.2445L11.2309 14.2921C11.2101 14.296 11.1887 14.2955 11.1681 14.2906C11.1475 14.2857 11.1281 14.2765 11.1112 14.2636C11.0942 14.2507 11.0801 14.2344 11.0697 14.2157C11.0593 14.197 11.0528 14.1763 11.0507 14.1549C11.0478 14.1101 11.0612 14.0658 11.0885 14.0303C11.1157 13.9949 11.1549 13.9709 11.1985 13.9629Z" fill="#E78D87" stroke="#E78D87" stroke-width="0.256731" stroke-miterlimit="10"/>
<path d="M16.7596 14.0746L16.0376 14.0984L16.0647 13.2902L16.7867 13.2664C16.8386 13.2633 16.8905 13.2712 16.9392 13.2897C16.9878 13.3082 17.0321 13.3368 17.0692 13.3736C17.1063 13.4105 17.1353 13.4548 17.1544 13.5038C17.1735 13.5527 17.1823 13.6051 17.1802 13.6577C17.174 13.7678 17.1274 13.8716 17.0496 13.9487C16.9718 14.0258 16.8684 14.0707 16.7596 14.0746Z" fill="#FFB99A" stroke="#FFB99A" stroke-width="0.252781" stroke-miterlimit="10"/>
<path d="M16.7879 13.526H16.4887L16.4707 13.8606H16.7716C16.8173 13.8607 16.8614 13.8432 16.8948 13.8116C16.9283 13.7801 16.9487 13.7368 16.9519 13.6905C16.9535 13.6683 16.9504 13.646 16.9427 13.6252C16.935 13.6043 16.923 13.5854 16.9074 13.5698C16.8918 13.5541 16.873 13.5421 16.8524 13.5345C16.8317 13.527 16.8097 13.524 16.7879 13.526Z" fill="#E78D87" stroke="#E78D87" stroke-width="0.256731" stroke-miterlimit="10"/>
<path d="M13.7337 17.0855L13.5892 17.0599C11.4911 17.0398 11.3773 15.5626 11.4965 14.2171V14.1129C11.6157 12.7655 12.6358 10.6906 13.9864 10.7198V10.7052C15.337 10.7345 16.5143 12.8716 16.3897 14.2189V14.3213C16.2687 15.6687 16.1279 17.2372 13.7337 17.0855Z" fill="#FFB99A" stroke="#FFB99A" stroke-width="0.252781" stroke-miterlimit="10"/>
<path d="M13.5006 13.8588C13.5002 13.9016 13.4834 13.9427 13.4538 13.9734C13.4241 14.004 13.384 14.0219 13.3416 14.0233C13.3021 14.0145 13.2674 13.9906 13.2449 13.9565C13.2223 13.9224 13.2136 13.8809 13.2206 13.8405C13.2211 13.7976 13.2378 13.7565 13.2675 13.7259C13.2971 13.6952 13.3372 13.6773 13.3796 13.6759C13.4191 13.6847 13.4538 13.7087 13.4764 13.7427C13.4989 13.7768 13.5076 13.8184 13.5006 13.8588Z" fill="#C1063D"/>
<path d="M14.7736 13.8533C14.7727 13.8963 14.7555 13.9374 14.7256 13.968C14.6957 13.9986 14.6553 14.0164 14.6128 14.0178C14.5719 14.0082 14.5365 13.9827 14.5141 13.9467C14.4918 13.9107 14.4844 13.8673 14.4936 13.8258C14.4945 13.7828 14.5117 13.7417 14.5416 13.7111C14.5715 13.6805 14.6119 13.6626 14.6544 13.6613C14.6952 13.6708 14.7307 13.6964 14.7531 13.7324C14.7754 13.7684 14.7828 13.8118 14.7736 13.8533Z" fill="#C1063D"/>
<path d="M14.2245 14.6597L13.7245 14.6377C13.7095 14.6357 13.6952 14.63 13.6828 14.6212C13.6704 14.6123 13.6603 14.6005 13.6534 14.5869C13.6465 14.5732 13.643 14.5581 13.6431 14.5427C13.6432 14.5274 13.647 14.5123 13.6541 14.4988L13.9122 13.9392C13.9181 13.9237 13.9285 13.9103 13.9421 13.9009C13.9556 13.8915 13.9716 13.8865 13.988 13.8865C14.0045 13.8865 14.0205 13.8915 14.034 13.9009C14.0476 13.9103 14.058 13.9237 14.0639 13.9392L14.3057 14.5189C14.313 14.5333 14.3166 14.5494 14.3161 14.5657C14.3156 14.5819 14.3112 14.5977 14.3031 14.6117C14.295 14.6258 14.2836 14.6375 14.2698 14.6459C14.2561 14.6542 14.2405 14.659 14.2245 14.6597Z" fill="#D97570"/>
<path d="M12.7191 13.2318C12.553 13.3031 12.8617 12.91 13.0801 12.8935C13.1702 12.8785 13.2626 12.8987 13.3386 12.9499C13.4146 13.0011 13.4687 13.0796 13.4899 13.1696C13.2331 13.1048 12.9625 13.1266 12.7191 13.2318Z" fill="#C1063D"/>
<path d="M15.1474 13.0782C15.3189 13.1367 14.9669 12.771 14.7629 12.771C14.6722 12.7639 14.5821 12.7918 14.5108 12.8491C14.4396 12.9064 14.3923 12.9889 14.3784 13.08C14.628 12.9962 14.8975 12.9956 15.1474 13.0782Z" fill="#C1063D"/>
<path d="M16.2613 11.5516C16.352 11.5283 16.4313 11.4725 16.4844 11.3945C16.5376 11.3165 16.5609 11.2216 16.5502 11.1275C16.532 11.0323 16.4813 10.9467 16.4071 10.8855C16.3328 10.8244 16.2397 10.7916 16.1439 10.7929C16.1678 10.728 16.1722 10.6574 16.1566 10.59C16.1457 10.5531 16.1276 10.5189 16.1035 10.4892C16.0793 10.4595 16.0495 10.435 16.0159 10.4171C15.9822 10.3992 15.9454 10.3883 15.9076 10.3851C15.8697 10.3818 15.8316 10.3862 15.7955 10.398C15.7684 9.87152 15.279 9.39802 14.7121 9.34501C14.1451 9.29199 13.5475 9.66311 13.3994 10.175L13.004 9.82764C12.9652 9.78794 12.9175 9.75844 12.8649 9.74172C12.8011 9.73649 12.7377 9.75637 12.6879 9.79722C12.6382 9.83807 12.6058 9.89676 12.5977 9.9611C12.5778 10.0836 12.6158 10.2061 12.5977 10.3267C12.4587 10.2463 12.3521 10.1256 12.2167 10.0397C12.1507 9.99123 12.0732 9.96115 11.9921 9.95249C11.911 9.94383 11.829 9.95688 11.7545 9.99035C11.6895 10.0351 11.6428 10.1023 11.6232 10.1793C11.6036 10.2564 11.6124 10.338 11.6479 10.409C11.6921 10.4974 11.7535 10.5757 11.8285 10.6394C11.7568 10.6086 11.6782 10.5978 11.601 10.6083C11.5484 10.6124 11.4972 10.6271 11.4503 10.6517C11.4035 10.6762 11.362 10.71 11.3283 10.7511C11.2946 10.7922 11.2694 10.8398 11.2542 10.8909C11.239 10.9421 11.2342 10.9958 11.2399 11.0489C11.2506 11.1113 11.2761 11.1701 11.3141 11.2204C11.3522 11.2707 11.4016 11.311 11.4584 11.3377C11.4259 11.3871 11.3952 11.4364 11.3681 11.4876C11.2071 11.8097 11.1336 12.1693 11.155 12.5297C11.155 12.6979 11.3807 13.6723 11.545 13.7034C11.6335 13.7198 12.4045 11.9831 12.6284 11.5626C12.8722 11.4858 13.1394 11.3213 13.1556 11.1787C13.2098 11.3615 13.2911 11.5699 13.4861 11.6302C13.567 11.6494 13.6515 11.6467 13.7311 11.6223C13.8106 11.5979 13.8824 11.5527 13.9393 11.4913C14.0423 11.3718 14.1192 11.2316 14.165 11.0799C14.3039 11.2788 14.5 11.4294 14.7265 11.5114C14.7961 11.5429 14.8715 11.5592 14.9477 11.5592C15.0239 11.5592 15.0993 11.5429 15.1689 11.5114C15.2095 11.486 15.2411 11.4482 15.2592 11.4035V11.5461C15.3495 11.718 16.2956 13.1622 16.4455 13.1823C16.5592 13.197 16.3877 11.9026 16.3064 11.6595C16.2902 11.6229 16.2757 11.5863 16.2613 11.5516ZM15.2339 11.2006L15.2664 11.2171V11.25C15.2592 11.2314 15.2481 11.2145 15.2339 11.2006Z" fill="black" stroke="black" stroke-width="0.177737" stroke-miterlimit="10"/>
<path d="M13.0962 14.9739H14.7208C14.7052 15.1659 14.6179 15.3447 14.4767 15.4738C14.3355 15.6029 14.151 15.6726 13.9608 15.6687C13.7553 15.6924 13.5488 15.6326 13.3868 15.5023C13.2247 15.3721 13.1202 15.182 13.0962 14.9739Z" fill="white"/>
<path d="M10.8897 19.4036C10.8897 19.4036 10.9727 23.5992 13.9755 23.5992C16.3842 23.5992 16.0718 19.5498 16.0718 19.5498L18.3126 19.9886C18.3126 19.9886 18.5058 28.3817 22.7472 30.0435C22.7472 30.0435 23.8811 38.539 22.6515 39.316C16.7706 43.0253 5.67864 39.901 5.67864 39.901C5.67864 39.901 4.81194 38.9247 5.00514 31.2154C5.00514 31.2154 7.71357 26.7254 9.33863 19.9904L10.8897 19.4036Z" fill="white"/>
<path d="M10.9036 19.6321C10.891 19.4895 10.8892 19.4036 10.8892 19.4036L9.34765 19.9887C9.27183 20.3014 9.1906 20.6068 9.10938 20.903C9.71589 20.4971 10.3116 20.0692 10.9036 19.6321Z" fill="#CAD6D8"/>
<path d="M16.0808 20.252C16.8714 20.6177 17.6494 21.0127 18.4148 21.4369C18.3245 20.561 18.3119 19.9887 18.3119 19.9887L16.0718 19.5498C16.0718 19.5498 16.0934 19.8351 16.0808 20.252Z" fill="#CAD6D8"/>
<path d="M20.9614 39.6323C18.1627 40.8096 15.0137 40.6597 12.2204 39.5354C9.42713 38.4111 7.2008 36.7438 5.58838 34.1405C5.29807 33.6376 5.04052 33.1161 4.81738 32.5792C4.83544 38.9065 5.68408 39.8919 5.68408 39.8919C5.68408 39.8919 16.7706 43.0162 22.6569 39.3069C22.8375 39.1899 22.9729 38.901 23.0632 38.4988C22.3973 38.9392 21.6939 39.3186 20.9614 39.6323Z" fill="#CAD6D8"/>
<path d="M5.68432 39.8992C4.81762 43.8042 5.29972 49.9542 5.29972 49.9542L13.4936 50.3454L13.9252 46.9742C13.9481 46.863 14.0088 46.7634 14.0967 46.6927C14.1846 46.6221 14.2941 46.5848 14.4063 46.5874C14.5186 46.59 14.6263 46.6323 14.7109 46.707C14.7955 46.7817 14.8516 46.884 14.8695 46.9962L15.422 50.3454L23.2295 50.2467C23.2295 50.2467 23.7116 43.4148 22.6517 39.316C17.3486 41.6561 12.8183 41.0711 5.68432 39.8992Z" fill="#C1063D"/>
</g>
<g clip-path="url(#clip1_0_1409)">
<path d="M54.8673 71.6555L54.6946 70.7874C54.7172 66.6365 54.2423 47.7472 51.5571 30.3297L41.7602 30.5795L36.8772 70.623L36.6839 71.872L32.4238 73.9662V74.5074H39.1758L39.367 73.6747L39.4287 73.7143C39.4287 73.7143 42.3071 60.8182 43.257 56.5195C43.993 53.2055 46.2074 43.2633 46.2074 43.2633C46.5404 42.2391 47.6589 42.2495 48.0187 43.2633L49.6512 56.6111L51.7216 73.5478L51.8121 73.4895L51.9539 74.4658H58.7059V73.9141L54.8673 71.6555Z" fill="#FFB99A"/>
<path d="M40.1169 57.2274C39.9078 57.068 39.6873 56.9246 39.4571 56.7985C39.178 56.6687 38.8926 56.5533 38.602 56.4529L38.4458 57.7438L38.6513 57.7084C39.1501 57.5823 39.6398 57.4216 40.1169 57.2274Z" fill="#F2A988"/>
<path d="M48.0163 43.2508L48.2753 45.3824C48.4702 45.4266 48.6524 45.5157 48.8078 45.6426C50.4691 46.9708 52.1139 48.3225 53.7423 49.6978C53.2673 43.6047 52.5704 36.8641 51.5629 30.338L41.766 30.5878L40.0513 44.6559C41.6961 46.2297 43.273 47.8742 44.8109 49.5541C45.5388 46.2838 46.2132 43.2591 46.2132 43.2591C46.538 42.2266 47.6565 42.237 48.0163 43.2508Z" fill="#F2A988"/>
<path d="M52.3237 57.4814C52.3073 57.4814 52.297 57.4814 52.2847 57.4918C52.4734 57.621 52.6705 57.7372 52.8746 57.8395C53.3332 58.0237 53.8081 58.1631 54.2928 58.256C54.2682 57.7687 54.2394 57.2711 54.2106 56.7672C54.0051 56.8255 53.7872 56.8838 53.5775 56.9504C53.1911 57.0795 52.704 57.421 52.3237 57.4814Z" fill="#F2A988"/>
<path d="M57.7005 13.7969C57.3656 12.957 56.774 12.2477 56.0123 11.7728C55.2506 11.2978 54.3587 11.0822 53.4672 11.1574C52.3611 11.2489 49.2483 11.5737 47.9879 11.5737C46.7975 11.5737 44.6489 11.5737 43.4873 11.5737C42.2763 11.5737 40.101 11.3967 39.0422 11.351C38.0527 11.3106 37.0765 11.5919 36.2563 12.1538C35.4361 12.7156 34.815 13.5285 34.484 14.4735C33.2894 16.9049 29.7675 24.2325 30.3164 24.9715C30.9744 25.8604 38.6577 31.9743 38.6577 31.9743C38.6577 31.9743 40.1956 36.1689 40.6891 36.502L41.6759 33.1713L40.7713 33.3378L51.7895 33.6542L51.8265 36.5041C52.322 36.171 53.8578 31.9764 53.8578 31.9764C53.8578 31.9764 61.5412 25.8624 62.2012 24.9736C62.82 24.1326 58.2536 14.9065 57.7005 13.7969ZM36.2439 23.8078L39.1224 20.2689L40.8474 30.5816L36.2439 23.8078ZM52.5441 29.2535C52.8442 26.2455 53.5351 22.0967 53.7119 19.9941L56.2737 23.8078L52.5441 29.2535Z" fill="#FFB99A"/>
<path d="M30.3161 24.9677C30.706 25.394 31.1257 25.7913 31.5719 26.1566C31.6979 25.7812 31.7787 25.3918 31.8124 24.9968C31.8926 23.9557 31.4301 23.3727 30.6778 23.0292C30.3304 24.0286 30.1598 24.7594 30.3161 24.9677Z" fill="#F2A988"/>
<path d="M41.25 33.9706C41.108 33.2325 41.0153 32.4856 40.9725 31.7349C40.6273 32.7664 40.2223 33.7763 39.7598 34.7596C40.1277 35.6131 40.4915 36.3646 40.6888 36.4978L41.3527 34.2579C41.3047 34.1678 41.2701 34.071 41.25 33.9706Z" fill="#F2A988"/>
<path d="M52.1941 35.5257C52.2229 35.6173 52.2455 35.7089 52.2722 35.7984C52.636 35.0781 53.0944 33.9561 53.4192 33.1109C53.1451 32.5197 52.8854 31.925 52.6402 31.3269C52.3873 32.6238 52.2044 33.9311 52.0708 35.253C52.1211 35.3393 52.1624 35.4307 52.1941 35.5257Z" fill="#F2A988"/>
<path d="M54.3759 11.3281C55.8826 12.2306 57.1916 13.435 58.2227 14.8677C57.9739 14.3555 57.7868 13.9807 57.7005 13.8058C57.3655 12.9657 56.7739 12.2563 56.0122 11.7812C55.2505 11.3061 54.3586 11.0904 53.4671 11.1657C53.2759 11.1802 53.021 11.2052 52.729 11.2323C52.8832 11.2594 53.0353 11.2885 53.1875 11.3218C53.3666 11.2108 53.5726 11.1526 53.7826 11.1537C53.9925 11.1548 54.198 11.2152 54.3759 11.3281Z" fill="#F2A988"/>
<path d="M51.6677 13.9426L51.5999 13.7803C51.4088 16.6051 51.8157 19.686 53.532 21.6199C53.5587 21.4118 53.5834 21.2036 53.606 21.01C53.6156 20.8265 53.6355 20.6437 53.6656 20.4625C53.6841 20.296 53.6985 20.1357 53.7108 19.9879L53.7519 20.0483C53.7992 19.8526 53.8547 19.6569 53.9164 19.4633C52.8332 17.9083 51.9925 16.2408 51.678 14.2986C51.6604 14.1808 51.6569 14.0613 51.6677 13.9426Z" fill="#F2A988"/>
<path d="M39.5272 22.6462C41.7738 19.5882 43.2886 15.0959 41.8087 11.5153L41.3339 11.4883C41.3565 14.5234 40.4644 17.6605 39.001 20.4229L39.1284 20.2668L39.5272 22.6462Z" fill="#F2A988"/>
<path d="M62.2003 24.9677C62.3319 24.7886 62.225 24.2202 61.9701 23.431L61.8735 23.4435C60.0935 23.5809 59.5241 25.4424 60.2004 26.7958C61.2199 25.9296 62.0071 25.2279 62.2003 24.9677Z" fill="#F2A988"/>
<path d="M48.0925 8.10559L48.6271 12.04C48.6271 12.04 46.8034 17.1422 43.7954 12.8623L44.4451 8.24298L48.0925 8.10559Z" fill="#FFB99A"/>
<path d="M47.7533 4.03165L48.111 8.19503C48.111 8.19503 46.6163 12.9059 44.2827 8.18255L45.212 3.90466L47.7533 4.03165Z" fill="black"/>
<path d="M43.2873 5.92819L44.0293 5.71997L44.2019 6.6153L43.462 6.82351C43.4075 6.8369 43.3509 6.83886 43.2956 6.82926C43.2404 6.81966 43.1876 6.79872 43.1406 6.76771C43.0937 6.7367 43.0535 6.69628 43.0225 6.64895C42.9915 6.60161 42.9704 6.54835 42.9605 6.49245C42.9366 6.37412 42.9568 6.25102 43.0171 6.14685C43.0774 6.04268 43.1737 5.9648 43.2873 5.92819Z" fill="#FFB99A" stroke="#FFB99A" stroke-width="0.274344" stroke-miterlimit="10"/>
<path d="M43.3529 6.15288L43.6587 6.06543L43.7284 6.43605L43.4227 6.5235C43.4003 6.52929 43.3769 6.53026 43.3541 6.52636C43.3312 6.52245 43.3095 6.51375 43.2902 6.50081C43.2708 6.48788 43.2544 6.47099 43.2419 6.45123C43.2294 6.43147 43.2211 6.40928 43.2175 6.38608C43.209 6.33721 43.2179 6.28686 43.2428 6.2441C43.2676 6.20135 43.3067 6.16899 43.3529 6.15288Z" fill="#B8532E"/>
<path d="M49.1472 5.6972L48.3908 5.8013L48.3291 4.88308L49.0855 4.77897C49.1415 4.77323 49.198 4.7792 49.2516 4.7965C49.3052 4.8138 49.3548 4.84206 49.3972 4.87954C49.4396 4.91701 49.4739 4.9629 49.4981 5.01437C49.5222 5.06584 49.5357 5.12178 49.5377 5.17874C49.5478 5.29887 49.5135 5.41851 49.4413 5.51436C49.3691 5.6102 49.2642 5.67539 49.1472 5.6972Z" fill="#FFB99A" stroke="#FFB99A" stroke-width="0.274344" stroke-miterlimit="10"/>
<path d="M49.1097 5.07248L48.7979 5.10996L48.8184 5.48891L49.1303 5.45143C49.1769 5.44128 49.2187 5.41493 49.2482 5.37692C49.2778 5.33892 49.2934 5.29164 49.2924 5.24322C49.2928 5.21942 49.2882 5.19581 49.279 5.17393C49.2697 5.15205 49.2561 5.1324 49.2388 5.11628C49.2216 5.10015 49.2011 5.08791 49.1789 5.08036C49.1567 5.07281 49.1331 5.07013 49.1097 5.07248Z" fill="#B8532E"/>
<path d="M46.2791 9.08185H46.2626C44.4801 9.15679 43.7235 7.94109 43.6926 6.4048V6.28614C43.6638 4.74985 44.4883 2.29137 45.8946 2.17896V2.1623C47.303 2.04989 48.7628 4.34392 48.7936 5.88229V5.99887C48.8183 7.5414 48.2878 8.95071 46.2791 9.08185Z" fill="#FFB99A" stroke="#FFB99A" stroke-width="0.274344" stroke-miterlimit="10"/>
<path d="M46.3694 7.76429C45.9172 7.80593 45.5472 7.5186 45.5308 7.12299V7.06885L47.1751 6.92102V6.97516C47.1642 7.18553 47.075 7.38391 46.9255 7.53034C46.776 7.67677 46.5773 7.76036 46.3694 7.76429Z" fill="white"/>
<path d="M45.7365 5.78866C45.7365 5.9011 45.6707 5.99687 45.5905 5.99687C45.5103 5.99687 45.4424 5.90734 45.4424 5.78866C45.4424 5.66998 45.5061 5.58044 45.5884 5.58044C45.6707 5.58044 45.7344 5.67622 45.7365 5.78866Z" fill="black"/>
<path d="M47.0544 5.64706C47.0544 5.75949 46.9865 5.85527 46.9063 5.85527C46.8261 5.85527 46.7582 5.76366 46.7603 5.64706C46.7624 5.53046 46.8261 5.43884 46.9084 5.43884C46.9907 5.43884 47.0544 5.53254 47.0544 5.64706Z" fill="black"/>
<path d="M46.5791 6.61934L46.057 6.64641C45.9933 6.64641 45.946 6.56937 45.9686 6.4965L46.1742 5.83646C46.1763 5.81795 46.1846 5.80076 46.1978 5.78775C46.211 5.77473 46.2281 5.7667 46.2464 5.76499C46.2648 5.76328 46.2831 5.76801 46.2984 5.77836C46.3137 5.78872 46.325 5.80409 46.3304 5.82188L46.649 6.44653C46.6597 6.46171 46.6664 6.47939 46.6685 6.49791C46.6706 6.51644 46.6681 6.53521 46.6611 6.55247C46.6541 6.56974 46.643 6.58492 46.6286 6.59661C46.6143 6.60831 46.5972 6.61613 46.5791 6.61934Z" fill="#B8532E"/>
<path d="M44.8975 5.21834C44.7516 5.34535 44.9427 4.8269 45.1483 4.74777C45.2385 4.70512 45.3418 4.70046 45.4354 4.73481C45.529 4.76915 45.6054 4.83971 45.6477 4.931C45.3722 4.93492 45.1067 5.03659 44.8975 5.21834Z" fill="black"/>
<path d="M47.3149 4.81863C47.4855 4.90817 47.1833 4.44593 46.9634 4.41678C46.8664 4.39703 46.7657 4.41676 46.683 4.47171C46.6003 4.52666 46.5422 4.6124 46.5215 4.71036C46.7903 4.65132 47.0711 4.68964 47.3149 4.81863Z" fill="black"/>
<path d="M48.397 3.00124C48.3805 2.95961 48.362 2.92214 48.3435 2.88467C48.5245 2.8014 48.6334 2.74727 48.6334 2.74727C48.5858 1.7631 48.2462 0.816338 47.6589 0.030661C47.5766 -0.0796688 44.4638 -0.021382 43.5839 2.48914C43.5263 2.65151 43.5839 2.81805 43.5263 2.8347C43.2405 2.93462 43.076 3.26769 43.2261 4.51879C43.2508 4.70823 43.5016 5.80944 43.6764 5.8261C43.7545 5.8261 44.1801 4.43553 44.435 3.66738C44.9081 3.72866 45.3869 3.72866 45.8599 3.66738C46.4111 3.58471 46.9526 3.4452 47.4759 3.25104C47.8336 3.74024 48.5882 4.70823 48.7095 4.72072C48.8308 4.73321 48.5101 3.26561 48.397 3.00124Z" fill="black"/>
<path d="M41.0176 34.5805L52.2969 34.4139L54.0261 45.4719L48.0163 45.7508L47.4489 43.386C47.4337 43.2694 47.3771 43.1623 47.2897 43.0847C47.2024 43.0072 47.0901 42.9644 46.9739 42.9644C46.8577 42.9644 46.7455 43.0072 46.6581 43.0847C46.5707 43.1623 46.5142 43.2694 46.499 43.386L45.8822 45.7425L39.27 45.1867L41.0176 34.5805Z" fill="#C1063D"/>
<path d="M42.9937 11.2968C42.9937 11.2968 42.3523 14.9085 46.7254 15.1874C50.2206 15.4102 49.6902 11.2968 49.6902 11.2968H51.446C51.446 11.2968 51.8572 17.8541 53.7508 20.8559L52.1327 34.4244L41.3469 34.5909L39.2065 20.756C39.2065 20.756 41.5936 20.2543 41.4846 11.5299L42.9937 11.2968Z" fill="white"/>
<g opacity="0.52">
<path d="M41.4844 12.5252C41.8955 12.1296 42.3065 11.7361 42.7176 11.3384L41.4844 11.5195C41.4885 11.8693 41.4885 12.2025 41.4844 12.5252Z" fill="#CAD6D8"/>
<path d="M51.6035 12.9521C51.4864 11.9568 51.4453 11.2968 51.4453 11.2968H49.6899C49.6899 11.2968 49.7043 11.4175 49.7125 11.6132C50.3436 12.0505 50.9808 12.4961 51.6035 12.9521Z" fill="#CAD6D8"/>
<path d="M44.3935 31.1187C42.7394 29.2708 41.3636 27.1861 40.3102 24.9319C40.0471 24.3761 39.8106 23.8182 39.5947 23.254L41.3465 34.5805L48.9188 34.464C47.2157 33.6473 45.6804 32.5123 44.3935 31.1187Z" fill="#CAD6D8"/>
</g>
<path d="M52.7101 30.0967C52.7101 30.0967 50.8417 32.8597 51.446 32.9159C52.0503 32.9721 52.9814 31.9144 52.9814 31.9144L53.0924 29.47L52.7101 30.0967Z" fill="#FFB99A"/>
<path d="M40.0639 30.0967C40.0639 30.0967 41.9323 32.8597 41.328 32.9159C40.7237 32.9721 39.7926 31.9144 39.7926 31.9144L39.6816 29.47L40.0639 30.0967Z" fill="#FFB99A"/>
</g>
<defs>
<clipPath id="clip0_0_1409">
<rect width="27.4292" height="56.1005" fill="white" transform="translate(0 7.89954)"/>
</clipPath>
<clipPath id="clip1_0_1409">
<rect width="36.5722" height="63.986" fill="white" transform="translate(28.4292)"/>
</clipPath>
</defs>
</svg>
