<svg width="105" height="100" viewBox="0 0 105 100" fill="none" xmlns="http://www.w3.org/2000/svg">
<g clip-path="url(#clip0_0_4054)">
<path d="M101.637 98.3729C100.689 98.2662 99.7424 98.1861 98.7865 98.1417H21.0035H20.8707H20.6583H2.24812H2.07109C1.65509 98.1417 1.23909 98.204 0.831944 98.2484C0.613631 98.2484 0.404262 98.3355 0.249892 98.4906C0.0955214 98.6457 0.00878906 98.856 0.00878906 99.0753C0.00878906 99.2946 0.0955214 99.5049 0.249892 99.66C0.404262 99.8151 0.613631 99.9022 0.831944 99.9022C1.24794 99.9555 1.65509 99.9822 2.07109 100.018H2.23041H20.6494H20.8707H21.03C21.03 100.018 98.5564 100.018 98.8308 99.9644C99.7867 99.92 100.734 99.8489 101.672 99.7422C101.853 99.7374 102.024 99.6608 102.149 99.5291C102.273 99.3973 102.34 99.2213 102.336 99.0397C102.331 98.8581 102.255 98.6859 102.124 98.5609C101.993 98.4358 101.817 98.3682 101.637 98.3729Z" fill="#C6C6C6"/>
<path d="M104.415 90.7353H42.3253C42.1727 90.7353 42.0264 90.6744 41.9185 90.5661C41.8106 90.4577 41.75 90.3106 41.75 90.1574C41.75 90.0041 41.8106 89.8571 41.9185 89.7487C42.0264 89.6403 42.1727 89.5795 42.3253 89.5795H104.415C104.569 89.5795 104.716 89.6401 104.825 89.7482C104.935 89.8563 104.997 90.0033 105 90.1574C104.997 90.3115 104.935 90.4585 104.825 90.5666C104.716 90.6747 104.569 90.7353 104.415 90.7353Z" fill="#474747"/>
<path d="M44.2911 93.1448C44.0305 93.1448 43.7806 93.0409 43.5963 92.8558C43.4121 92.6707 43.3086 92.4196 43.3086 92.1579V88.1657C43.3086 87.904 43.4121 87.6529 43.5963 87.4678C43.7806 87.2828 44.0305 87.1788 44.2911 87.1788C44.4204 87.1776 44.5487 87.2024 44.6684 87.2515C44.7882 87.3007 44.8969 87.3734 44.9884 87.4652C45.0799 87.5571 45.1522 87.6664 45.2011 87.7867C45.2501 87.9069 45.2747 88.0358 45.2735 88.1657V92.1579C45.2735 92.4196 45.17 92.6707 44.9858 92.8558C44.8015 93.0409 44.5516 93.1448 44.2911 93.1448Z" fill="#474747"/>
<path d="M46.2559 96.6302C45.9953 96.6302 45.7454 96.5262 45.5612 96.3412C45.3769 96.1561 45.2734 95.905 45.2734 95.6433V84.6715C45.2734 84.5419 45.2988 84.4135 45.3482 84.2938C45.3976 84.174 45.47 84.0652 45.5612 83.9736C45.6524 83.882 45.7607 83.8093 45.8799 83.7597C45.9991 83.7101 46.1269 83.6846 46.2559 83.6846C46.5173 83.6846 46.7681 83.7882 46.9538 83.9731C47.1394 84.1579 47.2449 84.4089 47.2472 84.6715V95.6433C47.2449 95.9058 47.1394 96.1569 46.9538 96.3417C46.7681 96.5265 46.5173 96.6303 46.2559 96.6302Z" fill="#474747"/>
<path d="M48.2296 98.2929C48.1006 98.2929 47.9728 98.2673 47.8536 98.2177C47.7344 98.1681 47.6261 98.0955 47.5349 98.0038C47.4436 97.9122 47.3713 97.8034 47.3219 97.6836C47.2725 97.5639 47.2471 97.4355 47.2471 97.3059V83.3467C47.2459 83.2168 47.2705 83.0879 47.3195 82.9676C47.3684 82.8473 47.4408 82.738 47.5322 82.6461C47.6237 82.5543 47.7325 82.4816 47.8522 82.4324C47.9719 82.3833 48.1002 82.3585 48.2296 82.3597C48.4901 82.3597 48.74 82.4637 48.9243 82.6488C49.1085 82.8339 49.212 83.0849 49.212 83.3467V97.3059C49.212 97.4355 49.1866 97.5639 49.1373 97.6836C49.0879 97.8034 49.0155 97.9122 48.9243 98.0038C48.8331 98.0955 48.7247 98.1681 48.6055 98.2177C48.4863 98.2673 48.3586 98.2929 48.2296 98.2929Z" fill="#474747"/>
<path d="M101.593 93.1448C101.853 93.1448 102.103 93.0409 102.288 92.8558C102.472 92.6707 102.575 92.4197 102.575 92.1579V88.1657C102.575 87.904 102.472 87.6529 102.288 87.4679C102.103 87.2828 101.853 87.1788 101.593 87.1788C101.332 87.1788 101.082 87.2828 100.898 87.4679C100.714 87.6529 100.61 87.904 100.61 88.1657V92.1579C100.61 92.4197 100.714 92.6707 100.898 92.8558C101.082 93.0409 101.332 93.1448 101.593 93.1448Z" fill="#474747"/>
<path d="M99.6456 96.6302C99.9061 96.6302 100.156 96.5262 100.34 96.3412C100.525 96.1561 100.628 95.905 100.628 95.6433V84.6715C100.628 84.5419 100.603 84.4135 100.553 84.2938C100.504 84.174 100.431 84.0652 100.34 83.9736C100.249 83.882 100.141 83.8093 100.022 83.7597C99.9023 83.7101 99.7746 83.6846 99.6456 83.6846C99.5165 83.6846 99.3888 83.7101 99.2696 83.7597C99.1504 83.8093 99.0421 83.882 98.9508 83.9736C98.8596 84.0652 98.7872 84.174 98.7379 84.2938C98.6885 84.4135 98.6631 84.5419 98.6631 84.6715V95.6433C98.6631 95.905 98.7666 96.1561 98.9508 96.3412C99.1351 96.5262 99.385 96.6302 99.6456 96.6302Z" fill="#474747"/>
<path d="M97.6534 98.2929C97.9148 98.2929 98.1656 98.1892 98.3512 98.0044C98.5369 97.8195 98.6424 97.5685 98.6447 97.3059V83.3467C98.6447 83.2163 98.619 83.0872 98.5691 82.9669C98.5191 82.8466 98.446 82.7374 98.3538 82.6457C98.2616 82.5539 98.1523 82.4813 98.0321 82.4323C97.9118 82.3832 97.7831 82.3585 97.6534 82.3597C97.3928 82.3597 97.1429 82.4637 96.9587 82.6488C96.7744 82.8339 96.6709 83.0849 96.6709 83.3467V97.3059C96.6709 97.4355 96.6963 97.5639 96.7457 97.6836C96.7951 97.8034 96.8674 97.9122 96.9587 98.0038C97.0499 98.0955 97.1582 98.1681 97.2774 98.2177C97.3966 98.2673 97.5243 98.2929 97.6534 98.2929Z" fill="#474747"/>
<path d="M48.1228 44.4296C47.7889 44.7407 47.4275 45.0204 47.0429 45.2654C46.0782 45.8789 45.016 46.3323 44.0778 47.0436L43.7149 47.3193C42.3608 48.3816 40.9119 49.3162 39.3868 50.1111C35.9437 51.9961 32.7308 53.6676 31.5005 54.2811C27.2431 56.4684 19.4542 58.2911 16.675 58.8957L15.6571 59.118C15.6571 59.118 14.0993 57.0641 15.4889 55.2681C15.4889 55.2681 27.2608 50.1645 29.1815 48.8841C31.527 47.3193 33.607 45.1231 35.7844 43.3004C36.5721 42.6425 37.351 41.9934 38.1476 41.3532C39.9178 39.9128 41.6881 38.5169 43.4583 37.1388C44.423 36.4097 45.5914 35.485 46.8394 35.3605C47.1549 35.3337 47.4726 35.3639 47.7776 35.4495C48.4146 35.6698 48.9661 36.0868 49.3531 36.6409C49.4685 36.7976 49.5749 36.9609 49.6717 37.1299C51.1233 39.5572 50.0788 42.5536 48.1228 44.4296Z" fill="#F5A784"/>
<path d="M15.4807 55.2147C15.709 55.3025 15.9309 55.4065 16.1445 55.5259C16.1445 55.5259 17.6049 57.5353 16.6756 58.8246C16.6756 58.8246 16.3835 58.9223 15.941 59.0735C15.4984 59.2246 14.9939 59.4114 14.392 59.6603C13.9495 59.8471 12.2235 60.914 11.8429 60.5495C11.7625 60.4623 11.7073 60.3547 11.6836 60.2383L11.241 58.9312C10.9932 58.1755 10.6038 56.9041 11.4889 56.4595C10.949 56.5306 9.71867 56.7085 9.31152 56.175V55.7571C9.31152 55.7571 11.2588 55.3036 12.1085 55.0191C13.2208 54.6864 14.4139 54.7556 15.4807 55.2147Z" fill="#F5A784"/>
<path d="M54.3364 68.7561C41.7414 71.4235 26.013 72.9794 26.013 72.9794C26.3759 74.5532 26.075 77.6029 25.4908 80.9816C24.6057 86.0852 23.1188 91.9089 22.4372 94.4341C22.3487 94.7808 22.092 95.7055 22.092 95.7055C21.4133 95.8954 20.7013 95.9325 20.0067 95.8142C19.3121 95.6958 18.6521 95.425 18.0736 95.0209C18.0736 94.9142 18.0736 94.8075 18.0736 94.7008C18.0736 94.4163 18.0736 94.1317 18.0736 93.8117C18.1976 86.1741 16.7371 69.254 20.0474 67.2001C25.898 63.5725 47.0166 57.6331 50.5659 57.4197C53.0176 57.2508 55.3985 57.6509 56.4607 59.4914C56.9675 60.4665 57.1563 61.5769 57.0006 62.6656C57.0006 62.8345 57.0006 63.0035 56.9475 63.1635C56.2748 67.6269 60.1338 67.5469 54.3364 68.7561Z" fill="#F5A784"/>
<path d="M53.6993 29.6879C53.8208 29.8356 53.9606 29.967 54.1153 30.0791C54.6388 30.5417 55.2968 30.8224 55.9917 30.8793C56.4512 30.7915 56.9151 30.7292 57.3814 30.6926C57.7177 30.7371 58.0009 31.0038 58.3815 31.0038C58.5543 31.0044 58.7234 30.9542 58.8681 30.8594C59.0128 30.7646 59.1267 30.6294 59.1958 30.4703C59.302 30.0791 59.0277 29.6524 59.1958 29.2789C59.364 28.9055 60.0809 28.8254 60.5235 28.5765C60.7652 28.4019 60.9685 28.1792 61.1208 27.9222C61.2731 27.6652 61.371 27.3794 61.4086 27.0828C61.5856 26.3892 61.7715 25.6958 61.9485 25.0022C62.101 24.5163 62.1757 24.0091 62.1698 23.4996C62.1654 23.246 62.1013 22.997 61.9829 22.7729C61.8645 22.5489 61.695 22.3561 61.4883 22.2104C60.8775 21.828 60.0013 22.0326 59.4614 21.5524C59.1958 21.3124 59.0719 20.9478 58.7975 20.7255C58.1514 20.2098 57.2309 20.7255 56.4077 20.7255C55.3014 20.7255 54.3897 19.7919 53.2922 19.623C52.8685 19.5762 52.4397 19.6325 52.0423 19.7873C51.6448 19.9421 51.2902 20.1907 51.0086 20.5121C50.4921 21.1359 50.2129 21.9236 50.2209 22.7349C50.2957 23.326 50.5113 23.8902 50.8493 24.3798C51.3626 25.4557 51.1856 26.8516 51.9911 27.7407C52.4326 28.1132 52.8495 28.5142 53.2391 28.9411C53.3984 29.2256 53.5135 29.4567 53.6993 29.6879Z" fill="#535353"/>
<path d="M52.3278 26.5493C52.2399 26.4281 52.1248 26.3294 51.9917 26.2614C51.8587 26.1934 51.7115 26.1579 51.5622 26.1579C51.4129 26.1579 51.2657 26.1934 51.1327 26.2614C50.9996 26.3294 50.8844 26.4281 50.7966 26.5493C50.0265 27.4384 51.3276 29.2167 52.3278 29.3234C52.386 28.3996 52.386 27.4731 52.3278 26.5493Z" fill="#E0855C"/>
<path d="M65.4091 40.8731C65.055 41.8423 64.6479 42.7936 64.3381 43.7895C64.2584 44.0295 64.1965 44.2695 64.1257 44.5185C64.0106 44.9808 63.9133 45.4077 63.8159 45.8878C63.7628 46.1723 63.7097 46.439 63.6654 46.7058C63.3733 48.484 62.4882 57.2419 62.3555 58.6201V58.7979C58.7917 59.6942 55.0896 59.8934 51.451 59.3847C50.3689 59.2563 49.2958 59.0603 48.238 58.7979C48.238 58.7979 48.238 58.6645 48.238 58.4155C48.238 58.1666 48.238 58.1755 48.238 58.0243C48.0522 56.0238 47.53 50.5023 47.1494 45.2387C47.1494 44.9275 47.0432 43.7627 47.0255 43.4604C46.813 40.3396 46.6803 37.4589 46.7157 35.6717C46.719 35.5938 46.744 35.5183 46.7878 35.4539C46.8316 35.3895 46.8924 35.3386 46.9635 35.3072C47.7171 35.0835 48.4969 34.9609 49.2825 34.9427L49.8312 34.8715L50.38 34.8182C50.796 34.8182 51.2031 34.7382 51.5749 34.7204C52.1945 34.7204 52.7255 34.6759 53.0619 34.6759H53.4513L53.5398 33.6534L53.6106 32.9777L53.7788 31.1372L54.124 31.1994C54.3468 31.2354 54.5713 31.2592 54.7967 31.2706C55.0737 31.2886 55.3516 31.2886 55.6287 31.2706H56.0093L56.5226 31.1816C56.8059 31.1194 57.0802 31.0394 57.3369 30.9593L57.5671 30.8793C57.5671 30.8793 57.567 30.8793 57.629 30.8793L57.806 30.8171C58.1383 30.686 58.4582 30.5253 58.7619 30.337C58.9092 30.2543 59.0511 30.1622 59.1868 30.0614L59.2665 30.008L59.4258 29.8924C59.4628 29.872 59.4958 29.8448 59.5231 29.8124C59.5231 29.9457 59.5231 29.9902 59.5231 30.0525C59.4435 30.6393 59.3638 31.3861 59.3284 32.1241C59.293 32.8621 58.8593 33.6623 59.5231 34.2402C59.785 34.4473 60.0862 34.5986 60.4082 34.6848C60.8725 34.8421 61.3453 34.9728 61.8244 35.076C62.4081 35.2034 62.9994 35.2926 63.5946 35.3428C63.9212 35.3563 64.2464 35.392 64.5682 35.4495C64.7616 35.4861 64.9492 35.5489 65.1258 35.6361C65.44 35.8193 65.7045 36.0773 65.8959 36.3874C66.0873 36.6976 66.1998 37.0503 66.2234 37.4144C66.185 38.6104 65.9081 39.7865 65.4091 40.8731Z" fill="#F5A784"/>
<path d="M59.4262 29.7412C59.3054 30.3779 59.0457 30.9797 58.666 31.5036C58.2863 32.0276 57.7958 32.4606 57.2298 32.7717C56.6638 33.0827 56.0363 33.2641 55.3923 33.3028C54.7483 33.3415 54.1037 33.2365 53.5049 32.9955L53.6731 31.155C54.6769 31.347 55.71 31.3201 56.7026 31.0762C57.6952 30.8323 58.624 30.377 59.4262 29.7412Z" fill="#E0855C"/>
<path d="M52.4954 23.8819C51.9909 24.4154 51.9467 25.6068 51.9024 26.9227C51.7785 30.9238 52.9645 32.1686 55.0003 32.3909C57.036 32.6132 59.1603 31.8218 59.594 28.123C59.8152 26.2648 60.0454 24.5666 59.3727 23.7574C58.3725 22.566 54.062 22.2459 52.4954 23.8819Z" fill="#F5A784"/>
<path d="M59.3106 27.5807C59.3106 27.5807 59.9302 25.9269 60.9127 26.8071C61.8951 27.6874 60.5409 30.1858 59.0362 29.9991C59.0362 29.9991 58.8327 28.1497 59.3106 27.5807Z" fill="#F5A784"/>
<path d="M60.4526 27.5362C60.224 27.6117 60.0194 27.7467 59.8595 27.9274C59.6741 28.0805 59.5233 28.2714 59.417 28.4876C59.417 28.5498 59.4878 28.5943 59.532 28.5498C59.6563 28.4279 59.7717 28.2972 59.8773 28.1586C59.9553 28.2575 60.0553 28.3367 60.1693 28.3898C60.2578 28.3898 60.3286 28.3097 60.2844 28.2386C60.2255 28.1425 60.1433 28.063 60.0454 28.0075C60.2134 27.9012 60.3732 27.7823 60.5234 27.6518C60.5333 27.6404 60.5392 27.6261 60.5405 27.611C60.5417 27.5959 60.5381 27.5808 60.5302 27.5679C60.5223 27.555 60.5105 27.545 60.4966 27.5393C60.4826 27.5336 60.4672 27.5325 60.4526 27.5362Z" fill="#E0855C"/>
<path d="M55.2128 28.4254C55.0357 28.4254 54.6374 28.5054 54.5578 28.3187C54.589 27.8922 54.6722 27.4711 54.8056 27.065C54.9756 26.5258 55.1116 25.9764 55.2128 25.4201C55.2128 25.4201 55.1597 25.3668 55.1508 25.4201C54.8006 26.4003 54.5341 27.4087 54.3542 28.4343C54.3498 28.4467 54.3485 28.4601 54.3505 28.4731C54.3525 28.4862 54.3577 28.4985 54.3655 28.5091C54.3734 28.5197 54.3838 28.5281 54.3957 28.5336C54.4076 28.5392 54.4207 28.5417 54.4339 28.5409C54.6906 28.5409 54.9384 28.5943 55.1951 28.5943C55.2747 28.6121 55.3013 28.4698 55.2128 28.4254Z" fill="#E0855C"/>
<path d="M54.0267 24.9755C53.7789 24.8511 53.3186 24.8155 53.1416 25.0733C53.1416 25.0733 53.1416 25.1889 53.2124 25.1889C53.2832 25.1889 53.4425 25.1178 53.5576 25.1089C53.6903 25.1028 53.8228 25.124 53.947 25.1712C53.9719 25.1775 53.9982 25.1747 54.021 25.1631C54.0439 25.1515 54.0619 25.132 54.0716 25.1082C54.0813 25.0843 54.0821 25.0578 54.0738 25.0334C54.0656 25.0091 54.0489 24.9885 54.0267 24.9755Z" fill="#535353"/>
<path d="M57.6464 25.2779C57.5137 24.9222 56.9029 24.8955 56.6374 25.1089C56.6264 25.122 56.6187 25.1376 56.6149 25.1543C56.6112 25.171 56.6115 25.1883 56.6158 25.2049C56.6201 25.2215 56.6284 25.2368 56.6399 25.2495C56.6513 25.2622 56.6657 25.2719 56.6817 25.2779C56.8377 25.2912 56.9947 25.2912 57.1508 25.2779C57.2823 25.2987 57.4104 25.3376 57.5314 25.3934C57.5933 25.4201 57.6818 25.349 57.6464 25.2779Z" fill="#535353"/>
<path d="M56.3985 26.3715C56.6821 26.271 56.9857 26.2405 57.2836 26.2826C57.547 26.2677 57.8063 26.3534 58.0093 26.5226V26.5849C57.7708 26.581 57.5334 26.5512 57.3013 26.496C57.0269 26.496 56.7613 26.496 56.487 26.5493C56.4635 26.5611 56.4363 26.563 56.4114 26.5547C56.3865 26.5464 56.3659 26.5285 56.3542 26.5049C56.3425 26.4813 56.3405 26.454 56.3488 26.429C56.3571 26.404 56.375 26.3833 56.3985 26.3715Z" fill="#535353"/>
<path d="M53.3719 26.1225C53.6453 26.1151 53.9123 26.2067 54.1242 26.3804C54.2481 26.4782 54.1242 26.6471 53.9649 26.5848C53.771 26.474 53.5506 26.4187 53.3276 26.4248C53.1417 26.4248 52.9736 26.5493 52.7877 26.5315C52.7716 26.5303 52.7561 26.5252 52.7425 26.5166C52.7289 26.5079 52.7177 26.496 52.7098 26.4819C52.7019 26.4678 52.6976 26.4519 52.6973 26.4358C52.697 26.4196 52.7007 26.4036 52.708 26.3893C52.8142 26.1581 53.1506 26.1225 53.3719 26.1225Z" fill="#535353"/>
<path d="M54.1598 29.5812C54.528 29.7003 54.9159 29.7456 55.3015 29.7146C55.6392 29.6159 55.9655 29.4818 56.2752 29.3145C56.346 29.3145 56.3902 29.3678 56.3637 29.4301C56.0854 29.756 55.699 29.9698 55.276 30.0319C54.853 30.094 54.4219 30.0003 54.0624 29.7679C54.0421 29.7528 54.0278 29.7309 54.0222 29.7061C54.0166 29.6813 54.0199 29.6553 54.0317 29.6328C54.0434 29.6103 54.0627 29.5927 54.0862 29.5833C54.1097 29.5738 54.1358 29.5731 54.1598 29.5812Z" fill="#E0855C"/>
<path d="M94.7502 94.6297C94.4866 95.4926 94.1642 96.3363 93.7854 97.1548C93.1659 98.4618 91.6878 98.3462 90.3866 98.3195C89.9975 98.3489 89.6086 98.259 89.2714 98.0617C89.1922 98.0083 89.1251 97.9386 89.0748 97.8572C89.0244 97.7758 88.9919 97.6845 88.9793 97.5895C88.9668 97.4944 88.9745 97.3978 89.0019 97.306C89.0294 97.2142 89.076 97.1293 89.1386 97.057C89.254 96.9776 89.3831 96.9203 89.5192 96.8881C90.1842 96.5585 90.7021 95.9907 90.9708 95.2965C91.3628 94.3867 91.5327 93.396 91.4665 92.4069L90.4486 92.229C82.1823 90.7666 74.1616 88.1447 66.6216 84.4403C55.2214 78.661 51.0703 58.5223 51.1057 58.3356C51.7695 55.3481 58.5583 54.3612 62.3554 58.5934C66.1525 62.8256 68.4891 76.6871 70.8081 78.0119C73.1271 79.3367 87.1029 86.7342 93.6881 88.8592C94.051 88.9748 94.3962 89.0815 94.7148 89.1616C96.5204 89.6595 95.2193 93.3316 94.7502 94.6297Z" fill="#F5A784"/>
<path d="M22.0567 98.5774C21.472 98.8754 20.8155 99.0017 20.1625 98.9419C18.7886 99.0131 17.4119 99.0131 16.0379 98.9419C15.1528 98.9419 14.2677 98.8797 13.3826 98.8263C12.6391 98.8263 11.4708 98.9242 10.8424 98.5241C10.7985 98.5056 10.7591 98.4777 10.727 98.4424C10.6949 98.4071 10.6708 98.3651 10.6565 98.3195C10.6431 98.2385 10.6622 98.1553 10.7096 98.0884C10.8989 97.8202 11.1789 97.6306 11.4974 97.5549C12.8693 97.0748 14.3386 96.9058 15.7016 96.399C16.6554 96.0635 17.5021 95.477 18.1533 94.7008C18.235 94.5998 18.309 94.4929 18.3746 94.3807C18.4696 94.2181 18.5524 94.0487 18.6225 93.8739C18.6925 93.5911 18.8208 93.3263 18.9992 93.0966C19.1776 92.8668 19.4021 92.6773 19.658 92.5402C19.9682 92.388 20.3125 92.3199 20.657 92.3424C21.0015 92.3649 21.3341 92.4774 21.622 92.6687C21.9099 92.86 22.1431 93.1235 22.2985 93.4331C22.4539 93.7428 22.5261 94.0878 22.5081 94.4341C22.5081 94.7097 22.455 94.9676 22.4373 95.2343C22.4196 95.501 22.4373 95.5366 22.4373 95.6878C22.3045 96.6569 23.0657 97.8483 22.0567 98.5774Z" fill="#F5A784"/>
<path d="M67.6753 61.9276L71.8795 67.9026C71.6999 68.0293 71.547 68.1905 71.4297 68.3769C71.3123 68.5632 71.2329 68.7711 71.1958 68.9885C71.1588 69.2058 71.165 69.4284 71.214 69.6434C71.2629 69.8583 71.3538 70.0614 71.4812 70.241C71.7376 70.6035 72.1265 70.8491 72.5629 70.9241C72.9992 70.9991 73.4473 70.8973 73.8091 70.641L75.5793 69.3874C75.9401 69.1299 76.1847 68.7391 76.2593 68.3008C76.334 67.8625 76.2327 67.4124 75.9776 67.049C75.8514 66.8685 75.6909 66.715 75.5054 66.5971C75.3199 66.4792 75.1129 66.3994 74.8966 66.3622C74.6802 66.325 74.4586 66.3312 74.2446 66.3804C74.0306 66.4296 73.8285 66.5208 73.6497 66.6489L69.4455 60.674C69.6251 60.5472 69.778 60.386 69.8954 60.1996C70.0127 60.0132 70.0922 59.8054 70.1292 59.588C70.1662 59.3707 70.1601 59.1481 70.1111 58.9332C70.0621 58.7182 69.9713 58.5151 69.8438 58.3356C69.7183 58.1544 69.5583 58 69.3731 57.8813C69.1879 57.7626 68.9811 57.6819 68.7647 57.6439C68.5483 57.6058 68.3265 57.6112 68.1122 57.6598C67.8979 57.7083 67.6952 57.7989 67.516 57.9265L65.7458 59.1802C65.3843 59.4394 65.1396 59.8317 65.0649 60.2714C64.9903 60.7112 65.0919 61.1627 65.3475 61.5275C65.6038 61.89 65.9928 62.1357 66.4291 62.2107C66.8654 62.2857 67.3135 62.1839 67.6753 61.9276Z" fill="#474747"/>
<path d="M79.491 46.5458C78.998 45.1627 78.149 43.9355 77.0304 42.9893C76.2338 42.2068 75.4195 41.4155 74.5609 40.6597C71.649 38.0635 68.3652 35.8585 64.4707 35.4406H64.1875C63.1567 35.3455 62.1235 35.5956 61.249 36.1519C60.8772 36.3811 60.5611 36.6909 60.3238 37.0585C60.0865 37.4262 59.9338 37.8424 59.8771 38.2769C59.8403 38.6576 59.8642 39.0418 59.9479 39.415C60.035 39.8309 60.181 40.2321 60.3816 40.6064C61.3378 42.0723 62.7187 43.2082 64.338 43.8606C65.0549 44.2073 65.7719 44.5185 66.4268 44.812C67.7722 45.4077 69.1441 45.9589 70.4452 46.5902C71.3288 47.0329 72.1626 47.5694 72.9324 48.1906C73.1427 48.3405 73.3179 48.5347 73.4457 48.7597C73.549 49.0626 73.5734 49.3871 73.5165 49.7021C73.189 53.3387 73.3661 57.9177 71.3392 61.1096C71.0059 61.6357 70.5618 62.0819 70.0381 62.4166C69.7902 62.5678 69.5424 62.719 69.3034 62.879C68.9351 63.1088 68.6038 63.3936 68.321 63.7237C68.0681 63.9846 67.9011 64.3173 67.8426 64.6766C67.784 65.036 67.8367 65.4048 67.9935 65.7331C68.7547 67.0579 71.1356 67.458 72.0384 66.2399C72.242 65.9554 72.4455 65.662 72.6403 65.3508C72.9589 64.8707 73.2687 64.3727 73.5254 63.8748C74.3043 62.5233 74.9858 61.1185 75.6585 59.7404C76.6675 57.6331 77.6588 55.5171 78.5174 53.3476C79.2874 51.4182 80.022 48.5907 79.491 46.5458ZM71.4188 61.9632C71.4188 61.9632 71.4188 61.9632 71.4188 61.9098C71.423 61.9274 71.423 61.9456 71.4188 61.9632Z" fill="#F5A784"/>
<path d="M22.057 98.5774C21.4723 98.8754 20.8158 99.0017 20.1628 98.9419C18.6139 99.0397 17.065 98.9419 15.5249 98.9419C14.7726 98.9419 14.0291 98.8708 13.2767 98.8352C12.4385 98.9236 11.5912 98.8202 10.7984 98.5329C10.7545 98.5144 10.7151 98.4866 10.683 98.4513C10.6509 98.416 10.6269 98.374 10.6126 98.3284C10.5992 98.2473 10.6183 98.1642 10.6657 98.0972C10.8549 97.8291 11.135 97.6395 11.4534 97.5638C12.8253 97.0837 14.2946 96.9147 15.6577 96.4079C16.273 96.1863 16.8496 95.8682 17.3659 95.4655C17.606 95.2669 17.799 95.017 17.9307 94.7339C18.0624 94.4509 18.1295 94.1419 18.1271 93.8294C18.2794 93.8247 18.4315 93.8427 18.5785 93.8828C18.9065 93.9762 19.202 94.1597 19.4319 94.4126C19.6617 94.6654 19.8168 94.9777 19.8796 95.3143C20.4992 95.8477 21.4197 95.3943 22.2428 95.2609H22.3933C22.3933 95.4121 22.3933 95.5632 22.3933 95.7144C22.3048 96.6569 23.066 97.8483 22.057 98.5774Z" fill="#C1063D"/>
<path d="M94.7504 94.6297C94.4867 95.4926 94.1644 96.3363 93.7856 97.1548C93.166 98.4618 91.6879 98.3462 90.3868 98.3195C89.9977 98.3489 89.6088 98.259 89.2716 98.0617C89.1923 98.0083 89.1253 97.9386 89.0749 97.8572C89.0246 97.7758 88.992 97.6845 88.9795 97.5895C88.9669 97.4944 88.9746 97.3978 89.0021 97.306C89.0296 97.2142 89.0762 97.1293 89.1388 97.057C89.2542 96.9776 89.3833 96.9203 89.5194 96.8881C90.1843 96.5585 90.7022 95.9907 90.971 95.2965C91.3629 94.3867 91.5329 93.396 91.4666 92.4069C91.325 92.4069 91.6968 91.6867 92.1482 91.5977C92.3805 91.57 92.6111 91.5284 92.8386 91.4733C93.0996 91.3662 93.3274 91.1911 93.4986 90.966C93.6697 90.7409 93.778 90.474 93.8122 90.1929C93.8368 89.7535 93.795 89.3128 93.6883 88.8859C94.0511 89.0015 94.3963 89.1082 94.715 89.1883C96.5206 89.6595 95.2195 93.3316 94.7504 94.6297Z" fill="#C1063D"/>
<path d="M11.7456 53.9433L13.7016 60.9852C13.2757 61.1075 12.915 61.3936 12.6979 61.7815C12.4808 62.1694 12.4248 62.6277 12.5422 63.0568C12.6004 63.27 12.7001 63.4694 12.8356 63.6436C12.971 63.8178 13.1395 63.9632 13.3313 64.0715C13.5231 64.1799 13.7344 64.2489 13.9529 64.2747C14.1715 64.3004 14.3929 64.2824 14.6045 64.2216L16.6845 63.6436C16.896 63.5841 17.0938 63.4833 17.2666 63.3469C17.4393 63.2106 17.5837 63.0414 17.6913 62.849C17.799 62.6567 17.8679 62.4449 17.8941 62.2258C17.9203 62.0067 17.9032 61.7845 17.8439 61.572C17.7857 61.3598 17.6862 61.1613 17.5514 60.9878C17.4165 60.8143 17.2489 60.6693 17.0581 60.5611C16.8673 60.4529 16.6571 60.3836 16.4396 60.3572C16.222 60.3308 16.0015 60.3478 15.7905 60.4072L13.8344 53.3564C14.2597 53.2361 14.6203 52.9517 14.8375 52.5652C15.0548 52.1787 15.111 51.7216 14.9939 51.2937C14.9347 51.078 14.8335 50.8764 14.6961 50.7004C14.5588 50.5244 14.3879 50.3776 14.1936 50.2684C13.9993 50.1592 13.7854 50.0898 13.5642 50.0644C13.343 50.0389 13.1189 50.0579 12.9051 50.1201L10.8162 50.7069C10.3903 50.8292 10.0296 51.1153 9.81249 51.5032C9.59538 51.8911 9.53941 52.3494 9.65672 52.7785C9.7158 52.994 9.81705 53.1954 9.95458 53.3711C10.0921 53.5468 10.2631 53.6931 10.4576 53.8016C10.6521 53.9101 10.8662 53.9784 11.0874 54.0028C11.3085 54.0271 11.5323 54.0069 11.7456 53.9433Z" fill="#474747"/>
<path d="M13.7282 56.3528C13.9286 56.5959 14.0844 56.8729 14.1884 57.1708C14.4202 57.6994 14.5292 58.274 14.5071 58.8512C14.4968 59.137 14.426 59.4173 14.2993 59.6733C14.1726 59.9294 13.993 60.1553 13.7724 60.3361C13.4643 60.5467 13.1138 60.6863 12.7457 60.7451C12.4888 60.7982 12.2238 60.7982 11.9668 60.7451C11.739 60.6866 11.5277 60.5759 11.3495 60.4216C11.1714 60.2674 11.0312 60.0737 10.9401 59.8559C10.7641 59.4166 10.6623 58.9508 10.6392 58.4778C10.5415 58.0762 10.5577 57.6551 10.6859 57.2622C10.8142 56.8694 11.0494 56.5204 11.365 56.255C11.7108 55.9979 12.1339 55.8675 12.5637 55.8853C12.9936 55.9031 13.4045 56.068 13.7282 56.3528Z" fill="#F5A784"/>
<path d="M74.5609 40.6153C73.7989 42.6662 72.5891 44.5194 71.0205 46.039C70.8346 46.2168 70.6399 46.3946 70.4452 46.5547C69.1441 45.8878 67.7899 45.3366 66.4268 44.7764C65.7718 44.483 65.0549 44.1718 64.3379 43.825C64.2583 44.0651 64.1963 44.3052 64.1255 44.5541C64.0105 45.0165 63.9131 45.4432 63.8157 45.9234C63.7626 46.2079 63.7095 46.4746 63.6653 46.7413C63.3732 48.5196 62.4881 57.2775 62.3553 58.6557V58.8335C58.7916 59.7298 55.0895 59.929 51.4508 59.4203C50.3688 59.2919 49.2957 59.0959 48.2379 58.8335C48.2379 58.8335 48.2379 58.7001 48.2379 58.4512C48.2379 58.2022 48.2379 58.2111 48.2379 58.06C48.052 56.0594 47.5298 50.5379 47.1492 45.2743C46.1844 45.8878 45.1223 46.3413 44.1841 47.0526C42.9683 46.6588 41.845 46.0205 40.8827 45.1765C40.6596 44.9866 40.4469 44.7848 40.2454 44.5719C39.3193 43.6906 38.6337 42.5855 38.2539 41.3621C40.0241 39.9218 41.7943 38.5258 43.5645 37.1477C44.5293 36.4186 45.6976 35.4939 46.9456 35.3694C47.6993 35.1458 48.479 35.0232 49.2646 35.0049L49.8134 34.9338C49.9992 34.9338 50.1763 34.9338 50.3621 34.8804C50.3463 35.7342 50.5055 36.582 50.8298 37.3713C51.1541 38.1606 51.6367 38.8744 52.2474 39.4683C53.0688 40.0836 54.0498 40.4471 55.0722 40.515C56.0946 40.5828 57.1147 40.3521 58.0095 39.8506C58.7552 39.4407 59.4185 38.895 59.9655 38.2413C60.5175 37.5994 60.9791 36.8844 61.3374 36.1163C61.4879 35.7962 61.6207 35.4672 61.7446 35.1383C61.7473 35.1087 61.7473 35.0789 61.7446 35.0494C62.3283 35.1768 62.9196 35.2659 63.5148 35.3161C63.8417 35.3252 64.1673 35.3609 64.4884 35.4228C68.4006 35.7962 71.6489 38.0191 74.5609 40.6153Z" fill="#C1063D"/>
<path d="M18.0831 88.8859C20.3843 90.3619 23.8097 89.1349 23.8097 89.1349C26.7571 83.649 26.9872 73.6819 26.9872 73.6819C26.9872 73.6819 43.8839 72.4282 50.5664 72.4282C51.7721 72.3846 52.9673 72.6671 54.0272 73.2462C57.3109 75.14 58.0986 79.9769 63.8784 84.5025C71.2513 90.2907 84.9793 91.0909 84.9793 91.0909C86.9708 89.6061 86.8557 86.1563 86.8557 86.1563C85.1466 84.2376 83.1266 82.6233 80.8813 81.3817C80.1272 80.948 79.3501 80.5562 78.5534 80.208C75.7688 79.057 73.1232 77.5924 70.6671 75.8424C68.0826 67.0134 62.418 58.0599 62.418 58.0599C57.6711 59.2335 52.6872 58.9988 48.0704 57.3842C44.53 57.3842 22.0395 64.6661 19.0921 67.0312C16.1447 69.3963 15.7729 87.3566 18.0831 88.8859Z" fill="#535353"/>
<path d="M26.9873 73.6463C26.9873 73.6463 43.884 72.3927 50.5665 72.3927C51.7722 72.3491 52.9674 72.6315 54.0273 73.2106C54.0273 73.0239 53.2749 69.2629 46.6012 69.4497C39.7771 69.6453 26.9873 73.6463 26.9873 73.6463Z" fill="#535353"/>
<path d="M74.8619 81.0172C76.8366 81.3873 78.8509 81.4979 80.854 81.3461C80.1 80.9125 79.3229 80.5207 78.5262 80.1725C75.7416 79.0214 73.096 77.5568 70.6399 75.8069C70.6273 77.0339 71.0426 78.2266 71.8138 79.1783C72.5849 80.13 73.6633 80.7805 74.8619 81.0172Z" fill="#535353"/>
<path d="M47.0429 45.2387C46.0781 45.8522 45.016 46.3057 44.0778 47.017C42.8572 46.6343 41.7317 45.9947 40.7764 45.1409C42.8424 44.6648 44.9926 44.6983 47.0429 45.2387Z" fill="#C1063D"/>
<path d="M71.0293 7.63761C69.8938 9.14507 68.9262 10.773 68.1439 12.4923C67.303 14.0393 66.0107 15.8264 65.7275 17.5691C65.72 17.5888 65.7197 17.6104 65.7267 17.6303C65.7336 17.6501 65.7473 17.6669 65.7653 17.6776C65.7834 17.6882 65.8046 17.6921 65.8252 17.6885C65.8458 17.685 65.8645 17.6742 65.878 17.6581C67.1437 16.4133 67.8695 14.3772 68.728 12.8301C69.7501 11.251 70.6383 9.58839 71.3833 7.85989C71.3888 7.81615 71.3816 7.77179 71.3628 7.73198C71.3439 7.69217 71.3142 7.65858 71.2769 7.63522C71.2397 7.61186 71.1967 7.59969 71.1528 7.60011C71.1089 7.60053 71.0661 7.61353 71.0293 7.63761Z" fill="#C1063D"/>
<path d="M85.0942 15.8976C81.9609 17.4624 78.9516 19.4007 75.9776 21.2323C73.0718 22.9392 70.2833 24.8403 67.6311 26.9227C67.4364 27.0917 67.6842 27.3851 67.8966 27.2695C70.8794 25.598 73.6852 23.5529 76.5884 21.748C79.4915 19.9431 82.5451 18.3071 85.4394 16.5022C85.4925 16.4453 85.5259 16.3727 85.5349 16.2952C85.5439 16.2178 85.5279 16.1394 85.4892 16.0718C85.4506 16.0041 85.3914 15.9507 85.3203 15.9193C85.2492 15.888 85.1699 15.8803 85.0942 15.8976Z" fill="#C1063D"/>
<path d="M81.6331 27.6518C79.4981 27.6076 77.3627 27.7146 75.2427 27.9719C74.7647 27.9719 74.7558 28.7455 75.2427 28.7188C77.4098 28.7177 79.5744 28.5692 81.7216 28.2742C82.0934 28.2031 81.9429 27.6785 81.6331 27.6518Z" fill="#C1063D"/>
</g>
<defs>
<clipPath id="clip0_0_4054">
<rect width="105" height="100" fill="white"/>
</clipPath>
</defs>
</svg>
