<svg width="288" height="263" viewBox="0 0 288 263" fill="none" xmlns="http://www.w3.org/2000/svg">
<g clip-path="url(#clip0_0_5491)">
<path opacity="0.27" d="M1.86743 208.122C1.86743 237.546 66.3058 264.482 145.348 262.94C235.18 261.187 288.033 235.356 288.033 205.931C288.033 176.507 224.153 157.698 145.124 157.698C66.0954 157.698 1.86743 178.691 1.86743 208.122Z" fill="black"/>
<path d="M0 204.992C0 234.416 64.4384 261.352 143.481 259.81C233.313 258.056 286.165 232.225 286.165 202.801C286.165 173.376 222.247 154.568 143.224 154.568C64.2016 154.568 0 175.567 0 204.992Z" fill="#B22F5D"/>
<path d="M0.124878 201.702C0.124878 231.133 61.1506 254.138 140.167 254.138C219.182 254.138 286.323 231.166 286.323 201.735C286.323 172.304 222.253 148.459 143.224 148.459C64.195 148.459 0.124878 172.278 0.124878 201.702Z" fill="url(#paint0_linear_0_5491)"/>
<path d="M4.97754 201.676C4.97754 228.903 63.7808 250.167 139.91 250.167C216.039 250.167 280.767 228.903 280.767 201.676C280.767 174.449 219.038 152.377 142.889 152.377C66.7397 152.377 4.97754 174.449 4.97754 201.676Z" fill="#B22F5D"/>
<path d="M10.3232 202.913C10.3232 228.625 66.9961 248.705 140.41 248.705C213.824 248.705 276.164 228.625 276.164 202.913C276.164 177.202 216.651 156.361 143.231 156.361C69.8104 156.361 10.3232 177.202 10.3232 202.913Z" fill="url(#paint1_linear_0_5491)"/>
<path d="M43.1277 207.698L49.1376 222.305L85.8411 233.576L126.273 237.54L155.303 235.66L174.168 230.445L196.767 221.676L43.5419 192.463L43.1277 207.698Z" fill="#914004"/>
<path d="M25.0915 207.698C25.0915 207.698 24.2564 207.281 31.726 205.607C39.1956 203.933 30.8909 200.187 32.9687 192.668C35.0466 185.15 50.8011 182.662 61.5781 184.323C72.355 185.984 63.2416 204.773 63.2416 204.773L49.5518 214.376L25.0915 207.698Z" fill="#914004"/>
<path d="M44.9946 190.167C44.9946 190.167 43.3311 195.177 45.4089 205.19C47.4867 215.203 60.7491 223.556 71.947 225.23C83.1448 226.904 113.003 231.908 128.758 231.908C144.512 231.908 166.08 229.816 177.692 227.315C189.304 224.813 220.819 216.461 227.868 215.21C234.917 213.959 248.192 206.448 251.092 203.959C253.992 201.471 254.827 191.021 252.335 188.519C249.843 186.017 229.841 190.081 229.841 190.081L44.9946 190.167Z" fill="#FFEDC4"/>
<path d="M69.7713 178.373C69.7713 178.373 54.431 178.79 46.9614 186.315C39.4918 193.84 47.7899 210.729 70.6326 216.573C93.4754 222.417 148.386 224.085 167.461 220.955C186.536 217.824 219.505 209.042 227.593 206.765C235.68 204.489 258.497 193.41 251.231 183.807C243.965 174.204 69.7713 178.373 69.7713 178.373Z" fill="url(#paint2_linear_0_5491)"/>
<path d="M61.8937 177.367C61.8937 177.367 60.96 179.869 66.2466 184.568C71.5331 189.267 77.4247 190.2 82.731 190.829C88.0373 191.457 96.4142 199.591 111.34 200.842C126.266 202.093 144 204.283 174.464 205.852C204.927 207.42 230.137 193.297 237.304 192.046C244.471 190.796 255.058 184.846 255.965 180.134C256.872 175.422 255.34 170.12 255.34 170.12L61.8937 177.367Z" fill="#FFEDC4"/>
<path d="M131.974 194.442C131.974 194.442 148.149 195.488 163.286 196.95C178.422 198.413 201.422 200.081 229.841 190.061C258.26 180.041 262.599 166.48 245.181 162.099C227.763 157.718 109.374 190.895 109.374 190.895C109.374 190.895 116.219 194.442 131.974 194.442Z" fill="#E2952C"/>
<path opacity="0.18" d="M58.1589 139.869C55.7033 142.512 53.1089 145.022 50.3868 147.387C46.0274 151.139 54.1151 151.556 56.3047 160.008C58.4942 168.459 56.8373 171.921 62.0581 177.017C69.9485 184.74 81.1266 185.839 92.5414 190.008C103.417 193.979 120.085 198.221 135.281 197.367C159.432 196.011 173.74 198.83 183.071 197.262C192.401 195.693 201.62 190.643 210.233 187.817C222.674 183.747 228.178 179.062 235.739 173.992C253.493 162.079 246.917 156.46 246.917 153.019C246.917 149.578 241.322 152.357 232.616 147.063C223.91 141.768 58.1589 139.869 58.1589 139.869Z" fill="black"/>
<path d="M58.159 138.83C55.7023 141.47 53.1079 143.978 50.3869 146.341C46.0275 150.1 42.6083 152.913 44.7847 161.365C46.9612 169.816 54.4308 172.615 60.0264 177.334C65.622 182.053 83.9738 193.926 95.4806 195.203C106.987 196.481 117.252 198.016 132.493 198.334C147.735 198.651 171.058 196.454 180.388 194.886C189.718 193.317 203.5 188.003 212.114 185.183C224.555 181.113 228.191 178.049 235.785 172.973C253.539 161.06 246.963 155.448 246.963 152C246.963 148.552 241.368 151.378 232.662 146.043C223.956 140.709 58.159 138.83 58.159 138.83Z" fill="#FFEDC4"/>
<path d="M60.0263 137.473C60.0263 137.473 46.7573 142.483 44.7123 152.291C42.6674 162.099 57.7775 172.324 67.9364 174.826C78.0953 177.328 87.84 186.739 104.43 189.856C121.019 192.973 144.033 191.729 164.765 190.69C185.497 189.651 208.307 182.748 221.162 176.077C234.016 169.406 248.535 166.48 247.496 154.376C246.457 142.271 232.984 142.059 232.984 142.059L60.0263 137.473Z" fill="url(#paint3_linear_0_5491)"/>
<path opacity="0.18" d="M52.6689 141.543C52.6689 141.543 54.1155 151.556 72.5725 156.983C91.0295 162.41 109.684 163.35 118.186 162.94C126.688 162.529 140.266 163.774 153.331 163.562C166.396 163.35 192.829 155.739 198.01 155.739C203.192 155.739 223.726 150.941 230.775 150.107C237.824 149.273 241.953 144.68 240.106 143.634C238.258 142.589 211.286 148.016 211.286 148.016L160.274 155.527L95.5862 154.905L63.8602 148.433L52.6821 141.55" fill="black"/>
<path d="M50.3869 131.781C50.3869 131.781 49.7622 140.239 55.7787 145.09C58.3036 147.129 73.6044 158.863 100.978 158.446C128.351 158.029 148.248 161.365 171.886 157.195C195.524 153.026 215.014 150.1 227.454 147.585C239.895 145.071 252.75 137.572 250.678 126.301C248.607 115.031 50.3869 131.781 50.3869 131.781Z" fill="#FFEDC4"/>
<path d="M61.6833 116.599C61.6833 116.599 50.5052 118.274 50.0713 129.121C49.6373 139.968 70.8099 149.571 94.0274 151.245C117.245 152.92 137.99 153.33 162.871 150.828C187.752 148.327 211.384 146.652 230.045 139.975C248.706 133.297 257.832 122.443 242.9 121.609C227.967 120.775 61.6833 116.599 61.6833 116.599Z" fill="#E2802C"/>
<path d="M52.5628 107.42C52.5628 107.42 49.7618 110.861 54.1146 120.252C58.4675 129.643 74.6428 134.342 81.4878 136.533C88.3327 138.724 109.479 142.165 121.295 146.235C133.111 150.305 144.624 148.426 154.573 146.864C164.521 145.302 182.255 141.569 190.961 140.603C199.666 139.637 222.378 138.412 238.546 126.831C254.715 115.249 254.097 105.229 253.15 100.848C252.203 96.4665 52.5628 107.42 52.5628 107.42Z" fill="#FFEDC4"/>
<path d="M58.7833 91.1389C58.7833 91.1389 47.6052 102.39 54.22 117.016C60.8348 131.642 82.0008 130.378 101.497 137.473C120.993 144.568 153.33 141.629 171.991 138.32C190.652 135.011 208.07 139.154 233.799 124.131C259.529 109.107 255.36 93.6869 245.825 93.6869C236.291 93.6869 58.7833 91.1389 58.7833 91.1389Z" fill="url(#paint4_radial_0_5491)"/>
<path d="M49.7622 89.2661C49.7622 89.2661 47.5858 95.5269 52.2477 99.9081C56.9096 104.289 77.1288 112.112 86.4395 117.115C95.7502 122.119 125.01 129.637 156.73 125.256C188.449 120.874 205.558 118.995 214.593 118.055C223.627 117.115 236.673 115.236 245.694 108.353C249.055 105.806 251.846 102.576 253.885 98.8728C255.924 95.1693 257.166 91.0753 257.53 86.857C257.839 81.8471 227.98 84.0377 227.98 84.0377L49.7885 89.2594" fill="#FFEDC4"/>
<path d="M71.2241 66.5127C71.2241 66.5127 50.4855 68.604 49.657 84.8782C48.8285 101.152 68.7255 102.827 82.8362 109.087C96.9469 115.348 134.255 121.192 154.159 119.524C174.062 117.857 194.801 112.43 215.967 111.583C237.133 110.735 244.583 98.644 251.218 94.4679C257.852 90.2918 260.752 84.8649 251.632 78.1872C242.512 71.5094 71.2241 66.5127 71.2241 66.5127Z" fill="url(#paint5_radial_0_5491)"/>
<path d="M50.8006 198.545C50.8006 198.545 47.8943 191.451 56.6066 190.604C65.319 189.756 71.1184 193.913 78.1672 194.78C85.216 195.647 101.391 199.783 111.34 200.829C121.288 201.874 148.247 204.376 148.247 204.376C148.247 204.376 153.225 208.135 141.613 209.386C130.001 210.637 94.3425 212.305 91.8505 218.148C89.3584 223.992 93.9283 228.585 96.828 229.836C99.7277 231.087 117.146 232.967 123.787 233.384C130.428 233.8 157.38 232.761 171.064 229.413C184.747 226.064 203.822 220.65 210.042 219.816C210.042 219.816 190.553 226.077 181.433 229.83C172.313 233.582 148.668 241.934 128.764 240.683C108.861 239.433 95.9995 236.931 84.8214 236.077C73.6433 235.223 49.8866 229.942 37.1305 224.826C24.6899 219.823 19.3047 213.979 22.6187 208.943C25.9327 203.906 37.5513 208.943 37.9655 205.183C38.3798 201.424 44.2976 202.357 45.4285 209.571C46.0466 213.542 52.8916 223.549 85.2357 228.559C85.2357 228.559 88.142 226.891 87.3135 222.298C86.485 217.705 83.1644 219.379 71.1381 215.203C59.1118 211.027 53.2598 207.281 50.8006 198.545Z" fill="#914004"/>
<path d="M130.836 35.7315C138.967 35.7315 145.559 34.6115 145.559 33.2298C145.559 31.8482 138.967 30.7281 130.836 30.7281C122.706 30.7281 116.114 31.8482 116.114 33.2298C116.114 34.6115 122.706 35.7315 130.836 35.7315Z" fill="#6C3200"/>
<path opacity="0.18" d="M95.1719 105.699C96.1056 105.957 119.428 115.037 148.353 112.218C177.278 109.399 192.211 101.265 198.431 100.636C204.651 100.007 230.46 91.2449 237.304 89.683C244.149 88.1211 253.48 82.1647 248.193 76.8437C242.907 71.5227 95.1719 105.699 95.1719 105.699Z" fill="black"/>
<path d="M51.1631 79.3519C51.1631 79.3519 51.6299 84.4082 53.4973 85.8179C55.3647 87.2276 53.4973 88.3262 56.4497 90.358C59.402 92.3898 78.8453 101.609 95.1719 105.699C111.498 109.789 130.159 112.43 153.64 108.201C177.12 103.972 186.3 99.4381 198.582 96.1489C210.865 92.8597 227.198 87.3864 236.22 85.1958C245.241 83.0052 246.477 80.3381 247.569 78.4651C248.66 76.5922 248.969 72.3565 247.26 71.4167C245.55 70.477 224.088 77.9952 224.088 77.9952L141.199 82.8463L51.1631 79.3519Z" fill="#FFEDC4"/>
<path d="M57.2055 61.7145C57.2055 61.7145 52.5436 63.9051 51.2877 72.3565C50.0318 80.8079 51.5968 84.2692 59.9935 87.0687C68.3902 89.8682 83.9409 98.9815 104.778 102.41C125.615 105.838 143.967 103.661 172.583 97.7174C201.199 91.7743 222.963 82.0654 232.918 80.1858C242.873 78.3063 249.087 73.6074 246.911 70.4769C244.734 67.3465 228.25 67.3466 228.25 67.3466L57.2055 61.7145Z" fill="url(#paint6_radial_0_5491)"/>
<path d="M64.5365 68.551C64.5365 68.551 49.9721 72.4624 51.2149 78.7563C52.4576 85.0502 69.8757 90.8609 73.1897 92.1118C76.5037 93.3626 77.3387 99.6234 74.439 99.6234C71.5393 99.6234 62.8269 95.4539 62.4127 99.2064C61.9984 102.959 76.7141 105.679 82.8357 109.134C88.9574 112.588 93.5141 119.676 88.5365 119.26C83.559 118.843 65.2598 116.751 67.3311 123.846C69.4023 130.941 79.41 128.856 91.8505 134.7C104.291 140.544 93.9283 142.642 86.4587 140.961C74.4916 138.313 66.5552 146.387 83.559 149.306C100.563 152.225 103.89 153.853 102.22 158.836C100.55 163.82 83.9732 162.595 78.9957 164.68C74.0182 166.765 74.439 174.277 86.4587 178.036C98.4785 181.795 103.048 176.368 110.926 179.703C118.803 183.039 129.586 183.879 133.321 178.036C137.056 172.192 122.952 165.931 117.146 163.012C111.34 160.094 103.048 158.002 108.44 154.243C113.832 150.484 122.123 154.243 121.709 149.65C121.295 145.057 108.44 145.481 105.12 142.139C101.799 138.796 103.048 134.627 114.246 135.461C125.444 136.295 127.561 130.424 120.519 127.069C113.477 123.714 100.977 124.197 98.0708 120.861C95.1645 117.526 91.8505 110.007 96.828 110.007C101.806 110.007 109.012 116.923 111.655 112.979C113.714 109.915 100.563 107.188 95.1711 105.699C89.7793 104.21 80.7842 101.185 80.7842 101.185C80.7842 101.185 76.096 98.7564 79.8242 92.0787C83.5524 85.4009 94.3426 92.4956 106.783 87.9092C119.224 83.3228 107.178 74.4214 92.7119 73.1639C83.2268 72.2726 73.8132 70.7314 64.5365 68.551Z" fill="#914004"/>
<path opacity="0.18" d="M54.4311 63.7L52.248 68.0812C52.248 68.0812 64.0837 77.4724 94.2382 77.1613C124.393 76.8503 132.494 78.7232 140.581 75.5928C148.669 72.4624 174.477 74.931 180.079 74.931C185.681 74.931 214.271 73.0581 223.312 69.9277C232.353 66.7973 54.4311 63.7 54.4311 63.7Z" fill="black"/>
<path d="M43.2329 40.4304C43.2361 41.657 43.4451 42.8742 43.851 44.0307C44.5086 45.4338 42.6083 47.631 42.6083 51.2313C42.6083 54.8316 46.0275 59.8349 58.159 65.9435C70.2905 72.0521 88.3266 73.2963 111.031 74.0773C133.736 74.8582 128.127 72.3565 159.242 71.2645C190.356 70.1725 182.098 74.8648 215.066 71.1057C248.035 67.3466 248.66 62.5021 249.436 61.2446C250.212 59.9872 251.178 55.1426 250.521 53.6072C249.863 52.0718 237.613 49.8547 237.613 49.8547L43.2329 40.4304Z" fill="#FFEDC4"/>
<path d="M45.718 45.6654C45.718 45.6654 46.7569 44.4145 44.2649 42.3563C41.7728 40.298 43.8506 34.8446 51.3202 29.2126C58.7898 23.5805 89.4572 10.8471 142.132 13.1436C194.807 15.4401 231.912 33.3357 238.547 38.1339C245.181 42.9321 250.159 46.6912 249.955 51.9063C249.955 51.9063 252.44 55.6654 245.391 56.4993C238.343 57.3332 225.902 59.4179 214.29 61.0857C202.678 62.7535 170.123 64.3948 151.259 62.7601C132.394 61.1254 117.462 65.8905 91.5416 63.594C65.6216 61.2975 50.8534 58.1803 45.718 51.9063C42.8183 48.359 45.718 45.6654 45.718 45.6654Z" fill="url(#paint7_linear_0_5491)"/>
<path d="M126.247 26.7572C126.247 26.7572 96.0792 26.4462 98.5647 32.3165C101.05 38.1868 110.696 33.8586 114.424 41.2709C118.153 48.6833 89.8589 45.9036 79.5751 45.5926C69.2913 45.2815 62.203 52.1181 64.7674 58.69C68.1932 67.4591 73.5061 66.0362 69.8765 69.9409C69.5148 70.3314 72.7762 70.7748 72.7762 70.7748C72.7762 70.7748 74.4858 69.7026 72.4672 64.4015C70.1132 58.2399 83.6452 55.7581 95.7899 57.6112C107.935 59.4643 145.243 59.7754 156.441 60.3909C167.639 61.0063 183.498 62.2439 186.918 58.2267C190.337 54.2095 178.521 57.0156 179.77 51.1452C181.019 45.2749 195.005 49.6032 211.799 47.4457C228.592 45.2882 221.445 36.3271 211.799 33.8586C202.153 31.39 224.239 31.6944 234.812 36.6382C245.386 41.582 238.856 32.932 226.416 28.9148C213.975 24.8975 185.359 27.0683 166.698 28.2993C148.038 29.5303 142.758 27.0683 126.247 26.7572Z" fill="#914004"/>
<path opacity="0.18" d="M245.7 108.359C236.679 115.242 223.62 117.122 214.599 118.062C205.578 119.001 188.475 120.881 156.736 125.262C124.997 129.643 95.7761 122.132 86.4457 117.122C77.9767 112.575 60.5257 105.706 53.8978 101.199L53.1679 101.265C53.1679 101.265 52.5498 102.932 52.5498 107.42C52.5498 111.907 67.4758 113.786 76.221 117.539C84.9662 121.291 105.764 127.976 121.315 129.643C136.865 131.311 159.57 130.06 172.944 127.87C186.319 125.679 210.575 121.298 217.111 121.913C223.647 122.529 253.183 118.604 253.183 100.841C253.181 100.637 253.152 100.435 253.098 100.239C251.146 103.378 248.639 106.131 245.7 108.359Z" fill="black"/>
<path opacity="0.18" d="M81.4882 136.533C74.6433 134.342 58.4745 129.644 54.1151 120.252C54.1151 120.252 51.6296 121.609 50.3868 125.679C50.3868 125.679 60.3353 134.448 70.5995 136.93C80.8636 139.412 89.5693 142.887 96.7233 140.689C96.8623 140.662 96.9935 140.604 97.1073 140.52C97.2211 140.435 97.3146 140.325 97.3808 140.2C90.6214 138.777 84.5852 137.526 81.4882 136.533Z" fill="black"/>
<path d="M86.1373 45.3875C86.1372 45.7929 86.017 46.189 85.792 46.5253C85.5671 46.8615 85.2476 47.1226 84.8745 47.2752C84.5014 47.4279 84.0915 47.465 83.6973 47.382C83.3031 47.2989 82.9424 47.0995 82.6614 46.8091C82.3803 46.5187 82.1917 46.1505 82.1196 45.7517C82.0475 45.3529 82.0952 44.9415 82.2566 44.57C82.418 44.1986 82.6857 43.8841 83.0256 43.6666C83.3655 43.4491 83.7621 43.3385 84.1647 43.3491C84.6932 43.3612 85.1959 43.5815 85.5648 43.9627C85.9336 44.3438 86.1392 44.8554 86.1373 45.3875Z" fill="#D72F5D"/>
<path d="M101.083 52.5814C102.198 52.5814 103.102 51.6717 103.102 50.5496C103.102 49.4275 102.198 48.5178 101.083 48.5178C99.9682 48.5178 99.0645 49.4275 99.0645 50.5496C99.0645 51.6717 99.9682 52.5814 101.083 52.5814Z" fill="#F6605D"/>
<path d="M107.77 46.7904C107.771 47.1939 107.654 47.5886 107.432 47.9247C107.21 48.2608 106.894 48.5231 106.525 48.6784C106.155 48.8337 105.747 48.875 105.354 48.7971C104.961 48.7192 104.599 48.5256 104.315 48.2408C104.031 47.956 103.838 47.5928 103.759 47.1972C103.68 46.8016 103.72 46.3914 103.873 46.0185C104.026 45.6457 104.286 45.3269 104.619 45.1027C104.952 44.8784 105.344 44.7587 105.745 44.7587C106.281 44.7587 106.795 44.9725 107.175 45.3534C107.554 45.7342 107.768 46.251 107.77 46.7904Z" fill="#D72F5D"/>
<path d="M213.823 44.2888C214.938 44.2888 215.842 43.3791 215.842 42.257C215.842 41.1349 214.938 40.2252 213.823 40.2252C212.708 40.2252 211.805 41.1349 211.805 42.257C211.805 43.3791 212.708 44.2888 213.823 44.2888Z" fill="#D72F5D"/>
<path d="M227.507 31.6613C228.622 31.6613 229.525 30.7517 229.525 29.6296C229.525 28.5074 228.622 27.5978 227.507 27.5978C226.392 27.5978 225.488 28.5074 225.488 29.6296C225.488 30.7517 226.392 31.6613 227.507 31.6613Z" fill="#D72F5D"/>
<path d="M98.8997 86.3871C100.015 86.3871 100.918 85.4774 100.918 84.3553C100.918 83.2331 100.015 82.3235 98.8997 82.3235C97.7849 82.3235 96.8811 83.2331 96.8811 84.3553C96.8811 85.4774 97.7849 86.3871 98.8997 86.3871Z" fill="#D72F5D"/>
<path d="M77.9108 204.409C77.9121 204.813 77.7944 205.207 77.5726 205.543C77.3509 205.88 77.0351 206.142 76.6651 206.297C76.2952 206.452 75.8878 206.494 75.4945 206.416C75.1012 206.338 74.7397 206.144 74.4559 205.859C74.172 205.575 73.9784 205.211 73.8997 204.816C73.8211 204.42 73.8608 204.01 74.0139 203.637C74.167 203.264 74.4265 202.946 74.7597 202.721C75.0929 202.497 75.4847 202.377 75.8856 202.377C76.4215 202.377 76.9357 202.591 77.3153 202.972C77.6949 203.353 77.909 203.87 77.9108 204.409Z" fill="#D72F5D"/>
<path d="M130.626 53.21C131.741 53.21 132.645 52.3004 132.645 51.1783C132.645 50.0561 131.741 49.1465 130.626 49.1465C129.511 49.1465 128.607 50.0561 128.607 51.1783C128.607 52.3004 129.511 53.21 130.626 53.21Z" fill="#F6605D"/>
<path d="M107.178 205.978C107.178 206.381 107.06 206.775 106.837 207.11C106.614 207.445 106.298 207.707 105.928 207.861C105.558 208.015 105.151 208.055 104.758 207.977C104.365 207.898 104.004 207.704 103.721 207.419C103.438 207.134 103.245 206.771 103.167 206.375C103.089 205.98 103.129 205.57 103.282 205.197C103.435 204.825 103.695 204.507 104.028 204.283C104.361 204.059 104.753 203.939 105.153 203.939C105.69 203.939 106.205 204.154 106.585 204.536C106.965 204.918 107.178 205.437 107.178 205.978Z" fill="#F6605D"/>
<path d="M110.097 173.416C111.212 173.416 112.116 172.506 112.116 171.384C112.116 170.262 111.212 169.353 110.097 169.353C108.983 169.353 108.079 170.262 108.079 171.384C108.079 172.506 108.983 173.416 110.097 173.416Z" fill="#F6605D"/>
<path d="M88.3262 129.749C89.4411 129.749 90.3449 128.84 90.3449 127.718C90.3449 126.595 89.4411 125.686 88.3262 125.686C87.2114 125.686 86.3076 126.595 86.3076 127.718C86.3076 128.84 87.2114 129.749 88.3262 129.749Z" fill="#F6605D"/>
<path d="M183.965 57.1214C185.08 57.1214 185.984 56.2118 185.984 55.0896C185.984 53.9675 185.08 53.0579 183.965 53.0579C182.85 53.0579 181.946 53.9675 181.946 55.0896C181.946 56.2118 182.85 57.1214 183.965 57.1214Z" fill="#F6605D"/>
<path d="M59.0928 80.755C60.2077 80.755 61.1115 79.8453 61.1115 78.7232C61.1115 77.6011 60.2077 76.6914 59.0928 76.6914C57.978 76.6914 57.0742 77.6011 57.0742 78.7232C57.0742 79.8453 57.978 80.755 59.0928 80.755Z" fill="#F6605D"/>
<path d="M110.255 27.6971C110.257 28.1005 110.139 28.4953 109.917 28.8313C109.696 29.1674 109.38 29.4297 109.01 29.585C108.64 29.7403 108.232 29.7816 107.839 29.7037C107.446 29.6258 107.084 29.4322 106.8 29.1474C106.517 28.8626 106.323 28.4994 106.244 28.1038C106.166 27.7082 106.205 27.298 106.358 26.9252C106.512 26.5523 106.771 26.2336 107.104 26.0093C107.437 25.785 107.829 25.6653 108.23 25.6653C108.766 25.6653 109.28 25.8791 109.66 26.26C110.039 26.6408 110.254 27.1576 110.255 27.6971Z" fill="#F6605D"/>
<path d="M208.096 38.1736C208.315 38.3952 208.464 38.677 208.524 38.9836C208.584 39.2902 208.552 39.6077 208.433 39.8962C208.314 40.1847 208.112 40.4311 207.854 40.6045C207.596 40.7779 207.292 40.8705 206.982 40.8705C206.672 40.8705 206.368 40.7779 206.11 40.6045C205.852 40.4311 205.65 40.1847 205.531 39.8962C205.412 39.6077 205.38 39.2902 205.44 38.9836C205.5 38.677 205.649 38.3952 205.867 38.1736C206.163 37.8765 206.564 37.7097 206.982 37.7097C207.4 37.7097 207.801 37.8765 208.096 38.1736Z" fill="#F6605D"/>
<path d="M216.723 28.7691C217.591 28.7691 218.294 28.0609 218.294 27.1873C218.294 26.3138 217.591 25.6056 216.723 25.6056C215.855 25.6056 215.151 26.3138 215.151 27.1873C215.151 28.0609 215.855 28.7691 216.723 28.7691Z" fill="#F6605D"/>
<path d="M115.851 47.0288C115.851 47.2605 115.783 47.487 115.655 47.6796C115.527 47.8723 115.345 48.0224 115.133 48.1111C114.92 48.1997 114.686 48.2229 114.46 48.1777C114.234 48.1325 114.027 48.021 113.864 47.8572C113.701 47.6933 113.591 47.4846 113.546 47.2574C113.501 47.0301 113.524 46.7946 113.612 46.5806C113.7 46.3665 113.849 46.1836 114.041 46.0548C114.232 45.9261 114.457 45.8574 114.687 45.8574C114.996 45.8574 115.292 45.9808 115.51 46.2005C115.728 46.4202 115.851 46.7182 115.851 47.0288Z" fill="#F6605D"/>
<path d="M123.709 57.201C123.71 57.4342 123.643 57.6626 123.515 57.8572C123.387 58.0518 123.205 58.2038 122.991 58.294C122.777 58.3842 122.542 58.4085 122.314 58.3638C122.087 58.3191 121.878 58.2074 121.713 58.0429C121.549 57.8784 121.437 57.6685 121.391 57.4398C121.345 57.2111 121.368 56.9739 121.457 56.7583C121.545 56.5427 121.695 56.3583 121.888 56.2285C122.08 56.0988 122.307 56.0295 122.539 56.0295C122.848 56.0295 123.145 56.1527 123.364 56.3722C123.583 56.5917 123.707 56.8897 123.709 57.201Z" fill="#F6605D"/>
<path d="M70.29 84.3553C70.2913 84.5885 70.2238 84.8169 70.096 85.0115C69.9682 85.2061 69.7858 85.3581 69.5721 85.4483C69.3583 85.5385 69.1228 85.5628 68.8953 85.5181C68.6679 85.4734 68.4587 85.3617 68.2944 85.1972C68.13 85.0327 68.0179 84.8228 67.9722 84.5941C67.9265 84.3654 67.9493 84.1282 68.0377 83.9126C68.1261 83.697 68.2761 83.5126 68.4687 83.3828C68.6613 83.2531 68.8879 83.1838 69.1196 83.1838C69.4289 83.1838 69.7256 83.307 69.9449 83.5265C70.1642 83.746 70.2883 84.044 70.29 84.3553Z" fill="#F6605D"/>
<path d="M80.7842 124.508C80.7842 124.741 80.7154 124.969 80.5865 125.163C80.4576 125.357 80.2744 125.508 80.0601 125.597C79.8459 125.686 79.6102 125.709 79.383 125.663C79.1558 125.617 78.9473 125.504 78.7838 125.339C78.6204 125.173 78.5095 124.963 78.4651 124.734C78.4206 124.505 78.4448 124.268 78.5344 124.052C78.6239 123.837 78.775 123.654 78.9683 123.525C79.1617 123.397 79.3886 123.329 79.6203 123.33C79.7737 123.33 79.9256 123.36 80.0672 123.42C80.2089 123.479 80.3375 123.566 80.4456 123.675C80.5538 123.785 80.6394 123.915 80.6975 124.058C80.7556 124.2 80.785 124.354 80.7842 124.508Z" fill="#F6605D"/>
<path d="M107.224 82.7935C107.225 83.0268 107.157 83.2552 107.03 83.4498C106.902 83.6443 106.719 83.7964 106.506 83.8865C106.292 83.9767 106.056 84.001 105.829 83.9563C105.601 83.9116 105.392 83.7999 105.228 83.6354C105.064 83.471 104.951 83.2611 104.906 83.0324C104.86 82.8037 104.883 82.5665 104.971 82.3508C105.06 82.1352 105.21 81.9508 105.402 81.8211C105.595 81.6913 105.821 81.6221 106.053 81.6221C106.362 81.6221 106.659 81.7453 106.878 81.9648C107.098 82.1843 107.222 82.4822 107.224 82.7935Z" fill="#F6605D"/>
<path d="M177.666 54.3088C177.664 54.5402 177.595 54.766 177.466 54.9578C177.338 55.1495 177.156 55.2986 176.943 55.3863C176.73 55.4739 176.496 55.4962 176.271 55.4502C176.046 55.4043 175.839 55.2922 175.677 55.1281C175.515 54.9641 175.404 54.7553 175.36 54.5283C175.316 54.3012 175.339 54.066 175.427 53.8524C175.516 53.6387 175.665 53.4561 175.856 53.3277C176.047 53.1993 176.272 53.1307 176.502 53.1307C176.655 53.1307 176.807 53.1613 176.949 53.2205C177.09 53.2798 177.219 53.3667 177.327 53.4762C177.435 53.5857 177.521 53.7156 177.579 53.8585C177.637 54.0013 177.667 54.1544 177.666 54.3088Z" fill="#F6605D"/>
<path d="M76.4317 50.0003C76.433 50.2339 76.3653 50.4625 76.2372 50.6573C76.1091 50.852 75.9264 51.004 75.7123 51.094C75.4981 51.184 75.2623 51.2079 75.0346 51.1626C74.807 51.1174 74.5978 51.005 74.4337 50.8399C74.2697 50.6747 74.1581 50.4642 74.1131 50.2351C74.0682 50.006 74.0919 49.7686 74.1813 49.553C74.2707 49.3375 74.4217 49.1536 74.6152 49.0247C74.8087 48.8957 75.0359 48.8276 75.2679 48.8289C75.576 48.8306 75.8711 48.9546 76.089 49.1739C76.3068 49.3932 76.43 49.6902 76.4317 50.0003Z" fill="#F6605D"/>
<path d="M105.981 31.2178C105.983 31.4511 105.915 31.6795 105.787 31.8741C105.66 32.0687 105.477 32.2207 105.263 32.3109C105.05 32.4011 104.814 32.4253 104.587 32.3806C104.359 32.3359 104.15 32.2242 103.986 32.0598C103.821 31.8953 103.709 31.6854 103.664 31.4567C103.618 31.228 103.641 30.9908 103.729 30.7751C103.817 30.5595 103.967 30.3751 104.16 30.2454C104.353 30.1156 104.579 30.0464 104.811 30.0464C105.12 30.0464 105.417 30.1696 105.636 30.3891C105.856 30.6086 105.98 30.9065 105.981 31.2178Z" fill="#F6605D"/>
<path d="M124.563 41.1584C124.565 41.3916 124.497 41.62 124.369 41.8146C124.241 42.0092 124.059 42.1613 123.845 42.2514C123.632 42.3416 123.396 42.3659 123.169 42.3212C122.941 42.2765 122.732 42.1648 122.568 42.0003C122.403 41.8358 122.291 41.6259 122.245 41.3972C122.2 41.1686 122.222 40.9313 122.311 40.7157C122.399 40.5001 122.549 40.3157 122.742 40.1859C122.934 40.0562 123.161 39.9869 123.393 39.9869C123.702 39.9869 123.999 40.1101 124.218 40.3296C124.437 40.5491 124.561 40.8471 124.563 41.1584Z" fill="#F6605D"/>
<path d="M91.9824 210.279C91.9837 210.513 91.916 210.742 91.7879 210.936C91.6598 211.131 91.4771 211.283 91.2629 211.373C91.0488 211.463 90.8129 211.487 90.5853 211.442C90.3576 211.397 90.1485 211.284 89.9844 211.119C89.8203 210.954 89.7087 210.743 89.6638 210.514C89.6188 210.285 89.6426 210.048 89.732 209.832C89.8214 209.617 89.9724 209.433 90.1659 209.304C90.3593 209.175 90.5865 209.107 90.8186 209.108C91.1272 209.108 91.4233 209.231 91.6415 209.451C91.8598 209.671 91.9824 209.969 91.9824 210.279Z" fill="#F6605D"/>
<path d="M223.338 27.7962C223.339 28.0294 223.272 28.2579 223.144 28.4524C223.016 28.647 222.834 28.7991 222.62 28.8892C222.406 28.9794 222.171 29.0037 221.943 28.959C221.716 28.9143 221.507 28.8026 221.342 28.6381C221.178 28.4736 221.066 28.2638 221.02 28.0351C220.975 27.8064 220.997 27.5692 221.086 27.3535C221.174 27.1379 221.324 26.9535 221.517 26.8238C221.709 26.694 221.936 26.6248 222.168 26.6248C222.477 26.6248 222.774 26.748 222.993 26.9675C223.212 27.1869 223.336 27.4849 223.338 27.7962Z" fill="#F6605D"/>
<path d="M206.044 45.2285C206.044 45.4602 205.976 45.6867 205.848 45.8793C205.72 46.072 205.539 46.2221 205.326 46.3108C205.113 46.3995 204.879 46.4227 204.654 46.3775C204.428 46.3323 204.22 46.2207 204.058 46.0569C203.895 45.893 203.784 45.6843 203.739 45.4571C203.694 45.2298 203.717 44.9943 203.805 44.7803C203.893 44.5662 204.043 44.3833 204.234 44.2545C204.425 44.1258 204.65 44.0571 204.881 44.0571C205.189 44.0571 205.485 44.1805 205.704 44.4002C205.922 44.6199 206.044 44.9179 206.044 45.2285Z" fill="#F6605D"/>
<path opacity="0.19" d="M246.53 226.792C246.53 228.288 239.954 229.505 231.807 229.505C223.661 229.505 217.092 228.288 217.092 226.792C217.092 225.296 223.667 224.078 231.807 224.078C239.948 224.078 246.53 225.296 246.53 226.792Z" fill="black"/>
<path opacity="0.19" d="M179.349 242.444C179.349 243.939 172.774 245.157 164.633 245.157C156.493 245.157 149.918 243.939 149.918 242.444C149.918 240.948 156.493 239.73 164.64 239.73C172.787 239.73 179.349 240.948 179.349 242.444Z" fill="black"/>
<path opacity="0.19" d="M147.63 243.073C147.63 244.568 141.055 245.786 132.908 245.786C124.761 245.786 118.186 244.568 118.186 243.073C118.186 241.577 124.761 240.359 132.908 240.359C141.055 240.359 147.63 241.564 147.63 243.073Z" fill="black"/>
<path d="M79.1539 174.356C80.4765 175.727 81.9972 176.89 83.6646 177.804C86.2948 179.207 85.841 184.376 85.0652 187.506C84.2893 190.637 80.8635 190.948 76.6684 190.815C72.4734 190.683 56.9424 188.936 53.0301 191.596C49.1178 194.257 83.04 205.058 83.04 205.058L104.66 199.869C104.66 199.869 92.995 197.367 91.2854 192.357C89.5758 187.347 89.7271 184.998 90.8186 182.966C91.9101 180.934 95.1715 179.207 98.2816 179.207C101.392 179.207 79.1539 174.356 79.1539 174.356Z" fill="#914004"/>
<path d="M226.626 204.25C226.626 204.25 229.013 202.794 229.841 202.688C230.67 202.583 232.018 204.879 232.018 204.879C232.25 204.151 232.563 203.451 232.951 202.794C233.57 201.749 235.851 204.462 235.851 204.462C235.851 204.462 236.062 202.477 236.371 202.377C236.68 202.278 239.277 204.879 239.277 204.879L236.785 208.115C236.785 208.115 228.802 208.737 228.388 208.426C227.974 208.115 226.626 204.25 226.626 204.25Z" fill="#343057"/>
<path d="M227.336 203.218C227.336 203.218 213.87 205.203 217.664 218.096C221.458 230.988 240.678 229.148 245.386 223.622C250.094 218.096 252.835 208.486 238.455 203.615C238.04 203.893 237.695 204.263 237.445 204.696C237.195 205.13 237.048 205.616 237.015 206.117C236.299 205.264 235.399 204.585 234.385 204.131C233.509 204.795 232.794 205.65 232.294 206.633C232.294 206.633 232.689 205.183 230.203 203.986C230.203 203.986 228.369 204.647 227.849 205.971L227.336 203.218Z" fill="#605A8F"/>
<path opacity="0.45" d="M241.551 217.923C237.751 226.884 226.329 226.031 220.596 223.218C227.303 230.266 241.44 228.228 245.385 223.595C249.987 218.155 252.736 208.771 239.112 203.827L239.066 204.019L238.454 203.589C238.454 203.589 245.497 208.638 241.551 217.923Z" fill="#343057"/>
<path opacity="0.16" d="M220.202 211.782C220.202 211.782 220.977 208.962 223.154 208.023C223.67 207.77 224.24 207.65 224.813 207.674C225.386 207.698 225.944 207.864 226.438 208.159C226.931 208.454 227.344 208.867 227.64 209.362C227.935 209.856 228.104 210.417 228.131 210.994C228.441 213.814 227.816 216.474 225.639 218.512C223.463 220.551 218.176 218.182 220.202 211.782Z" fill="#E0E6FF"/>
<path opacity="0.19" d="M130.625 37.0882C136.294 37.0882 140.89 36.1786 140.89 35.0564C140.89 33.9343 136.294 33.0247 130.625 33.0247C124.957 33.0247 120.361 33.9343 120.361 35.0564C120.361 36.1786 124.957 37.0882 130.625 37.0882Z" fill="black"/>
<path opacity="0.19" d="M207.781 30.9863C207.781 32.1114 203.178 33.0181 197.517 33.0181C191.856 33.0181 187.253 32.1114 187.253 30.9863C187.253 29.8612 191.856 28.9479 197.517 28.9479C203.178 28.9479 207.781 29.8612 207.781 30.9863Z" fill="black"/>
<path opacity="0.19" d="M158.775 58.6834C165.733 58.6834 171.373 57.5634 171.373 56.1817C171.373 54.8001 165.733 53.6801 158.775 53.6801C151.817 53.6801 146.177 54.8001 146.177 56.1817C146.177 57.5634 151.817 58.6834 158.775 58.6834Z" fill="black"/>
<path opacity="0.19" d="M81.6395 30.1987C88.5974 30.1987 94.2379 29.0786 94.2379 27.697C94.2379 26.3153 88.5974 25.1953 81.6395 25.1953C74.6816 25.1953 69.0411 26.3153 69.0411 27.697C69.0411 29.0786 74.6816 30.1987 81.6395 30.1987Z" fill="black"/>
<path opacity="0.19" d="M169.19 29.8876C174.514 29.8876 178.83 29.4669 178.83 28.9478C178.83 28.4288 174.514 28.0081 169.19 28.0081C163.866 28.0081 159.551 28.4288 159.551 28.9478C159.551 29.4669 163.866 29.8876 169.19 29.8876Z" fill="black"/>
<path d="M126.904 9.74847C126.904 9.74847 124.682 9.49036 124.162 9.49036C123.643 9.49036 123.952 12.356 123.952 12.356C122.979 12.1568 121.992 12.0351 120.999 11.992C120.585 12.0979 120.427 15.1224 120.427 15.1224C119.33 14.8456 118.349 14.2244 117.626 13.3488C117.614 14.6755 117.685 16.0017 117.837 17.3197C118.041 18.3124 121.986 18.6764 122.242 18.4712C122.499 18.2661 128.818 13.1767 128.818 13.0443C128.818 12.912 126.904 9.74847 126.904 9.74847Z" fill="#343057"/>
<path d="M117.614 13.3488C117.614 13.3488 117.771 15.6982 115.437 19.6096C113.103 23.5209 113.57 30.2516 119.014 34.0108C124.458 37.7699 135.656 36.0425 141.41 29.6295C147.163 23.2165 144.697 14.1297 139.7 10.9993C134.703 7.86893 128.811 10.2184 126.635 8.80872C126.337 9.687 126.145 10.598 126.063 11.5222C126.063 12.5149 124.406 11.681 123.111 11.681C122.784 12.6666 122.542 13.6784 122.387 14.7055C122.335 15.6453 120.158 14.2886 119.534 14.1827C118.909 14.0768 119.428 14.9702 118.758 16.2211C118.087 17.4719 117.614 13.3488 117.614 13.3488Z" fill="#605A8F"/>
<path opacity="0.45" d="M139.7 10.9993C136.379 8.91461 132.651 9.25876 129.883 9.30509L129.692 9.43745C143.066 10.9993 141.528 29.8876 128.66 32.9122C120.46 34.838 116.732 31.4562 115.068 29.2655C115.917 31.1873 117.284 32.8312 119.014 34.0108C124.458 37.7699 135.656 36.0426 141.409 29.6295C147.163 23.2165 144.658 14.1297 139.7 10.9993Z" fill="#343057"/>
<path d="M159.241 5.47316C159.241 5.47316 161.621 4.01054 162.45 3.90465C163.278 3.79876 164.633 6.09526 164.633 6.09526C164.865 5.36837 165.176 4.66929 165.56 4.01054C166.218 2.96486 168.466 5.67832 168.466 5.67832C168.466 5.67832 168.67 3.69286 168.986 3.59359C169.301 3.49432 171.886 6.09526 171.886 6.09526L169.4 9.33156C169.4 9.33156 161.418 9.99337 161.003 9.64261C160.589 9.29185 159.241 5.47316 159.241 5.47316Z" fill="#343057"/>
<path d="M159.952 4.44067C159.952 4.44067 146.479 6.42613 150.273 19.3117C154.067 32.1973 173.287 30.3707 177.995 24.8379C182.702 19.3051 185.425 9.70213 171.064 4.83776C170.653 5.11646 170.312 5.48635 170.065 5.91894C169.819 6.35153 169.675 6.83525 169.644 7.33282C168.923 6.4839 168.025 5.80589 167.014 5.34736C166.137 6.01092 165.422 6.86638 164.923 7.84904C164.923 7.84904 165.311 6.39966 162.825 5.20177C162.825 5.20177 160.997 5.86358 160.471 7.18722L159.952 4.44067Z" fill="#605A8F"/>
<path opacity="0.45" d="M174.167 19.1397C170.367 28.1007 158.939 27.2469 153.205 24.4871C159.919 31.5355 174.049 29.4971 177.994 24.8644C182.63 19.4242 185.352 10.0397 171.728 5.10249L171.682 5.29441L171.064 4.87085C171.064 4.87085 178.106 9.85434 174.167 19.1397Z" fill="#343057"/>
<path d="M83.8155 144.932C84.9304 144.932 85.8341 144.022 85.8341 142.9C85.8341 141.778 84.9304 140.868 83.8155 140.868C82.7006 140.868 81.7969 141.778 81.7969 142.9C81.7969 144.022 82.7006 144.932 83.8155 144.932Z" fill="#D72F5D"/>
<path d="M99.3663 147.433C100.481 147.433 101.385 146.524 101.385 145.401C101.385 144.279 100.481 143.37 99.3663 143.37C98.2514 143.37 97.3477 144.279 97.3477 145.401C97.3477 146.524 98.2514 147.433 99.3663 147.433Z" fill="#F6605D"/>
<path d="M61.4268 199.71C62.5417 199.71 63.4455 198.801 63.4455 197.678C63.4455 196.556 62.5417 195.647 61.4268 195.647C60.312 195.647 59.4082 196.556 59.4082 197.678C59.4082 198.801 60.312 199.71 61.4268 199.71Z" fill="#F6605D"/>
<path d="M104.811 144.462C104.812 144.695 104.744 144.924 104.616 145.119C104.488 145.313 104.305 145.465 104.091 145.555C103.877 145.645 103.641 145.669 103.413 145.624C103.186 145.579 102.977 145.466 102.813 145.301C102.648 145.136 102.537 144.926 102.492 144.696C102.447 144.467 102.471 144.23 102.56 144.014C102.649 143.799 102.801 143.615 102.994 143.486C103.187 143.357 103.415 143.289 103.647 143.29C103.8 143.29 103.951 143.32 104.092 143.379C104.233 143.438 104.362 143.525 104.47 143.633C104.578 143.742 104.663 143.871 104.722 144.013C104.78 144.155 104.811 144.308 104.811 144.462Z" fill="#F6605D"/>
<path d="M85.7627 203.39C85.764 203.623 85.6963 203.852 85.5682 204.047C85.4401 204.242 85.2574 204.394 85.0432 204.484C84.8291 204.574 84.5932 204.597 84.3656 204.552C84.1379 204.507 83.9288 204.395 83.7647 204.229C83.6006 204.064 83.489 203.854 83.444 203.625C83.3991 203.396 83.4228 203.158 83.5122 202.943C83.6016 202.727 83.7527 202.543 83.9461 202.414C84.1396 202.285 84.3668 202.217 84.5989 202.218C84.907 202.22 85.202 202.344 85.4199 202.563C85.6378 202.783 85.761 203.08 85.7627 203.39Z" fill="#F6605D"/>
<path d="M123.084 170.213C123.084 170.446 123.015 170.674 122.886 170.868C122.757 171.062 122.574 171.213 122.36 171.302C122.146 171.391 121.91 171.414 121.683 171.368C121.455 171.322 121.247 171.209 121.084 171.044C120.92 170.878 120.809 170.668 120.765 170.439C120.72 170.21 120.744 169.973 120.834 169.758C120.924 169.542 121.075 169.359 121.268 169.23C121.461 169.102 121.688 169.034 121.92 169.035C122.073 169.035 122.225 169.065 122.367 169.125C122.509 169.184 122.637 169.271 122.745 169.38C122.853 169.49 122.939 169.62 122.997 169.763C123.055 169.906 123.085 170.059 123.084 170.213Z" fill="#F6605D"/>
<path d="M92.0548 167.003C92.0548 167.236 91.9862 167.464 91.8576 167.658C91.729 167.851 91.5462 168.002 91.3323 168.092C91.1184 168.181 90.8831 168.204 90.6561 168.159C90.429 168.113 90.2205 168.001 90.0568 167.836C89.8931 167.671 89.7816 167.462 89.7365 167.233C89.6913 167.005 89.7145 166.768 89.8031 166.552C89.8917 166.337 90.0417 166.153 90.2342 166.024C90.4266 165.894 90.6529 165.825 90.8844 165.825C91.1948 165.825 91.4925 165.949 91.712 166.17C91.9315 166.391 92.0548 166.691 92.0548 167.003Z" fill="#F6605D"/>
<path opacity="0.16" d="M122.854 26.1351C122.854 28.2066 121.387 29.8876 119.566 29.8876C117.745 29.8876 116.278 28.2066 116.278 26.1351C116.278 24.0636 117.745 22.376 119.566 22.376C121.387 22.376 122.854 24.057 122.854 26.1351Z" fill="#E0E6FF"/>
<path opacity="0.16" d="M120.414 19.7155C120.416 19.9438 120.349 20.1674 120.224 20.3578C120.099 20.5482 119.92 20.6968 119.711 20.7848C119.502 20.8727 119.271 20.8961 119.049 20.8519C118.826 20.8077 118.622 20.6978 118.461 20.5364C118.301 20.375 118.192 20.1692 118.148 19.9452C118.104 19.7212 118.127 19.4891 118.214 19.2784C118.302 19.0677 118.45 18.8879 118.639 18.7619C118.828 18.6359 119.05 18.5693 119.277 18.5706C119.426 18.5706 119.574 18.6002 119.712 18.6577C119.85 18.7153 119.975 18.7996 120.081 18.9059C120.187 19.0122 120.271 19.1385 120.328 19.2774C120.385 19.4163 120.414 19.5652 120.414 19.7155Z" fill="#E0E6FF"/>
<path opacity="0.16" d="M151.233 13.7657C151.233 13.7657 151.89 10.1654 153.863 8.65645C155.836 7.1475 158.939 6.88278 158.893 10.5294C158.847 14.176 157.749 16.1681 158.472 19.2985C159.196 22.4289 155.467 23.3157 153.81 21.8002C152.153 20.2846 150.575 17.9418 151.233 13.7657Z" fill="#E0E6FF"/>
<path d="M188.37 7.97493C188.37 7.97493 190.547 6.41304 191.171 6.51231C192.191 6.82973 193.07 7.49418 193.657 8.39188C193.657 8.39188 195.419 5.99609 196.044 5.99609C196.668 5.99609 198.115 8.18671 198.115 8.18671L198.43 6.51231C199.285 7.02665 199.914 7.84698 200.193 8.80882C200.607 10.3773 198.01 12.4621 198.01 12.4621C198.01 12.4621 192.309 14.7586 191.894 14.5534C191.48 14.3482 188.37 7.97493 188.37 7.97493Z" fill="#343057"/>
<path d="M188.791 7.0614C188.791 7.0614 175.325 9.04686 179.119 21.9325C182.913 34.8181 202.133 32.9848 206.841 27.4586C211.549 21.9325 214.29 12.3229 199.89 7.45187C199.483 7.72891 199.143 8.09575 198.897 8.5246C198.651 8.95346 198.505 9.43306 198.47 9.92707C197.753 9.07406 196.854 8.3953 195.84 7.94162C194.966 8.60767 194.251 9.46254 193.749 10.4433C193.749 10.4433 194.144 8.99391 191.658 7.79602C191.658 7.79602 189.824 8.45784 189.304 9.78147L188.791 7.0614Z" fill="#605A8F"/>
<path opacity="0.45" d="M207.307 11.4758C208.675 16.1814 206.795 24.2688 198.273 27.5382C191.303 30.1854 184.031 27.5977 181.572 26.5388C188.061 34.2291 202.797 32.204 206.841 27.4587C210.464 23.2099 212.91 16.5454 207.307 11.4758Z" fill="#343057"/>
<path opacity="0.16" d="M182.511 11.542C183.352 10.9653 184.378 10.729 185.385 10.8801C186.864 11.2044 188.212 12.9053 186.759 15.1952C185.306 17.4851 183.011 21.4957 181.085 20.0331C179.158 18.5705 179.309 17.0086 180.184 14.6459C180.708 13.4426 181.505 12.3796 182.511 11.542Z" fill="#E0E6FF"/>
<path d="M181.479 23.3158C181.479 23.3158 173.55 22.5349 170.124 28.9479C166.698 35.3609 168.414 43.1902 174.634 46.3207C180.855 49.451 189.1 49.9209 194.071 43.6734C199.042 37.4258 200.758 24.7255 181.479 23.3158Z" fill="#605A8F"/>
<path d="M179.665 23.3688C179.665 23.3688 181.578 24.6924 181.841 25.9234C181.841 25.9234 183.446 24.9307 184.643 25.1425C185.839 25.3542 186.451 27.2272 186.451 27.2272C186.451 27.2272 188.476 25.2417 189.41 25.9036C190.343 26.5654 191.014 27.7302 190.863 27.6772C190.712 27.6243 191.067 25.7977 191.843 26.0094C191.843 26.0094 191.185 23.296 189.982 23.4548C189.219 23.5728 188.501 23.8951 187.904 24.388C187.747 23.6067 187.338 22.8994 186.74 22.3761C185.859 21.7142 183.992 23.574 183.992 23.574C183.604 22.8604 183.031 22.2658 182.335 21.8532C181.322 21.3304 179.665 23.3688 179.665 23.3688Z" fill="#343057"/>
<path opacity="0.45" d="M195.8 29.4707C195.945 30.4436 196.879 38.3391 188.712 42.8262C179.954 47.631 170.959 40.4304 169.9 38.6038C169.771 38.3788 169.573 38.201 169.337 38.0963C169.101 37.9916 168.837 37.9654 168.585 38.0214C169.407 41.5754 171.478 44.7256 174.654 46.3206C180.874 49.451 189.12 49.9209 194.091 43.6733C197.017 39.9605 198.818 34.0108 195.8 29.4707Z" fill="#343057"/>
<path d="M154.764 30.7215C154.764 30.7215 144.566 30.1987 141.166 38.617C137.767 47.0353 141.429 57.0486 155.941 57.181C170.453 57.3134 172.932 48.2266 172.682 42.568C172.432 36.9095 167.323 30.1987 154.764 30.7215Z" fill="#605A8F"/>
<path d="M152.291 35.7381C152.291 35.7381 152.193 32.9187 153.541 33.7526C154.228 34.1437 154.855 34.6342 155.401 35.2086C155.401 35.2086 155.921 33.9578 156.716 33.7526C157.512 33.5475 157.808 36.2543 157.808 36.2543C157.808 36.2543 159.879 35.1093 160.609 35.7315C161.339 36.3536 159.675 37.7169 159.675 37.7169C159.675 37.7169 160.813 38.2397 159.879 38.9677C158.945 39.6957 159.675 41.4694 157.598 41.4694C157.338 41.4909 157.077 41.4532 156.834 41.3593C156.591 41.2654 156.372 41.1177 156.193 40.927C156.014 40.7363 155.88 40.5076 155.801 40.2578C155.722 40.008 155.7 39.7435 155.737 39.484C155.737 39.484 154.178 41.2576 153.139 40.523C152.101 39.7884 152.416 38.3324 152.416 38.3324C152.018 38.3233 151.629 38.2136 151.285 38.0135C150.94 37.8135 150.651 37.5294 150.444 37.1875C149.806 36.0425 152.291 35.7381 152.291 35.7381Z" fill="#343057"/>
<path opacity="0.45" d="M172.681 42.5681C172.64 41.7264 172.496 40.8929 172.254 40.0863C172.412 44.2293 170.61 51.999 159.55 54.408C148.78 56.7906 142.316 51.0195 141.258 49.9805C143.322 54.0838 148.004 57.1083 155.941 57.1811C170.459 57.3068 172.931 48.2267 172.681 42.5681Z" fill="#343057"/>
<path opacity="0.16" d="M142.448 41.1054C142.87 39.875 143.739 38.8511 144.881 38.2397C146.643 37.4522 149.286 38.1868 149.483 41.6282C149.681 45.0697 150.312 50.8937 147.254 50.8606C144.197 50.8275 143.184 49.0935 142.329 46.0095C141.988 44.3878 142.029 42.7084 142.448 41.1054Z" fill="#E0E6FF"/>
<path opacity="0.19" d="M194.696 176.705C200.978 176.705 206.071 175.692 206.071 174.442C206.071 173.192 200.978 172.179 194.696 172.179C188.413 172.179 183.321 173.192 183.321 174.442C183.321 175.692 188.413 176.705 194.696 176.705Z" fill="black"/>
<path d="M195.012 151.166C195.012 151.166 185.806 150.689 182.729 158.3C179.652 165.911 182.966 174.938 196.07 175.058C209.175 175.177 211.424 166.977 211.194 161.868C210.964 156.758 206.348 150.689 195.012 151.166Z" fill="#605A8F"/>
<path d="M192.775 155.693C192.775 155.693 192.683 153.145 193.9 153.899C194.523 154.255 195.09 154.701 195.583 155.223C195.583 155.223 196.057 154.091 196.8 153.899C197.543 153.707 197.74 156.163 197.74 156.163C197.74 156.163 199.614 155.124 200.265 155.693C200.916 156.262 199.423 157.48 199.423 157.48C199.423 157.48 200.455 157.95 199.614 158.611C198.772 159.273 199.423 160.875 197.549 160.875C197.315 160.893 197.08 160.858 196.861 160.772C196.642 160.687 196.444 160.554 196.283 160.382C196.122 160.21 196.001 160.004 195.928 159.779C195.856 159.554 195.835 159.316 195.866 159.081C195.866 159.081 194.465 160.683 193.525 160.028C193.249 159.787 193.042 159.475 192.926 159.126C192.81 158.776 192.79 158.402 192.868 158.042C192.509 158.033 192.158 157.933 191.848 157.751C191.537 157.57 191.278 157.312 191.092 157.003C190.527 155.971 192.775 155.693 192.775 155.693Z" fill="#343057"/>
<path opacity="0.45" d="M211.187 161.867C211.152 161.104 211.024 160.349 210.805 159.617C210.944 163.363 209.319 170.352 199.331 172.562C189.607 174.707 183.768 169.498 182.808 168.558C184.675 172.265 188.91 174.991 196.07 175.057C209.181 175.177 211.424 166.977 211.187 161.867Z" fill="#343057"/>
<path opacity="0.16" d="M183.886 160.544C184.264 159.43 185.049 158.502 186.082 157.95C187.673 157.248 190.06 157.903 190.251 161.014C190.441 164.124 191 169.406 188.238 169.353C185.477 169.3 184.563 167.758 183.787 164.971C183.478 163.508 183.512 161.992 183.886 160.544Z" fill="#E0E6FF"/>
<path opacity="0.16" d="M176.58 33.2232C175.772 35.1292 173.766 36.0955 172.109 35.3807C170.452 34.666 169.768 32.5415 170.577 30.6355C171.386 28.7295 173.391 27.7566 175.048 28.4713C176.705 29.1861 177.389 31.3105 176.58 33.2232Z" fill="#E0E6FF"/>
<path opacity="0.16" d="M177.784 26.9823C177.695 27.192 177.546 27.3704 177.357 27.4949C177.167 27.6195 176.945 27.6845 176.718 27.6818C176.492 27.6792 176.271 27.6089 176.084 27.4799C175.898 27.3509 175.753 27.169 175.669 26.9572C175.585 26.7455 175.566 26.5134 175.613 26.2904C175.66 26.0674 175.772 25.8636 175.934 25.7046C176.097 25.5457 176.302 25.4389 176.525 25.3977C176.748 25.3565 176.978 25.3829 177.186 25.4733C177.463 25.5941 177.682 25.8207 177.794 26.1035C177.907 26.3863 177.903 26.7022 177.784 26.9823Z" fill="#E0E6FF"/>
<path d="M151.93 223.35C151.93 223.35 154.422 219.28 155.665 219.28C156.48 219.306 157.278 219.518 157.999 219.902C157.999 219.902 158.926 217.738 160.175 217.738C161.425 217.738 163.752 219.148 163.752 219.148L163.285 225.104L151.93 223.35Z" fill="#343057"/>
<path d="M152.778 220.518C152.778 220.518 140.239 225.852 147.15 237.368C154.06 248.883 172.195 242.206 175.358 235.66C178.521 229.115 178.77 219.115 163.627 218.069C163.297 218.444 163.056 218.89 162.924 219.373C162.791 219.856 162.771 220.363 162.865 220.855C161.961 220.219 160.928 219.794 159.84 219.611C159.159 220.476 158.682 221.485 158.446 222.563C158.446 222.563 158.446 221.061 155.757 220.577C155.757 220.577 154.152 221.676 153.975 223.086L152.778 220.518Z" fill="#605A8F"/>
<path opacity="0.16" d="M149.661 230.194C149.661 230.194 150.279 227.957 152.009 227.209C152.418 227.011 152.87 226.918 153.324 226.938C153.778 226.958 154.22 227.091 154.611 227.325C155.002 227.559 155.329 227.886 155.563 228.278C155.797 228.67 155.932 229.115 155.954 229.572C156.129 230.651 156.041 231.757 155.698 232.795C155.354 233.832 154.765 234.77 153.981 235.528C152.259 237.163 148.057 235.296 149.661 230.194Z" fill="#E0E6FF"/>
<path d="M137.425 219.598C137.425 219.598 135.847 217.996 135.452 217.672C135.058 217.348 133.512 219.783 133.512 219.783C132.874 219.015 132.177 218.298 131.428 217.639C131.04 217.46 129.041 219.724 129.041 219.724C128.353 218.82 127.973 217.718 127.956 216.58C127.124 217.607 126.358 218.686 125.661 219.81C125.208 220.716 128.055 223.476 128.39 223.476C128.726 223.476 136.8 223.476 136.899 223.377C136.997 223.278 137.425 219.598 137.425 219.598Z" fill="#343057"/>
<path d="M127.956 216.58C127.956 216.58 126.641 218.513 122.373 220.101C118.106 221.689 114.312 227.242 116.232 233.602C118.152 239.962 127.969 245.647 136.444 244.251C144.92 242.854 148.602 234.198 146.663 228.625C144.723 223.053 138.641 221.173 137.819 218.698C137.042 219.198 136.327 219.789 135.688 220.458C135.07 221.233 134.294 219.538 133.282 218.724C132.415 219.287 131.599 219.925 130.842 220.63C130.185 221.332 129.356 218.903 128.935 218.433C128.515 217.963 128.37 218.976 127.068 219.532C125.766 220.088 127.956 216.58 127.956 216.58Z" fill="#605A8F"/>
<path opacity="0.16" d="M119.783 224.303C119.783 224.303 121.499 222.04 123.814 221.98C124.371 221.941 124.93 222.041 125.44 222.272C125.95 222.503 126.395 222.858 126.735 223.304C127.075 223.751 127.3 224.275 127.389 224.831C127.478 225.387 127.429 225.956 127.246 226.487C126.516 229.135 124.991 231.339 122.288 232.384C119.586 233.43 115.641 229.38 119.783 224.303Z" fill="#E0E6FF"/>
<path opacity="0.45" d="M139.022 223.82C141.356 227.573 142.757 234.621 136.392 239.155C130.842 243.126 121.269 239.115 118.908 238.016C122.853 242.298 130.034 245.296 136.458 244.251C144.927 242.854 148.616 234.198 146.676 228.625C144.736 223.053 138.654 221.173 137.832 218.698C137.819 218.704 136.688 220.061 139.022 223.82Z" fill="#343057"/>
<path opacity="0.45" d="M149.872 240.571C157.947 247.374 172.55 241.471 175.358 235.66C178.337 229.512 178.731 220.332 166.232 218.36C169.335 219.022 174.023 221.305 173.392 228.83C172.472 239.763 158.611 243.873 149.872 240.571Z" fill="#343057"/>
<path d="M79.0755 5.21514C79.0755 5.21514 66.3588 4.8379 64.1166 15.7513C61.8744 26.6647 73.835 33.0909 87.676 26.2874C101.517 19.4839 97.0196 2.20386 79.0755 5.21514Z" fill="#605A8F"/>
<path d="M78.1351 6.28058C78.1351 6.28058 78.8847 2.97149 78.0168 1.64785C77.1488 0.324215 78.5757 -0.0397846 79.2003 0.0197791C79.825 0.0793427 80.134 3.65978 79.5094 4.9768C78.8847 6.29382 78.7598 7.22036 78.1351 6.28058Z" fill="#343057"/>
<path opacity="0.45" d="M91.0225 6.87622C93.0609 9.98015 93.7578 18.8684 85.0587 24.785C76.6685 30.4899 67.2263 25.4998 66.2598 24.9571C70.205 29.4906 78.5294 30.7679 87.6757 26.2807C97.565 21.4428 98.0844 11.2508 91.0225 6.87622Z" fill="#343057"/>
<path opacity="0.16" d="M66.7919 13.6467C66.7919 13.6467 67.6598 11.3833 69.5338 10.7877C69.9798 10.6217 70.4597 10.5697 70.9306 10.6363C71.4014 10.703 71.8485 10.8862 72.2317 11.1696C72.6148 11.4529 72.9222 11.8276 73.1261 12.2599C73.33 12.6922 73.4242 13.1688 73.4001 13.6467C73.4001 15.9962 72.6965 18.1405 70.77 19.6428C68.8434 21.1451 64.6023 18.7758 66.7919 13.6467Z" fill="#E0E6FF"/>
<path opacity="0.18" d="M167.33 173.264C167.33 174.296 166.074 175.144 164.529 175.144C162.984 175.144 161.754 174.296 161.754 173.264C161.754 172.232 163.01 171.384 164.555 171.384C166.1 171.384 167.33 172.225 167.33 173.264Z" fill="#CC562A"/>
<path opacity="0.18" d="M57.2249 159.174C58.7719 159.174 60.026 158.332 60.026 157.294C60.026 156.256 58.7719 155.415 57.2249 155.415C55.6779 155.415 54.4238 156.256 54.4238 157.294C54.4238 158.332 55.6779 159.174 57.2249 159.174Z" fill="#CC562A"/>
<path opacity="0.34" d="M139.956 214.27C139.956 215.309 138.7 216.15 137.155 216.15C135.61 216.15 134.361 215.309 134.361 214.27C134.361 213.231 135.61 212.391 137.155 212.391C138.7 212.391 139.956 213.231 139.956 214.27Z" fill="#CC562A"/>
<path opacity="0.28" d="M218.019 167.943C219.566 167.943 220.82 167.101 220.82 166.063C220.82 165.025 219.566 164.184 218.019 164.184C216.472 164.184 215.218 165.025 215.218 166.063C215.218 167.101 216.472 167.943 218.019 167.943Z" fill="#CC562A"/>
<path opacity="0.38" d="M156.75 135.673C156.75 136.705 155.501 137.552 153.955 137.552C152.41 137.552 151.154 136.705 151.154 135.673C151.154 134.64 152.404 133.793 153.955 133.793C155.507 133.793 156.75 134.66 156.75 135.673Z" fill="#CC562A"/>
<path opacity="0.38" d="M140.89 85.2951C140.89 86.3341 139.634 87.1746 138.088 87.1746C136.543 87.1746 135.294 86.3341 135.294 85.2951C135.294 84.256 136.543 83.4221 138.088 83.4221C139.634 83.4221 140.89 84.2626 140.89 85.2951Z" fill="#CC562A"/>
<path opacity="0.38" d="M213.981 79.663C213.981 80.7021 212.725 81.5426 211.18 81.5426C209.635 81.5426 208.379 80.7021 208.379 79.663C208.379 78.624 209.635 77.7834 211.18 77.7834C212.725 77.7834 213.981 78.624 213.981 79.663Z" fill="#CC562A"/>
<path opacity="0.21" d="M60.0267 43.349C61.5737 43.349 62.8278 42.5075 62.8278 41.4694C62.8278 40.4314 61.5737 39.5898 60.0267 39.5898C58.4797 39.5898 57.2256 40.4314 57.2256 41.4694C57.2256 42.5075 58.4797 43.349 60.0267 43.349Z" fill="#CC562A"/>
<path opacity="0.21" d="M210.872 55.2485C210.872 56.2809 209.616 57.1214 208.071 57.1214C206.525 57.1214 205.27 56.2809 205.27 55.2485C205.27 54.216 206.525 53.3689 208.071 53.3689C209.616 53.3689 210.872 54.2094 210.872 55.2485Z" fill="#CC562A"/>
<path opacity="0.41" d="M238.863 50.8607C238.863 51.8997 237.607 52.7402 236.062 52.7402C234.517 52.7402 233.261 51.8997 233.261 50.8607C233.261 49.8216 234.517 48.9745 236.055 48.9745C237.594 48.9745 238.863 49.8282 238.863 50.8607Z" fill="#CC562A"/>
<path opacity="0.21" d="M89.4244 36.6184C89.4244 37.2272 88.6945 37.717 87.7871 37.717C86.8797 37.717 86.1367 37.2272 86.1367 36.6184C86.1367 36.0095 86.8666 35.5264 87.7674 35.5264C88.6682 35.5264 89.4244 36.0161 89.4244 36.6184Z" fill="#CC562A"/>
<path opacity="0.21" d="M108.309 21.2774C108.309 21.8863 107.579 22.376 106.678 22.376C105.777 22.376 105.048 21.8863 105.048 21.2774C105.048 20.6686 105.777 20.1854 106.678 20.1854C107.579 20.1854 108.309 20.6752 108.309 21.2774Z" fill="#CC562A"/>
<path opacity="0.21" d="M63.5248 31.1384C63.5248 31.7473 62.7949 32.237 61.8941 32.237C60.9933 32.237 60.2568 31.7473 60.2568 31.1384C60.2568 30.5295 60.9933 30.0464 61.8941 30.0464C62.7949 30.0464 63.5248 30.5361 63.5248 31.1384Z" fill="#CC562A"/>
<path opacity="0.21" d="M75.6556 33.9578C75.6556 34.5667 74.9258 35.0565 74.0184 35.0565C73.111 35.0565 72.3877 34.5667 72.3877 33.9578C72.3877 33.349 73.1176 32.8658 74.0184 32.8658C74.9192 32.8658 75.6556 33.3556 75.6556 33.9578Z" fill="#CC562A"/>
<path opacity="0.21" d="M113.912 17.6837C113.912 18.286 113.182 18.7757 112.274 18.7757C111.367 18.7757 110.644 18.286 110.644 17.6837C110.644 17.0814 111.373 16.5851 112.274 16.5851C113.175 16.5851 113.912 17.0748 113.912 17.6837Z" fill="#CC562A"/>
<path opacity="0.38" d="M127.516 99.3852C129.063 99.3852 130.317 98.5437 130.317 97.5057C130.317 96.4676 129.063 95.6261 127.516 95.6261C125.969 95.6261 124.715 96.4676 124.715 97.5057C124.715 98.5437 125.969 99.3852 127.516 99.3852Z" fill="#CC562A"/>
<path opacity="0.38" d="M226.731 104.395C226.731 105.428 225.475 106.268 223.93 106.268C222.385 106.268 221.129 105.428 221.129 104.395C221.129 103.363 222.385 102.516 223.93 102.516C225.475 102.516 226.731 103.356 226.731 104.395Z" fill="#CC562A"/>
<path opacity="0.38" d="M152.706 215.839C152.706 216.871 151.456 217.712 149.911 217.712C148.366 217.712 147.11 216.871 147.11 215.839C147.11 214.806 148.366 213.959 149.911 213.959C151.456 213.959 152.706 214.8 152.706 215.839Z" fill="#CC562A"/>
<path opacity="0.16" d="M168.572 185.786C168.572 186.818 167.316 187.665 165.771 187.665C164.226 187.665 162.97 186.818 162.97 185.786C162.97 184.753 164.226 183.906 165.771 183.906C167.316 183.906 168.572 184.747 168.572 185.786Z" fill="#CC562A"/>
<path opacity="0.38" d="M213.665 126.93C215.212 126.93 216.466 126.089 216.466 125.05C216.466 124.012 215.212 123.171 213.665 123.171C212.118 123.171 210.864 124.012 210.864 125.05C210.864 126.089 212.118 126.93 213.665 126.93Z" fill="#CC562A"/>
<path opacity="0.38" d="M211.18 105.017C211.18 105.54 210.555 105.957 209.779 105.957C209.004 105.957 208.379 105.54 208.379 105.017C208.379 104.494 209.004 104.077 209.779 104.077C210.555 104.077 211.18 104.501 211.18 105.017Z" fill="#CC562A"/>
<path opacity="0.38" d="M158.617 213.959C159.391 213.959 160.018 213.538 160.018 213.019C160.018 212.5 159.391 212.08 158.617 212.08C157.844 212.08 157.217 212.5 157.217 213.019C157.217 213.538 157.844 213.959 158.617 213.959Z" fill="#CC562A"/>
<path opacity="0.38" d="M137.938 94.6863C137.938 95.2091 137.28 95.626 136.537 95.626C135.794 95.626 135.137 95.2091 135.137 94.6863C135.137 94.1634 135.761 93.7465 136.537 93.7465C137.313 93.7465 137.938 94.17 137.938 94.6863Z" fill="#CC562A"/>
<path opacity="0.38" d="M204.96 130.378C205.734 130.378 206.361 129.957 206.361 129.438C206.361 128.919 205.734 128.499 204.96 128.499C204.187 128.499 203.559 128.919 203.559 129.438C203.559 129.957 204.187 130.378 204.96 130.378Z" fill="#CC562A"/>
<path opacity="0.38" d="M198.739 129.438C199.513 129.438 200.14 129.018 200.14 128.499C200.14 127.98 199.513 127.559 198.739 127.559C197.966 127.559 197.339 127.98 197.339 128.499C197.339 129.018 197.966 129.438 198.739 129.438Z" fill="#CC562A"/>
<path opacity="0.18" d="M158.617 180.147C159.391 180.147 160.018 179.726 160.018 179.207C160.018 178.688 159.391 178.267 158.617 178.267C157.844 178.267 157.217 178.688 157.217 179.207C157.217 179.726 157.844 180.147 158.617 180.147Z" fill="#CC562A"/>
<path opacity="0.18" d="M103.569 186.097C104.342 186.097 104.969 185.676 104.969 185.157C104.969 184.638 104.342 184.217 103.569 184.217C102.795 184.217 102.168 184.638 102.168 185.157C102.168 185.676 102.795 186.097 103.569 186.097Z" fill="#CC562A"/>
<path opacity="0.18" d="M68.7316 171.384C69.5051 171.384 70.1322 170.964 70.1322 170.445C70.1322 169.926 69.5051 169.505 68.7316 169.505C67.9581 169.505 67.3311 169.926 67.3311 170.445C67.3311 170.964 67.9581 171.384 68.7316 171.384Z" fill="#CC562A"/>
<path opacity="0.18" d="M119.428 216.461C120.201 216.461 120.828 216.04 120.828 215.521C120.828 215.002 120.201 214.581 119.428 214.581C118.654 214.581 118.027 215.002 118.027 215.521C118.027 216.04 118.654 216.461 119.428 216.461Z" fill="#CC562A"/>
<path opacity="0.18" d="M137.004 167.003C137.004 167.519 136.347 167.943 135.604 167.943C134.861 167.943 134.203 167.519 134.203 167.003C134.203 166.487 134.861 166.063 135.604 166.063C136.347 166.063 137.004 166.48 137.004 167.003Z" fill="#CC562A"/>
<path opacity="0.18" d="M70.5998 161.682C71.3733 161.682 72.0003 161.261 72.0003 160.742C72.0003 160.223 71.3733 159.802 70.5998 159.802C69.8263 159.802 69.1992 160.223 69.1992 160.742C69.1992 161.261 69.8263 161.682 70.5998 161.682Z" fill="#CC562A"/>
<path opacity="0.38" d="M169.506 132.569C170.28 132.569 170.907 132.148 170.907 131.629C170.907 131.11 170.28 130.689 169.506 130.689C168.733 130.689 168.105 131.11 168.105 131.629C168.105 132.148 168.733 132.569 169.506 132.569Z" fill="#CC562A"/>
<path opacity="0.38" d="M166.546 213.641C166.546 214.164 165.922 214.581 165.146 214.581C164.37 214.581 163.752 214.164 163.752 213.641C163.752 213.119 164.409 212.708 165.146 212.708C165.882 212.708 166.546 213.105 166.546 213.641Z" fill="#CC562A"/>
<path opacity="0.22" d="M64.5374 161.993C64.5374 162.509 63.8799 162.933 63.1369 162.933C62.3939 162.933 61.7363 162.509 61.7363 161.993C61.7363 161.477 62.3939 161.053 63.1369 161.053C63.8799 161.053 64.5374 161.484 64.5374 161.993Z" fill="#CC562A"/>
<path opacity="0.22" d="M57.5412 186.408C58.3147 186.408 58.9417 185.987 58.9417 185.468C58.9417 184.949 58.3147 184.528 57.5412 184.528C56.7677 184.528 56.1406 184.949 56.1406 185.468C56.1406 185.987 56.7677 186.408 57.5412 186.408Z" fill="#CC562A"/>
<path opacity="0.18" d="M153.022 172.953C153.795 172.953 154.422 172.532 154.422 172.013C154.422 171.494 153.795 171.073 153.022 171.073C152.248 171.073 151.621 171.494 151.621 172.013C151.621 172.532 152.248 172.953 153.022 172.953Z" fill="#CC562A"/>
<path opacity="0.18" d="M181.479 183.595C182.253 183.595 182.88 183.174 182.88 182.655C182.88 182.136 182.253 181.715 181.479 181.715C180.706 181.715 180.079 182.136 180.079 182.655C180.079 183.174 180.706 183.595 181.479 183.595Z" fill="#CC562A"/>
<path opacity="0.38" d="M163.595 86.2348C164.368 86.2348 164.995 85.814 164.995 85.295C164.995 84.776 164.368 84.3552 163.595 84.3552C162.821 84.3552 162.194 84.776 162.194 85.295C162.194 85.814 162.821 86.2348 163.595 86.2348Z" fill="#CC562A"/>
<path opacity="0.38" d="M224.219 76.2215C224.219 76.7377 223.595 77.1613 222.825 77.1613C222.056 77.1613 221.425 76.7377 221.425 76.2215C221.425 75.7053 222.082 75.2817 222.825 75.2817C223.568 75.2817 224.219 75.6987 224.219 76.2215Z" fill="#CC562A"/>
<path opacity="0.38" d="M204.184 79.663C204.957 79.663 205.584 79.2423 205.584 78.7232C205.584 78.2042 204.957 77.7834 204.184 77.7834C203.41 77.7834 202.783 78.2042 202.783 78.7232C202.783 79.2423 203.41 79.663 204.184 79.663Z" fill="#CC562A"/>
<path opacity="0.21" d="M67.4893 38.9678C68.2628 38.9678 68.8898 38.5471 68.8898 38.028C68.8898 37.509 68.2628 37.0883 67.4893 37.0883C66.7158 37.0883 66.0887 37.509 66.0887 38.028C66.0887 38.5471 66.7158 38.9678 67.4893 38.9678Z" fill="#CC562A"/>
<path opacity="0.21" d="M104.66 17.3661C104.66 17.8889 104.002 18.3058 103.259 18.3058C102.516 18.3058 101.859 17.8889 101.859 17.3661C101.859 16.8432 102.516 16.4263 103.259 16.4263C104.002 16.4263 104.66 16.8498 104.66 17.3661Z" fill="#CC562A"/>
<path opacity="0.21" d="M216.157 52.4291C216.931 52.4291 217.558 52.0084 217.558 51.4893C217.558 50.9703 216.931 50.5496 216.157 50.5496C215.384 50.5496 214.757 50.9703 214.757 51.4893C214.757 52.0084 215.384 52.4291 216.157 52.4291Z" fill="#CC562A"/>
<path opacity="0.38" d="M234.036 95.626C234.81 95.626 235.437 95.2053 235.437 94.6863C235.437 94.1672 234.81 93.7465 234.036 93.7465C233.263 93.7465 232.636 94.1672 232.636 94.6863C232.636 95.2053 233.263 95.626 234.036 95.626Z" fill="#CC562A"/>
<path opacity="0.38" d="M173.082 89.6829C173.082 90.1992 172.425 90.6161 171.682 90.6161C170.939 90.6161 170.281 90.1992 170.281 89.6829C170.281 89.1667 170.906 88.7432 171.682 88.7432C172.458 88.7432 173.082 89.1601 173.082 89.6829Z" fill="#CC562A"/>
<path opacity="0.38" d="M123.939 91.556C124.712 91.556 125.339 91.1352 125.339 90.6162C125.339 90.0971 124.712 89.6764 123.939 89.6764C123.165 89.6764 122.538 90.0971 122.538 90.6162C122.538 91.1352 123.165 91.556 123.939 91.556Z" fill="#CC562A"/>
<path opacity="0.21" d="M79.7786 40.5297C79.7786 41.0526 79.1211 41.4695 78.3781 41.4695C77.6351 41.4695 76.9775 41.0526 76.9775 40.5297C76.9775 40.0069 77.6351 39.5966 78.3781 39.5966C79.1211 39.5966 79.7786 40.0135 79.7786 40.5297Z" fill="#CC562A"/>
</g>
<defs>
<linearGradient id="paint0_linear_0_5491" x1="287.836" y1="189.902" x2="10.6964" y2="211.227" gradientUnits="userSpaceOnUse">
<stop stop-color="#D72F5D"/>
<stop offset="0.33" stop-color="#D83360"/>
<stop offset="0.64" stop-color="#DA3E68"/>
<stop offset="0.93" stop-color="#DD5077"/>
<stop offset="1" stop-color="#DE567B"/>
</linearGradient>
<linearGradient id="paint1_linear_0_5491" x1="4184.03" y1="28415.3" x2="111672" y2="28415.3" gradientUnits="userSpaceOnUse">
<stop stop-color="#D72F5D"/>
<stop offset="0.33" stop-color="#D83360"/>
<stop offset="0.64" stop-color="#DA3E68"/>
<stop offset="0.93" stop-color="#DD5077"/>
<stop offset="1" stop-color="#DE567B"/>
</linearGradient>
<linearGradient id="paint2_linear_0_5491" x1="44.2918" y1="199.988" x2="252.605" y2="199.988" gradientUnits="userSpaceOnUse">
<stop stop-color="#F0A82C"/>
<stop offset="0.31" stop-color="#EFA42C"/>
<stop offset="0.59" stop-color="#EB992C"/>
<stop offset="0.86" stop-color="#E6872C"/>
<stop offset="1" stop-color="#E27A2C"/>
</linearGradient>
<linearGradient id="paint3_linear_0_5491" x1="13578.1" y1="11901.4" x2="51027.1" y2="37123.3" gradientUnits="userSpaceOnUse">
<stop stop-color="#F0A82C"/>
<stop offset="0.31" stop-color="#EFA42C"/>
<stop offset="0.59" stop-color="#EB992C"/>
<stop offset="0.86" stop-color="#E6872C"/>
<stop offset="1" stop-color="#E27A2C"/>
</linearGradient>
<radialGradient id="paint4_radial_0_5491" cx="0" cy="0" r="1" gradientUnits="userSpaceOnUse" gradientTransform="translate(46732.4 9014.85) scale(22410.1 5650.2)">
<stop stop-color="#F0A82C"/>
<stop offset="0.31" stop-color="#EFA42C"/>
<stop offset="0.59" stop-color="#EB992C"/>
<stop offset="0.86" stop-color="#E6872C"/>
<stop offset="1" stop-color="#E27A2C"/>
</radialGradient>
<radialGradient id="paint5_radial_0_5491" cx="0" cy="0" r="1" gradientUnits="userSpaceOnUse" gradientTransform="translate(153.508 93.1641) scale(75.794 76.2878)">
<stop stop-color="#E27A2C"/>
<stop offset="0.28" stop-color="#E4802C"/>
<stop offset="0.66" stop-color="#E9932C"/>
<stop offset="1" stop-color="#F0A82C"/>
</radialGradient>
<radialGradient id="paint6_radial_0_5491" cx="0" cy="0" r="1" gradientUnits="userSpaceOnUse" gradientTransform="translate(68066.4 491.733) scale(40999.1 8833.58)">
<stop stop-color="#F0A82C"/>
<stop offset="0.31" stop-color="#EFA42C"/>
<stop offset="0.59" stop-color="#EB992C"/>
<stop offset="0.86" stop-color="#E6872C"/>
<stop offset="1" stop-color="#E27A2C"/>
</radialGradient>
<linearGradient id="paint7_linear_0_5491" x1="13671.6" y1="3002.69" x2="78909.7" y2="3002.69" gradientUnits="userSpaceOnUse">
<stop stop-color="#F0A82C"/>
<stop offset="0.31" stop-color="#EFA42C"/>
<stop offset="0.59" stop-color="#EB992C"/>
<stop offset="0.86" stop-color="#E6872C"/>
<stop offset="1" stop-color="#E27A2C"/>
</linearGradient>
<clipPath id="clip0_0_5491">
<rect width="288" height="263" fill="white"/>
</clipPath>
</defs>
</svg>
