<svg width="133" height="150" viewBox="0 0 133 150" fill="none" xmlns="http://www.w3.org/2000/svg">
<path d="M30.2587 123.828C30.2587 123.828 20.3893 115.435 26.2279 101.733C32.0666 88.0312 49.1239 86.0078 65.5463 86.0029C90.6001 85.9961 120.527 94.7117 100.561 123.825C100.561 123.828 75.7045 140.445 30.2587 123.828Z" fill="#FF9A40"/>
<path d="M54.9718 107.422C54.8133 107.422 54.659 107.371 54.531 107.277C54.403 107.182 54.3078 107.049 54.2591 106.897C52.4274 101.164 47.3745 97.5585 47.3212 97.5223C47.1625 97.4059 47.0552 97.2313 47.0223 97.036C46.9895 96.8406 47.0336 96.64 47.1454 96.4772C47.2571 96.3143 47.4276 96.2022 47.6201 96.1649C47.8127 96.1276 48.0121 96.168 48.1755 96.2775C51.6182 98.8359 54.232 102.37 55.6854 106.431C55.7156 106.526 55.727 106.626 55.719 106.725C55.7109 106.825 55.6836 106.921 55.6386 107.01C55.5936 107.098 55.5317 107.177 55.4566 107.242C55.3814 107.306 55.2944 107.355 55.2006 107.385C55.1266 107.409 55.0495 107.422 54.9718 107.422Z" fill="#E96D17"/>
<path d="M65.6041 117.61C65.4784 117.61 65.3547 117.578 65.2444 117.517C65.1341 117.456 65.0407 117.368 64.9729 117.261C58.4375 106.97 38.9863 103.99 38.7924 103.962C38.5957 103.933 38.4184 103.826 38.2995 103.665C38.1807 103.504 38.13 103.302 38.1587 103.103C38.1874 102.904 38.293 102.725 38.4524 102.605C38.6118 102.484 38.8119 102.433 39.0086 102.462C39.8348 102.585 59.3266 105.571 66.2325 116.442C66.3049 116.557 66.3456 116.689 66.3503 116.825C66.3549 116.961 66.3234 117.095 66.259 117.214C66.1946 117.334 66.0996 117.433 65.9841 117.503C65.8686 117.572 65.7367 117.609 65.6022 117.61H65.6041Z" fill="#E96D17"/>
<path d="M133 149.994H0C0 149.994 1.33582 133.224 9.36526 129.977C12.6098 128.665 20.045 124.926 27.7604 120.932C38.5399 115.353 49.8624 109.282 51.015 108.661L51.1119 108.608L52.1279 108.84C53.3997 109.128 54.6761 109.375 55.9569 109.58C57.223 109.786 58.4925 109.953 59.7657 110.079C66.8032 110.779 73.9069 110.284 80.783 108.616L80.8149 108.608C80.8149 108.608 89.5142 113.14 99.2149 118.075C100.456 118.706 101.715 119.349 102.973 119.983C111.547 124.32 120.131 128.561 123.633 129.977C131.661 133.224 133 149.994 133 149.994Z" fill="#FF9A40"/>
<path d="M72.6666 128.647C66.5551 128.634 60.5183 127.288 54.9686 124.701C50.9824 122.91 47.3109 120.475 44.0979 117.493C44.0328 117.427 43.9811 117.349 43.9458 117.263C43.9105 117.178 43.8922 117.086 43.8921 116.993C43.8918 116.805 43.9653 116.625 44.0964 116.492C44.2276 116.359 44.4056 116.284 44.5913 116.284C44.777 116.284 44.9552 116.358 45.0867 116.49C48.2043 119.356 51.7542 121.702 55.6026 123.438C64.2354 127.461 73.9864 128.314 83.1748 125.85C83.3548 125.803 83.5459 125.829 83.7063 125.925C83.8666 126.02 83.983 126.176 84.0298 126.357C84.0766 126.539 84.05 126.733 83.9558 126.895C83.8616 127.057 83.7076 127.174 83.5276 127.222C79.9823 128.163 76.3323 128.642 72.6666 128.647Z" fill="#E96D17"/>
<path d="M69.2276 135.466C66.6224 135.46 64.0249 135.182 61.4762 134.636C61.3862 134.617 61.3008 134.581 61.2248 134.528C61.1488 134.476 61.0837 134.409 61.0334 134.331C60.983 134.253 60.9483 134.166 60.9312 134.075C60.9141 133.984 60.9149 133.89 60.9337 133.799C60.9525 133.708 60.9888 133.621 61.0406 133.545C61.0924 133.468 61.1587 133.402 61.2356 133.351C61.3126 133.3 61.3987 133.265 61.489 133.248C61.5794 133.231 61.6722 133.231 61.7623 133.25C75.5913 136.169 84.2377 130.04 84.323 129.978C84.3975 129.921 84.4824 129.88 84.5727 129.857C84.6631 129.834 84.757 129.83 84.8491 129.844C84.9412 129.858 85.0296 129.891 85.1091 129.94C85.1885 129.989 85.2575 130.054 85.3119 130.13C85.3663 130.207 85.405 130.294 85.4259 130.385C85.4467 130.477 85.4492 130.572 85.4333 130.665C85.4173 130.758 85.3832 130.846 85.3329 130.926C85.2826 131.005 85.2172 131.073 85.1404 131.127C84.8418 131.35 79.0239 135.466 69.2276 135.466Z" fill="#E96D17"/>
<path d="M81.4769 112.032C81.4769 112.032 78.8683 120.32 66.8838 120.32C52.9043 120.32 49.6133 112.786 49.6133 112.786C50.7084 109.87 51.5818 106.874 52.2258 103.824C53.0286 100.152 53.4038 96.397 53.3435 92.6365L77.9028 91.6566C78.1306 93.7584 78.4999 96.2334 78.9167 98.7232C80.0315 105.331 81.4769 112.032 81.4769 112.032Z" fill="#FFB8A1"/>
<path d="M78.937 98.7232C75.1312 101.399 66.8106 105.382 52.2388 103.83C53.0419 100.156 53.4171 96.4003 53.3568 92.6388L77.9228 91.6587C78.1535 93.7551 78.523 96.2309 78.937 98.7232Z" fill="#3F2037"/>
<path d="M43.9867 60.2644C43.9867 60.2644 36.3847 49.8049 30.4709 55.9951C24.5571 62.1854 35.962 83.7456 46.31 79.049L43.9867 60.2644Z" fill="#FFB8A1"/>
<path d="M40.3506 72.6227C40.2239 72.6225 40.1016 72.5761 40.0061 72.492C39.9106 72.4079 39.8484 72.2918 39.8308 72.165C38.8311 64.8976 33.1171 60.4371 33.0589 60.393C32.948 60.3079 32.8752 60.1818 32.8564 60.0423C32.8376 59.9029 32.8743 59.7617 32.9585 59.6496C33.0427 59.5376 33.1675 59.464 33.3055 59.4449C33.4434 59.4259 33.5832 59.4631 33.694 59.5482C37.5049 62.6863 40.0554 67.1191 40.8693 72.019C40.8884 72.1584 40.8519 72.2998 40.7679 72.4121C40.6839 72.5244 40.5593 72.5984 40.4213 72.6178C40.3979 72.6213 40.3743 72.6229 40.3506 72.6227Z" fill="#FF8A8A"/>
<path d="M38.7619 67.4015C38.6759 67.4016 38.5912 67.3803 38.5153 67.3395C38.4394 67.2986 38.3746 67.2395 38.3267 67.1674C37.5638 66.0279 35.2821 65.9113 34.4708 65.9623C34.4005 65.9696 34.3293 65.9625 34.2617 65.9414C34.1941 65.9202 34.1315 65.8855 34.0775 65.8393C34.0235 65.7931 33.9793 65.7363 33.9475 65.6724C33.9157 65.6085 33.8971 65.5387 33.8926 65.4674C33.8882 65.396 33.8981 65.3245 33.9217 65.257C33.9452 65.1896 33.9821 65.1277 34.0299 65.075C34.0777 65.0223 34.1356 64.9799 34.2001 64.9504C34.2645 64.9209 34.3342 64.9048 34.4049 64.9032C34.5494 64.8934 37.9438 64.7023 39.1961 66.5736C39.2497 66.6533 39.2808 66.7463 39.286 66.8425C39.2912 66.9388 39.2703 67.0346 39.2257 67.1198C39.181 67.2049 39.1142 67.2761 39.0325 67.3258C38.9508 67.3754 38.8572 67.4016 38.7619 67.4015Z" fill="#FF8A8A"/>
<path d="M90.2999 60.2644C90.2999 60.2644 97.9029 49.8049 103.816 55.9951C109.729 62.1854 98.3257 83.7456 87.9766 79.049L90.2999 60.2644Z" fill="#FFB8A1"/>
<path d="M93.9179 72.6228C93.8937 72.6248 93.8693 72.6248 93.8451 72.6228C93.7768 72.6133 93.711 72.5903 93.6514 72.555C93.5919 72.5197 93.5399 72.473 93.4982 72.4173C93.4566 72.3617 93.4263 72.2983 93.4089 72.2308C93.3916 72.1633 93.3876 72.093 93.3972 72.024C94.2107 67.1241 96.7614 62.6911 100.573 59.5533C100.627 59.5079 100.69 59.4741 100.758 59.454C100.826 59.4338 100.897 59.4277 100.967 59.4359C101.037 59.4442 101.105 59.4667 101.167 59.5021C101.228 59.5375 101.282 59.585 101.325 59.6419C101.367 59.6987 101.398 59.7637 101.416 59.833C101.433 59.9022 101.437 59.9743 101.426 60.0449C101.415 60.1155 101.39 60.1832 101.353 60.2439C101.315 60.3046 101.266 60.3571 101.209 60.3981C101.15 60.4423 95.4334 64.9183 94.4366 72.17C94.4181 72.2957 94.3555 72.4106 94.2603 72.4937C94.1651 72.5767 94.0436 72.6226 93.9179 72.6228Z" fill="#FF8A8A"/>
<path d="M95.5188 67.4016C95.4234 67.4015 95.3299 67.3751 95.2482 67.3253C95.1666 67.2756 95.0998 67.2043 95.0552 67.1191C95.0106 67.0339 94.9897 66.938 94.9949 66.8418C95.0001 66.7455 95.0311 66.6525 95.0846 66.5727C96.3359 64.7024 99.7314 64.8944 99.8758 64.9072C100.011 64.9213 100.135 64.9876 100.223 65.0921C100.31 65.1967 100.354 65.3314 100.346 65.4682C100.338 65.605 100.277 65.7332 100.178 65.826C100.078 65.9188 99.9464 65.9691 99.8109 65.9663C98.9947 65.9173 96.714 66.0358 95.954 67.1723C95.9054 67.2434 95.8403 67.3014 95.7645 67.3414C95.6886 67.3813 95.6043 67.402 95.5188 67.4016Z" fill="#FF8A8A"/>
<path d="M73.5411 29.7801C52.2795 24.536 33.0353 43.9642 37.8308 65.544C41.2159 80.7784 48.6414 99.99 66.8892 100.426C85.9056 100.879 93.5376 79.9475 96.2529 64.0684C97.4678 57.0262 96.1409 49.7771 92.5136 43.6405C88.8864 37.5038 83.1999 32.8875 76.489 30.6316C75.528 30.3141 74.5454 30.0303 73.5411 29.7801Z" fill="#FFB8A1"/>
<path d="M68.4179 78.6913C67.3844 78.6607 66.368 78.4165 65.4314 77.9739C65.2823 77.9083 65.1583 77.7955 65.0782 77.6524C64.9981 77.5094 64.9662 77.344 64.9873 77.181L66.5077 65.3758C66.5201 65.2768 66.5517 65.1814 66.6007 65.0949C66.6498 65.0083 66.7152 64.9324 66.7933 64.8715C66.8713 64.8106 66.9606 64.7658 67.0558 64.7398C67.151 64.7138 67.2504 64.7071 67.3482 64.72C67.446 64.7329 67.5404 64.7652 67.6258 64.815C67.7112 64.8648 67.7861 64.9312 67.8461 65.0103C67.9061 65.0895 67.9501 65.1798 67.9755 65.2761C68.0009 65.3725 68.0072 65.4729 67.9941 65.5718L66.5484 76.7948C67.1116 77.0763 67.7356 77.2106 68.3633 77.1854C68.9911 77.1603 69.6026 76.9764 70.1419 76.6508C70.2235 76.5944 70.3153 76.5549 70.4121 76.5346C70.5088 76.5142 70.6086 76.5134 70.7057 76.5322C70.8028 76.551 70.8952 76.589 70.9777 76.644C71.0601 76.6991 71.131 76.7701 71.1863 76.8529C71.2415 76.9357 71.28 77.0288 71.2995 77.1267C71.319 77.2247 71.3192 77.3255 71.3 77.4235C71.2808 77.5215 71.2426 77.6147 71.1876 77.6977C71.1326 77.7807 71.062 77.8519 70.9797 77.9072C70.2251 78.4271 69.331 78.7008 68.4179 78.6913Z" fill="#FF8A8A"/>
<path d="M67.0302 86.4699C64.3906 86.4562 61.789 85.8327 59.4243 84.6469C59.2541 84.5473 59.1294 84.384 59.0772 84.1923C59.025 84.0006 59.0494 83.7959 59.1452 83.6222C59.2411 83.4485 59.4006 83.3199 59.5894 83.2641C59.7782 83.2083 59.9812 83.2297 60.1545 83.3238C60.5181 83.5267 68.8154 88.0459 75.9966 81.3313C76.0688 81.2637 76.1536 81.2112 76.2459 81.1767C76.3383 81.1422 76.4364 81.1265 76.5348 81.1303C76.6332 81.1342 76.7298 81.1576 76.8192 81.1992C76.9086 81.2409 76.9891 81.2999 77.0559 81.3729C77.1228 81.446 77.1747 81.5316 77.2088 81.6249C77.2429 81.7183 77.2585 81.8175 77.2547 81.9169C77.2509 82.0164 77.2277 82.114 77.1865 82.2044C77.1454 82.2948 77.087 82.3761 77.0147 82.4437C74.3288 85.0434 70.749 86.487 67.0302 86.4699Z" fill="#FF8A8A"/>
<path d="M68.2381 90.7981C67.1733 90.7958 66.1139 90.6452 65.0898 90.3504C64.9001 90.2906 64.7416 90.1571 64.6493 89.9793C64.5569 89.8014 64.5383 89.5938 64.5974 89.402C64.6565 89.2102 64.7886 89.05 64.9646 88.9567C65.1405 88.8634 65.346 88.8445 65.5357 88.9043C65.5686 88.9151 68.8914 89.9281 71.2283 88.5927C71.4013 88.4938 71.6061 88.4685 71.7976 88.5222C71.9891 88.576 72.1516 88.7044 72.2495 88.8793C72.3473 89.0542 72.3724 89.2612 72.3192 89.4547C72.266 89.6483 72.1389 89.8126 71.9659 89.9115C70.8189 90.5246 69.5353 90.8299 68.2381 90.7981Z" fill="#FF8A8A"/>
<path d="M52.4183 57.1463C54.3648 56.038 56.4792 55.2624 58.6759 54.8508C58.9638 54.8117 59.2395 54.7083 59.4829 54.5479C59.7264 54.3876 59.9313 54.1745 60.083 53.9241C60.2347 53.6736 60.3293 53.3921 60.3598 53.1001C60.3904 52.8081 60.3562 52.5129 60.2597 52.2359L60.1744 51.9968C60.0281 51.5814 59.7478 51.2278 59.3786 50.9929C59.0094 50.758 58.5728 50.6554 58.1389 50.7016C56.0957 50.9211 52.4764 51.6441 50.1143 54.0229C49.864 54.2774 49.6876 54.5964 49.6043 54.9452C49.5211 55.294 49.5342 55.6592 49.6423 56.001C49.728 56.2772 49.8729 56.5309 50.0668 56.7439C50.2607 56.957 50.4987 57.1241 50.7638 57.2335C51.0289 57.3429 51.3147 57.3918 51.6007 57.3768C51.8867 57.3617 52.1658 57.283 52.4183 57.1463Z" fill="#3F2037"/>
<path d="M83.4295 57.1462C81.4829 56.038 79.3685 55.2624 77.1719 54.8507C76.8839 54.8116 76.6082 54.7081 76.3648 54.5478C76.1214 54.3875 75.9164 54.1744 75.7647 53.924C75.613 53.6735 75.5185 53.392 75.4879 53.1C75.4573 52.808 75.4916 52.5128 75.588 52.2358L75.6724 51.9967C75.8189 51.5814 76.0992 51.228 76.4684 50.9931C76.8375 50.7582 77.274 50.6555 77.7079 50.7015C79.7511 50.921 83.3714 51.644 85.7325 54.0228C85.9829 54.2772 86.1593 54.5963 86.2425 54.9451C86.3257 55.2939 86.3126 55.6591 86.2046 56.0009C86.119 56.277 85.9741 56.5307 85.7803 56.7437C85.5866 56.9568 85.3487 57.124 85.0836 57.2334C84.8185 57.3428 84.5328 57.3917 84.2469 57.3766C83.961 57.3615 83.6819 57.2828 83.4295 57.1462Z" fill="#3F2037"/>
<g opacity="0.5">
<g opacity="0.5">
<path opacity="0.5" d="M57.9149 70.7657C57.9149 72.6279 54.5211 74.1303 50.3341 74.1303C46.1472 74.1303 42.7544 72.6239 42.7544 70.7657C42.7544 68.9074 46.1482 67.402 50.3341 67.402C54.5201 67.402 57.9149 68.9084 57.9149 70.7657Z" fill="#FF8A8A"/>
</g>
</g>
<g opacity="0.5">
<g opacity="0.5">
<path opacity="0.5" d="M93.5643 70.7655C93.5643 72.6277 90.1705 74.1302 85.9846 74.1302C81.7986 74.1302 78.4048 72.6238 78.4048 70.7655C78.4048 68.9073 81.7986 67.4019 85.9846 67.4019C90.1705 67.4019 93.5643 68.9083 93.5643 70.7655Z" fill="#FF8A8A"/>
</g>
</g>
<path d="M38.6225 68.8639C38.6225 68.8639 34.6286 46.6216 35.8636 41.5402C37.0986 36.4588 39.6752 37.3867 39.6752 37.3867C39.6752 37.3867 18.1365 19.5439 28.8482 9.43003C36.6033 2.10871 45.5216 17.7743 45.5216 17.7743C45.5216 17.7743 41.109 2.37326 47.3867 0.257802C55.2126 -2.37893 58.7528 16.0792 58.7528 16.0792C58.7528 16.0792 58.1071 2.30566 64.4673 2.58099C73.2887 2.95823 68.3187 13.2543 77.8836 17.2726C87.4485 21.2909 101.9 23.3309 96.6897 39.5286C96.6897 39.5286 103.707 39.219 94.9768 68.1241C92.7213 64.9575 91.5937 61.112 91.7778 57.2146C91.9213 54.2241 91.9058 50.7594 91.2989 48.6303C91.2989 48.6303 85.8335 44.7707 86.0817 39.12C86.0817 39.12 66.8268 50.6722 49.0628 40.3761C49.0628 40.3761 50.1805 47.0312 44.59 48.0355C43.309 51.401 42.4935 54.929 42.1666 58.5197C41.8285 62.0924 40.674 65.5369 38.7941 68.5817L38.6225 68.8639Z" fill="#3F2037"/>
<path d="M94.9246 29.3699C94.9246 29.3699 97.9674 18.8712 102.882 21.5576C106.391 23.4756 98.2175 31.4634 98.2175 31.4634C98.2175 31.4634 105.093 27.7067 108.485 30.354C111.877 33.0012 102.876 36.1297 97.6881 35.2348C92.5005 34.34 94.9246 29.3699 94.9246 29.3699Z" fill="#3F2037"/>
<path d="M58.4318 62.9312C58.4667 64.9828 57.7184 66.6542 56.7597 66.6757C55.801 66.6973 54.9955 65.0435 54.9606 62.9919C54.9258 60.9404 55.6731 59.2631 56.6317 59.2465C57.5904 59.2298 58.3959 60.8797 58.4318 62.9312Z" fill="#3F2037"/>
<path d="M76.5686 62.9313C76.5328 64.9829 77.281 66.6543 78.2397 66.6758C79.1983 66.6974 80.0038 65.0436 80.0396 62.9921C80.0755 60.9405 79.3262 59.2632 78.3676 59.2466C77.409 59.2299 76.6035 60.8798 76.5686 62.9313Z" fill="#3F2037"/>
<path d="M47.065 128.91V150H45.5659V128.91C45.5659 128.709 45.6449 128.517 45.7855 128.374C45.926 128.232 46.1167 128.153 46.3155 128.153C46.5143 128.153 46.7049 128.232 46.8455 128.374C46.986 128.517 47.065 128.709 47.065 128.91Z" fill="white"/>
<path d="M88.7237 128.91V150H87.2246V128.91C87.2277 128.733 87.2924 128.562 87.4073 128.428C87.5222 128.294 87.6801 128.205 87.8534 128.177C88.0266 128.148 88.2042 128.182 88.3552 128.273C88.5061 128.363 88.6208 128.505 88.6791 128.672C88.7078 128.748 88.7229 128.829 88.7237 128.91Z" fill="white"/>
</svg>
