<svg width="50" height="50" viewBox="0 0 50 50" fill="none" xmlns="http://www.w3.org/2000/svg">
<g clip-path="url(#clip0_0_2838)">
<path d="M40.3351 27.7108H16.8863C11.5491 27.7108 7.22241 23.3842 7.22241 18.0469C7.22241 10.9964 12.938 5.28094 19.9884 5.28094H37.233C44.2834 5.28085 49.999 10.9963 49.999 18.0468C49.999 23.3841 45.6723 27.7108 40.3351 27.7108Z" fill="url(#paint0_linear_0_2838)"/>
<path d="M39.6869 21.4204C40.3998 21.4204 40.9778 20.8424 40.9778 20.1295C40.9778 19.4166 40.3998 18.8386 39.6869 18.8386C38.9739 18.8386 38.396 19.4166 38.396 20.1295C38.396 20.8424 38.9739 21.4204 39.6869 21.4204Z" fill="url(#paint1_linear_0_2838)"/>
<path d="M25.0301 16.5694C24.3172 16.5694 23.7393 17.1473 23.7393 17.8603C23.7393 18.5732 24.3172 19.1512 25.0301 19.1512C25.7431 19.1512 26.321 18.5732 26.321 17.8603C26.321 17.1472 25.7431 16.5694 25.0301 16.5694Z" fill="url(#paint2_linear_0_2838)"/>
<path d="M18.0233 13.9876C17.3104 13.9876 16.7324 14.5656 16.7324 15.2785C16.7324 15.9914 17.3104 16.5694 18.0233 16.5694C18.7362 16.5694 19.3142 15.9914 19.3142 15.2785C19.3142 14.5656 18.7362 13.9876 18.0233 13.9876Z" fill="url(#paint3_linear_0_2838)"/>
<path d="M16.2508 24.4975C17.6078 24.4975 18.7078 23.3974 18.7078 22.0404C18.7078 20.6834 17.6078 19.5834 16.2508 19.5834C14.8938 19.5834 13.7937 20.6834 13.7937 22.0404C13.7937 23.3974 14.8938 24.4975 16.2508 24.4975Z" fill="url(#paint4_linear_0_2838)"/>
<path d="M48.4278 11.9063C46.2582 7.95729 42.0582 5.28082 37.2337 5.28082H19.9886C16.464 5.28082 13.2719 6.70925 10.9621 9.02004C10.1101 9.872 9.37875 10.8426 8.79443 11.9063C9.40816 14.1446 11.9366 15.8367 14.5425 14.4916C17.414 13.0102 20.5278 11.8896 23.3807 11.8896H33.8415C36.6944 11.8896 39.8082 13.0102 42.6797 14.4916C42.9934 14.6534 43.3059 14.7712 43.6142 14.8495C45.0439 15.2123 46.0649 16.4773 46.0755 17.9523C46.0757 17.9837 46.0759 18.0151 46.0759 18.0465C46.0759 19.5124 45.7491 20.9016 45.165 22.1463C44.6932 21.771 44.0873 21.5568 43.4304 21.589C42.1295 21.6526 41.0624 22.7056 40.983 24.0056C40.9673 24.2628 40.9893 24.5125 41.044 24.7497C41.2701 25.73 40.7716 26.7327 39.8306 27.0889C38.7679 27.4911 37.6157 27.7113 36.4122 27.7113H40.3357C43.0043 27.7113 45.42 26.629 47.1691 24.8799C48.9181 23.1309 49.9994 20.7152 49.9994 18.0466C49.9994 15.821 49.4297 13.7279 48.4278 11.9063Z" fill="url(#paint5_linear_0_2838)"/>
<path d="M23.3799 9.43794H33.8411C36.694 9.43794 39.8079 10.5579 42.6789 12.0396C46.7268 14.1285 50.5893 8.88794 47.3763 5.65922C43.8978 2.16363 39.0821 0 33.7612 0H23.4599C18.1389 0 13.3232 2.16363 9.84469 5.65912C6.63165 8.88784 10.4942 14.1284 14.542 12.0395C17.4131 10.5579 20.5269 9.43794 23.3799 9.43794Z" fill="url(#paint6_linear_0_2838)"/>
<path d="M47.3769 5.65918C44.4235 2.69133 40.5061 0.683491 36.1338 0.145059C36.1338 0.145059 36.132 0.145059 36.1295 0.145157C35.3534 0.0494709 34.5637 0.000549316 33.7622 0.000549316H29.0603C27.2318 0.515255 25.7789 1.22604 24.7044 1.8829C22.3848 3.30153 21.2691 4.77506 21.223 4.83682C20.9799 5.16231 21.0465 5.6231 21.372 5.86624C21.5044 5.96428 21.6583 6.01232 21.8112 6.01232C22.0358 6.01232 22.2563 5.91035 22.4014 5.71722C22.4384 5.66732 26.021 0.999569 33.8864 0.74702C34.7318 0.719863 35.5767 0.852902 36.372 1.14065L36.3842 1.14506C30.6675 1.80526 27.873 5.09663 27.735 5.26339C27.4766 5.57555 27.5204 6.03692 27.8316 6.29624C27.9688 6.41045 28.1355 6.46614 28.3012 6.46614C28.5116 6.46614 28.7209 6.37634 28.8665 6.20261C28.8756 6.19182 29.7916 5.1129 31.6144 4.13241C33.344 3.20212 35.2661 2.6679 37.3518 2.53428C38.6478 2.45124 39.9382 2.81584 40.9947 3.57104L41.0106 3.58241C35.0164 3.80486 31.9146 7.07114 31.7643 7.23359C31.4891 7.53094 31.5071 7.99398 31.8036 8.27016C31.945 8.40183 32.1247 8.46692 32.3041 8.46692C32.5008 8.46692 32.6971 8.38869 32.8419 8.23408C32.8516 8.22388 33.8261 7.19722 35.7004 6.31928C37.6208 5.41977 39.7395 4.99467 42.0206 5.04594C42.5561 5.058 43.0694 5.27388 43.4474 5.65339C43.4494 5.65535 43.4514 5.65732 43.4533 5.65928C45.567 7.7833 44.6184 10.7777 42.5697 11.9836C42.6063 12.0023 42.643 12.0208 42.6795 12.0397C46.7274 14.1285 50.59 8.8879 47.3769 5.65918Z" fill="url(#paint7_linear_0_2838)"/>
<path d="M23.4599 0.00034218C23.4475 0.00034218 23.4353 0.00034218 23.4229 0.00034218C21.4226 0.00406767 19.4967 0.779754 18.0359 2.14622C16.5547 3.53191 15.9148 4.74907 15.8599 4.85613C15.6765 5.21691 15.8197 5.65809 16.1795 5.84338C16.2863 5.89828 16.401 5.92476 16.5148 5.92476C16.7805 5.92476 17.0383 5.77868 17.1687 5.52672C17.1756 5.51397 17.8354 4.26201 19.401 2.90809C20.9736 1.54828 22.852 0.574754 25.0059 0.000244141H23.4599V0.00034218Z" fill="url(#paint8_linear_0_2838)"/>
<path d="M33.1117 49.9996H9.66295C4.32569 49.9996 -0.000976562 45.673 -0.000976562 40.3357C-0.000976562 33.2852 5.71461 27.5696 12.765 27.5696H30.0096C37.0601 27.5696 42.7756 33.2852 42.7756 40.3356C42.7756 45.673 38.4489 49.9996 33.1117 49.9996Z" fill="url(#paint9_linear_0_2838)"/>
<path d="M32.4632 43.7091C33.1762 43.7091 33.7541 43.1311 33.7541 42.4182C33.7541 41.7053 33.1762 41.1273 32.4632 41.1273C31.7503 41.1273 31.1724 41.7053 31.1724 42.4182C31.1724 43.1311 31.7503 43.7091 32.4632 43.7091Z" fill="url(#paint10_linear_0_2838)"/>
<path d="M17.8065 38.8583C17.0936 38.8583 16.5156 39.4363 16.5156 40.1492C16.5156 40.8622 17.0936 41.4401 17.8065 41.4401C18.5194 41.4401 19.0974 40.8622 19.0974 40.1492C19.0974 39.4363 18.5194 38.8583 17.8065 38.8583Z" fill="url(#paint11_linear_0_2838)"/>
<path d="M10.7994 36.2764C10.0865 36.2764 9.50854 36.8544 9.50854 37.5673C9.50854 38.2803 10.0865 38.8582 10.7994 38.8582C11.5124 38.8582 12.0903 38.2803 12.0903 37.5673C12.0902 36.8544 11.5123 36.2764 10.7994 36.2764Z" fill="url(#paint12_linear_0_2838)"/>
<path d="M9.02664 46.7863C10.3836 46.7863 11.4837 45.6862 11.4837 44.3292C11.4837 42.9722 10.3836 41.8721 9.02664 41.8721C7.66964 41.8721 6.56958 42.9722 6.56958 44.3292C6.56958 45.6862 7.66964 46.7863 9.02664 46.7863Z" fill="url(#paint13_linear_0_2838)"/>
<path d="M41.2041 34.1951C39.0345 30.2461 34.8345 27.5696 30.01 27.5696H12.7649C9.24041 27.5696 6.04825 28.9981 3.73845 31.3089C2.88649 32.1608 2.15511 33.1314 1.5708 34.1951C2.18453 36.4334 4.71296 38.1255 7.31884 36.7804C10.1904 35.2991 13.3041 34.1785 16.1571 34.1785H26.6179C29.4708 34.1785 32.5845 35.2991 35.4561 36.7804C35.7697 36.9422 36.0823 37.06 36.3905 37.1383C37.8202 37.5011 38.8413 38.7661 38.8519 40.2411C38.8521 40.2725 38.8523 40.304 38.8523 40.3353C38.8523 41.8012 38.5254 43.1904 37.9414 44.4352C37.4695 44.0599 36.8636 43.8456 36.2068 43.8778C34.9059 43.9414 33.8387 44.9945 33.7593 46.2945C33.7436 46.5516 33.7656 46.8013 33.8203 47.0385C34.0465 48.0189 33.548 49.0215 32.607 49.3777C31.5442 49.78 30.3921 50.0002 29.1885 50.0002H33.1121C35.7807 50.0002 38.1964 48.9178 39.9454 47.1688C41.6944 45.4198 42.7758 43.0041 42.7758 40.3354C42.7757 38.1099 42.2061 36.0167 41.2041 34.1951Z" fill="url(#paint14_linear_0_2838)"/>
<path d="M16.1566 31.7266H26.6178C29.4707 31.7266 32.5846 32.8466 35.4556 34.3283C39.5035 36.4172 43.366 31.1766 40.153 27.9479C36.6744 24.4524 31.8589 22.2888 26.5378 22.2888H16.2365C10.9155 22.2888 6.09983 24.4524 2.6213 27.9479C-0.591739 31.1766 3.27081 36.4172 7.31865 34.3283C10.1897 32.8467 13.3036 31.7266 16.1566 31.7266Z" fill="url(#paint15_linear_0_2838)"/>
<path d="M40.1538 27.9478C37.2004 24.9798 33.2829 22.9721 28.9107 22.4336C28.9107 22.4336 28.9089 22.4336 28.9063 22.4337C28.1303 22.338 27.3406 22.2891 26.5391 22.2891H21.8371C20.0087 22.8038 18.5558 23.5146 17.4812 24.1715C15.1616 25.5901 14.0459 27.0636 13.9999 27.1254C13.7567 27.4509 13.8234 27.9117 14.1489 28.1548C14.2812 28.2529 14.4352 28.3009 14.5881 28.3009C14.8126 28.3009 15.0332 28.1989 15.1783 28.0058C15.2153 27.9559 18.7978 23.2881 26.6633 23.0356C27.5087 23.0084 28.3536 23.1415 29.1489 23.4292L29.161 23.4336C23.4444 24.0938 20.6499 27.3852 20.5118 27.552C20.2535 27.8641 20.2972 28.3255 20.6085 28.5848C20.7457 28.699 20.9123 28.7547 21.0781 28.7547C21.2885 28.7547 21.4977 28.6649 21.6434 28.4912C21.6524 28.4804 22.5685 27.4015 24.3912 26.421C26.1209 25.4907 28.0429 24.9565 30.1287 24.8229C31.4247 24.7398 32.7151 25.1044 33.7715 25.8596L33.7874 25.871C27.7933 26.0934 24.6914 29.3597 24.5411 29.5222C24.2659 29.8195 24.284 30.2826 24.5805 30.5588C24.7218 30.6904 24.9015 30.7555 25.0809 30.7555C25.2776 30.7555 25.474 30.6773 25.6188 30.5227C25.6285 30.5125 26.6029 29.4858 28.4772 28.6079C30.3976 27.7084 32.5163 27.2833 34.7974 27.3345C35.3329 27.3466 35.8462 27.5625 36.2243 27.942L36.2302 27.9479C38.3439 30.0719 37.3953 33.0663 35.3465 34.2722C35.3831 34.2909 35.4199 34.3094 35.4563 34.3283C39.5042 36.4171 43.3667 31.1765 40.1538 27.9478Z" fill="url(#paint16_linear_0_2838)"/>
<path d="M16.2367 22.2891C16.2244 22.2891 16.2121 22.2891 16.1998 22.2891C14.1995 22.2928 12.2736 23.0685 10.8128 24.435C9.33152 25.8207 8.69162 27.0378 8.63672 27.1449C8.45339 27.5056 8.59652 27.9468 8.95633 28.1321C9.06319 28.187 9.1779 28.2135 9.29162 28.2135C9.55731 28.2135 9.81515 28.0674 9.94554 27.8154C9.95241 27.8027 10.6122 26.5507 12.1779 25.1968C13.7504 23.837 15.6289 22.8635 17.7828 22.289H16.2367V22.2891Z" fill="url(#paint17_linear_0_2838)"/>
</g>
<defs>
<linearGradient id="paint0_linear_0_2838" x1="8.3729" y1="16.4958" x2="48.9614" y2="16.4958" gradientUnits="userSpaceOnUse">
<stop stop-color="#F8F6F7"/>
<stop offset="0.1788" stop-color="#F8F6F7"/>
<stop offset="1" stop-color="#E7E6F5"/>
</linearGradient>
<linearGradient id="paint1_linear_0_2838" x1="2.49989" y1="20.1295" x2="49.6733" y2="20.1295" gradientUnits="userSpaceOnUse">
<stop stop-color="#F8F6F7"/>
<stop offset="1" stop-color="#D1CEEB"/>
</linearGradient>
<linearGradient id="paint2_linear_0_2838" x1="2.49996" y1="17.8602" x2="49.6735" y2="17.8602" gradientUnits="userSpaceOnUse">
<stop stop-color="#F8F6F7"/>
<stop offset="1" stop-color="#D1CEEB"/>
</linearGradient>
<linearGradient id="paint3_linear_0_2838" x1="2.49986" y1="15.2785" x2="49.6734" y2="15.2785" gradientUnits="userSpaceOnUse">
<stop stop-color="#F8F6F7"/>
<stop offset="1" stop-color="#D1CEEB"/>
</linearGradient>
<linearGradient id="paint4_linear_0_2838" x1="2.50034" y1="22.0404" x2="49.674" y2="22.0404" gradientUnits="userSpaceOnUse">
<stop stop-color="#F8F6F7"/>
<stop offset="1" stop-color="#D1CEEB"/>
</linearGradient>
<linearGradient id="paint5_linear_0_2838" x1="2.50002" y1="16.496" x2="49.6736" y2="16.496" gradientUnits="userSpaceOnUse">
<stop stop-color="#F8F6F7"/>
<stop offset="1" stop-color="#D1CEEB"/>
</linearGradient>
<linearGradient id="paint6_linear_0_2838" x1="9.45998" y1="6.25882" x2="57.4515" y2="6.25882" gradientUnits="userSpaceOnUse">
<stop stop-color="#FE646F"/>
<stop offset="0.593" stop-color="#FB2B3A"/>
<stop offset="1" stop-color="#C41926"/>
</linearGradient>
<linearGradient id="paint7_linear_0_2838" x1="-1.37307" y1="6.25908" x2="45.4375" y2="6.25908" gradientUnits="userSpaceOnUse">
<stop stop-color="#FE646F"/>
<stop offset="0.593" stop-color="#FB2B3A"/>
<stop offset="1" stop-color="#C41926"/>
</linearGradient>
<linearGradient id="paint8_linear_0_2838" x1="-1.37337" y1="2.9626" x2="45.4372" y2="2.9626" gradientUnits="userSpaceOnUse">
<stop stop-color="#FE646F"/>
<stop offset="0.593" stop-color="#FB2B3A"/>
<stop offset="1" stop-color="#C41926"/>
</linearGradient>
<linearGradient id="paint9_linear_0_2838" x1="1.14951" y1="38.7846" x2="41.7381" y2="38.7846" gradientUnits="userSpaceOnUse">
<stop stop-color="#F8F6F7"/>
<stop offset="0.1788" stop-color="#F8F6F7"/>
<stop offset="1" stop-color="#E7E6F5"/>
</linearGradient>
<linearGradient id="paint10_linear_0_2838" x1="-4.72381" y1="42.4182" x2="42.4497" y2="42.4182" gradientUnits="userSpaceOnUse">
<stop stop-color="#F8F6F7"/>
<stop offset="1" stop-color="#D1CEEB"/>
</linearGradient>
<linearGradient id="paint11_linear_0_2838" x1="-4.72369" y1="40.1492" x2="42.4498" y2="40.1492" gradientUnits="userSpaceOnUse">
<stop stop-color="#F8F6F7"/>
<stop offset="1" stop-color="#D1CEEB"/>
</linearGradient>
<linearGradient id="paint12_linear_0_2838" x1="-4.72411" y1="37.5673" x2="42.4494" y2="37.5673" gradientUnits="userSpaceOnUse">
<stop stop-color="#F8F6F7"/>
<stop offset="1" stop-color="#D1CEEB"/>
</linearGradient>
<linearGradient id="paint13_linear_0_2838" x1="-4.72373" y1="44.3293" x2="42.4497" y2="44.3293" gradientUnits="userSpaceOnUse">
<stop stop-color="#F8F6F7"/>
<stop offset="1" stop-color="#D1CEEB"/>
</linearGradient>
<linearGradient id="paint14_linear_0_2838" x1="-4.72371" y1="38.7849" x2="42.4498" y2="38.7849" gradientUnits="userSpaceOnUse">
<stop stop-color="#F8F6F7"/>
<stop offset="1" stop-color="#D1CEEB"/>
</linearGradient>
<linearGradient id="paint15_linear_0_2838" x1="2.23659" y1="28.5476" x2="50.2281" y2="28.5476" gradientUnits="userSpaceOnUse">
<stop stop-color="#FBC56D"/>
<stop offset="0.5841" stop-color="#FE9738"/>
<stop offset="0.9984" stop-color="#FB2B3A"/>
</linearGradient>
<linearGradient id="paint16_linear_0_2838" x1="0.374866" y1="28.5477" x2="42.9863" y2="28.5477" gradientUnits="userSpaceOnUse">
<stop stop-color="#FBC56D"/>
<stop offset="0.5841" stop-color="#FE9738"/>
<stop offset="0.9984" stop-color="#FB2B3A"/>
</linearGradient>
<linearGradient id="paint17_linear_0_2838" x1="0.374565" y1="25.2513" x2="42.986" y2="25.2513" gradientUnits="userSpaceOnUse">
<stop stop-color="#FBC56D"/>
<stop offset="0.5841" stop-color="#FE9738"/>
<stop offset="0.9984" stop-color="#FB2B3A"/>
</linearGradient>
<clipPath id="clip0_0_2838">
<rect width="50" height="50" fill="white"/>
</clipPath>
</defs>
</svg>
