<svg width="50" height="50" viewBox="0 0 50 50" fill="none" xmlns="http://www.w3.org/2000/svg">
<g clip-path="url(#clip0_0_2877)">
<path d="M13.0197 6.93652C13.6204 6.68388 14.2218 6.44945 14.8346 6.2362C15.1755 6.10919 15.524 5.9963 15.8726 5.88341C18.2736 5.05589 20.7269 4.41191 23.2126 3.95673C25.66 3.52849 28.1469 3.46006 30.5993 3.75347C31.7874 3.89866 33.4872 4.75663 32.9664 6.32186C32.6735 6.98331 32.2313 7.56436 31.6776 8.01508C29.5455 10.1478 27.2477 12.0949 24.8083 13.836C19.2627 17.5424 12.696 19.1993 6.19751 18.532C4.87518 18.397 3.58264 18.0629 2.36058 17.5403C1.00608 16.9347 0.646064 16.4862 1.68058 15.1482C4.76493 11.4965 8.66067 8.67528 13.0197 6.93652Z" fill="#D88121"/>
<path d="M29.7144 6.72257C29.5601 9.3975 28.6266 11.9753 27.0375 14.1143C25.4352 16.2429 23.257 17.8291 20.7904 18.6639C18.0503 19.4898 15.1661 19.5895 12.4043 18.9536C11.1718 18.7039 9.95607 18.3777 8.76374 17.9765C7.55543 17.686 6.38311 17.2609 5.26703 16.7086C4.10212 15.9489 5.47554 15.117 6.13732 14.5195C7.02656 13.7238 7.95867 12.9815 8.92894 12.2963C12.866 9.52168 17.3379 7.68891 22.0144 6.93336C22.6184 6.83752 29.7452 6.25549 29.7144 6.72257Z" fill="white"/>
<path d="M30.2795 5.00223C30.5678 4.76205 30.9092 4.60182 31.2712 4.53676C31.6331 4.47171 32.0037 4.50399 32.3476 4.63055C32.6915 4.75711 32.9973 4.97373 33.236 5.25983C33.4747 5.54594 33.6384 5.89202 33.7114 6.26519C35.1891 13.6996 36.5817 21.1466 38.1437 28.55C38.261 29.1445 38.3822 29.7462 38.4818 30.3418C38.9634 33.3578 39.0816 36.5518 37.8441 39.3748C36.6559 41.896 34.736 43.9705 32.3611 45.2993C29.9983 46.6113 27.5064 47.6465 24.9315 48.3855C23.0497 48.9405 21.0808 49.0647 19.1608 48.7495C16.7514 48.3308 15.2544 46.8765 13.7661 44.8572C10.7941 40.9298 8.7405 36.4565 6.88177 31.8675C5.02304 27.2785 3.14802 22.8984 1.55753 18.3303C0.266745 14.6279 4.31328 15.5826 6.79014 15.2211C13.0331 14.3862 19.0753 12.2792 24.5713 9.0204C26.5471 7.79903 28.4532 6.45727 30.2795 5.00223Z" fill="#F4BC2F"/>
<path d="M41.1726 33.7251C40.6828 33.9111 40.1681 34.0114 39.6493 34.0219C38.6564 34.0138 37.689 33.7203 36.8535 33.1736C36.0181 32.6269 35.3469 31.8483 34.914 30.9235C34.5249 30.0471 34.3213 29.0914 34.3168 28.1204C34.3123 27.1494 34.5069 26.1855 34.8878 25.2933C35.7286 23.2634 37.26 21.8688 38.7534 20.5062L39.4575 19.8313C40.5354 18.8822 41.4598 17.7582 42.1944 16.5038C42.857 15.3872 43.147 14.0777 43.0187 12.7824C42.9548 12.233 42.763 11.71 42.4599 11.2591C42.1568 10.8081 41.7516 10.4427 41.2794 10.1946C40.7434 9.9928 40.1651 9.93637 39.5983 10.0305C39.0315 10.1246 38.4947 10.3663 38.0376 10.733C36.9775 11.6073 36.1902 12.7905 35.7785 14.1283C35.3163 15.6429 35.0004 17.1998 34.8355 18.7756C34.8283 18.9805 34.7801 19.1822 34.694 19.3678C34.608 19.5534 34.4859 19.7187 34.3357 19.8533C34.1855 19.9878 34.0104 20.0886 33.8218 20.1491C33.6331 20.2096 33.4349 20.2285 33.24 20.2047C33.0451 20.1808 32.8578 20.1147 32.6899 20.0105C32.5221 19.9064 32.3776 19.7665 32.2655 19.5998C32.1535 19.4332 32.0765 19.2434 32.0394 19.0428C32.0023 18.8421 32.0059 18.6349 32.0501 18.4346C32.2265 16.6415 32.5816 14.8697 33.1094 13.1478C33.7159 11.2183 34.8848 9.52653 36.4516 8.31068C37.3059 7.65211 38.3042 7.22942 39.3519 7.08268C40.3995 6.93595 41.4618 7.07003 42.4379 7.47222C43.3536 7.91812 44.1442 8.59751 44.7378 9.44846C45.3313 10.2994 45.7089 11.2949 45.8361 12.3441C46.0491 14.2865 45.6359 16.2572 44.6612 17.9465C43.7763 19.487 42.6516 20.8653 41.334 22.024L40.5842 22.7166C39.2798 23.9003 38.0621 25.023 37.4894 26.4563C37.2721 26.9484 37.1555 27.481 37.1471 28.0197C37.1387 28.5583 37.2386 29.0912 37.4404 29.5839C37.6372 30.0279 37.9474 30.4057 38.3375 30.6764C38.7276 30.9471 39.1828 31.1006 39.654 31.1201C40.056 31.1074 40.4453 30.9603 40.7644 30.7005C41.0835 30.4407 41.3156 30.082 41.4262 29.6775C41.4519 29.4846 41.441 29.2888 41.394 29.1015C41.347 28.9141 41.2649 28.7388 41.1524 28.5855C41.0706 28.4517 40.9632 28.3371 40.8367 28.2488C40.7102 28.1605 40.5673 28.1003 40.4169 28.0721C40.0659 28.0046 39.7545 27.8001 39.546 27.5002C39.3374 27.2002 39.2472 26.8272 39.2935 26.4565C39.3399 26.0858 39.5194 25.7453 39.7957 25.5038C40.072 25.2624 40.4245 25.138 40.7817 25.156C41.312 25.2284 41.8209 25.4137 42.2768 25.7002C42.7328 25.9867 43.1262 26.3685 43.4327 26.822C43.7729 27.294 44.0153 27.8353 44.1449 28.4123C44.2745 28.9894 44.2885 29.5898 44.186 30.1763C44.0184 30.9849 43.6524 31.7373 43.1241 32.3595C42.5957 32.9818 41.9232 33.4523 41.1726 33.7251Z" fill="#F4BC2F"/>
<path d="M34.7999 40.2609C32.8701 40.9915 33.0882 43.4393 34.3688 44.3593C35.5025 43.4711 36.4868 42.3918 37.28 41.1672C37.0431 40.731 36.6628 40.3998 36.208 40.2336C35.7531 40.0674 35.2537 40.0771 34.7999 40.2609Z" fill="white"/>
<path d="M28.5262 20.2433C25.8474 21.2662 27.3052 25.5859 29.9879 24.5701C32.6706 23.5544 31.2159 19.2234 28.5262 20.2433Z" fill="white"/>
<path d="M38.1492 28.8728C37.9456 27.9277 37.7598 26.9816 37.553 26.0479C37.3885 26.076 37.2263 26.1182 37.0681 26.1741C34.402 27.1962 35.8122 31.4507 38.486 30.5287C38.3815 29.9912 38.2615 29.4248 38.1492 28.8728Z" fill="white"/>
<path d="M23.9546 17.909C26.6334 16.8862 25.1756 12.5666 22.486 13.5864C19.7963 14.6062 21.265 18.9289 23.9546 17.909Z" fill="white"/>
<path d="M32.6794 7.36901C29.9814 8.39197 31.4474 12.7316 34.1416 11.7014L34.3508 11.5771C34.0662 10.1108 33.7792 8.64582 33.4899 7.18226C33.2119 7.19339 32.9374 7.25665 32.6794 7.36901Z" fill="white"/>
<path d="M29.3623 31.5832C26.6835 32.6061 28.1413 36.9256 30.827 35.8986C33.5127 34.8716 32.048 30.5562 29.3623 31.5832Z" fill="white"/>
<path d="M7.98008 33.6365L7.93092 33.6657C8.52365 35.0609 9.15539 36.4425 9.81208 37.8189C12.0265 36.5626 10.5584 32.6607 7.98008 33.6365Z" fill="white"/>
<path d="M26.6585 47.9233C26.7194 47.5331 26.6827 47.1347 26.5521 46.7666C26.4214 46.3986 26.2012 46.0734 25.9128 45.8226C25.6243 45.5718 25.2774 45.4039 24.9058 45.3351C24.5341 45.2664 24.1502 45.2991 23.7913 45.4302C23.4775 45.5483 23.1934 45.7404 22.9612 45.9913C22.729 46.2422 22.5551 46.545 22.4534 46.8758C22.3516 47.2067 22.3247 47.5564 22.3748 47.8976C22.4248 48.2387 22.5505 48.5618 22.7419 48.8414C23.6176 48.7829 24.4858 48.6223 25.33 48.3626L26.6585 47.9233Z" fill="white"/>
<path d="M17.5486 24.2032C14.8698 25.226 16.3207 29.5496 19.0063 28.5226C21.692 27.4956 20.2342 23.1762 17.5486 24.2032Z" fill="white"/>
<path d="M4.49816 24.1716C4.33069 24.2479 4.17128 24.3425 4.02267 24.4539C4.58505 25.8441 5.15832 27.2373 5.7207 28.6274L5.98561 28.5368C8.66817 27.4867 7.19935 23.139 4.49816 24.1716Z" fill="white"/>
<path d="M18.4749 36.4015C15.7961 37.4244 17.2539 41.744 19.9327 40.7211C22.6115 39.6982 21.1606 35.3745 18.4749 36.4015Z" fill="white"/>
<path d="M11.565 21.7065C14.2507 20.6795 12.7929 16.36 10.1072 17.387C7.42153 18.414 8.88627 22.7293 11.565 21.7065Z" fill="white"/>
<g style="mix-blend-mode:multiply">
<path d="M37.8661 39.3911C39.0673 36.5929 38.9702 33.3912 38.4546 30.4002C38.3552 29.8055 38.2341 29.2047 38.117 28.6111C36.5574 21.2186 35.1669 13.7826 33.6915 6.35908C33.6186 5.98646 33.4551 5.64089 33.2168 5.35521C32.9784 5.06953 32.673 4.85323 32.3296 4.72687C31.9861 4.60051 31.6161 4.56829 31.2546 4.63325C30.8932 4.69822 30.5523 4.85823 30.2643 5.09807C29.8752 5.41458 29.4922 5.70845 29.1161 5.9982C29.4832 7.46668 29.8788 8.93714 30.2775 10.3963C30.8443 12.4756 31.4072 14.5478 31.8791 16.6552C33.1428 22.0631 33.5657 27.9706 31.5887 33.1816C30.0568 37.0799 27.3392 40.3602 23.8587 42.5121C20.9414 44.2964 17.6612 45.3184 14.3024 45.4897C15.6536 47.1693 17.0637 48.3781 19.222 48.7444C21.1393 49.0591 23.1056 48.935 24.9848 48.3807C27.5562 47.6427 30.0447 46.609 32.4043 45.2988C34.7696 43.9716 36.6818 41.9034 37.8661 39.3911Z" fill="#E8E8E8"/>
</g>
</g>
<defs>
<clipPath id="clip0_0_2877">
<rect width="50" height="50" fill="white"/>
</clipPath>
</defs>
</svg>
