<svg width="40" height="40" viewBox="0 0 40 40" fill="none" xmlns="http://www.w3.org/2000/svg">
<circle cx="19.917" cy="19.917" r="19.917" fill="#C1063D"/>
<path fill-rule="evenodd" clip-rule="evenodd" d="M0.166992 20.0946C0.166992 9.10129 9.10658 0.166016 20.084 0.166016C31.0614 0.166016 40.001 9.10129 40.001 20.0946C40.001 31.0648 31.0614 40 20.084 40C9.10658 40 0.166992 31.0648 0.166992 20.0946ZM27.3891 22.1103C27.6006 21.8989 27.8698 21.5722 27.9274 21.4954C28.235 21.0918 28.3888 20.5922 28.3888 20.0946C28.3888 19.5354 28.2158 19.0166 27.889 18.5938C27.8622 18.567 27.8098 18.51 27.7414 18.4356C27.6135 18.2964 27.43 18.0966 27.2546 17.9213C25.6781 16.2303 21.564 13.4632 19.4108 12.6178C19.084 12.4852 18.2573 12.195 17.8151 12.1758C17.3922 12.1758 16.9885 12.2719 16.604 12.464C16.1233 12.733 15.7388 13.1558 15.5274 13.6554C15.3928 14.0013 15.1813 15.0389 15.1813 15.0581C14.9698 16.1919 14.8545 18.0366 14.8545 20.0734C14.8545 22.0161 14.9698 23.782 15.1429 24.935C15.1476 24.9397 15.1642 25.0222 15.1899 25.1503C15.268 25.5397 15.4307 26.351 15.6043 26.6836C16.0272 27.4907 16.8539 27.9903 17.7382 27.9903H17.8151C18.3919 27.971 19.603 27.4714 19.603 27.4522C21.6409 26.6067 25.6589 23.9742 27.2738 22.2256L27.3891 22.1103Z" fill="#F7F8F8"/>
</svg>
