<svg width="48" height="75" viewBox="0 0 48 75" fill="none" xmlns="http://www.w3.org/2000/svg">
<g clip-path="url(#clip0_0_2077)">
<path d="M30.1839 34.4408C30.1839 34.4408 30.6461 35.6743 30.8477 36.0686C31.0494 36.4629 35.3797 44.7419 35.7492 46.6824C36.1188 48.623 37.5342 53.2337 37.9062 53.7926C38.2781 54.3514 39.4857 57.9362 40.0906 60.8955C40.6956 63.8548 41.9721 68.9192 42.2418 69.5437C42.5115 70.1682 39.9227 70.2015 39.9227 70.2015C39.9227 70.2015 36.1598 62.7043 35.3179 61.3217C34.4761 59.939 33.7047 57.5728 33.6038 56.0613C33.503 54.5498 32.4272 53.7593 31.4865 52.6088C30.5457 51.4583 26.0075 42.7435 25.1666 41.9544C24.3257 41.1654 23.8057 41.2266 23.8057 41.2266V34.9118L30.1839 34.4408Z" fill="black"/>
<path d="M17.7097 34.4408C17.7097 34.4408 17.2475 35.6743 17.0458 36.0686C16.8442 36.4629 12.0286 45.2491 11.6605 47.1892C11.2924 49.1292 10.3579 53.2337 9.98786 53.7926C9.61784 54.3514 8.40791 57.9362 7.80294 60.8955C7.19797 63.8548 5.92146 68.9192 5.65178 69.5437C5.3821 70.1682 7.97082 70.2015 7.97082 70.2015C7.97082 70.2015 11.7338 62.7043 12.5756 61.3217C13.4175 59.939 14.1889 57.5728 14.2897 56.0613C14.3905 54.5498 15.4664 53.7593 16.4071 52.6088C17.3478 51.4583 21.8861 42.7435 22.727 41.9544C23.5678 41.1654 24.1048 41.2266 24.1048 41.2266L24.0884 34.9089L17.7097 34.4408Z" fill="black"/>
<path d="M42.4052 69.2122C42.4052 69.2122 43.3343 70.6267 44.0652 71.0209C44.7961 71.4152 47.4765 72.5204 47.9136 73.4339C48.2199 74.0739 47.8007 75.3364 45.223 74.9189C42.6454 74.5015 41.7635 73.1096 40.982 72.9475C40.2005 72.7853 39.3523 72.1816 39.3017 71.0359C39.251 69.8902 39.7214 70.0948 39.6206 69.6779C39.5197 69.2609 42.4052 69.2122 42.4052 69.2122Z" fill="#C1063D"/>
<path d="M5.59513 69.2122C5.59513 69.2122 4.66596 70.6267 3.93508 71.0209C3.2042 71.4152 0.523323 72.5204 0.0867223 73.4339C-0.220104 74.0739 0.199612 75.3364 2.77676 74.9189C5.35391 74.5015 6.23676 73.1096 7.0183 72.9475C7.79984 72.7853 8.64795 72.1816 8.69812 71.0359C8.7483 69.8902 8.27841 70.0948 8.37924 69.6779C8.48007 69.2609 5.59513 69.2122 5.59513 69.2122Z" fill="#C1063D"/>
<path d="M31.7358 20.0893C31.0498 17.7245 32.0817 12.7586 32.0817 12.7586C30.7493 12.1838 29.0347 12.6871 28.299 12.6871C27.5633 12.6871 25.5351 12.1268 25.5351 12.1268H22.2546C22.2546 12.1268 20.2284 12.6871 19.4912 12.6871C18.7541 12.6871 17.0405 12.1838 15.7085 12.7586C15.7085 12.7586 16.7428 17.808 16.0568 20.1732C16.0568 20.1732 17.6619 24.5992 18.0497 25.2545C18.4376 25.9099 18.0546 28.3301 18.0411 28.9402C18.0222 29.8141 17.8891 32.3024 17.7116 34.4418C17.7116 34.4418 19.6794 35.614 23.8954 35.7139C28.0684 35.4432 30.1843 34.4418 30.1843 34.4418C29.92 31.8951 29.7501 29.7514 29.645 28.9218C29.5683 28.3162 29.3555 25.9109 29.7415 25.2541C30.1274 24.5972 31.7358 20.0893 31.7358 20.0893Z" fill="#C1063D"/>
<path d="M32.0818 12.7604C32.0818 12.7604 33.215 13.2879 33.7462 13.3256C34.2773 13.3632 35.1042 12.5563 36.1299 12.6499C37.1555 12.7435 37.5448 13.2865 38.5039 13.2387C39.463 13.1909 39.7954 12.9974 39.8615 12.6422C39.9276 12.287 41.1529 10.1134 40.6406 7.13089C40.1282 4.14842 41.5707 5.06005 41.5707 5.06005C41.5707 5.06005 42.976 7.60577 43.2592 10.4169C43.5424 13.2281 42.6514 15.9832 42.6152 16.3635C42.579 16.7438 42.3682 17.3133 42.1028 17.4653C41.8375 17.6173 38.4812 17.8996 37.3229 17.959C36.1646 18.0184 33.7655 17.627 33.12 18.0637C32.4745 18.5005 31.6596 20.3015 31.6596 20.3015C31.6596 20.3015 30.55 14.7391 32.0818 12.7604Z" fill="#EEA886"/>
<path d="M15.7071 12.7604C15.7071 12.7604 14.5739 13.286 14.0432 13.3236C13.5125 13.3612 12.6856 12.5543 11.66 12.648C10.6343 12.7416 10.245 13.2845 9.28593 13.2367C8.32685 13.189 7.99446 12.9954 7.92788 12.6402C7.8613 12.285 6.63689 10.1114 7.14924 7.12894C7.66158 4.14647 6.21863 5.0581 6.21863 5.0581C6.21863 5.0581 4.81331 7.60382 4.53012 10.415C4.24693 13.2261 5.13749 15.9813 5.17561 16.3616C5.21372 16.7419 5.42261 17.3113 5.68843 17.4634C5.95425 17.6154 9.30957 17.8977 10.4684 17.957C11.6272 18.0164 14.0253 17.625 14.6713 18.0618C15.3173 18.4985 16.0588 20.1712 16.0588 20.1712C16.0588 20.1712 17.2388 14.7391 15.7071 12.7604Z" fill="#EEA886"/>
<path d="M25.9832 9.45177C25.9832 9.45177 25.7324 11.0231 26.2467 12.081C26.2467 12.081 26.8015 14.5606 24.2552 14.7285C21.7089 14.8965 21.6018 12.6133 21.6018 12.6133C21.6018 12.6133 22.1937 11.7808 21.7374 9.56132C21.281 7.34184 25.9832 9.45177 25.9832 9.45177Z" fill="#EEA886"/>
<path d="M24.2344 0.437226C24.2344 0.437226 27.5072 0.891353 27.1261 6.13191C26.745 11.3725 23.8567 11.0062 23.6642 11.0062C23.4717 11.0062 20.7768 11.1654 20.4256 4.78787C20.4256 4.78353 20.2298 0.0680363 24.2344 0.437226Z" fill="#EEA886"/>
<path d="M27.1435 4.65277C27.1435 4.65277 27.4923 4.25366 27.6322 4.64649C27.7721 5.03933 27.213 6.75642 27.172 6.90024C27.172 6.90024 27.1102 7.05515 27.0229 6.97263C26.9356 6.8901 27.1435 4.65277 27.1435 4.65277Z" fill="#EEA886"/>
<path d="M20.5037 4.7324C20.5037 4.7324 20.1453 4.34245 20.0155 4.73819C19.8857 5.13392 20.5023 6.91375 20.5322 6.98035C20.5322 6.98035 20.5978 7.13382 20.6832 7.04888C20.7686 6.96394 20.5037 4.7324 20.5037 4.7324Z" fill="#EEA886"/>
<path d="M27.1599 5.45398L26.7074 6.10356C26.7074 6.10356 26.6895 4.70161 26.6109 4.48347C26.5323 4.26534 26.678 3.49607 26.6109 3.33923C26.5438 3.18238 24.3917 3.81941 20.8261 3.53516C20.8261 3.53516 21.2492 4.78992 21.019 4.88644C20.7889 4.98296 20.9375 6.53066 20.9375 6.53066L20.5434 6.09632C20.5434 6.09632 20.0513 3.45457 20.0841 3.01106C20.127 2.42084 19.8665 -0.325644 24.8799 0.0358243C25.4557 0.0754132 26.008 0.278864 26.472 0.622184C26.9949 1.01213 27.5372 1.62696 27.5082 2.48888C27.4711 3.62493 27.1599 5.45398 27.1599 5.45398Z" fill="black"/>
<path d="M21.9468 10.1989C21.9468 10.1989 23.436 11.8629 25.7035 10.1158C25.7035 10.1158 25.0855 11.4189 23.7313 11.4768C22.3771 11.5347 21.9468 10.1989 21.9468 10.1989Z" fill="#A77860"/>
<path d="M19.9851 12.6408C19.9851 12.6408 20.0633 18.6144 23.8928 18.7997V11.9468C23.8928 11.9468 22.1146 12.01 19.9851 12.6408Z" fill="#EEA886"/>
<path d="M27.8044 12.6408C27.8044 12.6408 27.7263 18.6144 23.8967 18.7997V11.9468C23.8967 11.9468 25.675 12.01 27.8044 12.6408Z" fill="#EEA886"/>
<path d="M43.6929 5.44903C43.6929 6.57538 43.2457 7.65559 42.4495 8.45204C41.6533 9.24848 40.5735 9.69592 39.4475 9.69592C38.3216 9.69592 37.2418 9.24848 36.4456 8.45204C35.6494 7.65559 35.2021 6.57538 35.2021 5.44903C35.2021 4.32269 35.6494 3.24248 36.4456 2.44603C37.2418 1.64959 38.3216 1.20215 39.4475 1.20215C40.5735 1.20215 41.6533 1.64959 42.4495 2.44603C43.2457 3.24248 43.6929 4.32269 43.6929 5.44903Z" fill="#434343"/>
<path d="M41.5136 5.44907C41.5136 5.99701 41.296 6.52251 40.9087 6.90996C40.5214 7.29741 39.9961 7.51508 39.4483 7.51508C38.9005 7.51508 38.3752 7.29743 37.9878 6.90999C37.6004 6.52255 37.3827 5.99706 37.3826 5.44907C37.3827 4.90108 37.6004 4.37559 37.9878 3.98815C38.3752 3.60071 38.9005 3.38306 39.4483 3.38306C39.9961 3.38306 40.5214 3.60073 40.9087 3.98818C41.296 4.37563 41.5136 4.90113 41.5136 5.44907Z" fill="#6B6B6B"/>
<path d="M12.6695 5.44903C12.6695 6.57538 12.2222 7.65559 11.4261 8.45204C10.6299 9.24848 9.55006 9.69592 8.42411 9.69592C7.29816 9.69592 6.21832 9.24848 5.42216 8.45204C4.62599 7.65559 4.17871 6.57538 4.17871 5.44903C4.17871 4.32269 4.62599 3.24248 5.42216 2.44603C6.21832 1.64959 7.29816 1.20215 8.42411 1.20215C9.55006 1.20215 10.6299 1.64959 11.4261 2.44603C12.2222 3.24248 12.6695 4.32269 12.6695 5.44903Z" fill="#434343"/>
<path d="M10.4904 5.44907C10.4904 5.99701 10.2729 6.52251 9.88554 6.90996C9.49822 7.29741 8.9729 7.51508 8.42516 7.51508C7.87741 7.51508 7.35209 7.29741 6.96478 6.90996C6.57746 6.52251 6.35986 5.99701 6.35986 5.44907C6.35986 4.90113 6.57746 4.37563 6.96478 3.98818C7.35209 3.60073 7.87741 3.38306 8.42516 3.38306C8.9729 3.38306 9.49822 3.60073 9.88554 3.98818C10.2729 4.37563 10.4904 4.90113 10.4904 5.44907Z" fill="#6B6B6B"/>
</g>
<defs>
<clipPath id="clip0_0_2077">
<rect width="48" height="75" fill="white"/>
</clipPath>
</defs>
</svg>
