<svg width="63" height="60" viewBox="0 0 63 60" fill="none" xmlns="http://www.w3.org/2000/svg">
<rect width="60" height="60" rx="5" fill="#FFE4EC"/>
<g clip-path="url(#clip0_0_5240)">
<path fill-rule="evenodd" clip-rule="evenodd" d="M19.5511 28.3215C19.554 28.3039 19.5557 28.2861 19.5562 28.2682C19.5544 28.2628 19.5516 28.2578 19.5479 28.2536C19.5441 28.2493 19.5396 28.2459 19.5345 28.2435C19.5294 28.241 19.5239 28.2397 19.5182 28.2394C19.5126 28.2392 19.5069 28.2401 19.5016 28.2421C19.4461 28.1698 19.3683 28.1182 19.2803 28.095C18.9962 28.012 18.7949 28.1829 18.6259 28.3898C18.0577 28.8005 17.551 29.2909 17.1213 29.846C17.1089 29.8592 17.1009 29.8759 17.0984 29.8937C16.5409 30.4493 16.0422 31.1504 15.5147 31.6615C15.4739 31.7011 15.4414 31.7484 15.4189 31.8007C15.3633 31.7868 15.3069 31.7765 15.25 31.7698C15.1927 31.7617 15.1343 31.7702 15.0816 31.7943C15.0289 31.8185 14.984 31.8572 14.9524 31.906C14.9208 31.9548 14.9037 32.0116 14.9031 32.0697C14.9025 32.1277 14.9185 32.1847 14.9492 32.2337C15.1203 32.4454 15.3507 32.6007 15.6109 32.6796C15.7948 32.7514 15.9826 32.8128 16.1734 32.8635C16.292 32.9114 16.4179 32.9388 16.5458 32.9448C16.6323 32.9435 16.7176 32.9224 16.795 32.8831C16.8724 32.8438 16.94 32.7874 16.9926 32.718C17.1357 32.5951 17.2519 32.4437 17.3337 32.2734C17.7666 31.7054 18.1633 31.1105 18.5213 30.4923C18.7538 30.1161 19.0714 29.6778 19.2945 29.2236C19.5052 28.8869 19.6382 28.5541 19.5511 28.3215Z" fill="#DCA47A"/>
<mask id="mask0_0_5240" style="mask-type:luminance" maskUnits="userSpaceOnUse" x="14" y="28" width="6" height="5">
<path d="M19.5511 28.3215C19.554 28.3039 19.5557 28.2861 19.5562 28.2682C19.5544 28.2628 19.5516 28.2578 19.5479 28.2536C19.5441 28.2494 19.5396 28.2459 19.5345 28.2435C19.5294 28.241 19.5239 28.2397 19.5182 28.2394C19.5126 28.2392 19.5069 28.2401 19.5016 28.2421C19.4461 28.1698 19.3683 28.1182 19.2803 28.0951C18.9962 28.012 18.7949 28.1829 18.6259 28.3898C18.0577 28.8005 17.551 29.2909 17.1213 29.846C17.1089 29.8592 17.1009 29.8759 17.0984 29.8938C16.5409 30.4493 16.0422 31.1504 15.5147 31.6615C15.4739 31.7011 15.4414 31.7484 15.4189 31.8007C15.3633 31.7869 15.3069 31.7765 15.25 31.7698C15.1927 31.7617 15.1343 31.7702 15.0816 31.7943C15.0289 31.8185 14.984 31.8572 14.9524 31.906C14.9208 31.9548 14.9037 32.0116 14.9031 32.0697C14.9025 32.1277 14.9185 32.1847 14.9492 32.2338C15.1203 32.4454 15.3507 32.6007 15.6109 32.6796C15.7948 32.7514 15.9826 32.8128 16.1734 32.8635C16.292 32.9114 16.4179 32.9388 16.5458 32.9448C16.6323 32.9435 16.7176 32.9224 16.795 32.8831C16.8724 32.8439 16.94 32.7874 16.9926 32.7181C17.1357 32.5951 17.2519 32.4437 17.3337 32.2734C17.7666 31.7054 18.1633 31.1105 18.5213 30.4923C18.7538 30.1161 19.0714 29.6778 19.2945 29.2236C19.5052 28.8869 19.6382 28.5541 19.5511 28.3215Z" fill="white"/>
</mask>
<g mask="url(#mask0_0_5240)">
<path fill-rule="evenodd" clip-rule="evenodd" d="M19.1408 30.4716C19.0511 30.3787 18.9684 30.2833 18.8857 30.188L18.8557 30.1531L18.874 30.1148L18.96 30.1912C18.972 30.2048 18.989 30.2129 19.0071 30.2139C19.0253 30.2149 19.0431 30.2086 19.0567 30.1964C19.0702 30.1842 19.0785 30.1671 19.0795 30.1489C19.0806 30.1306 19.0744 30.1128 19.0623 30.0992L18.9842 29.9943C18.9982 29.9871 19.0096 29.9755 19.0164 29.9613C19.0232 29.947 19.0252 29.9309 19.0219 29.9154C19.0299 29.8987 19.0154 29.8741 19.0128 29.8553C19.0255 29.8536 19.0378 29.8491 19.0487 29.8422C19.0597 29.8354 19.069 29.8262 19.0761 29.8154C19.0832 29.8046 19.0879 29.7924 19.0899 29.7796C19.0919 29.7668 19.0912 29.7538 19.0877 29.7414C19.0841 29.7281 19.0796 29.7152 19.0742 29.7026C19.1279 29.5903 19.1885 29.4636 19.2388 29.3585C19.3154 29.1984 19.4098 29.0438 19.4864 28.8896C19.6513 28.6403 19.7147 28.3374 19.6637 28.0436C19.6615 28.0382 19.6574 28.0338 19.6521 28.0313C19.6469 28.0288 19.6409 28.0283 19.6353 28.0299L19.6433 28.0132C19.6433 28.0054 19.6418 27.9976 19.6387 27.9905C19.6356 27.9833 19.631 27.9769 19.6253 27.9717C19.6195 27.9664 19.6127 27.9625 19.6053 27.96C19.5979 27.9576 19.5901 27.9568 19.5823 27.9576C19.5869 27.951 19.5903 27.9438 19.5926 27.9361C19.6115 27.86 19.504 27.835 19.4683 27.8972C19.4327 27.9595 19.4375 27.9617 19.4215 27.9952C19.3945 27.9717 19.3622 27.9553 19.3273 27.9473C19.2925 27.9394 19.2562 27.9401 19.2216 27.9495C19.2076 27.9507 19.194 27.9552 19.1819 27.9625C19.1697 27.9698 19.1594 27.9798 19.1518 27.9918C19.1441 28.0037 19.1392 28.0172 19.1376 28.0313C19.1359 28.0454 19.1375 28.0596 19.1421 28.073L19.1656 28.1459L19.0217 27.9772C18.9629 27.905 18.8187 27.9564 18.8627 28.0597C18.9066 28.1629 18.9262 28.2134 18.9556 28.2921L18.7778 28.0543C18.7105 27.9693 18.5693 28.0632 18.6354 28.1506L18.6595 28.1856C18.6433 28.1932 18.6302 28.2061 18.6225 28.2223C18.6148 28.2384 18.6129 28.2567 18.6172 28.2741C18.6322 28.3255 18.6498 28.3761 18.6701 28.4256C18.594 28.3176 18.5122 28.2138 18.4251 28.1146L18.4085 28.1067C18.345 28.0381 18.2416 28.1384 18.2887 28.2108L18.3308 28.2751L18.1772 28.0841C18.1638 28.0682 18.145 28.0579 18.1244 28.0552C18.1038 28.0525 18.0828 28.0575 18.0656 28.0693C18.0484 28.0811 18.0361 28.0988 18.0311 28.1191C18.026 28.1394 18.0286 28.1608 18.0384 28.1792L18.2071 28.4361C18.198 28.4458 18.192 28.458 18.1899 28.4712C18.1878 28.4843 18.1896 28.4977 18.1952 28.5097L18.2257 28.5742L17.9923 28.2511C17.9309 28.166 17.7968 28.2574 17.8581 28.3426L17.8822 28.3776C17.8419 28.3583 17.7939 28.3794 17.7524 28.4417C17.742 28.4537 17.7358 28.4687 17.7345 28.4845C17.7333 28.5003 17.7371 28.516 17.7454 28.5294L17.7827 28.5796C17.7797 28.584 17.7774 28.5888 17.7758 28.5939L17.883 28.8331L17.674 28.4835C17.6402 28.4262 17.5443 28.4743 17.5688 28.5389C17.8012 29.1114 18.1263 29.641 18.531 30.1063C18.5115 30.147 18.4909 30.19 18.4905 30.2397C18.4883 30.2493 18.4897 30.2594 18.4945 30.268C18.4316 30.3994 18.3698 30.5285 18.2891 30.6484C18.1558 30.8783 18.0115 31.0824 17.8614 31.2925C17.7931 31.3802 17.7237 31.4644 17.6531 31.5511C17.3566 31.9025 17.0042 32.2244 16.6946 32.5608C16.4389 32.4854 16.1644 32.4069 15.9096 32.3115C15.476 32.151 15.0071 31.8386 14.548 31.7922C14.5431 31.7916 14.5382 31.7926 14.5339 31.7951C14.5296 31.7975 14.5261 31.8012 14.524 31.8056C14.5218 31.8101 14.5211 31.8151 14.522 31.82C14.5228 31.8248 14.5251 31.8293 14.5286 31.8328C14.5754 31.8816 14.6262 31.9264 14.6802 31.967C14.6404 31.9566 14.5997 31.9499 14.5586 31.947C14.5372 31.9368 14.5047 31.9741 14.5323 32.0019C14.7267 32.1944 14.9598 32.3429 15.2162 32.4378C15.5485 32.5968 15.8808 32.7558 16.221 32.8921L16.3871 32.9716C16.3881 32.9831 16.3921 32.994 16.3985 33.0034C16.405 33.0128 16.4139 33.0204 16.4242 33.0253C16.4345 33.0302 16.4459 33.0324 16.4573 33.0315C16.4687 33.0307 16.4797 33.0269 16.4892 33.0205L16.5272 33.0386C16.5094 33.1123 16.6209 33.1598 16.6743 33.109C17.0058 33.2686 17.3821 33.3098 17.7413 33.226C17.7964 33.2083 17.7962 33.1113 17.7313 33.1067C17.6023 33.0987 17.4741 33.0815 17.3476 33.0553L17.145 32.9848C17.1494 32.9757 17.1502 32.9653 17.1472 32.9557C17.1442 32.9461 17.1377 32.938 17.1289 32.933L17.0364 32.8888C17.1513 32.9131 17.2677 32.9306 17.3848 32.9409C17.4414 32.9445 17.4767 32.8645 17.4163 32.8385C17.3558 32.8125 17.2444 32.771 17.1555 32.7373C17.6425 32.2355 18.0567 31.6675 18.3857 31.05C18.5238 30.8224 18.6409 30.6082 18.7612 30.381C18.8498 30.4703 18.9394 30.5573 19.0314 30.6394C19.1233 30.7216 19.2139 30.5506 19.1408 30.4716Z" fill="#DB916B"/>
</g>
<path fill-rule="evenodd" clip-rule="evenodd" d="M33.6043 28.6259L33.5993 28.6059C33.5158 28.3829 33.3737 28.187 33.1879 28.0391C33.0625 27.9232 32.9359 27.8098 32.8047 27.7001C32.8402 27.5735 32.8256 27.4383 32.7639 27.3228C32.7022 27.2073 32.5983 27.1206 32.4739 27.0807C32.1671 26.9721 31.8614 26.8552 31.5512 26.7538C31.2918 26.5827 31.0289 26.4187 30.758 26.2656C29.9524 25.8097 29.6815 25.1016 29.1175 24.4089C28.6687 23.8594 28.1862 23.3378 27.6828 22.8415C26.6496 21.8127 25.5352 20.8742 24.4196 19.9382C23.7026 19.3337 22.9606 18.7203 22.0806 18.4197L22.2307 18.9291C22.0231 18.7534 21.6725 18.9557 21.6342 19.231C21.6305 19.3683 21.6625 19.5041 21.7268 19.6249C21.7912 19.7458 21.8858 19.8477 22.0013 19.9206C22.2147 20.0843 22.4743 20.1939 22.6831 20.3671C23.3094 20.887 23.3525 21.8151 23.257 22.6181C23.1988 23.3153 22.993 23.9928 22.6534 24.6051C22.4817 24.9098 22.247 25.1741 21.9652 25.3803C21.6834 25.5864 21.3611 25.7296 21.0201 25.8C20.0443 25.9557 19.082 25.3455 18.0984 25.4505C17.9492 25.4584 17.8028 25.4963 17.6682 25.562C17.5335 25.6277 17.4132 25.7199 17.3145 25.8331C17.0405 26.1924 17.1389 26.7122 17.3357 27.1177C17.7622 27.9942 18.5564 28.6326 19.3783 29.1521C19.929 29.5481 20.571 29.7977 21.2449 29.8778C21.5999 29.8979 21.9691 29.8396 22.2998 29.9714C22.4454 30.0357 22.5824 30.118 22.7075 30.2164C24.4497 31.4523 26.3001 32.5226 28.1356 33.6122C28.4182 33.8213 28.7628 33.9293 29.1146 33.9191C29.4418 33.8292 29.7314 33.6348 29.9396 33.3653C31.0549 32.1986 32.1932 30.996 32.8135 29.5044C32.8414 29.4097 32.8978 29.3259 32.975 29.2645C33.0789 29.1997 33.2148 29.2265 33.3333 29.1922C33.4397 29.1473 33.5261 29.0648 33.576 28.9604C33.626 28.8559 33.6361 28.7369 33.6043 28.6259Z" fill="#C1063D"/>
<mask id="mask1_0_5240" style="mask-type:luminance" maskUnits="userSpaceOnUse" x="17" y="18" width="17" height="16">
<path d="M33.6043 28.6259L33.5993 28.6059C33.5158 28.3829 33.3737 28.187 33.1879 28.0391C33.0625 27.9232 32.9359 27.8098 32.8047 27.7001C32.8402 27.5735 32.8256 27.4383 32.7639 27.3228C32.7022 27.2073 32.5983 27.1206 32.4739 27.0807C32.1671 26.9721 31.8614 26.8552 31.5512 26.7538C31.2918 26.5827 31.0289 26.4188 30.758 26.2656C29.9524 25.8097 29.6815 25.1016 29.1175 24.4089C28.6687 23.8594 28.1862 23.3378 27.6828 22.8415C26.6496 21.8127 25.5352 20.8742 24.4196 19.9382C23.7026 19.3338 22.9606 18.7203 22.0806 18.4197L22.2307 18.9291C22.0231 18.7534 21.6725 18.9557 21.6342 19.231C21.6305 19.3683 21.6625 19.5041 21.7268 19.6249C21.7912 19.7458 21.8858 19.8477 22.0013 19.9206C22.2147 20.0843 22.4743 20.1939 22.6831 20.3672C23.3094 20.887 23.3525 21.8151 23.257 22.6181C23.1988 23.3153 22.993 23.9928 22.6534 24.6051C22.4817 24.9098 22.247 25.1741 21.9652 25.3803C21.6834 25.5864 21.3611 25.7296 21.0201 25.8C20.0443 25.9557 19.082 25.3455 18.0984 25.4505C17.9492 25.4584 17.8028 25.4963 17.6682 25.562C17.5335 25.6277 17.4132 25.7199 17.3145 25.8331C17.0405 26.1924 17.1389 26.7122 17.3357 27.1177C17.7622 27.9942 18.5564 28.6326 19.3783 29.1521C19.929 29.5481 20.571 29.7977 21.2449 29.8778C21.5999 29.8979 21.9691 29.8396 22.2998 29.9714C22.4454 30.0357 22.5824 30.118 22.7075 30.2164C24.4497 31.4523 26.3001 32.5226 28.1356 33.6122C28.4182 33.8213 28.7628 33.9293 29.1146 33.9191C29.4418 33.8293 29.7314 33.6348 29.9396 33.3653C31.0549 32.1986 32.1932 30.996 32.8135 29.5044C32.8414 29.4097 32.8978 29.3259 32.975 29.2645C33.0789 29.1997 33.2148 29.2265 33.3333 29.1922C33.4397 29.1473 33.5261 29.0648 33.576 28.9604C33.626 28.8559 33.6361 28.7369 33.6043 28.6259Z" fill="white"/>
</mask>
<g mask="url(#mask1_0_5240)">
<path fill-rule="evenodd" clip-rule="evenodd" d="M29.0754 33.9033C28.7951 33.4733 28.4271 33.108 27.9956 32.8317C27.9064 32.5174 27.8658 32.191 27.8753 31.8638C27.903 31.7074 27.9086 31.5479 27.8919 31.3901C27.8925 31.3852 27.8915 31.3803 27.8891 31.376C27.8868 31.3716 27.8831 31.3682 27.8787 31.3661C27.8742 31.3639 27.8692 31.3633 27.8644 31.3641C27.8595 31.365 27.8551 31.3673 27.8516 31.3708C27.7598 31.5983 27.6995 31.8372 27.6723 32.0809C27.6439 32.2317 27.6084 32.3851 27.5871 32.5393C27.3324 32.3705 27.079 32.2052 26.8514 32.0347C26.6239 31.8641 26.3901 31.6759 26.1624 31.4936C25.6095 31.3142 25.0179 30.99 24.911 30.4514L24.8896 30.4412C24.197 30.2184 23.4495 29.7933 23.327 29.1532C22.9813 28.9114 22.6211 28.691 22.2485 28.4933L22.0145 28.4459C21.2219 28.3956 20.4167 28.1278 20.2976 27.4013L20.2596 27.3831C20.2846 27.2821 20.3044 27.1798 20.3187 27.0767C20.5837 26.9955 20.8436 26.8982 21.0969 26.7853C21.9212 26.7451 22.7461 26.5877 23.5713 26.5273C23.955 26.4995 24.3343 26.4871 24.7137 26.4866C25.4228 26.5015 26.1323 26.4651 26.8367 26.3776C26.8413 26.3758 26.8452 26.3726 26.8479 26.3684C26.8506 26.3642 26.8519 26.3593 26.8517 26.3544C26.8515 26.3495 26.8498 26.3447 26.8468 26.3408C26.8437 26.3369 26.8396 26.3341 26.8349 26.3327C25.4604 26.2976 24.0968 26.2824 22.7266 26.2201L22.5556 26.2117L22.2018 26.1951C22.953 25.6735 24.0129 24.6654 23.6753 23.8225C23.6686 23.8024 23.6553 23.7851 23.6377 23.7734C23.62 23.7618 23.5989 23.7564 23.5777 23.7582C23.1829 23.8336 23.0218 24.0972 22.7075 24.3579C22.2757 24.701 21.813 25.0026 21.3255 25.259C20.9445 25.452 20.5478 25.612 20.14 25.7372C20.0791 25.6777 19.9998 25.6409 19.915 25.6329C19.8303 25.6249 19.7452 25.6462 19.6739 25.6933C19.5733 25.7626 19.4815 25.8439 19.4005 25.9355C18.9975 25.9894 18.6125 26.1382 18.2768 26.3699C18.0391 26.5498 17.9761 26.9983 18.3176 27.1382C18.4387 27.1833 18.5633 27.2184 18.6903 27.2431C18.6434 27.3411 18.6132 27.447 18.5723 27.5508C18.4727 27.5973 18.3922 27.6772 18.3446 27.7766C18.297 27.8761 18.2854 27.9889 18.3116 28.0956C18.094 28.3635 17.8617 28.619 17.6158 28.861C17.5009 28.9955 17.4374 29.1665 17.4368 29.3433C17.4362 29.5201 17.4986 29.6909 17.6127 29.8249C17.7268 29.9589 17.885 30.0472 18.0589 30.074C18.2327 30.1008 18.4107 30.0642 18.5607 29.9709C18.8811 29.7715 19.1629 29.5152 19.3921 29.2146C19.839 29.5502 20.3265 29.8279 20.843 30.0409C21.4903 30.3388 22.1813 30.5307 22.89 30.6092C23.1403 30.8053 23.3885 31.0121 23.6369 31.2367C24.4028 31.932 25.197 32.5949 26.0193 33.2252C26.7511 33.7868 27.6081 34.6109 28.5514 34.7304C28.654 34.7481 28.7598 34.7349 28.8553 34.6924C28.9507 34.6498 29.0316 34.5798 29.0877 34.4913C29.1438 34.4028 29.1726 34.2996 29.1704 34.195C29.1682 34.0903 29.1352 33.9888 29.0754 33.9033Z" fill="#D02355"/>
</g>
<path fill-rule="evenodd" clip-rule="evenodd" d="M14.0196 15.7052C14.0768 15.4896 14.0559 15.261 13.9606 15.0603C13.8561 14.7169 13.6201 14.4298 13.3043 14.2618C13.2353 14.1897 13.1538 14.1308 13.0637 14.0879C12.9631 14.0268 12.8466 13.9967 12.7288 14.0014C12.611 14.0061 12.4969 14.0453 12.4007 14.1143C12.3781 14.1217 12.3562 14.1308 12.3351 14.1416C12.2545 14.203 12.1875 14.2806 12.1385 14.3695C12.0894 14.4583 12.0595 14.5564 12.0504 14.6574C11.9731 14.6305 11.8945 14.6076 11.8149 14.5887C10.8191 14.3413 9.57577 14.6539 8.62567 15.2741C8.11198 15.9924 7.83562 16.8537 7.83577 17.7358C7.84961 18.0361 8.06523 18.1951 8.22519 18.4155C8.46496 18.7268 8.72558 19.0212 9.00526 19.2968L9.67047 19.9792L9.68708 19.9871L10.3094 20.6372C10.3093 20.6559 10.3158 20.6739 10.3276 20.6881C10.3395 20.7024 10.3559 20.712 10.3742 20.7152L10.3884 20.722L10.4026 20.7289C10.4161 20.7303 10.4298 20.7288 10.4425 20.7242C10.4553 20.7196 10.4669 20.7122 10.4765 20.7025C10.5963 20.5665 10.709 20.4244 10.8143 20.2768L10.8607 20.2227C10.9048 20.2551 10.9513 20.2843 10.9998 20.3098C11.3505 20.5307 11.6753 20.7905 11.9681 21.0843C12.101 21.2272 12.2489 21.3508 12.3876 21.4877L12.4799 21.5935L12.6418 21.7855C12.7323 21.9528 12.8694 22.0898 13.0364 22.1799C13.0897 22.2211 13.1462 22.2579 13.2054 22.2901C13.2175 22.2949 13.2309 22.295 13.2431 22.2905C13.4137 22.3545 13.6487 22.1439 13.7638 22.0374C13.8126 21.9903 13.8601 21.9397 13.9053 21.8879C13.932 21.8745 13.9558 21.8559 13.9752 21.8332C14.4544 21.3237 14.8461 20.738 15.1341 20.1001L15.1578 20.1114C15.2683 20.3376 15.7903 20.5756 15.9964 20.7241C16.0053 20.7284 16.0132 20.7346 16.0197 20.7422C16.0261 20.7498 16.0308 20.7587 16.0336 20.7683C16.0316 20.7845 16.0243 20.7996 16.013 20.8113C15.7902 21.2464 15.591 21.6932 15.4163 22.1498C15.321 22.3978 15.2351 22.6504 15.1567 22.9241C15.1175 23.0669 15.0965 23.5619 15.0059 23.6537C14.713 23.9247 14.4574 24.2516 14.1965 24.5409C13.8017 24.9365 13.4915 25.4087 13.2847 25.9283C13.0679 26.5791 12.9047 27.2465 12.7967 27.9237C12.7706 27.9112 12.3568 27.9775 12.2427 27.9904C11.6875 28.0216 11.1364 28.106 10.5966 28.2424C9.77028 28.1407 8.92337 27.9235 8.10905 27.8393C7.29472 27.755 6.97885 27.2691 6.84718 26.6482C6.72331 26.354 6.52548 26.0975 6.27298 25.9036C6.02877 25.8044 5.77999 25.7147 5.53007 25.6275C5.34881 25.5613 5.37747 25.5868 5.19497 25.5171C5.06681 25.4557 4.90674 25.3087 4.75192 25.3579C4.67218 25.3844 4.41433 25.399 4.36465 25.4663C4.17866 25.7209 3.93652 25.9222 3.73858 26.1652C3.28854 26.734 3.06991 28.1358 3.0041 28.9501C2.98498 29.1729 3.30512 29.3878 3.3663 29.4611C3.60188 29.5411 3.83004 29.6415 4.04827 29.7609C4.58728 30.032 5.14931 30.2548 5.72782 30.4265C6.59346 31.1167 7.86392 31.4485 8.84259 31.811C9.63639 32.1027 10.4507 32.4248 11.2805 32.6838C11.8797 32.8824 12.4642 33.1239 13.0634 33.3224C13.524 33.4753 14.3045 33.8252 14.7907 33.632C15.0168 33.5335 15.2202 33.3888 15.3878 33.2071C15.7149 32.8356 16.0121 32.4387 16.2766 32.0201C16.7997 31.2925 17.3826 30.4643 17.6441 29.5763C18.326 29.2301 18.8354 28.446 19.15 27.8066C19.4546 27.2635 19.6832 26.6811 19.8293 26.076C20.4509 26.1972 21.0422 26.3391 21.6174 26.1915C21.8597 26.211 22.1035 26.1762 22.3312 26.0896C23.4114 25.6608 24.1853 24.1164 24.2964 23.0184C24.3996 22.0165 24.2077 20.5093 23.5478 19.706C22.7488 18.7364 21.3338 17.7129 20.0123 17.6709C19.799 17.6128 19.5812 17.5725 19.3612 17.5502C19.17 17.5292 18.9524 17.5573 18.754 17.527C18.5253 17.4661 18.3175 17.3444 18.1525 17.1746C17.6298 16.7986 17.1282 16.3939 16.65 15.9623C16.4145 15.7352 16.1686 15.4384 15.8882 15.2014C15.8882 15.2014 15.8882 15.2014 15.8739 15.1946C15.7546 15.0905 15.6283 15.0007 15.5043 14.9003L15.4684 14.8655C15.4674 14.8417 15.4573 14.8192 15.4401 14.8028C15.423 14.7864 15.4002 14.7773 15.3764 14.7774C15.3159 14.7104 15.2431 14.6556 15.1619 14.6161L15.1406 14.6059C15.1403 14.5971 15.1377 14.5886 15.133 14.5813C15.1283 14.574 15.1216 14.5681 15.1138 14.5644C15.1059 14.5606 15.0972 14.5591 15.0885 14.56C15.0798 14.5609 15.0716 14.5642 15.0646 14.5695C14.6679 14.93 14.3009 15.322 13.9671 15.7418C13.9855 15.731 14.0031 15.7187 14.0196 15.7052Z" fill="#DCA47A"/>
<mask id="mask2_0_5240" style="mask-type:luminance" maskUnits="userSpaceOnUse" x="3" y="14" width="22" height="20">
<path d="M14.0196 15.7052C14.0768 15.4896 14.0559 15.261 13.9606 15.0603C13.8561 14.7169 13.6201 14.4298 13.3043 14.2618C13.2353 14.1897 13.1538 14.1308 13.0637 14.0879C12.9631 14.0268 12.8466 13.9967 12.7288 14.0014C12.611 14.0061 12.4969 14.0453 12.4007 14.1143C12.3781 14.1217 12.3562 14.1308 12.3351 14.1416C12.2545 14.203 12.1875 14.2806 12.1385 14.3695C12.0894 14.4583 12.0595 14.5564 12.0504 14.6574C11.9731 14.6305 11.8945 14.6076 11.8149 14.5887C10.8191 14.3413 9.57577 14.6539 8.62567 15.2741C8.11198 15.9924 7.83562 16.8537 7.83577 17.7358C7.84961 18.0361 8.06523 18.1951 8.22519 18.4155C8.46496 18.7268 8.72558 19.0212 9.00526 19.2968L9.67047 19.9792L9.68708 19.9871L10.3094 20.6372C10.3093 20.6559 10.3158 20.6739 10.3276 20.6881C10.3395 20.7024 10.3559 20.712 10.3742 20.7152L10.3884 20.722L10.4026 20.7289C10.4161 20.7303 10.4298 20.7288 10.4425 20.7242C10.4553 20.7196 10.4669 20.7122 10.4765 20.7025C10.5963 20.5665 10.709 20.4244 10.8143 20.2768L10.8607 20.2227C10.9048 20.2551 10.9513 20.2843 10.9998 20.3098C11.3505 20.5307 11.6753 20.7905 11.9681 21.0843C12.101 21.2272 12.2489 21.3508 12.3876 21.4877L12.4799 21.5935L12.6418 21.7855C12.7323 21.9528 12.8694 22.0898 13.0364 22.1799C13.0897 22.2211 13.1462 22.2579 13.2054 22.2901C13.2175 22.2949 13.2309 22.295 13.2431 22.2905C13.4137 22.3545 13.6487 22.1439 13.7638 22.0374C13.8126 21.9903 13.8601 21.9397 13.9053 21.8879C13.932 21.8745 13.9558 21.8559 13.9752 21.8332C14.4544 21.3237 14.8461 20.738 15.1341 20.1001L15.1578 20.1114C15.2683 20.3376 15.7903 20.5756 15.9964 20.7241C16.0053 20.7284 16.0132 20.7346 16.0197 20.7422C16.0261 20.7498 16.0308 20.7587 16.0336 20.7683C16.0316 20.7845 16.0243 20.7996 16.013 20.8113C15.7902 21.2464 15.591 21.6932 15.4163 22.1498C15.321 22.3978 15.2351 22.6504 15.1567 22.9241C15.1175 23.0669 15.0965 23.5619 15.0059 23.6537C14.713 23.9247 14.4574 24.2516 14.1965 24.5409C13.8017 24.9365 13.4915 25.4087 13.2847 25.9283C13.0679 26.5791 12.9047 27.2465 12.7967 27.9237C12.7706 27.9112 12.3568 27.9775 12.2427 27.9904C11.6875 28.0216 11.1364 28.106 10.5966 28.2424C9.77028 28.1407 8.92337 27.9235 8.10905 27.8393C7.29472 27.755 6.97885 27.2691 6.84718 26.6482C6.72331 26.354 6.52548 26.0975 6.27298 25.9036C6.02877 25.8044 5.77999 25.7147 5.53007 25.6275C5.34881 25.5613 5.37747 25.5868 5.19497 25.5171C5.06681 25.4557 4.90674 25.3087 4.75192 25.3579C4.67218 25.3844 4.41433 25.399 4.36465 25.4663C4.17866 25.7209 3.93652 25.9222 3.73858 26.1652C3.28854 26.734 3.06991 28.1358 3.0041 28.9501C2.98498 29.1729 3.30512 29.3878 3.3663 29.4611C3.60188 29.5411 3.83004 29.6415 4.04827 29.7609C4.58728 30.032 5.14931 30.2548 5.72782 30.4265C6.59346 31.1167 7.86392 31.4485 8.84259 31.811C9.63639 32.1027 10.4507 32.4248 11.2805 32.6838C11.8797 32.8824 12.4642 33.1239 13.0634 33.3224C13.524 33.4753 14.3045 33.8252 14.7907 33.632C15.0168 33.5335 15.2202 33.3888 15.3878 33.2071C15.7149 32.8356 16.0121 32.4387 16.2766 32.0201C16.7997 31.2925 17.3826 30.4643 17.6441 29.5763C18.326 29.2301 18.8354 28.446 19.15 27.8066C19.4546 27.2635 19.6832 26.6811 19.8293 26.076C20.4509 26.1972 21.0422 26.3391 21.6174 26.1915C21.8597 26.211 22.1035 26.1762 22.3312 26.0896C23.4114 25.6608 24.1853 24.1164 24.2964 23.0184C24.3996 22.0165 24.2077 20.5093 23.5478 19.706C22.7488 18.7364 21.3338 17.7129 20.0123 17.6709C19.799 17.6128 19.5812 17.5725 19.3612 17.5502C19.17 17.5292 18.9524 17.5573 18.754 17.527C18.5253 17.4661 18.3175 17.3444 18.1525 17.1746C17.6298 16.7986 17.1282 16.3939 16.65 15.9623C16.4145 15.7352 16.1686 15.4384 15.8882 15.2014C15.8882 15.2014 15.8882 15.2014 15.8739 15.1946C15.7546 15.0905 15.6283 15.0007 15.5043 14.9003L15.4684 14.8655C15.4674 14.8417 15.4573 14.8192 15.4401 14.8028C15.423 14.7864 15.4002 14.7773 15.3764 14.7774C15.3159 14.7104 15.2431 14.6556 15.1619 14.6161L15.1406 14.6059C15.1403 14.5971 15.1377 14.5886 15.133 14.5813C15.1283 14.574 15.1216 14.5681 15.1138 14.5644C15.1059 14.5606 15.0972 14.5591 15.0885 14.56C15.0798 14.5609 15.0716 14.5642 15.0646 14.5695C14.6679 14.93 14.3009 15.322 13.9671 15.7418C13.9855 15.731 14.0031 15.7187 14.0196 15.7052Z" fill="white"/>
</mask>
<g mask="url(#mask2_0_5240)">
<path fill-rule="evenodd" clip-rule="evenodd" d="M22.0419 26.7C21.8787 26.3414 21.6238 26.033 21.3029 25.8061C21.5399 25.6106 21.7588 25.3939 21.9568 25.1587C22.1844 24.8148 22.3943 24.4594 22.5858 24.0941C22.7058 23.8432 22.8081 23.5868 22.921 23.3324C22.5599 23.9427 22.0577 24.4571 21.4571 24.8315C21.0266 25.1218 20.5112 25.4978 19.9764 25.5914C19.919 25.6717 19.8761 25.7615 19.8495 25.8566C19.8495 25.8566 19.8495 25.8566 19.8415 25.8734C19.8172 25.9397 19.8081 26.0107 19.8151 26.081C19.8171 26.0997 19.8243 26.1175 19.8359 26.1323C19.8475 26.1471 19.863 26.1583 19.8807 26.1646C19.8983 26.1709 19.9175 26.1721 19.9358 26.168C19.9542 26.1639 19.9711 26.1547 19.9845 26.1415C19.9902 26.1295 19.9959 26.1176 20.0005 26.108C20.131 26.2498 20.3761 26.2496 20.5537 26.3052C20.8342 26.3894 21.0972 26.5652 21.3809 26.6246C21.4043 26.6273 21.428 26.6248 21.4503 26.6172C21.4726 26.6096 21.493 26.5971 21.5099 26.5806C21.6204 26.671 21.7414 26.7476 21.8703 26.8088C21.8878 26.8222 21.9089 26.8299 21.9309 26.8308C21.9529 26.8318 21.9747 26.8259 21.9934 26.8141C22.0121 26.8023 22.0268 26.785 22.0354 26.7646C22.0441 26.7442 22.0464 26.7217 22.0419 26.7Z" fill="#DB916B"/>
<path fill-rule="evenodd" clip-rule="evenodd" d="M19.805 25.7002C19.8091 25.6801 19.8058 25.6593 19.7957 25.6416C19.7857 25.6239 19.7696 25.6105 19.7504 25.6038C19.7312 25.5971 19.7102 25.5976 19.6913 25.6053C19.6724 25.6129 19.6568 25.6272 19.6475 25.6454C19.3616 26.1576 19.1682 26.7081 18.8669 27.2159C18.7379 27.4304 18.5969 27.6375 18.4447 27.8362C18.3109 28.0305 18.1687 28.218 18.0266 28.4114C17.8845 28.6047 17.7634 28.7847 17.6365 28.9706C17.6505 28.9899 17.6685 29.0059 17.6893 29.0175C17.71 29.0291 17.733 29.0361 17.7568 29.038C17.7805 29.0398 17.8044 29.0366 17.8268 29.0284C17.8492 29.0202 17.8696 29.0072 17.8866 28.9904C18.7441 28.1615 19.6258 26.8977 19.805 25.7002Z" fill="#DCA47A"/>
<path fill-rule="evenodd" clip-rule="evenodd" d="M15.0129 30.0706C14.9002 30.2456 14.7533 30.3959 14.5812 30.5125C14.4091 30.629 14.2154 30.7094 14.0118 30.7486C13.3527 30.9111 12.6647 30.9087 12.0085 30.7416L12.0227 30.7484C12.5093 31.0226 13.0543 31.1767 13.6131 31.198C13.8864 31.2308 14.1638 31.1842 14.4124 31.0636C14.7832 30.9591 15.0338 30.4476 15.0129 30.0706Z" fill="#DB916B"/>
<path fill-rule="evenodd" clip-rule="evenodd" d="M19.1678 29.1718C19.2464 28.9466 19.2848 28.7095 19.2812 28.4713C19.2802 28.4607 19.277 28.4504 19.2716 28.4411C19.2663 28.4319 19.259 28.4239 19.2503 28.4178C19.2416 28.4117 19.2316 28.4075 19.2211 28.4057C19.2107 28.4038 19.1999 28.4042 19.1895 28.4069C19.1895 28.4069 19.1987 28.3878 19.1925 28.3702C19.194 28.3517 19.1901 28.3332 19.1813 28.317C19.1725 28.3008 19.1591 28.2875 19.1429 28.2789C19.6402 27.5565 19.9737 26.6765 19.9419 25.9566C19.9532 25.9497 19.9649 25.9435 19.977 25.9381C20.1315 25.8652 20.3138 25.8438 20.4661 25.7815C20.7261 25.7098 20.9526 25.5475 21.1051 25.3238C21.1095 25.3151 21.1116 25.3054 21.1112 25.2956C21.1107 25.2859 21.1077 25.2765 21.1024 25.2683C21.0972 25.2602 21.0899 25.2535 21.0812 25.2491C21.0726 25.2447 21.0629 25.2426 21.0533 25.2432C20.7193 25.2889 20.3871 25.4589 20.0548 25.5378C19.7835 25.6047 19.4507 25.7274 19.4851 26.064C19.4864 26.0791 19.4914 26.0937 19.4999 26.1063C19.2426 26.4853 19.1081 26.9555 18.8689 27.3519C18.6155 27.7603 18.3192 28.1404 17.9852 28.4856C17.995 28.0262 17.9063 27.5228 17.6148 27.3334C17.4054 27.198 17.1691 27.3139 16.9593 27.3927L16.8234 27.4451C16.7977 27.4458 16.7722 27.4483 16.7469 27.4526C16.3621 27.6473 15.9761 27.8444 15.5965 28.0768C15.605 28.0915 15.6177 28.1032 15.6329 28.1105C15.6481 28.1178 15.6652 28.1203 15.682 28.1177C15.7348 28.1048 15.7876 28.086 15.8415 28.0707C16.0933 28.0444 16.3593 27.9396 16.5967 27.9005C16.7666 27.8685 16.9383 27.8476 17.1108 27.8381C17.2136 27.8362 17.3163 27.8469 17.4164 27.8698C17.5092 28.1096 17.5346 28.3706 17.49 28.6245C17.4401 28.9178 17.3583 29.2046 17.2871 29.4936C17.1372 29.7155 16.9849 29.9363 16.8163 30.1728C16.5985 30.6394 16.3329 31.0822 16.0238 31.4939C15.6472 32.0126 15.1912 32.4963 14.797 33.0154C14.3916 32.868 13.9745 32.7549 13.5501 32.6772C13.2757 32.6106 12.9868 32.5193 12.6985 32.4636C12.4872 32.3625 12.261 32.2866 12.0371 32.2059C12.4851 32.2623 12.937 32.2821 13.3885 32.2651C12.3634 31.9184 11.3137 31.6488 10.248 31.4586C9.99598 31.3448 9.73761 31.2457 9.47414 31.1617L9.38158 31.1174C8.70962 30.8576 7.92779 30.4982 7.18581 30.4457L7.09325 30.4014C6.87351 30.123 6.98824 29.6699 7.08271 29.3627C7.13672 29.1888 7.20242 29.0088 7.27525 28.8322C7.33848 28.5935 7.43595 28.3652 7.5646 28.1543L7.54799 28.1464C7.61008 28.0335 7.69112 27.9322 7.78751 27.8469C7.82691 27.8268 7.85682 27.7919 7.87068 27.7498C7.88454 27.7077 7.8812 27.6618 7.8614 27.6224C7.8416 27.5829 7.80696 27.5531 7.76511 27.5394C7.72325 27.5257 7.6776 27.5293 7.6382 27.5494C7.57725 27.5654 7.51973 27.5927 7.46852 27.6297C7.39847 27.4889 7.31932 27.353 7.23158 27.2227L7.15697 27.0372C7.05587 26.6968 6.91994 26.368 6.75134 26.0561C6.74245 26.042 6.73048 26.0301 6.71634 26.0213C6.7022 26.0126 6.68626 26.0071 6.66969 26.0054C6.65313 26.0037 6.63637 26.0057 6.62067 26.0114C6.60497 26.0171 6.59074 26.0263 6.57904 26.0383C6.70231 25.9269 6.21051 25.9794 6.20814 25.9783C6.0015 26.0437 5.7873 26.0814 5.5711 26.0905C5.49398 26.0848 5.41638 26.0924 5.34165 26.1129C5.11306 26.1944 4.99194 26.5329 4.93019 26.7412C4.92219 26.7579 4.63548 26.8938 4.59591 26.9278C4.49135 27.0238 4.41108 27.1435 4.36182 27.2768C4.32279 27.4109 4.30534 27.5503 4.31014 27.6896C4.30114 27.8791 4.30651 27.8435 4.15809 28.0075C4.06282 28.28 3.98775 28.5592 3.9335 28.8426C3.94385 28.8883 3.95872 28.9328 3.97787 28.9755C3.93647 29.1411 3.90938 29.3099 3.89689 29.48C3.90801 29.6068 3.94301 29.7301 4.00004 29.8436C4.03297 29.8748 4.06763 29.9041 4.10385 29.9314C4.11451 29.9121 4.12405 29.8921 4.13243 29.8717C4.21422 29.9509 4.3117 30.012 4.41862 30.051C4.52553 30.09 4.63952 30.1061 4.75324 30.0982C4.91226 30.1743 5.07365 30.2515 5.22793 30.3253L5.53173 30.4707C5.63527 30.5403 5.75058 30.5905 5.8721 30.6188C6.0048 30.6712 6.14232 30.7104 6.28272 30.736C7.74597 31.5976 9.44706 32.2059 11.0142 32.8383C12.0805 33.3041 13.1985 33.6419 14.3449 33.8445C14.3582 33.8566 14.3747 33.8645 14.3924 33.8673C14.3995 33.8879 14.4114 33.9066 14.4269 33.922C14.4424 33.9373 14.4613 33.9488 14.482 33.9556C14.5027 33.9624 14.5248 33.9643 14.5464 33.9611C14.568 33.958 14.5886 33.9499 14.6067 33.9375C14.6383 33.9203 14.671 33.9007 14.7013 33.88C14.9261 33.903 15.1521 33.9131 15.3782 33.9101C15.3967 33.9115 15.4153 33.9091 15.4329 33.9033C15.4506 33.8974 15.4669 33.8881 15.481 33.8759C15.4951 33.8637 15.5067 33.8488 15.5151 33.8321C15.5235 33.8155 15.5286 33.7973 15.53 33.7787C15.5314 33.7601 15.5292 33.7414 15.5234 33.7237C15.5177 33.706 15.5085 33.6897 15.4964 33.6756C15.4843 33.6615 15.4696 33.6499 15.453 33.6416C15.4365 33.6332 15.4184 33.6282 15.3999 33.6269L15.2841 33.6067C16.0546 32.9008 16.6751 32.0457 17.1079 31.0934C17.3164 30.7169 17.4557 30.306 17.519 29.8806L17.5247 29.8686C17.664 29.7572 17.779 29.6183 17.8628 29.4607C17.9108 29.4337 17.961 29.4078 18.0101 29.3784C17.8572 29.6784 17.7416 29.9958 17.6658 30.3237C17.663 30.3391 17.6654 30.3549 17.6725 30.3687C17.6795 30.3826 17.6909 30.3937 17.7049 30.4004C17.7189 30.4071 17.7347 30.409 17.7499 30.4058C17.7651 30.4026 17.7789 30.3945 17.7892 30.3828C18.2826 29.9611 18.5388 29.3524 18.7835 28.7618C18.7918 28.848 18.8002 28.9342 18.8003 29.0194C18.8005 29.1957 18.783 29.3724 18.7739 29.5501C18.7064 29.7302 18.6751 29.9219 18.682 30.114C18.6817 30.1177 18.6826 30.1213 18.6844 30.1245C18.6863 30.1277 18.6891 30.1303 18.6924 30.1319C18.6957 30.1335 18.6994 30.134 18.7031 30.1334C18.7067 30.1329 18.7101 30.1312 18.7128 30.1287C18.8205 30.0096 18.8967 29.8652 18.9341 29.7089C19.0444 29.5458 19.1236 29.3636 19.1678 29.1718Z" fill="#DB916B"/>
<path fill-rule="evenodd" clip-rule="evenodd" d="M6.33392 25.8799C6.01267 25.7262 5.68253 25.5918 5.34524 25.4774C5.12323 25.3631 4.88077 25.294 4.63168 25.274C4.59432 25.2972 4.56055 25.3251 4.52441 25.3519L4.50445 25.357C4.41703 25.4307 4.33621 25.5119 4.26292 25.5997C3.93606 25.9008 3.67738 26.2689 3.50456 26.6787C3.22137 27.2043 3.04477 27.7806 2.98504 28.3742C2.93011 28.6609 2.9217 28.9544 2.9601 29.2432C2.96306 29.2579 2.96924 29.2716 2.97818 29.2835C2.98712 29.2954 2.99859 29.3052 3.01178 29.312C3.00959 29.3261 3.00862 29.3404 3.00887 29.3547C3.03956 29.3721 3.07412 29.3816 3.10944 29.3822C3.25326 29.3864 3.1763 29.1206 3.15724 29.0263C3.13818 28.932 3.17107 28.845 3.18375 28.7453C3.21901 28.6537 3.26145 28.565 3.31065 28.4801L3.35337 28.5005C3.39842 28.5042 3.44379 28.5001 3.48753 28.4883C3.49049 28.4839 3.4928 28.4791 3.49439 28.474C3.41614 28.5217 3.26252 28.2515 3.25708 28.2019C3.2526 28.1326 3.26117 28.0629 3.28235 27.9967C3.32323 27.8228 3.40126 27.6597 3.51101 27.5187C3.51263 27.5099 3.51658 27.5017 3.52244 27.4949C3.53435 27.4893 3.54699 27.4854 3.55998 27.4834C3.66912 27.4508 3.78585 27.4559 3.89132 27.4981C3.8024 27.4536 3.72274 27.3925 3.65653 27.3182C3.639 27.2792 3.62842 27.2373 3.62526 27.1946C3.60188 27.0558 3.60458 26.9136 3.63325 26.7755C3.66183 26.7158 3.68927 26.6585 3.71671 26.6011L3.72928 26.5748C3.81258 26.4798 3.91046 26.3987 4.01918 26.3347C4.03306 26.3235 4.04963 26.3163 4.06718 26.3136C4.09302 26.3103 4.11919 26.3156 4.14164 26.3287C4.26134 26.3754 4.38393 26.4145 4.50866 26.4456C4.53714 26.4592 4.74962 26.4845 4.67025 26.376C4.59088 26.2676 4.53233 26.2924 4.41154 26.2523L4.3276 26.2326C4.32444 26.2217 4.31951 26.2114 4.31301 26.2022C4.28304 26.1673 4.26713 26.1274 4.24068 26.0912C4.2704 26.0291 4.29899 25.9693 4.32871 25.9072C4.36689 25.7834 4.44074 25.6737 4.5409 25.5917C4.71112 25.4676 4.85713 25.5404 5.02186 25.6046C5.1866 25.6687 5.36057 25.7196 5.52742 25.7672C5.7842 25.8401 6.04099 25.913 6.29276 25.9659C6.30165 25.9639 6.30997 25.9598 6.3171 25.9541C6.32424 25.9483 6.32999 25.9411 6.33395 25.9328C6.3379 25.9245 6.33996 25.9155 6.33995 25.9063C6.33995 25.8972 6.33788 25.8881 6.33392 25.8799Z" fill="#EDB389"/>
<path fill-rule="evenodd" clip-rule="evenodd" d="M23.4397 19.158C22.861 18.8312 22.28 18.5033 21.7221 18.1453C21.7061 18.1353 21.6933 18.121 21.6849 18.104C21.6766 18.0871 21.673 18.0681 21.6747 18.0492C21.5268 17.9863 21.3749 17.9332 21.2199 17.8903L20.9496 17.7845C20.1734 17.4866 19.3386 17.4513 18.5838 17.0843C17.7483 16.6846 17.0985 16.0066 16.2908 15.5732C16.2755 15.5668 16.2585 15.5654 16.2423 15.5693C16.2261 15.5732 16.2114 15.5821 16.2005 15.5948C16.1896 15.6074 16.1829 15.6232 16.1815 15.6399C16.18 15.6566 16.1838 15.6732 16.1923 15.6876C16.4731 16.106 16.8236 16.4724 17.2287 16.7707C17.3405 16.8861 17.459 16.9948 17.5835 17.0961C17.8468 17.3622 18.1608 17.5724 18.507 17.7142L18.5497 17.7346C18.6895 17.8237 18.8503 17.8744 19.0162 17.8814L19.066 17.9053C18.6373 18.0132 18.2281 18.1892 17.854 18.4266C16.9243 18.9127 16.3905 19.9553 15.9219 20.8616C15.5151 21.6508 14.997 22.7948 15.0933 23.7395C13.7635 24.4218 12.6211 26.4682 12.7061 27.9243C11.9962 27.8917 11.2866 28.0071 10.6218 28.2632C10.6152 28.267 10.61 28.2727 10.6067 28.2795C10.6034 28.2863 10.6023 28.294 10.6035 28.3015C10.3194 28.2465 10.0324 28.2072 9.7439 28.1839C9.47139 28.1298 9.1952 28.0958 8.91754 28.0821C8.54115 27.9737 8.15126 27.9186 7.75914 27.9185C7.75914 27.9185 7.75914 27.9185 7.75342 27.9304C8.1285 28.1279 8.53992 28.2468 8.96287 28.28C9.84899 28.519 10.7969 28.6348 11.6761 28.8822C11.7093 28.8981 11.7354 28.8313 11.7058 28.8201C11.3705 28.6978 11.021 28.5688 10.6634 28.4505L10.7047 28.4497C10.7142 28.4488 10.7233 28.4454 10.7311 28.4399C10.739 28.4344 10.7453 28.4269 10.7494 28.4183C10.7535 28.4096 10.7554 28.4 10.7548 28.3905C10.7541 28.3809 10.7511 28.3717 10.7458 28.3637C11.1202 28.3431 11.4942 28.293 11.8671 28.2453C12.1553 28.2099 12.4521 28.1992 12.7399 28.1402C12.7478 28.1968 12.7533 28.2523 12.7647 28.3077C12.7762 28.3631 12.9573 28.4234 12.9912 28.3221C13.2794 27.488 13.3412 26.6395 13.75 25.8278C14.0813 25.133 14.5627 24.5206 15.1589 24.0352L15.1652 24.0587C15.2381 23.9957 15.3142 23.9343 15.3934 23.8743C15.4115 23.6556 15.4461 23.4385 15.497 23.2249C15.5114 23.077 15.534 22.93 15.5648 22.7846C15.7004 22.2194 15.8974 21.6706 16.1523 21.1481C16.6177 20.1755 17.1125 19.2876 17.9187 18.578C18.5842 18.2048 19.3335 18.01 20.0939 18.0124C20.7704 18.1913 21.4209 18.4562 22.0298 18.8006C22.8222 19.2355 23.311 19.7806 23.9678 20.3709C23.9869 20.3863 24.0105 20.3952 24.035 20.3963C24.0596 20.3973 24.0839 20.3905 24.1045 20.3768C24.125 20.363 24.1407 20.3431 24.1493 20.3199C24.1578 20.2967 24.1588 20.2714 24.1521 20.2477C24.0302 19.8199 23.7818 19.44 23.4397 19.158Z" fill="#EDB389"/>
<path fill-rule="evenodd" clip-rule="evenodd" d="M16.3708 20.1426C16.3759 20.1343 16.3801 20.1255 16.3834 20.1163C16.7005 19.372 17.2227 18.7333 17.8883 18.2756C17.6851 18.3423 17.493 18.4395 17.3186 18.564L17.2486 18.6127C16.78 18.9241 16.3899 19.3408 16.1093 19.8296C16.0821 19.7402 16.0454 19.6522 16.0136 19.5724C15.9818 19.4925 15.9658 19.4467 15.9389 19.381C15.7773 18.8982 15.5568 18.4376 15.2825 18.0097C15.2718 18.0065 15.2618 18.0012 15.2532 17.994C15.2446 17.9869 15.2375 17.9781 15.2324 17.9681C15.0428 17.6816 14.8508 17.394 14.6564 17.1053L14.5904 17.0238L14.5411 16.9561L14.5326 16.9374C14.5285 16.9249 14.5236 16.9127 14.5179 16.901L14.0256 16.1985C13.9911 16.3469 13.9296 16.4877 13.8444 16.614C13.8959 16.6909 13.9435 16.7706 13.9869 16.8525L14.0099 16.8958C14.0913 16.9929 14.166 17.0953 14.2336 17.2025C14.413 17.5402 14.5716 17.8887 14.7085 18.2461C14.7854 18.5061 14.853 18.7733 14.9123 19.0395C15.0732 19.7916 15.1301 20.5629 15.0814 21.3317C15.0872 21.3489 15.0986 21.3637 15.1137 21.3736C15.1288 21.3836 15.1468 21.3882 15.1648 21.3868C15.1829 21.3853 15.2 21.3779 15.2135 21.3656C15.2269 21.3534 15.2359 21.337 15.2391 21.3191C15.2764 21.1536 15.3031 20.9858 15.319 20.817C15.3614 20.8315 15.4073 20.8322 15.4503 20.819C15.4932 20.8058 15.531 20.7794 15.5583 20.7435C15.5634 20.7606 15.5721 20.7763 15.5839 20.7896C15.5957 20.8028 15.6103 20.8133 15.6266 20.8202C15.526 21.0305 15.4124 21.2375 15.3259 21.4487C15.315 21.4744 15.3126 21.5029 15.319 21.53C15.3255 21.557 15.3404 21.5812 15.3617 21.599C15.383 21.6168 15.4095 21.6272 15.4372 21.6286C15.4649 21.63 15.4924 21.6225 15.5156 21.607C15.5255 21.6221 15.5393 21.6342 15.5554 21.6423C15.5716 21.6503 15.5896 21.6539 15.6076 21.6527C15.6256 21.6515 15.643 21.6455 15.6581 21.6354C15.6732 21.6253 15.6853 21.6114 15.6933 21.5951C15.7699 21.435 15.8335 21.2716 15.8983 21.1059C16.0694 20.8031 16.2165 20.4652 16.3708 20.1426Z" fill="#DB916B"/>
</g>
<path fill-rule="evenodd" clip-rule="evenodd" d="M12.7116 19.7192C12.3611 20.0449 11.9883 20.3454 11.5959 20.6185C11.5254 20.5271 11.4353 20.4529 11.3323 20.4013C11.2086 20.3035 11.067 20.2308 10.9155 20.1872C10.9369 20.1692 10.9564 20.149 10.9736 20.1269C10.9941 20.0839 10.9512 20.0457 10.9124 20.0536C10.8577 20.0724 10.8107 20.1087 10.7784 20.1569C10.6839 20.233 10.6051 20.3271 10.5468 20.4337C10.518 20.4769 10.485 20.5172 10.4484 20.554C10.4395 20.5576 10.4312 20.5625 10.4239 20.5687C10.3795 20.577 10.3337 20.5678 10.2962 20.5429L9.07279 19.1617C8.85901 18.9373 8.65731 18.7016 8.46852 18.4556C8.31328 18.2116 8.20462 17.9405 8.14804 17.6562C8.14747 17.6529 8.14611 17.6498 8.14409 17.6471C8.14207 17.6444 8.13945 17.6423 8.13643 17.6408C8.13341 17.6394 8.1301 17.6387 8.12675 17.6388C8.1234 17.6389 8.12013 17.6398 8.11719 17.6414C7.92581 18.0902 8.32511 18.5602 8.59609 18.8778C9.1369 19.5154 9.69399 20.1373 10.2488 20.7639C10.3034 20.7806 10.3597 20.7918 10.4166 20.7972C10.4546 20.7801 10.4913 20.7604 10.5265 20.7382C10.6405 20.5682 10.7635 20.4046 10.8952 20.248C10.9482 20.3262 11.0842 20.359 11.1616 20.4107C11.2389 20.4624 11.315 20.5105 11.3817 20.5601L11.4391 20.611C11.4256 20.6278 11.4169 20.6479 11.4139 20.6692C11.4109 20.6905 11.4137 20.7122 11.422 20.732C11.4419 20.7895 11.4825 20.8372 11.5359 20.8658C11.5449 20.8853 11.5587 20.9021 11.5761 20.9145C11.5935 20.927 11.6138 20.9347 11.6351 20.9369C11.6563 20.9391 11.6778 20.9357 11.6975 20.927C11.7171 20.9184 11.7342 20.9048 11.7471 20.8876C11.9063 20.6895 12.0779 20.5019 12.2609 20.3259C12.3862 20.2165 12.4951 20.0896 12.5842 19.949C12.6368 19.8911 12.6821 19.827 12.7192 19.7581C12.7207 19.7514 12.7207 19.7445 12.7194 19.7379C12.7181 19.7312 12.7154 19.7248 12.7116 19.7192Z" fill="#DB916B"/>
<path fill-rule="evenodd" clip-rule="evenodd" d="M12.4813 21.371C12.4275 21.2709 12.3502 21.1856 12.2561 21.1223C12.2252 21.092 12.1882 21.0687 12.1475 21.0538C12.1069 21.0389 12.0636 21.0328 12.0204 21.0359C12.0164 21.0373 12.0128 21.0395 12.0097 21.0423C12.0066 21.0451 12.0041 21.0485 12.0023 21.0522C12.0005 21.056 11.9994 21.0601 11.9992 21.0643C11.9989 21.0684 11.9995 21.0726 12.0009 21.0766C12.0044 21.1546 12.0848 21.1695 12.1292 21.2231C12.1735 21.2766 12.2692 21.3693 12.3352 21.4509C12.4012 21.5324 12.523 21.479 12.4813 21.371Z" fill="#DB916B"/>
<path fill-rule="evenodd" clip-rule="evenodd" d="M16.0174 15.0959C15.8563 14.8778 15.7045 14.6525 15.5435 14.4463C15.2842 14.1167 15.0575 13.7674 14.8121 13.4268C14.7219 13.3044 14.6308 13.1962 14.5288 13.074C14.2886 12.8463 14.0259 12.6438 13.7446 12.4697C13.5187 12.3322 13.1123 12.1026 12.8548 12.1409C12.8364 12.1438 12.8177 12.1438 12.7994 12.1408C10.0464 11.7986 7.53181 13.7318 5.98364 15.8337C5.79757 16.0823 5.45869 16.4371 5.45986 16.7577L5.46328 16.8298C5.4673 16.9433 5.60732 17.0896 5.67333 17.1711C5.88307 17.4061 6.13002 17.6046 6.40431 17.7587C6.85385 18.0384 7.48446 18.4517 8.02864 18.436C8.09756 18.4352 8.16436 18.4114 8.21855 18.3683C8.01324 17.5477 8.09495 16.371 8.62923 15.6811C8.79739 15.4684 9.00234 15.2879 9.23416 15.1483C9.61317 14.9077 10.0579 14.7941 10.5041 14.8238C10.9502 14.8536 11.3747 15.0251 11.7159 15.3137C11.7678 15.1697 11.8283 15.029 11.8971 14.8924C12.1993 14.4497 12.7827 14.4557 13.2015 14.7265C13.4692 14.9122 13.6841 15.1648 13.825 15.4595C13.899 15.6026 13.9536 15.7551 13.9872 15.9129C14.0205 16.0696 14.0339 16.2299 14.0272 16.3902L14.06 16.3765C14.7807 15.9729 15.5648 15.6973 16.3777 15.562C16.2416 15.4198 16.1208 15.2636 16.0174 15.0959Z" fill="#3B2517"/>
<path fill-rule="evenodd" clip-rule="evenodd" d="M13.4536 22.9903C13.5008 22.8987 13.5538 22.8103 13.6124 22.7256C13.9591 22.1838 14.3783 21.6796 14.7333 21.1388C14.7641 21.0742 14.7962 21.0073 14.8389 20.9485C14.9852 20.6968 15.0928 20.4246 15.1582 20.141C15.253 19.6788 15.2536 19.2026 15.16 18.7411C15.0406 18.2347 14.7455 17.8821 14.4613 17.4642L14.4692 17.6001C14.5742 18.3947 14.4251 19.2035 14.0436 19.9102C13.8523 20.2682 13.5997 20.5897 13.2974 20.86C13.1489 20.9948 12.9872 21.1142 12.8148 21.2164C12.6582 21.3059 12.4362 21.3553 12.3301 21.5101C12.319 21.5273 12.3102 21.5457 12.3038 21.5651C12.2941 21.582 12.2857 21.5995 12.2787 21.6177C12.3006 22.3094 12.8047 22.7738 13.2999 23.1958C13.3146 23.1903 13.3277 23.1816 13.3384 23.1701C13.3813 23.1172 13.418 23.0526 13.4536 22.9903Z" fill="#3B2517"/>
<mask id="mask3_0_5240" style="mask-type:luminance" maskUnits="userSpaceOnUse" x="12" y="17" width="4" height="7">
<path d="M13.4536 22.9903C13.5008 22.8987 13.5538 22.8103 13.6124 22.7256C13.9591 22.1838 14.3783 21.6796 14.7333 21.1388C14.7641 21.0742 14.7962 21.0073 14.8389 20.9485C14.9852 20.6968 15.0928 20.4246 15.1582 20.141C15.253 19.6788 15.2536 19.2026 15.16 18.7411C15.0406 18.2347 14.7455 17.8821 14.4613 17.4642L14.4692 17.6001C14.5742 18.3947 14.4251 19.2035 14.0436 19.9102C13.8523 20.2682 13.5997 20.5897 13.2974 20.86C13.1489 20.9948 12.9872 21.1142 12.8148 21.2164C12.6582 21.3059 12.4362 21.3553 12.3301 21.5101C12.319 21.5273 12.3102 21.5457 12.3038 21.5651C12.2941 21.582 12.2857 21.5995 12.2787 21.6177C12.3006 22.3094 12.8047 22.7738 13.2999 23.1958C13.3146 23.1903 13.3277 23.1816 13.3384 23.1701C13.3813 23.1172 13.418 23.0526 13.4536 22.9903Z" fill="white"/>
</mask>
<g mask="url(#mask3_0_5240)">
<path fill-rule="evenodd" clip-rule="evenodd" d="M13.5171 21.9191C13.5111 21.8967 13.5016 21.8754 13.4889 21.856C13.477 21.8503 13.4889 21.856 13.4889 21.856C13.4993 21.8773 13.5123 21.8972 13.5276 21.9154L13.5171 21.9191Z" fill="#673A22"/>
<path fill-rule="evenodd" clip-rule="evenodd" d="M13.6632 23.6192C13.5076 23.3696 13.3248 23.1383 13.1181 22.9296C13.0505 22.815 12.9863 22.6992 12.9268 22.5797C12.8372 22.4061 12.7593 22.2266 12.6938 22.0424C12.6564 21.9066 12.6311 21.7678 12.6182 21.6274C12.7211 21.5709 12.8226 21.5049 12.9242 21.439C12.9643 21.605 12.9774 21.7728 13.027 21.9375C13.0591 22.0841 13.1196 22.2227 13.205 22.3457C13.177 22.2031 13.1032 22.0708 13.0669 21.9272C13.0166 21.7615 13.0008 21.587 13.0205 21.4146C13.0213 21.4043 13.0204 21.3939 13.0177 21.3839C13.1145 21.3157 13.2088 21.2404 13.3008 21.164C13.3102 21.2478 13.3327 21.3349 13.3432 21.4046C13.3694 21.5357 13.4052 21.6647 13.4502 21.7905C13.4224 21.6657 13.4017 21.5383 13.3845 21.4096C13.3695 21.3104 13.3649 21.2097 13.3707 21.1094C13.4487 21.0439 13.5207 20.9726 13.5892 20.9026C13.5983 20.9926 13.6142 21.0816 13.6367 21.1691C13.6601 21.3073 13.6993 21.4423 13.7534 21.5714L13.7851 21.6453C13.788 21.6492 13.7921 21.6519 13.7967 21.6531C13.8014 21.6542 13.8063 21.6538 13.8106 21.6517C13.815 21.6497 13.8186 21.6463 13.8207 21.642C13.8229 21.6376 13.8235 21.6327 13.8225 21.628C13.7659 21.475 13.7234 21.317 13.6954 21.1561C13.6808 21.0463 13.7036 20.9133 13.6808 20.8026C13.8671 20.6064 14.0278 20.3872 14.1591 20.1504C14.3809 19.7023 14.5241 19.2194 14.5824 18.7231C14.637 18.3528 14.6777 17.9142 14.4738 17.5905C14.4521 17.5567 14.3874 17.5639 14.3845 17.6065C14.3453 17.9872 14.3885 18.3602 14.314 18.7475C14.2481 19.2212 14.1005 19.6803 13.8779 20.104C13.6234 20.5192 13.2768 20.87 12.8654 21.129C12.5283 21.3058 12.2117 21.5197 11.9215 21.7668C11.9078 21.7821 11.8994 21.8014 11.8978 21.8219C11.8962 21.8423 11.9014 21.8627 11.9126 21.8798C11.9237 21.8969 11.9403 21.9097 11.9595 21.9164C11.9788 21.923 11.9998 21.923 12.0191 21.9163C12.1027 21.8895 12.1849 21.8582 12.2652 21.8226C12.2749 21.9689 12.304 22.1132 12.3516 22.2516C12.4075 22.4777 12.5182 22.686 12.674 22.8581C12.6815 22.8641 12.6905 22.8681 12.7 22.8695C12.7095 22.871 12.7193 22.8699 12.7283 22.8665C12.7926 22.9635 12.8633 23.0562 12.9398 23.1438C12.9471 23.1514 12.9569 23.156 12.9674 23.1566C12.9778 23.1573 12.9882 23.154 12.9964 23.1474C13.0638 23.2439 13.1418 23.3324 13.2289 23.4114C13.2782 23.479 13.331 23.5454 13.3861 23.607C13.3904 23.6115 13.3962 23.6144 13.4023 23.615C13.4085 23.6157 13.4148 23.6141 13.4199 23.6106C13.4251 23.6071 13.4289 23.6019 13.4306 23.5959C13.4323 23.5898 13.4319 23.5834 13.4293 23.5777L13.4151 23.5709C13.4735 23.6194 13.5296 23.6668 13.588 23.7094C13.5998 23.7194 13.6152 23.7242 13.6306 23.7228C13.6461 23.7213 13.6604 23.7138 13.6703 23.7019C13.6803 23.6899 13.6852 23.6744 13.6838 23.6589C13.6825 23.6434 13.6751 23.6291 13.6632 23.6192Z" fill="#673A22"/>
</g>
<path fill-rule="evenodd" clip-rule="evenodd" d="M7.7207 17.5985C7.78969 17.241 7.87758 16.8073 7.89439 16.7478C8.0591 16.0514 8.44858 15.4281 9.00197 14.9754C9.06432 14.9291 9.12941 14.8867 9.19689 14.8484C9.20574 14.8383 9.21167 14.8259 9.21404 14.8126C9.19804 14.8461 8.30018 14.8511 8.18166 14.8854C7.77471 15.0449 7.41609 15.3088 7.14178 15.6506C6.98895 15.8272 6.86063 16.0236 6.76032 16.2346C6.57421 16.5115 6.4785 16.8394 6.48656 17.1725C6.50124 17.3707 6.57555 17.5595 6.69966 17.7138C6.82376 17.8681 6.99181 17.9806 7.18154 18.0365L7.19815 18.0445C7.33883 18.0683 7.48129 18.0805 7.62408 18.0809C7.62408 18.0809 7.67151 17.8598 7.7207 17.5985Z" fill="#673A22"/>
<path fill-rule="evenodd" clip-rule="evenodd" d="M10.3909 14.0659C9.80948 13.9181 9.20064 13.9117 8.61479 14.0472C8.2035 14.1904 7.81984 14.4043 7.48104 14.6794C7.3322 14.7827 7.1938 14.9004 7.06787 15.0309C8.18259 14.1458 10.2894 14.0585 11.4348 14.9383C11.4448 14.9029 11.4486 14.866 11.4461 14.8293C11.1754 14.4778 10.809 14.2127 10.3909 14.0659Z" fill="#673A22"/>
<path fill-rule="evenodd" clip-rule="evenodd" d="M11.061 12.7627C11.061 12.7627 11.0411 12.7677 11.0531 12.7793C11.065 12.7908 11.0629 12.8015 11.0901 12.8116C11.0847 12.774 11.0848 12.774 11.061 12.7627Z" fill="#673A22"/>
<path fill-rule="evenodd" clip-rule="evenodd" d="M15.4871 14.9302C14.595 13.5637 12.9782 12.0354 11.2153 12.672C11.6443 12.5647 12.0921 12.5624 12.521 12.6654C12.9499 12.7684 13.3473 12.9737 13.6797 13.2638C14.3049 13.7861 14.8035 14.4387 15.4333 14.9573C15.438 14.9621 15.444 14.9652 15.4506 14.9663C15.4572 14.9674 15.4639 14.9663 15.4699 14.9633C15.4758 14.9603 15.4807 14.9555 15.4838 14.9495C15.4869 14.9436 15.4881 14.9368 15.4871 14.9302Z" fill="#673A22"/>
<path fill-rule="evenodd" clip-rule="evenodd" d="M10.5675 17.5188C10.4905 17.5345 10.4144 17.555 10.3398 17.5802C10.2361 17.5965 10.1348 17.626 10.0383 17.6679C10.029 17.6616 10.0184 17.6576 10.0073 17.6564C9.99619 17.6552 9.98494 17.6567 9.97453 17.6609C9.5221 17.8065 9.13488 18.1082 8.8817 18.5124C8.87261 18.5277 8.86912 18.5458 8.87185 18.5634C8.85402 18.6085 8.85184 18.6581 8.86567 18.7044C9.03414 18.786 9.21242 18.8457 9.39619 18.8818C9.40169 18.8728 9.40629 18.8632 9.40991 18.8532C9.41394 18.8484 9.4167 18.8426 9.41791 18.8364C9.54626 18.575 9.7237 18.3408 9.94042 18.1467C10.1359 17.9333 10.3456 17.7334 10.568 17.5484L10.576 17.5316L10.5675 17.5188Z" fill="#DB916B"/>
<path fill-rule="evenodd" clip-rule="evenodd" d="M12.8477 15.2708C12.7699 15.233 12.6827 15.2187 12.5966 15.2297C12.5106 15.2406 12.4295 15.2764 12.3631 15.3326C12.3175 15.3626 12.2835 15.4075 12.2671 15.4596C12.2507 15.5117 12.2528 15.5679 12.273 15.6184L12.2849 15.6241C12.3558 15.476 12.423 15.3965 12.6033 15.3976C12.6769 15.4077 12.747 15.4352 12.8077 15.4781C12.8684 15.5209 12.9179 15.5777 12.9521 15.6438C13.0296 15.7807 13.0245 15.9986 13.1799 16.07C13.1963 16.0786 13.2146 16.0826 13.233 16.0816C13.2515 16.0806 13.2693 16.0746 13.2847 16.0643C13.6023 15.7846 13.0916 15.3523 12.8477 15.2708Z" fill="#DB916B"/>
<path fill-rule="evenodd" clip-rule="evenodd" d="M12.2261 17.3139C12.2227 17.3105 12.2184 17.3081 12.2138 17.3069C12.2091 17.3058 12.2043 17.3059 12.1997 17.3073C12.1951 17.3088 12.191 17.3114 12.1878 17.315C12.1846 17.3186 12.1824 17.323 12.1815 17.3278C12.1488 17.5911 12.24 17.8579 12.2156 18.1282C12.1696 18.3989 12.092 18.6634 11.9845 18.9162C11.9812 18.9334 11.9836 18.9512 11.9915 18.9668C11.9993 18.9824 12.0121 18.9949 12.0278 19.0024C12.0435 19.01 12.0613 19.012 12.0783 19.0083C12.0954 19.0047 12.1108 18.9954 12.1221 18.982C12.4135 18.6046 12.5828 17.696 12.2261 17.3139Z" fill="#EDB389"/>
<path fill-rule="evenodd" clip-rule="evenodd" d="M12.166 14.8302C12.3001 14.7795 12.4468 14.7753 12.583 14.8182C12.9017 14.8717 13.1948 15.0253 13.4202 15.257C13.2624 15.0273 13.0535 14.8379 12.8099 14.7036C12.499 14.5548 12.3445 14.7071 12.0779 14.8438L12.166 14.8302Z" fill="#EDB389"/>
<path fill-rule="evenodd" clip-rule="evenodd" d="M12.6709 19.9934C12.614 20.0513 12.5535 20.1046 12.493 20.1579C12.2763 20.3792 12.0604 20.6048 11.8454 20.8347C11.8348 20.8456 11.8227 20.8546 11.8093 20.8615L11.7525 20.9254C11.7403 20.9599 11.737 20.9968 11.7426 21.0328C11.7483 21.0689 11.7628 21.1029 11.7849 21.1318C11.8033 21.159 11.8299 21.1796 11.8607 21.1907C11.8916 21.2017 11.9252 21.2027 11.9567 21.1934C12.0025 21.1765 12.0446 21.1507 12.0805 21.1176C12.0998 21.0983 12.1119 21.073 12.1148 21.0459C12.2277 20.8689 12.3316 20.6863 12.4261 20.4988C12.548 20.353 12.632 20.1794 12.6709 19.9934Z" fill="#EDB389"/>
<path fill-rule="evenodd" clip-rule="evenodd" d="M10.6098 17.5156C10.0189 17.5369 9.44791 17.7405 8.97454 18.0987C8.86174 18.2054 8.77424 18.3362 8.71856 18.4813C8.71236 18.4982 8.71054 18.5164 8.71328 18.5341C8.71601 18.5519 8.72321 18.5686 8.73419 18.5828C8.72494 18.6753 8.89398 18.7914 8.97153 18.6963C9.1634 18.431 9.38795 18.1911 9.6398 17.9824C9.75114 17.905 9.86976 17.8388 9.99394 17.7847C10.1815 17.7159 10.3646 17.6684 10.5639 17.5993C10.5694 17.6023 10.5754 17.6042 10.5816 17.6049C10.5878 17.6056 10.594 17.605 10.6 17.6032C10.606 17.6014 10.6116 17.5985 10.6165 17.5946C10.6214 17.5906 10.6254 17.5858 10.6284 17.5803C10.6315 17.5748 10.6334 17.5688 10.6341 17.5625C10.6348 17.5563 10.6342 17.55 10.6325 17.544C10.6308 17.538 10.6279 17.5324 10.624 17.5275C10.6201 17.5226 10.6153 17.5186 10.6098 17.5156Z" fill="#673A22"/>
<path fill-rule="evenodd" clip-rule="evenodd" d="M9.56005 17.9177C9.49981 17.9496 9.44275 17.9872 9.38966 18.03C9.19526 18.1937 9.0355 18.3949 8.91992 18.6216C8.91394 18.6284 8.90998 18.6366 8.90848 18.6455L8.88519 18.6637L8.92079 18.6808C8.92643 18.6852 8.93335 18.6878 8.94055 18.6881C8.94774 18.6884 8.95486 18.6864 8.96088 18.6823C9.14957 18.51 9.32601 18.3245 9.48889 18.1274C9.65871 18.0037 9.8375 17.8929 10.0237 17.796C10.0987 17.7673 10.1736 17.7326 10.2486 17.7039C10.3236 17.6752 10.3953 17.6595 10.4714 17.6284C10.1564 17.6837 9.84986 17.781 9.56005 17.9177Z" fill="#3B2517"/>
<path fill-rule="evenodd" clip-rule="evenodd" d="M10.6606 18.2269C10.3197 18.3479 10.0063 18.5365 9.73897 18.7815L9.71444 18.7962C9.70415 18.8177 9.69271 18.8416 9.68128 18.8655L9.70976 18.8791C9.76624 18.9601 9.84266 19.0251 9.93164 19.0677C10.0206 19.1102 10.1191 19.129 10.2177 19.1221C10.4724 18.9197 10.642 18.6284 10.6924 18.3067C10.6942 18.2918 10.6922 18.2766 10.6866 18.2627C10.6811 18.2487 10.6721 18.2364 10.6606 18.2269Z" fill="white"/>
<mask id="mask4_0_5240" style="mask-type:luminance" maskUnits="userSpaceOnUse" x="9" y="18" width="2" height="2">
<path d="M10.6606 18.2269C10.3197 18.3479 10.0063 18.5365 9.73897 18.7815L9.71444 18.7962C9.70415 18.8177 9.69271 18.8416 9.68128 18.8655L9.70976 18.8791C9.76624 18.9601 9.84266 19.0251 9.93164 19.0677C10.0206 19.1102 10.1191 19.129 10.2177 19.1221C10.4724 18.9197 10.642 18.6284 10.6924 18.3067C10.6942 18.2918 10.6922 18.2766 10.6866 18.2627C10.6811 18.2487 10.6721 18.2364 10.6606 18.2269Z" fill="white"/>
</mask>
<g mask="url(#mask4_0_5240)">
<path fill-rule="evenodd" clip-rule="evenodd" d="M10.1969 18.7451C10.1494 18.6431 10.0378 18.5045 9.9111 18.5437C9.90116 18.5473 9.89229 18.5534 9.88539 18.5614C9.87848 18.5694 9.87377 18.5791 9.87171 18.5895C9.85869 18.5964 9.8482 18.6074 9.84182 18.6207C9.83544 18.634 9.83349 18.6491 9.83627 18.6636C9.825 18.6647 9.81414 18.6685 9.8046 18.6746C9.79506 18.6808 9.78711 18.6891 9.7814 18.699C9.77644 18.7063 9.77259 18.7144 9.76997 18.7229C9.76997 18.7229 9.76997 18.7229 9.75573 18.7161C9.7425 18.7125 9.72842 18.7138 9.716 18.7197C9.70357 18.7255 9.69359 18.7357 9.68785 18.7482C9.67715 18.786 9.67217 18.8252 9.67306 18.8644C9.66901 18.9095 9.63534 18.9433 9.63366 18.9895C9.63366 18.9895 9.63699 19.0557 9.63303 19.0274C9.62908 18.999 9.62274 19.0489 9.6383 19.0651C9.64517 19.0763 9.65508 19.0852 9.66685 19.0908C9.67863 19.0964 9.69178 19.0986 9.70476 19.0969C9.73261 19.0962 9.75979 19.0879 9.78336 19.0729C9.78984 19.0791 9.79816 19.0831 9.80709 19.0842L9.82608 19.0933C9.82241 19.1068 9.82145 19.1209 9.82324 19.1348C9.82503 19.1486 9.82954 19.162 9.83651 19.1741C9.84348 19.1861 9.85277 19.1967 9.86385 19.2051C9.87493 19.2135 9.88757 19.2197 9.90104 19.2231C9.92953 19.2368 9.96689 19.2135 9.98896 19.1918C9.99846 19.1789 10.0054 19.1643 10.0095 19.1488C10.0191 19.1654 10.033 19.1789 10.0498 19.188C10.0667 19.197 10.0857 19.2011 10.1048 19.1999C10.1238 19.1986 10.1422 19.1921 10.1578 19.1809C10.1735 19.1698 10.1857 19.1545 10.1932 19.1368C10.2226 19.0757 10.2382 19.0089 10.2389 18.9411C10.2395 18.8734 10.2252 18.8064 10.1969 18.7451Z" fill="#3B2517"/>
</g>
<path fill-rule="evenodd" clip-rule="evenodd" d="M53.1482 45.1742C53.2812 44.9157 53.3711 44.6373 53.4142 44.35C53.4404 44.3054 53.4543 44.2547 53.4543 44.2031C53.4544 44.1515 53.4407 44.1009 53.4146 44.0565C53.4383 44.0367 53.4566 44.011 53.4677 43.9821C53.4814 43.9395 53.48 43.8935 53.4637 43.8519C53.4474 43.8104 53.4172 43.7759 53.3783 43.7543C53.3457 43.7299 53.3086 43.7122 53.2691 43.7021L53.2474 43.6682C52.7375 43.1306 52.0004 42.7632 51.3839 42.3508C50.919 41.7086 50.4009 41.107 49.835 40.5526C49.6045 39.7786 48.761 39.2311 48.0989 38.8409C47.6505 38.5632 47.1881 38.3087 46.7137 38.0783C45.8097 37.6634 44.7712 37.566 43.9254 37.0233C43.4782 36.7388 43.2724 36.3643 42.9674 35.9776C42.6335 35.5638 42.2461 35.1968 41.8154 34.8861C41.6474 34.7617 41.4625 34.6056 41.265 34.4759C40.9602 34.1576 40.6351 33.8598 40.2915 33.5843C39.7574 33.0903 39.1741 32.6528 38.5507 32.2787C38.3415 32.0998 38.1075 31.9522 37.8561 31.8406C37.788 31.8102 37.7144 31.7939 37.6397 31.7929C37.5453 31.761 37.4428 31.7616 37.3484 31.7946C37.2539 31.8275 37.1729 31.891 37.118 31.975C37.08 32.0334 37.0544 32.0989 37.0426 32.1675C37.0309 32.2362 37.0332 32.3064 37.0496 32.3739C37.057 32.4354 37.082 32.4932 37.1216 32.5405C37.0432 32.5784 36.9741 32.6334 36.9195 32.7015C36.8648 32.7696 36.826 32.849 36.8057 32.9339C36.7855 33.0189 36.7845 33.1072 36.8026 33.1924C36.8208 33.2775 36.8577 33.3575 36.9107 33.4263C36.9141 33.4927 36.927 33.5582 36.9489 33.6208C36.9077 33.7091 36.8884 33.806 36.8927 33.9032C36.897 34.0004 36.9248 34.095 36.9736 34.1788L36.9645 34.1979C36.8692 34.2482 36.7969 34.3337 36.7629 34.4363L36.3558 34.3971C36.258 34.3863 36.159 34.3996 36.0672 34.4359C35.9755 34.4721 35.8938 34.5302 35.8292 34.6052C35.7646 34.6801 35.7191 34.7696 35.6966 34.866C35.6741 34.9623 35.6753 35.0626 35.7 35.1581C35.6557 35.2166 35.6235 35.2834 35.6055 35.3545C35.5875 35.4257 35.5841 35.4997 35.5953 35.572C35.5002 35.5959 35.4143 35.6478 35.3486 35.7211C35.2828 35.7943 35.2404 35.8855 35.2266 35.983C35.1715 35.9857 35.1168 35.9939 35.0632 36.0075C34.9935 35.9697 34.9135 35.9548 34.8347 35.9651C34.7559 35.9754 34.6821 36.0102 34.6238 36.0647C34.5655 36.1192 34.5256 36.1906 34.5097 36.2689C34.4939 36.3472 34.5029 36.4283 34.5355 36.5009C34.5125 36.4904 34.4867 36.4874 34.4618 36.4924C34.437 36.4974 34.4142 36.51 34.3968 36.5286C33.881 37.0336 34.9186 38.0351 35.2624 38.3346C35.8726 38.9001 36.5865 39.3414 37.3648 39.6342C38.0562 40.1705 38.9203 40.5164 39.5883 40.4249C39.9785 40.4925 40.3783 40.4845 40.7663 40.4012C40.8907 40.5308 41.0386 40.6355 41.2021 40.7096C41.3763 40.8516 41.5642 40.9709 41.6952 41.0629C42.0286 41.2988 42.4265 41.5949 42.8505 41.5805C43.013 41.6696 43.199 41.7063 43.3835 41.6857C43.5 41.736 43.619 41.7802 43.7401 41.8182C44.8392 43.034 46.3197 43.8356 47.9379 44.0909C48.3236 44.3518 48.758 44.5655 49.1099 44.775C49.74 45.1528 50.4632 45.6956 51.2112 45.9184C51.4675 46.115 51.7414 46.2874 52.0295 46.4332C52.0707 46.456 52.1165 46.469 52.1635 46.4714C52.2105 46.4737 52.2575 46.4653 52.301 46.4468C52.3444 46.4283 52.3831 46.4001 52.4142 46.3644C52.4452 46.3287 52.4679 46.2864 52.4804 46.2407C52.4978 46.2289 52.5134 46.2146 52.5269 46.1984C52.7884 45.8933 52.9983 45.5473 53.1482 45.1742Z" fill="#DCA47A"/>
<mask id="mask5_0_5240" style="mask-type:luminance" maskUnits="userSpaceOnUse" x="34" y="31" width="20" height="16">
<path d="M53.1482 45.1742C53.2812 44.9157 53.3711 44.6373 53.4142 44.35C53.4404 44.3054 53.4543 44.2547 53.4543 44.2031C53.4544 44.1515 53.4407 44.1009 53.4146 44.0565C53.4383 44.0367 53.4566 44.011 53.4677 43.9821C53.4814 43.9395 53.48 43.8935 53.4637 43.8519C53.4474 43.8104 53.4172 43.7759 53.3783 43.7543C53.3457 43.7299 53.3086 43.7122 53.2691 43.7021L53.2474 43.6682C52.7375 43.1306 52.0004 42.7632 51.3839 42.3508C50.919 41.7086 50.4009 41.107 49.835 40.5526C49.6045 39.7786 48.761 39.2311 48.0989 38.8409C47.6505 38.5632 47.1881 38.3087 46.7137 38.0783C45.8097 37.6634 44.7712 37.566 43.9254 37.0233C43.4782 36.7388 43.2724 36.3643 42.9674 35.9776C42.6335 35.5638 42.2461 35.1968 41.8154 34.8861C41.6474 34.7617 41.4625 34.6056 41.265 34.4759C40.9602 34.1576 40.6351 33.8598 40.2915 33.5843C39.7574 33.0903 39.1741 32.6528 38.5507 32.2787C38.3415 32.0998 38.1075 31.9522 37.8561 31.8406C37.788 31.8102 37.7144 31.7939 37.6397 31.7929C37.5453 31.761 37.4428 31.7616 37.3484 31.7946C37.2539 31.8275 37.1729 31.891 37.118 31.975C37.08 32.0334 37.0544 32.0989 37.0426 32.1675C37.0309 32.2362 37.0332 32.3064 37.0496 32.3739C37.057 32.4354 37.082 32.4932 37.1216 32.5405C37.0432 32.5784 36.9741 32.6334 36.9195 32.7015C36.8648 32.7696 36.826 32.849 36.8057 32.9339C36.7855 33.0189 36.7845 33.1072 36.8026 33.1924C36.8208 33.2775 36.8577 33.3575 36.9107 33.4263C36.9141 33.4927 36.927 33.5582 36.9489 33.6208C36.9077 33.7091 36.8884 33.806 36.8927 33.9032C36.897 34.0004 36.9248 34.095 36.9736 34.1788L36.9645 34.1979C36.8692 34.2482 36.7969 34.3337 36.7629 34.4363L36.3558 34.3971C36.258 34.3863 36.159 34.3996 36.0672 34.4359C35.9755 34.4721 35.8938 34.5302 35.8292 34.6052C35.7646 34.6801 35.7191 34.7696 35.6966 34.866C35.6741 34.9623 35.6753 35.0626 35.7 35.1581C35.6557 35.2166 35.6235 35.2834 35.6055 35.3545C35.5875 35.4257 35.5841 35.4997 35.5953 35.572C35.5002 35.5959 35.4143 35.6478 35.3486 35.7211C35.2828 35.7943 35.2404 35.8855 35.2266 35.983C35.1715 35.9857 35.1168 35.9939 35.0632 36.0075C34.9935 35.9697 34.9135 35.9548 34.8347 35.9651C34.7559 35.9754 34.6821 36.0102 34.6238 36.0647C34.5655 36.1192 34.5256 36.1906 34.5097 36.2689C34.4939 36.3472 34.5029 36.4283 34.5355 36.5009C34.5125 36.4904 34.4867 36.4874 34.4618 36.4924C34.437 36.4974 34.4142 36.51 34.3968 36.5286C33.881 37.0336 34.9186 38.0351 35.2624 38.3346C35.8726 38.9001 36.5865 39.3414 37.3648 39.6342C38.0562 40.1705 38.9203 40.5164 39.5883 40.4249C39.9785 40.4925 40.3783 40.4845 40.7663 40.4012C40.8907 40.5308 41.0386 40.6355 41.2021 40.7096C41.3763 40.8516 41.5642 40.9709 41.6952 41.0629C42.0286 41.2988 42.4265 41.5949 42.8505 41.5805C43.013 41.6696 43.199 41.7063 43.3835 41.6857C43.5 41.736 43.619 41.7802 43.7401 41.8182C44.8392 43.034 46.3197 43.8356 47.9379 44.0909C48.3236 44.3518 48.758 44.5655 49.1099 44.775C49.74 45.1528 50.4632 45.6956 51.2112 45.9184C51.4675 46.115 51.7414 46.2874 52.0295 46.4332C52.0707 46.456 52.1165 46.469 52.1635 46.4714C52.2105 46.4737 52.2575 46.4653 52.301 46.4468C52.3444 46.4283 52.3831 46.4001 52.4142 46.3644C52.4452 46.3287 52.4679 46.2864 52.4804 46.2407C52.4978 46.2289 52.5134 46.2146 52.5269 46.1984C52.7884 45.8933 52.9983 45.5473 53.1482 45.1742Z" fill="white"/>
</mask>
<g mask="url(#mask5_0_5240)">
<path fill-rule="evenodd" clip-rule="evenodd" d="M52.9993 46.6622C52.7235 46.2572 52.2639 46.0167 51.8571 45.7575C50.4941 44.8374 49.0512 44.0419 47.5458 43.3805C46.8307 43.1059 46.1387 42.7748 45.4762 42.3903C44.9017 42.0303 44.4072 41.3326 43.6998 41.2262C43.362 41.1762 43.0179 41.176 42.6846 41.1046C42.377 41.039 42.0842 40.9178 41.8203 40.7469C41.549 40.5701 41.3695 40.3051 41.1181 40.1173C41.205 39.9998 41.2687 39.8667 41.3056 39.7254C41.3631 39.5894 41.3942 39.4438 41.3972 39.2964C41.3972 39.2964 41.3971 39.2964 41.3885 39.2717C41.3981 39.2024 41.3931 39.1319 41.3737 39.0649C41.3212 39.2777 41.211 39.472 41.0555 39.6263C40.8715 39.8011 40.6333 39.9071 40.3812 39.9262C39.9726 39.9025 39.5713 39.8098 39.1941 39.6519C38.7477 39.519 38.3098 39.3595 37.8826 39.1742C37.6595 39.0674 37.4388 38.9618 37.2156 38.8551C37.0609 38.6665 36.9201 38.467 36.7676 38.2736C36.7399 38.2339 36.6696 38.259 36.688 38.3119C36.7334 38.4427 36.7913 38.5687 36.8609 38.6882L36.2243 38.3543C35.6603 38.0639 35.1028 37.6503 34.4866 37.4994C34.4407 37.4966 34.3947 37.5059 34.3533 37.5265C34.3119 37.547 34.2766 37.5781 34.2508 37.6166C34.225 37.6551 34.2097 37.6996 34.2063 37.7458C34.203 37.7919 34.2118 37.8381 34.2318 37.8797C34.575 38.4609 35.2196 38.8632 35.7778 39.2449C36.408 39.6676 37.082 40.0206 37.7883 40.2978C38.1985 40.4653 38.6208 40.6016 39.0516 40.7055C39.055 40.7278 39.0659 40.7484 39.0823 40.7637C39.0988 40.779 39.12 40.7883 39.1424 40.7901C39.2317 40.7919 39.3209 40.7886 39.4098 40.7799C39.8805 40.8715 40.3627 40.8913 40.84 40.8387C40.8472 40.8556 40.8561 40.8717 40.8667 40.8867C41.2508 41.3642 41.8581 41.6371 42.4085 41.8828C42.7451 42.0581 43.1102 42.1721 43.4869 42.2197C43.647 42.4647 43.8623 42.6683 44.1155 42.8141C44.8857 43.3054 45.6979 43.7274 46.5426 44.0752C47.3479 44.4282 48.1602 44.7728 48.9332 45.1749C49.3393 45.3868 49.7639 45.5724 50.1769 45.77C50.4976 45.941 50.7516 46.1477 51.0671 46.2869L51.336 46.4625C51.5585 46.6072 51.7718 46.7709 51.9955 46.9131C51.9695 46.8201 51.91 46.7403 51.8284 46.6893C51.7052 46.648 51.7423 46.4485 51.8655 46.4898C51.974 46.5448 52.0671 46.6259 52.1368 46.7258C52.2065 46.8257 52.2506 46.9414 52.2651 47.0627C52.3725 47.1147 52.4848 47.1557 52.6004 47.185C52.6679 47.2021 52.739 47.1988 52.8049 47.1757C52.8707 47.1526 52.9285 47.1106 52.971 47.0549C53.0135 46.9992 53.0388 46.9323 53.0438 46.8625C53.0489 46.7927 53.0334 46.7231 52.9993 46.6622Z" fill="#DB916B"/>
<path fill-rule="evenodd" clip-rule="evenodd" d="M54.3469 44.0709C54.2041 43.9134 54.0347 43.7827 53.8463 43.6846C53.2596 43.1307 52.5447 42.6742 51.928 42.1647C51.89 42.1466 51.8635 42.1104 51.8301 42.0827C51.8286 42.0695 51.8261 42.0565 51.8225 42.0438C51.2521 40.84 50.1117 39.8157 49.0495 39.0549L48.7255 38.8236C48.7259 38.8057 48.7217 38.7881 48.7135 38.7723C48.7052 38.7566 48.6931 38.7432 48.6783 38.7334C48.4739 38.5885 48.2584 38.4599 48.0339 38.3488C47.5241 37.9958 46.9506 37.7454 46.3451 37.6113C46.0264 37.4521 45.6772 37.3631 45.3208 37.3502C45.2987 37.353 45.2784 37.3637 45.2635 37.3803C45.2485 37.3969 45.2401 37.4183 45.2396 37.4406C44.6477 36.9821 44.0848 36.4871 43.554 35.9587C42.823 35.2918 42.0696 34.6514 41.2939 34.0375C40.0874 33.0844 38.4732 31.6543 36.8714 31.5516C36.8381 31.5403 36.8017 31.5428 36.7701 31.5585C36.7385 31.5743 36.7143 31.6019 36.703 31.6354C36.6916 31.6689 36.6939 31.7055 36.7094 31.7371C36.7249 31.7688 36.7523 31.7929 36.7856 31.8041L36.9019 31.8598C36.8891 31.8589 36.8764 31.863 36.8665 31.8712C36.8566 31.8794 36.8501 31.891 36.8485 31.9038C36.8469 31.9166 36.8502 31.9295 36.8578 31.9398C36.8653 31.9502 36.8766 31.9572 36.8892 31.9594C36.9438 31.9856 37.011 31.9913 37.0691 32.0103C37.0362 32.018 37.0359 32.0796 37.0689 32.0777C37.2113 32.0914 37.3506 32.1273 37.4817 32.1842L38.0757 32.5095C38.216 32.6001 38.3529 32.6921 38.4825 32.7687L39.1827 33.1889L39.2934 33.2624C40.0901 33.8345 40.85 34.4653 41.6016 35.0951C42.3199 35.6971 43.0184 36.3221 43.6891 36.9748C44.123 37.4486 44.6278 37.8516 45.1855 38.1694C45.9316 38.7437 47.0249 39.0495 47.7899 39.4684C48.4379 39.8222 49.0468 40.2434 49.6066 40.7252C49.8477 40.9345 50.0667 41.1597 50.2949 41.3776C50.6615 41.8204 51.0653 42.2307 51.5019 42.604C51.0467 42.3363 50.6035 42.0861 50.1463 41.8468C50.7235 42.2316 51.3157 42.603 51.9125 42.959C52.4352 43.4365 53.026 43.833 53.6656 44.1355C53.828 44.2569 54.0261 44.3208 54.2291 44.317C54.256 44.3137 54.2817 44.3037 54.3037 44.2878C54.3257 44.2719 54.3435 44.2507 54.3552 44.2261C54.3669 44.2016 54.3723 44.1745 54.3709 44.1473C54.3694 44.1202 54.3612 44.0939 54.3469 44.0709Z" fill="#EDB389"/>
<path fill-rule="evenodd" clip-rule="evenodd" d="M38.0369 34.9313C37.9944 34.8246 37.9154 34.7369 37.8141 34.6837C37.7405 34.6485 37.6076 34.5849 37.5271 34.6433C37.5202 34.6474 37.5146 34.6534 37.5111 34.6607C37.5077 34.6679 37.5065 34.676 37.5077 34.684C37.5206 34.7606 37.6347 34.827 37.6954 34.8707C37.7823 34.9275 37.8793 34.967 37.9811 34.9868C37.9888 34.9891 37.9969 34.9892 38.0047 34.9872C38.0124 34.9852 38.0195 34.9811 38.0252 34.9755C38.0309 34.9698 38.035 34.9627 38.037 34.9549C38.0391 34.9472 38.039 34.939 38.0369 34.9313Z" fill="#EDB389"/>
<path fill-rule="evenodd" clip-rule="evenodd" d="M40.9919 36.9C40.3126 36.1434 39.3509 35.5687 38.4555 35.0992C38.3558 35.0515 38.2918 35.1912 38.3834 35.2497C39.2519 35.8121 40.0336 36.4827 40.8858 37.0607C40.9801 37.1381 41.0614 36.9803 40.9919 36.9Z" fill="#EDB389"/>
<path fill-rule="evenodd" clip-rule="evenodd" d="M53.4447 44.67C53.2199 44.3657 52.8231 44.3051 52.4828 44.1628C52.0382 43.9824 51.6524 43.7097 51.216 43.5185C51.2074 43.5169 51.1986 43.5182 51.1908 43.5222C51.183 43.5262 51.1767 43.5326 51.1729 43.5405C51.1691 43.5484 51.1681 43.5574 51.1699 43.5659C51.1716 43.5745 51.1762 43.5822 51.1828 43.5878C51.5325 43.8704 51.906 44.1218 52.2992 44.3393C52.6251 44.5481 52.9844 44.858 53.3878 44.8073C53.4024 44.8048 53.4162 44.7987 53.4278 44.7894C53.4394 44.7802 53.4485 44.7681 53.4542 44.7544C53.4599 44.7406 53.462 44.7257 53.4604 44.7109C53.4587 44.6962 53.4533 44.6821 53.4447 44.67Z" fill="#EDB389"/>
<path fill-rule="evenodd" clip-rule="evenodd" d="M43.7287 38.8732L44.3442 39.1413C44.6801 39.2256 45.0103 39.3219 45.3429 39.4253C44.8418 39.1268 44.2983 38.9064 43.7307 38.7714C43.7307 38.7714 43.7307 38.7714 43.7222 38.7526C43.6495 38.6782 43.5579 38.6252 43.4572 38.5994C43.3587 38.5541 43.2549 38.5212 43.1482 38.5015C43.0525 38.488 42.9719 38.6139 43.0613 38.6831C43.147 38.7485 43.2404 38.8031 43.3394 38.8455C43.4282 38.9022 43.5301 38.9348 43.6354 38.9402C43.655 38.9369 43.6736 38.9292 43.6898 38.9176C43.706 38.906 43.7193 38.8908 43.7287 38.8732Z" fill="#EDB389"/>
<path fill-rule="evenodd" clip-rule="evenodd" d="M38.1022 32.4723C38.1005 32.4532 38.0938 32.4349 38.0829 32.4192C38.072 32.4035 38.0573 32.391 38.0401 32.3827C38.0228 32.3745 38.0038 32.3709 37.9847 32.3722C37.9657 32.3736 37.9473 32.3799 37.9313 32.3905C37.479 32.7262 37.3269 33.2759 37.0772 33.7673C36.7712 34.3701 36.4349 34.9571 36.0696 35.5258C35.6616 36.1529 35.2275 36.7615 34.7635 37.3471C34.4002 37.8017 33.9591 38.1751 33.8036 38.7438C33.795 38.7864 33.7976 38.8305 33.8112 38.8717C33.8248 38.9129 33.8489 38.9497 33.8812 38.9785C33.9134 39.0073 33.9527 39.0271 33.995 39.0358C34.0373 39.0446 34.0813 39.0421 34.1225 39.0285C34.6693 38.7938 34.9627 38.3087 35.3163 37.8377C35.7417 37.2719 36.1551 36.6944 36.5126 36.0873C36.8702 35.4801 37.2424 34.8301 37.5628 34.1788C37.8165 33.6365 38.1818 33.0801 38.1022 32.4723Z" fill="#DB916B"/>
</g>
<path fill-rule="evenodd" clip-rule="evenodd" d="M34.4921 37.9632C34.5525 37.904 34.6094 37.846 34.6663 37.7881C34.9485 37.3867 35.2571 37.0045 35.5899 36.6442L35.958 36.1126C36.292 35.5852 36.6152 35.0498 36.9315 34.5228C37.2479 33.9958 37.5095 33.4367 37.7817 32.8739C37.8514 32.7282 37.92 32.5848 37.9898 32.439C38.0378 32.3387 38.1985 32.0455 38.1985 32.0455C38.1985 32.0455 37.7605 31.6686 37.6081 31.5663C37.5537 31.5345 37.5053 31.4935 37.4649 31.445C37.4027 31.3437 37.3707 31.2265 37.3728 31.1072C37.2623 30.0823 36.6647 29.3501 35.929 28.6809C34.9568 27.7988 33.7226 27.5254 32.5158 27.1154C31.9672 28.8635 31.1467 30.5147 30.0847 32.0075C29.6816 32.6614 29.229 33.2833 28.731 33.8677C29.4789 34.3839 30.1954 34.9444 30.8767 35.5462C31.3171 35.845 31.7787 36.1422 32.2273 36.442C32.958 36.9267 33.684 37.415 34.3996 37.9189L34.4921 37.9632Z" fill="#4D5B6B"/>
<mask id="mask6_0_5240" style="mask-type:luminance" maskUnits="userSpaceOnUse" x="28" y="27" width="11" height="11">
<path d="M34.4921 37.9632C34.5525 37.904 34.6094 37.846 34.6663 37.7881C34.9485 37.3867 35.2571 37.0045 35.5899 36.6442L35.958 36.1126C36.292 35.5852 36.6152 35.0498 36.9315 34.5228C37.2479 33.9958 37.5095 33.4367 37.7817 32.8739C37.8514 32.7282 37.92 32.5848 37.9898 32.439C38.0378 32.3387 38.1985 32.0455 38.1985 32.0455C38.1985 32.0455 37.7605 31.6686 37.6081 31.5663C37.5537 31.5345 37.5053 31.4935 37.4649 31.445C37.4027 31.3437 37.3707 31.2265 37.3728 31.1072C37.2623 30.0823 36.6647 29.3501 35.929 28.6809C34.9568 27.7988 33.7226 27.5254 32.5158 27.1154C31.9672 28.8635 31.1467 30.5147 30.0847 32.0075C29.6816 32.6614 29.229 33.2833 28.731 33.8677C29.4789 34.3839 30.1954 34.9444 30.8767 35.5462C31.3171 35.845 31.7787 36.1422 32.2273 36.442C32.958 36.9267 33.684 37.415 34.3996 37.9189L34.4921 37.9632Z" fill="white"/>
</mask>
<g mask="url(#mask6_0_5240)">
<path fill-rule="evenodd" clip-rule="evenodd" d="M35.2874 37.7886C34.3913 36.8695 33.2591 36.1633 32.1883 35.469C32.1646 35.4576 32.471 34.6586 32.4949 34.5966C32.6082 34.2692 32.7862 33.9678 33.018 33.7105C33.0058 33.6811 32.9682 33.6866 32.9427 33.7155C32.5166 34.0696 32.3328 34.6307 32.0273 35.0924C32.0017 35.1377 31.967 35.1771 31.9253 35.208C31.9039 35.2228 31.8789 35.2313 31.8531 35.2324C31.8272 35.2336 31.8016 35.2274 31.7792 35.2145C31.6962 35.1748 31.7284 35.0463 31.7661 34.9615L32.2088 33.89C32.0167 34.0494 31.8495 34.2366 31.7126 34.4455C31.6422 34.5499 31.5766 34.6565 31.5146 34.7678C31.4526 34.8791 31.4583 34.9464 31.3496 34.9238C31.1954 34.8571 31.0547 34.7629 30.9342 34.6458C30.65 34.4318 30.3875 34.1902 30.1506 33.9243C30.1075 33.8802 29.7214 33.4253 29.6498 33.5262C30.2539 32.6638 30.7698 31.7428 31.1897 30.7772C31.6862 29.6845 32.554 28.4316 32.5772 27.2065C32.5786 27.0573 32.3793 27.0472 32.3113 27.1526C31.6475 28.2475 31.1425 29.4919 30.5892 30.6484C30.1079 31.5683 29.5596 32.4514 28.9488 33.2906C28.8361 33.2638 28.7183 33.2673 28.6071 33.3007C28.4959 33.3341 28.3953 33.3962 28.3152 33.4808C27.9798 33.9076 28.2302 34.3475 28.5554 34.6676C28.8776 35.0101 29.2585 35.2917 29.68 35.4993C29.7373 35.5238 29.7973 35.5417 29.8587 35.5525C30.3463 35.8563 30.8628 36.124 31.3351 36.4233C31.4742 36.5104 31.6098 36.5988 31.7443 36.6896C31.7318 36.7159 31.718 36.7446 31.7221 36.7788C31.7261 36.813 31.7458 36.7901 31.7434 36.789C31.7411 36.7879 31.7663 36.7412 31.7777 36.7173C32.0979 36.9322 32.4122 37.153 32.7312 37.3703C33.0126 37.5819 33.3536 37.6988 33.7059 37.7045C33.9381 37.9046 34.2262 38.0281 34.5313 38.0582C34.5876 38.0543 34.6402 38.0282 34.6775 37.9855C34.7149 37.9428 34.734 37.8871 34.7306 37.8306L34.7267 37.8023C34.7532 37.8188 34.7754 37.8415 34.7913 37.8684C34.7931 37.8736 34.7962 37.8782 34.8003 37.8818C34.8044 37.8854 34.8094 37.8879 34.8147 37.889C34.8201 37.8901 34.8257 37.8897 34.8309 37.888C34.8361 37.8863 34.8408 37.8833 34.8445 37.8792L34.8547 37.8577C34.8585 37.8544 34.8615 37.8503 34.8637 37.8458C34.8659 37.8413 34.8671 37.8364 34.8673 37.8314C34.899 37.8589 34.9333 37.8832 34.9697 37.9039C34.9778 37.9097 34.9878 37.912 34.9976 37.9104C35.0074 37.9087 35.0162 37.9033 35.022 37.8951C35.0279 37.887 35.0302 37.8769 35.0287 37.8671C35.0271 37.8572 35.0217 37.8485 35.0136 37.8427L34.8925 37.6995C34.9268 37.7262 34.9634 37.7496 35.0019 37.7695C35.008 37.7733 35.0149 37.7752 35.0221 37.7751C35.0292 37.775 35.0361 37.7728 35.042 37.7688C35.048 37.7648 35.0526 37.7592 35.0554 37.7526C35.0583 37.746 35.0591 37.7388 35.0579 37.7317C35.1092 37.7709 35.1617 37.8136 35.2164 37.8516C35.225 37.8597 35.2363 37.8643 35.2481 37.8645C35.26 37.8646 35.2714 37.8603 35.2803 37.8524C35.2892 37.8446 35.2948 37.8337 35.2961 37.8219C35.2975 37.81 35.2943 37.7982 35.2874 37.7886Z" fill="#233645"/>
</g>
<path fill-rule="evenodd" clip-rule="evenodd" d="M36.1362 30.2777C36.4268 30.7531 36.6156 31.2844 36.6906 31.838C36.9692 31.0727 36.515 30.0772 36.0526 29.4771C35.5174 28.8247 34.8077 28.3395 34.0064 28.0782C34.5177 28.3548 34.9711 28.7272 35.3423 29.1755C35.6395 29.518 35.9052 29.8869 36.1362 30.2777Z" fill="#67707A"/>
<path fill-rule="evenodd" clip-rule="evenodd" d="M54.6692 50.1277C54.8347 49.569 54.9521 48.9974 55.02 48.419C55.0645 47.9969 55.5238 47.4208 55.7257 47.0476C56.0141 46.5119 56.265 45.9569 56.4767 45.3865C56.5595 45.1648 56.9407 44.6424 56.7831 44.4231C56.6595 44.2698 56.4928 44.1573 56.3046 44.1002C55.9653 43.6999 55.3435 43.7255 54.8371 43.7475L54.6519 43.7382C54.58 43.7361 54.5033 43.7258 54.4302 43.7261C54.2235 43.6888 54.0134 43.6706 53.8056 43.6416C53.7143 43.6233 53.6215 43.6133 53.5283 43.6117L53.4124 43.5856C53.3951 43.583 53.3775 43.5872 53.3631 43.5973C53.4968 44.1164 53.1185 44.7606 52.8713 45.1738C52.563 45.69 52.3209 46.2144 51.9144 46.6189C52.0036 46.7136 52.0698 46.8276 52.1079 46.9523C52.1418 47.0155 52.1757 47.0787 52.205 47.1456L52.238 47.2289C52.2369 47.3886 52.2464 47.5481 52.2662 47.7064C52.3245 48.1454 52.3909 48.5736 52.4833 49.0084C52.4961 49.0553 52.5024 49.1037 52.5019 49.1524C52.4949 49.2291 52.4757 49.3041 52.4451 49.3748C52.3262 49.7026 52.2724 50.0528 52.1405 50.3773C52.0086 50.7018 51.7307 50.8801 51.5808 51.1814C51.4839 51.2449 51.4129 51.3413 51.3809 51.4528C51.3729 51.4806 51.3689 51.5094 51.3692 51.5382C51.3469 51.6069 51.3427 51.6802 51.357 51.7508C51.3712 51.8214 51.4034 51.887 51.4505 51.9413C51.4927 51.9845 51.5378 52.0247 51.5854 52.0616L51.6139 52.0753C51.6354 52.0696 51.6581 52.0721 51.6777 52.0823C51.982 52.2243 52.2934 52.3507 52.6106 52.4611C52.8023 52.49 52.9978 52.4841 53.1878 52.4436C53.2837 52.3955 53.3772 52.3404 53.445 52.3082L53.4593 52.315C53.757 52.1129 54.0096 51.8506 54.201 51.5452C54.4043 51.0896 54.5612 50.6146 54.6692 50.1277Z" fill="#C1063D"/>
<path fill-rule="evenodd" clip-rule="evenodd" d="M55.4667 51.0086C55.6218 50.4954 55.7143 49.9729 55.8375 49.4533C56.0075 48.6579 56.2603 47.8822 56.5918 47.139C56.9569 46.4317 57.2768 45.702 57.5496 44.9543C57.5564 44.9095 57.5488 44.8637 57.5277 44.8237C57.5067 44.7838 57.4734 44.7517 57.4327 44.7322C57.3921 44.7128 57.3462 44.707 57.3019 44.7157C57.2575 44.7244 57.2171 44.7471 57.1864 44.7806C56.3999 45.8947 55.7613 47.1065 55.2868 48.3852C55.0642 49.0334 54.9388 49.7223 54.7694 50.3871C54.6797 50.7975 54.5539 51.1991 54.3935 51.5875C54.3122 51.7511 54.22 51.9091 54.1176 52.0604C53.9909 52.1789 53.8727 52.3162 53.7538 52.4062C53.6956 52.4489 53.6343 52.4873 53.5705 52.5211C53.5585 52.5372 53.5424 52.5498 53.5239 52.5575C53.4148 52.5977 53.3025 52.6284 53.1883 52.6495C53.0729 52.7072 52.9458 52.7369 52.8172 52.7362C52.77 52.7416 52.7225 52.7405 52.6757 52.7331L52.5404 52.6684C52.2479 52.588 51.9647 52.4771 51.6954 52.3375L51.6719 52.3439C51.5468 52.331 51.4557 52.3873 51.4597 52.5801C51.4614 52.606 51.4658 52.6317 51.4726 52.6567C51.872 52.8027 52.2598 52.9785 52.6328 53.1825C52.7438 53.2137 52.8573 53.2355 52.972 53.2478C52.972 53.2478 52.972 53.2478 52.9919 53.2427C53.103 53.2567 53.2149 53.2632 53.3269 53.262C53.6203 53.2591 53.91 53.1923 54.176 53.0662C54.4506 52.9184 54.6717 52.6868 54.8073 52.4051C55.0827 51.9679 55.3041 51.4989 55.4667 51.0086Z" fill="#D02355"/>
<path fill-rule="evenodd" clip-rule="evenodd" d="M54.3314 50.48C53.7858 50.401 52.8024 50.4385 52.894 49.6131C52.9521 49.2536 52.9661 48.8885 52.9357 48.526C52.8873 48.1445 52.8081 47.7678 52.6988 47.3995C52.6454 47.1925 52.5766 46.9898 52.4931 46.7931C52.3956 46.636 52.3164 46.468 52.2572 46.2926C52.2533 46.2702 52.2216 46.2755 52.2219 46.2992C52.2237 46.5027 52.3449 46.6517 52.4181 46.8218C52.5186 47.0832 52.5997 47.3516 52.6609 47.6251C52.8463 48.227 52.9042 48.8619 52.8309 49.4889C52.7873 49.8117 52.7727 50.1042 53.0738 50.3041C53.4456 50.5496 53.8989 50.639 54.3372 50.5532C54.3735 50.5442 54.3692 50.4863 54.3314 50.48Z" fill="#D02355"/>
<path fill-rule="evenodd" clip-rule="evenodd" d="M56.8119 44.6982C56.8311 44.6369 56.8428 44.5734 56.8468 44.5094C56.8548 44.2489 56.598 44.0966 56.3892 43.9967C56.2563 43.9331 56.1289 43.8458 55.9949 43.7905C55.7465 43.6843 55.4826 43.6185 55.2131 43.5956C54.8887 43.5666 54.5632 43.5518 54.2365 43.5336C53.9992 43.4987 53.7594 43.4822 53.5193 43.4841C53.4513 43.4623 53.3805 43.4502 53.3091 43.4481C53.3445 43.5397 53.3662 43.6362 53.3734 43.7343C53.3654 43.751 53.3728 43.7781 53.3743 43.7994C54.0889 43.8249 54.7978 43.9325 55.4872 44.1202C55.5525 44.1366 55.617 44.1566 55.6801 44.1802C55.879 44.2455 56.0731 44.3246 56.261 44.417C56.4376 44.5222 56.6064 44.6402 56.7658 44.7701C56.7842 44.7482 56.7996 44.724 56.8119 44.6982Z" fill="#D7DEE9"/>
</g>
<defs>
<clipPath id="clip0_0_5240">
<rect width="60" height="20" fill="white" transform="translate(8.63184 10) rotate(25.5688)"/>
</clipPath>
</defs>
</svg>
