<svg width="28" height="35" viewBox="0 0 28 35" fill="none" xmlns="http://www.w3.org/2000/svg">
<path fill-rule="evenodd" clip-rule="evenodd" d="M17.5473 4.72651C18.7257 5.19551 19.0862 6.82885 19.568 7.35385C20.0498 7.87885 20.7393 8.05735 21.1208 8.05735C23.1485 8.05735 24.7923 9.70118 24.7923 11.7277V18.4885C24.7923 21.2068 22.5873 23.4118 19.869 23.4118H8.13232C5.41282 23.4118 3.20898 21.2068 3.20898 18.4885V11.7277C3.20898 9.70118 4.85282 8.05735 6.88048 8.05735C7.26082 8.05735 7.95032 7.87885 8.43332 7.35385C8.91515 6.82885 9.27449 5.19551 10.4528 4.72651C11.6323 4.25751 16.369 4.25751 17.5473 4.72651Z" fill="#C1063D"/>
<path fill-rule="evenodd" clip-rule="evenodd" d="M20.4121 11.0833H20.4226H20.4121Z" fill="#C1063D"/>
<path d="M20.4121 11.0833H20.4226" stroke="white" stroke-width="1.34538" stroke-linecap="round" stroke-linejoin="round"/>
<path fill-rule="evenodd" clip-rule="evenodd" d="M17.7087 15.316C17.7087 13.2673 16.0485 11.6072 13.9998 11.6072C11.9512 11.6072 10.291 13.2673 10.291 15.316C10.291 17.3647 11.9512 19.0248 13.9998 19.0248C16.0485 19.0248 17.7087 17.3647 17.7087 15.316Z" fill="#C1063D" stroke="white" stroke-width="1.34538" stroke-linecap="round" stroke-linejoin="round"/>
<ellipse cx="14.4856" cy="32.2022" rx="2.22875" ry="2.20215" fill="#C1063D"/>
</svg>
