<svg width="32" height="32" viewBox="0 0 32 32" fill="none" xmlns="http://www.w3.org/2000/svg">
<rect width="32" height="32" rx="5" fill="#EEEEEE"/>
<path d="M9.33333 19.3333C11.1743 19.3333 12.6667 17.8409 12.6667 16C12.6667 14.159 11.1743 12.6666 9.33333 12.6666C7.49238 12.6666 6 14.159 6 16C6 17.8409 7.49238 19.3333 9.33333 19.3333Z" fill="black"/>
<path d="M22.6654 26C24.5063 26 25.9987 24.5077 25.9987 22.6667C25.9987 20.8258 24.5063 19.3334 22.6654 19.3334C20.8244 19.3334 19.332 20.8258 19.332 22.6667C19.332 24.5077 20.8244 26 22.6654 26Z" fill="black"/>
<path d="M12.3105 17.4883L19.6661 21.1661" stroke="black" stroke-linecap="round" stroke-linejoin="round"/>
<path d="M22.6654 12.6667C24.5063 12.6667 25.9987 11.1743 25.9987 9.33333C25.9987 7.49238 24.5063 6 22.6654 6C20.8244 6 19.332 7.49238 19.332 9.33333C19.332 11.1743 20.8244 12.6667 22.6654 12.6667Z" fill="black"/>
<path d="M12.3105 14.5111L19.6661 10.8334" stroke="black" stroke-linecap="round" stroke-linejoin="round"/>
</svg>
