<svg width="30" height="29" viewBox="0 0 30 29" fill="none" xmlns="http://www.w3.org/2000/svg">
<path fill-rule="evenodd" clip-rule="evenodd" d="M1.12988 27.621C1.12988 28.2461 1.62923 28.7588 2.2392 28.7588H7.99353L9.23357 27.8377L10.492 28.7588H13.2217L14.1584 27.8377L15.0968 28.7588H16.0352L16.9736 27.8377L17.9119 28.7588H21.0405C21.6504 28.7588 22.1498 28.2461 22.1498 27.621V26.4717V26.098L11.3622 24.1191L1.12988 26.098V27.621Z" fill="#C1063E"/>
<path fill-rule="evenodd" clip-rule="evenodd" d="M15.1401 4.83189L21.6723 3.12873C21.7226 3.12873 21.7712 3.12046 21.8181 3.10891C22.0376 3.04606 22.1985 2.84435 22.1985 2.60952V0.519266C22.1985 0.233188 21.9623 0 21.6724 0H7.75735C7.46746 0 7.22949 0.233188 7.22949 0.519266V2.40442L15.1401 4.83189Z" fill="#F5A96C"/>
<path fill-rule="evenodd" clip-rule="evenodd" d="M0.526141 5.53328L7.48447 7.72518L14.4428 5.53328C14.4914 5.53328 14.5417 5.52665 14.5869 5.51346C14.8064 5.4506 14.9689 5.25054 14.9689 5.01407V3.12885V2.92381C14.9689 2.63773 14.731 2.40454 14.4428 2.40454H7.22895H0.526141C0.236244 2.40454 0 2.63773 0 2.92381V5.01407C0 5.29024 0.222874 5.51844 0.499344 5.53333H0.526141V5.53328Z" fill="#FFBC85"/>
<path fill-rule="evenodd" clip-rule="evenodd" d="M23.2638 24.4494V26.0979H7.05992C4.93711 25.1412 3.56922 24.5444 1.48836 21.3273C1.60008 19.0889 1.60955 16.9294 1.48721 14.593C1.47717 14.4029 1.4665 14.2115 1.45467 14.0184C1.44165 13.8107 1.42805 13.6013 1.4133 13.3901C1.24896 11.055 0.954585 8.51329 0.5 5.53349H14.4433C14.4936 5.53349 14.542 5.52647 14.5876 5.51367C14.9695 6.07603 19.4397 17.3307 23.2236 23.694C23.2431 23.7266 23.2319 23.7716 23.2355 23.8112C23.2538 24.0095 23.2638 24.2213 23.2638 24.4494Z" fill="#FDE588"/>
<path fill-rule="evenodd" clip-rule="evenodd" d="M1.48847 21.3274C1.41307 22.8553 1.29073 24.4181 1.12988 26.0982H7.06015C6.47536 23.6226 4.3405 21.3274 1.48847 21.3274Z" fill="#FFBC85"/>
<path fill-rule="evenodd" clip-rule="evenodd" d="M29.38 22.0448V23.8112L25.7504 25.1415L22.1207 23.8112C22.1178 23.7716 22.1142 23.7336 22.1089 23.6951C22.1089 23.6939 22.1089 23.6939 22.1089 23.6939C21.578 19.0802 15.9391 22.7361 13.9771 19.0731C13.4958 18.1754 13.2901 16.3168 13.4125 13.7914C13.4433 13.1707 13.4923 12.5103 13.5633 11.8126C13.5774 11.6727 13.5922 11.5314 13.6082 11.3886C13.6247 11.2404 13.6419 11.0911 13.6596 10.94C13.8582 9.29605 14.165 7.47483 14.5871 5.53168C14.8064 5.46866 14.969 5.2686 14.969 5.03235V3.14873H21.6719C21.7222 3.14873 21.7706 3.14233 21.8174 3.12891C21.1766 6.07779 20.8035 8.74139 20.6676 10.9412C20.6581 11.0923 20.6498 11.2416 20.6427 11.3886C20.6357 11.5333 20.6297 11.675 20.625 11.8151C20.5446 14.1234 20.7539 15.8239 21.2073 16.6709C23.267 20.5152 29.38 16.2952 29.38 22.0448Z" fill="#FDE588"/>
<path fill-rule="evenodd" clip-rule="evenodd" d="M20.2627 28.7589H21.0402C21.6502 28.7589 22.1496 28.2463 22.1496 27.6212V26.4719V26.0981H20.2627V26.4719V28.7589Z" fill="#6A5C69"/>
<path fill-rule="evenodd" clip-rule="evenodd" d="M19.5642 3.14866C18.8838 6.2873 18.5068 9.10181 18.3962 11.3772C18.3945 11.3805 18.3945 11.3855 18.3945 11.3888H20.6433C20.7539 9.10674 21.1326 6.28062 21.818 3.12878C21.8163 3.12878 21.8146 3.12878 21.8129 3.13043C21.7677 3.14198 21.7208 3.1486 21.6722 3.1486H19.5642V3.14866Z" fill="#FDD76F"/>
<path fill-rule="evenodd" clip-rule="evenodd" d="M18.3945 11.3887C18.2721 13.9138 18.8536 16.9764 19.3345 17.8743C21.3956 21.7191 27.1315 17.8693 27.1315 23.6208V23.8109H29.3803V22.0448V22.0432C29.3786 16.2951 23.2674 20.5152 21.2079 16.6705C20.8158 15.9395 20.6063 14.5703 20.608 12.7232C20.608 12.3015 20.6197 11.8567 20.6432 11.3887H18.3945Z" fill="#FDD76F"/>
<path d="M20.6678 10.9411C20.6584 11.0922 20.6501 11.2415 20.643 11.3885C20.6359 11.5332 20.6299 11.6749 20.6252 11.8149H13.6084C13.593 11.8149 13.5783 11.8144 13.5634 11.8126C13.34 11.7905 13.165 11.6038 13.165 11.3774C13.165 11.1354 13.3637 10.9399 13.6084 10.9399H20.643C20.6513 10.9399 20.6596 10.9399 20.6678 10.9411Z" fill="#C1063E"/>
<path fill-rule="evenodd" clip-rule="evenodd" d="M22.1492 24.4493V26.0979H20.2629L20.2227 24.6675C20.3262 21.5786 14.0524 23.7848 12.0903 20.1185C11.6369 19.2702 11.4277 16.6352 11.5081 14.219C11.5128 14.072 11.5187 13.9261 11.5258 13.7815H13.4127C13.4056 13.9297 13.3997 14.0755 13.395 14.219C13.3152 16.5232 13.5244 18.2214 13.9772 19.0684C15.9393 22.7343 21.5782 19.0766 22.109 23.6939L22.1209 23.8111C22.1392 24.0094 22.1492 24.2212 22.1492 24.4493Z" fill="#FDD76F"/>
<path fill-rule="evenodd" clip-rule="evenodd" d="M14.5869 5.51367C14.1258 7.63824 13.8024 9.61468 13.6079 11.3776C13.5311 12.0677 13.4743 12.7251 13.4365 13.3452C13.4271 13.4928 13.4194 13.6381 13.4123 13.7816H11.5254C11.5325 13.6381 11.5408 13.4922 11.5496 13.3441C11.5881 12.724 11.6442 12.0677 11.7211 11.3776C11.9155 9.62114 12.2371 7.64997 12.6947 5.53355H14.4427C14.4929 5.53349 14.5414 5.52653 14.5869 5.51367Z" fill="#FDD76F"/>
<path d="M13.437 13.3451C13.4275 13.4927 13.4198 13.638 13.4128 13.7815C13.4057 13.9297 13.3997 14.0755 13.395 14.219H7.24769C6.69969 14.219 6.32728 14.2295 6.1405 14.3713C5.94126 14.5229 5.84435 14.9377 5.84435 15.6389C5.84435 16.1779 5.62147 16.5909 5.23311 16.7706C5.12964 16.8184 4.98125 16.8645 4.79155 16.8645C4.49775 16.8645 4.10519 16.7537 3.63173 16.3658L1.48699 14.5929C1.47695 14.4028 1.46628 14.2114 1.45446 14.0183C1.44143 13.8106 1.42783 13.6012 1.41309 13.3901L4.19741 15.692C4.53614 15.969 4.77674 16.0151 4.85656 15.9784C4.90505 15.9562 4.95767 15.8402 4.95767 15.6389C4.95767 14.6064 5.14979 14.0201 5.59967 13.6783C6.03887 13.344 6.6259 13.344 7.24775 13.344H13.4128C13.421 13.344 13.4287 13.344 13.437 13.3451Z" fill="#C1063E"/>
<path fill-rule="evenodd" clip-rule="evenodd" d="M22.1496 24.4494V26.0981V26.4718H23.2656L24.204 25.5507L25.1423 26.4718H28.2708C28.8808 26.4718 29.3802 25.9592 29.3802 25.3341V23.811H22.1211C22.1395 24.0095 22.1496 24.2212 22.1496 24.4494Z" fill="#C1063E"/>
<path d="M27.1309 23.8111V26.4718H28.2703C28.8803 26.4718 29.3797 25.9592 29.3797 25.3341V23.811H27.1309V23.8111Z" fill="#6A5C69"/>
</svg>
