<svg width="60" height="60" viewBox="0 0 60 60" fill="none" xmlns="http://www.w3.org/2000/svg">
<rect width="60" height="60" rx="5" fill="#FFE4EC"/>
<g clip-path="url(#clip0_0_4855)">
<path d="M28.9444 53.517C28.2039 53.5181 27.4654 53.4398 26.7416 53.2834C25.4762 53.0234 24.2842 52.4857 23.2517 51.7093C22.2192 50.9329 21.372 49.937 20.7711 48.7936C20.2931 47.7251 19.9385 46.6056 19.7142 45.4568L19.6623 45.2343C18.9206 42.0792 17.9861 38.7387 16.2617 35.7207C15.9836 35.2351 15.6795 34.7494 15.3865 34.2785C14.6771 33.2199 14.0746 32.0934 13.588 30.9157C12.8463 28.8914 12.9909 26.8893 14.0033 25.562C14.1366 25.356 14.3101 25.1789 14.5133 25.0413C14.7165 24.9037 14.9454 24.8085 15.1863 24.7612C15.3331 24.7459 15.4815 24.76 15.6229 24.8027C15.7642 24.8453 15.8957 24.9157 16.0095 25.0096C16.0978 25.08 16.1702 25.1683 16.222 25.2686C16.2737 25.3689 16.3037 25.479 16.3099 25.5917H16.0689C16.0631 25.5131 16.0409 25.4366 16.0039 25.367C15.9669 25.2974 15.9157 25.2363 15.8538 25.1876C15.7657 25.1145 15.6639 25.0598 15.5544 25.0266C15.4448 24.9935 15.3297 24.9827 15.2159 24.9948C14.7981 25.09 14.433 25.3422 14.1961 25.6992C13.2356 26.9635 13.0836 28.8803 13.8253 30.8231C14.3051 31.9922 14.9015 33.1101 15.6053 34.1599C15.8983 34.6307 16.2024 35.1164 16.4842 35.6058C18.2235 38.6534 19.158 42.0125 19.9108 45.1861L19.9627 45.4086C20.183 46.5382 20.5314 47.639 21.001 48.6897C21.5856 49.8001 22.4094 50.7669 23.413 51.5202C24.4167 52.2736 25.5751 52.7948 26.8047 53.0461C29.2896 53.5291 31.8646 53.173 34.1251 52.034C35.0327 51.6288 35.8527 51.0508 36.5392 50.3322C37.233 49.4886 37.7682 48.5264 38.119 47.4922C38.7383 45.8683 39.2315 44.1554 39.6766 42.5018C40.3626 40.04 41.0709 37.4967 42.2724 35.1906C42.6247 34.5158 43.0141 33.8521 43.4072 33.207C44.144 32.0576 44.7651 30.838 45.2614 29.5662C45.6879 28.3538 45.7064 27.3602 45.3207 26.6002C45.1854 26.3507 44.9965 26.1342 44.7676 25.9662C44.5387 25.7983 44.2755 25.6831 43.9969 25.6288C43.8037 25.5831 43.6026 25.5831 43.4094 25.6288C43.2163 25.6745 43.0365 25.7646 42.8843 25.892L42.7249 25.7104C42.9041 25.5593 43.1158 25.4516 43.3435 25.3956C43.5712 25.3397 43.8087 25.337 44.0376 25.3878C44.3512 25.4535 44.6465 25.5872 44.9028 25.7794C45.1591 25.9715 45.3701 26.2176 45.521 26.5001C45.94 27.3157 45.9215 28.3538 45.4728 29.6478C44.9713 30.938 44.3402 32.174 43.5889 33.3368C43.2181 33.9745 42.8102 34.6344 42.4764 35.3055C41.2897 37.5893 40.5851 40.1253 39.9028 42.5723C39.4392 44.2333 38.9608 45.9462 38.3378 47.5812C37.9757 48.644 37.4241 49.6326 36.7098 50.499C36.0034 51.241 35.1579 51.8368 34.2215 52.2527C32.5793 53.0636 30.7759 53.4957 28.9444 53.517Z" fill="#C1063D"/>
<path d="M31.6669 10.3278C31.8597 10.0226 31.9696 9.67247 31.9858 9.31189C32.0062 9.15115 31.9912 8.98789 31.9418 8.83355C31.8925 8.67921 31.8101 8.53751 31.7002 8.41835C31.6075 8.32567 31.4926 8.25893 31.4073 8.16253C31.322 8.06614 31.2812 7.96604 31.2107 7.87336C31.134 7.77406 31.0357 7.69345 30.9233 7.63758C30.8109 7.58172 30.6873 7.55205 30.5618 7.5508C30.3059 7.5508 30.0352 7.67315 29.8201 7.5508C29.6866 7.48407 29.5976 7.3506 29.4678 7.27645C29.3263 7.20631 29.164 7.19046 29.0117 7.23193C28.8795 7.27815 28.7399 7.29954 28.6 7.29498C28.3961 7.26532 28.2588 7.08735 28.0808 6.98725C27.9893 6.94048 27.8887 6.91429 27.786 6.91051C27.6833 6.90673 27.581 6.92545 27.4863 6.96536C27.3916 7.00528 27.3068 7.06542 27.2379 7.14158C27.1689 7.21773 27.1174 7.30805 27.087 7.4062C27.0648 7.50006 27.0648 7.59783 27.087 7.69169C27.1278 7.91785 27.2835 8.09951 27.2947 8.32567C27.3058 8.55183 27.1686 8.74834 27.2947 8.94484C27.4207 9.14134 27.6062 9.15245 27.6952 9.34153C27.8138 9.60106 27.6952 9.93104 27.8027 10.2091C27.8583 10.3834 27.888 10.6318 28.0512 10.743C28.2774 10.8987 28.7743 10.7689 29.0413 10.743C29.3899 10.717 29.7422 10.6874 30.0908 10.654C30.5544 10.6132 31.1254 10.6726 31.5445 10.4279C31.5904 10.4012 31.6317 10.3674 31.6669 10.3278Z" fill="#452626"/>
<path d="M28.1062 10.1646C28.0694 10.1141 28.0212 10.0729 27.9654 10.0446C27.9097 10.0162 27.8481 10.0014 27.7855 10.0014C27.723 10.0014 27.6613 10.0162 27.6056 10.0446C27.5499 10.0729 27.5016 10.1141 27.4648 10.1646C27.1423 10.5354 27.6873 11.2769 28.1062 11.3214C28.1306 10.9362 28.1306 10.5498 28.1062 10.1646Z" fill="#E0855C"/>
<path d="M33.3175 16.3747C33.219 16.9991 33.0878 17.6179 32.9244 18.2285C32.8985 18.3397 32.8799 18.4509 32.8614 18.5622C32.8428 18.6734 32.8317 18.7513 32.8169 18.8884C32.8148 18.9156 32.8148 18.9429 32.8169 18.97C32.8169 19.059 32.7909 19.1517 32.7798 19.2518L32.3125 23.6082C29.4089 24.4053 26.3791 23.6082 26.3791 23.6082C26.3791 23.6082 26.3791 23.5525 26.3791 23.445C26.3309 22.9519 26.1825 21.3799 26.0342 19.6151C26.036 19.6016 26.036 19.5879 26.0342 19.5743C26.0357 19.5484 26.0357 19.5224 26.0342 19.4965C25.9712 18.755 25.9118 17.969 25.8636 17.22C25.7746 15.9187 25.719 14.7175 25.7338 13.9722C25.7338 13.6979 26.3717 13.7275 26.8093 13.6682C27.1319 13.62 27.4619 13.5941 27.7475 13.5755C28.033 13.557 28.2481 13.5755 28.3928 13.5755H28.5559L28.593 13.1454L28.6931 12.0999C28.7418 12.1125 28.7914 12.1211 28.8415 12.1259C28.9335 12.1412 29.0264 12.1512 29.1196 12.1555C29.2344 12.1631 29.3496 12.1631 29.4645 12.1555H29.6239H29.7167C29.8205 12.1382 29.9206 12.116 30.017 12.0888L30.195 12.0332C30.467 11.9489 30.7245 11.8239 30.959 11.6624L30.9923 11.6402L31.0554 11.592C31.0725 11.5842 31.0876 11.5728 31.0999 11.5586C31.0999 11.6142 31.0999 11.6365 31.0813 11.6587C31.0517 11.9034 31.0183 12.2149 31.0035 12.5226C31.0035 12.7376 30.9812 12.9452 30.9738 13.1306C30.9664 13.316 30.907 13.5755 31.0368 13.6645C31.0817 13.6935 31.1323 13.7125 31.1852 13.7201C31.3883 13.7559 31.5947 13.7696 31.8008 13.7609H31.9899C32.1479 13.7498 32.3066 13.7498 32.4646 13.7609C32.5752 13.7597 32.6849 13.7811 32.7869 13.8239C32.8889 13.8666 32.9812 13.9297 33.0579 14.0093C33.169 14.159 33.2381 14.3356 33.2582 14.521L33.3027 14.825C33.3646 15.3394 33.3696 15.8592 33.3175 16.3747Z" fill="#F5A784"/>
<path d="M31.0807 11.4956C31.0306 11.7609 30.9222 12.0119 30.7635 12.2303C30.6048 12.4488 30.3996 12.6294 30.1628 12.7592C29.9259 12.8889 29.6632 12.9646 29.3936 12.9808C29.124 12.9969 28.8542 12.9531 28.6035 12.8526L28.674 12.0851C29.0939 12.1661 29.5264 12.1554 29.9419 12.0536C30.3573 11.9519 30.7458 11.7615 31.0807 11.4956Z" fill="#E0855C"/>
<path d="M28.1804 9.05232C27.9653 9.27477 27.9468 9.77157 27.9319 10.3203C27.8763 11.9887 28.3769 12.5078 29.2262 12.6004C30.0754 12.6931 30.9691 12.3632 31.1508 10.8171C31.2435 10.0459 31.34 9.33408 31.0618 9.00041C30.6428 8.49989 28.8331 8.37013 28.1804 9.05232Z" fill="#F5A784"/>
<path d="M31.0323 10.5947C31.0323 10.5947 31.2955 9.90509 31.7034 10.2721C32.1112 10.6392 31.5477 11.681 30.9211 11.6032C30.9211 11.6217 30.8321 10.832 31.0323 10.5947Z" fill="#F5A784"/>
<path d="M31.5148 10.5836C31.4189 10.6168 31.3324 10.6728 31.2627 10.7467C31.1871 10.8116 31.1253 10.891 31.0811 10.9803C31.0811 11.0099 31.107 11.0248 31.1255 11.0099C31.1441 10.9951 31.2219 10.8987 31.2738 10.8468C31.3054 10.8877 31.346 10.9207 31.3925 10.9432C31.4296 10.9432 31.4592 10.9098 31.4444 10.8765C31.4175 10.8392 31.3835 10.8077 31.3443 10.7838C31.4126 10.7382 31.4783 10.6887 31.5408 10.6355C31.5461 10.6312 31.5498 10.6253 31.5513 10.6187C31.5527 10.612 31.5519 10.6051 31.5488 10.599C31.5458 10.5929 31.5408 10.5881 31.5346 10.5853C31.5284 10.5825 31.5214 10.5819 31.5148 10.5836Z" fill="#E0855C"/>
<path d="M28.6637 10.2832C28.6637 10.2832 28.5191 10.3351 28.5414 10.0793C28.5636 9.8235 28.6637 9.88281 28.6637 9.88281C28.6637 9.88281 28.7638 9.88281 28.749 10.083C28.7342 10.2832 28.6637 10.2832 28.6637 10.2832Z" fill="#452626"/>
<path d="M30.1237 10.2833C30.1237 10.2833 29.9791 10.3352 30.0014 10.0794C30.0236 9.82353 30.1237 9.88284 30.1237 9.88284C30.1237 9.88284 30.2238 9.88284 30.2053 10.083C30.1867 10.2833 30.1237 10.2833 30.1237 10.2833Z" fill="#452626"/>
<path d="M28.8186 9.50836C28.7606 9.47423 28.6932 9.45976 28.6264 9.46711C28.5596 9.47446 28.4969 9.50323 28.4478 9.54914C28.4453 9.55421 28.4441 9.55985 28.4444 9.5655C28.4446 9.57115 28.4463 9.57666 28.4493 9.58148C28.4522 9.5863 28.4564 9.59028 28.4613 9.59306C28.4663 9.59584 28.4718 9.5973 28.4775 9.59734C28.5294 9.59734 28.5739 9.56769 28.6258 9.56398C28.6801 9.56139 28.7345 9.57024 28.7852 9.58994C28.8334 9.60477 28.8668 9.53061 28.8186 9.50836Z" fill="#452626"/>
<path d="M30.3394 9.63445C30.2801 9.48615 30.0243 9.47132 29.9167 9.56401C29.9114 9.56777 29.907 9.57277 29.904 9.57858C29.901 9.58439 29.8994 9.59082 29.8994 9.59736C29.8994 9.60391 29.901 9.61036 29.904 9.61617C29.907 9.62198 29.9114 9.62698 29.9167 9.63074C29.9833 9.63815 30.0504 9.63815 30.1169 9.63074C30.1709 9.63942 30.2233 9.65565 30.2727 9.67894C30.3172 9.69377 30.3505 9.66041 30.3394 9.63445Z" fill="#452626"/>
<path d="M28.9561 11.4771C29.2688 11.5181 29.5867 11.4638 29.8681 11.3214C29.826 11.4203 29.7637 11.5093 29.6852 11.5828C29.6066 11.6562 29.5136 11.7124 29.4121 11.7477C29.0895 11.8367 28.9561 11.4771 28.9561 11.4771Z" fill="white"/>
<path d="M27.0833 13.9686C27.9362 14.5655 28.0141 15.7259 27.5987 16.6491C27.3169 17.272 26.794 17.7058 26.4862 18.2916C26.1646 18.8591 25.7922 19.3965 25.3737 19.8969C24.454 21.0648 23.5788 22.1215 23.2414 22.5219C22.0769 23.9159 19.6368 25.74 18.7579 26.3777L18.439 26.6076C18.439 26.6076 17.5972 26.1627 17.8197 25.347C17.8197 25.347 21.1572 21.8063 21.6505 21.0833C22.1948 20.142 22.6899 19.173 23.1338 18.1803C23.7024 17.0829 24.2945 15.9978 24.9101 14.9251C25.192 14.4357 25.5517 13.8128 26.171 13.7053C26.4282 13.6734 26.6888 13.7268 26.9127 13.8573C26.9716 13.8912 27.0285 13.9284 27.0833 13.9686Z" fill="#F5A784"/>
<path d="M17.8238 25.3396C17.9151 25.3326 18.0069 25.3326 18.0982 25.3396C18.0982 25.3396 18.9029 25.7845 18.762 26.3629L18.5432 26.5594C18.4245 26.6706 18.2651 26.8189 18.0908 26.9932C17.9165 27.1674 17.5197 27.7347 17.3491 27.6902C17.3091 27.6741 17.2744 27.6471 17.249 27.6123L16.9041 27.2416C16.7113 27.0302 16.3886 26.6669 16.6334 26.3777C16.4554 26.4852 16.04 26.7485 15.8361 26.6224L15.7656 26.4889C15.7656 26.4889 16.3775 26.0329 16.6297 25.8067C16.965 25.5232 17.385 25.3589 17.8238 25.3396Z" fill="#F5A784"/>
<path d="M28.095 19.6485C28.0933 19.6683 28.0933 19.6881 28.095 19.7078C28.095 19.7264 28.1284 19.7264 28.121 19.7078L28.095 19.6485Z" fill="#D6BED3"/>
<path d="M29.483 31.661C29.1419 34.3971 28.7414 36.7737 28.7414 36.7737C28.797 37.4336 28.8229 38.1492 28.8229 38.8833C28.8229 40.3181 28.7302 41.8493 28.6041 43.1951C28.4484 44.9117 28.2333 46.3725 28.1406 47.1029V47.1956C28.2778 52.0636 26.8909 52.7124 26.2419 51.6447C25.5929 50.5769 26.2419 47.444 26.2419 47.444C26.2437 47.4168 26.2437 47.3896 26.2419 47.3624C25.9691 45.9057 25.787 44.4334 25.6968 42.9542C25.4743 39.3727 25.8562 36.922 25.8117 36.4734C25.0367 28.6875 26.1195 24.3979 26.1195 24.3979C26.2895 23.7733 26.5946 23.1936 27.0132 22.6998C27.8031 21.8471 28.7525 22.0658 29.3495 23.1076C29.4131 23.2141 29.47 23.3243 29.5201 23.4376C29.7651 24.0355 29.9032 24.6717 29.928 25.3173C29.9763 26.9301 29.75 29.4179 29.483 31.661Z" fill="#F5A784"/>
<path d="M33.3021 42.7651C33.2183 44.2791 33.0374 45.7863 32.7607 47.2772L32.7273 47.4588C32.7273 47.4588 33.3762 50.6103 32.7273 51.6595C32.0783 52.7087 30.7062 52.071 30.8286 47.2623C30.8286 47.2401 30.8286 47.2179 30.8286 47.1956C30.7247 46.5023 30.5171 44.9711 30.3539 43.2063C30.2315 41.8456 30.1314 40.3292 30.1314 38.887C30.1314 38.1455 30.1611 37.4373 30.2167 36.7737C30.2167 36.7737 29.8051 34.3971 29.475 31.6684C29.1969 29.4179 28.967 26.9301 29.0634 25.3322C29.0911 24.6866 29.2304 24.0506 29.475 23.4524C29.5236 23.336 29.5806 23.2232 29.6456 23.1151C30.3317 21.9249 31.4738 21.8211 32.3157 23.1596C32.5538 23.5518 32.7407 23.973 32.8719 24.4127C32.8719 24.4127 33.9548 28.6912 33.1797 36.4882C33.1315 36.9294 33.4986 39.2948 33.3021 42.7651Z" fill="#F5A784"/>
<path d="M17.7377 27.7607C17.8098 27.8473 17.9007 27.9164 18.0036 27.9626C18.1064 28.0089 18.2184 28.0311 18.3311 28.0276C18.3828 28.0156 18.4316 27.9931 18.4745 27.9617C18.5173 27.9303 18.5534 27.8905 18.5804 27.8448C18.6074 27.799 18.6249 27.7482 18.6318 27.6956C18.6386 27.6429 18.6347 27.5893 18.6203 27.5382C18.5739 27.4304 18.5043 27.3342 18.4164 27.2564C17.8527 26.7028 17.2791 26.1615 16.6957 25.6325C16.5984 25.5229 16.4683 25.4475 16.3248 25.4175C16.1909 25.4159 16.061 25.4627 15.9588 25.5491C15.8566 25.6356 15.7891 25.7561 15.7686 25.8883C15.7686 26.1256 15.9725 26.2146 16.1394 26.3481C16.6697 26.7967 17.1963 27.2898 17.7377 27.7607Z" fill="#452626"/>
<path d="M17.6523 27.1044C17.6754 27.0806 17.6942 27.053 17.7079 27.0228C17.7174 26.9839 17.718 26.9434 17.7096 26.9043C17.7013 26.8651 17.6842 26.8283 17.6597 26.7967C17.5226 26.5742 17.2408 26.2109 16.9627 26.1775C16.871 26.1732 16.7797 26.1928 16.6978 26.2344C16.6159 26.276 16.5462 26.3382 16.4956 26.4148C16.4154 26.5323 16.3642 26.6672 16.3461 26.8083C16.3281 26.9494 16.3437 27.0928 16.3918 27.2268C16.4743 27.4717 16.6412 27.6793 16.8626 27.8125C16.9737 27.8586 17.0981 27.8605 17.2105 27.8177C17.3228 27.775 17.4146 27.6909 17.467 27.5827C17.5226 27.4455 17.504 27.2786 17.5967 27.1637C17.6133 27.1422 17.6319 27.1223 17.6523 27.1044Z" fill="#F5A784"/>
<path d="M31.8445 13.9686C30.9878 14.5655 30.91 15.726 31.329 16.6491C31.6071 17.272 32.1337 17.7058 32.4415 18.2916C32.7658 18.8575 33.138 19.3946 33.5541 19.897C34.4737 21.0648 35.3526 22.1215 35.6901 22.5219C36.8508 23.9159 39.2947 25.74 40.1698 26.3777L40.4925 26.6076C40.4925 26.6076 41.3306 26.1627 41.1118 25.3471C41.1118 25.3471 37.7742 21.8063 37.2773 21.0834C36.7329 20.142 36.2378 19.173 35.7939 18.1804C35.2278 17.0829 34.6344 15.9978 34.0139 14.9251C33.7321 14.4357 33.3761 13.8129 32.753 13.7053C32.5031 13.6775 32.2509 13.7308 32.0336 13.8574C31.9679 13.8897 31.9047 13.9269 31.8445 13.9686Z" fill="#F5A784"/>
<path d="M41.1052 25.3396C41.0126 25.3326 40.9197 25.3326 40.8271 25.3396C40.8271 25.3396 40.0261 25.7845 40.1633 26.3629C40.1633 26.3629 40.2523 26.437 40.3821 26.5594C40.5119 26.6817 40.6639 26.8189 40.8345 26.9932C41.0051 27.1674 41.4093 27.7347 41.5947 27.6902C41.6342 27.6732 41.6686 27.6464 41.6948 27.6123L42.036 27.2416C42.2326 27.0302 42.5515 26.6669 42.3104 26.3777C42.4847 26.4852 42.9001 26.7485 43.1077 26.6224L43.1782 26.4889C43.1782 26.4889 42.5663 26.0329 42.3104 25.8068C41.9729 25.5196 41.5481 25.355 41.1052 25.3396Z" fill="#F5A784"/>
<path d="M41.1901 27.7607C41.1162 27.8462 41.0245 27.9144 40.9213 27.9605C40.8181 28.0067 40.7061 28.0295 40.5931 28.0276C40.5413 28.0156 40.4925 27.9931 40.4497 27.9617C40.4068 27.9303 40.3708 27.8905 40.3437 27.8448C40.3167 27.799 40.2992 27.7482 40.2924 27.6956C40.2855 27.6429 40.2894 27.5893 40.3038 27.5382C40.3503 27.4295 40.4214 27.333 40.5115 27.2564C41.0702 26.7028 41.6438 26.1615 42.2322 25.6325C42.3338 25.5187 42.4711 25.4428 42.6216 25.4175C42.7548 25.4168 42.8839 25.464 42.9853 25.5504C43.0867 25.6368 43.1537 25.7567 43.1741 25.8883C43.1741 26.1256 42.9739 26.2146 42.8033 26.3481C42.2544 26.7967 41.7204 27.2898 41.1901 27.7607Z" fill="#452626"/>
<path d="M41.2755 27.1044C41.2502 27.0817 41.23 27.0539 41.2162 27.0228C41.2086 26.9836 41.2092 26.9432 41.2182 26.9043C41.2271 26.8653 41.2441 26.8286 41.2681 26.7967C41.4016 26.5742 41.6834 26.2109 41.9614 26.1775C42.0532 26.1729 42.1447 26.1923 42.2266 26.2339C42.3086 26.2756 42.3782 26.3379 42.4286 26.4148C42.5096 26.532 42.5613 26.6668 42.5794 26.8081C42.5975 26.9494 42.5814 27.093 42.5324 27.2268C42.4526 27.4731 42.285 27.6816 42.0616 27.8125C41.9505 27.8586 41.8261 27.8605 41.7137 27.8178C41.6013 27.775 41.5096 27.6909 41.4572 27.5827C41.4053 27.4455 41.4239 27.2787 41.3312 27.1637L41.2755 27.1044Z" fill="#F5A784"/>
<path d="M33.3579 40.3885V40.7593C33.3579 41.004 33.3579 41.2635 33.3579 41.5267C33.3579 41.6268 33.3579 41.7232 33.3579 41.8271C33.3579 42.1311 33.3357 42.4425 33.3208 42.7688C32.3606 43.0336 31.372 43.1817 30.3764 43.21C30.3356 42.7947 30.254 41.6899 30.2503 41.5675C30.2503 41.3117 30.1984 40.6036 30.1909 40.5072C30.1687 39.9659 30.1539 39.4246 30.1539 38.8907C30.1539 38.2011 30.1798 37.53 30.2317 36.9034C30.2317 36.859 30.2317 36.8182 30.2317 36.7774C30.2317 36.7366 29.8201 34.4009 29.4901 31.6721C29.453 31.9613 29.4159 32.2505 29.3788 32.5285C29.0673 34.8791 28.7372 36.7774 28.7372 36.7774C28.7929 37.4373 28.8188 38.1529 28.8188 38.887C28.8188 39.4431 28.8188 39.9992 28.7817 40.585C28.7817 40.6814 28.7039 41.9197 28.6927 42.0384C28.6668 42.4351 28.6334 42.8244 28.6 43.1989C28.0846 43.1766 27.5691 43.1395 27.0611 43.0988C26.6605 43.0617 26.1562 43.0431 25.6667 42.9727C25.6444 42.639 25.6296 42.3165 25.6185 42.0087C25.6185 41.9309 25.6185 41.8493 25.6185 41.7752C25.6185 41.4341 25.6185 41.1115 25.6185 40.7964V40.5405C25.6185 38.2938 25.8373 36.833 25.8039 36.4622C25.0288 28.6764 26.1117 24.3868 26.1117 24.3868C26.2817 23.7622 26.5868 23.1825 27.0054 22.6887C27.3231 22.7409 27.6348 22.8242 27.9362 22.9371C28.3951 23.0549 28.8681 23.1085 29.3417 23.0965H29.6829C30.0945 23.0965 30.5062 23.0483 30.9141 23.0372H31.1885C31.5795 23.0331 31.9698 23.0704 32.3529 23.1484C32.5911 23.5407 32.778 23.9618 32.9092 24.4016C33.1964 25.8095 33.3589 27.24 33.395 28.6764C33.5225 31.2858 33.4494 33.9011 33.1762 36.4993C33.1428 36.833 33.3394 38.2345 33.3579 40.3885Z" fill="#452626"/>
<path d="M28.1064 47.2141C28.1584 49.1309 27.9766 50.3952 27.6948 51.1552C27.2646 52.3305 26.6008 52.3157 26.2114 51.678C26.1119 51.5034 26.0441 51.3127 26.0112 51.1145C25.7368 49.7909 26.2114 47.4774 26.2114 47.4774C26.2132 47.4502 26.2132 47.4229 26.2114 47.3958C26.3959 47.5303 26.6051 47.6274 26.827 47.6813C27.0764 47.7433 27.3393 47.7222 27.5756 47.6211C27.8119 47.5201 28.0087 47.3446 28.1361 47.1214L28.1064 47.2141Z" fill="#C1063D"/>
<path d="M32.9499 50.9884C32.9188 51.2242 32.8433 51.4519 32.7274 51.6595C32.3269 52.3157 31.6371 52.312 31.2106 51.0478C30.9511 50.2877 30.7842 49.0716 30.8398 47.2623C31.1175 47.5118 31.4752 47.6539 31.8485 47.6628C32.1808 47.6296 32.4964 47.5008 32.757 47.292C32.7578 47.3494 32.7516 47.4067 32.7385 47.4625C32.7385 47.4625 33.1909 49.6537 32.9499 50.9884Z" fill="#C1063D"/>
<path d="M27.5464 48.3264C27.3586 48.2144 27.144 48.1553 26.9254 48.1553C26.7067 48.1553 26.4921 48.2144 26.3043 48.3264C26.2974 48.3341 26.2927 48.3436 26.2909 48.3539C26.2891 48.3641 26.2902 48.3746 26.294 48.3843C26.2979 48.3939 26.3044 48.4023 26.3127 48.4085C26.3211 48.4146 26.3311 48.4183 26.3414 48.4191C26.5268 48.4191 26.7122 48.3412 26.8864 48.3449C27.0906 48.3604 27.2923 48.4003 27.4871 48.4636C27.5038 48.4657 27.5207 48.4623 27.5353 48.4539C27.5499 48.4455 27.5614 48.4327 27.5681 48.4172C27.5748 48.4018 27.5763 48.3846 27.5724 48.3682C27.5685 48.3518 27.5593 48.3372 27.5464 48.3264Z" fill="#291B30"/>
<path d="M27.4871 48.9307C27.1705 48.7462 26.799 48.6792 26.4379 48.7416C26.3155 48.7416 26.3118 48.9456 26.4379 48.9344C26.6122 48.9183 26.7879 48.9245 26.9606 48.953C27.1201 48.9826 27.2647 49.0531 27.4241 49.0864C27.4437 49.0906 27.4642 49.0878 27.4819 49.0784C27.4996 49.069 27.5135 49.0536 27.521 49.0351C27.5285 49.0165 27.5293 48.9958 27.5231 48.9767C27.5169 48.9576 27.5041 48.9414 27.4871 48.9307Z" fill="#291B30"/>
<path d="M32.3967 48.3264C32.115 48.2263 31.5032 48.193 31.2845 48.4488C31.2548 48.4859 31.2845 48.5563 31.3253 48.5489C31.4995 48.5489 31.6515 48.4562 31.8332 48.4525C32.0149 48.4488 32.204 48.4933 32.3745 48.4821C32.3952 48.4851 32.4161 48.4797 32.4328 48.4672C32.4495 48.4547 32.4605 48.436 32.4635 48.4154C32.4664 48.3947 32.4611 48.3738 32.4485 48.3571C32.436 48.3404 32.4174 48.3294 32.3967 48.3264Z" fill="#291B30"/>
<path d="M32.534 48.9604C32.2262 48.8269 31.4588 48.7268 31.3031 49.1421C31.2808 49.1977 31.3513 49.2422 31.3958 49.2162C31.556 49.1274 31.7343 49.0759 31.9173 49.0656C32.1003 49.0553 32.2832 49.0865 32.4524 49.1569C32.5636 49.2051 32.6489 49.0086 32.534 48.9604Z" fill="#291B30"/>
<path d="M18.494 13.5385C18.494 13.5163 18.4495 13.5163 18.4458 13.5385C18.2604 14.8028 18.3679 16.1338 18.3679 17.424C18.3679 18.7921 18.3271 20.1713 18.405 21.5394C18.4085 21.554 18.4168 21.5669 18.4286 21.5762C18.4404 21.5855 18.4549 21.5905 18.4699 21.5905C18.4849 21.5905 18.4994 21.5855 18.5112 21.5762C18.5229 21.5669 18.5313 21.554 18.5348 21.5394C18.6126 20.1713 18.5681 18.7921 18.5681 17.424C18.5718 16.1523 18.6757 14.8028 18.494 13.5385Z" fill="#E8CEE5"/>
<path d="M20.1158 13.9575C20.1158 13.9368 20.1076 13.917 20.093 13.9024C20.0784 13.8878 20.0586 13.8796 20.0379 13.8796C20.0173 13.8796 19.9975 13.8878 19.9829 13.9024C19.9683 13.917 19.9601 13.9368 19.9601 13.9575C19.9601 15.1735 19.8785 16.4119 19.9601 17.6242C19.9601 17.6449 19.9683 17.6647 19.9829 17.6793C19.9975 17.6939 20.0173 17.7021 20.0379 17.7021C20.0586 17.7021 20.0784 17.6939 20.093 17.6793C20.1076 17.6647 20.1158 17.6449 20.1158 17.6242C20.2122 16.4119 20.1232 15.1735 20.1158 13.9575Z" fill="#E8CEE5"/>
<path d="M36.6949 26.6892C36.6919 26.6782 36.6853 26.6685 36.6763 26.6616C36.6673 26.6548 36.6562 26.651 36.6448 26.651C36.6335 26.651 36.6224 26.6548 36.6134 26.6616C36.6043 26.6685 36.5978 26.6782 36.5948 26.6892C36.4922 28.2801 36.4712 29.8752 36.5318 31.4682C36.5318 33.0625 36.5318 34.6567 36.5911 36.2509C36.5942 36.2628 36.6012 36.2733 36.6109 36.2808C36.6206 36.2883 36.6326 36.2923 36.6448 36.2923C36.6571 36.2923 36.669 36.2883 36.6788 36.2808C36.6885 36.2733 36.6954 36.2628 36.6986 36.2509C36.7505 34.6567 36.7505 33.0625 36.7579 31.4682C36.8185 29.8752 36.7974 28.2801 36.6949 26.6892Z" fill="#E8CEE5"/>
<path d="M39.5659 17.3647C39.5543 16.3038 39.485 15.2443 39.3582 14.191C39.3582 14.128 39.2581 14.1465 39.2544 14.191C39.2224 15.3227 39.2533 16.4552 39.3471 17.5834C39.3916 18.6364 39.3805 19.719 39.5214 20.7682C39.5214 20.8646 39.6845 20.8349 39.6882 20.7422C39.7401 19.6374 39.6215 18.4843 39.5659 17.3647Z" fill="#E8CEE5"/>
<path d="M40.3109 17.9542C40.3083 17.9459 40.3031 17.9386 40.2961 17.9335C40.2891 17.9283 40.2807 17.9256 40.272 17.9256C40.2633 17.9256 40.2548 17.9283 40.2478 17.9335C40.2408 17.9386 40.2356 17.9459 40.233 17.9542C40.1348 19.4774 40.1274 21.0052 40.2108 22.5293C40.2142 22.5429 40.222 22.5551 40.2331 22.5638C40.2442 22.5724 40.2579 22.5771 40.272 22.5771C40.286 22.5771 40.2997 22.5724 40.3108 22.5638C40.3219 22.5551 40.3297 22.5429 40.3331 22.5293C40.4166 21.0052 40.4091 19.4774 40.3109 17.9542Z" fill="#E8CEE5"/>
<path d="M29.3594 32.5248C29.3648 32.2361 29.4021 31.9489 29.4706 31.6684C29.4335 31.9576 29.3965 32.2467 29.3594 32.5248Z" fill="#291B30"/>
<path d="M33.3946 28.6764C32.8939 25.6695 28.7628 25.5287 28.7628 25.5287C28.5032 24.2718 30.172 23.9048 30.172 23.9048L31.1473 23.0594C31.5383 23.0553 31.9286 23.0926 32.3117 23.1707C32.5498 23.563 32.7368 23.9841 32.868 24.4238C33.1652 25.8236 33.3413 27.2464 33.3946 28.6764Z" fill="black"/>
<path d="M32.939 24.7353C29.6014 26.3036 25.9746 24.865 25.9746 24.865C26.2379 24.1235 26.0414 20.3419 26.0228 19.6226C26.0247 19.6091 26.0247 19.5953 26.0228 19.5818C26.0243 19.5559 26.0243 19.5299 26.0228 19.5039C26.7237 17.88 26.8016 14.7509 26.8053 13.6757C27.1205 13.6275 27.4506 13.6015 27.7361 13.583C27.8474 14.7879 28.2442 17.8689 29.3493 17.7354C30.4544 17.602 30.9809 14.8584 31.1738 13.6571C31.3767 13.6949 31.5833 13.7086 31.7894 13.6979H31.9785C31.8821 15.3404 32.7944 18.7921 32.824 18.8885C32.822 18.9156 32.822 18.9429 32.824 18.9701C32.824 19.059 32.7981 19.1517 32.7869 19.2518C32.7869 19.2518 32.7869 19.2926 32.7869 19.3149C32.5496 21.4022 32.939 24.7353 32.939 24.7353Z" fill="#C1063D"/>
</g>
<defs>
<clipPath id="clip0_0_4855">
<rect x="11" y="5" width="38" height="50" rx="10" fill="white"/>
</clipPath>
</defs>
</svg>
