<svg width="60" height="60" viewBox="0 0 60 60" fill="none" xmlns="http://www.w3.org/2000/svg">
<rect width="60" height="60" rx="5" fill="#FFE4EC"/>
<g clip-path="url(#clip0_0_4907)">
<path d="M56.7133 52.2655C56.2933 52.2176 55.8734 52.1856 55.4455 52.1657C55.3278 52.1657 51.7483 52.1896 50.9593 52.1657H50.9044C50.7866 52.1657 20.9533 52.1457 20.9533 52.1457H20.8434H16.4161H16.3376H16.2434H7.51826H7.40836H2.98104H2.90254C2.71807 52.1457 2.5336 52.1736 2.35305 52.1976C2.25624 52.1976 2.1634 52.2367 2.09495 52.3063C2.02649 52.376 1.98804 52.4704 1.98804 52.5689C1.98804 52.6673 2.02649 52.7618 2.09495 52.8314C2.1634 52.901 2.25624 52.9401 2.35305 52.9401L2.90254 52.992H2.97319H7.40443H7.51041H16.2394H16.3376H16.4082H20.8395H20.9454H50.9083H50.9554C51.7404 52.9721 55.3239 52.992 55.4455 52.992C55.8694 52.9721 56.2894 52.9361 56.7094 52.8882C56.7906 52.8888 56.8686 52.8565 56.9264 52.7984C56.9842 52.7404 57.0169 52.6614 57.0175 52.5788C57.018 52.4963 56.9862 52.4169 56.9292 52.3581C56.8721 52.2993 56.7945 52.266 56.7133 52.2655Z" fill="#C6C6C6"/>
<path d="M29.2622 38.8923C34.8473 40.0899 41.8219 40.7885 41.8219 40.7885C41.6571 41.499 41.7945 42.8643 42.0496 44.3813C42.5598 47.3992 43.5489 50.9921 43.5489 50.9921C43.8498 51.0779 44.1656 51.0948 44.4737 51.0417C44.7819 50.9885 45.0746 50.8666 45.3308 50.6847C45.1856 47.5949 45.998 39.1677 44.4438 38.1897C41.8533 36.5649 32.4884 33.8982 30.9146 33.7984C29.8273 33.7226 28.7676 33.9022 28.2966 34.7286C28.0716 35.1663 27.9879 35.6649 28.0572 36.1537C28.0572 36.2296 28.0572 36.3054 28.0847 36.3773C28.4065 38.3853 26.6913 38.3414 29.2622 38.8923Z" fill="#F5A784"/>
<path d="M30.5808 19.6507C30.5337 19.7785 30.4473 19.8783 30.3963 19.998C30.3453 20.1178 30.3414 20.3254 30.2825 20.4771C30.2825 20.521 30.1255 20.8244 30.0784 20.6447H29.9803C29.1443 20.5889 28.3122 20.525 27.4801 20.4372C27.2446 20.4132 27.0091 20.4012 26.7736 20.3653C26.6951 20.3639 26.6182 20.3428 26.5497 20.3038C26.4812 20.2648 26.4233 20.2091 26.3811 20.1418C26.3619 20.1167 26.3448 20.09 26.3301 20.0619C26.1362 19.6942 26.0402 19.2814 26.0514 18.8643C26.0503 18.6998 26.0714 18.5359 26.1142 18.3773C26.1678 18.2115 26.2488 18.0563 26.3536 17.9182C26.6746 17.4994 27.1061 17.1823 27.5978 17.004C27.5704 16.8683 27.3467 16.7845 27.2642 16.6727C27.1621 16.5353 27.1107 16.3657 27.119 16.1937C27.1325 16.0692 27.1727 15.9493 27.2368 15.8424C27.3216 15.6884 27.4413 15.5574 27.5861 15.4602C27.7308 15.3629 27.8964 15.3024 28.0688 15.2835C28.222 15.269 28.3764 15.2907 28.5201 15.3467C28.6637 15.4028 28.7927 15.4918 28.897 15.6068C28.9249 15.6362 28.9499 15.6683 28.9716 15.7026C29.0705 15.8484 29.126 16.02 29.1316 16.1969C29.1371 16.3739 29.0925 16.5488 29.003 16.7006C28.948 16.7845 28.8813 16.8923 28.9402 16.9721C28.9693 17.0018 29.006 17.0225 29.0461 17.032C29.3698 17.1348 29.6757 17.2883 29.9528 17.4871C30.3127 17.7657 30.5621 18.1667 30.6554 18.6168C30.7232 18.9619 30.6974 19.3194 30.5808 19.6507Z" fill="#646464"/>
<path d="M30.1568 19.9421C30.1958 19.8877 30.2469 19.8434 30.3059 19.8129C30.3649 19.7823 30.4301 19.7664 30.4963 19.7664C30.5625 19.7664 30.6278 19.7823 30.6868 19.8129C30.7458 19.8434 30.7969 19.8877 30.8358 19.9421C31.1734 20.3413 30.5964 21.1397 30.1568 21.1876C30.131 20.7729 30.131 20.3569 30.1568 19.9421Z" fill="#E0855C"/>
<path d="M32.5515 27.5469L32.5279 27.9182C32.3553 30.4012 32.1041 33.1078 32.0138 34.0739C32.0138 34.1417 31.9824 34.4252 31.9824 34.4252C31.5129 34.5402 31.0372 34.6269 30.5576 34.6846C28.9391 34.9142 27.2923 34.8261 25.7064 34.4252C25.7064 34.4252 25.7064 34.3932 25.7064 34.3413C25.6436 33.7266 25.2511 29.8064 25.1216 28.992C25.1216 28.8763 25.0784 28.7565 25.0549 28.6327C25.0117 28.4252 24.9685 28.2335 24.9175 28.01C24.6275 26.9008 24.2616 25.8137 23.8225 24.7565C23.8066 24.7186 23.8051 24.676 23.8181 24.637C23.8311 24.598 23.8578 24.5652 23.8931 24.5449C24.4738 24.2069 25.1028 23.9631 25.7574 23.8224L25.9537 23.7824C26.1382 23.7505 26.3462 23.7186 26.5424 23.6986L26.9035 23.6707H26.9271C27.0003 23.6667 27.0737 23.6667 27.1469 23.6707C27.1469 23.6707 27.1469 23.4232 27.1469 23.0798C27.1469 22.8802 27.1469 22.6567 27.1155 22.4252C27.1155 22.0938 27.0645 21.7585 27.0291 21.495C27.031 21.4711 27.031 21.4471 27.0291 21.4232C27.0291 21.3952 27.0291 21.4232 27.0723 21.4232L27.139 21.479H27.1626L27.3627 21.6068C27.4974 21.6913 27.6393 21.7635 27.7866 21.8224L27.8651 21.8503C27.8651 21.8503 27.8848 21.8503 27.8926 21.8503L27.9947 21.8862C28.113 21.9266 28.2336 21.9599 28.3558 21.986L28.5873 22.026H28.7561C28.875 22.034 28.9943 22.034 29.1133 22.026C29.2146 22.0217 29.3155 22.011 29.4155 21.994C29.4685 21.9889 29.521 21.9796 29.5725 21.9661L29.6785 23.0918L29.7177 23.5549H29.8904C30.0395 23.5549 30.2829 23.5549 30.5498 23.5788C30.8167 23.6028 31.0561 23.6108 31.3348 23.6427L31.5781 23.6747C32.0413 23.7385 32.7124 23.7066 32.7163 24.002C32.7046 24.8523 32.6457 26.1457 32.5515 27.5469Z" fill="#F5A784"/>
<path d="M27.0056 21.3753C27.0592 21.6611 27.1743 21.9313 27.3427 22.1665C27.5111 22.4018 27.7286 22.5962 27.9796 22.7358C28.2306 22.8755 28.5088 22.9569 28.7944 22.9743C29.08 22.9917 29.3658 22.9446 29.6314 22.8363L29.5568 22.01C29.1117 22.0957 28.6536 22.0834 28.2136 21.9739C27.7735 21.8644 27.3616 21.6603 27.0056 21.3753Z" fill="#E0855C"/>
<path d="M30.0787 18.7445C30.3024 18.9841 30.322 19.519 30.3417 20.1098C30.4005 21.9062 29.8707 22.4651 28.9679 22.5649C28.0652 22.6647 27.1271 22.3094 26.9309 20.6447C26.8367 19.8144 26.7307 19.0479 27.029 18.6886C27.4725 18.1497 29.384 18.01 30.0787 18.7445Z" fill="#F5A784"/>
<path d="M27.0567 20.4052C27.0567 20.4052 26.782 19.6627 26.3463 20.0579C25.9106 20.4531 26.5151 21.5748 27.1784 21.491C27.1784 21.491 27.2765 20.6527 27.0567 20.4052Z" fill="#F5A784"/>
<path d="M26.5508 20.3932C26.6517 20.4281 26.7422 20.4885 26.8138 20.5688C26.8962 20.6374 26.9631 20.7231 27.01 20.8203C27.01 20.8523 26.9786 20.8722 26.959 20.8523C26.9394 20.8323 26.857 20.7325 26.8059 20.6766C26.7711 20.7208 26.7268 20.7563 26.6764 20.7804C26.6372 20.7804 26.6097 20.7445 26.6254 20.7086C26.6538 20.6684 26.6899 20.6345 26.7314 20.6088C26.6578 20.5597 26.587 20.5064 26.5194 20.4491C26.5158 20.4435 26.5137 20.437 26.5135 20.4303C26.5132 20.4237 26.5148 20.417 26.5181 20.4112C26.5213 20.4054 26.5261 20.4007 26.5319 20.3975C26.5377 20.3943 26.5443 20.3928 26.5508 20.3932Z" fill="#E0855C"/>
<path d="M28.8736 20.8004C28.9521 20.8004 29.1287 20.8364 29.164 20.7485C29.1498 20.5584 29.1129 20.3707 29.0541 20.1897C28.982 19.947 28.923 19.7004 28.8775 19.4511C28.8775 19.4511 28.8971 19.4272 28.905 19.4511C29.0566 19.8924 29.1747 20.3448 29.2582 20.8044C29.2594 20.8103 29.2593 20.8164 29.2578 20.8222C29.2564 20.828 29.2537 20.8334 29.2499 20.838C29.2461 20.8426 29.2414 20.8463 29.2361 20.8487C29.2307 20.8512 29.2249 20.8525 29.219 20.8523C29.1091 20.8523 28.9953 20.8763 28.8854 20.8763C28.8461 20.8683 28.8461 20.8044 28.8736 20.8004Z" fill="#E0855C"/>
<path d="M29.4 19.2358C29.5099 19.1796 29.714 19.1636 29.7925 19.2799C29.7951 19.2851 29.7964 19.2909 29.7963 19.2967C29.7962 19.3025 29.7948 19.3082 29.7921 19.3133C29.7894 19.3184 29.7855 19.3228 29.7808 19.3261C29.7761 19.3294 29.7707 19.3314 29.765 19.3321C29.7101 19.3321 29.663 19.3 29.608 19.296C29.5505 19.2932 29.493 19.3027 29.4393 19.3241C29.3883 19.3401 29.3529 19.2599 29.4 19.2358Z" fill="#3B2645"/>
<path d="M27.7945 19.372C27.8573 19.2115 28.1281 19.1954 28.242 19.2957C28.2486 19.299 28.2542 19.3041 28.2581 19.3105C28.262 19.3169 28.2641 19.3243 28.2641 19.3318C28.2641 19.3394 28.262 19.3468 28.2581 19.3531C28.2542 19.3595 28.2486 19.3647 28.242 19.368C28.1752 19.392 28.1046 19.368 28.0339 19.368C27.9756 19.3773 27.9188 19.3949 27.8652 19.4201C27.8581 19.4275 27.8488 19.4322 27.8388 19.4332C27.8287 19.4343 27.8186 19.4318 27.8102 19.4261C27.8018 19.4204 27.7957 19.4118 27.7928 19.4019C27.7899 19.392 27.7905 19.3814 27.7945 19.372Z" fill="#3B2645"/>
<path d="M28.3479 19.8545C28.2221 19.8091 28.0875 19.7953 27.9554 19.8144C27.8387 19.8085 27.724 19.8471 27.6335 19.9228V19.9508C27.7393 19.9494 27.8446 19.9359 27.9475 19.9107C28.0683 19.9107 28.1889 19.9188 28.3086 19.9348C28.3675 19.9468 28.3871 19.8786 28.3479 19.8545Z" fill="#3B2645"/>
<path d="M29.6897 19.7505C29.5686 19.7479 29.4504 19.7889 29.3561 19.8662C29.3012 19.9102 29.3561 19.982 29.4268 19.9581C29.5129 19.9087 29.6105 19.8839 29.7094 19.8862C29.7918 19.8862 29.8664 19.9421 29.9488 19.9341C29.9568 19.9347 29.9649 19.933 29.972 19.9292C29.9791 19.9254 29.9851 19.9196 29.9891 19.9126C29.9932 19.9055 29.9953 19.8974 29.9951 19.8893C29.9949 19.8811 29.9924 19.8731 29.988 19.8662C29.937 19.7664 29.7918 19.7505 29.6897 19.7505Z" fill="#3B2645"/>
<path d="M29.3405 21.2994C29.1775 21.3545 29.0055 21.3762 28.8342 21.3633C28.6846 21.317 28.54 21.2555 28.4025 21.1797C28.375 21.1797 28.3514 21.2036 28.3632 21.2276C28.4868 21.375 28.6589 21.4716 28.8473 21.4995C29.0358 21.5274 29.2278 21.4847 29.3876 21.3793C29.4269 21.3474 29.3837 21.2915 29.3405 21.2994Z" fill="#E0855C"/>
<path d="M51.7016 23.4711C50.2717 23.3806 48.837 23.4086 47.4116 23.5549C46.5952 23.7306 41.9795 24.7046 41.0729 24.7525C40.3193 24.7805 37.2618 24.4491 35.0913 24.2016L33.9138 24.0619C33.7215 24.042 31.81 23.7465 31.81 23.7465C30.5698 23.6068 31.0722 24.3014 30.9623 25.2196C30.9433 25.4167 30.9606 25.6157 31.0133 25.8064C31.0679 25.9884 31.1603 26.1564 31.2842 26.2989C31.4081 26.4415 31.5606 26.5553 31.7315 26.6328C32.124 26.8204 33.3957 26.9801 34.899 27.0919L35.4602 27.1318C37.8858 27.2875 40.7078 27.3354 41.5399 27.2076C43.5848 26.9002 46.7993 25.6108 47.969 25.1158H48.0043C48.9816 24.7765 49.9157 24.9761 50.9166 24.8643C50.9598 24.8643 51.0069 24.8643 51.0226 24.8084C51.0304 24.7879 51.0304 24.7651 51.0226 24.7445C50.9362 24.497 50.5633 24.6128 50.4063 24.4731C50.5359 24.3533 50.7714 24.3294 50.9323 24.2495C51.2286 24.083 51.5144 23.8976 51.7879 23.6946C51.8232 23.6707 51.8625 23.6388 51.8625 23.5948C51.8625 23.5509 51.7644 23.4791 51.7016 23.4711Z" fill="#F5A784"/>
<path d="M6.3091 23.4711C7.73894 23.3805 9.17367 23.4085 10.599 23.5549C11.4194 23.7306 16.0351 24.7046 16.9378 24.7525C17.6914 24.7805 20.7489 24.4491 22.9233 24.2016L24.1008 24.0619C24.2892 24.0419 26.2006 23.7465 26.2006 23.7465C27.4448 23.6068 26.9385 24.3014 27.0484 25.2196C27.0709 25.4167 27.0535 25.6164 26.9974 25.8064C26.9437 25.9883 26.8521 26.1562 26.7288 26.2988C26.6055 26.4414 26.4535 26.5553 26.2831 26.6328C25.8906 26.8204 24.6189 26.9801 23.1117 27.0918L22.5544 27.1318C20.1248 27.2875 17.3028 27.3354 16.4707 27.2076C14.4298 26.9002 11.2153 25.6108 10.0456 25.1158H10.0103C9.02907 24.7765 8.09886 24.9761 7.09408 24.8643C7.05483 24.8643 7.00381 24.8643 6.99203 24.8084C6.98614 24.7875 6.98614 24.7654 6.99203 24.7445C7.07838 24.497 7.45518 24.6128 7.61217 24.4731C7.44551 24.3762 7.26748 24.3011 7.08231 24.2495C6.78778 24.082 6.50337 23.8967 6.2306 23.6946C6.19135 23.6707 6.1521 23.6387 6.1521 23.5948C6.1521 23.5509 6.2463 23.4791 6.3091 23.4711Z" fill="#F5A784"/>
<path d="M30.6946 34.2256C30.6946 34.3054 28.8735 43.3513 23.8142 45.9461C20.4703 47.6058 16.9135 48.779 13.2483 49.4312L12.797 49.511C12.7674 49.9555 12.8442 50.4007 13.0207 50.8084C13.1387 51.1198 13.3688 51.3739 13.6644 51.519C13.7237 51.5382 13.7805 51.565 13.8331 51.5988C13.8601 51.6318 13.88 51.6702 13.8916 51.7115C13.9031 51.7528 13.906 51.796 13.9001 51.8385C13.8941 51.881 13.8796 51.9218 13.8572 51.9582C13.8349 51.9946 13.8053 52.0258 13.7703 52.0499C13.6215 52.1366 13.4509 52.1768 13.2797 52.1657C12.6988 52.1657 12.0434 52.2296 11.7686 51.6427C11.6024 51.2745 11.4595 50.8958 11.3408 50.509C11.1446 49.9062 10.5558 48.2775 11.3408 48.0659C14.0215 47.3433 20.8038 43.7186 21.9381 43.0599C22.9664 42.4651 24.0065 36.2455 25.6903 34.3413C27.3741 32.4371 30.416 32.8842 30.6946 34.2256Z" fill="#F5A784"/>
<path d="M43.3965 50.4132C43.42 50.5969 43.4318 50.7845 43.4436 50.9721C43.4671 51.4192 43.1296 51.9541 43.577 52.2815C43.8379 52.4148 44.1301 52.4715 44.4209 52.4452C45.0292 52.4811 45.6376 52.4452 46.246 52.4452C46.6385 52.4452 47.0309 52.4172 47.4431 52.3933C47.7728 52.3933 48.2908 52.4372 48.5734 52.2575C48.6112 52.2385 48.6406 52.2057 48.6559 52.1657C48.6599 52.1281 48.6516 52.0903 48.6323 52.0579C48.5446 51.9405 48.4199 51.8574 48.2791 51.8224C47.6707 51.6068 47.0192 51.531 46.4147 51.3034C45.9357 51.1399 45.5222 50.8217 45.2373 50.3973C45.0528 50.0859 45.0332 49.7346 44.6681 49.5669C44.5305 49.4981 44.3776 49.467 44.2245 49.4765C44.0715 49.4861 43.9235 49.5361 43.7952 49.6215C43.6668 49.7069 43.5626 49.8248 43.4927 49.9636C43.4228 50.1025 43.3896 50.2574 43.3965 50.4132Z" fill="#F5A784"/>
<path d="M32.5282 27.9182C32.3555 30.4012 32.1043 33.1078 32.014 34.0739C31.6215 34.2415 31.1387 34.4731 30.5578 34.6847C28.9393 34.9142 27.2925 34.8262 25.7066 34.4252C25.7066 34.4252 25.7066 34.3932 25.7066 34.3413C25.6438 33.7266 25.2513 29.8064 25.1218 28.992C25.1218 28.8763 25.0786 28.7565 25.0551 28.6328C25.0119 28.4252 24.9687 28.2336 24.9177 28.01C25.3102 27.4551 25.8872 26.2136 25.7577 23.8224L25.9539 23.7825C26.1384 23.7505 26.3464 23.7186 26.5426 23.6986C26.6486 24.6368 27.0804 27.1278 28.5875 27.0918C30.3066 27.0479 30.5147 24.8803 30.55 23.6268C30.7855 23.6268 31.0563 23.6587 31.335 23.6906C31.3114 24.6088 31.4174 27.1517 32.5282 27.9182Z" fill="#C1063D"/>
<path d="M45.3309 47.9102C44.3064 48.5769 42.7875 48.026 42.7875 48.026C41.4923 45.5629 41.4059 41.0878 41.4059 41.0878C41.4059 41.0878 33.9172 40.521 30.9499 40.521C30.4167 40.5029 29.8883 40.6297 29.4192 40.8882C27.9631 41.7385 27.6098 43.9142 25.0468 45.9461C21.7774 48.5409 15.6937 48.9042 15.6937 48.9042C14.8067 48.2375 14.8577 46.6886 14.8577 46.6886C15.6177 45.8278 16.5146 45.1031 17.511 44.5449C17.844 44.3502 18.1873 44.1743 18.5393 44.018C19.7759 43.5034 20.9495 42.8443 22.0364 42.0539C23.1864 38.0938 25.6984 34.0699 25.6984 34.0699C27.802 34.5967 30.0108 34.4913 32.0568 33.7665C33.6267 33.7665 43.6 37.0359 44.907 38.0978C46.214 39.1597 46.3631 47.2435 45.3309 47.9102Z" fill="#535353"/>
<path d="M41.4064 41.0879C41.4064 41.0879 33.9176 40.521 30.9504 40.521C30.4171 40.5029 29.8888 40.6297 29.4197 40.8883C29.4197 40.8084 29.7533 39.1158 32.7088 39.2036C35.7231 39.2914 41.4064 41.0879 41.4064 41.0879Z" fill="#636363"/>
<path d="M18.3939 45.994C18.1343 45.9467 17.8685 45.9467 17.6089 45.994C17.3831 45.9608 17.1527 45.9897 16.9416 46.0779C16.9341 46.0846 16.9281 46.0929 16.924 46.1022C16.9199 46.1115 16.9177 46.1216 16.9177 46.1318C16.9177 46.142 16.9199 46.152 16.924 46.1613C16.9281 46.1706 16.9341 46.1789 16.9416 46.1856C17.1483 46.3062 17.3893 46.3513 17.6246 46.3134C17.8907 46.3476 18.1609 46.3118 18.4096 46.2096C18.4289 46.1984 18.4447 46.1818 18.4551 46.1619C18.4655 46.1419 18.4702 46.1193 18.4686 46.0968C18.4669 46.0742 18.459 46.0526 18.4458 46.0344C18.4326 46.0162 18.4146 46.0022 18.3939 45.994Z" fill="#747474"/>
<path d="M22.0793 44.9082C21.8242 44.8763 21.6201 45.2715 21.4984 45.4591C21.322 45.7225 21.2053 46.0224 21.157 46.3373C21.157 46.4611 21.3297 46.501 21.3807 46.4012C21.5181 46.1417 21.6201 45.8743 21.7732 45.6268C21.887 45.4471 22.1932 45.2276 22.1657 45.004C22.1642 44.9804 22.1548 44.9581 22.1391 44.9407C22.1234 44.9232 22.1023 44.9118 22.0793 44.9082Z" fill="#747474"/>
<path d="M23.9442 41.8942C23.7322 41.8303 23.5517 41.986 23.3436 42.0738C23.0955 42.1849 22.8577 42.3185 22.6332 42.4731C22.612 42.4868 22.5962 42.5077 22.5887 42.5322C22.5813 42.5566 22.5826 42.583 22.5926 42.6065C22.6025 42.6301 22.6203 42.6493 22.6429 42.6607C22.6654 42.672 22.6912 42.6749 22.7157 42.6687C22.9613 42.6089 23.2006 42.5246 23.43 42.4172C23.6262 42.3293 23.9167 42.2655 24.0109 42.0579C24.0185 42.0429 24.0228 42.0264 24.0236 42.0095C24.0243 41.9927 24.0213 41.9758 24.015 41.9602C24.0086 41.9447 23.999 41.9307 23.9868 41.9193C23.9745 41.9078 23.96 41.8993 23.9442 41.8942Z" fill="#747474"/>
<path d="M26.6951 40.6966C26.5596 40.9037 26.4427 41.1229 26.3458 41.3513C26.2392 41.5548 26.1435 41.764 26.0593 41.978C26.0004 42.1417 26.2555 42.2495 26.3379 42.0978C26.4204 41.9461 26.5263 41.6786 26.6127 41.467C26.7238 41.2445 26.8145 41.012 26.8835 40.7724C26.8934 40.747 26.893 40.7187 26.8823 40.6936C26.8716 40.6685 26.8516 40.6488 26.8266 40.6387C26.8016 40.6286 26.7737 40.6291 26.7491 40.6399C26.7244 40.6508 26.705 40.6712 26.6951 40.6966Z" fill="#747474"/>
<path d="M25.5847 37.02C25.5847 36.9361 25.4512 36.9481 25.4277 37.02C25.3007 37.572 25.2401 38.1377 25.2471 38.7046C25.2471 38.9321 25.5807 38.9281 25.5925 38.7046C25.6587 38.1449 25.6561 37.579 25.5847 37.02Z" fill="#747474"/>
<path d="M28.6342 36.3413C28.4996 36.1268 28.3095 35.9542 28.0847 35.8423C27.9199 35.7306 27.6569 35.527 27.4489 35.5908C27.4285 35.5981 27.4113 35.6126 27.4005 35.6316C27.3897 35.6507 27.386 35.673 27.39 35.6946C27.4371 35.8863 27.6922 36.014 27.8453 36.1178C27.9984 36.2216 28.2378 36.4851 28.4458 36.517C28.5439 36.5569 28.6813 36.4611 28.6342 36.3413Z" fill="#747474"/>
<path d="M32.2333 37.6188C31.6937 37.6279 31.1566 37.6975 30.632 37.8264C30.6049 37.8301 30.5804 37.8446 30.5638 37.8667C30.5473 37.8888 30.54 37.9166 30.5436 37.9442C30.5473 37.9717 30.5615 37.9966 30.5832 38.0135C30.605 38.0303 30.6324 38.0377 30.6594 38.034C31.2003 38.0639 31.7427 38.0318 32.2765 37.9382C32.457 37.9102 32.4099 37.6148 32.2333 37.6188Z" fill="#747474"/>
<path d="M33.8001 35.0879C33.5787 34.9921 33.3363 34.9576 33.0976 34.9881C32.8447 34.9561 32.589 34.9561 32.3361 34.9881C32.323 34.9952 32.3121 35.0059 32.3044 35.0189C32.2968 35.0319 32.2927 35.0468 32.2927 35.0619C32.2927 35.0771 32.2968 35.0919 32.3044 35.1049C32.3121 35.1179 32.323 35.1286 32.3361 35.1358C32.5764 35.2469 32.8343 35.3132 33.0976 35.3314C33.3344 35.4037 33.588 35.3953 33.8198 35.3074C33.8376 35.2945 33.8518 35.277 33.8609 35.2567C33.8701 35.2365 33.8738 35.2141 33.8718 35.1919C33.8698 35.1697 33.8622 35.1484 33.8496 35.1302C33.837 35.1119 33.82 35.0973 33.8001 35.0879Z" fill="#747474"/>
<path d="M36.0996 37.5908C36.0264 37.3807 35.9204 37.1839 35.7856 37.008C35.6746 36.8143 35.543 36.6335 35.3931 36.4691C35.3747 36.4508 35.351 36.4392 35.3254 36.4359C35.2999 36.4327 35.274 36.438 35.2518 36.4512C35.2295 36.4643 35.2121 36.4845 35.2022 36.5086C35.1923 36.5327 35.1904 36.5595 35.1969 36.5849C35.2703 36.7927 35.365 36.9921 35.4795 37.1797C35.5628 37.3865 35.681 37.577 35.8288 37.7425C35.8486 37.7791 35.8818 37.8061 35.9212 37.8177C35.9606 37.8293 36.0029 37.8245 36.0388 37.8044C36.0747 37.7843 36.1013 37.7505 36.1127 37.7104C36.1241 37.6704 36.1194 37.6274 36.0996 37.5908Z" fill="#747474"/>
<path d="M39.6716 37.519C39.227 37.3601 38.7457 37.3407 38.2901 37.4631C38.2655 37.4701 38.2442 37.4858 38.2302 37.5075C38.2161 37.5292 38.2102 37.5552 38.2136 37.581C38.2169 37.6067 38.2293 37.6303 38.2484 37.6476C38.2675 37.6648 38.292 37.6744 38.3175 37.6746C38.7416 37.7063 39.1628 37.7704 39.5774 37.8663C39.6227 37.879 39.6711 37.8729 39.712 37.8493C39.7528 37.8257 39.7828 37.7866 39.7953 37.7405C39.8078 37.6945 39.8018 37.6452 39.7786 37.6037C39.7554 37.5621 39.7169 37.5317 39.6716 37.519Z" fill="#747474"/>
<path d="M41.108 39.9661C41.0138 39.7864 40.7822 39.6826 40.6174 39.5669C40.436 39.4434 40.2442 39.3366 40.0443 39.2475C39.9384 39.2036 39.8677 39.3593 39.9384 39.4311C40.0962 39.5884 40.2684 39.73 40.4525 39.8543C40.6029 40.0028 40.7879 40.1099 40.9902 40.1657C41.1001 40.1856 41.1512 40.0499 41.108 39.9661Z" fill="#747474"/>
<path d="M43.7613 38.9641C43.6592 38.7445 43.3413 38.6886 43.1294 38.6128C42.8619 38.4945 42.579 38.4165 42.2894 38.3812C42.273 38.381 42.2568 38.3858 42.243 38.395C42.2292 38.4042 42.2185 38.4173 42.2122 38.4328C42.2058 38.4483 42.2042 38.4653 42.2075 38.4818C42.2107 38.4982 42.2188 38.5132 42.2306 38.5249C42.4498 38.683 42.6904 38.8081 42.9449 38.8962C43.1647 38.988 43.4708 39.1956 43.7103 39.0958C43.7229 39.0916 43.7345 39.0846 43.7442 39.0754C43.7539 39.0661 43.7614 39.0547 43.7663 39.0422C43.7712 39.0296 43.7732 39.016 43.7724 39.0025C43.7715 38.989 43.7677 38.9759 43.7613 38.9641Z" fill="#747474"/>
<path d="M43.502 40.8563C43.2979 41.3513 42.98 42.03 43.1291 42.5769C43.1341 42.5941 43.1439 42.6095 43.1574 42.6211C43.1709 42.6327 43.1875 42.6401 43.2051 42.6422C43.2226 42.6443 43.2404 42.6412 43.2562 42.6331C43.272 42.625 43.2851 42.6124 43.294 42.5968C43.4123 42.3457 43.4867 42.0755 43.5137 41.7984C43.5765 41.495 43.6354 41.1956 43.71 40.9002C43.761 40.7765 43.5569 40.7326 43.502 40.8563Z" fill="#747474"/>
<path d="M43.5376 45.9821C43.4407 45.7781 43.3077 45.5941 43.1452 45.4392C42.9935 45.235 42.8212 45.0477 42.631 44.8803C42.6154 44.8646 42.5948 44.8553 42.5729 44.854C42.551 44.8527 42.5294 44.8595 42.5121 44.8731C42.4949 44.8868 42.483 44.9064 42.4789 44.9283C42.4748 44.9502 42.4786 44.9728 42.4897 44.9921C42.609 45.217 42.7497 45.4296 42.9097 45.6268C43.0222 45.8198 43.1685 45.9903 43.3414 46.1298C43.3636 46.145 43.3899 46.1528 43.4166 46.1522C43.4434 46.1516 43.4693 46.1426 43.4908 46.1264C43.5123 46.1102 43.5284 46.0876 43.5368 46.0618C43.5451 46.036 43.5455 46.0081 43.5376 45.9821Z" fill="#747474"/>
<path d="M45.0836 43.4072C45.0836 43.0599 45.0561 42.7166 45.0247 42.3693C45.0201 42.3457 45.0076 42.3245 44.9894 42.3093C44.9711 42.2941 44.9482 42.2858 44.9246 42.2858C44.901 42.2858 44.8781 42.2941 44.8599 42.3093C44.8416 42.3245 44.8292 42.3457 44.8245 42.3693C44.7931 42.7166 44.7735 43.0599 44.7657 43.4072C44.7314 43.7153 44.7486 44.0271 44.8167 44.3294C44.8243 44.3524 44.8388 44.3724 44.8581 44.3866C44.8775 44.4008 44.9008 44.4084 44.9246 44.4084C44.9485 44.4084 44.9718 44.4008 44.9911 44.3866C45.0105 44.3724 45.025 44.3524 45.0326 44.3294C45.1008 44.0271 45.118 43.7153 45.0836 43.4072Z" fill="#747474"/>
<path d="M20.1489 44.3972C19.2745 44.5634 18.3826 44.613 17.4956 44.5449C17.8286 44.3502 18.1719 44.1743 18.5239 44.018C19.7606 43.5034 20.9342 42.8443 22.021 42.0539C22.0268 42.6053 21.8428 43.1413 21.5009 43.5693C21.159 43.9972 20.6807 44.2901 20.1489 44.3972Z" fill="#636363"/>
<path d="M52.8158 46.8643V48.03C52.8152 48.1486 52.7855 48.2652 52.7295 48.3693C52.6628 48.497 52.596 48.6248 52.5372 48.7286C52.45 48.9168 52.4152 49.1257 52.4367 49.3327C52.4581 49.5396 52.535 49.7366 52.6588 49.9022C52.7565 50.0259 52.8116 50.1787 52.8158 50.3373V52.1178C52.8158 52.2237 52.7745 52.3252 52.7009 52.4001C52.6273 52.4749 52.5274 52.517 52.4233 52.517H49.7936C49.6895 52.517 49.5897 52.4749 49.5161 52.4001C49.4425 52.3252 49.4011 52.2237 49.4011 52.1178V50.3413C49.4054 50.1827 49.4605 50.0299 49.5581 49.9062C49.6826 49.7402 49.7601 49.5427 49.7822 49.3352C49.8043 49.1276 49.7703 48.9179 49.6837 48.7286C49.6209 48.6248 49.5542 48.493 49.4836 48.3613C49.4287 48.2569 49.4004 48.1403 49.4011 48.022V46.8643C49.4005 46.7198 49.4124 46.5755 49.4365 46.4331C49.4945 46.0945 49.6261 45.7733 49.8217 45.4929C50.0172 45.2125 50.2718 44.98 50.5668 44.8124V44.3134H51.6266V44.8124C51.9187 44.9778 52.1715 45.2066 52.3668 45.4826C52.5622 45.7586 52.6954 46.0749 52.757 46.4092C52.7896 46.5588 52.8093 46.7111 52.8158 46.8643Z" fill="#474747"/>
<path d="M51.3243 44.6048H50.9083C50.7809 44.6027 50.6596 44.5495 50.5706 44.4567C50.4816 44.364 50.4323 44.2393 50.4334 44.1098C50.4334 43.9806 50.4838 43.8567 50.5736 43.7654C50.6634 43.6741 50.7852 43.6227 50.9122 43.6227H51.3282C51.4556 43.6227 51.5778 43.6739 51.6682 43.7651C51.7587 43.8564 51.81 43.9802 51.811 44.1098C51.8115 44.1749 51.7993 44.2395 51.775 44.2998C51.7508 44.3601 51.7149 44.4149 51.6696 44.461C51.6243 44.507 51.5705 44.5435 51.5112 44.5682C51.4519 44.5929 51.3884 44.6053 51.3243 44.6048Z" fill="#727272"/>
<path d="M52.8157 46.8643V47.7984H49.4207V46.8603C49.4201 46.7158 49.4319 46.5715 49.456 46.4291C49.974 46.1758 50.5414 46.0442 51.1162 46.0442C51.691 46.0442 52.2585 46.1758 52.7765 46.4291C52.8014 46.5728 52.8146 46.7184 52.8157 46.8643Z" fill="#727272"/>
<path d="M52.8157 50.4292V50.6128C52.3486 50.6128 51.8816 50.5929 51.4184 50.6128C50.9553 50.6328 49.6522 50.6727 49.4207 50.6807V50.549L50.0565 50.521C50.4922 50.4891 52.329 50.4332 52.8157 50.4292Z" fill="#727272"/>
<path d="M52.816 51.012V51.1725C52.2979 51.1725 51.7759 51.1725 51.246 51.1725C50.6338 51.1725 50.0215 51.1725 49.4092 51.1404V51.0321C50.0411 51.0441 52.2979 51.02 52.816 51.012Z" fill="#727272"/>
<path d="M19.2464 18.7086C17.8413 18.505 16.4283 18.3892 15.0271 18.1417C14.3468 18.0166 13.6691 17.8836 12.994 17.7425C12.3779 17.5559 11.7371 17.467 11.0943 17.479C11.0237 17.479 10.9923 17.6028 11.0943 17.6188C13.7947 18.1018 16.4754 18.8842 19.2307 18.98C19.3602 18.98 19.3995 18.7285 19.2464 18.7086Z" fill="#C1063D"/>
<path d="M21.6565 16.5809C20.7733 15.9222 19.8117 15.3514 18.8776 14.7685C18.7756 14.7047 18.6892 14.8603 18.7834 14.9322C19.6783 15.5749 20.5732 16.2576 21.5309 16.8244C21.6722 16.9162 21.782 16.6847 21.6565 16.5809Z" fill="#C1063D"/>
<path d="M36.736 13.0679C36.1141 13.5292 35.5252 14.0348 34.9737 14.5808C34.3649 15.0536 33.8233 15.6098 33.3645 16.2335C33.3571 16.2458 33.354 16.2602 33.3557 16.2744C33.3573 16.2887 33.3636 16.3019 33.3736 16.3121C33.3836 16.3222 33.3966 16.3286 33.4106 16.3303C33.4246 16.332 33.4388 16.3289 33.4508 16.3214C34.05 15.9031 34.6039 15.4213 35.1032 14.8842C35.6959 14.3453 36.3435 13.8543 36.9008 13.2874C37.0029 13.1836 36.8655 12.988 36.736 13.0679Z" fill="#C1063D"/>
<path d="M42.4383 17.7705L38.7449 17.986C37.5854 18.0064 36.4281 18.097 35.2792 18.2575C35.1693 18.2774 35.2046 18.4371 35.3027 18.4451C36.4933 18.4771 37.6846 18.4371 38.8705 18.3254C40.048 18.2655 41.249 18.1976 42.4383 18.1337C42.6698 18.1218 42.6698 17.7585 42.4383 17.7705Z" fill="#C1063D"/>
<path d="M27.7909 16.1537C27.6889 16.6727 28.2344 16.9521 28.3129 17C28.0788 16.949 27.8367 16.949 27.6025 17C27.575 16.8643 27.3513 16.7804 27.2689 16.6687C27.1668 16.5313 27.1154 16.3617 27.1237 16.1896C27.1371 16.0652 27.1773 15.9452 27.2414 15.8383C27.3262 15.6844 27.446 15.5534 27.5908 15.4561C27.7355 15.3589 27.901 15.2983 28.0735 15.2794C28.2267 15.265 28.3811 15.2866 28.5247 15.3427C28.6684 15.3988 28.7973 15.4878 28.9017 15.6028C28.3483 15.491 27.893 15.6467 27.7909 16.1537Z" fill="#434343"/>
<path d="M29.7407 30.9002C29.5313 30.9092 29.3258 30.9608 29.1363 31.0519L28.7752 31.2156L28.4376 31.3553C28.1275 31.1637 28.0647 30.9801 28.2453 30.8004C28.4808 30.2974 29.2069 30.002 29.6151 29.6866C30.1096 29.2874 30.5924 28.489 29.6661 28.3334C28.7398 28.1777 27.2366 28.6767 26.7224 29.495C26.6949 29.5349 26.746 29.5749 26.7813 29.5549C27.2219 29.2614 27.6794 28.9948 28.1511 28.7565C28.3414 28.687 28.537 28.6336 28.7359 28.5968C28.9871 28.5489 30.1489 28.3094 29.8192 29.1517C29.7014 29.4551 29.203 29.6827 28.9439 29.8623C28.6549 30.0395 28.3908 30.2557 28.1589 30.505C27.9745 30.7246 27.6605 31.2036 27.9391 31.4671C28.1432 31.6627 28.4337 31.531 28.6535 31.4431C28.7791 31.3952 28.9008 31.3274 29.046 31.2715C29.4385 30.992 29.6975 31.1397 29.8663 31.7226C29.7393 31.8497 29.5969 31.9597 29.4424 32.0499C29.3403 32.1138 29.4424 32.2775 29.5327 32.2136C29.8035 32.0379 30.3177 31.6906 30.2863 31.2994C30.2583 31.177 30.1876 31.069 30.0872 30.9956C29.9869 30.9221 29.8637 30.8883 29.7407 30.9002Z" fill="#535353"/>
</g>
<defs>
<clipPath id="clip0_0_4907">
<rect width="55" height="46" fill="white" transform="translate(2 7)"/>
</clipPath>
</defs>
</svg>
