<svg width="300" height="350" viewBox="0 0 300 350" fill="none" xmlns="http://www.w3.org/2000/svg">
<ellipse opacity="0.5" cx="150" cy="193.943" rx="150" ry="156.057" fill="white"/>
<g clip-path="url(#clip0_0_4519)">
<path d="M143.525 325.21C138.348 325.217 133.185 324.671 128.125 323.58C119.277 321.766 110.944 318.015 103.726 312.599C96.5077 307.182 90.5846 300.235 86.3839 292.258C83.0417 284.804 80.5627 276.994 78.995 268.98L78.632 267.428C73.4468 245.417 66.9136 222.113 54.858 201.059C52.9136 197.671 50.7876 194.283 48.7395 190.998C43.7797 183.613 39.5677 175.755 36.1655 167.539C30.9803 153.417 31.9914 139.45 39.0692 130.19C40.0012 128.753 41.2138 127.517 42.6347 126.558C44.0556 125.598 45.6557 124.933 47.3395 124.604C48.3661 124.497 49.4037 124.595 50.3919 124.893C51.38 125.19 52.299 125.681 53.0951 126.336C53.7122 126.827 54.2183 127.443 54.5802 128.143C54.9421 128.843 55.1517 129.611 55.1951 130.397H53.5098C53.4693 129.849 53.3147 129.315 53.0558 128.83C52.7969 128.344 52.4394 127.918 52.0062 127.578C51.3906 127.068 50.6789 126.686 49.913 126.455C49.1471 126.224 48.3426 126.149 47.5469 126.233C44.6261 126.897 42.0732 128.657 40.4173 131.147C33.7025 139.967 32.6395 153.339 37.8247 166.892C41.1792 175.049 45.3483 182.847 50.2691 190.17C52.3172 193.455 54.4432 196.843 56.4136 200.258C68.5728 221.518 75.1061 244.952 80.3691 267.092L80.732 268.644C82.2724 276.524 84.7079 284.204 87.9913 291.534C92.0777 299.28 97.8371 306.024 104.854 311.28C111.87 316.535 119.969 320.171 128.565 321.925C145.938 325.294 163.939 322.81 179.743 314.864C186.088 312.037 191.821 308.005 196.621 302.992C201.471 297.107 205.213 290.395 207.665 283.18C211.995 271.851 215.443 259.901 218.554 248.366C223.35 231.192 228.302 213.449 236.702 197.361C239.165 192.653 241.887 188.024 244.636 183.523C249.786 175.504 254.128 166.997 257.598 158.124C260.58 149.666 260.71 142.735 258.013 137.432C257.067 135.692 255.747 134.181 254.146 133.01C252.546 131.838 250.706 131.035 248.758 130.656C247.408 130.337 246.001 130.337 244.651 130.656C243.301 130.975 242.044 131.604 240.98 132.492L239.865 131.225C241.118 130.171 242.599 129.419 244.19 129.029C245.782 128.639 247.443 128.62 249.043 128.975C251.235 129.433 253.299 130.366 255.091 131.706C256.883 133.047 258.358 134.763 259.413 136.734C262.343 142.424 262.213 149.666 259.076 158.693C255.571 167.694 251.158 176.317 245.906 184.428C243.313 188.877 240.462 193.481 238.128 198.163C229.832 214.095 224.906 231.786 220.136 248.857C216.895 260.444 213.55 272.394 209.195 283.8C206.663 291.215 202.807 298.111 197.813 304.156C192.874 309.332 186.964 313.489 180.417 316.39C168.936 322.047 156.329 325.061 143.525 325.21Z" fill="#C1063D"/>
<path d="M162.556 23.9129C163.904 21.7841 164.673 19.3415 164.786 16.826C164.928 15.7047 164.823 14.5657 164.478 13.4891C164.133 12.4124 163.557 11.4238 162.789 10.5925C162.141 9.94593 161.337 9.48036 160.741 8.80788C160.145 8.1354 159.86 7.43714 159.367 6.79052C158.83 6.09783 158.143 5.53546 157.358 5.14572C156.572 4.75599 155.708 4.54902 154.83 4.54031C153.041 4.54031 151.149 5.39384 149.645 4.54031C148.712 4.07475 148.089 3.14365 147.182 2.62636C146.193 2.1371 145.058 2.02653 143.993 2.31584C143.069 2.63825 142.093 2.78744 141.115 2.75565C139.689 2.54873 138.73 1.30718 137.486 0.60884C136.846 0.282552 136.142 0.0998918 135.425 0.0735196C134.707 0.0471474 133.991 0.17771 133.329 0.456185C132.667 0.734659 132.074 1.15422 131.592 1.68548C131.11 2.21674 130.75 2.84683 130.538 3.53155C130.382 4.18635 130.382 4.86839 130.538 5.52318C130.823 7.10092 131.912 8.36819 131.989 9.94593C132.067 11.5237 131.108 12.8946 131.989 14.2654C132.871 15.6363 134.167 15.7137 134.789 17.0328C135.619 18.8433 134.789 21.1454 135.541 23.0852C135.93 24.3008 136.138 26.0338 137.278 26.8097C138.86 27.896 142.334 26.9908 144.2 26.8097C146.637 26.6287 149.1 26.4218 151.538 26.189C154.778 25.9045 158.771 26.3183 161.7 24.6113C162.021 24.4255 162.31 24.1897 162.556 23.9129Z" fill="#452626"/>
<path d="M137.667 22.7746C137.409 22.422 137.072 22.135 136.683 21.9372C136.293 21.7393 135.862 21.6361 135.425 21.6361C134.987 21.6361 134.556 21.7393 134.167 21.9372C133.777 22.135 133.44 22.422 133.183 22.7746C130.928 25.3611 134.738 30.534 137.667 30.8444C137.837 28.1571 137.837 25.4619 137.667 22.7746Z" fill="#E0855C"/>
<path d="M174.094 66.0979C173.405 70.4536 172.488 74.7704 171.346 79.0302C171.164 79.8061 171.034 80.582 170.905 81.3579C170.775 82.1338 170.697 82.677 170.594 83.634C170.579 83.8234 170.579 84.0137 170.594 84.2031C170.594 84.8238 170.412 85.4705 170.334 86.1688L167.068 116.56C146.768 122.121 125.586 116.56 125.586 116.56C125.586 116.56 125.586 116.172 125.586 115.422C125.249 111.982 124.212 101.015 123.175 88.7035C123.188 88.6091 123.188 88.5134 123.175 88.419C123.185 88.2381 123.185 88.0567 123.175 87.8758C122.735 82.7029 122.32 77.2196 121.983 71.9949C121.36 62.9164 120.972 54.5364 121.075 49.3376C121.075 47.4237 125.535 47.6306 128.594 47.2167C130.849 46.8805 133.157 46.6994 135.153 46.5701C137.149 46.4408 138.653 46.5701 139.664 46.5701H140.805L141.064 43.5697L141.764 36.2759C142.104 36.3634 142.451 36.424 142.801 36.457C143.445 36.5642 144.094 36.6334 144.746 36.6639C145.548 36.7168 146.354 36.7168 147.157 36.6639H148.272H148.92C149.646 36.5432 150.346 36.3881 151.02 36.1984L152.264 35.8103C154.165 35.2226 155.966 34.3505 157.605 33.2239L157.838 33.0687L158.279 32.7324C158.398 32.6782 158.504 32.5989 158.59 32.4998C158.59 32.8877 158.59 33.0428 158.46 33.198C158.253 34.9051 158.02 37.0777 157.916 39.2245C157.916 40.7246 157.76 42.1731 157.709 43.4663C157.657 44.7596 157.242 46.5701 158.149 47.1908C158.463 47.3932 158.817 47.5254 159.186 47.5787C160.606 47.8287 162.049 47.9243 163.49 47.8633H164.812C165.917 47.7859 167.026 47.7859 168.131 47.8633C168.904 47.8551 169.671 48.0045 170.384 48.3025C171.097 48.6005 171.742 49.0408 172.279 49.5962C173.055 50.6408 173.538 51.8728 173.679 53.1656L173.99 55.2865C174.423 58.8755 174.458 62.5012 174.094 66.0979Z" fill="#F5A784"/>
<path d="M158.459 32.0599C158.109 33.9109 157.351 35.6615 156.242 37.1857C155.132 38.7098 153.698 39.9698 152.042 40.875C150.386 41.7801 148.549 42.308 146.665 42.4206C144.78 42.5333 142.893 42.2279 141.141 41.5265L141.633 36.1725C144.569 36.7375 147.593 36.6626 150.497 35.9527C153.402 35.2429 156.118 33.9149 158.459 32.0599Z" fill="#E0855C"/>
<path d="M138.184 15.0152C136.681 16.567 136.551 20.0328 136.447 23.8608C136.058 35.4999 139.558 39.121 145.495 39.7676C151.432 40.4142 157.681 38.1123 158.951 27.3267C159.599 21.9469 160.273 16.9808 158.329 14.653C155.399 11.1613 142.747 10.2561 138.184 15.0152Z" fill="#F5A784"/>
<path d="M158.121 25.7749C158.121 25.7749 159.962 20.9641 162.813 23.5247C165.664 26.0853 161.724 33.3533 157.344 32.8102C157.344 32.9395 156.722 27.4302 158.121 25.7749Z" fill="#F5A784"/>
<path d="M161.492 25.6974C160.822 25.9295 160.217 26.3199 159.73 26.8354C159.202 27.2879 158.77 27.8421 158.461 28.4649C158.461 28.6718 158.642 28.7751 158.772 28.6717C158.901 28.5682 159.445 27.8957 159.808 27.5336C160.029 27.8188 160.313 28.0491 160.637 28.2061C160.896 28.2061 161.104 27.9734 161 27.7406C160.812 27.4807 160.574 27.2609 160.3 27.094C160.778 26.7763 161.237 26.431 161.674 26.0595C161.711 26.03 161.737 25.9885 161.747 25.9422C161.757 25.8959 161.751 25.8474 161.73 25.805C161.709 25.7626 161.673 25.7288 161.63 25.7092C161.587 25.6896 161.538 25.6854 161.492 25.6974Z" fill="#E0855C"/>
<path d="M141.557 23.6023C141.557 23.6023 140.546 23.9644 140.702 22.1798C140.857 20.3951 141.557 20.8089 141.557 20.8089C141.557 20.8089 142.256 20.8088 142.153 22.2055C142.049 23.6022 141.557 23.6023 141.557 23.6023Z" fill="#452626"/>
<path d="M151.768 23.6023C151.768 23.6023 150.757 23.9644 150.913 22.1798C151.068 20.3951 151.768 20.8089 151.768 20.8089C151.768 20.8089 152.467 20.8088 152.338 22.2055C152.208 23.6022 151.768 23.6023 151.768 23.6023Z" fill="#452626"/>
<path d="M142.642 18.1964C142.238 17.9583 141.766 17.8574 141.299 17.9087C140.832 17.9599 140.395 18.1607 140.051 18.4809C140.034 18.5163 140.026 18.5556 140.027 18.5951C140.029 18.6345 140.041 18.6729 140.062 18.7065C140.082 18.7401 140.111 18.768 140.146 18.7873C140.18 18.8067 140.219 18.8169 140.259 18.8172C140.621 18.8172 140.932 18.6103 141.295 18.5845C141.675 18.5664 142.055 18.6281 142.409 18.7655C142.746 18.869 142.979 18.3516 142.642 18.1964Z" fill="#452626"/>
<path d="M153.273 19.076C152.858 18.0414 151.07 17.9379 150.319 18.5845C150.282 18.6108 150.251 18.6457 150.23 18.6862C150.209 18.7267 150.198 18.7716 150.198 18.8172C150.198 18.8629 150.209 18.9079 150.23 18.9484C150.251 18.9889 150.282 19.0238 150.319 19.0501C150.784 19.1017 151.253 19.1017 151.718 19.0501C152.095 19.1106 152.461 19.2238 152.806 19.3863C153.117 19.4898 153.35 19.257 153.273 19.076Z" fill="#452626"/>
<path d="M143.605 31.9306C145.791 32.2166 148.014 31.8381 149.981 30.8444C149.687 31.5345 149.251 32.1556 148.702 32.6679C148.153 33.1801 147.503 33.5722 146.793 33.8189C144.538 34.4396 143.605 31.9306 143.605 31.9306Z" fill="white"/>
<path d="M130.511 49.3118C136.474 53.476 137.018 61.5716 134.115 68.0119C132.144 72.3571 128.489 75.3833 126.337 79.4699C124.088 83.4294 121.485 87.1779 118.559 90.6693C112.13 98.8166 106.011 106.188 103.652 108.981C95.5111 118.707 78.4518 131.432 72.3073 135.881L70.0778 137.484C70.0778 137.484 64.1925 134.381 65.7481 128.69C65.7481 128.69 89.0815 103.99 92.5296 98.946C96.335 92.3787 99.7964 85.6189 102.9 78.694C106.875 71.038 111.015 63.4682 115.318 55.9848C117.289 52.5706 119.804 48.2254 124.133 47.4754C125.931 47.2526 127.753 47.6253 129.318 48.5359C129.73 48.7723 130.128 49.0313 130.511 49.3118Z" fill="#F5A784"/>
<path d="M65.7756 128.638C66.4141 128.589 67.0555 128.589 67.694 128.638C67.694 128.638 73.32 131.742 72.3348 135.777L70.8052 137.148C69.9756 137.924 68.8607 138.958 67.6422 140.174C66.4237 141.39 63.6496 145.347 62.457 145.037C62.1773 144.925 61.9347 144.736 61.7571 144.493L59.3459 141.907C57.9978 140.433 55.7423 137.898 57.4534 135.88C56.2089 136.631 53.3052 138.467 51.8793 137.588L51.3867 136.656C51.3867 136.656 55.6645 133.475 57.4274 131.897C59.7718 129.919 62.708 128.773 65.7756 128.638Z" fill="#F5A784"/>
<path d="M137.59 88.9364C137.578 89.0743 137.578 89.2129 137.59 89.3509C137.59 89.4804 137.823 89.4804 137.771 89.3509L137.59 88.9364Z" fill="#D6BED3"/>
<path d="M147.286 172.738C144.901 191.826 142.101 208.405 142.101 208.405C142.49 213.009 142.672 218.001 142.672 223.122C142.672 233.132 142.023 243.814 141.142 253.202C140.053 265.178 138.549 275.368 137.901 280.464V281.11C138.86 315.071 129.164 319.597 124.627 312.148C120.09 304.699 124.627 282.843 124.627 282.843C124.639 282.654 124.639 282.464 124.627 282.274C122.72 272.112 121.447 261.841 120.816 251.521C119.26 226.536 121.931 209.44 121.62 206.31C116.201 151.994 123.772 122.069 123.772 122.069C124.96 117.712 127.093 113.668 130.02 110.223C135.542 104.274 142.179 105.8 146.353 113.068C146.797 113.81 147.195 114.579 147.546 115.37C149.259 119.541 150.224 123.979 150.397 128.483C150.735 139.734 149.153 157.09 147.286 172.738Z" fill="#F5A784"/>
<path d="M173.989 250.202C173.403 260.764 172.139 271.278 170.204 281.679L169.97 282.947C169.97 282.947 174.507 304.932 169.97 312.251C165.433 319.571 155.841 315.122 156.696 281.576C156.696 281.421 156.696 281.266 156.696 281.11C155.97 276.274 154.519 265.592 153.378 253.28C152.522 243.788 151.822 233.209 151.822 223.148C151.822 217.975 152.03 213.035 152.419 208.405C152.419 208.405 149.541 191.826 147.233 172.789C145.289 157.09 143.681 139.734 144.356 128.587C144.549 124.083 145.523 119.646 147.233 115.473C147.573 114.661 147.972 113.874 148.426 113.12C153.222 104.817 161.207 104.093 167.093 113.43C168.757 116.167 170.064 119.105 170.981 122.172C170.981 122.172 178.552 152.02 173.133 206.413C172.796 209.491 175.363 225.993 173.989 250.202Z" fill="#F5A784"/>
<path d="M65.1795 145.528C65.6836 146.133 66.3192 146.615 67.038 146.937C67.7568 147.26 68.5398 147.415 69.3276 147.39C69.6895 147.306 70.0306 147.15 70.3302 146.931C70.6298 146.712 70.8817 146.434 71.0707 146.115C71.2598 145.796 71.382 145.442 71.4299 145.074C71.4779 144.706 71.4507 144.333 71.3499 143.976C71.0254 143.224 70.5385 142.553 69.924 142.01C65.9832 138.148 61.9733 134.372 57.8943 130.682C57.2141 129.917 56.305 129.391 55.3017 129.182C54.3658 129.171 53.4573 129.497 52.7429 130.1C52.0286 130.704 51.5563 131.544 51.4128 132.466C51.4128 134.122 52.8388 134.742 54.0054 135.674C57.7128 138.803 61.3943 142.243 65.1795 145.528Z" fill="#452626"/>
<path d="M64.5789 140.95C64.7402 140.784 64.8717 140.591 64.9677 140.381C65.0336 140.109 65.0376 139.827 64.9793 139.554C64.921 139.281 64.8018 139.024 64.6307 138.803C63.6716 137.251 61.7017 134.717 59.7577 134.484C59.1163 134.454 58.4781 134.59 57.9056 134.881C57.333 135.171 56.8459 135.605 56.4919 136.139C55.9313 136.959 55.5732 137.9 55.4471 138.884C55.321 139.869 55.4303 140.869 55.7661 141.804C56.3432 143.512 57.5098 144.96 59.0579 145.89C59.8342 146.211 60.7043 146.224 61.4898 145.926C62.2754 145.628 62.9169 145.041 63.2829 144.286C63.6717 143.329 63.5421 142.166 64.1901 141.364C64.3061 141.214 64.4362 141.075 64.5789 140.95Z" fill="#F5A784"/>
<path d="M163.801 49.3117C157.812 53.4759 157.268 61.5714 160.197 68.0117C162.142 72.357 165.823 75.3831 167.975 79.4697C170.242 83.4178 172.844 87.1647 175.753 90.6692C182.183 98.8165 188.327 106.188 190.686 108.981C198.801 118.706 215.886 131.432 222.005 135.88L224.26 137.484C224.26 137.484 230.119 134.38 228.59 128.69C228.59 128.69 205.257 103.989 201.782 98.9459C197.977 92.3788 194.515 85.619 191.412 78.6938C187.454 71.0379 183.306 63.4681 178.968 55.9846C176.997 52.5705 174.508 48.2253 170.153 47.4752C168.406 47.2812 166.642 47.6531 165.123 48.5358C164.664 48.7615 164.222 49.0208 163.801 49.3117Z" fill="#F5A784"/>
<path d="M228.539 128.638C227.891 128.59 227.241 128.59 226.594 128.638C226.594 128.638 220.994 131.742 221.953 135.777C221.953 135.777 222.576 136.294 223.483 137.148C224.39 138.001 225.453 138.959 226.646 140.174C227.838 141.39 230.664 145.347 231.961 145.037C232.237 144.918 232.478 144.731 232.661 144.493L235.046 141.907C236.42 140.433 238.65 137.898 236.964 135.881C238.183 136.631 241.087 138.467 242.538 137.588L243.031 136.656C243.031 136.656 238.753 133.475 236.964 131.897C234.604 129.894 231.635 128.746 228.539 128.638Z" fill="#F5A784"/>
<path d="M229.135 145.528C228.618 146.125 227.976 146.601 227.255 146.922C226.534 147.244 225.751 147.404 224.96 147.39C224.599 147.306 224.258 147.15 223.958 146.931C223.658 146.712 223.406 146.434 223.217 146.115C223.028 145.796 222.906 145.442 222.858 145.074C222.81 144.706 222.837 144.333 222.938 143.976C223.263 143.218 223.76 142.545 224.39 142.01C228.296 138.148 232.306 134.372 236.42 130.682C237.13 129.888 238.09 129.359 239.142 129.182C240.073 129.177 240.976 129.506 241.685 130.109C242.394 130.712 242.862 131.548 243.005 132.466C243.005 134.122 241.605 134.742 240.412 135.674C236.575 138.803 232.842 142.243 229.135 145.528Z" fill="#452626"/>
<path d="M229.728 140.95C229.551 140.792 229.41 140.598 229.313 140.381C229.26 140.107 229.264 139.826 229.327 139.554C229.389 139.282 229.508 139.026 229.676 138.803C230.609 137.251 232.579 134.717 234.523 134.484C235.165 134.451 235.804 134.587 236.377 134.877C236.95 135.168 237.437 135.603 237.789 136.139C238.356 136.957 238.717 137.897 238.844 138.883C238.97 139.869 238.857 140.87 238.515 141.804C237.957 143.522 236.785 144.976 235.223 145.89C234.447 146.212 233.577 146.225 232.791 145.926C232.006 145.628 231.364 145.041 230.998 144.287C230.635 143.33 230.765 142.166 230.117 141.364L229.728 140.95Z" fill="#F5A784"/>
<path d="M174.38 233.623V236.209C174.38 237.916 174.38 239.727 174.38 241.563C174.38 242.262 174.38 242.934 174.38 243.658C174.38 245.779 174.225 247.952 174.121 250.228C167.408 252.075 160.497 253.109 153.536 253.306C153.251 250.409 152.68 242.701 152.654 241.848C152.654 240.063 152.291 235.123 152.24 234.45C152.084 230.674 151.98 226.898 151.98 223.174C151.98 218.363 152.162 213.681 152.525 209.31C152.525 209 152.525 208.715 152.525 208.431C152.525 208.146 149.647 191.852 147.34 172.815C147.08 174.833 146.821 176.85 146.562 178.79C144.384 195.188 142.077 208.431 142.077 208.431C142.465 213.035 142.647 218.026 142.647 223.148C142.647 227.027 142.647 230.907 142.388 234.994C142.388 235.666 141.843 244.305 141.765 245.133C141.584 247.9 141.351 250.616 141.117 253.228C137.514 253.073 133.91 252.814 130.358 252.53C127.558 252.271 124.032 252.142 120.61 251.65C120.454 249.323 120.351 247.073 120.273 244.926C120.273 244.383 120.273 243.814 120.273 243.296C120.273 240.917 120.273 238.666 120.273 236.468V234.683C120.273 219.009 121.802 208.819 121.569 206.232C116.151 151.917 123.721 121.991 123.721 121.991C124.91 117.634 127.043 113.59 129.969 110.145C132.19 110.51 134.369 111.09 136.477 111.878C139.685 112.7 142.991 113.074 146.302 112.99H148.688C151.565 112.99 154.443 112.654 157.295 112.576H159.214C161.947 112.548 164.676 112.808 167.354 113.352C169.019 116.089 170.326 119.027 171.243 122.095C173.251 131.916 174.387 141.896 174.639 151.917C175.531 170.12 175.02 188.365 173.11 206.491C172.877 208.819 174.251 218.596 174.38 233.623Z" fill="#452626"/>
<path d="M70.4658 46.3115C70.4658 46.1563 70.1549 46.1563 70.1289 46.3115C68.8335 55.1313 69.5849 64.4168 69.5849 73.4177C69.5849 82.9617 69.2999 92.5833 69.844 102.127C69.8685 102.229 69.9265 102.319 70.0088 102.384C70.091 102.449 70.1927 102.484 70.2974 102.484C70.4021 102.484 70.5037 102.449 70.586 102.384C70.6682 102.319 70.7263 102.229 70.7508 102.127C71.2949 92.5833 70.984 82.9617 70.984 73.4177C71.0099 64.5461 71.7353 55.1313 70.4658 46.3115Z" fill="#E8CEE5"/>
<path d="M81.7975 49.2341C81.7975 49.09 81.7402 48.9519 81.6382 48.85C81.5362 48.7481 81.3978 48.691 81.2535 48.691C81.1092 48.691 80.9707 48.7481 80.8687 48.85C80.7667 48.9519 80.7094 49.09 80.7094 49.2341C80.7094 57.7177 80.1394 66.3565 80.7094 74.8142C80.7094 74.9583 80.7667 75.0965 80.8687 75.1983C80.9707 75.3002 81.1092 75.3575 81.2535 75.3575C81.3978 75.3575 81.5362 75.3002 81.6382 75.1983C81.7402 75.0965 81.7975 74.9583 81.7975 74.8142C82.4712 66.3565 81.8493 57.7177 81.7975 49.2341Z" fill="#E8CEE5"/>
<path d="M197.711 138.053C197.689 137.977 197.644 137.909 197.581 137.861C197.517 137.813 197.44 137.787 197.361 137.787C197.281 137.787 197.204 137.813 197.141 137.861C197.078 137.909 197.032 137.977 197.011 138.053C196.294 149.152 196.147 160.279 196.571 171.393C196.571 182.515 196.571 193.636 196.985 204.758C197.007 204.841 197.056 204.914 197.124 204.966C197.192 205.018 197.275 205.047 197.361 205.047C197.446 205.047 197.53 205.018 197.598 204.966C197.666 204.914 197.714 204.841 197.736 204.758C198.099 193.636 198.099 182.515 198.151 171.393C198.574 160.279 198.427 149.152 197.711 138.053Z" fill="#E8CEE5"/>
<path d="M217.778 73.0036C217.697 65.6028 217.212 58.2118 216.327 50.8635C216.327 50.4238 215.627 50.5532 215.601 50.8635C215.377 58.7581 215.593 66.6591 216.249 74.5297C216.56 81.8753 216.482 89.4277 217.467 96.7473C217.467 97.4198 218.607 97.2129 218.632 96.5663C218.995 88.8586 218.166 80.8148 217.778 73.0036Z" fill="#E8CEE5"/>
<path d="M222.987 77.1162C222.969 77.0583 222.933 77.0077 222.884 76.9718C222.835 76.9358 222.776 76.9165 222.715 76.9165C222.654 76.9165 222.595 76.9358 222.546 76.9718C222.497 77.0077 222.461 77.0583 222.443 77.1162C221.756 87.7427 221.704 98.4004 222.287 109.033C222.311 109.128 222.366 109.213 222.443 109.274C222.521 109.334 222.616 109.367 222.715 109.367C222.813 109.367 222.909 109.334 222.986 109.274C223.064 109.213 223.119 109.128 223.142 109.033C223.725 98.4004 223.673 87.7427 222.987 77.1162Z" fill="#E8CEE5"/>
<path d="M146.429 178.764C146.467 176.75 146.727 174.746 147.206 172.789C146.947 174.807 146.688 176.824 146.429 178.764Z" fill="#291B30"/>
<path d="M174.638 151.917C171.138 130.94 142.256 129.958 142.256 129.958C140.441 121.189 152.108 118.629 152.108 118.629L158.927 112.732C161.66 112.703 164.389 112.963 167.067 113.508C168.732 116.244 170.039 119.182 170.956 122.25C173.034 132.015 174.266 141.941 174.638 151.917Z" fill="black"/>
<path d="M171.448 124.423C148.115 135.363 122.76 125.328 122.76 125.328C124.6 120.155 123.226 93.773 123.097 88.7553C123.109 88.6609 123.109 88.565 123.097 88.4706C123.107 88.2897 123.107 88.1085 123.097 87.9276C127.997 76.5989 128.541 54.7691 128.567 47.2683C130.771 46.9321 133.078 46.751 135.074 46.6217C135.852 55.0277 138.626 76.5212 146.352 75.5901C154.078 74.659 157.759 55.5192 159.108 47.139C160.526 47.4025 161.971 47.498 163.411 47.4235H164.734C164.059 58.8815 170.437 82.9615 170.645 83.634C170.63 83.8234 170.63 84.0137 170.645 84.2031C170.645 84.8238 170.463 85.4705 170.385 86.1688C170.385 86.1688 170.385 86.4533 170.385 86.6085C168.726 101.17 171.448 124.423 171.448 124.423Z" fill="#C1063D"/>
</g>
<defs>
<clipPath id="clip0_0_4519">
<rect x="18" width="266" height="277" rx="10" fill="white"/>
</clipPath>
</defs>
</svg>
