<svg width="70" height="73" viewBox="0 0 70 73" fill="none" xmlns="http://www.w3.org/2000/svg">
<g clip-path="url(#clip0_0_2018)">
<path d="M4.61667 60.4371H64.4874L69.1023 67.7659H0L4.61667 60.4371Z" fill="#C1063D"/>
<path d="M35.1902 35.6356L40.2468 34.3212C40.6667 34.8968 41.0549 35.4951 41.4095 36.1135C41.8331 36.8685 42.0819 37.6488 42.5542 38.0073C43.0265 38.3658 45.1302 38.9433 47.6738 39.901C50.5671 40.9873 53.9417 42.49 54.2626 43.0712C54.9422 44.3005 51.8813 46.9655 50.1164 46.6233C48.3516 46.2811 44.2 46.4839 41.8241 46.0802C40.1891 45.7996 37.5932 44.8726 36.0555 44.0543C36.0555 44.0543 34.1411 43.254 33.9392 41.1231C33.7373 38.9922 35.1902 35.6356 35.1902 35.6356Z" fill="black"/>
<path d="M55.6972 60.5638C56.0974 60.906 58.0209 61.6501 58.6861 62.1353C59.3513 62.6205 60.0182 62.8867 60.4887 62.8179C60.9593 62.7491 62.0246 63.0243 61.9561 63.5692C61.8876 64.1142 60.7646 64.3894 59.299 64.3224C57.8334 64.2554 56.5697 63.9802 55.1708 64.2536C53.772 64.527 53.3051 64.4582 52.9049 63.9114C52.5047 63.3646 53.0383 62.8251 52.9716 61.9995C52.9049 61.174 52.9049 60.2217 52.9049 60.2217L55.2375 59.4033C55.2375 59.4033 55.2988 60.2217 55.6972 60.5638Z" fill="#F5AA8A"/>
<path d="M53.99 43.1436C54.4659 43.1436 55.2825 44.1013 55.4177 48.4736C55.5529 52.7843 54.9436 56.054 55.2158 57.4209C55.488 58.7878 55.625 60.0171 55.625 60.0171C55.2483 60.1791 54.8632 60.3205 54.4713 60.4408C53.8079 60.6399 52.9138 60.5748 52.6308 60.2905C52.09 59.7474 51.8142 56.3962 51.4068 55.4403C50.9993 54.4843 50.3864 51.5459 50.0457 50.2478C49.705 48.9497 50.1809 45.3994 50.1809 45.3994C50.1809 45.3994 53.5141 43.1436 53.99 43.1436Z" fill="black"/>
<path d="M40.1071 39.9299C39.4716 40.5354 38.8862 41.1917 38.3566 41.8925C37.6139 42.9063 36.8947 43.607 36.6243 43.674" stroke="#404065" stroke-width="0.180268" stroke-miterlimit="10"/>
<path d="M43.61 38.7803C43.61 38.7803 41.5207 39.1858 40.5779 40.9438" stroke="#404065" stroke-width="0.180268" stroke-miterlimit="10"/>
<path d="M13.021 62.1788C13.021 62.1788 13.021 63.1944 12.5162 63.7014C12.0115 64.2083 11.404 64.7152 11.2021 65.2747C11.1143 65.5733 10.9353 65.8367 10.6905 66.0277C10.4456 66.2187 10.1473 66.3277 9.83743 66.3392C9.0803 66.3899 7.67421 66.2378 7.26139 65.883C6.84858 65.5281 7.62193 64.5125 8.37365 63.7521C9.12537 62.9917 10.1421 61.7732 10.7983 61.2174C10.7983 61.2174 11.6996 60.2035 11.8582 59.9501L13.1201 61.3206C13.0218 61.5952 12.9879 61.8889 13.021 62.1788Z" fill="#F5AA8A"/>
<path d="M17.3653 53.0994C18.3802 52.2358 21.5114 50.3656 21.872 49.8804C22.1766 49.4549 27.2277 41.9016 29.0827 39.7508C29.264 39.3561 29.489 38.9832 29.7533 38.6391C30.3211 37.9454 30.9631 37.3164 31.6677 36.7635L35.1974 35.8456C35.1974 35.8456 37.0001 42.8394 36.297 44.1737C35.9239 44.3349 35.2713 44.5123 34.8152 44.9848C34.3592 45.4574 32.7313 47.7005 30.7574 49.196C28.0173 51.2726 23.9973 53.9032 23.617 54.1458C22.4164 55.5851 21.0067 57.1114 18.9877 58.328C17.4698 59.2423 15.4436 60.1294 14.5423 60.6617C14.0113 60.9775 13.5051 61.3334 13.028 61.7263L11.658 60.1493C11.658 60.1493 16.0511 54.2146 17.3653 53.0994Z" fill="black"/>
<path d="M30.9463 41.0488C31.8888 40.9784 32.8229 41.2696 33.5602 41.8635C34.1782 42.3924 34.7238 43.0012 35.1826 43.674" stroke="#404065" stroke-width="0.180268" stroke-miterlimit="10"/>
<path d="M36.8951 37.5401C36.8951 37.5401 32.785 38.0832 30.6975 36.9318" stroke="#4F396D" stroke-width="0.180268" stroke-miterlimit="10"/>
<path d="M38.5805 30.7092C38.5805 30.7092 37.7044 35.2354 35.2131 36.5933" stroke="#4F396D" stroke-width="0.180268" stroke-miterlimit="10"/>
<path d="M30.7246 35.1902C31.3686 35.7717 32.1168 36.2251 32.9293 36.5263" stroke="#4F396D" stroke-width="0.180268" stroke-miterlimit="10"/>
<path d="M25.4949 27.5481C25.9563 25.9549 27.7608 23.9434 28.3792 23.527C28.9975 23.1106 29.5851 22.649 29.5851 22.649C30.3182 21.8887 31.2087 21.2997 32.1936 20.9236C33.7151 20.3931 36.1307 21.9175 37.3872 23.2464C38.6436 24.5753 38.9375 25.7557 39.1358 28.4443C39.3503 31.408 41.582 35.7984 41.582 35.7984C41.582 35.7984 39.3286 38.0561 36.3542 38.7133C33.3798 39.3705 30.1981 37.846 30.1981 37.846C30.1981 37.846 30.2269 37.7519 30.2702 37.5926C30.1976 37.4847 30.1609 37.3565 30.1654 37.2264C30.17 37.0962 30.2155 36.9709 30.2954 36.8684C30.3446 36.8142 30.3996 36.7656 30.4594 36.7236V36.7217C30.4594 36.6747 30.4721 36.6258 30.4775 36.5787V36.5425C30.4327 36.442 30.3948 36.3386 30.3639 36.2329C30.3109 36.0647 30.2932 35.8873 30.3118 35.7119C30.3304 35.5365 30.385 35.3668 30.4721 35.2136C30.5139 35.14 30.5655 35.0724 30.6253 35.0127C30.6379 34.9656 30.6541 34.9149 30.674 34.8588C30.6938 34.8026 30.6956 34.799 30.7046 34.7664C30.7046 33.9264 30.939 33.3362 30.409 32.9252C28.9488 31.7973 25.0316 29.1413 25.4949 27.5481Z" fill="#C1063D"/>
<path d="M37.0751 37.5257C37.0751 37.5257 32.6387 37.8534 30.5854 36.7236" stroke="#4F396D" stroke-width="0.180268" stroke-miterlimit="10"/>
<path d="M38.7339 30.8179C38.7339 30.8179 37.874 35.268 35.4277 36.5951" stroke="#4F396D" stroke-width="0.180268" stroke-miterlimit="10"/>
<path d="M30.6196 35.0145C30.6196 35.0145 31.9897 36.1298 33.1794 36.5281" stroke="#4F396D" stroke-width="0.180268" stroke-miterlimit="10"/>
<path d="M20.8191 0.0217716C21.167 -0.065131 23.4059 0.115916 24.2442 0.588449C25.0824 1.06098 26.4543 1.85578 26.7842 2.57997C27.114 3.30415 26.9824 4.18585 26.173 4.32707C25.0914 4.50812 24.6209 3.61918 24.1504 3.42184C23.6799 3.22449 22.6939 3.18466 22.364 2.99638C22.0341 2.80809 21.8466 2.14545 22.1837 2.09114C22.5208 2.03683 23.4456 2.37538 23.5934 2.23417C23.6233 2.20549 23.6425 2.16736 23.6478 2.12615C23.653 2.08494 23.644 2.04318 23.6222 2.00786C23.1734 1.8413 22.1927 1.52446 21.8069 1.52446C21.4212 1.52446 21.3112 1.31445 21.295 0.98132C21.1341 0.97412 20.9745 0.949229 20.8191 0.907092C20.3972 0.776738 20.4441 0.115916 20.8191 0.0217716Z" fill="#F5AA8A"/>
<path d="M24.581 1.62765C24.581 1.62765 24.0817 1.37418 23.5138 1.12253C23.0343 0.953686 22.5425 0.822336 22.0428 0.729653C21.4317 0.588436 21.3831 1.10804 21.3831 1.10804" stroke="#D57B6A" stroke-width="0.270403" stroke-miterlimit="10"/>
<path d="M24.911 3.4688C24.911 3.4688 24.1575 3.09041 23.8763 2.52374C23.595 1.95706 23.5932 2.00413 23.312 1.86292" stroke="#D57B6A" stroke-width="0.270403" stroke-miterlimit="10"/>
<path d="M33.1841 10.528C33.1841 10.528 35.3906 13.9244 35.9783 15.7964C36.566 17.6685 37.2492 19.9605 37.3988 21.0631C37.4925 21.7402 37.3015 23.1795 37.3015 23.1795C37.3015 23.1795 35.2915 21.8995 34.3126 21.5501C33.3337 21.2007 32.4486 20.9092 32.4486 20.9092C32.3659 20.1238 32.3659 19.3319 32.4486 18.5465C32.5965 17.4602 31.8123 15.9376 31.4698 14.6576C31.1273 13.3776 30.6333 12.0361 30.9758 11.6903C31.3183 11.3445 33.1841 10.528 33.1841 10.528Z" fill="#F5AA8A"/>
<path d="M31.2473 12.8235C31.2473 12.8235 29.6123 10.4518 28.7235 9.2714C27.8348 8.09097 25.8086 3.93594 25.8086 3.93594L26.8433 2.89673C26.8433 2.89673 30.5569 6.15558 31.5447 7.38307C32.2838 8.30098 33.4339 11.0185 33.4339 11.0185L31.2473 12.8235Z" fill="#F5AA8A"/>
<path d="M30.0112 22.0334C30.4565 21.7854 30.8531 21.3871 31.9942 21.8342C33.1353 22.2814 33.2831 24.8233 32.535 25.6688C31.7869 26.5143 27.9237 27.5119 26.9827 26.6157C26.0417 25.7195 27.8841 24.1263 28.3708 23.527C28.8575 22.9278 29.5642 22.2832 30.0112 22.0334Z" fill="#F5AA8A"/>
<path d="M28.7837 20.1179L30.8225 23.0346C30.8225 23.0346 30.8694 23.699 29.9536 24.387C29.0379 25.075 27.4623 24.7726 27.4623 24.7726L26.0833 20.7896L28.7837 20.1179Z" fill="#F5AA8A"/>
<path d="M23.0591 15.0215C23.0591 15.0215 25.6874 12.7367 28.4798 15.3836C30.405 17.2031 29.7416 19.1023 29.7416 19.1023C29.7416 19.1023 26.9132 17.1216 25.6784 16.9297C24.4435 16.7378 23.0591 15.0215 23.0591 15.0215Z" fill="#5B172A"/>
<path d="M22.5218 18.2875C22.4065 17.5308 23.2105 16.0824 24.0018 15.4107C24.7932 14.739 26.8303 14.8676 27.728 15.6805C28.4491 16.3395 31.4379 19.0679 29.8047 21.3635C28.8294 22.7377 28.2976 22.6707 27.1493 22.8119C24.3444 23.1831 22.6372 19.0443 22.5218 18.2875Z" fill="#F5AA8A"/>
<path d="M24.5017 21.9013C24.5017 21.9013 26.0647 22.7812 26.0052 22.9513C25.8898 23.279 24.4404 23.1777 23.5733 22.7812C22.5729 22.3267 21.2046 20.9562 20.8603 19.7939C20.516 18.6316 20.7287 17.5598 21.4498 15.914C21.8734 14.9473 23.3931 14.2013 24.6658 14.0275C25.5671 13.9044 26.6001 14.9636 26.6001 14.9636C26.6001 14.9636 26.5009 16.4735 25.4788 17.5507C24.947 18.1101 24.4873 19.048 24.5396 19.6599C24.5612 19.8989 24.8262 20.2519 24.8713 20.7734C24.9145 21.2549 24.0961 20.9725 24.0961 20.9725L24.5017 21.9013Z" fill="#5B172A"/>
<path d="M23.337 21.465C23.2162 21.2206 23.2144 20.8241 23.5173 20.7064C23.8201 20.5887 24.3807 20.853 24.6782 20.9943C24.9756 21.1355 25.4137 21.8778 25.3109 22.1403C25.2244 22.3648 24.9864 22.4318 24.7431 22.4119C24.4505 22.378 24.1703 22.2744 23.9257 22.1097C23.6811 21.945 23.4793 21.7239 23.337 21.465Z" fill="#F5AA8A"/>
<path d="M29.6845 21.6097C28.8895 22.6381 28.3632 22.725 27.4871 22.8282" stroke="#D57B6A" stroke-width="0.270403" stroke-miterlimit="10"/>
<path d="M27.2453 19.4372C27.285 19.4653 27.3187 19.5011 27.3443 19.5425C27.3699 19.5839 27.3869 19.6301 27.3943 19.6783C27.4017 19.7265 27.3994 19.7756 27.3874 19.8229C27.3754 19.8701 27.3541 19.9145 27.3246 19.9532C27.2968 19.9933 27.2613 20.0272 27.2201 20.0531C27.1789 20.079 27.133 20.0963 27.085 20.1039C27.037 20.1115 26.988 20.1093 26.9409 20.0974C26.8938 20.0855 26.8495 20.0642 26.8108 20.0347C26.7322 19.9765 26.6796 19.8894 26.6644 19.7925C26.6492 19.6956 26.6727 19.5966 26.7297 19.5169C26.7576 19.4767 26.7934 19.4427 26.8347 19.4168C26.8761 19.3909 26.9223 19.3737 26.9705 19.3663C27.0187 19.3588 27.0679 19.3613 27.1151 19.3735C27.1624 19.3857 27.2066 19.4074 27.2453 19.4372Z" fill="#381800"/>
<path d="M28.7577 17.4041C28.7979 17.432 28.8319 17.4678 28.8579 17.5093C28.8838 17.5508 28.9011 17.5971 28.9087 17.6455C28.9163 17.6939 28.914 17.7434 28.902 17.7909C28.89 17.8384 28.8685 17.883 28.8389 17.9219C28.811 17.9618 28.7753 17.9956 28.7341 18.0213C28.6928 18.047 28.6469 18.0641 28.5989 18.0716C28.5509 18.079 28.5019 18.0766 28.4549 18.0646C28.4078 18.0526 28.3637 18.0311 28.3251 18.0015C28.2852 17.9737 28.2514 17.938 28.2256 17.8966C28.1998 17.8553 28.1826 17.8091 28.1751 17.7609C28.1675 17.7127 28.1697 17.6635 28.1815 17.6162C28.1934 17.5688 28.2146 17.5244 28.244 17.4856C28.2718 17.4455 28.3073 17.4115 28.3485 17.3856C28.3896 17.3598 28.4356 17.3425 28.4836 17.3349C28.5316 17.3273 28.5806 17.3295 28.6277 17.3414C28.6748 17.3533 28.719 17.3746 28.7577 17.4041Z" fill="#381800"/>
<path d="M27.4204 17.8657C27.4991 17.9068 27.5755 17.9522 27.6493 18.0015C27.6872 18.0232 27.7197 18.0486 27.7557 18.0703L27.8567 18.1373C27.9234 18.1807 27.9864 18.2224 28.0369 18.2532C28.06 18.2669 28.0849 18.2773 28.1108 18.2839C28.1289 18.2839 28.1361 18.2839 28.1108 18.2839H28.2136C28.2655 18.2927 28.3179 18.2982 28.3704 18.3002C28.4389 18.3002 28.5128 18.3075 28.5922 18.322C28.6831 18.3335 28.7717 18.3585 28.8553 18.3962C28.9104 18.4211 28.9596 18.4575 28.9996 18.503C29.0456 18.5534 29.0757 18.6164 29.0861 18.6841C29.0897 18.7135 29.0897 18.7433 29.0861 18.7728V18.8271C29.0861 18.8687 29.0753 18.9158 29.0663 18.9538C29.0491 19.0314 29.0231 19.1067 28.9887 19.1783C28.9268 19.3174 28.8408 19.4443 28.7346 19.5531C28.7699 19.414 28.7946 19.2723 28.8085 19.1294C28.8129 19.0625 28.8129 18.9954 28.8085 18.9285C28.8074 18.8981 28.8044 18.8679 28.7995 18.8379L28.7905 18.7836C28.7882 18.7764 28.7838 18.7701 28.7778 18.7655C28.7745 18.7639 28.7708 18.7631 28.767 18.7631C28.7633 18.7631 28.7596 18.7639 28.7562 18.7655C28.7431 18.7678 28.7297 18.7678 28.7165 18.7655C28.6637 18.7622 28.6107 18.7622 28.5579 18.7655C28.493 18.7655 28.4245 18.7655 28.3488 18.7655C28.2573 18.7665 28.1661 18.7537 28.0784 18.7275H28.1811C28.0973 18.7383 28.0122 18.7224 27.9378 18.6822C27.8874 18.6558 27.8402 18.6236 27.7972 18.5863C27.7278 18.5222 27.6672 18.4491 27.6169 18.369C27.5917 18.3313 27.5688 18.292 27.5484 18.2514C27.5272 18.2122 27.5086 18.1716 27.4925 18.13C27.4572 18.0455 27.4329 17.9566 27.4204 17.8657Z" fill="#DC816B"/>
<path d="M25.8176 19.2345V19.258L25.8447 19.2109V19.22C25.8223 19.243 25.8098 19.2738 25.8098 19.306C25.8098 19.3381 25.8223 19.369 25.8447 19.392C25.8678 19.414 25.8984 19.4263 25.9303 19.4263C25.9622 19.4263 25.9928 19.414 26.0159 19.392C26.0557 19.353 26.0859 19.3053 26.1043 19.2526L26.1151 19.2363L26.1475 19.182C26.1519 19.175 26.1567 19.1683 26.162 19.162L26.171 19.1494L26.2106 19.0987L26.3026 18.9955C26.362 18.9285 26.4161 18.8561 26.4828 18.7891C26.5129 18.7559 26.5448 18.7245 26.5784 18.6949L26.6072 18.6714C26.6309 18.6546 26.6527 18.6351 26.6721 18.6135C26.6923 18.5919 26.705 18.5644 26.7084 18.535C26.7118 18.5055 26.7057 18.4758 26.6909 18.4502C26.6761 18.4246 26.6535 18.4044 26.6264 18.3928C26.5993 18.3811 26.5692 18.3785 26.5405 18.3854C26.4407 18.4218 26.3524 18.4843 26.2845 18.5664C26.2448 18.6102 26.2075 18.6561 26.1728 18.704C26.1457 18.7384 26.1728 18.704 26.1728 18.704C26.1678 18.7126 26.1617 18.7205 26.1547 18.7275L26.1115 18.7818C26.0474 18.8572 25.9873 18.9357 25.9312 19.0172C25.9108 19.05 25.8922 19.0838 25.8753 19.1186C25.8656 19.1402 25.8578 19.1626 25.8519 19.1856C25.8519 19.1964 25.8519 19.2055 25.8519 19.2164C25.8519 19.2272 25.8519 19.2055 25.8519 19.2345L26.043 19.2109L26.0322 19.2019L26.0592 19.2489L26.0502 19.2254C26.0441 19.2045 26.0316 19.186 26.0144 19.1727C25.9973 19.1594 25.9763 19.1518 25.9546 19.1512C25.9327 19.1517 25.9115 19.1592 25.894 19.1725C25.8766 19.1858 25.8637 19.2043 25.8573 19.2254L25.8176 19.2345Z" fill="#5B172A"/>
<path d="M27.5909 17.1868V17.2049L27.6648 17.1307C27.6443 17.1364 27.6257 17.1475 27.6108 17.1627C27.5959 17.178 27.5853 17.1969 27.5801 17.2176C27.574 17.2414 27.575 17.2664 27.5831 17.2896C27.5911 17.3128 27.6057 17.3331 27.6251 17.348C27.6445 17.363 27.6678 17.3719 27.6923 17.3736C27.7167 17.3752 27.741 17.3694 27.7621 17.357C27.8021 17.3296 27.8348 17.293 27.8577 17.2502V17.2339C27.8577 17.2339 27.8487 17.2466 27.8721 17.2158L27.8847 17.1977C27.8649 17.2194 27.8847 17.185 27.8847 17.1977C27.9316 17.1458 27.9822 17.0974 28.0361 17.0529C28.0902 17.0076 28.1389 16.9587 28.1912 16.9134L28.2128 16.8953C28.1876 16.9116 28.2417 16.8718 28.2128 16.8953L28.2561 16.8682C28.2871 16.8518 28.3172 16.8337 28.3462 16.8139C28.3718 16.7984 28.3918 16.7751 28.4031 16.7474C28.4145 16.7197 28.4167 16.689 28.4093 16.66C28.4012 16.6311 28.384 16.6056 28.3602 16.5874C28.3365 16.5691 28.3076 16.559 28.2777 16.5586C28.2463 16.5586 28.2152 16.5641 28.1858 16.5749L28.1245 16.6039C28.0833 16.627 28.0441 16.6537 28.0073 16.6835C27.95 16.7326 27.8953 16.7846 27.8433 16.8392C27.788 16.8881 27.7362 16.9407 27.6882 16.9967C27.6738 17.0166 27.6594 17.0347 27.6468 17.0547V17.0655C27.6468 17.0764 27.6468 17.0655 27.6576 17.0547C27.6576 17.0673 27.6378 17.0782 27.6305 17.0909C27.6203 17.1106 27.6118 17.1312 27.6053 17.1524V17.1778V17.1651L27.5945 17.185L27.8198 17.214C27.8142 17.1932 27.8033 17.1742 27.7881 17.1589C27.7729 17.1437 27.754 17.1327 27.7333 17.1271L27.8072 17.2013V17.1832C27.8013 17.1623 27.7888 17.144 27.7715 17.1309C27.7543 17.1178 27.7333 17.1108 27.7117 17.1108C27.69 17.1115 27.6691 17.1188 27.6517 17.1317C27.6343 17.1447 27.6213 17.1626 27.6143 17.1832L27.5909 17.1868Z" fill="#5B172A"/>
<path d="M27.9646 20.5435C27.9646 20.5435 28.3648 21.0196 29.0462 20.4819C29.7276 19.9442 29.4176 19.4174 29.4176 19.4174" stroke="#DC7769" stroke-width="0.270403" stroke-miterlimit="10"/>
<path d="M24.3184 22.9224C24.3184 22.9224 24.3562 23.6086 23.3918 24.4595C22.4274 25.3104 21.6342 27.416 22.5229 28.8897C22.874 29.4761 23.0876 30.1351 23.1476 30.8167C23.2075 31.4983 23.1123 32.1847 22.869 32.8239C22.5085 33.6965 23.6622 34.0695 24.4067 32.9741C25.0971 31.9584 26.3157 30.4648 26.1463 29.2301C25.9444 27.7437 25.245 26.5705 25.5514 25.7902C25.8579 25.0099 25.5803 23.4637 25.2161 23.0745C24.852 22.6852 24.3184 22.9224 24.3184 22.9224Z" fill="#5B172A"/>
<path d="M24.2259 22.7178C24.4173 22.6504 24.6204 22.6232 24.8226 22.6381C25.0335 22.6888 25.4716 22.7938 25.596 23.1125V23.6013C25.3082 23.4978 25.0136 23.4143 24.7145 23.3514C24.5149 23.334 24.3141 23.3401 24.116 23.3695L24.2259 22.7178Z" fill="#9F3B5E"/>
<path d="M30.8525 22.9477C30.6055 22.6981 30.3884 22.4204 30.2053 22.1204" stroke="#D57B6A" stroke-width="0.270403" stroke-miterlimit="10"/>
<path d="M27.5771 25.008L27.2778 24.1118" stroke="#D57B6A" stroke-width="0.270403" stroke-miterlimit="10"/>
<path d="M25.7979 27.2476C25.9782 27.0666 28.237 28.7557 28.8949 29.5107C29.5529 30.2657 29.3636 31.5366 29.3636 32.5251C29.3636 33.5137 28.3776 38.038 27.8151 38.8382C27.2527 39.6385 25.3761 38.793 25.3292 38.1322C25.2824 37.4713 25.7979 35.0688 25.6104 34.1274C25.423 33.186 25.0949 30.7817 25.2355 29.699C25.3761 28.6163 25.6104 27.4359 25.7979 27.2476Z" fill="#F5AA8A"/>
<path d="M27.7682 38.5087C27.7682 38.5087 27.3932 41.0542 26.8776 41.9956C26.3621 42.9371 24.0691 46.8839 23.9285 47.0324C23.7879 47.1808 22.6143 46.9382 22.5674 46.1018C22.5206 45.2654 23.2182 42.5768 23.5932 41.1357C23.9681 39.6945 25.5635 37.0494 25.5635 37.0494L27.7682 38.5087Z" fill="#F5AA8A"/>
<path d="M24.0144 46.6939C24.0144 46.6939 24.256 47.7657 23.8522 48.613C23.4484 49.4603 23.2339 49.6215 22.9617 50.2171C22.6895 50.8128 22.4497 51.4247 22.1036 51.2762C21.7575 51.1278 21.7647 50.7096 21.9414 50.295C22.118 49.8804 22.2911 48.6655 22.2911 48.6655C22.0031 48.8213 21.7399 49.0197 21.5105 49.2539C21.2041 49.5943 20.9986 49.9003 21.0562 50.3547C21.1139 50.8091 21.3555 51.3197 21.1572 51.5351C20.9589 51.7506 20.5839 51.4917 20.5839 51.4917C20.542 51.5394 20.4867 51.5732 20.4252 51.5888C20.3637 51.6043 20.299 51.6007 20.2396 51.5786C20.0251 51.5025 19.9855 50.4507 19.9404 50.0505C19.8953 49.6504 20.2306 48.8574 20.4812 48.3885C20.7318 47.9196 22.5651 46.0566 22.5651 46.0566L24.0144 46.6939Z" fill="#F5AA8A"/>
<path d="M20.5754 51.4789C20.4668 51.2205 20.3741 50.9557 20.2978 50.686C20.1932 50.3021 20.579 48.8755 20.579 48.8755" stroke="#D57B6A" stroke-width="0.270403" stroke-miterlimit="10"/>
<path d="M52.0289 66.0266L42.6343 70.9487L43.6999 73.0001L53.0945 68.078L52.0289 66.0266Z" fill="#887E79"/>
<path d="M51.3752 66.4351L51.0603 66.6001L52.1259 68.6515L52.4407 68.4865L51.3752 66.4351Z" fill="#E1C8A7"/>
<path d="M50.5329 66.8773L49.9624 67.1764L51.0283 69.2276L51.5989 68.9286L50.5329 66.8773Z" fill="#E1C8A7"/>
<path d="M64.1444 71.6747C64.0453 71.7779 63.7839 71.8069 63.4702 71.8087H62.2588H51.2625V69.0496H62.385C62.385 69.0496 63.3458 69.0496 63.8272 69.0496C63.9293 69.0573 64.0255 69.1012 64.0984 69.1735C64.1714 69.2458 64.2164 69.3417 64.2255 69.4442C64.2814 70.0127 64.3571 71.4448 64.1444 71.6747Z" fill="#788DB8"/>
<path d="M63.3447 69.3447H51.2559V71.5155H63.3447V69.3447Z" fill="#EFECE7"/>
<path d="M63.3447 71.032H51.2559V71.2565H63.3447V71.032Z" fill="#D6D3CE"/>
<path d="M63.3447 70.0815H51.2559V70.306H63.3447V70.0815Z" fill="#D6D3CE"/>
<path d="M63.3447 70.5559H51.2559V70.7804H63.3447V70.5559Z" fill="#D6D3CE"/>
<path d="M63.3447 69.6053H51.2559V69.8298H63.3447V69.6053Z" fill="#D6D3CE"/>
<path d="M63.6524 69.3446H63.3459V71.5154H63.6524V69.3446Z" fill="#CCBF9F"/>
<path d="M69.6468 61.1451C69.2159 60.9278 69.0014 60.7956 68.9257 60.4625C68.8876 60.2315 68.8821 59.9962 68.9095 59.7637H66.9049C66.9333 59.9962 66.9279 60.2316 66.8887 60.4625C66.822 60.7956 66.6075 60.9278 66.1766 61.1451C66.0601 61.1907 65.9623 61.2746 65.8992 61.383C65.836 61.4915 65.8112 61.6181 65.8287 61.7425V70.3966C65.8198 70.5007 65.8437 70.6049 65.8971 70.6946C65.9505 70.7843 66.0306 70.8549 66.1261 70.8963H69.7045C69.7986 70.8537 69.8772 70.7827 69.9293 70.6931C69.9813 70.6035 70.0042 70.4998 69.9947 70.3966V61.7425C70.0122 61.6181 69.9874 61.4915 69.9242 61.383C69.8611 61.2746 69.7633 61.1907 69.6468 61.1451Z" fill="#AED8D8"/>
<path d="M68.9828 58.5507H66.8376C66.6255 58.5507 66.4536 58.7233 66.4536 58.9363V59.8289C66.4536 60.0418 66.6255 60.2145 66.8376 60.2145H68.9828C69.1948 60.2145 69.3667 60.0418 69.3667 59.8289V58.9363C69.3667 58.7233 69.1948 58.5507 68.9828 58.5507Z" fill="#597497"/>
</g>
<defs>
<clipPath id="clip0_0_2018">
<rect width="70" height="73" fill="white"/>
</clipPath>
</defs>
</svg>
