<svg width="40" height="43" viewBox="0 0 40 43" fill="none" xmlns="http://www.w3.org/2000/svg">
<path d="M6.77657 14.7418C15.4377 12.6486 24.5043 12.9156 33.0263 15.5149C34.0374 15.8277 35.2054 16.3185 35.4408 17.3479C35.5073 17.7657 35.45 18.1938 35.2758 18.5796C35.1016 18.9654 34.8181 19.2921 34.4602 19.5196C33.7378 19.9646 32.933 20.26 32.0936 20.3883C26.9727 21.5349 21.7907 22.686 16.5608 22.5122C13.8832 22.4471 11.2339 21.9498 8.71599 21.0398C7.60028 20.6272 1.89533 18.2209 2.80621 16.6964C3.48609 15.5106 5.56498 15.0372 6.77657 14.7418Z" fill="#D88121"/>
<path d="M37.0448 1.33775C37.2726 0.945082 37.5676 0.595214 37.9165 0.304011C38.0983 0.160758 38.3133 0.065387 38.5418 0.026677C38.7703 -0.012033 39.0049 0.00716235 39.2239 0.0824959C39.4529 0.19534 39.6461 0.36904 39.7822 0.584418C39.9183 0.799797 39.9921 1.04848 39.9953 1.303C39.986 1.81016 39.8717 2.30993 39.6598 2.77108C38.3223 6.2882 36.2414 9.47747 33.5582 12.1225C32.8217 12.8478 31.1699 14.7286 31.2048 12.5959C31.2353 10.8586 32.5122 9.0126 33.3011 7.50977C34.4315 5.38386 35.6814 3.32324 37.0448 1.33775Z" fill="#AED5C2"/>
<path d="M26.4196 13.0736C26.8488 12.0676 27.5975 11.2299 28.5508 10.6891C29.2615 10.3661 30.0534 10.2641 30.8232 10.3966C31.5929 10.5291 32.3047 10.8899 32.8655 11.4318C33.4088 11.9913 33.8058 12.6753 34.0216 13.4236C34.2374 14.1719 34.2654 14.9615 34.1032 15.7231C33.7519 17.2526 32.8253 18.5896 31.5144 19.4585C30.3072 20.2881 26.7508 21.9951 25.9315 19.945C25.1121 17.8949 25.4652 15.0369 26.4196 13.0736Z" fill="#AED5C2"/>
<path d="M27.3267 13.747C27.6432 13.0127 28.1929 12.4023 28.8913 12.0096C29.4132 11.7718 29.9951 11.6969 30.5605 11.7945C31.1259 11.8922 31.6485 12.1579 32.0597 12.5569C32.4598 12.9666 32.7522 13.4683 32.9111 14.0176C33.07 14.5669 33.0904 15.1468 32.9706 15.7059C32.714 16.8311 32.0338 17.8152 31.0704 18.4553C30.1988 19.0634 27.5838 20.3143 26.9693 18.8114C26.3548 17.3086 26.625 15.202 27.3267 13.747Z" fill="#8CB5A0"/>
<path d="M7.18276 13.4255C8.45101 11.5883 9.83258 9.65543 11.9027 8.80846C13.646 8.10482 15.5767 8.26118 17.3941 8.64775C20.7489 9.38316 23.9037 10.835 26.641 12.9031C29.3783 14.9712 31.633 17.6064 33.2494 20.6269C28.8163 23.8735 23.4101 25.527 17.9128 25.3179C14.1463 25.1486 10.4712 24.1076 7.1784 22.2774C6.06705 21.6607 3.12087 20.2664 3.35622 18.9634C3.48697 18.1729 4.75086 16.9394 5.23027 16.2705L7.18276 13.4255Z" fill="white"/>
<path d="M19.0106 20.7573C24.3323 20.7209 29.5693 19.4258 34.2906 16.9785C34.4925 16.8738 34.7194 16.8264 34.9465 16.8415C35.1736 16.8565 35.3921 16.9334 35.5783 17.0639C35.7645 17.1943 35.9112 17.3732 36.0023 17.5811C36.0934 17.7889 36.1255 18.0177 36.095 18.2425L34.3517 31.0339C34.0989 32.8972 33.7546 34.943 32.3425 36.1765C31.0786 37.2884 29.2917 37.4795 27.5964 37.6272C22.5641 38.0239 17.5303 38.286 12.495 38.4134C10.1503 38.4742 7.59202 38.4134 5.77027 36.9583C4.18387 35.6553 3.52578 33.5878 3.06816 31.5985C2.06474 27.247 1.64414 22.7822 1.81734 18.3206C1.93501 15.3932 3.96596 17.3347 5.76591 18.0948C7.71941 18.919 9.74615 19.5588 11.8195 20.0059C14.182 20.5161 16.5933 20.7681 19.0106 20.7573Z" fill="#F7A32D"/>
<path d="M2.01379 25.1051C2.17941 26.8425 2.44962 28.5278 2.77213 30.213C13.3033 32.7888 24.3513 32.337 34.6353 28.91L35.3544 23.6544C24.6928 27.7284 12.9911 28.2376 2.01379 25.1051Z" fill="#FFB966"/>
<path d="M9.11298 30.4041C8.96364 30.4058 8.81546 30.3777 8.67716 30.3215C8.48983 30.2524 8.32751 30.129 8.21103 29.9673C8.09455 29.8055 8.02922 29.6128 8.02342 29.4138C8.02775 29.2932 8.05801 29.175 8.11214 29.0671C8.16628 28.9592 8.24303 28.8641 8.33721 28.7883C8.42001 28.7187 8.51742 28.6685 8.62227 28.6415C8.72712 28.6144 8.83673 28.6111 8.94301 28.6319C8.99046 28.6365 9.03643 28.6509 9.07792 28.6743C9.11942 28.6977 9.15551 28.7295 9.18387 28.7677C9.21222 28.8058 9.2322 28.8496 9.24251 28.8959C9.25282 28.9423 9.25322 28.9903 9.24369 29.0369C9.23417 29.0834 9.21493 29.1275 9.18722 29.1661C9.15951 29.2048 9.12395 29.2372 9.08286 29.2613C9.04176 29.2853 8.99604 29.3005 8.94868 29.3058C8.90131 29.3112 8.85335 29.3065 8.80791 29.2921C8.79359 29.2886 8.77864 29.2886 8.76432 29.2921C8.74724 29.3051 8.733 29.3214 8.72251 29.3401C8.71201 29.3588 8.70548 29.3794 8.70331 29.4007C8.71337 29.4623 8.73965 29.52 8.77948 29.5681C8.8193 29.6162 8.87122 29.6529 8.92994 29.6744C9.00114 29.6984 9.07651 29.7077 9.15144 29.7017C9.22637 29.6957 9.29929 29.6746 9.36576 29.6396C9.45384 29.5967 9.53193 29.5359 9.59498 29.4611C9.65804 29.3863 9.70466 29.2991 9.73185 29.2053C9.77125 29.0143 9.75053 28.8159 9.67252 28.6371C9.59452 28.4583 9.46304 28.3078 9.29603 28.2063C9.07105 28.0786 8.81063 28.0269 8.55372 28.059C8.29682 28.0911 8.05726 28.2053 7.87088 28.3844C7.75727 28.5102 7.65653 28.6469 7.57016 28.7926C7.49476 28.9139 7.4133 29.0313 7.3261 29.1445C6.97528 29.6015 6.4592 29.9039 5.88788 29.9871C5.59364 30.0288 5.29364 29.9988 5.01356 29.8997C4.73348 29.8006 4.48167 29.6354 4.27969 29.4181C4.06968 29.1863 3.93222 28.8983 3.88421 28.5896C3.83621 28.281 3.87975 27.9651 4.00948 27.6807C4.14811 27.3926 4.37991 27.1593 4.66762 27.0183C4.95534 26.8773 5.28227 26.8368 5.59588 26.9033C5.77359 26.9442 5.93881 27.0271 6.07762 27.145C6.21643 27.263 6.32475 27.4124 6.39344 27.5808C6.46717 27.7722 6.4737 27.9829 6.41197 28.1785C6.35024 28.3741 6.22389 28.5431 6.05349 28.658C5.95219 28.7185 5.83879 28.7561 5.7213 28.7681C5.60382 28.7801 5.48512 28.7662 5.37361 28.7275C5.26977 28.6935 5.17483 28.6368 5.09568 28.5617C5.01653 28.4866 4.95515 28.3949 4.91599 28.2932C4.89704 28.2508 4.887 28.2051 4.88651 28.1587C4.88602 28.1124 4.89507 28.0664 4.91312 28.0237C4.93116 27.9809 4.95782 27.9424 4.99143 27.9103C5.02503 27.8783 5.06488 27.8534 5.10851 27.8374C5.15214 27.8213 5.19861 27.8143 5.24505 27.8168C5.2915 27.8194 5.33692 27.8314 5.37852 27.8521C5.42012 27.8729 5.45701 27.9019 5.4869 27.9374C5.51679 27.9729 5.53905 28.0142 5.5523 28.0586C5.56272 28.0707 5.57629 28.0797 5.59152 28.0847C5.60734 28.0915 5.6244 28.095 5.64164 28.095C5.65888 28.095 5.67593 28.0915 5.69176 28.0847C5.72958 28.0532 5.75632 28.0105 5.76808 27.9629C5.77984 27.9152 5.776 27.8651 5.75713 27.8197C5.72897 27.7524 5.68427 27.6933 5.62715 27.6477C5.57002 27.6022 5.50232 27.5717 5.43026 27.5591C5.26898 27.5301 5.10261 27.5543 4.95634 27.628C4.81007 27.7016 4.69187 27.8208 4.61963 27.9674C4.54036 28.1371 4.51459 28.3267 4.54572 28.5112C4.57684 28.6958 4.6634 28.8666 4.79396 29.0011C4.92322 29.1357 5.08267 29.2377 5.2592 29.2989C5.43573 29.36 5.62431 29.3786 5.80943 29.353C6.20501 29.292 6.56132 29.0802 6.80311 28.7622C6.87284 28.671 6.93822 28.5668 7.00795 28.4625C7.11833 28.2794 7.24681 28.1077 7.39148 27.95C7.68513 27.659 8.06744 27.4733 8.4784 27.4222C8.88936 27.3712 9.30572 27.4575 9.66212 27.6677C9.95183 27.8443 10.179 28.1066 10.3118 28.4181C10.4446 28.7296 10.4765 29.0746 10.403 29.4051C10.3488 29.5872 10.2568 29.756 10.1329 29.9004C10.009 30.0448 9.85605 30.1617 9.68391 30.2434C9.50847 30.3398 9.31314 30.3948 9.11298 30.4041Z" fill="#D88121"/>
<path d="M13.9466 30.9556C13.7628 30.9563 13.5796 30.9329 13.4019 30.8861C13.1653 30.8257 12.9438 30.7174 12.7511 30.568C12.5584 30.4185 12.3986 30.2311 12.2818 30.0174C12.1569 29.7846 12.1039 29.5201 12.1294 29.2574C12.155 28.9946 12.2581 28.7452 12.4256 28.5407C12.615 28.3309 12.8768 28.2 13.1588 28.1743C13.4408 28.1485 13.7221 28.2297 13.9466 28.4017C14.0642 28.506 14.1545 28.6371 14.2099 28.7839C14.2653 28.9307 14.2842 29.0887 14.2648 29.2443C14.2572 29.3892 14.2134 29.5299 14.1373 29.6536C14.0612 29.7772 13.9552 29.8799 13.829 29.9523C13.7133 30.0135 13.5849 30.0469 13.454 30.0499C13.3231 30.0529 13.1934 30.0254 13.075 29.9697C13.2186 30.094 13.3884 30.1845 13.5718 30.2346C13.8951 30.3066 14.233 30.2732 14.5358 30.1395C14.8386 30.0058 15.0904 29.7788 15.2541 29.4919C15.3204 29.3505 15.3786 29.2055 15.4284 29.0575C15.5269 28.7183 15.7046 28.4072 15.9471 28.1497C16.1252 27.987 16.3413 27.8712 16.5757 27.8128C16.8101 27.7544 17.0554 27.7553 17.2894 27.8153C17.7314 27.9324 18.1146 28.2077 18.3659 28.5884C18.4904 28.7613 18.5794 28.9569 18.6281 29.1641C18.6767 29.3713 18.6838 29.586 18.6492 29.7959C18.6077 30.0298 18.4973 30.246 18.3319 30.4169C18.1666 30.5879 17.9538 30.7059 17.7209 30.7558C17.5857 30.778 17.4474 30.7721 17.3147 30.7384C17.1819 30.7048 17.0576 30.6442 16.9495 30.5604C16.7608 30.4166 16.637 30.2042 16.6052 29.9697C16.5934 29.8225 16.6206 29.6748 16.684 29.5414C16.7475 29.408 16.8451 29.2936 16.9669 29.2095C17.0751 29.1265 17.203 29.0728 17.3382 29.0537C17.4734 29.0347 17.6113 29.051 17.7383 29.101C17.8172 29.1391 17.8783 29.2061 17.9088 29.288C17.9393 29.3699 17.9369 29.4604 17.902 29.5406C17.8671 29.6208 17.8025 29.6844 17.7216 29.7183C17.6408 29.7521 17.5499 29.7534 17.4681 29.7221C17.4495 29.7187 17.4304 29.7197 17.4122 29.725C17.3941 29.7303 17.3774 29.7397 17.3635 29.7525C17.3396 29.7684 17.3197 29.7897 17.3053 29.8145C17.291 29.8394 17.2825 29.8672 17.2807 29.8958C17.2849 29.9265 17.2956 29.9559 17.3121 29.9822C17.3287 30.0084 17.3506 30.0308 17.3766 30.0478C17.4106 30.0751 17.4497 30.0952 17.4916 30.1072C17.5335 30.1191 17.5774 30.1225 17.6206 30.1173C17.7197 30.09 17.8084 30.0343 17.8759 29.9571C17.9433 29.8798 17.9864 29.7845 17.9998 29.683C18.0354 29.4341 17.9712 29.1813 17.8211 28.9793C17.6666 28.7372 17.4274 28.5608 17.15 28.4842C17.0243 28.4531 16.8929 28.4535 16.7674 28.4853C16.6419 28.5171 16.5263 28.5794 16.4308 28.6666C16.2691 28.8564 16.1502 29.0786 16.0822 29.3181C16.0244 29.488 15.9545 29.6534 15.873 29.8133C15.6805 30.1552 15.4012 30.4408 15.0631 30.6413C14.7251 30.8418 14.34 30.9502 13.9466 30.9556ZM13.1229 28.8708C13.1689 28.9102 13.2034 28.9613 13.2226 29.0186C13.2417 29.076 13.245 29.1375 13.2319 29.1965C13.2319 29.2356 13.2624 29.2877 13.306 29.3181C13.3317 29.3423 13.3635 29.3591 13.398 29.3668C13.4326 29.3744 13.4685 29.3726 13.5021 29.3616C13.5315 29.3407 13.5558 29.3134 13.5732 29.2818C13.5905 29.2502 13.6005 29.2151 13.6023 29.1791C13.6083 29.132 13.6036 29.0841 13.5885 29.0389C13.5735 28.9938 13.5484 28.9527 13.5152 28.9185C13.4568 28.8744 13.3875 28.8467 13.3147 28.8383C13.2419 28.8298 13.1681 28.8411 13.1011 28.8708H13.1229Z" fill="#D88121"/>
<path d="M21.1501 30.6256C20.9119 30.6297 20.6761 30.5784 20.4612 30.4759C20.2464 30.3733 20.0585 30.2224 19.9123 30.0349C19.7374 29.7977 19.6482 29.5084 19.6592 29.2142C19.6703 28.92 19.781 28.6383 19.9734 28.4148C20.0238 28.3567 20.0933 28.3182 20.1695 28.3062C20.3797 28.2734 20.5948 28.2923 20.7961 28.3612C20.9974 28.4301 21.1787 28.5469 21.3244 28.7015C21.3588 28.7329 21.3863 28.771 21.4052 28.8135C21.4241 28.856 21.434 28.9019 21.4344 28.9484C21.4347 28.9949 21.4255 29.0409 21.4072 29.0837C21.389 29.1264 21.3621 29.165 21.3282 29.197C21.2943 29.2289 21.2542 29.2536 21.2104 29.2694C21.1665 29.2853 21.1199 29.292 21.0734 29.2891C21.0268 29.2862 20.9814 29.2738 20.9398 29.2527C20.8983 29.2315 20.8616 29.2021 20.8319 29.1662C20.7174 29.0475 20.5612 28.9774 20.3961 28.9707C20.3492 29.0783 20.3326 29.1966 20.348 29.3129C20.3633 29.4292 20.4101 29.5391 20.4833 29.631C20.5808 29.7505 20.7085 29.8421 20.8532 29.8963C20.998 29.9505 21.1546 29.9654 21.307 29.9393C21.6468 29.8726 21.9462 29.6742 22.1394 29.3877C22.2607 29.2023 22.3643 29.006 22.4488 28.8014C22.5099 28.6624 22.5796 28.519 22.6537 28.367C22.7567 28.1445 22.9065 27.9468 23.093 27.7871C23.2795 27.6275 23.4983 27.5097 23.7345 27.4419C23.9396 27.4054 24.15 27.4116 24.3526 27.4602C24.5551 27.5088 24.7453 27.5987 24.9113 27.7242C25.1943 27.9455 25.4362 28.2145 25.626 28.519C25.7611 28.7145 26.1664 29.3139 25.9137 29.8829C25.8057 30.0885 25.6426 30.2603 25.4426 30.3792C25.2426 30.498 25.0134 30.5593 24.7805 30.5561C24.3942 30.597 24.006 30.4984 23.6866 30.2781C23.5018 30.1506 23.3625 29.9679 23.2889 29.7563C23.2152 29.5447 23.2111 29.3152 23.2769 29.1011C23.3292 28.9762 23.41 28.8652 23.5129 28.777C23.6158 28.6888 23.738 28.6257 23.8696 28.5929C23.9862 28.5595 24.1091 28.5543 24.2281 28.5777C24.3471 28.6011 24.4588 28.6525 24.5539 28.7275C24.6232 28.7851 24.6668 28.8678 24.675 28.9574C24.6831 29.047 24.6553 29.1362 24.5975 29.2053C24.5397 29.2744 24.4567 29.3178 24.3668 29.326C24.2769 29.3341 24.1874 29.3063 24.1181 29.2487C24.1051 29.2428 24.0909 29.2398 24.0767 29.2398C24.0624 29.2398 24.0483 29.2428 24.0353 29.2487C24.0075 29.2564 23.9817 29.2696 23.9592 29.2875C23.9367 29.3055 23.9181 29.3277 23.9045 29.353C23.8887 29.4291 23.896 29.5082 23.9255 29.5801C23.955 29.6521 24.0053 29.7136 24.0701 29.7569C24.2592 29.8765 24.4845 29.9257 24.7064 29.8959C24.92 29.8959 25.1902 29.8047 25.2686 29.631C25.3471 29.4572 25.2686 29.2444 25.0376 28.9186C24.8925 28.6786 24.705 28.4667 24.4841 28.2932C24.3965 28.2224 24.2951 28.1705 24.1864 28.1406C24.0776 28.1107 23.9639 28.1035 23.8522 28.1194C23.7131 28.1708 23.5858 28.2495 23.478 28.351C23.3702 28.4525 23.284 28.5747 23.2246 28.7101C23.1592 28.8318 23.1026 28.9577 23.0372 29.0924C22.9353 29.3348 22.8113 29.5674 22.6668 29.7873C22.5188 30.0032 22.3294 30.1876 22.1095 30.33C21.8896 30.4724 21.6434 30.57 21.3854 30.6169C21.3072 30.624 21.2286 30.6269 21.1501 30.6256Z" fill="#D88121"/>
<path d="M29.161 29.8393C29.0033 29.8393 28.8463 29.8174 28.6947 29.7741C28.3241 29.6626 28.0013 29.4313 27.7772 29.1167C27.5531 28.8022 27.4404 28.4222 27.4569 28.0368C27.4607 27.7558 27.5695 27.4863 27.762 27.281C27.8856 27.1542 28.0494 27.0737 28.2256 27.0531C28.4019 27.0325 28.5798 27.0731 28.7295 27.1681C28.8075 27.225 28.8732 27.2971 28.9226 27.3799C28.9721 27.4628 29.0042 27.5547 29.0172 27.6502C29.0322 27.7822 29.0207 27.9159 28.9833 28.0434C28.9459 28.171 28.8833 28.2898 28.7993 28.3929C28.7415 28.4618 28.659 28.5054 28.5693 28.5143C28.4797 28.5232 28.3901 28.4968 28.3198 28.4407C28.251 28.3839 28.2074 28.3024 28.1984 28.2138C28.1895 28.1252 28.2159 28.0366 28.2719 27.9673C28.3001 27.934 28.3206 27.895 28.3319 27.8529C28.3432 27.8109 28.345 27.7669 28.3373 27.724C28.3188 27.7236 28.3004 27.7268 28.2832 27.7336C28.266 27.7403 28.2503 27.7503 28.237 27.7631C28.1689 27.8496 28.1334 27.9572 28.1368 28.0672C28.1166 28.302 28.1776 28.5367 28.3095 28.7323C28.4415 28.9278 28.6366 29.0726 28.8624 29.1426C29.0883 29.2125 29.3313 29.2035 29.5513 29.1169C29.7712 29.0303 29.9549 28.8714 30.0719 28.6666C30.184 28.4286 30.2604 28.1754 30.2985 27.9151C30.3478 27.5235 30.4848 27.148 30.6995 26.8163C30.8796 26.5719 31.1294 26.3872 31.4163 26.2861C31.7032 26.1851 32.014 26.1724 32.3082 26.2497C32.6024 26.327 32.8665 26.4907 33.0662 26.7195C33.2658 26.9484 33.3918 27.2318 33.4277 27.5329C33.463 27.794 33.4161 28.0595 33.2936 28.2929C33.171 28.5263 32.9788 28.716 32.7435 28.836C32.5985 28.8973 32.4413 28.9245 32.2841 28.9155C32.1269 28.9064 31.9739 28.8614 31.837 28.7838C31.7144 28.7169 31.6092 28.6223 31.5297 28.5077C31.4503 28.3931 31.3988 28.2616 31.3793 28.1236C31.3736 28.0384 31.4004 27.9541 31.4544 27.8877C31.5084 27.8213 31.5855 27.7776 31.6704 27.7655C31.7553 27.7535 31.8417 27.7738 31.9122 27.8225C31.9827 27.8712 32.0321 27.9446 32.0505 28.0281C32.059 28.0605 32.0743 28.0908 32.0953 28.117C32.1163 28.1432 32.1426 28.1647 32.1725 28.1801C32.2188 28.2053 32.2698 28.2207 32.3223 28.2252C32.3748 28.2297 32.4277 28.2232 32.4776 28.2062C32.5814 28.1432 32.664 28.051 32.7152 27.9412C32.7664 27.8315 32.7838 27.709 32.7653 27.5894C32.746 27.4226 32.6766 27.2655 32.5663 27.1386C32.456 27.0117 32.3097 26.9209 32.1468 26.8782C31.9839 26.8355 31.8118 26.8428 31.6531 26.8992C31.4944 26.9556 31.3564 27.0584 31.2573 27.1941C31.1036 27.4469 31.0069 27.73 30.974 28.0237C30.9237 28.3563 30.8207 28.6789 30.6689 28.9793C30.515 29.2415 30.2947 29.4589 30.0301 29.6098C29.7655 29.7607 29.4658 29.8399 29.161 29.8393Z" fill="#D88121"/>
<path d="M4.35787 22.6902C4.21675 22.7026 4.08539 22.7672 3.9897 22.8713C3.89402 22.9755 3.84094 23.1115 3.84094 23.2527C3.84094 23.3939 3.89402 23.53 3.9897 23.6341C4.08539 23.7382 4.21675 23.8028 4.35787 23.8152C4.499 23.8028 4.63035 23.7382 4.72604 23.6341C4.82172 23.53 4.8748 23.3939 4.8748 23.2527C4.8748 23.1115 4.82172 22.9755 4.72604 22.8713C4.63035 22.7672 4.499 22.7026 4.35787 22.6902Z" fill="#E8E8E8"/>
<path d="M10.0454 21.248C9.90424 21.2604 9.77289 21.325 9.6772 21.4291C9.58152 21.5332 9.52844 21.6693 9.52844 21.8105C9.52844 21.9516 9.58152 22.0877 9.6772 22.1918C9.77289 22.2959 9.90424 22.3606 10.0454 22.3729C10.1865 22.3606 10.3178 22.2959 10.4135 22.1918C10.5092 22.0877 10.5623 21.9516 10.5623 21.8105C10.5623 21.6693 10.5092 21.5332 10.4135 21.4291C10.3178 21.325 10.1865 21.2604 10.0454 21.248Z" fill="#E8E8E8"/>
<path d="M11.9242 23.8281C11.783 23.8405 11.6517 23.9051 11.556 24.0092C11.4603 24.1133 11.4072 24.2494 11.4072 24.3906C11.4072 24.5318 11.4603 24.6679 11.556 24.772C11.6517 24.8761 11.783 24.9407 11.9242 24.9531C12.0653 24.9407 12.1966 24.8761 12.2923 24.772C12.388 24.6679 12.4411 24.5318 12.4411 24.3906C12.4411 24.2494 12.388 24.1133 12.2923 24.0092C12.1966 23.9051 12.0653 23.8405 11.9242 23.8281Z" fill="#E8E8E8"/>
<path d="M19.6118 24.5708C19.4707 24.5832 19.3393 24.6478 19.2436 24.7519C19.1479 24.856 19.0948 24.9921 19.0948 25.1333C19.0948 25.2745 19.1479 25.4105 19.2436 25.5146C19.3393 25.6188 19.4707 25.6834 19.6118 25.6957C19.7529 25.6834 19.8843 25.6188 19.9799 25.5146C20.0756 25.4105 20.1287 25.2745 20.1287 25.1333C20.1287 24.9921 20.0756 24.856 19.9799 24.7519C19.8843 24.6478 19.7529 24.5832 19.6118 24.5708Z" fill="#E8E8E8"/>
<path d="M25.143 21.9475C25.0019 21.9599 24.8705 22.0245 24.7749 22.1286C24.6792 22.2327 24.6261 22.3688 24.6261 22.51C24.6261 22.6512 24.6792 22.7872 24.7749 22.8914C24.8705 22.9955 25.0019 23.0601 25.143 23.0725C25.2842 23.0601 25.4155 22.9955 25.5112 22.8914C25.6069 22.7872 25.66 22.6512 25.66 22.51C25.66 22.3688 25.6069 22.2327 25.5112 22.1286C25.4155 22.0245 25.2842 21.9599 25.143 21.9475Z" fill="#E8E8E8"/>
<path d="M7.51396 32.528C7.3637 32.528 7.21959 32.5874 7.11333 32.6933C7.00708 32.7992 6.94739 32.9428 6.94739 33.0926C6.94739 33.2424 7.00708 33.386 7.11333 33.4919C7.21959 33.5978 7.3637 33.6572 7.51396 33.6572C7.66422 33.6572 7.80833 33.5978 7.91459 33.4919C8.02084 33.386 8.08053 33.2424 8.08053 33.0926C8.08053 32.9428 8.02084 32.7992 7.91459 32.6933C7.80833 32.5874 7.66422 32.528 7.51396 32.528Z" fill="#E8E8E8"/>
<path d="M9.55807 34.0394C9.41694 34.0518 9.28559 34.1164 9.1899 34.2205C9.09421 34.3246 9.04114 34.4607 9.04114 34.6019C9.04114 34.7431 9.09421 34.8792 9.1899 34.9833C9.28559 35.0874 9.41694 35.152 9.55807 35.1644C9.69919 35.152 9.83055 35.0874 9.92623 34.9833C10.0219 34.8792 10.075 34.7431 10.075 34.6019C10.075 34.4607 10.0219 34.3246 9.92623 34.2205C9.83055 34.1164 9.69919 34.0518 9.55807 34.0394Z" fill="#E8E8E8"/>
<path d="M15.1448 32.9319C14.9946 32.9319 14.8504 32.9914 14.7442 33.0973C14.6379 33.2032 14.5782 33.3468 14.5782 33.4966C14.5782 33.6463 14.6379 33.79 14.7442 33.8959C14.8504 34.0017 14.9946 34.0612 15.1448 34.0612C15.2951 34.0612 15.4392 34.0017 15.5454 33.8959C15.6517 33.79 15.7114 33.6463 15.7114 33.4966C15.7114 33.3468 15.6517 33.2032 15.5454 33.0973C15.4392 32.9914 15.2951 32.9319 15.1448 32.9319Z" fill="#E8E8E8"/>
<path d="M21.3772 35.4902C21.236 35.5025 21.1047 35.5672 21.009 35.6713C20.9133 35.7754 20.8602 35.9115 20.8602 36.0526C20.8602 36.1938 20.9133 36.3299 21.009 36.434C21.1047 36.5381 21.236 36.6028 21.3772 36.6151C21.5183 36.6028 21.6496 36.5381 21.7453 36.434C21.841 36.3299 21.8941 36.1938 21.8941 36.0526C21.8941 35.9115 21.841 35.7754 21.7453 35.6713C21.6496 35.5672 21.5183 35.5025 21.3772 35.4902Z" fill="#E8E8E8"/>
<path d="M26.5853 32.9796C26.4442 32.9919 26.3128 33.0565 26.2171 33.1607C26.1214 33.2648 26.0684 33.4008 26.0684 33.542C26.0684 33.6832 26.1214 33.8193 26.2171 33.9234C26.3128 34.0275 26.4442 34.0921 26.5853 34.1045C26.7264 34.0921 26.8578 34.0275 26.9535 33.9234C27.0491 33.8193 27.1022 33.6832 27.1022 33.542C27.1022 33.4008 27.0491 33.2648 26.9535 33.1607C26.8578 33.0565 26.7264 32.9919 26.5853 32.9796Z" fill="#E8E8E8"/>
<path d="M30.5815 34.0264C30.4404 34.0388 30.309 34.1034 30.2133 34.2075C30.1176 34.3117 30.0646 34.4477 30.0646 34.5889C30.0646 34.7301 30.1176 34.8662 30.2133 34.9703C30.309 35.0744 30.4404 35.139 30.5815 35.1514C30.7226 35.139 30.854 35.0744 30.9497 34.9703C31.0454 34.8662 31.0984 34.7301 31.0984 34.5889C31.0984 34.4477 31.0454 34.3117 30.9497 34.2075C30.854 34.1034 30.7226 34.0388 30.5815 34.0264Z" fill="#E8E8E8"/>
<path d="M32.2514 21.678C32.1103 21.6903 31.9789 21.755 31.8833 21.8591C31.7876 21.9632 31.7345 22.0993 31.7345 22.2405C31.7345 22.3816 31.7876 22.5177 31.8833 22.6218C31.9789 22.7259 32.1103 22.7906 32.2514 22.8029C32.3925 22.7906 32.5239 22.7259 32.6196 22.6218C32.7153 22.5177 32.7683 22.3816 32.7683 22.2405C32.7683 22.0993 32.7153 21.9632 32.6196 21.8591C32.5239 21.755 32.3925 21.6903 32.2514 21.678Z" fill="#E8E8E8"/>
<path d="M28.991 23.0201C28.8606 22.9473 28.7068 22.9284 28.5626 22.9673C28.4184 23.0063 28.2952 23.1001 28.2196 23.2286C28.1981 23.2648 28.1792 23.3026 28.163 23.3415C28.1189 23.4056 28.0887 23.4782 28.0743 23.5546C28.06 23.631 28.0617 23.7095 28.0794 23.7852C28.0971 23.8609 28.1304 23.9321 28.1772 23.9942C28.224 24.0564 28.2833 24.1082 28.3513 24.1463C28.4192 24.1844 28.4944 24.208 28.572 24.2156C28.6497 24.2232 28.728 24.2146 28.8021 24.1904C28.8762 24.1661 28.9445 24.1268 29.0025 24.0749C29.0605 24.023 29.1071 23.9596 29.1392 23.8888C29.1392 23.8497 29.1784 23.8149 29.1959 23.7758C29.2642 23.6474 29.281 23.498 29.243 23.3577C29.205 23.2174 29.1149 23.0967 28.991 23.0201Z" fill="#E8E8E8"/>
<path d="M33.6067 19.1892C33.4565 19.1892 33.3124 19.2487 33.2061 19.3546C33.0999 19.4605 33.0402 19.6041 33.0402 19.7539C33.0402 19.9036 33.0999 20.0472 33.2061 20.1531C33.3124 20.259 33.4565 20.3185 33.6067 20.3185C33.757 20.3185 33.9011 20.259 34.0074 20.1531C34.1136 20.0472 34.1733 19.9036 34.1733 19.7539C34.1733 19.6041 34.1136 19.4605 34.0074 19.3546C33.9011 19.2487 33.757 19.1892 33.6067 19.1892Z" fill="#E8E8E8"/>
<g style="mix-blend-mode:multiply">
<path d="M27.5833 37.6226C29.2612 37.488 31.0699 37.2838 32.3294 36.1719C33.7415 34.9254 34.0727 32.8926 34.3386 31.0293L36.0819 18.2379C36.1114 18.0135 36.0787 17.7852 35.9872 17.5781C35.8957 17.3709 35.749 17.1927 35.563 17.0628C35.3769 16.9329 35.1587 16.8564 34.9321 16.8415C34.7055 16.8266 34.4791 16.8739 34.2775 16.9783C33.5977 17.3344 32.9047 17.6602 32.1987 17.9642C32.203 18.0119 32.203 18.0599 32.1987 18.1076C32.1402 19.1581 31.9827 20.2008 31.728 21.2218C31.1223 23.6265 30.0292 25.8821 28.5159 27.8499C25.4303 31.8632 20.8454 34.5735 15.9729 35.9939C12.8509 36.8718 9.62823 37.3448 6.38477 37.4011C8.12806 38.4349 10.3856 38.4653 12.4863 38.4131C17.5274 38.2857 22.5597 38.0222 27.5833 37.6226Z" fill="#E8E8E8"/>
</g>
</svg>
