<svg width="85" height="100" viewBox="0 0 85 100" fill="none" xmlns="http://www.w3.org/2000/svg">
<path d="M84.3922 99.7397C83.5094 99.8321 82.6099 99.9076 81.7104 99.9496L8.50353 99.9916H8.35357L7.18762 99.8825C6.9822 99.8825 6.78521 99.8002 6.63995 99.6538C6.4947 99.5074 6.41309 99.3088 6.41309 99.1018C6.41309 98.8947 6.4947 98.6961 6.63995 98.5497C6.78521 98.4033 6.9822 98.321 7.18762 98.321C7.57073 98.279 7.96214 98.2455 8.35357 98.2203H8.52015C8.52015 98.2203 81.4523 98.2203 81.7021 98.2623C82.6099 98.3042 83.5011 98.3714 84.3922 98.4721C84.5376 98.5015 84.6683 98.5807 84.7622 98.6962C84.8562 98.8118 84.9075 98.9566 84.9075 99.106C84.9075 99.2554 84.8562 99.4001 84.7622 99.5157C84.6683 99.6312 84.5376 99.7104 84.3922 99.7397Z" fill="#C6C6C6"/>
<path d="M44.9739 43.3764C44.8992 44.7204 44.7574 46.0596 44.5491 47.3892C44.166 50.0336 43.558 53.039 42.8834 55.952C41.376 62.6679 39.6187 68.855 39.6187 68.855C39.4642 72.8013 39.0132 76.7302 38.2695 80.6078C38.2029 81.0359 38.1196 81.4473 38.0446 81.867C37.7864 83.2186 37.5283 84.5114 37.2701 85.7119C36.3789 90.0437 35.5461 93.0826 35.5461 93.0826L31.4901 92.3103C31.2986 89.9849 31.2236 87.777 31.2236 85.7035C31.2236 84.4107 31.2236 83.185 31.3152 81.993C31.3152 81.3717 31.3735 80.7673 31.4152 80.1881C31.8982 73.1196 33.0809 68.4352 33.0809 67.5034C33.1023 63.3695 33.333 59.2395 33.7721 55.1293C34.8132 45.4332 36.6704 40.3879 36.6704 40.3879C39.2939 34.31 43.2332 34.7297 44.5325 39.2042C44.9053 40.5612 45.0545 41.9707 44.9739 43.3764Z" fill="#F5A784"/>
<path d="M57.8743 87.0299C57.8743 88.7088 57.791 90.469 57.6245 92.3103L53.5685 93.0826C53.5685 93.0826 52.8523 90.4382 52.0194 86.6521C51.703 85.2585 51.3865 83.7139 51.0783 82.0853C50.9867 81.6151 50.9034 81.145 50.8118 80.6665C50.0663 76.7694 49.6153 72.8209 49.4626 68.8549C49.4626 68.8549 47.6886 62.6175 46.1812 55.8848C45.5316 52.997 44.9319 50.0084 44.5155 47.3892C44.299 45.9033 44.1491 44.5433 44.0991 43.3764C44.0095 41.9632 44.1531 40.5448 44.5238 39.179C45.8397 34.6961 49.7624 34.2931 52.3776 40.3626C52.3776 40.3626 54.2264 45.3996 55.2675 55.0369C55.7064 59.1696 55.9399 63.3219 55.9671 67.4781C55.9671 68.41 57.1664 73.002 57.6328 79.9698C57.6328 80.549 57.7077 81.1451 57.7327 81.7663C57.8743 83.4285 57.9076 85.1746 57.8743 87.0299Z" fill="#F5A784"/>
<path d="M57.6915 79.9697C55.4116 80.3145 53.1153 80.5387 50.8122 80.6413C50.0667 76.7442 49.6157 72.7957 49.463 68.8297C49.463 68.8297 47.689 62.5923 46.1816 55.8596C45.532 52.9718 44.9406 49.9832 44.5159 47.364C44.1328 50 43.5248 53.0137 42.8502 55.9268C41.3428 62.6427 39.5854 68.8297 39.5854 68.8297C39.4309 72.7761 38.9799 76.705 38.2362 80.5826C35.7377 80.4651 33.3475 80.2972 31.3486 80.1377C31.8317 73.0692 33.0143 68.3848 33.0143 67.453C33.0358 63.3191 33.2664 59.189 33.7055 55.0789C34.7466 45.3828 36.6039 40.3374 36.6039 40.3374C39.2273 34.2595 43.1584 34.6793 44.4659 39.1538C45.457 35.737 47.9888 34.6877 50.2958 37.0886C51.1567 38.0417 51.842 39.1418 52.3196 40.3374C52.8437 41.8761 53.272 43.4462 53.6022 45.0386C54.3319 48.3282 54.8687 51.6584 55.2096 55.0117C55.6485 59.1444 55.882 63.2967 55.9092 67.453C56.0091 68.4352 57.2001 73.0272 57.6915 79.9697Z" fill="#818181"/>
<path d="M53.6936 45.089C51.4116 42.5705 41.4092 41.9325 41.4092 41.9325L50.3873 37.1558C51.2481 38.1088 51.9335 39.209 52.4111 40.4046C52.9345 41.9378 53.3628 43.5023 53.6936 45.089Z" fill="#ADADAD"/>
<path d="M36.0624 97.2129C36.0665 97.2548 36.0665 97.2969 36.0624 97.3388C35.9291 99.2277 34.3967 98.9422 32.1314 98.9674C30.3158 98.9674 29.358 97.96 29.4663 96.8519C29.5 96.5223 29.6176 96.2071 29.8077 95.9368C30.3321 95.1259 30.71 94.2278 30.9238 93.284C31.0309 92.8633 31.267 92.4872 31.5984 92.2095C33.0225 91.051 34.3884 91.9493 35.0796 92.5873C35.3797 92.8649 35.5888 93.228 35.6793 93.6282C35.9424 94.8044 36.0709 96.0072 36.0624 97.2129Z" fill="#C1063D"/>
<path d="M56.9913 98.9674C54.6677 98.9674 53.0853 99.2444 53.052 97.2129C53.0478 97.1542 53.0478 97.0953 53.052 97.0366C53.0439 95.9205 53.1669 94.8075 53.4184 93.7206C53.5167 93.2653 53.7524 92.8519 54.093 92.5369C54.4894 92.089 55.0293 91.7957 55.6184 91.7082C56.2075 91.6208 56.8084 91.7447 57.3161 92.0584C57.7611 92.373 58.08 92.8374 58.2155 93.368C58.4328 94.2802 58.8017 95.1488 59.3066 95.9368C59.4194 96.0907 59.5092 96.2604 59.5731 96.4405C59.9895 97.683 59.0234 99.001 56.9913 98.9674Z" fill="#C1063D"/>
<path d="M48.73 10.863C48.9541 10.6053 49.0988 10.2873 49.1465 9.94795C49.164 9.41077 49.2594 8.87907 49.4296 8.3697C49.5806 8.13783 49.7063 7.89013 49.8044 7.63095C49.8337 7.49549 49.8293 7.35483 49.7915 7.22153C49.7537 7.08822 49.6837 6.96645 49.5878 6.86703C49.4462 6.72432 49.238 6.61519 49.1714 6.42211C49.1585 6.30213 49.1585 6.18108 49.1714 6.06111C49.1449 5.8798 49.0739 5.70804 48.9648 5.56143C48.8557 5.41482 48.712 5.298 48.5468 5.22162C48.2094 5.07305 47.8536 4.9714 47.4891 4.91941C47.1249 4.87339 46.7767 4.74106 46.473 4.53325C46.3427 4.41972 46.2065 4.31323 46.0649 4.21424C45.8007 4.10524 45.5088 4.08463 45.2321 4.15547C44.6786 4.24692 44.1386 4.40767 43.6247 4.63399C43.4371 4.72869 43.2384 4.79921 43.0334 4.84386C42.7169 4.88584 42.4004 4.7851 42.0839 4.84386C41.8546 4.91913 41.6443 5.04367 41.4674 5.20891C41.2905 5.37414 41.1514 5.57611 41.0595 5.80087C41.0012 5.92964 40.916 6.04418 40.8097 6.13666C40.6716 6.20173 40.5261 6.24966 40.3766 6.27938C40.1836 6.35248 40.0118 6.47287 39.8765 6.6297C39.7413 6.78652 39.647 6.97485 39.602 7.17764C39.5272 7.59117 39.5272 8.01494 39.602 8.42847C39.6199 8.8427 39.6672 9.25511 39.7436 9.66252C40.5765 13.0205 40.818 12.0803 40.818 12.0803C41.6509 12.0047 42.4837 11.9124 43.3165 11.82C44.4492 11.7025 45.5819 11.5682 46.7062 11.4003C47.156 11.3331 47.5974 11.2408 48.0471 11.1736C48.304 11.1546 48.5459 11.0445 48.73 10.863Z" fill="#5E5E5E"/>
<path d="M40.5429 10.6027C40.4561 10.4906 40.3443 10.4005 40.2166 10.34C40.0889 10.2794 39.9489 10.2499 39.8078 10.254C39.6667 10.2581 39.5286 10.2956 39.4045 10.3635C39.2805 10.4314 39.174 10.5277 39.0938 10.6447C38.4025 11.5346 39.6768 13.1632 40.6179 13.2136C40.6465 12.3426 40.6214 11.4706 40.5429 10.6027Z" fill="#E0855C"/>
<path d="M54.2598 20.2989C53.3502 22.6693 52.618 25.105 52.0695 27.5857C52.0029 27.9047 51.9445 28.2069 51.8946 28.5175C51.8446 28.8281 51.8029 29.038 51.7696 29.2898C51.7363 29.5417 51.7697 29.634 51.703 29.8691C51.4532 32.3875 50.9618 39.3805 50.8702 40.5726C50.8702 40.6817 50.8702 40.7404 50.8702 40.7404C44.4073 42.7552 37.5863 41.1518 37.5863 41.1518C37.5863 41.1518 37.5863 41.0259 37.5364 40.7908C37.3948 39.6239 35.9872 27.2415 35.9373 26.7378C35.6541 23.7995 35.4376 21.0796 35.4209 19.3922C35.4209 19.1488 35.6375 19.0061 35.9706 18.9137C36.5816 18.7884 37.1988 18.6959 37.8195 18.6367C38.9023 18.4516 39.9954 18.3338 41.0926 18.2841H41.3674H41.7339L41.9337 14.9261C42.0434 14.9511 42.1548 14.968 42.2669 14.9765C42.4768 15.0055 42.6881 15.0223 42.8999 15.0269C43.1586 15.0264 43.4171 15.0124 43.6744 14.9849C43.7993 14.9849 43.9159 14.9849 44.0325 14.9345C44.1978 14.9127 44.3619 14.8818 44.5239 14.8422C44.7782 14.779 45.0285 14.7005 45.2734 14.6072C45.3482 14.5865 45.4208 14.5584 45.49 14.5232H45.5483L45.7149 14.4476C46.0225 14.3146 46.3179 14.1545 46.5977 13.9691C46.7476 13.8768 46.8892 13.776 46.9891 13.7005L47.0641 13.6501C47.1161 13.6173 47.1637 13.5778 47.2057 13.5326L47.2973 13.457V13.6837C47.239 14.2294 47.189 14.9429 47.1806 15.6397C47.1806 16.1266 47.1806 16.6051 47.1806 17.0165C47.1806 17.7384 47.1806 18.2589 47.1806 18.2589C47.308 18.2462 47.4364 18.2462 47.5638 18.2589H47.7053C48.3829 18.2693 49.0591 18.3254 49.7292 18.4268C50.9961 18.5937 52.2414 18.8977 53.4436 19.3335C53.594 19.3901 53.739 19.4603 53.8767 19.5433C53.985 19.6021 54.3181 20.131 54.2598 20.2989Z" fill="#F5A784"/>
<path d="M47.2975 13.4066C47.2018 14.0112 46.9746 14.587 46.6321 15.0926C46.2895 15.5981 45.8402 16.021 45.3163 16.3308C44.7924 16.6406 44.207 16.8296 43.602 16.8843C42.9971 16.9389 42.3876 16.8579 41.8174 16.6471L41.9256 14.9009C42.8749 15.0547 43.846 15.0008 44.7728 14.743C45.6997 14.4852 46.5607 14.0294 47.2975 13.4066Z" fill="#E0855C"/>
<path d="M40.6099 8.07586C40.1436 8.58795 40.1436 9.75484 40.1436 10.9637C40.1436 14.7414 41.2929 15.8831 43.2084 16.0006C45.124 16.1182 47.0978 15.3458 47.3726 11.8032C47.5225 10.0487 47.6974 8.44524 47.0395 7.6897C46.0984 6.65713 42.0341 6.48922 40.6099 8.07586Z" fill="#F5A784"/>
<path d="M47.1221 11.3751C47.1221 11.3751 47.6635 9.78842 48.6046 10.5943C49.5457 11.4002 48.3547 13.7844 46.9389 13.6585C46.9389 13.6501 46.6891 11.9207 47.1221 11.3751Z" fill="#F5A784"/>
<path d="M48.197 11.3163C47.9849 11.3973 47.7961 11.53 47.6473 11.7025C47.4794 11.8505 47.3458 12.0339 47.2559 12.2398C47.2559 12.3069 47.3225 12.3405 47.3641 12.2985C47.4058 12.2566 47.5723 12.0467 47.6806 11.9207C47.7532 12.013 47.8477 12.0852 47.9555 12.1306C48.0388 12.1306 48.0971 12.0467 48.0637 11.9795C48.0025 11.8929 47.9228 11.8212 47.8305 11.7696C47.9835 11.6664 48.1283 11.5513 48.2636 11.4255C48.2729 11.4147 48.2785 11.4011 48.2797 11.3869C48.2808 11.3726 48.2775 11.3584 48.27 11.3462C48.2626 11.3341 48.2515 11.3246 48.2384 11.3192C48.2252 11.3138 48.2107 11.3128 48.197 11.3163Z" fill="#E0855C"/>
<path d="M41.7758 10.8294C41.7758 10.8294 41.4594 10.9553 41.4927 10.3761C41.526 9.79684 41.7509 9.92276 41.7509 9.92276C41.7509 9.92276 41.9757 9.92275 41.9591 10.3677C41.9424 10.8126 41.7758 10.8294 41.7758 10.8294Z" fill="black"/>
<path d="M45.0566 10.7203C45.0566 10.7203 44.7318 10.8546 44.7651 10.2754C44.7984 9.69613 45.0316 9.82205 45.0316 9.82205C45.0316 9.82205 45.2565 9.82205 45.2315 10.267C45.2065 10.7119 45.0566 10.7203 45.0566 10.7203Z" fill="black"/>
<path d="M43.2912 12.3153C43.133 12.3153 42.7582 12.4077 42.6749 12.2314C42.6934 11.8301 42.7606 11.4326 42.8748 11.0477C43.0128 10.5306 43.1241 10.0066 43.208 9.47784C43.208 9.47784 43.158 9.47784 43.1497 9.47784C42.8484 10.4144 42.6256 11.3748 42.4834 12.3489C42.4834 12.4077 42.4834 12.458 42.5667 12.4496C42.8082 12.4496 43.0414 12.4496 43.2829 12.4496C43.3579 12.458 43.3745 12.3237 43.2912 12.3153Z" fill="#E0855C"/>
<path d="M42.4169 9.09171C42.2201 9.0748 42.0223 9.0748 41.8255 9.09171C41.6169 9.04779 41.4054 9.01972 41.1926 9.00775C41.1693 9.00954 41.147 9.01788 41.1281 9.03181C41.1093 9.04573 41.0948 9.06468 41.0861 9.08653C41.0774 9.10838 41.075 9.13225 41.0791 9.15542C41.0832 9.17859 41.0936 9.20014 41.1093 9.21762C41.3012 9.35885 41.5247 9.45032 41.76 9.48399C41.9953 9.51766 42.2351 9.49251 42.4585 9.41072C42.5005 9.40515 42.5385 9.383 42.5643 9.34915C42.59 9.3153 42.6015 9.27251 42.5959 9.2302C42.5904 9.1879 42.5684 9.14955 42.5348 9.12358C42.5013 9.0976 42.4588 9.08614 42.4169 9.09171Z" fill="black"/>
<path d="M45.9394 8.61316C45.6553 8.76357 45.3486 8.86567 45.0316 8.91536C44.8234 8.91536 44.5735 8.91538 44.3986 9.01612C44.389 9.03111 44.3838 9.04861 44.3838 9.06649C44.3838 9.08437 44.389 9.10187 44.3986 9.11686C44.7234 9.60376 45.7812 9.04129 46.0643 8.70549C46.0726 8.67191 45.9893 8.61316 45.9394 8.61316Z" fill="black"/>
<path d="M44.5319 13.3059C44.1836 13.2596 43.8308 13.2596 43.4825 13.3059C43.2327 13.3059 42.8912 13.3059 42.7246 13.4654C42.9162 13.6501 43.241 13.5745 43.4825 13.5661C43.8315 13.5998 44.1829 13.5998 44.5319 13.5661C44.5661 13.5661 44.599 13.5524 44.6232 13.528C44.6474 13.5036 44.661 13.4705 44.661 13.436C44.661 13.4015 44.6474 13.3684 44.6232 13.344C44.599 13.3196 44.5661 13.3059 44.5319 13.3059Z" fill="#E0855C"/>
<path d="M73.0234 57.0181H14.6244C14.4808 57.0181 14.3431 56.9606 14.2416 56.8583C14.1401 56.756 14.083 56.6172 14.083 56.4725C14.083 56.327 14.1398 56.1873 14.241 56.0836C14.3423 55.9799 14.48 55.9206 14.6244 55.9184H73.0234C73.1677 55.9206 73.3054 55.9799 73.4067 56.0836C73.508 56.1873 73.5647 56.327 73.5647 56.4725C73.5647 56.6172 73.5076 56.756 73.4061 56.8583C73.3046 56.9606 73.1669 57.0181 73.0234 57.0181Z" fill="#263238"/>
<path d="M16.4821 59.2848C16.2369 59.2848 16.0018 59.1866 15.8284 59.0118C15.655 58.8371 15.5576 58.6001 15.5576 58.3529V54.5836C15.5576 54.3365 15.655 54.0995 15.8284 53.9247C16.0018 53.75 16.2369 53.6518 16.4821 53.6518C16.7272 53.6518 16.9624 53.75 17.1358 53.9247C17.3091 54.0995 17.4065 54.3365 17.4065 54.5836V58.3529C17.4065 58.6001 17.3091 58.8371 17.1358 59.0118C16.9624 59.1866 16.7272 59.2848 16.4821 59.2848Z" fill="#263238"/>
<path d="M18.3307 62.5839C18.0848 62.5817 17.8497 62.4817 17.6765 62.3056C17.5034 62.1295 17.4062 61.8916 17.4063 61.6437V51.2928C17.4063 51.0456 17.5037 50.8086 17.677 50.6339C17.8504 50.4591 18.0856 50.361 18.3307 50.361C18.5759 50.361 18.811 50.4591 18.9844 50.6339C19.1578 50.8086 19.2552 51.0456 19.2552 51.2928V61.6437C19.2552 61.8916 19.158 62.1295 18.9849 62.3056C18.8118 62.4817 18.5767 62.5817 18.3307 62.5839Z" fill="#263238"/>
<path d="M20.1793 64.1454C20.0579 64.1454 19.9377 64.1213 19.8256 64.0745C19.7134 64.0276 19.6115 63.959 19.5257 63.8725C19.4398 63.7859 19.3717 63.6832 19.3252 63.5702C19.2788 63.4571 19.2549 63.3359 19.2549 63.2136V50.0336C19.2549 49.7864 19.3523 49.5494 19.5257 49.3747C19.699 49.1999 19.9341 49.1017 20.1793 49.1017C20.4245 49.1017 20.6597 49.1999 20.833 49.3747C21.0064 49.5494 21.1038 49.7864 21.1038 50.0336V63.18C21.1082 63.3051 21.0877 63.4299 21.0432 63.5469C20.9988 63.6639 20.9314 63.7706 20.8451 63.8607C20.7588 63.9508 20.6554 64.0225 20.541 64.0714C20.4266 64.1203 20.3036 64.1455 20.1793 64.1454Z" fill="#263238"/>
<path d="M70.3923 59.2848C70.5137 59.2848 70.6339 59.2607 70.746 59.2138C70.8582 59.167 70.9601 59.0984 71.0459 59.0118C71.1318 58.9253 71.1999 58.8226 71.2463 58.7095C71.2928 58.5965 71.3167 58.4753 71.3167 58.3529V54.5836C71.3167 54.3365 71.2193 54.0995 71.0459 53.9247C70.8726 53.75 70.6374 53.6518 70.3923 53.6518C70.1471 53.6518 69.9119 53.75 69.7386 53.9247C69.5652 54.0995 69.4678 54.3365 69.4678 54.5836V58.3529C69.4678 58.6001 69.5652 58.8371 69.7386 59.0118C69.9119 59.1866 70.1471 59.2848 70.3923 59.2848Z" fill="#263238"/>
<path d="M68.5426 62.5839C68.7886 62.5817 69.0237 62.4817 69.1968 62.3056C69.37 62.1295 69.4671 61.8916 69.4671 61.6437V51.2928C69.4671 51.0456 69.3697 50.8086 69.1963 50.6339C69.0229 50.4591 68.7878 50.361 68.5426 50.361C68.2974 50.361 68.0623 50.4591 67.8889 50.6339C67.7155 50.8086 67.6182 51.0456 67.6182 51.2928V61.6437C67.6182 61.8916 67.7153 62.1295 67.8884 62.3056C68.0615 62.4817 68.2967 62.5817 68.5426 62.5839Z" fill="#263238"/>
<path d="M66.6936 64.1454C66.9388 64.1454 67.1739 64.0472 67.3473 63.8725C67.5207 63.6977 67.6181 63.4607 67.6181 63.2136V50.0336C67.6181 49.7864 67.5207 49.5494 67.3473 49.3747C67.1739 49.1999 66.9388 49.1017 66.6936 49.1017C66.4485 49.1017 66.2133 49.1999 66.0399 49.3747C65.8666 49.5494 65.7692 49.7864 65.7692 50.0336V63.18C65.7647 63.3051 65.7853 63.4299 65.8297 63.5469C65.8742 63.6639 65.9416 63.7706 66.0279 63.8607C66.1142 63.9508 66.2176 64.0225 66.332 64.0714C66.4464 64.1203 66.5694 64.1455 66.6936 64.1454Z" fill="#263238"/>
<path d="M39.0018 25.7388C38.6592 26.9359 38.1843 28.0904 37.586 29.1807C37.3444 29.6844 36.37 31.8167 36.3367 31.9006C34.8126 35.2586 32.6722 40.2032 32.5139 40.7908C32.0142 42.6881 30.9898 53.677 30.9815 53.6938C29.9405 55.272 27.9583 54.5333 27.9583 54.5333C27.9583 54.5333 27.9583 54.1975 27.875 53.6266C27.6418 51.1837 27.1088 44.3083 27.7334 40.2536C27.9083 39.1286 28.5663 36.4003 29.3991 33.311C30.0654 30.7925 30.3569 28.4084 31.1564 25.957C31.8219 23.8491 32.8233 21.8644 34.1213 20.0806C34.6153 19.5246 35.2569 19.1226 35.9702 18.9221C36.2784 18.9221 36.4033 19.3167 36.6698 19.4342C37.3933 19.7735 37.9807 20.3508 38.3355 21.0712C39.0734 22.5068 39.3082 24.1517 39.0018 25.7388Z" fill="#F5A784"/>
<path d="M27.759 55.7001C27.8006 55.3223 27.8339 54.953 27.8506 54.5836C27.8506 54.0043 27.8506 53.6266 27.8506 53.6266C28.2045 53.2771 28.6572 53.0467 29.1463 52.967C29.6355 52.8873 30.1371 52.9623 30.5823 53.1816C30.7819 53.3366 30.9686 53.5079 31.1403 53.6937C31.4651 54.0043 31.8565 54.2646 32.1647 54.6004C32.3303 54.758 32.4571 54.9524 32.5352 55.168C32.6132 55.3837 32.6404 55.6147 32.6144 55.8428C32.2208 55.8826 31.8559 56.0681 31.59 56.3633C31.2819 56.7495 31.4068 57.1104 31.2652 57.5302C31.1236 57.9499 30.7488 58.0087 30.4324 58.0591C29.3746 58.2102 27.8422 58.2689 27.759 56.8838C27.7301 56.4898 27.7301 56.0941 27.759 55.7001Z" fill="#F5A784"/>
<path d="M61.0975 53.6014C61.0476 54.1723 61.0143 54.5081 61.0143 54.5081C61.0143 54.5081 59.0238 55.272 57.9827 53.6686C57.9827 53.6686 56.9583 42.6629 56.4503 40.7656C56.3753 40.4466 55.7174 38.8936 54.9012 37.0047C54.085 35.1159 51.4699 29.3402 51.3783 29.1555C50.7792 28.0666 50.3069 26.9117 49.9708 25.7136C49.6573 24.1257 49.8862 22.4776 50.6204 21.0376C50.9707 20.3139 51.5594 19.7353 52.286 19.4006C52.5451 19.274 52.8311 19.2134 53.1189 19.2243C53.2093 19.2315 53.2986 19.2483 53.3854 19.2747C53.5387 19.3241 53.6845 19.3948 53.8185 19.4846C54.0246 19.6255 54.217 19.7857 54.3932 19.9631C55.8777 21.5716 56.9774 23.5014 57.6079 25.6044C58.4408 28.1229 58.9322 30.8344 59.5651 33.2606C60.398 36.3499 61.0476 39.0783 61.2308 40.2032C61.8555 44.2831 61.3641 51.1585 61.0975 53.6014Z" fill="#F5A784"/>
<path d="M61.1723 55.7001C61.1723 55.2888 61.1723 54.9026 61.1224 54.5836C61.1224 54.0044 61.1224 53.6266 61.1224 53.6266C60.7671 53.2764 60.313 53.0456 59.8224 52.9659C59.3318 52.8863 58.8287 52.9616 58.3823 53.1817C58.1835 53.3345 57.9995 53.506 57.8326 53.6938C57.4995 54.0044 57.1164 54.2646 56.8083 54.6004C56.6417 54.7576 56.5136 54.9517 56.4341 55.1673C56.3546 55.3829 56.3259 55.6141 56.3501 55.8428C56.7223 55.9459 57.0868 56.075 57.4412 56.229C57.7577 56.548 57.5162 56.8334 57.5162 57.1944C57.5162 57.7149 57.8743 57.8912 58.349 57.9751L59.2901 58.143C59.783 58.2602 60.3002 58.2131 60.7643 58.0087C60.836 57.9731 60.8986 57.9214 60.9475 57.8576C60.9837 57.7973 61.0116 57.7323 61.0307 57.6645C61.1932 57.0234 61.2412 56.3582 61.1723 55.7001Z" fill="#F5A784"/>
<path d="M52.0695 27.5856L52.5276 40.7236C44.8404 43.7458 36.5203 40.9251 36.5203 40.9251L36.3371 28.3328L36.0872 28.2572C35.7125 28.1397 35.3127 28.0138 34.9046 27.8459C34.663 27.7535 34.4215 27.6528 34.1883 27.5436C33.1453 27.0655 32.1303 26.5273 31.1484 25.9318C31.814 23.8239 32.8154 21.8391 34.1134 20.0554C34.6074 19.4993 35.249 19.0974 35.9623 18.8969C36.5733 18.7716 37.1904 18.6791 37.8112 18.6199C38.894 18.4348 39.9871 18.317 41.0843 18.2673L44.1158 25.8227C45.405 23.3615 46.5399 20.8212 47.5138 18.2169H47.6554C48.333 18.2273 49.0091 18.2834 49.6792 18.3848C50.9453 18.5557 52.1903 18.8596 53.3937 19.2915C53.547 19.3409 53.6928 19.4115 53.8268 19.5013C54.0329 19.6423 54.2253 19.8025 54.4015 19.9799C55.886 21.5884 56.9857 23.5182 57.6162 25.6212C56.6194 26.083 55.596 26.4839 54.5514 26.8217C53.1605 27.3002 52.0695 27.5856 52.0695 27.5856Z" fill="#C1063D"/>
<path d="M36.3788 23.9842V28.3327L36.1289 28.2572C35.7541 28.1397 35.3544 28.0137 34.9463 27.8458C35.4884 26.5839 35.9665 25.2951 36.3788 23.9842Z" fill="#FF004B"/>
<path d="M34.213 94.3082C33.5551 93.9388 32.3225 93.6618 31.7145 94.1655C31.6959 94.1837 31.6824 94.2064 31.6751 94.2314C31.6678 94.2564 31.667 94.2828 31.6728 94.3082V94.3586C31.6772 94.3726 31.6847 94.3855 31.6945 94.3963C31.7044 94.4071 31.7166 94.4156 31.7301 94.4212C31.7436 94.4268 31.7581 94.4294 31.7727 94.4287C31.7872 94.4281 31.8015 94.4242 31.8144 94.4174C31.8144 94.4174 31.8145 94.4174 31.8728 94.4174C32.0204 94.3322 32.1859 94.2833 32.3558 94.2747C32.5713 94.2605 32.7876 94.2803 32.9971 94.3334C33.385 94.4466 33.7847 94.5142 34.188 94.5349C34.2178 94.5382 34.2478 94.5295 34.2712 94.5106C34.2946 94.4917 34.3097 94.4642 34.313 94.4342C34.3163 94.4041 34.3076 94.3739 34.2889 94.3503C34.2701 94.3267 34.2429 94.3116 34.213 94.3082Z" fill="#27192E"/>
<path d="M34.6299 95.5003C34.2529 95.1865 33.7779 95.017 33.289 95.0218C32.8139 94.9051 32.3134 94.9585 31.8732 95.1729C31.8066 95.2233 31.7816 95.3492 31.8732 95.3912C32.2625 95.4887 32.6633 95.531 33.0641 95.5171C33.5425 95.6518 34.034 95.7334 34.53 95.7606C34.5596 95.7598 34.5883 95.7503 34.6125 95.7331C34.6367 95.7159 34.6553 95.6919 34.666 95.6641C34.6767 95.6362 34.679 95.6058 34.6725 95.5767C34.6661 95.5475 34.6513 95.521 34.6299 95.5003Z" fill="#27192E"/>
<path d="M57.0493 93.8633C56.602 93.6152 56.09 93.5111 55.5822 93.5651C55.0745 93.6192 54.5953 93.8287 54.2093 94.1655C54.126 94.2747 54.2093 94.4845 54.3342 94.4677C54.7673 94.4677 55.1671 94.2159 55.5919 94.1739C56.0166 94.132 56.4247 94.2915 56.8911 94.2411C57.0577 94.2411 57.1992 93.9976 57.0493 93.8633Z" fill="#27192E"/>
<path d="M57.4075 94.9631C56.8466 94.8231 56.2644 94.7918 55.6918 94.8707C55.4967 94.8424 55.2977 94.8578 55.1091 94.9158C54.9205 94.9739 54.747 95.0731 54.6008 95.2065C54.4759 95.3576 54.6008 95.6347 54.8007 95.5591C55.6335 95.2737 56.5746 95.7102 57.4075 95.3996C57.4547 95.3863 57.4964 95.3577 57.526 95.3183C57.5557 95.2789 57.5717 95.2308 57.5717 95.1813C57.5717 95.1319 57.5557 95.0838 57.526 95.0444C57.4964 95.005 57.4547 94.9764 57.4075 94.9631Z" fill="#27192E"/>
<path d="M24.0611 87.8274L23.9945 87.7099C23.6239 86.7929 23.5595 85.7791 23.8112 84.822C23.8112 84.6289 23.8862 84.4191 23.9445 84.2008C24.1944 83.185 24.5441 79.0967 17.6815 79.0295C10.8272 79.0967 11.1687 83.185 11.4268 84.2008C11.4935 84.4694 11.5434 84.7129 11.5851 84.9479C11.7999 85.8682 11.7272 86.8329 11.3769 87.7099L11.3269 87.8022C10.7202 88.9169 10.412 90.1717 10.4326 91.443C10.4532 92.7143 10.802 93.9582 11.4445 95.0524C12.0871 96.1465 13.0013 97.053 14.0971 97.6828C15.193 98.3125 16.4326 98.6436 17.694 98.6436C18.9554 98.6436 20.1951 98.3125 21.2909 97.6828C22.3867 97.053 23.3009 96.1465 23.9435 95.0524C24.5861 93.9582 24.9348 92.7143 24.9554 91.443C24.976 90.1717 24.6679 88.9169 24.0611 87.8022V87.8274ZM21.5626 84.4275V84.5366C21.4849 84.6963 21.3635 84.8303 21.2128 84.9227C20.8772 85.0482 20.52 85.1046 20.1625 85.0888C19.8049 85.0729 19.454 84.9851 19.1307 84.8304C17.9964 84.4362 16.7564 84.4872 15.6577 84.9731C15.4263 85.0898 15.1711 85.1506 14.9123 85.1506C14.6535 85.1506 14.3984 85.0898 14.1669 84.9731C14.053 84.8956 13.9589 84.792 13.8921 84.6709C13.8555 84.5579 13.825 84.443 13.8005 84.3267C13.7694 84.0197 13.7694 83.7103 13.8005 83.4033C13.9421 80.8848 17.7398 81.145 17.7398 81.145C17.7398 81.145 21.5459 80.8848 21.6875 83.4033C21.6948 83.7489 21.6528 84.0939 21.5626 84.4275Z" fill="#C1063D"/>
<path d="M23.9447 84.1672C23.8864 84.3855 23.8448 84.5954 23.8115 84.7884C23.044 84.8002 22.2812 84.6663 21.5628 84.3939C21.6358 84.0493 21.6582 83.6957 21.6294 83.3445C21.4878 80.8261 17.6817 81.0863 17.6817 81.0863C17.6817 81.0863 13.884 80.8261 13.7424 83.3445C13.7113 83.6515 13.7113 83.961 13.7424 84.268C13.0377 84.5627 12.3032 84.7795 11.552 84.9144C11.5104 84.6793 11.4604 84.4359 11.3938 84.1672C11.1356 83.1514 10.7941 79.0631 17.6484 78.996C24.5444 79.1303 24.1946 83.185 23.9447 84.1672Z" fill="#F24074"/>
<path d="M15.208 91.3532C15.208 90.8551 15.3545 90.3682 15.6291 89.9541C15.9036 89.5399 16.2938 89.2171 16.7504 89.0265C17.2069 88.8359 17.7093 88.786 18.194 88.8832C18.6786 88.9803 19.1238 89.2202 19.4732 89.5724C19.8227 89.9246 20.0606 90.3734 20.157 90.8619C20.2534 91.3505 20.204 91.8568 20.0149 92.317C19.8257 92.7772 19.5055 93.1705 19.0946 93.4473C18.6837 93.724 18.2007 93.8717 17.7065 93.8717C17.0439 93.8717 16.4084 93.6064 15.9398 93.1341C15.4712 92.6618 15.208 92.0212 15.208 91.3532Z" fill="#B09FA4"/>
<path d="M13.6501 87.6343C12.5924 88.3059 12.3758 90.052 12.5174 91.177C12.5174 91.3616 12.8339 91.4456 12.8755 91.2273C13.0004 90.5977 12.9755 89.9513 13.1337 89.3217C13.2979 88.7922 13.5362 88.289 13.8416 87.8274C13.8916 87.7098 13.7667 87.5252 13.6501 87.6343Z" fill="#E8CEE5"/>
<path d="M22.8037 93.4016C22.8037 93.2673 22.6038 93.1834 22.5288 93.3261C22.3478 93.8217 22.1013 94.2904 21.7959 94.7196C21.5378 95.0219 21.088 95.2821 21.0547 95.7102C21.0546 95.7187 21.0563 95.7271 21.0598 95.7349C21.0632 95.7426 21.0683 95.7495 21.0746 95.7551C21.0809 95.7607 21.0884 95.7648 21.0965 95.7672C21.1045 95.7696 21.113 95.7702 21.1213 95.769C21.5627 95.769 22.0041 95.1814 22.2623 94.8456C22.6139 94.4484 22.8069 93.9339 22.8037 93.4016Z" fill="#E8CEE5"/>
<path d="M28.6667 12.8106C25.8517 13.3311 22.9367 12.8946 20.205 13.9523C20.0218 14.0195 20.0301 14.3301 20.255 14.3217C21.9207 14.2294 23.5863 13.8852 25.2021 13.7928C26.4014 13.7173 27.8172 13.9775 28.8999 13.3731C29.2247 13.1968 28.9915 12.7435 28.6667 12.8106Z" fill="#E8CEE5"/>
<path d="M29.7161 8.86501C28.345 8.16198 26.932 7.54519 25.4853 7.01815C25.2354 6.9258 25.0855 7.31197 25.3104 7.43789C26.6149 8.20449 27.9669 8.88587 29.358 9.47784C29.7161 9.66253 30.0909 9.07488 29.7161 8.86501Z" fill="#E8CEE5"/>
</svg>
