<svg width="60" height="60" viewBox="0 0 60 60" fill="none" xmlns="http://www.w3.org/2000/svg">
<rect width="60" height="60" rx="5" fill="#FFE4EC"/>
<g clip-path="url(#clip0_0_4743)">
<path d="M6.56143 48.3627H52.7474L56.3075 53.9848H3L6.56143 48.3627Z" fill="#C1063D"/>
<path d="M30.1467 29.3368L34.0475 28.3285C34.3714 28.7701 34.6709 29.2291 34.9444 29.7035C35.2712 30.2826 35.4631 30.8812 35.8275 31.1562C36.1918 31.4312 37.8147 31.8743 39.7769 32.609C42.0089 33.4423 44.6122 34.595 44.8597 35.0409C45.384 35.9839 43.0227 38.0283 41.6612 37.7658C40.2998 37.5033 37.0971 37.6588 35.2643 37.3491C34.0029 37.1339 32.0004 36.4228 30.8142 35.795C30.8142 35.795 29.3373 35.1811 29.1816 33.5464C29.0258 31.9118 30.1467 29.3368 30.1467 29.3368Z" fill="black"/>
<path d="M45.9663 48.46C46.275 48.7225 47.7588 49.2933 48.272 49.6655C48.7851 50.0377 49.2996 50.2419 49.6626 50.1891C50.0256 50.1363 50.8474 50.3474 50.7946 50.7655C50.7417 51.1835 49.8754 51.3946 48.7448 51.3432C47.6142 51.2918 46.6394 51.0807 45.5602 51.2904C44.4811 51.5002 44.1209 51.4474 43.8122 51.0279C43.5035 50.6085 43.9151 50.1946 43.8636 49.5613C43.8122 48.928 43.8122 48.1975 43.8122 48.1975L45.6117 47.5697C45.6117 47.5697 45.6589 48.1975 45.9663 48.46Z" fill="#F5AA8A"/>
<path d="M44.6495 35.0964C45.0166 35.0964 45.6466 35.8311 45.7509 39.1852C45.8552 42.4921 45.3851 45.0003 45.5951 46.0489C45.8051 47.0975 45.9108 48.0405 45.9108 48.0405C45.6202 48.1647 45.3231 48.2732 45.0208 48.3655C44.509 48.5183 43.8193 48.4683 43.6009 48.2502C43.1837 47.8336 42.971 45.2628 42.6567 44.5295C42.3424 43.7962 41.8696 41.5421 41.6068 40.5463C41.3439 39.5505 41.7111 36.8269 41.7111 36.8269C41.7111 36.8269 44.2823 35.0964 44.6495 35.0964Z" fill="black"/>
<path d="M33.9397 32.6312C33.4494 33.0956 32.9978 33.5991 32.5893 34.1367C32.0164 34.9145 31.4615 35.452 31.2529 35.5033" stroke="#404065" stroke-width="0.180268" stroke-miterlimit="10"/>
<path d="M36.6418 31.7493C36.6418 31.7493 35.03 32.0604 34.3027 33.409" stroke="#404065" stroke-width="0.180268" stroke-miterlimit="10"/>
<path d="M13.0449 49.6988C13.0449 49.6988 13.0449 50.478 12.6555 50.8668C12.2661 51.2557 11.7975 51.6446 11.6417 52.0738C11.574 52.3028 11.436 52.5049 11.2471 52.6514C11.0582 52.798 10.828 52.8816 10.589 52.8904C10.0049 52.9293 8.92023 52.8126 8.60177 52.5404C8.28331 52.2682 8.8799 51.489 9.4598 50.9057C10.0397 50.3224 10.824 49.3877 11.3302 48.9613C11.3302 48.9613 12.0255 48.1836 12.1479 47.9891L13.1214 49.0405C13.0455 49.2511 13.0193 49.4764 13.0449 49.6988Z" fill="#F5AA8A"/>
<path d="M16.3962 42.7337C17.1791 42.0712 19.5947 40.6365 19.8728 40.2643C20.1078 39.9379 24.0044 34.1436 25.4354 32.4937C25.5752 32.191 25.7487 31.9049 25.9527 31.6409C26.3907 31.1087 26.886 30.6262 27.4295 30.2021L30.1524 29.4979C30.1524 29.4979 31.543 34.8631 31.0007 35.8867C30.7128 36.0103 30.2094 36.1464 29.8576 36.5089C29.5058 36.8714 28.25 38.5921 26.7273 39.7393C24.6135 41.3324 21.5124 43.3504 21.2189 43.5365C20.2928 44.6406 19.2053 45.8114 17.6478 46.7447C16.4768 47.4461 14.9138 48.1266 14.2184 48.535C13.8089 48.7772 13.4184 49.0502 13.0503 49.3516L11.9934 48.1419C11.9934 48.1419 15.3824 43.5892 16.3962 42.7337Z" fill="black"/>
<path d="M26.8728 33.4895C27.5999 33.4355 28.3205 33.6589 28.8892 34.1145C29.366 34.5202 29.7869 34.9872 30.1408 35.5033" stroke="#404065" stroke-width="0.180268" stroke-miterlimit="10"/>
<path d="M31.4617 30.7979C31.4617 30.7979 28.291 31.2145 26.6807 30.3312" stroke="#4F396D" stroke-width="0.180268" stroke-miterlimit="10"/>
<path d="M32.7618 25.5577C32.7618 25.5577 32.0859 29.0299 30.1641 30.0715" stroke="#4F396D" stroke-width="0.180268" stroke-miterlimit="10"/>
<path d="M26.7021 28.9952C27.199 29.4413 27.7761 29.7891 28.4029 30.0202" stroke="#4F396D" stroke-width="0.180268" stroke-miterlimit="10"/>
<path d="M22.6679 23.1328C23.0239 21.9106 24.4159 20.3676 24.8929 20.0481C25.3699 19.7287 25.8232 19.3746 25.8232 19.3746C26.3887 18.7913 27.0757 18.3395 27.8355 18.051C29.0092 17.644 30.8726 18.8135 31.8419 19.8329C32.8112 20.8523 33.0379 21.7578 33.1908 23.8203C33.3563 26.0938 35.0779 29.4618 35.0779 29.4618C35.0779 29.4618 33.3396 31.1937 31.0451 31.6979C28.7505 32.202 26.296 31.0326 26.296 31.0326C26.296 31.0326 26.3183 30.9604 26.3517 30.8382C26.2957 30.7554 26.2674 30.657 26.2709 30.5572C26.2744 30.4574 26.3095 30.3613 26.3711 30.2826C26.4091 30.241 26.4515 30.2038 26.4977 30.1715V30.1701C26.4977 30.134 26.5074 30.0965 26.5116 30.0604V30.0326C26.4771 29.9555 26.4478 29.8762 26.424 29.7951C26.3831 29.6661 26.3694 29.53 26.3838 29.3954C26.3981 29.2609 26.4402 29.1307 26.5074 29.0132C26.5397 28.9567 26.5795 28.9049 26.6256 28.859C26.6354 28.8229 26.6479 28.784 26.6632 28.741C26.6785 28.6979 26.6799 28.6952 26.6868 28.6702C26.6868 28.0257 26.8676 27.573 26.4587 27.2577C25.3323 26.3924 22.3105 24.355 22.6679 23.1328Z" fill="#C1063D"/>
<path d="M31.601 30.7868C31.601 30.7868 28.1787 31.0382 26.5947 30.1715" stroke="#4F396D" stroke-width="0.180268" stroke-miterlimit="10"/>
<path d="M32.8805 25.6411C32.8805 25.6411 32.2172 29.0549 30.3301 30.0729" stroke="#4F396D" stroke-width="0.180268" stroke-miterlimit="10"/>
<path d="M26.6211 28.8605C26.6211 28.8605 27.678 29.716 28.5958 30.0216" stroke="#4F396D" stroke-width="0.180268" stroke-miterlimit="10"/>
<path d="M19.0608 2.01669C19.3292 1.95002 21.0563 2.08891 21.703 2.4514C22.3496 2.81389 23.4079 3.4236 23.6624 3.97914C23.9169 4.53468 23.8154 5.21105 23.191 5.31938C22.3566 5.45827 21.9936 4.77634 21.6307 4.62496C21.2677 4.47357 20.507 4.44302 20.2526 4.29858C19.9981 4.15414 19.8534 3.64582 20.1135 3.60415C20.3735 3.56248 21.0869 3.8222 21.201 3.71387C21.2241 3.69187 21.2389 3.66262 21.2429 3.63101C21.247 3.5994 21.24 3.56736 21.2232 3.54026C20.877 3.41249 20.1204 3.16944 19.8228 3.16944C19.5252 3.16944 19.4404 3.00833 19.4279 2.75278C19.3038 2.74726 19.1807 2.72816 19.0608 2.69584C18.7354 2.59584 18.7715 2.08891 19.0608 2.01669Z" fill="#F5AA8A"/>
<path d="M21.9621 3.24855C21.9621 3.24855 21.5769 3.05411 21.1389 2.86106C20.7689 2.73154 20.3896 2.63078 20.0041 2.55968C19.5327 2.45135 19.4951 2.84995 19.4951 2.84995" stroke="#D57B6A" stroke-width="0.270403" stroke-miterlimit="10"/>
<path d="M22.2171 4.66105C22.2171 4.66105 21.6359 4.37078 21.4189 3.93607C21.202 3.50136 21.2006 3.53747 20.9836 3.42914" stroke="#D57B6A" stroke-width="0.270403" stroke-miterlimit="10"/>
<path d="M28.5992 10.0762C28.5992 10.0762 30.3014 12.6817 30.7547 14.1178C31.2081 15.5538 31.7351 17.3121 31.8505 18.1579C31.9228 18.6774 31.7754 19.7815 31.7754 19.7815C31.7754 19.7815 30.2249 18.7996 29.4698 18.5315C28.7146 18.2635 28.0318 18.0399 28.0318 18.0399C27.968 17.4374 27.968 16.8299 28.0318 16.2274C28.1459 15.3941 27.5409 14.2261 27.2767 13.2442C27.0125 12.2623 26.6315 11.2331 26.8957 10.9678C27.1599 10.7026 28.5992 10.0762 28.5992 10.0762Z" fill="#F5AA8A"/>
<path d="M27.1047 11.8373C27.1047 11.8373 25.8434 10.0179 25.1578 9.11232C24.4723 8.20679 22.9092 5.01937 22.9092 5.01937L23.7074 4.22217C23.7074 4.22217 26.5721 6.72211 27.3342 7.66375C27.9044 8.3679 28.7916 10.4526 28.7916 10.4526L27.1047 11.8373Z" fill="#F5AA8A"/>
<path d="M26.1511 18.9024C26.4945 18.7121 26.8005 18.4066 27.6808 18.7496C28.561 19.0926 28.6751 21.0426 28.0979 21.6912C27.5208 22.3398 24.5407 23.105 23.8148 22.4176C23.0889 21.7301 24.5101 20.5079 24.8856 20.0482C25.261 19.5885 25.8062 19.094 26.1511 18.9024Z" fill="#F5AA8A"/>
<path d="M25.2045 17.433L26.7773 19.6704C26.7773 19.6704 26.8135 20.1801 26.107 20.7079C25.4006 21.2356 24.1852 21.0037 24.1852 21.0037L23.1213 17.9482L25.2045 17.433Z" fill="#F5AA8A"/>
<path d="M20.7881 13.5233C20.7881 13.5233 22.8156 11.7706 24.9697 13.8011C26.455 15.1969 25.9432 16.6538 25.9432 16.6538C25.9432 16.6538 23.7613 15.1344 22.8087 14.9872C21.8561 14.84 20.7881 13.5233 20.7881 13.5233Z" fill="#5B172A"/>
<path d="M20.374 16.0288C20.285 15.4483 20.9053 14.3372 21.5158 13.8219C22.1263 13.3067 23.6977 13.4053 24.3902 14.0289C24.9465 14.5344 27.2522 16.6274 25.9922 18.3885C25.2399 19.4426 24.8297 19.3912 23.9438 19.4996C21.78 19.7843 20.463 16.6094 20.374 16.0288Z" fill="#F5AA8A"/>
<path d="M21.9014 18.801C21.9014 18.801 23.1071 19.476 23.0612 19.6065C22.9722 19.8579 21.8541 19.7801 21.1852 19.476C20.4134 19.1274 19.3579 18.076 19.0923 17.1843C18.8267 16.2927 18.9908 15.4705 19.547 14.208C19.8738 13.4664 21.0461 12.8942 22.0279 12.7608C22.7233 12.6664 23.5201 13.4789 23.5201 13.4789C23.5201 13.4789 23.4436 14.6372 22.6551 15.4636C22.2449 15.8927 21.8903 16.6121 21.9306 17.0816C21.9473 17.2649 22.1517 17.5357 22.1865 17.9357C22.2198 18.3052 21.5885 18.0885 21.5885 18.0885L21.9014 18.801Z" fill="#5B172A"/>
<path d="M21.003 18.4663C20.9098 18.2788 20.9084 17.9746 21.142 17.8843C21.3757 17.7941 21.8082 17.9968 22.0376 18.1052C22.2671 18.2135 22.605 18.7829 22.5257 18.9843C22.459 19.1565 22.2754 19.2079 22.0877 19.1926C21.862 19.1666 21.6458 19.0872 21.4571 18.9608C21.2684 18.8345 21.1127 18.6649 21.003 18.4663Z" fill="#F5AA8A"/>
<path d="M25.8995 18.5774C25.2863 19.3662 24.8802 19.4329 24.2043 19.5121" stroke="#D57B6A" stroke-width="0.270403" stroke-miterlimit="10"/>
<path d="M24.018 16.9107C24.0486 16.9322 24.0746 16.9597 24.0944 16.9915C24.1141 17.0232 24.1272 17.0587 24.133 17.0956C24.1387 17.1326 24.1368 17.1703 24.1276 17.2066C24.1184 17.2428 24.1019 17.2768 24.0792 17.3066C24.0577 17.3373 24.0303 17.3633 23.9986 17.3832C23.9668 17.4031 23.9313 17.4163 23.8943 17.4221C23.8573 17.428 23.8195 17.4263 23.7831 17.4172C23.7468 17.408 23.7127 17.3917 23.6828 17.369C23.6222 17.3244 23.5816 17.2576 23.5699 17.1833C23.5582 17.1089 23.5763 17.033 23.6202 16.9718C23.6418 16.941 23.6693 16.9149 23.7013 16.895C23.7332 16.8752 23.7688 16.862 23.806 16.8563C23.8432 16.8506 23.8812 16.8525 23.9176 16.8618C23.954 16.8712 23.9882 16.8878 24.018 16.9107Z" fill="#381800"/>
<path d="M25.1843 15.351C25.2153 15.3724 25.2416 15.3999 25.2616 15.4317C25.2816 15.4636 25.295 15.4991 25.3008 15.5363C25.3067 15.5734 25.3049 15.6113 25.2956 15.6478C25.2864 15.6842 25.2698 15.7184 25.2469 15.7483C25.2254 15.7789 25.1979 15.8048 25.1661 15.8245C25.1343 15.8443 25.0988 15.8574 25.0618 15.8631C25.0248 15.8688 24.987 15.867 24.9507 15.8578C24.9144 15.8485 24.8804 15.8321 24.8506 15.8094C24.8198 15.788 24.7937 15.7606 24.7738 15.7289C24.754 15.6972 24.7407 15.6617 24.7348 15.6248C24.729 15.5878 24.7307 15.55 24.7398 15.5137C24.749 15.4774 24.7654 15.4434 24.788 15.4135C24.8094 15.3828 24.8368 15.3568 24.8686 15.3369C24.9004 15.317 24.9358 15.3038 24.9728 15.298C25.0099 15.2921 25.0477 15.2938 25.084 15.3029C25.1204 15.3121 25.1545 15.3284 25.1843 15.351Z" fill="#381800"/>
<path d="M24.1523 15.7052C24.213 15.7367 24.272 15.7715 24.329 15.8094C24.3582 15.826 24.3832 15.8455 24.411 15.8621L24.4889 15.9135C24.5403 15.9469 24.589 15.9788 24.6279 16.0024C24.6457 16.013 24.6649 16.0209 24.685 16.026C24.6989 16.026 24.7044 16.026 24.685 16.026H24.7642C24.8042 16.0328 24.8447 16.0369 24.8852 16.0385C24.9381 16.0385 24.9951 16.0441 25.0563 16.0552C25.1264 16.0641 25.1948 16.0833 25.2593 16.1121C25.3018 16.1312 25.3397 16.1592 25.3705 16.1941C25.4061 16.2328 25.4293 16.2811 25.4373 16.333C25.4401 16.3556 25.4401 16.3784 25.4373 16.401V16.4427C25.4373 16.4746 25.429 16.5107 25.422 16.5399C25.4088 16.5994 25.3887 16.6572 25.3622 16.7121C25.3144 16.8188 25.248 16.9162 25.1661 16.9996C25.1934 16.8929 25.2125 16.7842 25.2231 16.6746C25.2266 16.6233 25.2266 16.5718 25.2231 16.5205C25.2223 16.4972 25.22 16.474 25.2162 16.451L25.2092 16.4093C25.2075 16.4038 25.2041 16.399 25.1995 16.3955C25.1969 16.3942 25.194 16.3936 25.1912 16.3936C25.1883 16.3936 25.1854 16.3942 25.1828 16.3955C25.1727 16.3972 25.1623 16.3972 25.1522 16.3955C25.1115 16.3929 25.0706 16.3929 25.0298 16.3955C24.9798 16.3955 24.9269 16.3955 24.8685 16.3955C24.7979 16.3962 24.7276 16.3864 24.6599 16.3663H24.7392C24.6745 16.3745 24.6089 16.3624 24.5515 16.3316C24.5126 16.3113 24.4762 16.2866 24.443 16.258C24.3895 16.2088 24.3427 16.1527 24.3039 16.0913C24.2845 16.0623 24.2668 16.0322 24.2511 16.001C24.2347 15.971 24.2203 15.9399 24.208 15.908C24.1807 15.8431 24.162 15.7749 24.1523 15.7052Z" fill="#DC816B"/>
<path d="M22.9162 16.7552V16.7733L22.9371 16.7372V16.7441C22.9198 16.7617 22.9102 16.7854 22.9102 16.8101C22.9102 16.8347 22.9198 16.8584 22.9371 16.876C22.9549 16.8929 22.9785 16.9024 23.0031 16.9024C23.0277 16.9024 23.0513 16.8929 23.0692 16.876C23.0998 16.8461 23.1231 16.8095 23.1373 16.7691L23.1457 16.7566L23.1707 16.7149C23.174 16.7096 23.1778 16.7045 23.1818 16.6997L23.1888 16.6899L23.2194 16.651L23.2903 16.5719C23.3362 16.5205 23.3779 16.4649 23.4293 16.4136C23.4525 16.3881 23.4771 16.364 23.503 16.3413L23.5253 16.3233C23.5436 16.3104 23.5604 16.2955 23.5754 16.2788C23.5909 16.2623 23.6008 16.2412 23.6034 16.2186C23.606 16.196 23.6012 16.1732 23.5898 16.1536C23.5784 16.1339 23.561 16.1185 23.5401 16.1095C23.5192 16.1006 23.496 16.0986 23.4738 16.1038C23.3968 16.1318 23.3287 16.1797 23.2764 16.2427C23.2457 16.2763 23.2169 16.3115 23.1901 16.3483C23.1693 16.3747 23.1901 16.3483 23.1901 16.3483C23.1863 16.3549 23.1816 16.3609 23.1762 16.3663L23.1429 16.408C23.0935 16.4658 23.047 16.526 23.0038 16.5885C22.9881 16.6137 22.9737 16.6397 22.9607 16.6663C22.9532 16.6829 22.9472 16.7001 22.9426 16.7177C22.9426 16.726 22.9426 16.733 22.9426 16.7413C22.9426 16.7497 22.9426 16.733 22.9426 16.7552L23.09 16.7372L23.0817 16.7302L23.1025 16.7663L23.0956 16.7483C23.0909 16.7322 23.0812 16.7181 23.068 16.7078C23.0548 16.6976 23.0386 16.6918 23.0219 16.6913C23.005 16.6917 22.9886 16.6975 22.9751 16.7077C22.9617 16.7179 22.9517 16.7321 22.9468 16.7483L22.9162 16.7552Z" fill="#5B172A"/>
<path d="M24.2848 15.1844V15.1983L24.3418 15.1413C24.326 15.1457 24.3116 15.1542 24.3002 15.1659C24.2887 15.1776 24.2805 15.1921 24.2764 15.208C24.2718 15.2262 24.2726 15.2454 24.2787 15.2632C24.2849 15.281 24.2962 15.2966 24.3112 15.308C24.3261 15.3196 24.3442 15.3264 24.363 15.3276C24.3818 15.3289 24.4006 15.3244 24.4169 15.3149C24.4477 15.2939 24.473 15.2658 24.4906 15.233V15.2205C24.4906 15.2205 24.4837 15.2302 24.5017 15.2066L24.5115 15.1927C24.4962 15.2094 24.5115 15.183 24.5115 15.1927C24.5476 15.1529 24.5867 15.1158 24.6283 15.0816C24.67 15.0469 24.7075 15.0094 24.7479 14.9747L24.7646 14.9608C24.7451 14.9733 24.7868 14.9427 24.7646 14.9608L24.7979 14.9399C24.8219 14.9274 24.8451 14.9135 24.8675 14.8983C24.8872 14.8864 24.9026 14.8686 24.9114 14.8473C24.9201 14.826 24.9218 14.8025 24.9161 14.7802C24.9099 14.7581 24.8966 14.7385 24.8783 14.7245C24.86 14.7105 24.8377 14.7028 24.8146 14.7025C24.7904 14.7024 24.7664 14.7067 24.7437 14.715L24.6964 14.7372C24.6646 14.755 24.6344 14.7754 24.606 14.7983C24.5618 14.8359 24.5196 14.8758 24.4795 14.9177C24.4369 14.9552 24.3969 14.9956 24.3599 15.0386C24.3488 15.0538 24.3376 15.0677 24.3279 15.083V15.0913C24.3279 15.0997 24.3279 15.0913 24.3362 15.083C24.3362 15.0927 24.3209 15.1011 24.3154 15.1108C24.3075 15.1259 24.3009 15.1417 24.2959 15.158V15.1774V15.1677L24.2876 15.183L24.4614 15.2052C24.4571 15.1892 24.4487 15.1747 24.437 15.163C24.4252 15.1513 24.4106 15.1429 24.3946 15.1386L24.4517 15.1955V15.1816C24.4471 15.1656 24.4375 15.1515 24.4242 15.1415C24.4109 15.1314 24.3946 15.126 24.378 15.1261C24.3613 15.1266 24.3451 15.1322 24.3317 15.1421C24.3183 15.152 24.3082 15.1658 24.3029 15.1816L24.2848 15.1844Z" fill="#5B172A"/>
<path d="M24.5723 17.7593C24.5723 17.7593 24.881 18.1246 25.4067 17.7121C25.9323 17.2996 25.6931 16.8954 25.6931 16.8954" stroke="#DC7769" stroke-width="0.270403" stroke-miterlimit="10"/>
<path d="M21.7595 19.5843C21.7595 19.5843 21.7887 20.1107 21.0448 20.7634C20.3008 21.4162 19.6889 23.0314 20.3745 24.162C20.6453 24.6118 20.8101 25.1173 20.8563 25.6402C20.9026 26.1631 20.8291 26.6896 20.6415 27.18C20.3633 27.8494 21.2533 28.1355 21.8277 27.2952C22.3603 26.5161 23.3004 25.3703 23.1697 24.4231C23.0139 23.2828 22.4743 22.3829 22.7107 21.7843C22.9472 21.1857 22.733 19.9996 22.4521 19.701C22.1712 19.4024 21.7595 19.5843 21.7595 19.5843Z" fill="#5B172A"/>
<path d="M21.6886 19.4273C21.8362 19.3756 21.9929 19.3548 22.1489 19.3662C22.3116 19.4051 22.6495 19.4857 22.7455 19.7301V20.1051C22.5235 20.0257 22.2963 19.9617 22.0655 19.9134C21.9115 19.9001 21.7566 19.9047 21.6038 19.9273L21.6886 19.4273Z" fill="#9F3B5E"/>
<path d="M26.8 19.6037C26.6095 19.4122 26.442 19.1992 26.3008 18.969" stroke="#D57B6A" stroke-width="0.270403" stroke-miterlimit="10"/>
<path d="M24.2738 21.1842L24.043 20.4968" stroke="#D57B6A" stroke-width="0.270403" stroke-miterlimit="10"/>
<path d="M22.9016 22.9022C23.0406 22.7634 24.7831 24.0592 25.2907 24.6383C25.7983 25.2175 25.6523 26.1924 25.6523 26.9508C25.6523 27.7091 24.8916 31.1798 24.4577 31.7937C24.0238 32.4076 22.5762 31.759 22.54 31.252C22.5038 30.7451 22.9016 28.9021 22.7569 28.1799C22.6123 27.4577 22.3592 25.6133 22.4677 24.7828C22.5762 23.9522 22.7569 23.0467 22.9016 22.9022Z" fill="#F5AA8A"/>
<path d="M24.4212 31.5409C24.4212 31.5409 24.132 33.4937 23.7342 34.2159C23.3365 34.9381 21.5676 37.9658 21.4591 38.0797C21.3507 38.1935 20.4454 38.0074 20.4092 37.3658C20.373 36.7241 20.9112 34.6617 21.2005 33.5562C21.4897 32.4506 22.7205 30.4215 22.7205 30.4215L24.4212 31.5409Z" fill="#F5AA8A"/>
<path d="M21.5259 37.8199C21.5259 37.8199 21.7122 38.6421 21.4007 39.2921C21.0892 39.9421 20.9238 40.0657 20.7138 40.5226C20.5038 40.9796 20.3188 41.449 20.0518 41.3351C19.7848 41.2212 19.7904 40.9004 19.9267 40.5824C20.0629 40.2643 20.1964 39.3324 20.1964 39.3324C19.9743 39.4519 19.7713 39.6041 19.5943 39.7838C19.3579 40.0449 19.1994 40.2796 19.2439 40.6282C19.2884 40.9768 19.4747 41.3685 19.3217 41.5337C19.1688 41.699 18.8795 41.5004 18.8795 41.5004C18.8472 41.537 18.8045 41.563 18.7571 41.5749C18.7096 41.5868 18.6597 41.584 18.6139 41.5671C18.4484 41.5087 18.4178 40.7018 18.3831 40.3949C18.3483 40.0879 18.6069 39.4796 18.8002 39.1199C18.9935 38.7602 20.4078 37.3311 20.4078 37.3311L21.5259 37.8199Z" fill="#F5AA8A"/>
<path d="M18.8726 41.4907C18.7888 41.2924 18.7173 41.0893 18.6584 40.8824C18.5777 40.5879 18.8753 39.4935 18.8753 39.4935" stroke="#D57B6A" stroke-width="0.270403" stroke-miterlimit="10"/>
<path d="M43.1369 52.6505L35.8896 56.4264L36.7117 58.0001L43.959 54.2242L43.1369 52.6505Z" fill="#887E79"/>
<path d="M42.6323 52.9639L42.3894 53.0905L43.2114 54.6642L43.4543 54.5376L42.6323 52.9639Z" fill="#E1C8A7"/>
<path d="M41.9831 53.3032L41.543 53.5326L42.3653 55.1061L42.8054 54.8767L41.9831 53.3032Z" fill="#E1C8A7"/>
<path d="M52.4824 56.9834C52.406 57.0625 52.2043 57.0848 51.9623 57.0862H51.0278H42.5449V54.9695H51.1252C51.1252 54.9695 51.8664 54.9695 52.2377 54.9695C52.3165 54.9755 52.3907 55.0092 52.447 55.0646C52.5033 55.1201 52.538 55.1937 52.545 55.2723C52.5881 55.7084 52.6465 56.807 52.4824 56.9834Z" fill="#788DB8"/>
<path d="M51.8659 55.1959H42.5403V56.8612H51.8659V55.1959Z" fill="#EFECE7"/>
<path d="M51.8659 56.4903H42.5403V56.6625H51.8659V56.4903Z" fill="#D6D3CE"/>
<path d="M51.8659 55.7612H42.5403V55.9334H51.8659V55.7612Z" fill="#D6D3CE"/>
<path d="M51.8659 56.1251H42.5403V56.2973H51.8659V56.1251Z" fill="#D6D3CE"/>
<path d="M51.8659 55.3959H42.5403V55.5681H51.8659V55.3959Z" fill="#D6D3CE"/>
<path d="M52.1036 55.1959H51.8672V56.8612H52.1036V55.1959Z" fill="#CCBF9F"/>
<path d="M56.7279 48.9058C56.3955 48.7391 56.2301 48.6377 56.1717 48.3822C56.1422 48.205 56.138 48.0245 56.1591 47.8461H54.6127C54.6347 48.0244 54.6304 48.205 54.6002 48.3822C54.5488 48.6377 54.3833 48.7391 54.0509 48.9058C53.961 48.9408 53.8856 49.0051 53.8369 49.0883C53.7882 49.1715 53.769 49.2687 53.7825 49.3641V56.0028C53.7757 56.0827 53.7941 56.1627 53.8353 56.2315C53.8765 56.3003 53.9383 56.3544 54.012 56.3861H56.7724C56.8451 56.3535 56.9057 56.299 56.9458 56.2303C56.986 56.1616 57.0036 56.082 56.9963 56.0028V49.3641C57.0098 49.2687 56.9906 49.1715 56.9419 49.0883C56.8932 49.0051 56.8178 48.9408 56.7279 48.9058Z" fill="#AED8D8"/>
<path d="M56.2157 46.9155H54.5609C54.3973 46.9155 54.2646 47.048 54.2646 47.2114V47.8961C54.2646 48.0594 54.3973 48.1919 54.5609 48.1919H56.2157C56.3793 48.1919 56.5119 48.0594 56.5119 47.8961V47.2114C56.5119 47.048 56.3793 46.9155 56.2157 46.9155Z" fill="#597497"/>
</g>
<defs>
<clipPath id="clip0_0_4743">
<rect width="54" height="56" fill="white" transform="translate(3 2)"/>
</clipPath>
</defs>
</svg>
