<svg width="41" height="46" viewBox="0 0 41 46" fill="none" xmlns="http://www.w3.org/2000/svg">
<g clip-path="url(#clip0_0_5785)">
<path d="M5.4009 25.9366C4.71469 28.7434 3.67125 31.5107 3.73998 34.4029C3.77614 35.8362 4.12724 37.3328 5.11303 38.3821C6.18178 39.5193 7.84718 39.9506 9.40621 39.871C12.5309 39.7148 15.3239 37.7631 18.4488 37.5447C20.6377 37.3894 22.7906 38.0977 24.9178 38.6699C27.0449 39.2421 29.3243 39.6685 31.4009 38.9801C32.2803 38.7298 33.0377 38.1765 33.5373 37.4191C34.2389 36.2154 33.8994 34.6928 33.5438 33.3382L29.9924 19.8526C29.7863 19.0711 29.525 18.2104 28.8355 17.7766C28.0802 17.3134 27.1131 17.5339 26.2562 17.7375C22.5077 18.6316 18.6377 18.9522 14.7797 18.6884C12.8198 18.5246 10.8712 18.2374 8.94561 17.8283C7.45961 17.5514 6.62222 17.8611 6.36713 19.4246C5.99351 21.6046 5.92157 23.772 5.4009 25.9366Z" fill="#9F4A4A"/>
<g style="mix-blend-mode:multiply">
<path d="M26.8473 17.6089C26.6468 17.6513 26.4448 17.697 26.2584 17.7341C22.5099 18.6282 18.6399 18.9488 14.7819 18.685C12.822 18.5212 10.8733 18.234 8.9478 17.8249C7.46181 17.548 6.62441 17.8577 6.36933 19.4212C6.17308 20.6335 6.07312 21.8423 5.92793 23.0463C6.51498 23.3959 7.13123 23.6944 7.76962 23.9382C9.07912 24.403 10.447 24.6807 11.8318 24.7629C14.7513 24.9585 17.697 24.4885 20.6491 24.321C23.6011 24.1536 26.6884 24.3271 29.3168 25.7002C30.3568 26.2441 31.2956 26.9614 32.0917 27.8203L29.9859 19.8686C29.8726 19.3609 29.6851 18.8716 29.4294 18.4162C29.1264 18.2998 28.8238 18.1914 28.5183 18.0894C27.9737 17.8958 27.4116 17.7412 26.8473 17.6089Z" fill="#E8E8E8"/>
</g>
<g style="mix-blend-mode:multiply">
<g style="mix-blend-mode:multiply">
<path d="M16.5213 19.1341C16.4697 19.1315 16.4183 19.1392 16.37 19.1566C16.3217 19.1739 16.2774 19.2007 16.2399 19.2353C16.2023 19.27 16.1722 19.3117 16.1512 19.3582C16.1302 19.4047 16.1188 19.4549 16.1177 19.506C15.9151 25.644 15.8899 31.8616 16.0462 38.0088C16.3062 37.9307 16.5662 37.8526 16.8225 37.8002C16.6762 31.7275 16.699 25.5945 16.9007 19.5378C16.9029 19.4352 16.8644 19.3354 16.7935 19.2599C16.7225 19.1844 16.6248 19.1393 16.5213 19.1341Z" fill="#E8E8E8"/>
</g>
<g style="mix-blend-mode:multiply">
<path d="M25.5397 18.183C25.5124 18.1251 25.4712 18.0745 25.4197 18.0358C25.3683 17.9971 25.3081 17.9715 25.2445 17.9612L24.9517 18.0245C24.8758 18.0763 24.8212 18.1532 24.7974 18.2416C24.7737 18.33 24.7824 18.4242 24.822 18.5075C26.9787 23.0049 28.623 27.7223 29.7242 32.5715C30.042 33.9753 30.3336 35.4726 30.109 36.933C29.9836 37.8149 29.6198 38.6444 29.0561 39.334C29.394 39.3344 29.7313 39.314 30.0662 39.273C30.4872 38.5984 30.7647 37.8447 30.8819 37.0576C31.1307 35.464 30.8096 33.8212 30.4882 32.408C29.3772 27.5037 27.7174 22.7324 25.5397 18.183Z" fill="#E8E8E8"/>
</g>
<g style="mix-blend-mode:multiply">
<path d="M20.5413 34.8582C19.8311 29.945 19.5002 24.989 19.5517 20.0335C19.555 19.981 19.5475 19.9282 19.5296 19.8785C19.5117 19.8287 19.4838 19.783 19.4476 19.744C19.4114 19.7051 19.3677 19.6738 19.3191 19.652C19.2705 19.6303 19.218 19.6185 19.1649 19.6174C19.1117 19.6163 19.059 19.626 19.01 19.6458C18.9609 19.6655 18.9166 19.6951 18.8796 19.7325C18.8426 19.7699 18.8138 19.8145 18.7948 19.8635C18.7759 19.9126 18.7673 19.965 18.7695 20.0176C18.7167 25.0129 19.0495 30.0088 19.7648 34.9616C19.8834 35.8511 20.0618 36.7322 20.2989 37.5992C20.5868 37.6349 20.8718 37.677 21.1572 37.7271C20.8716 36.7887 20.6656 35.829 20.5413 34.8582Z" fill="#E8E8E8"/>
</g>
<g style="mix-blend-mode:multiply">
<path d="M24.9147 38.6682L25.5771 38.8368C25.9551 35.9261 25.9367 32.9743 25.5222 30.0605C25.0099 26.3246 23.8492 22.6982 22.0914 19.3425C22.068 19.2968 22.0358 19.2561 21.9965 19.2227C21.9572 19.1894 21.9117 19.164 21.8626 19.1482C21.8135 19.1323 21.7618 19.1263 21.7105 19.1304C21.6593 19.1345 21.6095 19.1487 21.564 19.1722C21.4716 19.2192 21.4022 19.3007 21.3707 19.3989C21.3393 19.4971 21.3484 19.604 21.396 19.6964C24.4299 25.5444 25.62 32.1462 24.8103 38.637L24.9147 38.6682Z" fill="#E8E8E8"/>
</g>
<g style="mix-blend-mode:multiply">
<path d="M11.4695 34.31C12.1114 29.5936 12.2578 24.819 11.9063 20.0626C11.8927 19.9656 11.8427 19.8768 11.7663 19.8141C11.6899 19.7514 11.5928 19.7194 11.4942 19.7244C11.3957 19.7294 11.3031 19.7712 11.235 19.8413C11.1668 19.9113 11.1282 20.0046 11.1268 20.1024C11.4752 24.8083 11.3291 29.5324 10.6909 34.1984C10.6484 34.5219 10.5994 34.8425 10.5536 35.1646C10.2927 36.696 10.1505 38.2461 10.1283 39.8013C10.3934 39.7645 10.6516 39.7167 10.9127 39.6625C10.9457 38.1935 11.0849 36.7299 11.3294 35.2828L11.4695 34.31Z" fill="#E8E8E8"/>
</g>
<g style="mix-blend-mode:multiply">
<path d="M8.75608 17.7937C8.49186 17.7456 8.22361 17.7245 7.95559 17.7307L7.96191 17.7958C8.52824 20.8198 8.48028 23.9193 7.82085 26.9124C7.39453 28.6628 6.86795 30.3867 6.24367 32.076C5.56345 33.8994 5.00576 35.7666 4.57425 37.6653C4.72741 37.9239 4.90933 38.1648 5.11656 38.3835C5.15055 38.4221 5.18746 38.4542 5.22291 38.4895C5.63693 36.3913 6.22609 34.3324 6.98433 32.3341C7.61957 30.6171 8.15499 28.8646 8.58798 27.085C9.25838 24.035 9.3155 20.878 8.75608 17.7937Z" fill="#E8E8E8"/>
</g>
</g>
<path d="M9.99908 13.173C11.2555 12.8751 12.5377 12.6903 13.83 12.621L21.5799 11.9808C23.8971 11.7857 26.3688 11.6248 28.4174 12.7418C29.2459 13.1912 30.0288 13.9977 29.9265 14.9212C29.8818 15.1884 29.7815 15.443 29.632 15.6688C29.4826 15.8946 29.2871 16.0868 29.0581 16.2331C28.5999 16.5246 28.0957 16.7391 27.5657 16.8682C24.4043 17.7961 21.0984 18.17 17.796 17.9731C14.4932 17.7861 11.2416 17.038 8.18339 15.7615C7.8548 15.6142 7.16722 15.4577 6.91831 15.1943C6.60393 14.8392 7.22061 14.5201 7.48145 14.3256C8.24329 13.7954 9.09586 13.4051 9.99908 13.173Z" fill="#873C3C"/>
<path d="M15.3661 2.34725C15.5638 1.65493 15.9056 1.01259 16.3696 0.461326C16.8757 -0.051415 17.7001 -0.331961 18.354 -0.0037093C18.6046 0.144548 18.8142 0.352538 18.9635 0.601103C19.1127 0.849668 19.1968 1.13082 19.2081 1.41866C19.227 1.9938 19.1376 2.56631 18.9444 3.10684C18.3757 5.00194 17.646 6.84441 16.7631 8.61462C16.6048 9.00063 16.3519 9.34072 16.0272 9.60444C14.8507 10.424 13.0008 9.39205 13.3204 8.00148C13.7521 6.0967 14.6997 4.18573 15.3661 2.34725Z" fill="#EBAD16"/>
<path d="M10.0716 10.9594C10.8056 9.55997 12.0697 8.35149 13.6415 8.06739C15.2133 7.78329 17.0368 8.69821 17.4255 10.2429C17.6618 11.1858 17.3561 12.1583 17.0531 13.0891C16.6729 14.254 16.2942 15.4156 15.9107 16.579C15.6234 17.4662 15.2334 18.4593 14.3519 18.7882C13.3282 19.1701 12.2241 18.4375 11.4489 17.6579C10.73 16.9462 9.05186 16.1121 8.89135 15.1058C8.69582 13.9047 9.53067 11.9899 10.0716 10.9594Z" fill="#EBAD16"/>
<path d="M10.9913 11.5235C11.5424 10.4703 12.4926 9.55714 13.6756 9.3479C14.8587 9.13865 16.2257 9.82167 16.5208 10.9856C16.6961 11.6949 16.4676 12.4334 16.2401 13.1255L15.3828 15.7505C15.1579 16.4283 14.8714 17.1641 14.2079 17.4116C13.4401 17.698 12.6099 17.1467 12.0274 16.5624C11.4821 16.0182 10.2242 15.3997 10.1028 14.6406C9.95526 13.7374 10.5845 12.2988 10.9913 11.5235Z" fill="#D88121"/>
<path d="M10.2465 14.4521C12.2368 13.4342 14.2269 12.4137 16.2169 11.3906C17.8431 10.5625 19.5609 9.69761 21.4011 9.74796C24.1668 9.8201 26.4432 11.8724 28.4276 13.8016C28.9744 14.3426 29.5829 14.9659 29.6277 15.7373C29.7 16.9844 28.3491 17.788 27.1661 18.1996C23.4366 19.4876 19.4385 19.8577 15.514 19.2781C13.5568 19.0024 11.6398 18.4842 9.80815 17.7359C9.16854 17.4725 7.91433 17.0659 8.01232 16.1871C8.10066 15.4092 9.65393 14.7703 10.2465 14.4521Z" fill="white"/>
<path d="M5.073 20.5686C5.92046 21.5832 7.39097 21.7714 8.7114 21.8807C12.6618 22.2154 16.6176 22.5642 20.5812 22.3676C23.9588 22.2649 27.2927 21.628 30.4568 20.4809C30.9479 20.2909 31.361 19.946 31.6327 19.499C31.9044 19.052 32.0198 18.5274 31.9611 18.0059C31.8758 17.1808 31.7326 16.3621 31.5324 15.5557C31.4567 15.1249 31.2761 14.7178 31.0064 14.3699C30.7818 14.1504 30.509 13.9855 30.2098 13.8885C29.9106 13.7915 29.5934 13.7652 29.2835 13.8115C28.6619 13.9048 28.0553 14.0749 27.4779 14.3178C23.4129 15.7615 18.9788 15.6343 14.7149 15.1629C12.6168 14.9308 10.5272 14.5038 8.42227 14.3309C7.12775 14.2254 6.07026 14.4715 5.35217 15.5978C4.67921 16.6586 3.66497 19.6336 5.073 20.5686Z" fill="#B15352"/>
</g>
<defs>
<clipPath id="clip0_0_5785">
<rect width="41" height="46" fill="white"/>
</clipPath>
</defs>
</svg>
