<svg width="60" height="66" viewBox="0 0 60 66" fill="none" xmlns="http://www.w3.org/2000/svg">
<g clip-path="url(#clip0_0_2253)">
<path d="M15.6832 43.9146L16.8592 42.9579C16.3356 41.7632 15.076 41.5633 14.3763 41.5498L13.1709 42.1741C13.5185 43.9146 15.6832 43.9146 15.6832 43.9146Z" fill="#1D3542"/>
<path d="M25.4821 42.6907C25.4821 42.6907 23.5544 41.5206 22.27 43.0096C22.27 43.0096 21.094 42.0529 19.0602 43.5418L18.3108 43.863C18.3108 43.863 20.3423 45.4598 22.5996 44.2875C22.5996 44.2875 26.1299 44.8197 26.2383 43.863C26.2798 43.6092 26.2256 43.3491 26.086 43.1327C25.9464 42.9162 25.7313 42.7588 25.4821 42.6907Z" fill="#1D3542"/>
<path d="M31.6352 21.023C31.6352 21.023 37.8426 18.3617 39.0186 13.1425C40.1947 7.92319 35.7005 2.18738 35.7005 2.18738C35.7005 2.18738 17.0804 18.0518 21.148 21.3532C23.245 23.0555 31.6352 22.3121 31.6352 22.3121" fill="#1D3542"/>
<mask id="mask0_0_2253" style="mask-type:luminance" maskUnits="userSpaceOnUse" x="20" y="2" width="20" height="21">
<path d="M31.6352 21.023C31.6352 21.023 37.8426 18.3617 39.0186 13.1425C40.1947 7.92319 35.7005 2.18738 35.7005 2.18738C35.7005 2.18738 17.0804 18.0518 21.148 21.3532C23.245 23.0555 31.6352 22.3121 31.6352 22.3121" fill="white"/>
</mask>
<g mask="url(#mask0_0_2253)">
<g style="mix-blend-mode:multiply" opacity="0.22">
<path d="M24.2607 15.1659C24.2607 15.1659 26.2922 20.2774 30.0415 20.064C33.7908 19.8507 36.4228 15.0963 36.6553 12.682C36.8878 10.2678 23.8341 12.5046 24.2607 15.1659Z" fill="#1D3542"/>
</g>
</g>
<path d="M24.464 46.6837C24.464 46.6837 20.4009 52.8597 20.1752 53.8187C20.1752 53.8187 6.36984 54.5621 3.15778 55.9477C-0.0542923 57.3334 -1.23032 61.4837 1.55287 63.6127C4.33607 65.7417 22.85 66.4896 27.9875 64.6795C27.9875 64.6795 54.5283 68.1919 59.0225 63.0804C63.5167 57.969 50.8964 52.9743 40.188 53.4975C40.188 53.4975 36.4409 46.1515 34.4094 45.188C32.3779 44.2246 24.464 46.6837 24.464 46.6837Z" fill="#C1063D"/>
<mask id="mask1_0_2253" style="mask-type:luminance" maskUnits="userSpaceOnUse" x="-1" y="44" width="61" height="22">
<path d="M24.464 46.6837C24.464 46.6837 20.4009 52.8597 20.1752 53.8187C20.1752 53.8187 6.36984 54.5621 3.15778 55.9477C-0.0542923 57.3334 -1.23032 61.4837 1.55287 63.6127C4.33607 65.7417 22.85 66.4896 27.9875 64.6795C27.9875 64.6795 54.5283 68.1919 59.0225 63.0804C63.5167 57.969 50.8964 52.9743 40.188 53.4975C40.188 53.4975 36.4409 46.1515 34.4094 45.188C32.3779 44.2246 24.464 46.6837 24.464 46.6837Z" fill="white"/>
</mask>
<g mask="url(#mask1_0_2253)">
<g style="mix-blend-mode:multiply" opacity="0.23">
<path d="M29.7707 64.8906C26.1339 64.4513 22.6597 63.1362 19.6492 61.0592C19.6492 61.0592 22.6445 65.2117 26.0688 65.8495C29.493 66.4873 29.7707 64.8906 29.7707 64.8906Z" fill="#C1063D"/>
</g>
<g style="mix-blend-mode:multiply" opacity="0.23">
<path d="M9.58858 56.2667C9.38543 56.4913 8.30421 57.0123 9.36286 57.439C10.4215 57.8657 16.3197 61.0593 17.8185 60.6326C19.3173 60.2059 10.6585 55.0966 9.58858 56.2667Z" fill="#C1063D"/>
</g>
<g style="mix-blend-mode:multiply" opacity="0.23">
<path d="M41.251 60.0846C41.4767 60.1003 46.0815 58.928 48.1153 58.0768C50.1491 57.2257 50.5779 56.5856 51.1129 56.5856C51.6479 56.5856 51.5395 55.5211 50.043 55.6289C48.5464 55.7367 42.3367 58.3957 42.3367 58.3957L41.251 60.2395" fill="#C1063D"/>
</g>
<g style="mix-blend-mode:multiply" opacity="0.23">
<path d="M39.768 57.4344C39.768 57.4344 34.8449 58.4989 34.0955 58.3911C33.3461 58.2834 35.5943 53.7064 40.8379 53.2819C40.8379 53.2819 35.7004 53.1741 32.2762 57.0077C28.8519 60.8413 25.9559 56.0488 23.8228 54.9865C23.8228 54.9865 27.2628 59.3029 27.414 59.8599C27.414 59.8599 32.7412 59.1862 34.2738 59.4242C34.2738 59.4242 38.1631 59.4579 40.0366 57.3828L39.768 57.4344Z" fill="#C1063D"/>
</g>
<path d="M21.4301 59.4961C22.9899 60.1946 24.7099 60.1901 26.3825 60.0441C28.2583 59.8802 30.1251 59.6511 32.0076 59.5635C33.9674 59.4654 35.9315 59.4932 37.8878 59.6466C38.4773 59.6762 39.0637 59.7513 39.6416 59.8712C40.1518 59.9947 40.6574 60.1384 41.163 60.2844C42.2104 60.5898 43.2758 60.8908 44.2961 61.2838C44.3909 61.322 44.4338 61.167 44.339 61.1288C43.4632 60.792 42.5558 60.5337 41.6574 60.2642C40.759 59.9947 39.8516 59.6825 38.9374 59.5905C35.0865 59.157 31.2176 59.3659 27.3735 59.7858C25.421 59.997 23.3533 60.1834 21.5046 59.3591C21.4098 59.3165 21.3286 59.4557 21.4234 59.4961H21.4301Z" fill="#C1063D"/>
<path d="M19.9448 61.5241C22.7471 63.154 25.8022 64.3091 28.9851 64.9423C29.0867 64.9625 29.1296 64.8098 29.028 64.7895C25.859 64.1582 22.8171 63.0085 20.0261 61.3871C20.0078 61.3764 19.986 61.3734 19.9655 61.3786C19.945 61.3839 19.9274 61.397 19.9166 61.4152C19.9058 61.4334 19.9028 61.4551 19.908 61.4755C19.9133 61.4959 19.9266 61.5134 19.9448 61.5241Z" fill="#C1063D"/>
<path d="M14.4372 58.1913C12.7962 57.7871 11.0513 57.4008 9.40578 57.9982C9.30872 58.0341 9.34935 58.1891 9.44867 58.1532C11.0671 57.5648 12.7804 57.9466 14.3943 58.3463C14.4936 58.371 14.5365 58.2161 14.4372 58.1913Z" fill="#C1063D"/>
<g style="mix-blend-mode:multiply" opacity="0.49">
<path d="M27.2268 59.7409L25.4368 57.1649L27.2268 59.7409Z" fill="#C1063D"/>
</g>
<path d="M41.1066 53.1517C40.3713 53.2008 39.6449 53.3403 38.9441 53.5672C38.2347 53.7734 37.5481 54.0502 36.8946 54.3936C36.8043 54.443 36.8946 54.58 36.9758 54.5306C37.6169 54.1955 38.2898 53.9247 38.9848 53.7221C39.6722 53.4983 40.385 53.3603 41.1066 53.3112C41.2082 53.3112 41.2104 53.1472 41.1066 53.1517Z" fill="#C1063D"/>
<path d="M19.6491 53.7962C20.7883 53.8435 21.8652 54.3262 22.6557 55.1437C22.728 55.2178 22.8408 55.1055 22.7686 55.0314C21.9473 54.1858 20.83 53.6879 19.6491 53.6412C19.6301 53.6444 19.6129 53.6542 19.6005 53.6688C19.5881 53.6834 19.5813 53.7018 19.5813 53.721C19.5813 53.7401 19.5881 53.7586 19.6005 53.7732C19.6129 53.7878 19.6301 53.7975 19.6491 53.8007V53.7962Z" fill="#C1063D"/>
<path d="M39.2014 58.0791C37.847 58.773 36.443 59.3098 34.8991 59.3277C34.8801 59.3309 34.8629 59.3407 34.8505 59.3553C34.8381 59.3699 34.8313 59.3884 34.8313 59.4075C34.8313 59.4266 34.8381 59.4451 34.8505 59.4597C34.8629 59.4743 34.8801 59.484 34.8991 59.4872C36.4791 59.4692 37.9012 58.9235 39.2826 58.2183C39.3752 58.1711 39.2939 58.0319 39.2014 58.0791Z" fill="#C1063D"/>
</g>
<path d="M19.8275 25.838C19.8388 26.0514 19.376 27.565 18.9246 31.5289C18.4731 35.4928 16.1527 40.9321 16.182 41.5699C16.2114 42.2078 14.7396 42.8096 13.5817 45.5293C12.4237 48.249 9.94299 50.1759 9.32676 50.7374C8.44996 50.5152 7.54058 50.4491 6.64063 50.542C5.25468 50.7127 3.95224 50.3466 3.71749 49.9311C3.71749 49.9311 3.10126 50.4926 3.66105 51.0001C4.22085 51.5077 5.48266 51.0226 5.83479 51.6447C6.18692 52.2668 5.38334 53.2662 4.61136 52.9809C4.34933 52.8923 4.11128 52.745 3.91559 52.5503C3.71989 52.3556 3.5718 52.1187 3.48274 51.858C3.36084 51.5436 3.83486 50.2433 2.85747 49.9693C2.85747 49.9693 2.56629 51.7412 2.6927 52.1612C2.6927 52.1612 1.33835 50.7329 0.622803 51.4066C0.622803 51.4066 1.96135 52.516 2.08324 52.8305C2.08324 52.8305 0.988468 52.3476 0.697282 53.0011C0.697282 53.0011 1.69047 53.594 2.12161 53.6749C2.55274 53.7557 2.88004 53.8523 3.11028 54.1622C3.11028 54.1622 1.92298 54.0028 1.84623 54.6473C1.84623 54.6473 3.02226 54.5912 3.56625 54.7798C4.11025 54.9685 6.15306 55.0853 6.88216 54.6249C7.61125 54.1645 17.638 48.6892 19.8614 43.5755C19.8614 43.5755 22.5407 34.4956 22.5475 32.3643" fill="#F4A082"/>
<mask id="mask2_0_2253" style="mask-type:luminance" maskUnits="userSpaceOnUse" x="0" y="25" width="23" height="30">
<path d="M19.8275 25.838C19.8388 26.0514 19.376 27.565 18.9246 31.5289C18.4731 35.4928 16.1527 40.9321 16.182 41.5699C16.2114 42.2078 14.7396 42.8096 13.5817 45.5293C12.4237 48.249 9.94299 50.1759 9.32676 50.7374C8.44996 50.5152 7.54058 50.4491 6.64063 50.542C5.25468 50.7127 3.95224 50.3466 3.71749 49.9311C3.71749 49.9311 3.10126 50.4926 3.66105 51.0001C4.22085 51.5077 5.48266 51.0226 5.83479 51.6447C6.18692 52.2668 5.38334 53.2662 4.61136 52.9809C4.34933 52.8923 4.11128 52.745 3.91559 52.5503C3.71989 52.3556 3.5718 52.1187 3.48274 51.858C3.36084 51.5436 3.83486 50.2433 2.85747 49.9693C2.85747 49.9693 2.56629 51.7412 2.6927 52.1612C2.6927 52.1612 1.33835 50.7329 0.622803 51.4066C0.622803 51.4066 1.96135 52.516 2.08324 52.8305C2.08324 52.8305 0.988468 52.3476 0.697282 53.0011C0.697282 53.0011 1.69047 53.594 2.12161 53.6749C2.55274 53.7557 2.88004 53.8523 3.11028 54.1622C3.11028 54.1622 1.92298 54.0028 1.84623 54.6473C1.84623 54.6473 3.02226 54.5912 3.56625 54.7798C4.11025 54.9685 6.15306 55.0853 6.88216 54.6249C7.61125 54.1645 17.638 48.6892 19.8614 43.5755C19.8614 43.5755 22.5407 34.4956 22.5475 32.3643" fill="white"/>
</mask>
<g mask="url(#mask2_0_2253)">
<g style="mix-blend-mode:multiply" opacity="0.21">
<path d="M17.8298 36.4607C17.8298 36.4607 20.0758 41.0399 22.9673 42.85C25.8589 44.6602 21.5746 33.1616 17.8298 36.4607Z" fill="#D18161"/>
</g>
</g>
<path d="M41.1586 26.2401C41.1473 26.4647 41.4227 27.0823 41.8493 31.0506C42.2759 35.019 44.558 40.4718 44.5174 41.1096C44.4767 41.7475 45.9507 42.3606 47.0884 45.087C48.226 47.8134 50.7 49.7605 51.3049 50.3265C52.1836 50.1103 53.0938 50.0509 53.9933 50.1513C55.377 50.3332 56.6839 49.9761 56.9277 49.5629C56.9277 49.5629 57.5394 50.1288 56.9751 50.6319C56.4108 51.135 55.1535 50.6319 54.7969 51.2607C54.4402 51.8896 55.2483 52.8845 56.0113 52.6082C56.2721 52.5208 56.5094 52.3751 56.705 52.1824C56.9006 51.9898 57.0494 51.7552 57.1399 51.4965C57.2641 51.1821 56.7991 49.8773 57.7787 49.6101C57.7787 49.6101 58.0586 51.3842 57.9277 51.8042C57.9277 51.8042 59.282 50.3849 60.0044 51.0631C60.0044 51.0631 58.65 52.1635 58.5349 52.478C58.5349 52.478 59.6319 52.0019 59.9186 52.6576C59.9186 52.6576 58.9209 53.2438 58.4875 53.3314C58.0541 53.419 57.729 53.5043 57.4965 53.812C57.4965 53.812 58.6839 53.6615 58.7561 54.3061C58.7561 54.3061 57.5823 54.2432 57.0361 54.4273C56.4898 54.6115 54.447 54.7148 53.7224 54.2477C52.9978 53.7805 42.996 48.2266 40.82 43.0972C40.82 43.0972 38.2061 33.9994 38.2151 31.8681" fill="#F4A082"/>
<mask id="mask3_0_2253" style="mask-type:luminance" maskUnits="userSpaceOnUse" x="38" y="26" width="23" height="29">
<path d="M41.1586 26.2401C41.1473 26.4647 41.4227 27.0823 41.8493 31.0506C42.2759 35.019 44.558 40.4718 44.5174 41.1096C44.4767 41.7475 45.9507 42.3606 47.0884 45.087C48.226 47.8134 50.7 49.7605 51.3049 50.3265C52.1836 50.1103 53.0938 50.0509 53.9933 50.1513C55.377 50.3332 56.6839 49.9761 56.9277 49.5629C56.9277 49.5629 57.5394 50.1288 56.9751 50.6319C56.4108 51.135 55.1535 50.6319 54.7969 51.2607C54.4402 51.8896 55.2483 52.8845 56.0113 52.6082C56.2721 52.5208 56.5094 52.3751 56.705 52.1824C56.9006 51.9898 57.0494 51.7552 57.1399 51.4965C57.2641 51.1821 56.7991 49.8773 57.7787 49.6101C57.7787 49.6101 58.0586 51.3842 57.9277 51.8042C57.9277 51.8042 59.282 50.3849 60.0044 51.0631C60.0044 51.0631 58.65 52.1635 58.5349 52.478C58.5349 52.478 59.6319 52.0019 59.9186 52.6576C59.9186 52.6576 58.9209 53.2438 58.4875 53.3314C58.0541 53.419 57.729 53.5043 57.4965 53.812C57.4965 53.812 58.6839 53.6615 58.7561 54.3061C58.7561 54.3061 57.5823 54.2432 57.0361 54.4273C56.4898 54.6115 54.447 54.7148 53.7224 54.2477C52.9978 53.7805 42.996 48.2266 40.82 43.0972C40.82 43.0972 38.2061 33.9994 38.2151 31.8681" fill="white"/>
</mask>
<g mask="url(#mask3_0_2253)">
<g style="mix-blend-mode:multiply" opacity="0.21">
<path d="M40.838 44.9792C40.838 44.9792 42.8695 41.5723 44.6911 41.1479C46.5127 40.7234 39.8764 36.8876 40.838 44.9792Z" fill="#D18161"/>
</g>
</g>
<path d="M24.2608 47.1037L22.2292 32.6227L19.6718 26.6668C19.6718 26.6668 19.1752 25.1531 24.8928 22.4177C30.6736 19.6531 40.838 22.95 41.2105 26.5927C41.6213 30.6037 38.6981 31.8951 38.6981 31.8951L36.4499 47.1037C36.4499 47.1037 31.2063 49.7717 24.2608 47.1037Z" fill="#F4A082"/>
<mask id="mask4_0_2253" style="mask-type:luminance" maskUnits="userSpaceOnUse" x="19" y="21" width="23" height="28">
<path d="M24.2608 47.1037L22.2292 32.6227L19.6718 26.6668C19.6718 26.6668 19.1752 25.1531 24.8928 22.4177C30.6736 19.6531 40.838 22.95 41.2105 26.5927C41.6213 30.6037 38.6981 31.8951 38.6981 31.8951L36.4499 47.1037C36.4499 47.1037 31.2063 49.7717 24.2608 47.1037Z" fill="white"/>
</mask>
<g mask="url(#mask4_0_2253)">
<g style="mix-blend-mode:multiply" opacity="0.21">
<path d="M22.9674 42.8501C22.9358 43.0859 32.8338 49.6594 37.5853 46.0414C42.3368 42.4234 23.9289 35.1852 22.9674 42.8501Z" fill="#D18161"/>
</g>
</g>
<path d="M25.5023 22.3997C25.324 22.9319 28.5158 19.1073 28.211 13.5781H31.8226C31.8226 13.5781 31.8226 20.4615 35.4839 22.6108C35.4884 22.6018 29.7347 27.9132 25.5023 22.3997Z" fill="#F4A082"/>
<mask id="mask5_0_2253" style="mask-type:luminance" maskUnits="userSpaceOnUse" x="25" y="13" width="11" height="12">
<path d="M25.5023 22.3997C25.324 22.9319 28.5158 19.1073 28.211 13.5781H31.8226C31.8226 13.5781 31.8226 20.4615 35.4839 22.6108C35.4884 22.6018 29.7347 27.9132 25.5023 22.3997Z" fill="white"/>
</mask>
<g mask="url(#mask5_0_2253)">
<g style="mix-blend-mode:multiply" opacity="0.34">
<path d="M29.9761 20.064C31.7788 20.064 33.2401 18.8956 33.2401 17.4544C33.2401 16.0131 31.7788 14.8447 29.9761 14.8447C28.1735 14.8447 26.7122 16.0131 26.7122 17.4544C26.7122 18.8956 28.1735 20.064 29.9761 20.064Z" fill="#D18161"/>
</g>
</g>
<path d="M21.2541 59.4556C21.2541 59.4556 20.8252 58.2856 20.3986 57.0077C19.972 55.7298 18.1414 55.6243 16.7599 56.3676C15.3785 57.111 12.4711 55.4109 11.408 55.3031C10.3448 55.1953 8.83923 55.3031 9.15073 56.1565C9.52769 57.1537 10.864 56.2621 11.408 56.9021C11.952 57.5422 18.1504 61.5869 19.9697 61.5869C19.972 61.5914 21.2541 61.2703 21.2541 59.4556Z" fill="#F4A082"/>
<path d="M39.3845 57.9173C39.3845 57.9173 39.924 56.7944 40.4748 55.5614C41.0255 54.3285 42.8449 54.3981 44.1586 55.2739C45.4723 56.1498 48.5106 54.7305 49.5873 54.726C50.664 54.7215 52.1448 54.973 51.7407 55.7905C51.2712 56.7472 50.0275 55.7321 49.4316 56.316C48.8356 56.8999 42.2693 60.3338 40.4567 60.1586C40.4477 60.1586 39.2017 59.7184 39.3845 57.9173Z" fill="#F4A082"/>
<path d="M20.2723 25.4001C20.4032 25.4001 38.1858 31.913 41.5446 28.5442C41.5446 28.5442 42.2218 33.9499 42.978 36.0318C43.8357 38.3742 44.6912 41.0355 44.6912 41.1433C44.6912 41.1433 43.5152 40.9299 39.8765 44.5502C34.9557 49.4438 24.3015 44.9993 17.7983 36.4158C17.7983 36.4203 18.5432 25.3192 20.2723 25.4001Z" fill="#FFD2B9"/>
<mask id="mask6_0_2253" style="mask-type:luminance" maskUnits="userSpaceOnUse" x="17" y="25" width="28" height="22">
<path d="M20.2723 25.4001C20.4032 25.4001 38.1858 31.913 41.5446 28.5442C41.5446 28.5442 42.2218 33.9499 42.978 36.0318C43.8357 38.3742 44.6912 41.0355 44.6912 41.1433C44.6912 41.1433 43.5152 40.9299 39.8765 44.5502C34.9557 49.4438 24.3015 44.9993 17.7983 36.4158C17.7983 36.4203 18.5432 25.3192 20.2723 25.4001Z" fill="white"/>
</mask>
<g mask="url(#mask6_0_2253)">
<path d="M16.8818 30.5633C18.9359 29.5684 21.6491 31.1292 23.7213 30.1635C23.9436 30.0383 24.18 29.9396 24.4255 29.8693C24.657 29.8398 24.8917 29.8474 25.1208 29.8918L31.809 30.853C32.4062 30.9522 33.0096 31.0099 33.6148 31.0259C34.4094 31.0259 35.2265 30.8912 35.9827 31.109C36.3416 31.2146 36.6598 31.3942 37.0233 31.5133C37.9487 31.8299 38.9735 31.7109 39.9577 31.5874L43.953 31.0866C44.3322 31.0394 44.8559 31.0866 44.8943 31.4459C44.9327 31.8052 44.348 31.9243 43.935 31.922C42.707 31.922 41.5084 32.2634 40.285 32.3846C39.4026 32.4539 38.5165 32.4636 37.6327 32.4138C33.3831 32.2641 29.1349 32.0665 24.8883 31.8209C24.0689 31.7715 23.2495 31.7221 22.4392 31.5964C22.1559 31.53 21.8627 31.5171 21.5746 31.5582C21.3376 31.6121 21.1232 31.7446 20.8975 31.812C19.9946 32.0747 19.0917 31.3224 18.1639 31.3785C17.7508 31.4032 17.3536 31.5851 16.9405 31.5514C16.5274 31.5178 16.1211 31.0798 16.3762 30.7789" fill="#FCEBE6"/>
<path d="M16.1032 33.923C16.1957 33.4739 16.8571 33.3077 17.3401 33.4469C17.8232 33.5862 18.216 33.9141 18.6945 34.087C20.1391 34.6147 21.7124 33.5637 23.2677 33.6378C24.3173 33.685 25.3173 34.2487 26.3624 34.1297C26.6694 34.096 26.9673 34.0016 27.2653 33.9657C27.9176 33.8871 28.5654 34.0668 29.2043 34.206C31.3103 34.6552 33.493 34.7001 35.6577 34.736L39.6282 34.7989C40.8223 34.8169 42.0367 34.8348 43.1879 34.5406C43.6266 34.3947 44.0813 34.302 44.5423 34.2644C44.9937 34.2644 45.5084 34.4553 45.6709 34.8506L41.6801 35.3716C41.0336 35.4669 40.3827 35.5299 39.7298 35.5602C38.7344 35.5917 37.7389 35.4726 36.7435 35.4322C33.6555 35.302 30.536 35.9128 27.4887 35.4704C26.6852 35.3536 25.8816 35.165 25.0712 35.2144C24.3715 35.2593 23.6898 35.4816 22.99 35.4592C22.471 35.4168 21.958 35.3196 21.4596 35.1695C19.6813 34.7308 17.8404 34.5993 16.0174 34.7809L15.3538 33.8152L16.1596 33.7815" fill="#FCEBE6"/>
<path d="M16.1122 37.3748C17.0535 36.8111 18.2995 36.9481 19.3739 37.2513C20.4484 37.5544 21.5048 38.0103 22.6289 38.0171C23.683 38.0171 24.6965 37.633 25.7507 37.5836C27.4233 37.505 29.0666 38.2888 30.7166 38.0665C31.4164 37.9744 32.0822 37.7049 32.7865 37.6555C33.3101 37.6393 33.8337 37.6853 34.3463 37.7925L37.4477 38.3113C37.7638 38.3773 38.0865 38.4067 38.4093 38.3989C38.8255 38.3514 39.2333 38.2479 39.6215 38.0912C40.6156 37.7529 41.6324 37.4843 42.6642 37.2872C43.224 37.1816 43.8335 37.1008 44.3391 37.3411C44.5223 37.4547 44.7158 37.5509 44.917 37.6286C45.3278 37.7408 45.7477 37.523 46.1652 37.4354C46.5828 37.3478 47.1652 37.5163 47.1426 37.907C45.9643 38.2933 44.6597 38.0979 43.4137 38.1541C42.0864 38.2125 40.7952 38.5561 39.4838 38.7604C37.4301 39.0805 35.3374 39.0615 33.2899 38.7043C32.5956 38.5541 31.8921 38.4506 31.1839 38.3944C30.3397 38.3652 29.5045 38.5246 28.667 38.619C26.5791 38.866 24.4618 38.7245 22.3625 38.5808L18.9067 38.3562C18.0148 38.319 17.1273 38.2124 16.2521 38.0373C16.0637 38.0167 15.8894 37.928 15.7623 37.788C15.6607 37.642 15.7465 37.3883 15.9384 37.3905" fill="#FCEBE6"/>
<path d="M19.9947 41.168C20.7983 40.8311 21.7418 40.9546 22.586 41.1904C23.4302 41.4263 24.2474 41.7721 25.1254 41.8642C27.6084 42.1494 30.2088 40.4291 32.527 41.3162C32.931 41.4712 33.3283 41.707 33.7662 41.689C34.0918 41.6403 34.4107 41.5543 34.7165 41.433C35.6194 41.1882 36.581 41.5206 37.4568 41.8462C37.7711 42.0014 38.1265 42.0541 38.4726 41.9967C38.7053 41.893 38.9315 41.7753 39.1497 41.6441C39.6825 41.4195 40.2964 41.6441 40.8765 41.7227C41.7366 41.8395 42.6033 41.6284 43.4634 41.5094C44.3234 41.3903 45.2692 41.3881 45.9779 41.8552C45.4543 42.2213 44.7658 42.3178 44.1089 42.3605C41.9217 42.4975 39.6779 42.1651 37.5629 42.6794C37.231 42.7845 36.8862 42.8434 36.5381 42.8546C36.1599 42.8147 35.7892 42.7225 35.4366 42.5806C34.0687 42.1314 32.5879 42.1314 31.1478 42.1314C30.5498 42.1191 29.9516 42.1371 29.3555 42.1853C27.9786 42.3223 26.6355 42.785 25.2496 42.7378C23.577 42.6772 22.0082 41.8754 20.3333 41.8597C20.092 41.877 19.8495 41.8503 19.6178 41.7811C19.5058 41.7509 19.4099 41.679 19.3498 41.5803C19.2897 41.4817 19.2701 41.3638 19.295 41.2511C19.374 41.0422 19.7825 41.013 19.8345 41.2309" fill="#FCEBE6"/>
<path d="M16.7736 28.0637C17.207 27.3271 18.2385 27.0531 19.1504 27.1272C20.0624 27.2013 20.9156 27.5449 21.805 27.7335C22.7309 27.9306 23.6846 27.9633 24.622 27.8301C25.1186 27.7582 25.622 27.6392 26.1208 27.7088C26.6197 27.7785 27.0237 28.0053 27.4955 28.1288C29.141 28.578 30.8159 27.6145 32.5156 27.4012C33.6443 27.2574 34.8067 27.4506 35.9354 27.6505C38.696 28.14 41.513 28.6701 44.2872 28.2972C44.2714 28.9216 43.3843 29.1349 42.7071 29.1551C40.022 29.2377 37.3343 29.1514 34.66 28.8969C33.3192 28.7666 31.9762 28.5959 30.6308 28.6723C29.6873 28.7217 28.7505 28.8969 27.807 28.8587C26.2269 28.8026 24.6988 28.167 23.1097 28.1423C22.2919 28.1712 21.4765 28.2462 20.6673 28.3669C19.5574 28.4748 18.4386 28.4544 17.3334 28.3062C17.105 28.2987 16.886 28.2139 16.7126 28.0659C16.5659 27.902 16.6223 27.5898 16.8503 27.5584" fill="#FCEBE6"/>
<path d="M25.7598 44.4694C28.2743 44.53 30.8002 44.5884 33.29 44.2785C33.8431 44.1888 34.4022 44.1393 34.9626 44.1302C35.456 44.1545 35.9471 44.2138 36.432 44.3077C38.2379 44.6071 40.0497 44.8354 41.8675 44.9926C40.2874 45.6866 38.4568 45.608 36.73 45.3879C35.0032 45.1678 33.2629 44.8152 31.5383 45.0084C30.5384 45.1207 29.5565 45.4148 28.552 45.3812C27.7841 45.3554 27.0353 45.1359 26.376 44.7434" fill="#FCEBE6"/>
</g>
<path d="M37.0641 11.2402C37.0641 15.6443 32.1139 19.2129 30.0305 19.2129C27.947 19.2129 22.9946 15.6443 22.9946 11.2402C22.9946 6.83618 26.0148 1.32495 29.9041 1.32495C33.7933 1.32495 37.0641 6.83842 37.0641 11.2402Z" fill="#F4A082"/>
<mask id="mask7_0_2253" style="mask-type:luminance" maskUnits="userSpaceOnUse" x="22" y="1" width="16" height="19">
<path d="M37.0638 11.2402C37.0638 15.6443 32.1137 19.2129 30.0302 19.2129C27.9468 19.2129 22.9944 15.6443 22.9944 11.2402C22.9944 6.83618 26.0146 1.32495 29.9038 1.32495C33.7931 1.32495 37.0638 6.83842 37.0638 11.2402Z" fill="white"/>
</mask>
<g mask="url(#mask7_0_2253)">
<g style="mix-blend-mode:multiply" opacity="0.18">
<path d="M29.8496 3.67636C29.8496 3.67636 32.3777 8.98547 36.434 10.9124L31.4003 3.53488L28.3892 2.89257C28.3892 2.89257 23.9266 9.54018 24.5722 11.5457C24.5722 11.5457 28.2695 4.41973 30.6374 3.7078C33.0052 2.99588 29.3553 2.66125 29.3553 2.66125" fill="#A05940"/>
</g>
</g>
<path d="M29.922 3.88072C29.922 3.88072 26.2924 6.22985 24.5724 11.5457C24.5724 11.5457 23.6085 13.8881 24.2496 15.1659C24.8906 16.4438 27.3533 18.1484 26.8183 19.7452C26.8 20.6497 26.5792 21.5387 26.1719 22.3476C25.7646 23.1564 25.1812 23.8648 24.464 24.4209C24.464 24.4209 26.8183 23.462 28.8521 27.19C28.8521 27.19 33.1409 24.9442 36.2378 28.8924C36.2378 28.8924 38.4838 26.3366 40.732 29.638C40.732 29.638 42.7635 28.2546 43.8357 30.9158C43.8357 30.9158 45.4406 29.638 44.9057 33.1617C44.9057 33.1617 46.725 34.6506 44.4768 36.0363C44.4768 36.0363 44.7973 36.7819 43.5152 37.5275L42.8719 35.7174C42.8719 35.7174 43.1924 35.3962 43.9418 35.3962C43.9418 35.3962 43.3008 33.9073 44.3707 33.1504C44.3707 33.1504 42.6575 32.7237 42.6575 30.9046C42.6575 30.9046 40.732 32.1825 39.4476 29.9457C39.4476 29.9457 36.3439 32.5014 33.8813 29.0945C33.8813 29.0945 28.9604 32.3958 26.7122 28.03C26.7122 28.03 20.6177 30.7991 20.2904 25.3687C20.2904 25.3687 17.0805 21.0028 21.1481 18.4471C21.1481 18.4471 17.4124 13.5332 19.6493 9.18309C22.0036 4.62409 24.2609 -2.18971 29.3871 0.684929C29.3871 0.684929 38.3777 -3.25423 37.0933 11.4401C37.0933 11.4401 32.5991 8.0265 29.922 3.88072Z" fill="#1D3542"/>
<mask id="mask8_0_2253" style="mask-type:luminance" maskUnits="userSpaceOnUse" x="18" y="-1" width="28" height="39">
<path d="M29.922 3.88072C29.922 3.88072 26.2924 6.22985 24.5724 11.5457C24.5724 11.5457 23.6085 13.8881 24.2496 15.1659C24.8906 16.4438 27.3533 18.1484 26.8183 19.7452C26.8 20.6497 26.5792 21.5387 26.1719 22.3476C25.7646 23.1564 25.1812 23.8648 24.464 24.4209C24.464 24.4209 26.8183 23.462 28.8521 27.19C28.8521 27.19 33.1409 24.9442 36.2378 28.8924C36.2378 28.8924 38.4838 26.3366 40.732 29.638C40.732 29.638 42.7635 28.2546 43.8357 30.9158C43.8357 30.9158 45.4406 29.638 44.9057 33.1617C44.9057 33.1617 46.725 34.6506 44.4768 36.0363C44.4768 36.0363 44.7973 36.7819 43.5152 37.5275L42.8719 35.7174C42.8719 35.7174 43.1924 35.3962 43.9418 35.3962C43.9418 35.3962 43.3008 33.9073 44.3707 33.1504C44.3707 33.1504 42.6575 32.7237 42.6575 30.9046C42.6575 30.9046 40.732 32.1825 39.4476 29.9457C39.4476 29.9457 36.3439 32.5014 33.8813 29.0945C33.8813 29.0945 28.9604 32.3958 26.7122 28.03C26.7122 28.03 20.6177 30.7991 20.2904 25.3687C20.2904 25.3687 17.0805 21.0028 21.1481 18.4471C21.1481 18.4471 17.4124 13.5332 19.6493 9.18309C22.0036 4.62409 24.2609 -2.18971 29.3871 0.684929C29.3871 0.684929 38.3777 -3.25423 37.0933 11.4401C37.0933 11.4401 32.5991 8.0265 29.922 3.88072Z" fill="white"/>
</mask>
<g mask="url(#mask8_0_2253)">
<g style="mix-blend-mode:multiply" opacity="0.22">
<path d="M24.261 15.1659C24.261 15.1659 26.2925 20.2774 30.0418 20.064C33.7911 19.8507 36.423 15.0963 36.6555 12.682C36.888 10.2678 23.8343 12.5046 24.261 15.1659Z" fill="#1D3542"/>
</g>
</g>
<path d="M24.6581 11.887C24.8612 12.7157 24.5791 13.495 24.0283 13.6298C23.4775 13.7645 22.8635 13.2031 22.6581 12.3766C22.4527 11.5502 22.7371 10.7686 23.2879 10.6339C23.8387 10.4991 24.4549 11.0606 24.6581 11.887Z" fill="#F4A082"/>
<path d="M36.3643 11.1437C36.1611 11.9701 36.4433 12.7494 36.994 12.8842C37.5448 13.0189 38.1588 12.4575 38.3642 11.631C38.5696 10.8045 38.2852 10.023 37.7344 9.88825C37.1836 9.7535 36.5697 10.315 36.3643 11.1437Z" fill="#F4A082"/>
<path d="M18.3648 35.6095C16.1075 34.8639 15.1527 37.5275 15.1527 37.5275C13.5478 36.8874 13.1212 38.9109 13.1212 38.9109C11.7285 40.081 13.1212 41.68 13.1212 41.68C13.1211 41.8458 13.137 42.0112 13.1686 42.1741L14.374 41.5497C14.2059 41.5459 14.0377 41.5535 13.8706 41.5722C14.4056 40.5077 13.5478 39.3264 13.5478 39.3264C13.9943 39.363 14.4412 39.2594 14.8254 39.0302C15.2097 38.801 15.512 38.4576 15.6899 38.0485C21.4685 40.1775 22.9673 33.5748 22.9673 33.5748C22.9673 33.5748 20.6107 36.3552 18.3648 35.6095Z" fill="#1D3542"/>
<path d="M25.886 11.7029C26.3399 11.8178 26.809 11.8618 27.2764 11.8332C27.7417 11.7966 28.1985 11.689 28.6308 11.5143C28.2536 11.8326 27.7817 12.0188 27.2877 12.0443C26.7956 12.0849 26.3036 11.965 25.886 11.7029Z" fill="#2E2430"/>
<path d="M29.0666 16.592C29.3841 16.7213 29.7274 16.7758 30.0696 16.7513C30.4119 16.7267 30.7438 16.6238 31.0394 16.4505C31.0567 16.4367 31.0685 16.4171 31.0725 16.3954C31.0765 16.3737 31.0726 16.3512 31.0613 16.3322C31.0501 16.3131 31.0324 16.2987 31.0114 16.2916C30.9903 16.2844 30.9674 16.285 30.9469 16.2933C30.6719 16.4528 30.3635 16.5468 30.0459 16.5678C29.7282 16.5888 29.41 16.5364 29.1162 16.4146C29.0056 16.3697 28.9582 16.5471 29.0666 16.592Z" fill="#A34F31"/>
<path d="M29.0913 14.7999C29.2696 14.7999 29.4299 14.8133 29.5856 14.8156C29.7414 14.8178 29.8949 14.8156 30.0484 14.8021C30.2019 14.7886 30.3509 14.7752 30.4998 14.7527C30.6488 14.7302 30.8113 14.6966 30.9851 14.6674C30.88 14.8067 30.7409 14.9172 30.5811 14.9885C30.4199 15.0632 30.2462 15.1074 30.0687 15.1188C29.892 15.132 29.7144 15.1122 29.545 15.0604C29.375 15.0109 29.2194 14.9215 29.0913 14.7999Z" fill="#A34F31"/>
<path d="M31.6714 11.7209C32.1263 11.8343 32.5962 11.876 33.0641 11.8444C33.5293 11.8074 33.986 11.6998 34.4185 11.5255C34.0376 11.8451 33.5617 12.0313 33.0641 12.0555C32.5757 12.0974 32.0868 11.98 31.6714 11.7209Z" fill="#2E2430"/>
<path d="M25.8522 10.6586C26.1542 10.3055 26.5454 10.0391 26.9855 9.8867C27.4255 9.73431 27.8985 9.70151 28.3555 9.79168C28.5158 9.82313 28.5812 9.5671 28.4232 9.54464C27.9224 9.44288 27.4033 9.47557 26.9194 9.63936C26.4354 9.80315 26.004 10.0921 25.6694 10.4767C25.561 10.6002 25.7439 10.7843 25.8522 10.6586Z" fill="#1D3542"/>
<path d="M34.4952 10.3688C34.1615 9.98376 33.7305 9.69433 33.2468 9.53047C32.763 9.36662 32.2441 9.33429 31.7436 9.43683C31.581 9.46827 31.6488 9.71531 31.8113 9.68387C32.2683 9.59273 32.7416 9.62507 33.1818 9.77752C33.622 9.92997 34.0132 10.197 34.3146 10.5507C34.4229 10.6743 34.6035 10.4924 34.4952 10.3688Z" fill="#1D3542"/>
<path d="M30.1296 3.51917C30.2875 4.20523 30.5341 4.86803 30.8632 5.49099C31.1899 6.12642 31.5899 6.72183 32.0551 7.26518C32.5187 7.81386 33.0452 8.30679 33.6239 8.73395C33.9138 8.95053 34.2152 9.15144 34.5268 9.33582C34.836 9.52447 35.1678 9.67045 35.4883 9.84338C35.161 9.68842 34.8112 9.55591 34.5019 9.38074C34.1785 9.21273 33.8656 9.02523 33.5652 8.81929C32.9554 8.41506 32.3955 7.94093 31.897 7.40667C31.39 6.87274 30.9483 6.28097 30.5811 5.64371C30.2002 5.00475 29.9065 4.31825 29.7075 3.60226L30.1296 3.51917Z" fill="#1D3542"/>
<path d="M30.281 3.05652C30.1298 3.41333 30.0207 3.78638 29.9559 4.1682C29.8874 4.55652 29.8662 4.95164 29.8927 5.34501C29.9176 5.74084 30.002 6.13072 30.1433 6.5016C30.2856 6.87799 30.4817 7.23198 30.7256 7.55264C30.4536 7.24972 30.2256 6.91028 30.0485 6.54427C29.8674 6.17313 29.7426 5.77729 29.6783 5.36971C29.6143 4.95891 29.5999 4.54198 29.6354 4.12778C29.669 3.70776 29.7524 3.29316 29.8837 2.89258L30.281 3.05652Z" fill="#1D3542"/>
<path d="M30.6375 3.46519C30.4411 3.59474 30.2554 3.73969 30.0822 3.89863C29.9039 4.05882 29.7365 4.23063 29.5811 4.41293C29.4222 4.59571 29.2773 4.79015 29.1477 4.99459C29.0157 5.2 28.8987 5.41466 28.7979 5.63689C28.8674 5.40023 28.9526 5.1684 29.0529 4.94294C29.1554 4.7163 29.2738 4.49716 29.4073 4.28716C29.5443 4.07402 29.6951 3.86997 29.8588 3.6763C30.0223 3.47781 30.2012 3.29234 30.3937 3.12158L30.6375 3.46519Z" fill="#1D3542"/>
</g>
<defs>
<clipPath id="clip0_0_2253">
<rect width="60" height="66" fill="white"/>
</clipPath>
</defs>
</svg>
